<?xml version="1.0" encoding="UTF-8"?>
<svg xmlns="http://www.w3.org/2000/svg" xmlns:xlink="http://www.w3.org/1999/xlink" width="24" height="24" viewBox="0 0 24 24" version="1.1">
    <!-- Generator: Sketch 63.1 (92452) - https://sketch.com -->
    <title>Linear/ic_device_band</title>
    <desc>Created with Sketch.</desc>
    <defs>
        <path d="M13.7680491,0.25 C14.2374951,0.25 14.6437445,0.57654781 14.7446673,1.03501722 L14.7876511,1.23720258 C14.9465995,2.01085407 15.0912636,3.00804501 15.2216434,4.2287754 C15.845047,4.68360176 16.25,5.41950996 16.25,6.25 L16.2502252,9.79275606 C16.5414056,9.89577871 16.75,10.1735294 16.75,10.5 L16.75,13.5 C16.75,13.8264706 16.5414056,14.1042213 16.2502252,14.2072439 L16.25,17.75 C16.25,18.58049 15.845047,19.3163982 15.2218274,19.7710382 L15.1841396,20.1137839 C15.0699243,21.1237588 14.9453367,21.9693768 14.8102609,22.6507551 L14.7876511,22.7627974 L14.7446673,22.9649828 C14.6473489,23.4070783 14.2661235,23.7265069 13.818094,23.7487593 L13.7680491,23.75 L10.2319509,23.75 C9.76250488,23.75 9.3562555,23.4234522 9.25533272,22.9649828 L9.21049554,22.7537635 C9.06228199,22.0302354 8.92650587,21.1120705 8.80316715,19.9992689 L8.77842231,19.7712203 C8.15506118,19.3165948 7.75,18.580601 7.75,17.75 L7.75,6.25 C7.75,5.41939905 8.15506118,4.68340521 8.77842231,4.2287797 L8.78475963,4.16911108 C8.92516885,2.86700601 9.08202654,1.82230805 9.25533272,1.03501722 C9.3562555,0.57654781 9.76250488,0.25 10.2319509,0.25 L13.7680491,0.25 Z M13.658,20.25 L10.34175,20.25 L10.364655,20.4378772 L10.4057114,20.7601251 C10.4678474,21.2326345 10.5324459,21.6562104 10.5992442,22.0301538 L10.63975,22.25 L13.36,22.25 L13.3788441,22.1514075 C13.4605504,21.7109111 13.5394224,21.193743 13.6147246,20.6025511 L13.658,20.25 Z M13.75,5.25 L10.25,5.25 C9.71445115,5.25 9.27723028,5.67099212 9.25122383,6.20008991 L9.25,6.25 L9.25,17.75 C9.25,18.2855488 9.67099212,18.7227697 10.2000899,18.7487762 L10.25,18.75 L13.75,18.75 C14.2855488,18.75 14.7227697,18.3290079 14.7487762,17.7999101 L14.75,17.75 L14.75,6.25 C14.75,5.71445115 14.3290079,5.27723028 13.7999101,5.25122383 L13.75,5.25 Z M13.36,1.75 L10.63975,1.75 L10.6215914,1.84703766 C10.5318796,2.33091138 10.4460266,2.90315878 10.364655,3.56212284 L10.34175,3.75 L13.658,3.75 L13.6554401,3.7272425 C13.5680095,2.99685278 13.4754061,2.36917918 13.3788441,1.84859254 L13.36,1.75 Z" id="_path-1"/>
    </defs>
    <g id="_Linear/ic_device_band" stroke="none" stroke-width="1" fill="none" fill-rule="evenodd">
        <mask id="_mask-2" fill="white">
            <use xlink:href="#_path-1"/>
        </mask>
        <use id="_形状" fill="#000000" fill-rule="nonzero" xlink:href="#_path-1"/>
    </g>
</svg>