<?xml version="1.0" encoding="UTF-8"?>
<svg xmlns="http://www.w3.org/2000/svg" xmlns:xlink="http://www.w3.org/1999/xlink" width="24" height="24" viewBox="0 0 24 24" version="1.1">
    <!-- Generator: Sketch 63.1 (92452) - https://sketch.com -->
    <title>Filled/ic_device_band_filled</title>
    <desc>Created with Sketch.</desc>
    <g id="_Filled/ic_device_band_filled" stroke="none" stroke-width="1" fill="none" fill-rule="evenodd">
        <path d="M13.7680366,0.25 C14.2374883,0.25 14.6437426,0.576539539 14.7446667,1.03501441 C14.9205114,1.83383652 15.0794223,2.89766177 15.2213993,4.22649015 C15.8449383,4.68340428 16.25,5.41939853 16.25,6.25 L16.2513685,9.79316162 C16.5419515,9.89650612 16.75,10.1739569 16.75,10.5 L16.75,13.5 C16.75,13.8260431 16.5419515,14.1034939 16.2513685,14.2068384 L16.25,17.75 C16.25,18.4507429 15.9616943,19.0841485 15.4972294,19.5380701 L15.4140229,20.2935522 C15.286535,21.3826535 15.1469509,22.2731934 14.9946667,22.9649856 C14.9021529,23.3852542 14.553077,23.694671 14.1339428,23.7433123 L14.0180366,23.75 L10.2319634,23.75 L10.1160572,23.7433123 C9.69692298,23.694671 9.34784708,23.3852542 9.25533334,22.9649856 C9.10172084,22.2671594 8.96103097,21.3671033 8.83326371,20.2648173 L8.77940277,19.771935 C8.15548595,19.3173664 7.75,18.5810363 7.75,17.75 L7.75,6.25 C7.75,5.41896366 8.15548595,4.68263363 8.77940277,4.228065 L8.83326371,3.73518268 C8.96103097,2.63289669 9.10172084,1.7328406 9.25533334,1.03501441 C9.34784708,0.614745779 9.69692298,0.305328974 10.1160572,0.256687664 L10.2319634,0.25 L13.7680366,0.25 Z M13.75,4.75 L10.25,4.75 C9.47030388,4.75 8.82955132,5.34488808 8.75686658,6.10553999 L8.75,6.25 L8.75,17.75 C8.75,18.5296961 9.34488808,19.1704487 10.10554,19.2431334 L10.25,19.25 L13.75,19.25 C14.5296961,19.25 15.1704487,18.6551119 15.2431334,17.89446 L15.25,17.75 L15.25,6.25 C15.25,5.42157288 14.5784271,4.75 13.75,4.75 Z" id="_形状" fill="#000000"/>
        <path d="M10.5,5.5 L13.5,5.5 C14.0522847,5.5 14.5,5.94771525 14.5,6.5 L14.5,17.5 C14.5,18.0522847 14.0522847,18.5 13.5,18.5 L10.5,18.5 C9.94771525,18.5 9.5,18.0522847 9.5,17.5 L9.5,6.5 C9.5,5.94771525 9.94771525,5.5 10.5,5.5 Z" id="_矩形" fill="#000000" opacity="0.600000024"/>
    </g>
</svg>