<?xml version="1.0" encoding="UTF-8"?>
<svg xmlns="http://www.w3.org/2000/svg" xmlns:xlink="http://www.w3.org/1999/xlink" width="24" height="24" viewBox="0 0 24 24" version="1.1">
    <!-- Generator: Sketch 63.1 (92452) - https://sketch.com -->
    <title>Linear/ic_device_earphone_h2</title>
    <desc>Created with Sketch.</desc>
    <defs>
        <path d="M16.865727,1.25 C19.2279517,1.25 21.1429537,3.15278981 21.1429537,5.5 C21.1431995,5.560287 21.1419648,5.62026295 21.1393573,5.67960831 C21.051812,7.7663639 19.4502828,9.46441433 17.3977262,9.71744634 C17.4172724,9.89481046 17.4389724,10.0720155 17.4627603,10.2489932 L17.5,10.5142806 L17.707857,11.9348555 C17.7303036,12.0882641 17.7438072,12.2428154 17.7483107,12.3977265 L17.75,12.513965 L17.75,21.5 C17.75,22.3095992 17.1086063,22.9693929 16.3062346,22.9989654 L16.25,23 L15.75,23 L15.6937538,22.9989766 C14.9100421,22.9700858 14.2799131,22.3399467 14.251045,21.5562346 L14.2500116,21.5 L14.2501085,9.0048553 C13.1979786,8.28624156 12.4855874,7.11200217 12.4012629,5.76863257 C12.3973608,5.70993738 12.3947009,5.65039752 12.393511,5.59036775 L12.3928571,5.5 L12.3936139,5.41924008 C12.4369383,3.10929891 14.3349706,1.25 16.6700433,1.25 C16.7026912,1.25 16.7353504,1.25045953 16.7680133,1.25137119 L16.865727,1.25 Z M8.49978278,13.5 L6.99978278,13.5 L7,21.5 C7,21.7761424 7.22385763,22 7.5,22 L8,22 C8.26359045,22 8.47954128,21.7960347 8.49862857,21.5373198 L8.49999583,21.5 L8.49978278,13.5 Z M16.7497828,13.5 L15.2500328,13.5 L15.2500042,21.5 L15.2513714,21.5373198 C15.2695044,21.783099 15.4653066,21.9794702 15.7108374,21.9984895 L15.7500042,22 L16.25025,22 L16.2875787,21.9986408 C16.5333574,21.9805014 16.7297232,21.7846939 16.7487285,21.5391627 L16.7502368,21.5 L16.7497828,13.5 Z M15.2501959,9.39814784 L15.2500328,12.5 L16.7495328,12.5 L16.7480206,12.4050051 C16.7453824,12.332413 16.7401084,12.2599407 16.7322092,12.1877315 L16.7183928,12.0796329 L16.5105357,10.659058 L16.4698295,10.3685251 L16.4326643,10.0775362 L16.3917301,9.71861072 C16.0034129,9.66775664 15.6187402,9.55680076 15.2501959,9.39814784 Z M8.49999903,9.51015947 C8.13841934,9.63657338 7.75459232,9.71607033 7.35591912,9.74129621 L7.35095613,9.78612377 C7.32972488,9.98053277 7.30612804,10.1746809 7.28017049,10.3685251 L7.23946426,10.659058 L7.03160723,12.0796329 C7.01582448,12.1874983 7.00593679,12.296117 7.00197936,12.4050051 L7.00003278,12.5 L8.49978278,12.5 L8.49999903,9.51015947 Z M13.3928582,5.50589013 L13.3940585,5.58894759 L13.3940585,5.58894759 L13.3990328,5.70025 L13.4039699,5.76199993 C13.4281947,6.03854944 13.48836,6.30816141 13.5490968,6.45426579 C14.064677,7.69451096 15.557414,8.75 16.865727,8.75 L16.9314328,8.74936015 L16.9314328,8.74936015 L17.2000757,8.69637263 L17.2801951,8.67948527 C18.2211351,8.46802778 19.1507639,7.79863058 19.690725,6.99838427 C19.3177672,6.96250118 19.152672,6.36059594 19.1432832,5.57217764 L19.1428571,5.5 L19.1432606,5.42974794 C19.1521346,4.66357987 19.3078934,4.07312099 19.6582138,4.00630635 L19.6917828,4.0015 L19.6437539,3.93167581 C18.9882621,3.00547305 17.8259454,2.29377967 16.7678192,2.2519458 L16.7207098,2.25425318 C15.4582083,2.32759686 14.0610625,3.33965858 13.5584578,4.52345318 C13.5532451,4.5357308 13.5474193,4.55136933 13.5411699,4.5698808 L13.5213402,4.63354599 L13.5213402,4.63354599 L13.5001051,4.71152084 L13.5001051,4.71152084 L13.4786009,4.80087742 L13.4579642,4.89868782 C13.4175445,5.10474135 13.3940017,5.31813675 13.3928582,5.50589013 Z M8.125,4.75 C8.60824916,4.75 9,5.14175084 9,5.625 C9,6.10824916 8.60824916,6.5 8.125,6.5 C7.64175084,6.5 7.25,6.10824916 7.25,5.625 C7.25,5.14175084 7.64175084,4.75 8.125,4.75 Z M15.625,4.75 C16.1082492,4.75 16.5,5.14175084 16.5,5.625 C16.5,6.10824916 16.1082492,6.5 15.625,6.5 C15.1417508,6.5 14.75,6.10824916 14.75,5.625 C14.75,5.14175084 15.1417508,4.75 15.625,4.75 Z M5.875,5 C6.22017797,5 6.5,5.27982203 6.5,5.625 C6.5,5.97017797 6.22017797,6.25 5.875,6.25 C5.52982203,6.25 5.25,5.97017797 5.25,5.625 C5.25,5.27982203 5.52982203,5 5.875,5 Z M17.875,5 C18.220178,5 18.5,5.27982203 18.5,5.625 C18.5,5.97017797 18.220178,6.25 17.875,6.25 C17.529822,6.25 17.25,5.97017797 17.25,5.625 C17.25,5.27982203 17.529822,5 17.875,5 Z M10.3534235,5.6558756 L10.3552465,5.61135184 C10.3565089,5.57445013 10.3571429,5.53729793 10.3571429,5.5 C10.3571429,3.70650698 8.89131897,2.25 7.07995667,2.25 L7.00761944,2.25106875 C5.94293779,2.28237156 4.76745137,2.997767 4.10663087,3.9311323 L4.05803278,4.0015 C4.43222824,4.03638891 4.59758806,4.63963711 4.60673944,5.42974794 L4.60714286,5.5 C4.60714286,6.32359707 4.44353454,6.96141381 4.05943239,6.99831253 C4.32978818,7.39927501 4.69807323,7.76733689 5.11659242,8.06143195 L5.23653278,8.14275 L5.32153059,8.19683039 C5.8755846,8.53981879 6.49613296,8.75 7.07995667,8.75 C7.74121264,8.75 8.3564191,8.55589303 8.87107293,8.22214504 L8.94728278,8.171 L9.00710554,8.12906193 L9.14562258,8.02325586 L9.20108467,7.97771739 L9.23449687,7.94898329 C9.50741814,7.7126138 9.7404375,7.43211963 9.92227832,7.1187697 C9.99265375,6.99749806 10.0553636,6.87130521 10.1097541,6.74084441 L10.1386082,6.6692247 L10.1386082,6.6692247 L10.1732081,6.57612361 L10.1657867,6.5967811 C10.1843802,6.54534388 10.2017029,6.49330817 10.2177176,6.44071134 L10.2381193,6.37071098 L10.2633426,6.2750488 L10.2781838,6.21185097 C10.301574,6.10802935 10.3199139,6.00259785 10.3330069,5.89586347 L10.3462828,5.76175 L10.3509967,5.70027904 L10.3534235,5.6558756 L10.3534235,5.6558756 Z M11.0228301,7.15003379 L10.9963445,7.21109764 L10.9963445,7.21109764 L10.9317516,7.34998533 L10.9317516,7.34998533 L10.8854289,7.44215822 L10.8854289,7.44215822 L10.8180782,7.56701731 L10.8180782,7.56701731 L10.7558073,7.67426069 L10.7558073,7.67426069 L10.6841675,7.78937687 L10.6841675,7.78937687 L10.64025,7.85611408 L10.64025,7.85611408 L10.5802286,7.9431305 L10.5802286,7.9431305 C10.5392404,8.00099889 10.4969333,8.05768077 10.4532655,8.11325571 L10.3573901,8.23091322 L10.3573901,8.23091322 L10.2877812,8.31126161 L10.2877812,8.31126161 L10.238189,8.36612837 L10.238189,8.36612837 C10.1849031,8.42406387 10.1301454,8.48041 10.0738697,8.53522319 L10.0318949,8.57555641 L10.0318949,8.57555641 L9.96457105,8.6380201 L9.96457105,8.6380201 L9.92343897,8.67489243 C9.89466196,8.7003575 9.86551408,8.72546085 9.83602519,8.75017517 L9.76803747,8.80597974 L9.76803747,8.80597974 L9.67930717,8.87540366 L9.67930717,8.87540366 L9.60127265,8.93344011 L9.60127265,8.93344011 C9.56782611,8.95773106 9.53403773,8.98153313 9.4998915,9.0048553 L9.49998837,21.5 C9.50000601,22.3095992 8.85861766,22.9693979 8.05624619,22.9989766 L8,23 L7.5,23 C6.67157288,23 6,22.3284271 6,21.5 L6,12.513965 C6,12.3201625 6.01408476,12.1266162 6.04214298,11.9348555 L6.25,10.5142806 C6.29072129,10.2359757 6.32634681,9.95702211 6.35686664,9.67756004 L6.29678278,9.66525 L6.17115845,9.63652906 L6.17115845,9.63652906 L6.03941196,9.60205716 L6.03941196,9.60205716 L5.9163419,9.56567522 L5.9163419,9.56567522 L5.81616624,9.53307627 L5.81616624,9.53307627 L5.71863294,9.49889552 L5.71863294,9.49889552 C5.64159372,9.47101234 5.56516491,9.44092432 5.48940315,9.40881674 L5.35079407,9.3474832 L5.35079407,9.3474832 L5.24162504,9.29551167 L5.24162504,9.29551167 L5.11845876,9.23284993 L4.99853684,9.16778703 L4.99853684,9.16778703 L4.94312148,9.13625866 L4.94312148,9.13625866 L4.87514829,9.09640775 L4.77015209,9.03205033 L4.77015209,9.03205033 L4.63386847,8.94334242 L4.63386847,8.94334242 L4.60132022,8.92126985 C4.57517852,8.90342157 4.54917563,8.88530788 4.52334032,8.86696945 L4.40736074,8.78228455 L4.40736074,8.78228455 L4.27477857,8.67950524 L4.27477857,8.67950524 L4.20388332,8.62176134 L4.20388332,8.62176134 L4.11040625,8.54250078 L4.11040625,8.54250078 L4.03976168,8.48011671 L4.03976168,8.48011671 L3.9694428,8.41576695 L3.9694428,8.41576695 L3.92051825,8.3696138 L3.92051825,8.3696138 L3.83692394,8.28796408 L3.83692394,8.28796408 L3.74094606,8.18958513 L3.74094606,8.18958513 L3.63518883,8.07487761 L3.63518883,8.07487761 L3.57547631,8.00690269 L3.57547631,8.00690269 L3.50846469,7.92759099 L3.50846469,7.92759099 L3.44522612,7.84955015 L3.44522612,7.84955015 L3.36023351,7.73923597 L3.36023351,7.73923597 C3.33075572,7.6998078 3.3020384,7.66013013 3.27405718,7.62016118 C3.23646153,7.56645948 3.20019066,7.51222506 3.16530918,7.45752357 L3.09464469,7.34286378 L3.09464469,7.34286378 L3.05859787,7.28111902 L3.05859787,7.28111902 L3.00094401,7.17700359 L3.00094401,7.17700359 L2.94293205,7.06435583 C2.90585836,6.98946139 2.87147854,6.91400439 2.83993568,6.838127 C2.73501593,6.58573907 2.60398462,6.05610294 2.60703278,5.5 C2.60864168,5.24055943 2.6401208,4.97509799 2.68418632,4.74106076 L2.7119973,4.60470888 L2.7119973,4.60470888 L2.74199679,4.47769618 C2.77794919,4.33566151 2.8166707,4.21636394 2.85221443,4.13264712 C3.5006648,2.60533949 5.30689257,1.25 7.07995667,1.25 C9.44218137,1.25 11.3571429,3.15278981 11.3571429,5.5 L11.356649,5.56525158 L11.356649,5.56525158 L11.3529127,5.69072653 L11.3529127,5.69072653 L11.347063,5.79408366 L11.3414973,5.86607519 L11.3318252,5.96509448 L11.3318252,5.96509448 L11.3157682,6.09350667 L11.3157682,6.09350667 L11.2971433,6.21341717 L11.2971433,6.21341717 L11.2832817,6.29055663 L11.2832817,6.29055663 L11.2691914,6.36162622 C11.2624541,6.39413978 11.2553306,6.42657069 11.247837,6.45886091 L11.2341624,6.51596699 L11.2341624,6.51596699 L11.1935239,6.6682414 L11.1935239,6.6682414 L11.1677848,6.75440245 L11.1480349,6.81632266 L11.1480349,6.81632266 L11.1010919,6.95179265 L11.1010919,6.95179265 L11.0661845,7.04387225 L11.0228301,7.15003379 L11.0228301,7.15003379 Z" id="_path-1"/>
    </defs>
    <g id="_Linear/ic_device_earphone_h2" stroke="none" stroke-width="1" fill="none" fill-rule="evenodd">
        <mask id="_mask-2" fill="white">
            <use xlink:href="#_path-1"/>
        </mask>
        <use id="_形状" fill="#000000" xlink:href="#_path-1"/>
    </g>
</svg>