<?xml version="1.0" encoding="UTF-8"?>
<svg xmlns="http://www.w3.org/2000/svg" xmlns:xlink="http://www.w3.org/1999/xlink" width="24" height="24" viewBox="0 0 24 24" version="1.1">
    <!-- Generator: Sketch 63.1 (92452) - https://sketch.com -->
    <title>负一屏电量/ic_device_earphone_h2_right_filled</title>
    <desc>Created with Sketch.</desc>
    <g id="_负一屏电量/ic_device_earphone_h2_right_filled" stroke="none" stroke-width="1" fill="none" fill-rule="evenodd">
        <path d="M14.74975,13.75 L14.75,22.75 C14.75,23.1642136 14.4142136,23.5 14,23.5 L12.5,23.5 C12.0857864,23.5 11.75,23.1642136 11.75,22.75 L11.75,13.75 L14.74975,13.75 Z M14.7499593,10.0732261 L14.74975,13 L11.75025,13 L11.7520718,12.9023591 C11.7575945,12.7435692 11.7741501,12.5853069 11.8016387,12.4287193 L12.0425182,11.0565609 C12.0605614,10.9537786 12.0774033,10.8508241 12.0930429,10.7477185 C12.1360216,10.7493195 12.1794365,10.75 12.2228138,10.75 C13.1439252,10.75 14.0073672,10.5035405 14.7499593,10.0732261 Z M12.2228138,1.5 C14.5850385,1.5 16.5,3.40278981 16.5,5.75 C16.5,8.09721019 14.5850385,10 12.2228138,10 C10.4384616,10 8.6241643,8.63096727 7.98279282,7.088127 C7.87787307,6.83573907 7.74684177,6.30610294 7.75,5.75 C7.75320915,5.2051748 7.8884404,4.63379758 7.99507157,4.38264712 C8.64352194,2.85533949 10.4497497,1.5 12.2228138,1.5 Z M8.91666667,4 C8.73257175,4 8.25,4.78350169 8.25,5.75 C8.25,6.71649831 8.73257175,7.5 8.91666667,7.5 C8.97964651,7.5 9.03854688,7.40830209 9.08878809,7.24894967 L9.11134482,7.17068607 C9.11864766,7.14305529 9.12572887,7.11391076 9.13257178,7.08334004 L9.15236893,6.98743687 L9.15236893,6.98743687 L9.1706362,6.88350185 L9.1706362,6.88350185 L9.18727354,6.77206029 L9.18727354,6.77206029 L9.20218089,6.65363749 L9.20218089,6.65363749 L9.21525819,6.52875875 L9.21525819,6.52875875 L9.2264054,6.39794936 L9.2264054,6.39794936 L9.23552244,6.26173463 L9.23552244,6.26173463 L9.24250926,6.12063985 L9.24250926,6.12063985 L9.24726581,5.97519033 C9.24786716,5.95061503 9.2483714,5.92588017 9.24877647,5.9009967 L9.25,5.75 L9.25,5.75 L9.24877647,5.5990033 C9.2483714,5.57411983 9.24786716,5.54938497 9.24726581,5.52480967 L9.24250926,5.37936015 L9.24250926,5.37936015 L9.23552244,5.23826537 L9.23552244,5.23826537 L9.2264054,5.10205064 L9.2264054,5.10205064 L9.21525819,4.97124125 L9.21525819,4.97124125 L9.20218089,4.84636251 L9.20218089,4.84636251 L9.18727354,4.72793971 L9.18727354,4.72793971 L9.1706362,4.61649815 L9.1706362,4.61649815 L9.15236893,4.51256313 L9.15236893,4.51256313 L9.13257178,4.41665996 C9.12572887,4.38608924 9.11864766,4.35694471 9.11134482,4.32931393 L9.08878809,4.25105033 C9.03854688,4.09169791 8.97964651,4 8.91666667,4 Z M13.875,5 C13.3917508,5 13,5.39175084 13,5.875 C13,6.35824916 13.3917508,6.75 13.875,6.75 C14.3582492,6.75 14.75,6.35824916 14.75,5.875 C14.75,5.39175084 14.3582492,5 13.875,5 Z M10.875,5.25 C10.529822,5.25 10.25,5.52982203 10.25,5.875 C10.25,6.22017797 10.529822,6.5 10.875,6.5 C11.220178,6.5 11.5,6.22017797 11.5,5.875 C11.5,5.52982203 11.220178,5.25 10.875,5.25 Z" id="_形状" fill-opacity="0.9" fill="#000000"/>
        <polygon id="_路径" fill="#000000" opacity="0.600000024" points="14.75 13 14.75 13.75 11.75 13.75 11.75 13"/>
        <path d="M8.91666667,4 C8.97964651,4 9.03854688,4.09169791 9.08878809,4.25105033 L9.11134482,4.32931393 C9.11864766,4.35694471 9.12572887,4.38608924 9.13257178,4.41665996 L9.15236893,4.51256313 L9.15236893,4.51256313 L9.1706362,4.61649815 L9.1706362,4.61649815 L9.18727354,4.72793971 L9.18727354,4.72793971 L9.20218089,4.84636251 L9.20218089,4.84636251 L9.21525819,4.97124125 L9.21525819,4.97124125 L9.2264054,5.10205064 L9.2264054,5.10205064 L9.23552244,5.23826537 L9.23552244,5.23826537 L9.24250926,5.37936015 L9.24250926,5.37936015 L9.24726581,5.52480967 C9.24786716,5.54938497 9.2483714,5.57411983 9.24877647,5.5990033 L9.25,5.75 L9.25,5.75 L9.24877647,5.9009967 C9.2483714,5.92588017 9.24786716,5.95061503 9.24726581,5.97519033 L9.24250926,6.12063985 L9.24250926,6.12063985 L9.23552244,6.26173463 L9.23552244,6.26173463 L9.2264054,6.39794936 L9.2264054,6.39794936 L9.21525819,6.52875875 L9.21525819,6.52875875 L9.20218089,6.65363749 L9.20218089,6.65363749 L9.18727354,6.77206029 L9.18727354,6.77206029 L9.1706362,6.88350185 L9.1706362,6.88350185 L9.15236893,6.98743687 L9.15236893,6.98743687 L9.13257178,7.08334004 C9.12572887,7.11391076 9.11864766,7.14305529 9.11134482,7.17068607 L9.08878809,7.24894967 C9.03854688,7.40830209 8.97964651,7.5 8.91666667,7.5 C8.73257175,7.5 8.25,6.71649831 8.25,5.75 C8.25,4.78350169 8.73257175,4 8.91666667,4 Z" id="_路径" fill="#000000" opacity="0.400000006"/>
    </g>
</svg>