<?xml version="1.0" encoding="UTF-8"?>
<svg xmlns="http://www.w3.org/2000/svg" xmlns:xlink="http://www.w3.org/1999/xlink" width="24" height="24" viewBox="0 0 24 24" version="1.1">
    <!-- Generator: Sketch 63.1 (92452) - https://sketch.com -->
    <title>负一屏电量/ic_device_earphone_shark_left_filled</title>
    <desc>Created with Sketch.</desc>
    <g id="_负一屏电量/ic_device_earphone_shark_left_filled" stroke="none" stroke-width="1" fill="none" fill-rule="evenodd">
        <path d="M9.50020638,10.25 C10.1014344,10.5132871 10.7641838,10.6591619 11.4606177,10.6591619 C11.8301643,10.6591619 12.2150883,10.6192702 12.6039954,10.5441996 L12.75,10.5144083 L12.7496862,21 L9.5,21 L9.50020638,10.25 Z M11.4606562,1.5 C13.169816,1.5 15.4550714,2.52785169 16.4163101,4.00455715 C16.5300336,4.17926511 16.6341053,4.5620901 16.6947836,5.01696111 L16.7133562,5.17106649 C16.7386656,5.40566716 16.7521894,5.65449959 16.7497099,5.90055488 C16.7425846,6.60763155 16.5898416,7.29177512 16.4163101,7.54936157 C15.440988,8.99710851 13.148936,10 11.4606562,10 C9.13517502,10 7.25,8.09721019 7.25,5.75 C7.25,3.40278981 9.13517502,1.5 11.4606562,1.5 Z M15.109078,4.49486161 C14.9019483,4.79224284 14.8575949,5.38311622 14.8575949,5.93047028 C14.8575949,6.71340625 15.1692939,7.34810127 15.553794,7.34810127 C15.9382942,7.34810127 16.25,6.71340625 16.25,5.93047028 C16.25,5.14753431 16.0207133,4.41236453 15.6392369,4.30946938 C15.3858429,4.24112171 15.2318003,4.31866621 15.109078,4.49486161 Z M10.1292419,4.8800354 C9.64599279,4.8800354 9.25424194,5.27178624 9.25424194,5.7550354 C9.25424194,6.23828456 9.64599279,6.6300354 10.1292419,6.6300354 C10.6124911,6.6300354 11.0042419,6.23828456 11.0042419,5.7550354 C11.0042419,5.27178624 10.6124911,4.8800354 10.1292419,4.8800354 Z M12.8792419,4.8800354 C12.3959928,4.8800354 12.0042419,5.27178624 12.0042419,5.7550354 C12.0042419,6.23828456 12.3959928,6.6300354 12.8792419,6.6300354 C13.3624911,6.6300354 13.7542419,6.23828456 13.7542419,5.7550354 C13.7542419,5.27178624 13.3624911,4.8800354 12.8792419,4.8800354 Z" id="_形状" fill="#000000"/>
        <path d="M15.6392369,4.30946938 C16.0207133,4.41236453 16.25,5.14753431 16.25,5.93047028 C16.25,6.71340625 15.9382942,7.34810127 15.553794,7.34810127 C15.1692939,7.34810127 14.8575949,6.71340625 14.8575949,5.93047028 C14.8575949,5.38311622 14.9019483,4.79224284 15.109078,4.49486161 C15.2318003,4.31866621 15.3858429,4.24112171 15.6392369,4.30946938 Z" id="_路径" fill="#000000" opacity="0.400000006"/>
        <path d="M12.75,21 L12.75,21.875 C12.75,22.7724627 12.0224627,23.5 11.125,23.5 C10.2470473,23.5 9.53171236,22.8037509 9.50102575,21.9332835 L9.5,21.875 L9.5,21 L12.75,21 Z" id="_路径" fill="#000000" opacity="0.600000024"/>
    </g>
</svg>