<?xml version="1.0" encoding="UTF-8"?>
<svg xmlns="http://www.w3.org/2000/svg" xmlns:xlink="http://www.w3.org/1999/xlink" width="24" height="24" viewBox="0 0 24 24" version="1.1">
    <!-- Generator: Sketch 63.1 (92452) - https://sketch.com -->
    <title>负一屏电量/ic_device_earphone_mermaid_left_filled</title>
    <desc>Created with Sketch.</desc>
    <g id="_负一屏电量/ic_device_earphone_mermaid_left_filled" stroke="none" stroke-width="1" fill="none" fill-rule="evenodd">
        <path d="M16.0379088,8.2539555 C16.0606465,8.26832318 16.0826822,8.28370072 16.1043115,8.30021496 L16.1289948,8.3208599 L16.1289948,8.3208599 L16.1441467,8.33458804 L16.1990511,8.38731396 L16.2649924,8.45371001 L16.3757777,8.56869218 L16.6191209,8.82684774 L16.7514347,8.96471496 C17.3959327,9.64250033 17.75,10.3408778 17.75,11.1793236 C17.75,12.7094901 16.5396247,14 15.0383566,14 C14.9050125,14 14.7299713,13.9817736 14.5361507,13.9513664 L14.4520018,13.9376066 L14.2979724,13.9097908 L14.140195,13.8781895 L13.9809219,13.8433969 L13.9014285,13.8249896 L13.2564466,13.6245234 C12.6231571,13.4276913 12.1555374,12.8897974 12.0487075,12.2352855 C11.9046884,11.3529219 12.0800477,10.5257866 12.5747854,9.75387951 C12.9745937,9.13008453 13.4911129,8.58349818 14.0413313,8.30021496 C14.311874,8.1597073 14.6683219,8.05008512 14.9738582,8.0074058 C15.3505512,7.97446955 15.7158772,8.05046757 16.0379088,8.2539555 Z M15.7726479,11.7421729 C15.439426,12.3265752 15.3709623,12.9851269 15.7980143,13.1876915 C16.2250662,13.3902562 16.650795,13.0828617 16.984017,12.4984594 C17.3172389,11.914057 17.3520528,11.2913085 17.0047175,11.0713834 C16.6573823,10.8514583 16.1058698,11.1577705 15.7726479,11.7421729 Z M10.51237,4.23529053 C11.9043518,4.23529053 13.5407499,5.51723832 14.7492868,7.18872072 L14.8098422,7.27329053 L14.7066874,7.29162175 C14.3589952,7.35766091 13.9926534,7.48038069 13.6980214,7.63340384 C13.0424812,7.97091264 12.4321451,8.58653808 11.9433501,9.34917316 C11.3494662,10.2757717 11.1344721,11.2898564 11.3085044,12.3561023 C11.3233787,12.4472327 11.3431491,12.5367805 11.3675575,12.624449 C10.1578618,12.5469696 9.27060403,12.2113586 8.64461489,11.8666432 C7.33957169,11.147991 6.5414737,9.92670996 6.47948978,8.46846913 L6.47653526,8.37507068 L6.47559223,8.28425115 L6.47634026,8.20551848 C6.51816703,6.00604434 8.30876695,4.23529053 10.51237,4.23529053 Z M7.4378877,5.84050657 C6.83582682,6.71128798 6.92172499,7.76636192 7.58097766,8.20016788 C8.24023033,8.63397385 9.27515814,8.31643349 9.87721901,7.44565208 C10.4792799,6.57487068 10.3933817,5.51979674 9.73412905,5.08599077 C9.07487638,4.65218481 8.03994857,4.96972517 7.4378877,5.84050657 Z" id="_形状" fill-opacity="0.9" fill="#000000"/>
        <path d="M17.0047175,11.0713834 C17.3520528,11.2913085 17.3172389,11.914057 16.984017,12.4984594 C16.650795,13.0828617 16.2250662,13.3902562 15.7980143,13.1876915 C15.3709623,12.9851269 15.439426,12.3265752 15.7726479,11.7421729 C16.1058698,11.1577705 16.6573823,10.8514583 17.0047175,11.0713834 Z M9.73412905,5.08599077 C10.3933817,5.51979674 10.4792799,6.57487068 9.87721901,7.44565208 C9.27515814,8.31643349 8.24023033,8.63397385 7.58097766,8.20016788 C6.92172499,7.76636192 6.83582682,6.71128798 7.4378877,5.84050657 C8.03994857,4.96972517 9.07487638,4.65218481 9.73412905,5.08599077 Z" id="_形状" fill="#000000" opacity="0.400000006"/>
        <path d="M8.73369499,12.7227738 C9.46646452,13.068868 10.294853,13.2963156 11.2419673,13.3754407 L11.400923,13.3872497 L11.8671308,13.4176426 C12.1237064,13.7416926 12.4598919,14.0013894 12.8497562,14.166905 L12.9341107,14.2009202 L12.9342441,18.3589992 L12.9331178,18.4143559 C12.9061949,19.0748399 12.399757,19.6138398 11.7535235,19.6694839 L11.6977976,19.6730612 L11.6429658,19.6742213 L10.0256609,19.6742213 L9.9708291,19.6730612 C9.31688354,19.6453329 8.79300515,19.1239093 8.73895631,18.4706628 L8.73548208,18.4143559 L8.73435572,18.3589992 L8.73369499,12.7227738 Z" id="_路径" fill="#000000" opacity="0.600000024"/>
    </g>
</svg>