<?xml version="1.0" encoding="UTF-8"?>
<svg xmlns="http://www.w3.org/2000/svg" xmlns:xlink="http://www.w3.org/1999/xlink" width="24" height="24" viewBox="0 0 24 24" version="1.1">
    <!-- Generator: Sketch 63.1 (92452) - https://sketch.com -->
    <title>负一屏电量/ic_device_earphone_otter_left_filled</title>
    <desc>Created with Sketch.</desc>
    <g id="_负一屏电量/ic_device_earphone_otter_left_filled" stroke="none" stroke-width="1" fill="none" fill-rule="evenodd">
        <path d="M9.49951002,11.4998421 L9.50020387,20.6214972 C9.50020387,21.3014717 10.0199283,21.8763468 10.7156709,21.9659438 C10.891931,21.9886424 11.0687375,22 11.2459569,22 C11.4264647,22 11.6069009,21.9882171 11.7871272,21.9646786 C12.4634422,21.8763496 12.9726253,21.3294804 12.9989561,20.6739476 L13.0000266,20.6205651 L13.0000266,12.5138421 L12.646625,12.4060899 L12.5545372,12.375479 L12.3923274,12.3102928 L12.2416988,12.236612 L12.2416988,12.236612 L12.1007838,12.1538883 L12.0361709,12.1104126 L12.0116191,12.1004333 L11.8755738,11.9878127 L11.8104672,11.9290165 L11.8104672,11.9290165 L10.8364554,11.8031292 C10.3470748,11.7294689 9.90348657,11.6300305 9.49951002,11.4998421 Z M11.2500266,20.0113868 C11.5952046,20.0113868 11.8750266,20.289204 11.8750266,20.6319089 C11.8750266,20.9746138 11.5952046,21.252431 11.2500266,21.252431 C10.9048487,21.252431 10.6250266,20.9746138 10.6250266,20.6319089 C10.6250266,20.289204 10.9048487,20.0113868 11.2500266,20.0113868 Z" id="_形状" fill="#000000" opacity="0.600000024"/>
        <path d="M11.25,19.9988403 C11.595178,19.9988403 11.875,20.2786624 11.875,20.6238403 C11.875,20.9690183 11.595178,21.2488403 11.25,21.2488403 C10.904822,21.2488403 10.625,20.9690183 10.625,20.6238403 C10.625,20.2786624 10.904822,19.9988403 11.25,19.9988403 Z M16.6799676,9.11614778 C16.999516,9.31915553 16.9674872,9.89400035 16.660923,10.4334487 C16.3543589,10.972897 15.9626884,11.2566458 15.5698006,11.069663 C15.1769127,10.8826802 15.2398994,10.2747864 15.5464635,9.73533806 C15.8530277,9.19588973 16.3604192,8.91314003 16.6799676,9.11614778 Z M7.93962051,5.21474796 C8.19837865,4.78695288 8.71360488,4.62248483 9.09041594,4.84739802 C9.46722387,5.07231641 9.56292654,5.601445 9.30417614,6.02924473 C9.045418,6.45703981 8.53019177,6.62150786 8.15338071,6.39659467 C7.77657278,6.17167628 7.68087011,5.64254769 7.93962051,5.21474796 Z" id="_形状" fill="#000000" opacity="0.400000006"/>
        <path d="M14.8663487,6.00019724 C15.1676936,5.99582541 15.4590265,6.06403181 15.7235361,6.21459365 L15.7890949,6.2539555 L15.8226886,6.27628027 L15.8667988,6.3093444 L15.8952592,6.33458804 L15.9501255,6.38731396 L16.0160211,6.45371001 L16.1267297,6.56869218 L16.3699043,6.82684774 L16.5021265,6.96471496 L16.5700185,7.03741906 C17.1709997,7.6925631 17.5,8.37082234 17.5,9.17932358 C17.5,10.7094901 16.2904632,12 14.7902351,12 C14.7056308,12 14.6042291,11.9926525 14.4918916,11.9795049 L14.3522127,11.9610427 L14.3522127,11.9610427 L14.2791399,11.9499092 L14.2042865,11.9376066 L14.0503638,11.9097908 L13.943578,11.8882304 L13.8056649,11.8587385 L13.6642638,11.8272059 L13.4537748,11.7785513 L12.8857847,11.6010777 L12.80885,11.5748394 C12.7075819,11.5373451 12.6116519,11.4898916 12.5221702,11.4334438 L12.4562853,11.3894367 L12.4018161,11.3491003 L12.3995609,11.3481441 L12.342701,11.3002305 C12.231656,11.2016293 12.1366426,11.0865549 12.05737,10.9580664 C12.0441579,10.9366517 12.0289926,10.9090788 12.012635,10.8762017 L11.9959081,10.8415883 L11.9607459,10.762512 C11.8708385,10.5493546 11.7701439,10.2249414 11.7537684,9.89601526 C11.7228848,9.27567301 11.881833,8.57983747 12.2304623,7.92534201 C12.6201055,7.19384936 13.2043764,6.60919776 13.8223941,6.28656926 L13.8998104,6.24761373 L13.9729249,6.21789857 L14.1049919,6.16553102 L14.189529,6.13670686 C14.4844312,6.03988016 14.7062899,6.00251933 14.8663487,6.00019724 Z M16.6799676,9.11614778 C16.3604192,8.91314003 15.8530277,9.19588973 15.5464635,9.73533806 C15.2398994,10.2747864 15.1769127,10.8826802 15.5698006,11.069663 C15.9626884,11.2566458 16.3543589,10.972897 16.660923,10.4334487 C16.9674872,9.89400035 16.999516,9.31915553 16.6799676,9.11614778 Z M7.73223953,4.13433571 C8.76682895,2.95832045 10.5663967,2.41955063 11.9051273,2.96130393 C12.9812915,3.39680266 13.7934979,4.13545495 14.6897991,5.35875693 C14.4949377,5.37356825 14.2777733,5.41673159 14.0381129,5.4884019 L13.9340235,5.52086352 L13.8274498,5.55683454 L13.6758309,5.61596268 L13.594257,5.64883959 L13.5526695,5.66721436 L13.4647687,5.71093453 C12.7058783,6.10136598 12.0248067,6.78944708 11.5772815,7.62261022 C11.1782848,8.36542728 10.9832691,9.17670525 11.0211281,9.93082818 C11.0378272,10.2634628 11.1246541,10.6234398 11.238664,10.9205539 L11.2736395,11.007712 L11.1409471,10.9911351 L11.0267587,10.9754714 C9.36470892,10.7392806 8.26005039,10.2162291 7.44821494,9.04337275 C6.37474524,7.49253416 6.59348974,5.42874982 7.73223953,4.13433571 Z M9.09041594,4.84739802 C8.71360488,4.62248483 8.19837865,4.78695288 7.93962051,5.21474796 C7.68087011,5.64254769 7.77657278,6.17167628 8.15338071,6.39659467 C8.53019177,6.62150786 9.045418,6.45703981 9.30417614,6.02924473 C9.56292654,5.601445 9.46722387,5.07231641 9.09041594,4.84739802 Z" id="_形状" fill-opacity="0.9" fill="#000000"/>
    </g>
</svg>