<?xml version="1.0" encoding="UTF-8"?>
<svg xmlns="http://www.w3.org/2000/svg" xmlns:xlink="http://www.w3.org/1999/xlink" width="24" height="24" viewBox="0 0 24 24" version="1.1">
    <!-- Generator: Sketch 63.1 (92452) - https://sketch.com -->
    <title>负一屏电量/ic_device_earphone_h2_left_filled</title>
    <desc>Created with Sketch.</desc>
    <g id="_负一屏电量/ic_device_earphone_h2_left_filled" stroke="none" stroke-width="1" fill="none" fill-rule="evenodd">
        <path d="M12.25,13.75 L12.25,22.75 C12.25,23.1494202 11.93777,23.4759152 11.5440682,23.4987268 L11.5,23.5 L10.0002081,23.5 C9.60078793,23.5 9.27429293,23.18777 9.25148132,22.7940682 L9.25020815,22.75 L9.25020815,13.75 L12.25,13.75 Z M9.25004129,10.0732261 C9.99263366,10.5035405 10.8560758,10.75 11.7771874,10.75 C11.8205647,10.75 11.8639797,10.7493195 11.9069809,10.7477184 L11.9313402,10.9022609 L11.9575021,11.0565609 L12.1983683,12.4287388 C12.2258532,12.585316 12.2424065,12.7435677 12.2479285,12.9023468 L12.2495,13 L9.25020815,13 L9.25004129,10.0732261 Z M11.7771862,1.5 C13.5502503,1.5 15.3564781,2.85533949 16.0049284,4.38264712 C16.1115596,4.63379758 16.2467909,5.2051748 16.25,5.75 C16.2531582,6.30610294 16.1221269,6.83573907 16.0172072,7.088127 C15.3758357,8.63096727 13.5615384,10 11.7771862,10 C9.41496148,10 7.5,8.09721019 7.5,5.75 C7.5,3.40278981 9.41496148,1.5 11.7771862,1.5 Z M15.0833333,4 C15.0203535,4 14.9614531,4.09169791 14.9112119,4.25105033 L14.8886552,4.32931393 C14.8813523,4.35694471 14.8742711,4.38608924 14.8674282,4.41665996 L14.8476311,4.51256313 L14.8476311,4.51256313 L14.8293638,4.61649815 L14.8293638,4.61649815 L14.8127265,4.72793971 L14.8127265,4.72793971 L14.7978191,4.84636251 L14.7978191,4.84636251 L14.7847418,4.97124125 L14.7847418,4.97124125 L14.7735946,5.10205064 L14.7735946,5.10205064 L14.7644776,5.23826537 L14.7644776,5.23826537 L14.7574907,5.37936015 L14.7574907,5.37936015 L14.7527342,5.52480967 C14.7521328,5.54938497 14.7516286,5.57411983 14.7512235,5.5990033 L14.75,5.75 L14.75,5.75 L14.7512235,5.9009967 C14.7516286,5.92588017 14.7521328,5.95061503 14.7527342,5.97519033 L14.7574907,6.12063985 L14.7574907,6.12063985 L14.7644776,6.26173463 L14.7644776,6.26173463 L14.7735946,6.39794936 L14.7735946,6.39794936 L14.7847418,6.52875875 L14.7847418,6.52875875 L14.7978191,6.65363749 L14.7978191,6.65363749 L14.8127265,6.77206029 L14.8127265,6.77206029 L14.8293638,6.88350185 L14.8293638,6.88350185 L14.8476311,6.98743687 L14.8476311,6.98743687 L14.8674282,7.08334004 C14.8742711,7.11391076 14.8813523,7.14305529 14.8886552,7.17068607 L14.9112119,7.24894967 C14.9614531,7.40830209 15.0203535,7.5 15.0833333,7.5 C15.2674282,7.5 15.75,6.71649831 15.75,5.75 C15.75,4.78350169 15.2674282,4 15.0833333,4 Z M10.125,5 C9.64175084,5 9.25,5.39175084 9.25,5.875 C9.25,6.35824916 9.64175084,6.75 10.125,6.75 C10.6082492,6.75 11,6.35824916 11,5.875 C11,5.39175084 10.6082492,5 10.125,5 Z M13.125,5.25 C12.779822,5.25 12.5,5.52982203 12.5,5.875 C12.5,6.22017797 12.779822,6.5 13.125,6.5 C13.470178,6.5 13.75,6.22017797 13.75,5.875 C13.75,5.52982203 13.470178,5.25 13.125,5.25 Z" id="_形状" fill-opacity="0.9" fill="#000000"/>
        <polygon id="_路径" fill="#000000" opacity="0.600000024" points="12.25 13 12.25 13.75 9.25 13.75 9.25 13"/>
        <path d="M15.0833333,4 C15.2674282,4 15.75,4.78350169 15.75,5.75 C15.75,6.71649831 15.2674282,7.5 15.0833333,7.5 C15.0203535,7.5 14.9614531,7.40830209 14.9112119,7.24894967 L14.8886552,7.17068607 C14.8813523,7.14305529 14.8742711,7.11391076 14.8674282,7.08334004 L14.8476311,6.98743687 L14.8476311,6.98743687 L14.8293638,6.88350185 L14.8293638,6.88350185 L14.8127265,6.77206029 L14.8127265,6.77206029 L14.7978191,6.65363749 L14.7978191,6.65363749 L14.7847418,6.52875875 L14.7847418,6.52875875 L14.7735946,6.39794936 L14.7735946,6.39794936 L14.7644776,6.26173463 L14.7644776,6.26173463 L14.7574907,6.12063985 L14.7574907,6.12063985 L14.7527342,5.97519033 C14.7521328,5.95061503 14.7516286,5.92588017 14.7512235,5.9009967 L14.75,5.75 L14.75,5.75 L14.7512235,5.5990033 C14.7516286,5.57411983 14.7521328,5.54938497 14.7527342,5.52480967 L14.7574907,5.37936015 L14.7574907,5.37936015 L14.7644776,5.23826537 L14.7644776,5.23826537 L14.7735946,5.10205064 L14.7735946,5.10205064 L14.7847418,4.97124125 L14.7847418,4.97124125 L14.7978191,4.84636251 L14.7978191,4.84636251 L14.8127265,4.72793971 L14.8127265,4.72793971 L14.8293638,4.61649815 L14.8293638,4.61649815 L14.8476311,4.51256313 L14.8476311,4.51256313 L14.8674282,4.41665996 C14.8742711,4.38608924 14.8813523,4.35694471 14.8886552,4.32931393 L14.9112119,4.25105033 C14.9614531,4.09169791 15.0203535,4 15.0833333,4 Z" id="_路径" fill="#000000" opacity="0.400000006"/>
    </g>
</svg>