<?xml version="1.0" encoding="UTF-8"?>
<svg xmlns="http://www.w3.org/2000/svg" xmlns:xlink="http://www.w3.org/1999/xlink" width="24" height="24" viewBox="0 0 24 24" version="1.1">
    <!-- Generator: Sketch 63.1 (92452) - https://sketch.com -->
    <title>负一屏电量/ic_device_earphone_mermaid_right_filled</title>
    <desc>Created with Sketch.</desc>
    <g id="_负一屏电量/ic_device_earphone_mermaid_right_filled" stroke="none" stroke-width="1" fill="none" fill-rule="evenodd">
        <path d="M9.22732623,8.0074058 C9.53286261,8.05008512 9.88931046,8.1597073 10.1598532,8.30021496 C10.7100715,8.58349818 11.2265908,9.13008453 11.6263991,9.75387951 C12.1211367,10.5257866 12.296496,11.3529219 12.152477,12.2352855 C12.0456471,12.8897974 11.5780274,13.4276913 10.9447379,13.6245234 L10.299756,13.8249896 L10.2202625,13.8433969 L10.0609895,13.8781895 L9.90321204,13.9097908 L9.74918268,13.9376066 C9.52207594,13.976194 9.31522113,14 9.16282785,14 C7.66155978,14 6.45118446,12.7094901 6.45118446,11.1793236 C6.45118446,10.3408778 6.80525172,9.64250033 7.44974974,8.96471496 L7.58206357,8.82684774 L7.82540676,8.56869218 L7.9361921,8.45371001 L8.00213336,8.38731396 L8.05703775,8.33458804 L8.08551783,8.3093444 C8.08964001,8.30589394 8.09343336,8.30284116 8.09687297,8.30021496 C8.11850222,8.28370072 8.14053794,8.26832318 8.16327563,8.2539555 C8.48530721,8.05046757 8.85063328,7.97446955 9.22732623,8.0074058 Z M7.19646693,11.0713834 C6.8491317,11.2913085 6.8839456,11.914057 7.21716751,12.4984594 C7.55038942,13.0828617 7.97611822,13.3902562 8.4031702,13.1876915 C8.83022219,12.9851269 8.76175844,12.3265752 8.42853653,11.7421729 C8.09531462,11.1577705 7.54380215,10.8514583 7.19646693,11.0713834 Z M13.6888145,4.23529053 C15.8655443,4.23529053 17.6392828,5.96311857 17.7225361,8.12524363 L17.7248442,8.20551848 L17.7255922,8.28425115 L17.7246492,8.37507068 L17.7216947,8.46846913 C17.6597108,9.92670996 16.8616128,11.147991 15.5565696,11.8666432 C14.9305804,12.2113586 14.0433227,12.5469696 12.833627,12.624449 C12.8580353,12.5367805 12.8778057,12.4472327 12.8926801,12.3561023 C13.0667123,11.2898564 12.8517183,10.2757717 12.2578343,9.34917316 C11.7690394,8.58653808 11.1587033,7.97091264 10.5031631,7.63340384 C10.2085311,7.48038069 9.84218927,7.35766091 9.49449702,7.29162175 L9.39133919,7.27329053 L9.45189764,7.18872072 C10.6384612,5.54762891 12.2374687,4.28203558 13.6126498,4.23655652 L13.6888145,4.23529053 Z M14.4670554,5.08599077 C13.8078027,5.51979674 13.7219046,6.57487068 14.3239654,7.44565208 C14.9260263,8.31643349 15.9609541,8.63397385 16.6202068,8.20016788 C17.2794595,7.76636192 17.3653576,6.71128798 16.7632968,5.84050657 C16.1612359,4.96972517 15.1263081,4.65218481 14.4670554,5.08599077 Z" id="_形状" fill-opacity="0.9" fill="#000000"/>
        <path d="M8.42853653,11.7421729 C8.76175844,12.3265752 8.83022219,12.9851269 8.4031702,13.1876915 C7.97611822,13.3902562 7.55038942,13.0828617 7.21716751,12.4984594 C6.8839456,11.914057 6.8491317,11.2913085 7.19646693,11.0713834 C7.54380215,10.8514583 8.09531462,11.1577705 8.42853653,11.7421729 Z M16.7632968,5.84050657 C17.3653576,6.71128798 17.2794595,7.76636192 16.6202068,8.20016788 C15.9609541,8.63397385 14.9260263,8.31643349 14.3239654,7.44565208 C13.7219046,6.57487068 13.8078027,5.51979674 14.4670554,5.08599077 C15.1263081,4.65218481 16.1612359,4.96972517 16.7632968,5.84050657 Z" id="_形状结合" fill="#000000" opacity="0.400000006"/>
        <path d="M15.5780737,12.7230523 L15.5775965,18.3589992 L15.5764702,18.4143559 C15.5487768,19.0937107 15.0137528,19.6445406 14.3411231,19.6730612 L14.2862913,19.6742213 L12.6689864,19.6742213 L12.6141546,19.6730612 C11.9415259,19.6445406 11.4065265,19.0937109 11.3788344,18.4143559 L11.3777081,18.3589992 L11.3778415,14.2009202 C11.8019495,14.0388021 12.1670308,13.7669918 12.4415668,13.4217443 L13.0451282,13.3774407 L13.192673,13.3641344 C14.0935316,13.2750619 14.881266,13.0523345 15.5780737,12.7230523 Z" id="_路径" fill="#000000" opacity="0.600000024"/>
    </g>
</svg>