<?xml version="1.0" encoding="UTF-8"?>
<svg xmlns="http://www.w3.org/2000/svg" xmlns:xlink="http://www.w3.org/1999/xlink" width="24" height="24" viewBox="0 0 24 24" version="1.1">
    <!-- Generator: Sketch 63.1 (92452) - https://sketch.com -->
    <title>负一屏电量/ic_device_earphone_otter_right_filled</title>
    <desc>Created with Sketch.</desc>
    <g id="_负一屏电量/ic_device_earphone_otter_right_filled" stroke="none" stroke-width="1" fill="none" fill-rule="evenodd">
        <path d="M14.7505166,11.4998421 L14.7498228,20.6214972 C14.7498228,21.3014717 14.2300983,21.8763468 13.5343557,21.9659438 C13.3580956,21.9886424 13.1812891,22 13.0040697,22 C12.8235619,22 12.6431258,21.9882171 12.4628994,21.9646786 C11.7865844,21.8763496 11.2774013,21.3294804 11.2510706,20.6739476 L11.25,20.6205651 L11.25,12.5138421 L11.6034016,12.4060899 L11.6954894,12.375479 L11.8576992,12.3102928 L12.0083278,12.236612 L12.0083278,12.236612 L12.1492428,12.1538883 L12.2138557,12.1104126 L12.2384075,12.1004333 L12.3744528,11.9878127 L12.4395594,11.9290165 L12.4395594,11.9290165 L13.4135712,11.8031292 C13.9029518,11.7294689 14.3465401,11.6300305 14.7505166,11.4998421 Z M13,20.0113868 C12.654822,20.0113868 12.375,20.289204 12.375,20.6319089 C12.375,20.9746138 12.654822,21.252431 13,21.252431 C13.345178,21.252431 13.625,20.9746138 13.625,20.6319089 C13.625,20.289204 13.345178,20.0113868 13,20.0113868 Z" id="_形状" fill="#000000" opacity="0.600000024"/>
        <path d="M13,19.9988403 C13.345178,19.9988403 13.625,20.2786624 13.625,20.6238403 C13.625,20.9690183 13.345178,21.2488403 13,21.2488403 C12.654822,21.2488403 12.375,20.9690183 12.375,20.6238403 C12.375,20.2786624 12.654822,19.9988403 13,19.9988403 Z M7.57003243,9.11614778 C7.88958084,8.91314003 8.39697231,9.19588973 8.70353646,9.73533806 C9.01010062,10.2747864 9.07308727,10.8826802 8.68019944,11.069663 C8.28731162,11.2566458 7.89564112,10.972897 7.58907696,10.4334487 C7.28251281,9.89400035 7.25048402,9.31915553 7.57003243,9.11614778 Z M16.3103795,5.21474796 C16.5691299,5.64254769 16.4734272,6.17167628 16.0966193,6.39659467 C15.7198082,6.62150786 15.204582,6.45703981 14.9458239,6.02924473 C14.6870735,5.601445 14.7827761,5.07231641 15.1595841,4.84739802 C15.5363951,4.62248483 16.0516214,4.78695288 16.3103795,5.21474796 Z" id="_形状" fill="#000000" opacity="0.400000006"/>
        <path d="M9.38365135,6.00019724 C9.54371014,6.00251933 9.76556884,6.03988016 10.060471,6.13670686 L10.1450081,6.16553102 L10.2770751,6.21789857 L10.3501896,6.24761373 C10.9965964,6.56073172 11.6136594,7.1633705 12.0195377,7.92534201 C12.368167,8.57983747 12.5271152,9.27567301 12.4962316,9.89601526 C12.4798561,10.2249414 12.3791615,10.5493546 12.2892541,10.762512 L12.2540919,10.8415883 C12.2313346,10.8900126 12.2102461,10.9295134 12.19263,10.9580664 C12.1133574,11.0865549 12.018344,11.2016293 11.907299,11.3002305 L11.8504391,11.3481441 L11.8481839,11.3491003 L11.7937147,11.3894367 C11.6859794,11.4655424 11.5677351,11.5279715 11.44115,11.5748394 L11.3642153,11.6010777 L10.7962252,11.7785513 L10.5857362,11.8272059 L10.4443351,11.8587385 L10.306422,11.8882304 L10.1996362,11.9097908 L10.0457135,11.9376066 L9.97086015,11.9499092 L9.89778726,11.9610427 L9.89778726,11.9610427 L9.75810835,11.9795049 C9.64577091,11.9926525 9.54436916,12 9.45976488,12 C7.95953682,12 6.75,10.7094901 6.75,9.17932358 C6.75,8.37082234 7.07900028,7.6925631 7.67998146,7.03741906 L7.74787351,6.96471496 L7.88009568,6.82684774 L8.12327029,6.56869218 L8.23397888,6.45371001 L8.29987446,6.38731396 L8.35474082,6.33458804 L8.38320117,6.3093444 L8.4273114,6.27628027 L8.46090511,6.2539555 C8.74248753,6.07590356 9.05719434,5.99546109 9.38365135,6.00019724 Z M7.57003243,9.11614778 C7.25048402,9.31915553 7.28251281,9.89400035 7.58907696,10.4334487 C7.89564112,10.972897 8.28731162,11.2566458 8.68019944,11.069663 C9.07308727,10.8826802 9.01010062,10.2747864 8.70353646,9.73533806 C8.39697231,9.19588973 7.88958084,8.91314003 7.57003243,9.11614778 Z M16.5177605,4.13433571 C17.6565103,5.42874982 17.8752548,7.49253416 16.8017851,9.04337275 C15.9899496,10.2162291 14.8852911,10.7392806 13.2232413,10.9754714 L13.1090529,10.9911351 L12.9763605,11.007712 C13.1072793,10.6957086 13.2105029,10.2967262 13.2288719,9.93082818 C13.2667309,9.17670525 13.0717152,8.36542728 12.6727185,7.62261022 C12.2251933,6.78944708 11.5441217,6.10136598 10.7852313,5.71093453 L10.6973305,5.66721436 L10.655743,5.64883959 L10.5741691,5.61596268 L10.4225502,5.55683454 L10.3159765,5.52086352 C10.0347288,5.42964258 9.78289967,5.37568416 9.56020085,5.35875693 C10.4565021,4.13545495 11.2687085,3.39680266 12.3448727,2.96130393 C13.6836033,2.41955063 15.483171,2.95832045 16.5177605,4.13433571 Z M15.1595841,4.84739802 C14.7827761,5.07231641 14.6870735,5.601445 14.9458239,6.02924473 C15.204582,6.45703981 15.7198082,6.62150786 16.0966193,6.39659467 C16.4734272,6.17167628 16.5691299,5.64254769 16.3103795,5.21474796 C16.0516214,4.78695288 15.5363951,4.62248483 15.1595841,4.84739802 Z" id="_形状" fill-opacity="0.9" fill="#000000"/>
    </g>
</svg>