<?xml version="1.0" encoding="UTF-8"?>
<svg xmlns="http://www.w3.org/2000/svg" xmlns:xlink="http://www.w3.org/1999/xlink" width="24" height="24" viewBox="0 0 78 80" version="1.1">
    <title>battery/icon/ic_battery_earphone_case02</title>
    <defs>
        <path d="M4,33 L24.999,33 L25,33.2857143 C25,34.1826579 25.6888472,34.9187127 26.5663706,34.9937075 L26.7142857,35 L51.2857143,35 C52.1826579,35 52.9187127,34.3111528 52.9937075,33.4336294 L53,33.2857143 L52.999,33 L74,33 L74,53.6166888 L73.9953815,54.433452 L73.9953815,54.433452 L73.9815657,55.1965455 C73.9784999,55.3194218 73.9750534,55.4401867 73.9712274,55.5589026 L73.9437273,56.2471098 L73.9437273,56.2471098 L73.9071787,56.8891381 L73.9071787,56.8891381 L73.8616412,57.4879837 C73.8032937,58.1626124 73.7267155,58.7551938 73.6323318,59.2871389 L73.547081,59.7287415 C73.5172172,59.8713253 73.4859098,60.0094587 73.4531688,60.1436409 L73.3506546,60.5348334 C73.3150562,60.6616127 73.2780341,60.7849402 73.2395981,60.9053153 L73.1200588,61.2580828 L73.1200588,61.2580828 L72.9920962,61.5961322 L72.9920962,61.5961322 L72.8557699,61.9224598 L72.8557699,61.9224598 L72.7111393,62.2400618 L72.7111393,62.2400618 L72.5582641,62.5519345 L72.5582641,62.5519345 L72.3972038,62.8610742 L72.3972038,62.8610742 C71.3513612,64.8166298 69.8166298,66.3513612 67.8610742,67.3972038 L67.5519345,67.5582641 L67.5519345,67.5582641 L67.2400618,67.7111393 L67.2400618,67.7111393 L66.9224598,67.8557699 L66.9224598,67.8557699 L66.5961322,67.9920962 L66.5961322,67.9920962 L66.2580828,68.1200588 L66.2580828,68.1200588 L65.9053153,68.2395981 C65.7849402,68.2780341 65.6616127,68.3150562 65.5348334,68.3506546 L65.1436409,68.4531688 C65.0094587,68.4859098 64.8713253,68.5172172 64.7287415,68.547081 L64.2871389,68.6323318 C63.831186,68.7132321 63.3306839,68.7810508 62.7721494,68.8355202 L62.1937715,68.8855298 C62.0939847,68.8931198 61.992461,68.9003365 61.8891381,68.9071787 L61.2471098,68.9437273 L61.2471098,68.9437273 L60.5589026,68.9712274 L60.5589026,68.9712274 L59.8215202,68.9896195 C59.6943587,68.9919226 59.5650235,68.9938437 59.433452,68.9953815 L58.6166888,69 L58.6166888,69 L19.3833112,69 L18.566548,68.9953815 L18.566548,68.9953815 L17.8034545,68.9815657 C17.6805782,68.9784999 17.5598133,68.9750534 17.4410974,68.9712274 L16.7528902,68.9437273 L16.7528902,68.9437273 L16.1108619,68.9071787 L16.1108619,68.9071787 L15.5120163,68.8616412 C14.8373876,68.8032937 14.2448062,68.7267155 13.7128611,68.6323318 L13.2712585,68.547081 C13.1286747,68.5172172 12.9905413,68.4859098 12.8563591,68.4531688 L12.4651666,68.3506546 C12.3383873,68.3150562 12.2150598,68.2780341 12.0946847,68.2395981 L11.7419172,68.1200588 L11.7419172,68.1200588 L11.4038678,67.9920962 L11.4038678,67.9920962 L11.0775402,67.8557699 L11.0775402,67.8557699 L10.7599382,67.7111393 L10.7599382,67.7111393 L10.4480655,67.5582641 L10.4480655,67.5582641 L10.1389258,67.3972038 L10.1389258,67.3972038 C8.18337022,66.3513612 6.64863878,64.8166298 5.60279622,62.8610742 L5.4417359,62.5519345 L5.4417359,62.5519345 L5.28886069,62.2400618 L5.28886069,62.2400618 L5.14423015,61.9224598 L5.14423015,61.9224598 L5.0079038,61.5961322 L5.0079038,61.5961322 L4.87994119,61.2580828 L4.87994119,61.2580828 L4.76040186,60.9053153 C4.72196591,60.7849402 4.68494377,60.6616127 4.64934535,60.5348334 L4.5468312,60.1436409 C4.51409016,60.0094587 4.48278277,59.8713253 4.45291896,59.7287415 L4.36766815,59.2871389 C4.28676792,58.831186 4.21894915,58.3306839 4.1644798,57.7721494 L4.11447017,57.1937715 C4.10688017,57.0939847 4.09966347,56.992461 4.09282131,56.8891381 L4.05627272,56.2471098 L4.05627272,56.2471098 L4.0287726,55.5589026 L4.0287726,55.5589026 L4.01038046,54.8215202 C4.00807741,54.6943587 4.00615635,54.5650235 4.0046185,54.433452 L4,53.6166888 L4,53.6166888 L4,33 Z M19.3833112,11 L58.6166888,11 L59.433452,11.0046185 L59.433452,11.0046185 L60.1965455,11.0184343 C60.3194218,11.0215001 60.4401867,11.0249466 60.5589026,11.0287726 L61.2471098,11.0562727 L61.2471098,11.0562727 L61.8891381,11.0928213 L61.8891381,11.0928213 L62.4879837,11.1383588 C63.1626124,11.1967063 63.7551938,11.2732845 64.2871389,11.3676682 L64.7287415,11.452919 C64.8713253,11.4827828 65.0094587,11.5140902 65.1436409,11.5468312 L65.5348334,11.6493454 C65.6616127,11.6849438 65.7849402,11.7219659 65.9053153,11.7604019 L66.2580828,11.8799412 L66.2580828,11.8799412 L66.5961322,12.0079038 L66.5961322,12.0079038 L66.9224598,12.1442301 L66.9224598,12.1442301 L67.2400618,12.2888607 L67.2400618,12.2888607 L67.5519345,12.4417359 L67.5519345,12.4417359 L67.8610742,12.6027962 L67.8610742,12.6027962 C69.8166298,13.6486388 71.3513612,15.1833702 72.3972038,17.1389258 L72.5582641,17.4480655 L72.5582641,17.4480655 L72.7111393,17.7599382 L72.7111393,17.7599382 L72.8557699,18.0775402 L72.8557699,18.0775402 L72.9920962,18.4038678 L72.9920962,18.4038678 L73.1200588,18.7419172 L73.1200588,18.7419172 L73.2395981,19.0946847 C73.2780341,19.2150598 73.3150562,19.3383873 73.3506546,19.4651666 L73.4531688,19.8563591 C73.4859098,19.9905413 73.5172172,20.1286747 73.547081,20.2712585 L73.6323318,20.7128611 C73.7132321,21.168814 73.7810508,21.6693161 73.8355202,22.2278506 L73.8855298,22.8062285 C73.8931198,22.9060153 73.9003365,23.007539 73.9071787,23.1108619 L73.9437273,23.7528902 L73.9437273,23.7528902 L73.9712274,24.4410974 L73.9712274,24.4410974 L73.9896195,25.1784798 C73.9919226,25.3056413 73.9938437,25.4349765 73.9953815,25.566548 L74,26.3833112 L74,26.3833112 L74,30 L4,30 L4,26.3833112 C4,26.101779 4.00154281,25.829691 4.0046185,25.566548 L4.01843431,24.8034545 C4.02150008,24.6805782 4.02494659,24.5598133 4.0287726,24.4410974 L4.05627272,23.7528902 L4.05627272,23.7528902 L4.09282131,23.1108619 L4.09282131,23.1108619 L4.13835881,22.5120163 C4.19670627,21.8373876 4.27328454,21.2448062 4.36766815,20.7128611 L4.45291896,20.2712585 C4.48278277,20.1286747 4.51409016,19.9905413 4.5468312,19.8563591 L4.64934535,19.4651666 C4.68494377,19.3383873 4.72196591,19.2150598 4.76040186,19.0946847 L4.87994119,18.7419172 L4.87994119,18.7419172 L5.0079038,18.4038678 L5.0079038,18.4038678 L5.14423015,18.0775402 L5.14423015,18.0775402 L5.28886069,17.7599382 L5.28886069,17.7599382 L5.4417359,17.4480655 L5.4417359,17.4480655 L5.60279622,17.1389258 L5.60279622,17.1389258 C6.64863878,15.1833702 8.18337022,13.6486388 10.1389258,12.6027962 L10.4480655,12.4417359 L10.4480655,12.4417359 L10.7599382,12.2888607 L10.7599382,12.2888607 L11.0775402,12.1442301 L11.0775402,12.1442301 L11.4038678,12.0079038 L11.4038678,12.0079038 L11.7419172,11.8799412 L11.7419172,11.8799412 L12.0946847,11.7604019 C12.2150598,11.7219659 12.3383873,11.6849438 12.4651666,11.6493454 L12.8563591,11.5468312 C12.9905413,11.5140902 13.1286747,11.4827828 13.2712585,11.452919 L13.7128611,11.3676682 C14.168814,11.2867679 14.6693161,11.2189492 15.2278506,11.1644798 L15.8062285,11.1144702 C15.9060153,11.1068802 16.007539,11.0996635 16.1108619,11.0928213 L16.7528902,11.0562727 L16.7528902,11.0562727 L17.4410974,11.0287726 L17.4410974,11.0287726 L18.1784798,11.0103805 C18.3056413,11.0080774 18.4349765,11.0061563 18.566548,11.0046185 L19.3833112,11 L19.3833112,11 Z" id="_path-1"/>
    </defs>
    <g id="_battery/icon/ic_battery_earphone_case02" stroke="none" stroke-width="1" fill="none" fill-rule="evenodd">
        <mask id="_mask-2" fill="white">
            <use xlink:href="#_path-1"/>
        </mask>
        <use id="_形状" fill="#000000" xlink:href="#_path-1"/>
    </g>
</svg>