<?xml version="1.0" encoding="UTF-8"?>
<svg xmlns="http://www.w3.org/2000/svg" xmlns:xlink="http://www.w3.org/1999/xlink" width="24" height="24" viewBox="0 0 24 24" version="1.1">
    <!-- Generator: Sketch 63.1 (92452) - https://sketch.com -->
    <title>负一屏电量/ic_device_earphone_hero_right_filled</title>
    <desc>Created with Sketch.</desc>
    <g id="_负一屏电量/ic_device_earphone_hero_right_filled" stroke="none" stroke-width="1" fill="none" fill-rule="evenodd">
        <path d="M14.5,10.25 L14.4998925,21 L11.2500638,21 L11.25,10.5144083 C11.6884683,10.608674 12.1236979,10.6591619 12.5394641,10.6591619 C13.2359423,10.6591619 13.8987338,10.5132871 14.5,10.25 Z M12.5393438,1.5 C14.864825,1.5 16.75,3.40278981 16.75,5.75 C16.75,8.09721019 14.864825,10 12.5393438,10 C10.851064,10 8.55901196,8.99710851 7.5836899,7.54936157 C7.41015837,7.29177512 7.25741545,6.60763155 7.25029012,5.90055488 C7.24781059,5.65449959 7.26133436,5.40566716 7.28664376,5.17106649 L7.30521641,5.01696111 C7.36589473,4.5620901 7.46996644,4.17926511 7.5836899,4.00455715 C8.54492863,2.52785169 10.830184,1.5 12.5393438,1.5 Z M8.36076307,4.30946938 C7.97928674,4.41236453 7.75,5.14753431 7.75,5.93047028 C7.75,6.71340625 8.0617058,7.34810127 8.44620597,7.34810127 C8.83070615,7.34810127 9.14240506,6.71340625 9.14240506,5.93047028 C9.14240506,5.38311622 9.09805169,4.79224284 8.89092196,4.49486161 C8.76819968,4.31866621 8.61415712,4.24112171 8.36076307,4.30946938 Z M13.8729248,4.86981201 C13.3896756,4.86981201 12.9979248,5.26156286 12.9979248,5.74481201 C12.9979248,6.22806117 13.3896756,6.61981201 13.8729248,6.61981201 C14.356174,6.61981201 14.7479248,6.22806117 14.7479248,5.74481201 C14.7479248,5.26156286 14.356174,4.86981201 13.8729248,4.86981201 Z M11.1229248,4.86981201 C10.6396756,4.86981201 10.2479248,5.26156286 10.2479248,5.74481201 C10.2479248,6.22806117 10.6396756,6.61981201 11.1229248,6.61981201 C11.606174,6.61981201 11.9979248,6.22806117 11.9979248,5.74481201 C11.9979248,5.26156286 11.606174,4.86981201 11.1229248,4.86981201 Z" id="_形状" fill-opacity="0.9" fill="#000000"/>
        <path d="M8.36076307,4.30946938 C8.61415712,4.24112171 8.76819968,4.31866621 8.89092196,4.49486161 C9.09805169,4.79224284 9.14240506,5.38311622 9.14240506,5.93047028 C9.14240506,6.71340625 8.83070615,7.34810127 8.44620597,7.34810127 C8.0617058,7.34810127 7.75,6.71340625 7.75,5.93047028 C7.75,5.14753431 7.97928674,4.41236453 8.36076307,4.30946938 Z" id="_路径" fill="#000000" opacity="0.400000006"/>
        <path d="M14.5,21 L14.5,21.875 C14.5,22.7724627 13.7724627,23.5 12.875,23.5 C11.9775373,23.5 11.25,22.7724627 11.25,21.875 L11.25,21 L14.5,21 Z" id="_路径" fill="#000000" opacity="0.600000024"/>
    </g>
</svg>