<?xml version="1.0" encoding="UTF-8"?>
<svg xmlns="http://www.w3.org/2000/svg" xmlns:xlink="http://www.w3.org/1999/xlink" width="24" height="24" viewBox="0 0 24 24" version="1.1">
    <!-- Generator: Sketch 63.1 (92452) - https://sketch.com -->
    <title>查找耳机/ic_device_earphone_h2_left</title>
    <desc>Created with Sketch.</desc>
    <defs>
        <path d="M11.9728698,1.25 C14.3350945,1.25 16.2500966,3.15278981 16.2500966,5.5 C16.2503424,5.560287 16.2491077,5.62026295 16.2465001,5.67960831 C16.1589548,7.7663639 14.5574257,9.46441433 12.5048691,9.71744634 C12.5244152,9.89481046 12.5461152,10.0720155 12.5699032,10.2489932 L12.6071429,10.5142806 L12.8149999,11.9348555 C12.8374465,12.0882641 12.85095,12.2428154 12.8554536,12.3977265 L12.8571429,12.513965 L12.8571429,21.5 C12.8571429,22.3095992 12.2157491,22.9693929 11.4133774,22.9989654 L11.3571429,23 L10.8571429,23 L10.8008967,22.9989766 C10.017185,22.9700858 9.38705593,22.3399467 9.35818789,21.5562346 L9.35715449,21.5 L9.35725135,9.0048553 C8.30512142,8.28624156 7.59273021,7.11200217 7.5084058,5.76863257 C7.50450366,5.70993738 7.50184372,5.65039752 7.50065382,5.59036775 L7.5,5.5 L7.50075677,5.41924008 C7.54408119,3.10929891 9.44211349,1.25 11.7771862,1.25 C11.8098341,1.25 11.8424932,1.25045953 11.8751562,1.25137119 L11.9728698,1.25 Z M11.857,13.5 L10.35725,13.5 L10.357147,21.5 L10.3585143,21.5373198 C10.3766472,21.783099 10.5724495,21.9794702 10.8179802,21.9984895 L10.857147,22 L11.3573929,22 L11.3947216,21.9986408 C11.6405003,21.9805014 11.836866,21.7846939 11.8558714,21.5391627 L11.8573797,21.5 L11.857,13.5 Z M10.3573387,9.39814784 L10.35725,12.5 L11.85675,12.5 L11.8551635,12.4050051 C11.8525252,12.332413 11.8472513,12.2599407 11.8393521,12.1877315 L11.8255356,12.0796329 L11.6176786,10.659058 L11.5769724,10.3685251 L11.5398072,10.0775362 L11.4986228,9.71857795 C11.1103906,9.66770898 10.7258039,9.55676669 10.3573387,9.39814784 Z M11.8749621,2.2519458 L11.8278527,2.25425318 C10.5653512,2.32759686 9.16820536,3.33965858 8.66560063,4.52345318 L8.65734544,4.5443293 L8.65734544,4.5443293 L8.63864461,4.59974169 L8.63864461,4.59974169 L8.61797015,4.67092771 L8.61797015,4.67092771 L8.59645846,4.75495941 L8.59645846,4.75495941 L8.58574379,4.80087742 L8.56510702,4.89868782 C8.5246874,5.10474135 8.50114458,5.31813675 8.50000105,5.50589013 C8.50000105,5.55628228 8.50139029,5.60883827 8.50397544,5.66114318 C8.52071466,5.97115729 8.58811764,6.29039608 8.65623963,6.45426579 C9.17181982,7.69451096 10.6645569,8.75 11.9728698,8.75 L12.0385757,8.74936015 L12.0385757,8.74936015 L12.3072185,8.69637263 L12.3873379,8.67948527 C13.3282779,8.46802778 14.2579068,7.79863058 14.7978678,6.99838427 C14.4249101,6.96250118 14.2598149,6.36059594 14.250426,5.57217764 L14.2504034,5.42974794 C14.2515127,5.33397693 14.254917,5.24095137 14.2607095,5.15135084 L14.2712011,5.01960374 C14.3245271,4.46056716 14.4807213,4.06059325 14.7653566,4.00630635 L14.799,4.0015 L14.7508967,3.93167581 C14.095405,3.00547305 12.9330883,2.29377967 11.8749621,2.2519458 Z M10.7321429,4.75 C11.215392,4.75 11.6071429,5.14175084 11.6071429,5.625 C11.6071429,6.10824916 11.215392,6.5 10.7321429,6.5 C10.2488937,6.5 9.85714286,6.10824916 9.85714286,5.625 C9.85714286,5.14175084 10.2488937,4.75 10.7321429,4.75 Z M12.9821429,5 C13.3273208,5 13.6071429,5.27982203 13.6071429,5.625 C13.6071429,5.97017797 13.3273208,6.25 12.9821429,6.25 C12.6369649,6.25 12.3571429,5.97017797 12.3571429,5.625 C12.3571429,5.27982203 12.6369649,5 12.9821429,5 Z" id="_path-1"/>
    </defs>
    <g id="_查找耳机/ic_device_earphone_h2_left" stroke="none" stroke-width="1" fill="none" fill-rule="evenodd">
        <mask id="_mask-2" fill="white">
            <use xlink:href="#_path-1"/>
        </mask>
        <use id="_形状" fill="#000000" xlink:href="#_path-1"/>
    </g>
</svg>