<?xml version="1.0" encoding="UTF-8"?>
<svg xmlns="http://www.w3.org/2000/svg" xmlns:xlink="http://www.w3.org/1999/xlink" width="24" height="24" viewBox="0 0 24 24" version="1.1">
    <!-- Generator: Sketch 63.1 (92452) - https://sketch.com -->
    <title>查找耳机/ic_device_earphone_mermaid_right</title>
    <desc>Created with Sketch.</desc>
    <defs>
        <path d="M13.6995621,4.25 C15.9031652,4.25 17.6937651,6.02075381 17.7355919,8.22022796 L17.7363399,8.29896062 L17.7353969,8.38978015 C17.7041905,9.88922249 16.9001273,11.14741 15.5673172,11.8813527 L15.5670384,18.3589992 L15.565912,18.4143559 C15.5382187,19.0937107 15.0031947,19.6445406 14.330565,19.6730612 L14.2757332,19.6742213 L12.1584283,19.6742213 L12.1035965,19.6730612 C11.4309678,19.6445406 10.8959684,19.0937109 10.8682763,18.4143559 L10.86715,18.3589992 L10.8672233,13.7148161 C10.3872632,13.8275139 9.88450938,13.9125 9.57707734,13.9125 C7.87349125,13.9125 6.5,12.4547977 6.5,10.7263899 C6.5,9.77931908 6.90178304,8.99046303 7.63313668,8.22486695 L7.75418792,8.09978991 C7.90739709,7.93888868 8.2679389,7.54992149 8.36746932,7.47427744 C8.39201343,7.45562369 8.41701878,7.43825391 8.44282071,7.42202482 C8.8082508,7.19217394 9.22280994,7.10632998 9.65026783,7.14353329 C10.8647104,5.42753824 12.2822716,4.25 13.6995621,4.25 Z M14.5675026,12.321527 C14.4076301,12.375408 14.2370866,12.4260512 14.0475145,12.4770219 C13.9627783,12.4998051 13.8366477,12.5222749 13.658046,12.5476569 L13.5310831,12.565045 L13.3297841,12.5907527 L12.7239072,12.6617643 C12.5588887,12.9563739 12.3252125,13.1948225 12.020382,13.3509773 C11.9779837,13.3726967 11.9263425,13.3955498 11.8670985,13.4191061 L11.86715,18.3589888 L11.8686911,18.3917609 C11.8829492,18.5423113 11.9943785,18.6578887 12.1292055,18.6726299 L12.1584283,18.6742213 L14.2757332,18.6742213 L14.304958,18.6726298 C14.4397949,18.6578876 14.5512374,18.5423032 14.5654971,18.3917678 L14.5670384,18.3589992 L14.5675026,12.321527 Z M9.01439465,8.24542218 L8.97255732,8.27043604 L8.95712615,8.28489161 L8.47071074,8.79786617 L8.41955901,8.85036555 C7.8906977,9.38691539 7.58835361,9.89555404 7.51668467,10.4595863 C7.91523611,10.2529727 8.51375112,10.6548111 8.9014601,11.3263428 C9.24106787,11.9145607 9.32060141,12.5393899 9.0812298,12.8479139 C9.24022188,12.8900589 9.40642106,12.9125 9.57707734,12.9125 C10.032558,12.9125 11.27215,12.6106987 11.5644548,12.4609603 C12.1796092,12.1458364 12.2081058,10.7423601 11.4736258,9.55920032 C10.7650119,8.41770764 9.65087505,7.89438628 9.01439465,8.24542218 Z M13.6995621,5.25 C12.7722957,5.25 11.6602483,6.13293338 10.6661283,7.45000225 C11.2904967,7.76998632 11.8809325,8.31929093 12.3232322,9.03178305 C12.8381629,9.86127497 13.077325,10.8084617 13.0166103,11.6209908 L13.2069027,11.5983313 C13.4728967,11.565396 13.6652254,11.537361 13.7542296,11.5190581 L13.7878639,11.5113192 L13.8937245,11.4822838 C14.2694174,11.3770657 14.5474918,11.2744806 14.8372886,11.1303207 L14.9246886,11.0857813 L14.9769153,11.0607684 L14.9921683,11.05475 L15.0867108,11.0044341 C15.9238203,10.5431028 16.4761053,9.83461578 16.6645022,8.97550937 C16.6016642,9.03818175 16.5322075,9.09548029 16.4563289,9.14666103 C15.6674933,9.67873738 14.5256073,9.31960428 13.8933749,8.38228111 C13.2611424,7.44495795 13.355918,6.25168609 14.1447536,5.71960974 C14.3598257,5.57454183 14.6011418,5.49572219 14.8512175,5.47680684 C14.4959494,5.33061996 14.1071129,5.25 13.6995621,5.25 Z M14.4243501,6.13412853 C13.887805,6.49603275 13.8178952,7.37623207 14.3078937,8.10268466 C14.7978921,8.82913726 15.6401874,9.09404647 16.1767325,8.73214225 C16.7132775,8.37023803 16.7831874,7.49003871 16.2931889,6.76358611 C15.8031904,6.03713352 14.9608952,5.77222431 14.4243501,6.13412853 Z" id="_path-1"/>
    </defs>
    <g id="_查找耳机/ic_device_earphone_mermaid_right" stroke="none" stroke-width="1" fill="none" fill-rule="evenodd">
        <mask id="_mask-2" fill="white">
            <use xlink:href="#_path-1"/>
        </mask>
        <use id="_形状" fill="#000000" fill-rule="nonzero" xlink:href="#_path-1"/>
    </g>
</svg>