<?xml version="1.0" encoding="UTF-8"?>
<svg xmlns="http://www.w3.org/2000/svg" xmlns:xlink="http://www.w3.org/1999/xlink" width="24" height="24" viewBox="0 0 24 24" version="1.1">
    <!-- Generator: Sketch 63.1 (92452) - https://sketch.com -->
    <title>负一屏电量/ic_device_earphone_walrus_left_filled</title>
    <desc>Created with Sketch.</desc>
    <g id="_负一屏电量/ic_device_earphone_walrus_left_filled" stroke="none" stroke-width="1" fill="none" fill-rule="evenodd">
        <path d="M9.64274045,2.00027761 L9.72072618,2.00217995 L10.1499816,2.01755202 C10.2374835,2.02068555 10.3241342,2.0270355 10.4098216,2.03648572 C9.32530979,2.56638503 8.44197902,3.96409518 8.2300675,5.68997596 C7.94401454,8.0196904 8.98970968,10.0651651 10.565693,10.2586715 C10.7411044,10.2802093 10.915692,10.2778965 11.0878604,10.2535633 L11.0660808,10.2660343 C10.427095,10.6399304 10.0264452,11.3146835 10.0012617,12.0511721 L10,12.1250178 L10,22.25 C10,22.6494202 9.68777001,22.9759152 9.2940682,22.9987268 L9.25,22.9999915 L7.75,22.9999915 C7.35057978,22.9999915 7.02408478,22.68777 7.00127317,22.2940682 L7,22.25 L7,12.5900628 C7,10.9851709 6.85649866,9.3836949 6.57131631,7.80475202 L6.44995613,7.15381252 L6.44995613,7.15381252 L6.43284588,7.05400576 L6.43284588,7.05400576 L6.41521185,6.94145146 L6.41521185,6.94145146 L6.37837249,6.67810023 L6.37837249,6.67810023 L6.33943802,6.36375882 L6.33943802,6.36375882 L6.29840846,5.99842724 L6.29840846,5.99842724 L6.26626138,5.69096625 L6.26626138,5.69096625 C6.25074786,5.53843552 6.24571528,5.38502018 6.25120222,5.23180078 C6.31651658,3.40793821 7.82734684,1.97674367 9.64274045,2.00027761 Z M15.1550135,4.91471442 L15.2099246,4.93362127 L15.7979742,5.14765382 C17.2665759,5.68217752 18.035084,7.28874217 17.5414186,8.76195788 L17.5165442,8.83313338 L17.4898484,8.90364597 C16.9302273,10.3261963 15.3516909,11.0622799 13.9022378,10.5765735 L13.8310623,10.5516989 L13.2430124,10.3376663 C12.2026734,9.95901381 11.8039002,8.4475696 12.3794637,6.86622179 C12.9348321,5.34035986 14.0851406,4.60723867 15.0998069,4.89784643 L15.1550135,4.91471442 Z M15.8622347,8.24730074 C15.6497307,8.83115089 15.7404088,9.40015971 16.06477,9.51821753 C16.3891311,9.63627535 16.8243464,9.25867607 17.0368505,8.67482592 C17.2493546,8.09097578 17.1586765,7.52196695 16.8343153,7.40390914 C16.5099541,7.28585132 16.0747388,7.6634506 15.8622347,8.24730074 Z" id="_形状" fill-opacity="0.9" fill="#000000"/>
        <path d="M10.4095277,2.03654516 C11.8016253,2.1898824 12.9394738,3.16153645 13.3426699,4.45348799 C12.6339651,4.87316223 12.0322167,5.62742185 11.6746943,6.60970668 C11.2554585,7.76154734 11.2696328,8.93425596 11.6766573,9.80499459 L11.7159656,9.8857318 L11.0873599,10.253634 C10.9153536,10.277901 10.7409344,10.2801884 10.565693,10.2586715 C8.98970968,10.0651651 7.94401454,8.0196904 8.2300675,5.68997596 C8.44196764,3.96418784 9.32521494,2.56653512 10.4095277,2.03654516 Z" id="_路径" fill="#000000" opacity="0.600000024"/>
        <path d="M16.8343153,7.40390914 C17.1586765,7.52196695 17.2493546,8.09097578 17.0368505,8.67482592 C16.8243464,9.25867607 16.3891311,9.63627535 16.06477,9.51821753 C15.7404088,9.40015971 15.6497307,8.83115089 15.8622347,8.24730074 C16.0747388,7.6634506 16.5099541,7.28585132 16.8343153,7.40390914 Z" id="_路径" fill="#000000" opacity="0.400000006"/>
    </g>
</svg>