<?xml version="1.0" encoding="UTF-8"?>
<svg xmlns="http://www.w3.org/2000/svg" xmlns:xlink="http://www.w3.org/1999/xlink" width="24" height="24" viewBox="0 0 66 80" version="1.1">
    <title>battery/icon/ic_battery_earphone_case05</title>
    <defs>
        <path d="M4,27 L19,27 L19,27.2857143 C19,28.1826579 19.6888472,28.9187127 20.5663706,28.9937075 L20.7142857,29 L45.2857143,29 C46.1826579,29 46.9187127,28.3111528 46.9937075,27.4336294 L47,27.2857143 L47,27 L62,27 L62,59.6166888 L61.9953815,60.433452 L61.9953815,60.433452 L61.9815657,61.1965455 C61.9784999,61.3194218 61.9750534,61.4401867 61.9712274,61.5589026 L61.9437273,62.2471098 L61.9437273,62.2471098 L61.9071787,62.8891381 L61.9071787,62.8891381 L61.8616412,63.4879837 C61.8032937,64.1626124 61.7267155,64.7551938 61.6323318,65.2871389 L61.547081,65.7287415 C61.5172172,65.8713253 61.4859098,66.0094587 61.4531688,66.1436409 L61.3506546,66.5348334 C61.3150562,66.6616127 61.2780341,66.7849402 61.2395981,66.9053153 L61.1200588,67.2580828 L61.1200588,67.2580828 L60.9920962,67.5961322 L60.9920962,67.5961322 L60.8557699,67.9224598 L60.8557699,67.9224598 L60.7111393,68.2400618 L60.7111393,68.2400618 L60.5582641,68.5519345 L60.5582641,68.5519345 L60.3972038,68.8610742 L60.3972038,68.8610742 C59.3513612,70.8166298 57.8166298,72.3513612 55.8610742,73.3972038 L55.5519345,73.5582641 L55.5519345,73.5582641 L55.2400618,73.7111393 L55.2400618,73.7111393 L54.9224598,73.8557699 L54.9224598,73.8557699 L54.5961322,73.9920962 L54.5961322,73.9920962 L54.2580828,74.1200588 L54.2580828,74.1200588 L53.9053153,74.2395981 C53.7849402,74.2780341 53.6616127,74.3150562 53.5348334,74.3506546 L53.1436409,74.4531688 C53.0094587,74.4859098 52.8713253,74.5172172 52.7287415,74.547081 L52.2871389,74.6323318 C51.831186,74.7132321 51.3306839,74.7810508 50.7721494,74.8355202 L50.1937715,74.8855298 C50.0939847,74.8931198 49.992461,74.9003365 49.8891381,74.9071787 L49.2471098,74.9437273 L49.2471098,74.9437273 L48.5589026,74.9712274 L48.5589026,74.9712274 L47.8215202,74.9896195 C47.6943587,74.9919226 47.5650235,74.9938437 47.433452,74.9953815 L46.6166888,75 L46.6166888,75 L19.3833112,75 L18.566548,74.9953815 L18.566548,74.9953815 L17.8034545,74.9815657 C17.6805782,74.9784999 17.5598133,74.9750534 17.4410974,74.9712274 L16.7528902,74.9437273 L16.7528902,74.9437273 L16.1108619,74.9071787 L16.1108619,74.9071787 L15.5120163,74.8616412 C14.8373876,74.8032937 14.2448062,74.7267155 13.7128611,74.6323318 L13.2712585,74.547081 C13.1286747,74.5172172 12.9905413,74.4859098 12.8563591,74.4531688 L12.4651666,74.3506546 C12.3383873,74.3150562 12.2150598,74.2780341 12.0946847,74.2395981 L11.7419172,74.1200588 L11.7419172,74.1200588 L11.4038678,73.9920962 L11.4038678,73.9920962 L11.0775402,73.8557699 L11.0775402,73.8557699 L10.7599382,73.7111393 L10.7599382,73.7111393 L10.4480655,73.5582641 L10.4480655,73.5582641 L10.1389258,73.3972038 L10.1389258,73.3972038 C8.18337022,72.3513612 6.64863878,70.8166298 5.60279622,68.8610742 L5.4417359,68.5519345 L5.4417359,68.5519345 L5.28886069,68.2400618 L5.28886069,68.2400618 L5.14423015,67.9224598 L5.14423015,67.9224598 L5.0079038,67.5961322 L5.0079038,67.5961322 L4.87994119,67.2580828 L4.87994119,67.2580828 L4.76040186,66.9053153 C4.72196591,66.7849402 4.68494377,66.6616127 4.64934535,66.5348334 L4.5468312,66.1436409 C4.51409016,66.0094587 4.48278277,65.8713253 4.45291896,65.7287415 L4.36766815,65.2871389 C4.28676792,64.831186 4.21894915,64.3306839 4.1644798,63.7721494 L4.11447017,63.1937715 C4.10688017,63.0939847 4.09966347,62.992461 4.09282131,62.8891381 L4.05627272,62.2471098 L4.05627272,62.2471098 L4.0287726,61.5589026 L4.0287726,61.5589026 L4.01038046,60.8215202 C4.00807741,60.6943587 4.00615635,60.5650235 4.0046185,60.433452 L4,59.6166888 L4,59.6166888 L4,27 Z M19.3833112,5 L46.6166888,5 L47.433452,5.0046185 L47.433452,5.0046185 L48.1965455,5.01843431 C48.3194218,5.02150008 48.4401867,5.02494659 48.5589026,5.0287726 L49.2471098,5.05627272 L49.2471098,5.05627272 L49.8891381,5.09282131 L49.8891381,5.09282131 L50.4879837,5.13835881 C51.1626124,5.19670627 51.7551938,5.27328454 52.2871389,5.36766815 L52.7287415,5.45291896 C52.8713253,5.48278277 53.0094587,5.51409016 53.1436409,5.5468312 L53.5348334,5.64934535 C53.6616127,5.68494377 53.7849402,5.72196591 53.9053153,5.76040186 L54.2580828,5.87994119 L54.2580828,5.87994119 L54.5961322,6.0079038 L54.5961322,6.0079038 L54.9224598,6.14423015 L54.9224598,6.14423015 L55.2400618,6.28886069 L55.2400618,6.28886069 L55.5519345,6.4417359 L55.5519345,6.4417359 L55.8610742,6.60279622 L55.8610742,6.60279622 C57.8166298,7.64863878 59.3513612,9.18337022 60.3972038,11.1389258 L60.5582641,11.4480655 L60.5582641,11.4480655 L60.7111393,11.7599382 L60.7111393,11.7599382 L60.8557699,12.0775402 L60.8557699,12.0775402 L60.9920962,12.4038678 L60.9920962,12.4038678 L61.1200588,12.7419172 L61.1200588,12.7419172 L61.2395981,13.0946847 C61.2780341,13.2150598 61.3150562,13.3383873 61.3506546,13.4651666 L61.4531688,13.8563591 C61.4859098,13.9905413 61.5172172,14.1286747 61.547081,14.2712585 L61.6323318,14.7128611 C61.7132321,15.168814 61.7810508,15.6693161 61.8355202,16.2278506 L61.8855298,16.8062285 C61.8931198,16.9060153 61.9003365,17.007539 61.9071787,17.1108619 L61.9437273,17.7528902 L61.9437273,17.7528902 L61.9712274,18.4410974 L61.9712274,18.4410974 L61.9896195,19.1784798 C61.9919226,19.3056413 61.9938437,19.4349765 61.9953815,19.566548 L62,20.3833112 L62,20.3833112 L62,24 L4,24 L4,20.3833112 C4,20.101779 4.00154281,19.829691 4.0046185,19.566548 L4.01843431,18.8034545 C4.02150008,18.6805782 4.02494659,18.5598133 4.0287726,18.4410974 L4.05627272,17.7528902 L4.05627272,17.7528902 L4.09282131,17.1108619 L4.09282131,17.1108619 L4.13835881,16.5120163 C4.19670627,15.8373876 4.27328454,15.2448062 4.36766815,14.7128611 L4.45291896,14.2712585 C4.48278277,14.1286747 4.51409016,13.9905413 4.5468312,13.8563591 L4.64934535,13.4651666 C4.68494377,13.3383873 4.72196591,13.2150598 4.76040186,13.0946847 L4.87994119,12.7419172 L4.87994119,12.7419172 L5.0079038,12.4038678 L5.0079038,12.4038678 L5.14423015,12.0775402 L5.14423015,12.0775402 L5.28886069,11.7599382 L5.28886069,11.7599382 L5.4417359,11.4480655 L5.4417359,11.4480655 L5.60279622,11.1389258 L5.60279622,11.1389258 C6.64863878,9.18337022 8.18337022,7.64863878 10.1389258,6.60279622 L10.4480655,6.4417359 L10.4480655,6.4417359 L10.7599382,6.28886069 L10.7599382,6.28886069 L11.0775402,6.14423015 L11.0775402,6.14423015 L11.4038678,6.0079038 L11.4038678,6.0079038 L11.7419172,5.87994119 L11.7419172,5.87994119 L12.0946847,5.76040186 C12.2150598,5.72196591 12.3383873,5.68494377 12.4651666,5.64934535 L12.8563591,5.5468312 C12.9905413,5.51409016 13.1286747,5.48278277 13.2712585,5.45291896 L13.7128611,5.36766815 C14.168814,5.28676792 14.6693161,5.21894915 15.2278506,5.1644798 L15.8062285,5.11447017 C15.9060153,5.10688017 16.007539,5.09966347 16.1108619,5.09282131 L16.7528902,5.05627272 L16.7528902,5.05627272 L17.4410974,5.0287726 L17.4410974,5.0287726 L18.1784798,5.01038046 C18.3056413,5.00807741 18.4349765,5.00615635 18.566548,5.0046185 L19.3833112,5 L19.3833112,5 Z" id="_path-1"/>
    </defs>
    <g id="_battery/icon/ic_battery_earphone_case05" stroke="none" stroke-width="1" fill="none" fill-rule="evenodd">
        <mask id="_mask-2" fill="white">
            <use xlink:href="#_path-1"/>
        </mask>
        <use id="_形状" fill="#000000" xlink:href="#_path-1"/>
    </g>
</svg>