<?xml version="1.0" encoding="UTF-8"?>
<svg xmlns="http://www.w3.org/2000/svg" xmlns:xlink="http://www.w3.org/1999/xlink" width="24" height="24" viewBox="0 0 24 24" version="1.1">
    <!-- Generator: Sketch 63.1 (92452) - https://sketch.com -->
    <title>负一屏电量/ic_device_earphone_walrus_right_filled</title>
    <desc>Created with Sketch.</desc>
    <g id="_负一屏电量/ic_device_earphone_walrus_right_filled" stroke="none" stroke-width="1" fill="none" fill-rule="evenodd">
        <path d="M17.7487978,5.23180078 C17.7542847,5.38502018 17.7492521,5.53843552 17.7337386,5.69096625 L17.7015915,5.99842724 L17.7015915,5.99842724 L17.660562,6.36375882 L17.660562,6.36375882 L17.6216275,6.67810023 L17.6216275,6.67810023 L17.5938016,6.88039398 L17.5938016,6.88039398 L17.5671541,7.05400576 L17.5671541,7.05400576 L17.5500439,7.15381252 L17.5500439,7.15381252 L17.5069162,7.38759348 L17.5069162,7.38759348 L17.4838153,7.50896895 C17.1619996,9.18352375 17,10.8848651 17,12.5900628 L17,22.25 C17,22.6642136 16.6642136,22.9999915 16.25,22.9999915 L14.75,22.9999915 C14.3357864,22.9999915 14,22.6642136 14,22.25 L14,12.1250178 C14,11.3600013 13.5942045,10.6523936 12.9339192,10.2660343 L12.9120243,10.253547 C13.0842301,10.2778955 13.2588564,10.2802141 13.434307,10.2586715 C15.0102903,10.0651651 16.0559855,8.0196904 15.7699325,5.68997596 C15.5580161,3.96405514 14.6746492,2.56632018 13.5902221,2.03642291 C13.6758337,2.02703785 13.7625003,2.02068613 13.8500184,2.01755202 L14.2792738,2.00217995 C16.1291916,1.93593253 17.6825504,3.38188303 17.7487978,5.23180078 Z M11.6205363,6.86622179 C12.1960998,8.4475696 11.7973266,9.95901381 10.7569876,10.3376663 L10.1689377,10.5516989 C8.70033825,11.0862293 7.07894684,10.3495168 6.5101516,8.90364597 L6.4834558,8.83313338 C5.94030751,7.34084573 6.70973699,5.69079887 8.20202582,5.14765382 L8.7900754,4.93362127 C9.83041393,4.55496901 11.0449727,5.28487397 11.6205363,6.86622179 Z M7.16568472,7.40390914 C6.84132353,7.52196695 6.75064542,8.09097578 6.9631495,8.67482592 C7.17565357,9.25867607 7.61086886,9.63627535 7.93523005,9.51821753 C8.25959124,9.40015971 8.35026935,8.83115089 8.13776527,8.24730074 C7.9252612,7.6634506 7.49004591,7.28585132 7.16568472,7.40390914 Z" id="_形状" fill-opacity="0.9" fill="#000000"/>
        <path d="M13.5904723,2.03654516 C14.6747851,2.56653512 15.5580324,3.96418784 15.7699325,5.68997596 C16.0559855,8.0196904 15.0102903,10.0651651 13.434307,10.2586715 C13.2590656,10.2801884 13.0846464,10.277901 12.9126401,10.253634 L12.2840344,9.8857318 C12.7290581,9.00757063 12.7576426,7.79754236 12.3253057,6.60970668 C11.9677833,5.62742185 11.3660349,4.87316223 10.6573301,4.45348799 C11.0541945,3.18182483 12.1628191,2.22047845 13.5250376,2.04428951 L13.5904723,2.03654516 Z" id="_路径" fill="#000000" opacity="0.600000024"/>
        <path d="M7.16568472,7.40390914 C7.49004591,7.28585132 7.9252612,7.6634506 8.13776527,8.24730074 C8.35026935,8.83115089 8.25959124,9.40015971 7.93523005,9.51821753 C7.61086886,9.63627535 7.17565357,9.25867607 6.9631495,8.67482592 C6.75064542,8.09097578 6.84132353,7.52196695 7.16568472,7.40390914 Z" id="_路径" fill="#000000" opacity="0.400000006"/>
    </g>
</svg>