<?xml version="1.0" encoding="UTF-8"?>
<svg xmlns="http://www.w3.org/2000/svg" xmlns:xlink="http://www.w3.org/1999/xlink" width="24" height="24" viewBox="0 0 20 20" version="1.1">
    <title>Devices/Battery/ic_device_battery_earphone_right</title>
    <defs>
        <path d="M10,1.25 C14.8324916,1.25 18.75,5.16750844 18.75,10 C18.75,14.8324916 14.8324916,18.75 10,18.75 C5.16750844,18.75 1.25,14.8324916 1.25,10 C1.25,5.16750844 5.16750844,1.25 10,1.25 Z M10.2332046,5.71428571 L7.42857143,5.71428571 L7.42857143,14.7142857 L8.54054054,14.7142857 L8.54054054,11.0285714 L10.3196911,11.0285714 L12.9266409,14.7142857 L14.2857143,14.7142857 L11.4810811,10.8326531 L11.6096131,10.7972928 C12.157571,10.6348605 12.5883434,10.3527697 12.9019305,9.95102041 C13.2396396,9.51836735 13.4084942,9 13.4084942,8.39591837 C13.4084942,7.59591837 13.1119691,6.94897959 12.5189189,6.45510204 C11.9956393,6.01932773 11.3408986,5.77580679 10.5546967,5.72453923 L10.3957035,5.71684909 L10.2332046,5.71428571 Z M10.1572872,6.57142857 L10.2874523,6.5735937 C10.8845941,6.59380153 11.3375982,6.7554642 11.6464646,7.05858171 C11.977393,7.38335046 12.1428571,7.80061665 12.1428571,8.31038027 C12.1428571,8.82836588 11.977393,9.23946557 11.6464646,9.54367934 C11.3375982,9.8276122 10.8845941,9.97904305 10.2874523,9.99797191 L10.1572872,10 L8.71428571,10 L8.71428571,6.57142857 L10.1572872,6.57142857 Z" id="_path-1"/>
    </defs>
    <g id="_Devices/Battery/ic_device_battery_earphone_right" stroke="none" stroke-width="1" fill="none" fill-rule="evenodd">
        <mask id="_mask-2" fill="white">
            <use xlink:href="#_path-1"/>
        </mask>
        <use id="_形状" fill="#000000" xlink:href="#_path-1"/>
    </g>
</svg>