<?xml version="1.0" encoding="UTF-8"?>
<svg xmlns="http://www.w3.org/2000/svg" xmlns:xlink="http://www.w3.org/1999/xlink" width="24" height="24" viewBox="0 0 24 24" version="1.1">
    <!-- Generator: Sketch 63.1 (92452) - https://sketch.com -->
    <title>Filled/ic_device_earphone_nile_filled</title>
    <desc>Created with Sketch.</desc>
    <g id="_Filled/ic_device_earphone_nile_filled" stroke="none" stroke-width="1" fill="none" fill-rule="evenodd">
        <path d="M9,1.75 C10.190864,1.75 11.1656449,2.67516159 11.2448092,3.84595119 L11.25,4 L11.25,12.25 C11.25,12.7622755 10.9418424,13.2025769 10.5007861,13.3956453 L10.5,20.2613636 C10.5,21.082875 11.1709371,21.75 12,21.75 C12.7802945,21.75 13.4205191,21.1590519 13.4931396,20.4046292 L13.5,20.2613636 L13.5001064,17.3960356 C13.0987128,17.2207039 12.8072031,16.8406739 12.7575186,16.3878869 L12.75,16.25 L12.75,8 L12.7551908,7.84595119 C12.8307567,6.7283793 13.72237,5.8346131 14.8390126,5.75567065 L15,5.75 L16.25,5.75 L16.3816124,5.7536109 C15.9868346,6.38240458 15.75,7.16192149 15.75,8 C15.75,8.94554228 16.0514652,9.81654172 16.5423209,10.481184 L16.3974287,10.4952471 L16.25,10.5 L15.5,10.5 L15.4426773,10.5066027 C15.3543222,10.5273311 15.2840218,10.5949264 15.2594358,10.6817289 L15.25,10.75 L15.25,16.25 L15.2435464,16.3778052 C15.197147,16.8346918 14.9046937,17.2188384 14.5007861,17.3956453 L14.5,20.2613636 C14.5,21.6364393 13.3800761,22.75 12,22.75 C10.6751269,22.75 9.59001015,21.7237425 9.50532061,20.4250629 L9.5,20.2613636 L9.50010644,13.3960356 C9.09573718,13.2194041 8.80288714,12.8350283 8.75645361,12.3778052 L8.75,12.25 L8.75,6.75 C8.75,6.63165327 8.66776659,6.53251318 8.55732271,6.50660268 L8.5,6.5 L7.75,6.5 C7.65093392,6.5 7.55336321,6.49359759 7.45767906,6.48118398 C7.94853482,5.81654172 8.25,4.94554228 8.25,4 C8.25,3.16192149 8.01316545,2.38240458 7.61838761,1.7536109 L7.75,1.75 L9,1.75 Z M19.5,5 C21.1568526,5 22.5,6.34314377 22.5,8 L22.5,8 L22.4991058,8.07397453 C22.4598362,9.69665115 21.1321233,11 19.5,11 L19.5,11 L18.8470965,11 C17.6920295,11 16.5,9.75573789 16.5,8 C16.5,6.24426211 17.6920307,5 18.8470971,5 L18.8470971,5 Z M21.375,6.75 C21.029822,6.75 20.75,7.30964406 20.75,8 C20.75,8.69035594 21.029822,9.25 21.375,9.25 C21.720178,9.25 22,8.69035594 22,8 C22,7.30964406 21.720178,6.75 21.375,6.75 Z M5.15290291,1 C6.30796935,1 7.5,2.24426211 7.5,4 C7.5,5.75573789 6.30797052,7 5.15290355,7 L4.5,7 C2.8678767,7 1.54016384,5.69665115 1.5008942,4.07397453 L1.5,4 C1.5,2.34314377 2.84314736,1 4.5,1 L5.15290291,1 Z M2.625,2.75 C2.27982203,2.75 2,3.30964406 2,4 C2,4.69035594 2.27982203,5.25 2.625,5.25 C2.97017797,5.25 3.25,4.69035594 3.25,4 C3.25,3.30964406 2.97017797,2.75 2.625,2.75 Z" id="_形状结合" fill="#000000"/>
        <path d="M21.375,6.75 C21.720178,6.75 22,7.30964406 22,8 C22,8.69035594 21.720178,9.25 21.375,9.25 C21.029822,9.25 20.75,8.69035594 20.75,8 C20.75,7.30964406 21.029822,6.75 21.375,6.75 Z M2.625,2.75 C2.97017797,2.75 3.25,3.30964406 3.25,4 C3.25,4.69035594 2.97017797,5.25 2.625,5.25 C2.27982203,5.25 2,4.69035594 2,4 C2,3.30964406 2.27982203,2.75 2.625,2.75 Z" id="_形状结合" fill-opacity="0.4" fill="#000000"/>
    </g>
</svg>