<?xml version="1.0" encoding="UTF-8"?>
<svg xmlns="http://www.w3.org/2000/svg" xmlns:xlink="http://www.w3.org/1999/xlink" width="24" height="24" viewBox="0 0 24 24" version="1.1">
    <!-- Generator: Sketch 63.1 (92452) - https://sketch.com -->
    <title>Linear/ic_device_earphone_hero</title>
    <desc>Created with Sketch.</desc>
    <defs>
        <path d="M7.28934375,1.5 C9.61482498,1.5 11.5,3.40278981 11.5,5.75 C11.5,7.38266107 10.5879056,8.80030054 9.2499679,9.51212389 L9.25,21 C9.25,21.0859225 9.2438077,21.1703988 9.23184503,21.2530068 C9.22066603,21.3295069 9.20461068,21.4045337 9.18392607,21.4776163 C8.98184573,22.1916385 8.33801092,22.7199617 7.56644014,22.748762 L7.4999415,22.75 C6.5334755,22.75 5.75,21.9665245 5.75,21.0000585 L5.75017968,9.77049284 C4.40630227,9.39501989 3.0322548,8.58629617 2.3336899,7.54936157 C2.16015837,7.29177512 2.00741545,6.60763155 2.00029012,5.90055488 C1.99781059,5.65449959 2.01133436,5.40566716 2.03664376,5.17106649 L2.05521641,5.01696111 C2.11589473,4.5620901 2.21996644,4.17926511 2.3336899,4.00455715 C3.29492863,2.52785169 5.580184,1.5 7.28934375,1.5 Z M16.7106562,1.5 C18.419816,1.5 20.7050714,2.52785169 21.6663101,4.00455715 C21.7800336,4.17926511 21.8841053,4.5620901 21.9447836,5.01696111 L21.9633562,5.17106649 C21.9886656,5.40566716 22.0021894,5.65449959 21.9997099,5.90055488 C21.9925846,6.60763155 21.8398416,7.29177512 21.6663101,7.54936157 C20.9677885,8.58623186 19.5938682,9.39491958 18.2500704,9.77042298 L18.25,21.0000585 C18.25,21.8859857 17.591663,22.61815 16.7375152,22.7340251 L16.6789273,22.7409649 C16.6200975,22.7469394 16.5604061,22.75 16.5,22.75 C16.3792502,22.75 16.2613012,22.7377582 16.1473843,22.7144474 L16.090695,22.7018734 C15.475946,22.5545621 14.9873361,22.0828109 14.8160143,21.4777685 C14.7953893,21.4045337 14.779334,21.3295069 14.7682447,21.2528726 C14.7602098,21.1978901 14.7547793,21.1420175 14.7520518,21.0854198 L14.75,21 L14.7500321,9.51212389 C13.4120944,8.80030054 12.5,7.38266107 12.5,5.75 C12.5,3.40278981 14.385175,1.5 16.7106562,1.5 Z M17.25025,10 L15.75025,10 L15.75,20.75 L17.25,20.75 L17.25025,10 Z M8.24975,10 L6.74975,10 L6.75,20.75 L8.24975,20.75 L8.24975,10 Z M7.28934375,2.5 C6.02280248,2.5 4.43020102,3.18966752 3.54597387,4.09056942 C3.66127059,4.14218061 3.76118621,4.23011331 3.8460655,4.35197659 C4.06657751,4.6685711 4.14240506,5.1879904 4.14240506,5.93047028 C4.14240506,6.6152478 3.92687376,7.21992186 3.57396136,7.472588 C4.47184096,8.33920681 6.04697123,9 7.28934375,9 C9.06044761,9 10.500001,7.54699665 10.500001,5.75 C10.500001,3.95300335 9.06044761,2.5 7.28934375,2.5 Z M16.7106562,2.5 C14.9395524,2.5 13.499999,3.95300335 13.499999,5.75 C13.499999,7.54699665 14.9395524,9 16.7106562,9 C17.9530288,9 19.528159,8.33920681 20.4261506,7.47246887 C20.0731262,7.21992186 19.8575949,6.6152478 19.8575949,5.93047028 C19.8575949,5.1879904 19.9334225,4.6685711 20.1539345,4.35197659 C20.2388138,4.23011331 20.3387294,4.14218061 20.4537052,4.09025826 C19.569799,3.18966752 17.9771975,2.5 16.7106562,2.5 Z M5.875,4.875 C6.35824916,4.875 6.75,5.26675084 6.75,5.75 C6.75,6.23324916 6.35824916,6.625 5.875,6.625 C5.39175084,6.625 5,6.23324916 5,5.75 C5,5.26675084 5.39175084,4.875 5.875,4.875 Z M8.625,4.875 C9.10824916,4.875 9.5,5.26675084 9.5,5.75 C9.5,6.23324916 9.10824916,6.625 8.625,6.625 C8.14175084,6.625 7.75,6.23324916 7.75,5.75 C7.75,5.26675084 8.14175084,4.875 8.625,4.875 Z M18.125,4.875 C18.6082492,4.875 19,5.26675084 19,5.75 C19,6.23324916 18.6082492,6.625 18.125,6.625 C17.6417508,6.625 17.25,6.23324916 17.25,5.75 C17.25,5.26675084 17.6417508,4.875 18.125,4.875 Z M15.375,4.875 C15.8582492,4.875 16.25,5.26675084 16.25,5.75 C16.25,6.23324916 15.8582492,6.625 15.375,6.625 C14.8917508,6.625 14.5,6.23324916 14.5,5.75 C14.5,5.26675084 14.8917508,4.875 15.375,4.875 Z" id="_path-1"/>
    </defs>
    <g id="_Linear/ic_device_earphone_hero" stroke="none" stroke-width="1" fill="none" fill-rule="evenodd">
        <mask id="_mask-2" fill="white">
            <use xlink:href="#_path-1"/>
        </mask>
        <use id="_形状" fill="#000000" fill-rule="nonzero" xlink:href="#_path-1"/>
    </g>
</svg>