<?xml version="1.0" encoding="UTF-8"?>
<svg xmlns="http://www.w3.org/2000/svg" xmlns:xlink="http://www.w3.org/1999/xlink" width="24" height="24" viewBox="0 0 24 24" version="1.1">
    <!-- Generator: Sketch 63.1 (92452) - https://sketch.com -->
    <title>Linear/ic_device_earphone_nile</title>
    <desc>Created with Sketch.</desc>
    <defs>
        <path d="M5.3051072,1 C5.83343672,1 6.36919042,1.2499073 6.80397904,1.68509495 C7.03946929,1.588752 7.29383209,1.52712987 7.55982979,1.50712437 L7.75,1.5 L9,1.5 C10.3254834,1.5 11.4100387,2.53153594 11.4946823,3.83562431 L11.5,4 L11.5,12.25 C11.5,12.9029955 11.0827418,13.4585351 10.5003048,13.6645394 L10.5,20.2613636 C10.5,21.082875 11.1709371,21.75 12,21.75 C12.7802945,21.75 13.4205191,21.1590519 13.4931396,20.4046292 L13.5,20.2613636 L13.499297,17.6643985 C12.9618549,17.4741371 12.5651416,16.9862313 12.5072889,16.3988131 L12.5,16.25 L12.5,8 L12.5053177,7.83562431 C12.5864345,6.58587295 13.585873,5.58643451 14.8356243,5.50531768 L15,5.5 L16.25,5.5 L16.4401702,5.50712437 C16.7061679,5.52712987 16.9605307,5.588752 17.1966704,5.68545729 C17.5825719,5.29830174 18.0487614,5.05782684 18.5186576,5.00916767 L18.6948928,5 L19.3749963,5 C21.0413747,5 22.403121,6.3042815 22.4950531,7.94766912 L22.5,8.125 L22.4990685,8.2020568 C22.4596236,9.83197751 21.1722047,11.1526004 19.5558929,11.2448516 L19.3749959,11.25 L18.6948921,11.25 C18.1661609,11.25 17.6299945,10.9997128 17.1950294,10.5639127 C16.9602461,10.6613113 16.706008,10.72288 16.4401714,10.7428751 L16.25,10.75 L15.5,10.75 L15.5,16.25 L15.4931334,16.39446 C15.4368027,16.9839652 15.0392763,17.4739086 14.5003048,17.6645394 L14.5,20.2613636 C14.5,21.6364393 13.3800761,22.75 12,22.75 C10.6751269,22.75 9.59001015,21.7237425 9.50532061,20.4250629 L9.5,20.2613636 L9.49929704,13.6643985 C8.96052791,13.4736673 8.56318338,12.9838201 8.50686658,12.39446 L8.5,12.25 L8.5,6.75 L7.75,6.75 C7.41506711,6.75 7.09551769,6.6841355 6.80359743,6.56465219 C6.37000545,6.99971276 5.8338391,7.25 5.30510786,7.25 L4.62500406,7.25 C2.92487156,7.25 1.54183733,5.89234495 1.50093146,4.2020568 L1.5,4.125 C1.5,2.39910809 2.89911183,1 4.62500374,1 L5.3051072,1 Z M16.25,6.5 L15,6.5 L14.85554,6.50686658 C14.1424288,6.57500853 13.5750085,7.14242883 13.5068666,7.85553999 L13.5,8 L13.5,16.25 L13.5080557,16.3398756 C13.5450996,16.5439687 13.7060313,16.7049004 13.9101244,16.7419443 L14,16.75 L14,16.75 C14.2479089,16.7475416 14.4501526,16.5712317 14.492035,16.3393356 L14.5,16.25 L14.5,10.75 L14.5067277,10.6333789 C14.5600494,10.174297 14.924297,9.81004937 15.3833789,9.75672773 L15.5,9.75 L16.25,9.75 L16.4107052,9.74149248 C16.4744144,9.73470708 16.5369308,9.72393357 16.5979984,9.70942715 C16.3803137,9.25405032 16.25,8.71748265 16.25,8.125 C16.25,7.53251735 16.3803138,6.99594968 16.5974164,6.54124881 C16.5369343,6.52606828 16.474416,6.51529376 16.410706,6.5085079 L16.25,6.5 Z M9,2.5 L7.75,2.5 C7.63019875,2.5 7.51367778,2.51404453 7.40199373,2.54057694 C7.61968615,2.99594968 7.75,3.53251735 7.75,4.125 C7.75,4.71748265 7.61968628,5.25405032 7.4025839,5.70875119 C7.46306922,5.72393357 7.52558556,5.73470708 7.58929477,5.74149248 L7.75,5.75 L8.5,5.75 C9.01283584,5.75 9.43550716,6.13604019 9.49327227,6.63337887 L9.5,6.75 L9.5,12.25 C9.5,12.5261424 9.72385763,12.75 10,12.75 C10.2454599,12.75 10.4496084,12.5731248 10.4919443,12.3398756 L10.5,12.25 L10.5,4 C10.5,3.22030388 9.90511192,2.57955132 9.14446001,2.50686658 L9,2.5 Z M19.3749984,6 L18.6948928,6 L18.6535886,6.00108572 C18.445107,6.01200279 18.2316786,6.10488258 18.0361963,6.26310902 C17.9884677,6.30131622 17.9392465,6.34631129 17.8907875,6.39631431 L17.7930063,6.50551286 L17.733216,6.58148636 L17.6782011,6.65844469 L17.6032114,6.77655925 L17.5552234,6.86228292 C17.515742,6.93621629 17.4793449,7.01399833 17.4465374,7.09526333 C17.3225768,7.40166652 17.25,7.74861043 17.25,8.125 C17.25,8.59167014 17.3615686,9.01307478 17.537903,9.35524385 L17.5969824,9.46275759 C17.7226491,9.67766759 17.8746691,9.85611099 18.0398611,9.98790951 C18.2055972,10.122847 18.3843853,10.2096224 18.5620632,10.2389351 L18.6948921,10.25 L19.4388854,10.2490567 C20.0961182,10.2296244 20.6794966,9.91135549 21.0563626,9.42474804 C20.7848486,9.21276132 20.6111111,8.72305219 20.6111111,8.16319444 C20.6111111,7.57764274 20.8011615,7.06882618 21.0926023,6.87342454 C20.7404963,6.38934504 20.1847914,6.05882539 19.5499928,6.00710045 L19.3749984,6 Z M5.3051072,2 L4.62500157,2 C3.91792855,2 3.29151335,2.34533782 2.90520498,2.87390707 C3.19883854,3.06882618 3.38888889,3.57764274 3.38888889,4.16319444 C3.38888889,4.72305219 3.21515139,5.21276132 2.94516972,5.42545134 C3.32050336,5.91135549 3.90388179,6.22962435 4.56111465,6.24905672 L5.30510786,6.25 C5.52540489,6.25 5.75296879,6.15658136 5.96049407,5.98956275 C6.07511529,5.89732597 6.18560212,5.78041459 6.28529065,5.64320067 L6.40326248,5.46242659 L6.40326248,5.46242659 L6.49402419,5.29093113 C6.65179015,4.9608366 6.75,4.56284109 6.75,4.125 C6.75,3.82388834 6.70355083,3.54162191 6.62322513,3.28732608 L6.55346262,3.09526333 L6.46907217,2.9083999 L6.46907217,2.9083999 L6.39858519,2.77990003 L6.32168921,2.65840546 L6.22757373,2.53079332 L6.22757373,2.53079332 L6.20673907,2.50522989 C6.13043102,2.41308422 6.04880506,2.3319081 5.96378355,2.26309272 C5.76832144,2.10488258 5.55489299,2.01200279 5.3464114,2.00108572 L5.3051072,2 Z" id="_path-1"/>
    </defs>
    <g id="_Linear/ic_device_earphone_nile" stroke="none" stroke-width="1" fill="none" fill-rule="evenodd">
        <mask id="_mask-2" fill="white">
            <use xlink:href="#_path-1"/>
        </mask>
        <use id="_形状" fill="#000000" fill-rule="nonzero" xlink:href="#_path-1"/>
    </g>
</svg>