<?xml version="1.0" encoding="UTF-8"?>
<svg xmlns="http://www.w3.org/2000/svg" xmlns:xlink="http://www.w3.org/1999/xlink" width="24" height="24" viewBox="0 0 24 24" version="1.1">
    <!-- Generator: Sketch 63.1 (92452) - https://sketch.com -->
    <title>Filled/ic_device_earphone_h2_filled</title>
    <desc>Created with Sketch.</desc>
    <g id="_Filled/ic_device_earphone_h2_filled" stroke="none" stroke-width="1" fill="none" fill-rule="evenodd">
        <path d="M17.75,13.75 L17.75,22.75 C17.75,23.1494202 17.43777,23.4759152 17.0440682,23.4987268 L17,23.5 L15.5002081,23.5 C15.1007879,23.5 14.7742929,23.18777 14.7514813,22.7940682 L14.7502081,22.75 L14.7502081,13.75 L17.75,13.75 Z M9.24975,13.75 L9.25,22.75 C9.25,23.1642136 8.91421356,23.5 8.5,23.5 L7,23.5 C6.58578644,23.5 6.25,23.1642136 6.25,22.75 L6.25,13.75 L9.24975,13.75 Z M14.7500413,10.0732261 C15.4926337,10.5035405 16.3560758,10.75 17.2771874,10.75 C17.3205647,10.75 17.3639797,10.7493195 17.4069809,10.7477184 L17.4313402,10.9022609 L17.4575021,11.0565609 L17.6983683,12.4287388 C17.7258532,12.585316 17.7424065,12.7435677 17.7479285,12.9023468 L17.7495,13 L14.7502081,13 L14.7500413,10.0732261 Z M9.24995934,10.0732261 L9.24975,13 L6.25025,13 L6.25207179,12.9023591 C6.2575945,12.7435692 6.27415012,12.5853069 6.30163872,12.4287193 L6.54251817,11.0565609 C6.56056137,10.9537786 6.57740329,10.8508241 6.59304289,10.7477185 C6.63602155,10.7493195 6.67943654,10.75 6.72281382,10.75 C7.64392521,10.75 8.50736715,10.5035405 9.24995934,10.0732261 Z M6.72281382,1.5 C9.08503852,1.5 11,3.40278981 11,5.75 C11,8.09721019 9.08503852,10 6.72281382,10 C4.93846155,10 3.1241643,8.63096727 2.48279282,7.088127 C2.37787307,6.83573907 2.24684177,6.30610294 2.25,5.75 C2.25320915,5.2051748 2.3884404,4.63379758 2.49507157,4.38264712 C3.14352194,2.85533949 4.94974971,1.5 6.72281382,1.5 Z M17.2771862,1.5 C19.0502503,1.5 20.8564781,2.85533949 21.5049284,4.38264712 C21.6115596,4.63379758 21.7467909,5.2051748 21.75,5.75 C21.7531582,6.30610294 21.6221269,6.83573907 21.5172072,7.088127 C20.8758357,8.63096727 19.0615384,10 17.2771862,10 C14.9149615,10 13,8.09721019 13,5.75 C13,3.40278981 14.9149615,1.5 17.2771862,1.5 Z M3.41666667,4 C3.23257175,4 2.75,4.78350169 2.75,5.75 C2.75,6.71649831 3.23257175,7.5 3.41666667,7.5 C3.47964651,7.5 3.53854688,7.40830209 3.58878809,7.24894967 L3.61134482,7.17068607 C3.61864766,7.14305529 3.62572887,7.11391076 3.63257178,7.08334004 L3.65236893,6.98743687 L3.65236893,6.98743687 L3.6706362,6.88350185 L3.6706362,6.88350185 L3.68727354,6.77206029 L3.68727354,6.77206029 L3.70218089,6.65363749 L3.70218089,6.65363749 L3.71525819,6.52875875 L3.71525819,6.52875875 L3.7264054,6.39794936 L3.7264054,6.39794936 L3.73552244,6.26173463 L3.73552244,6.26173463 L3.74250926,6.12063985 L3.74250926,6.12063985 L3.74726581,5.97519033 C3.74786716,5.95061503 3.7483714,5.92588017 3.74877647,5.9009967 L3.75,5.75 L3.75,5.75 L3.74877647,5.5990033 C3.7483714,5.57411983 3.74786716,5.54938497 3.74726581,5.52480967 L3.74250926,5.37936015 L3.74250926,5.37936015 L3.73552244,5.23826537 L3.73552244,5.23826537 L3.7264054,5.10205064 L3.7264054,5.10205064 L3.71525819,4.97124125 L3.71525819,4.97124125 L3.70218089,4.84636251 L3.70218089,4.84636251 L3.68727354,4.72793971 L3.68727354,4.72793971 L3.6706362,4.61649815 L3.6706362,4.61649815 L3.65236893,4.51256313 L3.65236893,4.51256313 L3.63257178,4.41665996 C3.62572887,4.38608924 3.61864766,4.35694471 3.61134482,4.32931393 L3.58878809,4.25105033 C3.53854688,4.09169791 3.47964651,4 3.41666667,4 Z M20.5833333,4 C20.5203535,4 20.4614531,4.09169791 20.4112119,4.25105033 L20.3886552,4.32931393 C20.3813523,4.35694471 20.3742711,4.38608924 20.3674282,4.41665996 L20.3476311,4.51256313 L20.3476311,4.51256313 L20.3293638,4.61649815 L20.3293638,4.61649815 L20.3127265,4.72793971 L20.3127265,4.72793971 L20.2978191,4.84636251 L20.2978191,4.84636251 L20.2847418,4.97124125 L20.2847418,4.97124125 L20.2735946,5.10205064 L20.2735946,5.10205064 L20.2644776,5.23826537 L20.2644776,5.23826537 L20.2574907,5.37936015 L20.2574907,5.37936015 L20.2527342,5.52480967 C20.2521328,5.54938497 20.2516286,5.57411983 20.2512235,5.5990033 L20.25,5.75 L20.25,5.75 L20.2512235,5.9009967 C20.2516286,5.92588017 20.2521328,5.95061503 20.2527342,5.97519033 L20.2574907,6.12063985 L20.2574907,6.12063985 L20.2644776,6.26173463 L20.2644776,6.26173463 L20.2735946,6.39794936 L20.2735946,6.39794936 L20.2847418,6.52875875 L20.2847418,6.52875875 L20.2978191,6.65363749 L20.2978191,6.65363749 L20.3127265,6.77206029 L20.3127265,6.77206029 L20.3293638,6.88350185 L20.3293638,6.88350185 L20.3476311,6.98743687 L20.3476311,6.98743687 L20.3674282,7.08334004 C20.3742711,7.11391076 20.3813523,7.14305529 20.3886552,7.17068607 L20.4112119,7.24894967 C20.4614531,7.40830209 20.5203535,7.5 20.5833333,7.5 C20.7674282,7.5 21.25,6.71649831 21.25,5.75 C21.25,4.78350169 20.7674282,4 20.5833333,4 Z M8.375,5 C7.89175084,5 7.5,5.39175084 7.5,5.875 C7.5,6.35824916 7.89175084,6.75 8.375,6.75 C8.85824916,6.75 9.25,6.35824916 9.25,5.875 C9.25,5.39175084 8.85824916,5 8.375,5 Z M15.625,5 C15.1417508,5 14.75,5.39175084 14.75,5.875 C14.75,6.35824916 15.1417508,6.75 15.625,6.75 C16.1082492,6.75 16.5,6.35824916 16.5,5.875 C16.5,5.39175084 16.1082492,5 15.625,5 Z M5.375,5.25 C5.02982203,5.25 4.75,5.52982203 4.75,5.875 C4.75,6.22017797 5.02982203,6.5 5.375,6.5 C5.72017797,6.5 6,6.22017797 6,5.875 C6,5.52982203 5.72017797,5.25 5.375,5.25 Z M18.625,5.25 C18.279822,5.25 18,5.52982203 18,5.875 C18,6.22017797 18.279822,6.5 18.625,6.5 C18.970178,6.5 19.25,6.22017797 19.25,5.875 C19.25,5.52982203 18.970178,5.25 18.625,5.25 Z" id="_形状" fill="#000000"/>
        <path d="M9.25,13 L9.25,13.75 L6.25,13.75 L6.25,13 L9.25,13 Z M17.75,13 L17.75,13.75 L14.75,13.75 L14.75,13 L17.75,13 Z" id="_形状" fill="#000000" opacity="0.600000024"/>
        <path d="M3.41666667,4 C3.47964651,4 3.53854688,4.09169791 3.58878809,4.25105033 L3.61134482,4.32931393 C3.61864766,4.35694471 3.62572887,4.38608924 3.63257178,4.41665996 L3.65236893,4.51256313 L3.65236893,4.51256313 L3.6706362,4.61649815 L3.6706362,4.61649815 L3.68727354,4.72793971 L3.68727354,4.72793971 L3.70218089,4.84636251 L3.70218089,4.84636251 L3.71525819,4.97124125 L3.71525819,4.97124125 L3.7264054,5.10205064 L3.7264054,5.10205064 L3.73552244,5.23826537 L3.73552244,5.23826537 L3.74250926,5.37936015 L3.74250926,5.37936015 L3.74726581,5.52480967 C3.74786716,5.54938497 3.7483714,5.57411983 3.74877647,5.5990033 L3.75,5.75 L3.75,5.75 L3.74877647,5.9009967 C3.7483714,5.92588017 3.74786716,5.95061503 3.74726581,5.97519033 L3.74250926,6.12063985 L3.74250926,6.12063985 L3.73552244,6.26173463 L3.73552244,6.26173463 L3.7264054,6.39794936 L3.7264054,6.39794936 L3.71525819,6.52875875 L3.71525819,6.52875875 L3.70218089,6.65363749 L3.70218089,6.65363749 L3.68727354,6.77206029 L3.68727354,6.77206029 L3.6706362,6.88350185 L3.6706362,6.88350185 L3.65236893,6.98743687 L3.65236893,6.98743687 L3.63257178,7.08334004 C3.62572887,7.11391076 3.61864766,7.14305529 3.61134482,7.17068607 L3.58878809,7.24894967 C3.53854688,7.40830209 3.47964651,7.5 3.41666667,7.5 C3.23257175,7.5 2.75,6.71649831 2.75,5.75 C2.75,4.78350169 3.23257175,4 3.41666667,4 Z M20.5833333,4 C20.7674282,4 21.25,4.78350169 21.25,5.75 C21.25,6.71649831 20.7674282,7.5 20.5833333,7.5 C20.5203535,7.5 20.4614531,7.40830209 20.4112119,7.24894967 L20.3886552,7.17068607 C20.3813523,7.14305529 20.3742711,7.11391076 20.3674282,7.08334004 L20.3476311,6.98743687 L20.3476311,6.98743687 L20.3293638,6.88350185 L20.3293638,6.88350185 L20.3127265,6.77206029 L20.3127265,6.77206029 L20.2978191,6.65363749 L20.2978191,6.65363749 L20.2847418,6.52875875 L20.2847418,6.52875875 L20.2735946,6.39794936 L20.2735946,6.39794936 L20.2644776,6.26173463 L20.2644776,6.26173463 L20.2574907,6.12063985 L20.2574907,6.12063985 L20.2527342,5.97519033 C20.2521328,5.95061503 20.2516286,5.92588017 20.2512235,5.9009967 L20.25,5.75 L20.25,5.75 L20.2512235,5.5990033 C20.2516286,5.57411983 20.2521328,5.54938497 20.2527342,5.52480967 L20.2574907,5.37936015 L20.2574907,5.37936015 L20.2644776,5.23826537 L20.2644776,5.23826537 L20.2735946,5.10205064 L20.2735946,5.10205064 L20.2847418,4.97124125 L20.2847418,4.97124125 L20.2978191,4.84636251 L20.2978191,4.84636251 L20.3127265,4.72793971 L20.3127265,4.72793971 L20.3293638,4.61649815 L20.3293638,4.61649815 L20.3476311,4.51256313 L20.3476311,4.51256313 L20.3674282,4.41665996 C20.3742711,4.38608924 20.3813523,4.35694471 20.3886552,4.32931393 L20.4112119,4.25105033 C20.4614531,4.09169791 20.5203535,4 20.5833333,4 Z" id="_形状" fill="#000000" opacity="0.400000006"/>
    </g>
</svg>