<?xml version="1.0" encoding="UTF-8"?>
<svg xmlns="http://www.w3.org/2000/svg" xmlns:xlink="http://www.w3.org/1999/xlink" width="24" height="24" viewBox="0 0 24 24" version="1.1">
    <!-- Generator: Sketch 63.1 (92452) - https://sketch.com -->
    <title>查找耳机/ic_device_earphone_flypods_left</title>
    <desc>Created with Sketch.</desc>
    <defs>
        <path d="M9.55749466,2.07973897 C11.3478113,1.70624143 13.1285735,2.67571245 13.8046727,4.34132709 C13.8469734,4.4167864 13.887328,4.49386045 13.9258178,4.5725649 L13.986317,4.55903118 L13.986317,4.55903118 L14.0729361,4.54259777 L14.0729361,4.54259777 L14.1496124,4.53096855 L14.1496124,4.53096855 L14.1879026,4.52618356 L14.1879026,4.52618356 L14.2754697,4.51769935 L14.2754697,4.51769935 L14.4101814,4.51137388 L14.4918365,4.51148855 L14.5948537,4.5158847 L14.5948537,4.5158847 L14.6774097,4.52286757 L14.6774097,4.52286757 L14.7118927,4.52670528 L14.7118927,4.52670528 L14.8010262,4.53914045 L14.8010262,4.53914045 L14.8462458,4.54685728 L14.8462458,4.54685728 L14.9273962,4.56312496 L14.9273962,4.56312496 L15.0272313,4.58748319 L15.0272313,4.58748319 L15.1097231,4.61132211 L15.1097231,4.61132211 L15.1468597,4.623173 L15.1468597,4.623173 L15.2351213,4.65422979 L15.2351213,4.65422979 L15.2619836,4.6645022 C15.2952938,4.67749216 15.3285905,4.69137757 15.3617212,4.70612832 L15.4536217,4.74955831 C15.4940148,4.76977562 15.5337922,4.79120587 15.5728996,4.81382033 L15.6310515,4.84862656 L16.0334229,5.09776885 L16.097943,5.13890445 C16.2041911,5.20863297 16.3044729,5.28445346 16.3985669,5.36564695 C16.5443902,5.49144211 16.6753084,5.63012068 16.7905528,5.77902106 C17.0470641,6.1105032 17.2259456,6.49265954 17.3180585,6.89598218 C17.4519733,7.48187784 17.4026372,8.11271848 17.1421682,8.69774158 C16.6822693,9.73069132 15.6757885,10.3700685 14.5957598,10.3964727 L14.5235995,10.3973109 C14.3551229,10.3971635 14.185121,10.3820657 14.0153743,10.3511917 L13.9427012,10.3370033 L13.8554583,10.3173813 L13.8554583,10.3173813 L13.7979093,10.3028671 L13.7979093,10.3028671 L13.7249622,10.2826564 L13.2315328,10.1385949 L13.2315328,10.1385949 L13.1425124,10.1089281 L13.1425124,10.1089281 L13.0874604,10.0885152 L13.0874604,10.0885152 L12.9908971,10.0486789 L12.9908971,10.0486789 L12.9227822,10.0173479 L12.9227822,10.0173479 L12.8684029,9.99029732 L12.8684029,9.99029732 L12.8249547,9.96736812 L12.8249547,9.96736812 L12.7673434,9.93501571 L12.7673434,9.93501571 L12.7245182,9.90946569 C12.700687,9.89491649 12.677228,9.87996101 12.6541045,9.86460673 L12.6062118,9.83187765 L12.6062118,9.83187765 L12.548476,9.78997098 L12.548476,9.78997098 L12.4791844,9.73573901 L12.4233227,9.68870452 L12.4233227,9.68870452 L12.3561077,9.62781485 L11.6604237,9.96705535 L11.6010305,9.99743466 C11.0536452,10.2906638 10.7024748,10.852681 10.678907,11.4732119 L10.6776415,11.5399117 L10.6776415,21.3203502 L10.6764866,21.3745726 C10.6488846,22.0212957 10.1298882,22.5407699 9.48336183,22.5691305 L9.42764145,22.5703502 L8.69862274,22.5703502 L8.64440033,22.5691953 C7.99767722,22.5415934 7.4782031,22.022597 7.44984244,21.3760706 L7.44862274,21.3203502 L7.44862274,11.9735371 L7.44689683,11.679781 C7.43194088,10.4070464 7.31980888,9.13731106 7.1114792,7.88165356 L7.06169592,7.59214139 L6.80513765,6.15089123 L6.7919339,6.07158566 C6.50530207,4.2223314 7.71643921,2.4638217 9.55749466,2.07973897 Z M9.17915645,3.25632947 L9.17378102,3.2587713 C8.2180014,3.7221971 7.63280216,4.75507397 7.76991875,5.84563233 L7.78013381,5.91841606 L7.79155948,5.98665977 L8.04621884,7.41688556 L8.09798926,7.7179529 C8.29797144,8.92329051 8.41273647,10.1411954 8.44144421,11.3626094 L8.44682779,11.6680307 L8.44860548,11.9676619 L8.44862274,21.3203502 L8.45021404,21.3486525 C8.46282913,21.4601735 8.5490585,21.5500261 8.65907137,21.5673219 L8.68704124,21.5701049 L8.71991682,21.570577 L9.42764145,21.5703502 L9.4559437,21.5687589 C9.56746479,21.5561438 9.6573173,21.4699145 9.67461319,21.3599016 L9.67739611,21.3319317 L9.6778682,21.2990561 L9.67764145,11.5399117 L9.6787975,11.4600063 C9.70436269,10.5769776 10.1524418,9.76494094 10.8732124,9.2712963 C9.54531193,9.00924114 8.68632864,7.6993699 8.63645437,5.71173148 C8.61000244,4.65754296 8.79512704,3.81996343 9.17915645,3.25632947 Z M14.4698612,5.51151022 L14.4297647,5.51142957 L14.37527,5.51312171 L14.37527,5.51312171 L14.3152976,5.51832568 L14.3152976,5.51832568 L14.2480442,5.52718475 L14.2480442,5.52718475 L14.2608339,5.52534332 C13.8700101,5.5844525 13.5150805,5.82757335 13.3277958,6.2041315 L13.3046866,6.25319641 L12.7577407,7.48165697 C12.7347635,7.53326453 12.7153112,7.58637034 12.6995176,7.64060917 C12.5594386,8.12167236 12.7216457,8.61904517 13.0745417,8.92944037 L13.1177973,8.96577729 L13.1598472,8.99805049 C13.1961474,9.02469849 13.2340937,9.04951354 13.2735902,9.07232085 L13.3339857,9.10500414 L13.3878364,9.1306504 C13.4236834,9.14668272 13.4605796,9.16115624 13.4984665,9.17396459 L13.5502039,9.19023264 L14.0045917,9.32254413 C14.2920312,9.40624256 14.5851358,9.41761464 14.8631777,9.36627416 C15.4508242,9.25773255 15.9711992,8.86905325 16.2285681,8.29099333 C16.4314729,7.83526167 16.4375899,7.3360138 16.2773053,6.89518125 L16.253704,6.83366526 L16.253704,6.83366526 L16.2243474,6.76497813 L16.2243474,6.76497813 L16.2163537,6.7475122 C16.2036543,6.72012461 16.1903022,6.69306631 16.1762874,6.66632298 L16.1405151,6.60129746 L16.1405151,6.60129746 L16.130739,6.58452979 C16.1162777,6.55996052 16.1012152,6.53571405 16.0855788,6.51179417 C16.0649178,6.48025984 16.043302,6.44929189 16.0207061,6.41894431 L15.9750473,6.36005315 L15.9750473,6.36005315 L15.9220472,6.29748007 L15.9220472,6.29748007 L15.8491317,6.21966168 L15.8491317,6.21966168 L15.8660923,6.23701716 C15.8363457,6.2062694 15.8054175,6.17643007 15.7733298,6.14757085 L15.7086023,6.09196998 L15.6831054,6.07146331 L15.6259454,6.02802788 L15.6259454,6.02802788 L15.555,5.97875 L15.47525,5.928 L15.1046671,5.69885107 C15.0726472,5.67902486 15.0397559,5.66066092 15.006095,5.64381316 L14.9549846,5.61967378 L14.9265159,5.60740729 L14.9265159,5.60740729 L14.8754374,5.58742039 L14.8435189,5.57616836 L14.7886503,5.55906395 L14.7308475,5.54397262 L14.6661605,5.53053562 L14.6393272,5.52624563 C14.5828324,5.51739736 14.5262204,5.51253293 14.4698612,5.51151022 Z M10.3466328,3.00028995 L10.3083652,3.01112684 C9.50861603,3.25424406 9.11426724,4.14967651 9.13453785,5.60913098 L9.13629704,5.69918932 C9.18320888,7.56876628 9.97640665,8.68505907 11.151372,8.8085529 L11.2247095,8.81443152 C11.3988638,8.82417713 11.5884531,8.80564044 11.7854032,8.76062219 C11.6268232,8.32595701 11.60021,7.83902292 11.7393937,7.36103429 C11.7678222,7.26340438 11.8028363,7.16781393 11.8441952,7.07492033 L12.3911411,5.84645976 C12.533864,5.52589894 12.7423371,5.25514854 12.9936079,5.04301923 L12.9204179,4.82901384 C12.5214218,3.72235705 11.4818388,3.00882719 10.3466328,3.00028995 Z" id="_path-1"/>
    </defs>
    <g id="_查找耳机/ic_device_earphone_flypods_left" stroke="none" stroke-width="1" fill="none" fill-rule="evenodd">
        <mask id="_mask-2" fill="white">
            <use xlink:href="#_path-1"/>
        </mask>
        <use id="_形状" fill="#000000" fill-rule="nonzero" xlink:href="#_path-1"/>
    </g>
</svg>