<?xml version="1.0" encoding="UTF-8"?>
<svg xmlns="http://www.w3.org/2000/svg" xmlns:xlink="http://www.w3.org/1999/xlink" width="24" height="24" viewBox="0 0 24 24" version="1.1">
    <!-- Generator: Sketch 63.1 (92452) - https://sketch.com -->
    <title>查找耳机/ic_device_earphone_otter_left</title>
    <desc>Created with Sketch.</desc>
    <defs>
        <path d="M7.60569763,4.24733121 C8.52854964,3.08572484 10.2495983,2.52264692 11.6983597,2.83541983 C13.0771238,3.13308105 14.0201023,3.97559778 14.8791575,5.40431859 L14.9554641,5.533074 C15.1617825,5.57062352 15.3603247,5.64063615 15.5463355,5.7456621 L15.6252732,5.79282432 L15.6627498,5.81766429 L15.7118863,5.85434433 L15.7435144,5.88224766 L15.8044094,5.94044019 L15.8774864,6.01365832 L16.0001942,6.14038875 L16.2696177,6.42481702 L16.4161604,6.57676069 L16.4888173,6.65408817 C17.155976,7.37646533 17.5150933,8.11852758 17.4995136,8.99568827 C17.4700651,10.653682 16.0804197,12.0285867 14.3876022,11.9995483 C14.292137,11.9979107 14.1778594,11.9879866 14.0513538,11.9715663 L13.9740358,11.9609488 L13.8118599,11.9353803 L13.7276342,11.920601 L13.5544873,11.8874822 L13.4344079,11.8620537 L13.25,11.8205 L13.25,20.2043987 L13.2488484,20.2642117 C13.2205248,20.9987099 12.6728044,21.6114547 11.9453026,21.7104238 C11.7514359,21.7367977 11.4559707,21.75 11.2618013,21.75 C11.0711691,21.75 10.7470596,21.7372743 10.5574594,21.7118414 C9.82875436,21.6140934 9.27955531,21.0008519 9.25115474,20.2653395 L9.25,20.2054431 L9.24978883,10.5219401 C8.59710816,10.2414842 8.06555418,9.8172384 7.58041108,9.1923774 C6.41459354,7.6908124 6.52542979,5.607079 7.60569763,4.24733121 Z M10.2625433,10.8288885 L10.2625433,20.2652561 L10.264074,20.3050084 C10.2823343,20.5413162 10.4620264,20.688499 10.6983631,20.7202011 C10.7894828,20.7324238 10.9296285,20.7408233 11.0576537,20.7454041 L11.2015527,20.7490684 C11.2232618,20.7493737 11.2435077,20.7495264 11.2618013,20.7495264 C11.2991035,20.7495264 11.3432604,20.7488917 11.3908494,20.7476219 L11.5404899,20.7419066 C11.6425509,20.7368256 11.7446497,20.729202 11.819405,20.7190322 C12.0546237,20.6870332 12.23346,20.5359974 12.2526047,20.3056723 L12.2543044,20.2642117 L12.2545,11.53275 L12.1600423,11.5005189 C12.0464956,11.4579322 11.9391641,11.4046577 11.8392816,11.3417624 L11.7657858,11.2928037 L11.7051004,11.2480434 L11.7025741,11.2469637 L11.6437306,11.1978109 C11.5670377,11.130565 11.4973927,11.0565344 11.4346534,10.9763313 C11.0604471,10.9513501 10.7163287,10.9119594 10.3976023,10.8545876 L10.2625433,10.8288885 Z M11.25,19.25 C11.5261424,19.25 11.75,19.4738576 11.75,19.75 C11.75,20.0261424 11.5261424,20.25 11.25,20.25 C10.9738576,20.25 10.75,20.0261424 10.75,19.75 C10.75,19.4738576 10.9738576,19.25 11.25,19.25 Z M15.0230703,6.52056244 C14.3778165,6.21058075 13.2730824,6.70241709 12.5514804,7.77687525 C11.8014306,8.89369195 11.7919855,10.2296761 12.3757066,10.5786289 L12.4093799,10.5973187 L12.4275679,10.6062926 L12.4701464,10.6252755 L12.5704036,10.6640843 L12.6938702,10.7061618 L12.748846,10.7236623 L12.8846163,10.7645918 L13.0319334,10.806132 L13.1876941,10.8474446 L13.3487955,10.8876916 L13.5121346,10.9260347 L13.6746084,10.9616358 L13.8331137,10.9936567 L14.0164254,11.0266257 L14.1673739,11.0493779 L14.2232085,11.056411 C14.2957211,11.0649461 14.3602688,11.0700495 14.41408,11.0709726 C14.5868935,11.073937 14.7555812,11.0549996 14.9173111,11.0167745 C14.6802429,10.7125705 14.7715747,10.1062928 15.125636,9.54013807 C15.5298456,8.89379453 16.1428675,8.51339502 16.5428881,8.72125412 C16.4859108,8.22270554 16.2360602,7.76516141 15.7975491,7.28826274 L15.7267433,7.21279331 L15.6055059,7.08862502 L15.1218026,6.5812973 L15.106426,6.56697092 L15.0644919,6.54191768 L15.0230703,6.52056244 Z M11.4830644,3.81041519 C10.4030032,3.57724091 9.07680487,4.01113508 8.39938305,4.86381513 C7.59274694,5.87913895 7.5086036,7.46104288 8.38099221,8.58467344 C9.02213721,9.41046381 9.76812339,9.79320457 11.0290731,9.93850952 C11.0147196,9.84764576 11.0050069,9.75444803 11.0018257,9.66102686 C10.9789162,8.98826464 11.1716606,8.23737695 11.5776405,7.53495428 C12.0321085,6.74863799 12.7040586,6.12571922 13.4088554,5.78847411 L13.4935769,5.74938376 L13.7120053,5.6694714 L13.7372178,5.66094966 L13.8350079,5.63128576 C13.1624988,4.59760344 12.4610197,4.02154586 11.4830644,3.81041519 Z M8.38781514,5.28795615 C8.71268021,4.74728988 9.37528993,4.53436961 9.8751594,4.83472148 C10.3750289,5.13507336 10.4981078,5.82008303 10.1732428,6.36074931 C9.8483777,6.90141558 9.18576798,7.11433585 8.68589851,6.81398398 C8.18602904,6.5136321 8.06295006,5.82862243 8.38781514,5.28795615 Z M9.61764036,5.26330513 C9.36814559,5.11339355 9.00612053,5.22972519 8.81639879,5.54547519 C8.62667705,5.86122519 8.69392278,6.23548874 8.94341755,6.38540032 C9.19291232,6.53531191 9.55493738,6.41898027 9.74465912,6.10323027 C9.93438086,5.78748027 9.86713513,5.41321672 9.61764036,5.26330513 Z" id="_path-1"/>
    </defs>
    <g id="_查找耳机/ic_device_earphone_otter_left" stroke="none" stroke-width="1" fill="none" fill-rule="evenodd">
        <mask id="_mask-2" fill="white">
            <use xlink:href="#_path-1"/>
        </mask>
        <use id="_形状" fill="#000000" fill-rule="nonzero" xlink:href="#_path-1"/>
    </g>
</svg>