<?xml version="1.0" encoding="UTF-8"?>
<svg xmlns="http://www.w3.org/2000/svg" xmlns:xlink="http://www.w3.org/1999/xlink" width="24" height="24" viewBox="0 0 24 24" version="1.1">
    <!-- Generator: Sketch 63.1 (92452) - https://sketch.com -->
    <title>Linear/ic_device_earphone_otter</title>
    <desc>Created with Sketch.</desc>
    <defs>
        <path d="M10.6443024,4.24733121 C11.7245702,5.607079 11.8354065,7.6908124 10.6695889,9.1923774 C10.1844458,9.8172384 9.65289184,10.2414842 9.00021117,10.5219401 L9,20.2054431 C9,20.9673272 8.44094037,21.6114516 7.69254063,21.7118414 C7.50294036,21.7372743 7.17883091,21.75 6.9881987,21.75 C6.79402926,21.75 6.49856412,21.7367977 6.30469739,21.7104238 C5.57719564,21.6114547 5.02947519,20.9987099 5.00115161,20.2642117 L5,20.2043987 L5,11.8205 L4.81559209,11.8620537 L4.69551275,11.8874822 L4.52236584,11.920601 L4.43814007,11.9353803 L4.27596419,11.9609488 C4.11860418,11.9836856 3.97695604,11.9975832 3.86239777,11.9995483 C2.16958032,12.0285867 0.77993492,10.653682 0.750486447,8.99568827 C0.734906748,8.11852758 1.09402401,7.37646533 1.76118266,6.65408817 L1.83383964,6.57676069 L1.98038233,6.42481702 L2.24980582,6.14038875 L2.37251359,6.01365832 L2.44559059,5.94044019 L2.50648561,5.88224766 L2.53811369,5.85434433 L2.58725017,5.81766429 L2.62472677,5.79282432 C2.83310761,5.66130228 3.05874342,5.57598774 3.2945359,5.533074 L3.30961935,5.50736758 C4.18524099,4.0160265 5.14004848,3.14016822 6.55164031,2.83541983 C8.00040166,2.52264692 9.72145036,3.08572484 10.6443024,4.24733121 Z M13.3556976,4.24733121 C14.2785496,3.08572484 15.9995983,2.52264692 17.4483597,2.83541983 C18.8271238,3.13308105 19.7701023,3.97559778 20.6291575,5.40431859 L20.7054641,5.533074 C20.9117825,5.57062352 21.1103247,5.64063615 21.2963355,5.7456621 L21.3752732,5.79282432 L21.4127498,5.81766429 L21.4618863,5.85434433 L21.4935144,5.88224766 L21.5544094,5.94044019 L21.6274864,6.01365832 L21.7501942,6.14038875 L22.0196177,6.42481702 L22.1661604,6.57676069 L22.2388173,6.65408817 C22.905976,7.37646533 23.2650933,8.11852758 23.2495136,8.99568827 C23.2200651,10.653682 21.8304197,12.0285867 20.1376022,11.9995483 C20.042137,11.9979107 19.9278594,11.9879866 19.8013538,11.9715663 L19.7240358,11.9609488 L19.5618599,11.9353803 L19.4776342,11.920601 L19.3044873,11.8874822 L19.1844079,11.8620537 L19,11.8205 L19,20.2043987 L18.9988484,20.2642117 C18.9705248,20.9987099 18.4228044,21.6114547 17.6953026,21.7104238 C17.5014359,21.7367977 17.2059707,21.75 17.0118013,21.75 C16.8211691,21.75 16.4970596,21.7372743 16.3074594,21.7118414 C15.5787544,21.6140934 15.0295553,21.0008519 15.0011547,20.2653395 L15,20.2054431 L14.9997888,10.5219401 C14.3471082,10.2414842 13.8155542,9.8172384 13.3304111,9.1923774 C12.1645935,7.6908124 12.2754298,5.607079 13.3556976,4.24733121 Z M7.98745667,10.8288885 C7.6313768,10.9004108 7.24301097,10.9477814 6.81534657,10.9763313 C6.75260727,11.0565344 6.68296231,11.130565 6.60626935,11.1978109 L6.54742591,11.2469637 L6.54489956,11.2480434 L6.48421418,11.2928037 C6.36411328,11.3773525 6.23189106,11.4472855 6.08995768,11.5005189 L5.9955,11.53275 L5.99569559,20.2642117 C5.99569559,20.5178166 6.18153991,20.6851509 6.43059498,20.7190322 C6.50535029,20.729202 6.60744905,20.7368256 6.70951007,20.7419066 L6.85915064,20.7476219 C6.90673963,20.7488917 6.95089653,20.7495264 6.9881987,20.7495264 L7.04844729,20.7490684 L7.04844729,20.7490684 L7.19234633,20.7454041 C7.32037152,20.7408233 7.46051717,20.7324238 7.55163688,20.7202011 C7.78797364,20.688499 7.96766572,20.5413162 7.985926,20.3050084 L7.98745667,20.2652561 L7.98745667,10.8288885 Z M16.0125433,10.8288885 L16.0125433,20.2652561 L16.014074,20.3050084 C16.0323343,20.5413162 16.2120264,20.688499 16.4483631,20.7202011 C16.5394828,20.7324238 16.6796285,20.7408233 16.8076537,20.7454041 L16.9515527,20.7490684 C16.9732618,20.7493737 16.9935077,20.7495264 17.0118013,20.7495264 C17.0491035,20.7495264 17.0932604,20.7488917 17.1408494,20.7476219 L17.2904899,20.7419066 C17.3925509,20.7368256 17.4946497,20.729202 17.569405,20.7190322 C17.8046237,20.6870332 17.98346,20.5359974 18.0026047,20.3056723 L18.0043044,20.2642117 L18.0045,11.53275 L17.9100423,11.5005189 C17.7964956,11.4579322 17.6891641,11.4046577 17.5892816,11.3417624 L17.5157858,11.2928037 L17.4551004,11.2480434 L17.4525741,11.2469637 L17.3937306,11.1978109 C17.3170377,11.130565 17.2473927,11.0565344 17.1846534,10.9763313 C16.8104471,10.9513501 16.4663287,10.9119594 16.1476023,10.8545876 L16.0125433,10.8288885 Z M7,19.25 C7.27614237,19.25 7.5,19.4738576 7.5,19.75 C7.5,20.0261424 7.27614237,20.25 7,20.25 C6.72385763,20.25 6.5,20.0261424 6.5,19.75 C6.5,19.4738576 6.72385763,19.25 7,19.25 Z M17,19.25 C17.2761424,19.25 17.5,19.4738576 17.5,19.75 C17.5,20.0261424 17.2761424,20.25 17,20.25 C16.7238576,20.25 16.5,20.0261424 16.5,19.75 C16.5,19.4738576 16.7238576,19.25 17,19.25 Z M3.22692975,6.52056244 L3.18550807,6.54191768 L3.14357395,6.56697092 L3.12819742,6.5812973 L2.64449412,7.08862502 L2.52325669,7.21279331 C2.04077415,7.71711246 1.76708804,8.19646614 1.70711192,8.72125412 C2.10713247,8.51339502 2.72015439,8.89379453 3.124364,9.54013807 C3.47842527,10.1062928 3.56975713,10.7125705 3.33268892,11.0167745 C3.49441878,11.0549996 3.66310651,11.073937 3.83592003,11.0709726 C3.88973118,11.0700495 3.9542789,11.0649461 4.02679151,11.056411 L4.08262606,11.0493779 L4.23357459,11.0266257 L4.41688625,10.9936567 L4.57539164,10.9616358 L4.73786538,10.9260347 L4.90120446,10.8876916 L5.06230588,10.8474446 L5.21806662,10.806132 L5.36538366,10.7645918 L5.501154,10.7236623 L5.55612982,10.7061618 L5.67959643,10.6640843 L5.77985358,10.6252755 L5.82243208,10.6062926 L5.84062009,10.5973187 C6.45810726,10.2801686 6.46272127,8.91476396 5.69851958,7.77687525 C4.9926046,6.72577487 3.92003438,6.23224028 3.2696543,6.50148078 L3.22692975,6.52056244 Z M20.7730703,6.52056244 C20.1278165,6.21058075 19.0230824,6.70241709 18.3014804,7.77687525 C17.5514306,8.89369195 17.5419855,10.2296761 18.1257066,10.5786289 L18.1593799,10.5973187 L18.1775679,10.6062926 L18.2201464,10.6252755 L18.3204036,10.6640843 L18.4438702,10.7061618 L18.498846,10.7236623 L18.6346163,10.7645918 L18.7819334,10.806132 L18.9376941,10.8474446 L19.0987955,10.8876916 L19.2621346,10.9260347 L19.4246084,10.9616358 L19.5831137,10.9936567 L19.7664254,11.0266257 L19.9173739,11.0493779 L19.9732085,11.056411 C20.0457211,11.0649461 20.1102688,11.0700495 20.16408,11.0709726 C20.3368935,11.073937 20.5055812,11.0549996 20.6673111,11.0167745 C20.4302429,10.7125705 20.5215747,10.1062928 20.875636,9.54013807 C21.2798456,8.89379453 21.8928675,8.51339502 22.2928881,8.72125412 C22.2359108,8.22270554 21.9860602,7.76516141 21.5475491,7.28826274 L21.4767433,7.21279331 L21.3555059,7.08862502 L20.8718026,6.5812973 L20.856426,6.56697092 L20.8144919,6.54191768 L20.7730703,6.52056244 Z M6.76693562,3.81041519 C5.78898026,4.02154586 5.0875012,4.59760344 4.41499208,5.63128576 L4.51278224,5.66094966 L4.53799469,5.6694714 L4.75642311,5.74938376 C5.49183743,6.07614716 6.19971279,6.71718534 6.6723595,7.53495428 C7.07833941,8.23737695 7.27108385,8.98826464 7.24817433,9.66102686 C7.24499307,9.75444803 7.23528037,9.84764576 7.22092691,9.93850952 C8.48187661,9.79320457 9.22786279,9.41046381 9.86900779,8.58467344 C10.7413964,7.46104288 10.6572531,5.87913895 9.85061695,4.86381513 C9.17319513,4.01113508 7.84699681,3.57724091 6.76693562,3.81041519 Z M17.2330644,3.81041519 C16.1530032,3.57724091 14.8268049,4.01113508 14.1493831,4.86381513 C13.3427469,5.87913895 13.2586036,7.46104288 14.1309922,8.58467344 C14.7721372,9.41046381 15.5181234,9.79320457 16.7790731,9.93850952 C16.7647196,9.84764576 16.7550069,9.75444803 16.7518257,9.66102686 C16.7289162,8.98826464 16.9216606,8.23737695 17.3276405,7.53495428 C17.7821085,6.74863799 18.4540586,6.12571922 19.1588554,5.78847411 L19.2435769,5.74938376 L19.4620053,5.6694714 L19.4872178,5.66094966 L19.5850079,5.63128576 C18.9124988,4.59760344 18.2110197,4.02154586 17.2330644,3.81041519 Z M9.86218486,5.28795615 C10.1870499,5.82862243 10.063971,6.5136321 9.56410149,6.81398398 C9.06423202,7.11433585 8.4016223,6.90141558 8.07675723,6.36074931 C7.75189215,5.82008303 7.87497113,5.13507336 8.3748406,4.83472148 C8.87471007,4.53436961 9.53731979,4.74728988 9.86218486,5.28795615 Z M14.1378151,5.28795615 C14.4626802,4.74728988 15.1252899,4.53436961 15.6251594,4.83472148 C16.1250289,5.13507336 16.2481078,5.82008303 15.9232428,6.36074931 C15.5983777,6.90141558 14.935768,7.11433585 14.4358985,6.81398398 C13.936029,6.5136321 13.8129501,5.82862243 14.1378151,5.28795615 Z M8.63235964,5.26330513 C8.38286487,5.41321672 8.31561914,5.78748027 8.50534088,6.10323027 C8.69506262,6.41898027 9.05708768,6.53531191 9.30658245,6.38540032 C9.55607722,6.23548874 9.62332295,5.86122519 9.43360121,5.54547519 C9.24387947,5.22972519 8.88185441,5.11339355 8.63235964,5.26330513 Z M15.3676404,5.26330513 C15.1181456,5.11339355 14.7561205,5.22972519 14.5663988,5.54547519 C14.376677,5.86122519 14.4439228,6.23548874 14.6934175,6.38540032 C14.9429123,6.53531191 15.3049374,6.41898027 15.4946591,6.10323027 C15.6843809,5.78748027 15.6171351,5.41321672 15.3676404,5.26330513 Z" id="_path-1"/>
    </defs>
    <g id="_Linear/ic_device_earphone_otter" stroke="none" stroke-width="1" fill="none" fill-rule="evenodd">
        <mask id="_mask-2" fill="white">
            <use xlink:href="#_path-1"/>
        </mask>
        <use id="_形状" fill="#000000" fill-rule="nonzero" xlink:href="#_path-1"/>
    </g>
</svg>