<?xml version="1.0" encoding="UTF-8"?>
<svg xmlns="http://www.w3.org/2000/svg" xmlns:xlink="http://www.w3.org/1999/xlink" width="24" height="24" viewBox="0 0 24 24" version="1.1">
    <!-- Generator: Sketch 63.1 (92452) - https://sketch.com -->
    <title>查找耳机/ic_device_earphone_mermaid_left</title>
    <desc>Created with Sketch.</desc>
    <defs>
        <path d="M10.5367778,4.25 C11.9540683,4.25 13.3716295,5.42753824 14.5860721,7.14353329 C15.01353,7.10632998 15.4280891,7.19217394 15.7935192,7.42202482 C15.8193211,7.43825391 15.8443265,7.45562369 15.8688706,7.47427744 C15.9215632,7.51432429 16.0474112,7.64218835 16.1769209,7.77753731 L16.482152,8.09978991 L16.6032032,8.22486695 C17.3345569,8.99046303 17.7363399,9.77931908 17.7363399,10.7263899 C17.7363399,12.4547977 16.3628486,13.9125 14.6592626,13.9125 C14.371045,13.9125 13.911158,13.8378052 13.459323,13.7356082 L13.3691166,13.7148161 L13.3691898,18.3589992 L13.3680635,18.4143559 C13.3411407,19.0748399 12.8347028,19.6138398 12.1884692,19.6694839 L12.1327434,19.6730612 L12.0779116,19.6742213 L9.96060666,19.6742213 L9.90577487,19.6730612 C9.25182931,19.6453329 8.72795092,19.1239093 8.67390208,18.4706628 L8.67042785,18.4143559 L8.66930149,18.3589992 L8.66902266,11.8813527 C7.36397946,11.1627005 6.56588147,9.94141944 6.50389755,8.4831786 L6.50094303,8.38978015 L6.5,8.29896062 L6.50074803,8.22022796 C6.5425748,6.02075381 8.33317472,4.25 10.5367778,4.25 Z M9.66883729,12.321527 L9.66930149,18.3589992 L9.67084277,18.3917678 C9.68408394,18.5315507 9.78112051,18.6411972 9.90287323,18.6679513 L9.93138187,18.6726298 L9.96060666,18.6742213 L12.0779116,18.6742213 L12.1071344,18.6726299 C12.2323309,18.6589417 12.3373529,18.5583079 12.363133,18.4234624 L12.3676488,18.3917609 L12.3691898,18.3589888 L12.3692414,13.4191061 C12.3099974,13.3955498 12.2583562,13.3726967 12.2159578,13.3509773 C11.9345759,13.2068344 11.7138224,12.9925713 11.5517338,12.7287423 L11.5124327,12.6617643 L10.9065558,12.5907527 L10.7052568,12.565045 L10.5782939,12.5476569 C10.3996922,12.5222749 10.2735616,12.4998051 10.1888254,12.4770219 C10.0371677,12.4362453 9.89768837,12.3956784 9.76610819,12.3534956 L9.66883729,12.321527 Z M15.2219452,8.24542218 C14.5854648,7.89438628 13.471328,8.41770764 12.7627141,9.55920032 C12.0282341,10.7423601 12.0567307,12.1458364 12.6718851,12.4609603 C12.9641899,12.6106987 14.2037819,12.9125 14.6592626,12.9125 C14.8299188,12.9125 14.996118,12.8900589 15.1551101,12.8479139 C14.9157385,12.5393899 14.995272,11.9145607 15.3348798,11.3263428 C15.7225888,10.6548111 16.3211038,10.2529727 16.7196552,10.4595863 C16.651244,9.92119187 16.3726514,9.43326971 15.8874939,8.92336626 L15.7656292,8.79786617 L15.2792137,8.28489161 L15.2637826,8.27043604 L15.2219452,8.24542218 Z M10.5367778,5.25 C10.129227,5.25 9.74039045,5.33061996 9.38512244,5.47680684 C9.63519811,5.49572219 9.87651423,5.57454183 10.0915863,5.71960974 C10.8804219,6.25168609 10.9751975,7.44495795 10.342965,8.38228111 C9.71073257,9.31960428 8.5688466,9.67873738 7.78001098,9.14666103 C7.70413241,9.09548029 7.63467572,9.03818175 7.57183774,8.97550937 C7.75395473,9.8059789 8.27610495,10.4957029 9.06687047,10.9574807 L9.14962907,11.0044341 L9.24417163,11.05475 L9.25942461,11.0607684 L9.31165129,11.0857813 L9.39905132,11.1303207 C9.65986838,11.2600646 9.91119041,11.3561329 10.2327268,11.4507532 L10.3426154,11.4822838 L10.448476,11.5113192 L10.4821103,11.5190581 L10.5927506,11.5385765 C10.6388369,11.5459101 10.6938415,11.5540244 10.7569002,11.5627786 L11.0294371,11.5983313 L11.2197296,11.6209908 C11.1590149,10.8084617 11.398177,9.86127497 11.9131077,9.03178305 C12.3554074,8.31929093 12.9458432,7.76998632 13.5702116,7.45000225 C12.5760916,6.13293338 11.4640442,5.25 10.5367778,5.25 Z M9.81198981,6.13412853 C9.27544474,5.77222431 8.43314946,6.03713352 7.943151,6.76358611 C7.45315254,7.49003871 7.52306236,8.37023803 8.05960743,8.73214225 C8.5961525,9.09404647 9.43844778,8.82913726 9.92844624,8.10268466 C10.4184447,7.37623207 10.3485349,6.49603275 9.81198981,6.13412853 Z" id="_path-1"/>
    </defs>
    <g id="_查找耳机/ic_device_earphone_mermaid_left" stroke="none" stroke-width="1" fill="none" fill-rule="evenodd">
        <mask id="_mask-2" fill="white">
            <use xlink:href="#_path-1"/>
        </mask>
        <use id="_形状" fill="#000000" fill-rule="nonzero" xlink:href="#_path-1"/>
    </g>
</svg>