<?xml version="1.0" encoding="UTF-8"?>
<svg xmlns="http://www.w3.org/2000/svg" xmlns:xlink="http://www.w3.org/1999/xlink" width="24" height="24" viewBox="0 0 24 24" version="1.1">
    <!-- Generator: Sketch 63.1 (92452) - https://sketch.com -->
    <title>Filled/ic_device_earphone_hero_filled</title>
    <desc>Created with Sketch.</desc>
    <g id="_Filled/ic_device_earphone_hero_filled" stroke="none" stroke-width="1" fill="none" fill-rule="evenodd">
        <path d="M9.25,10.25 L9.24989255,21 L6.00006383,21 L6,10.5144083 C6.43846832,10.608674 6.87369787,10.6591619 7.28946414,10.6591619 C7.9859423,10.6591619 8.64873377,10.5132871 9.25,10.25 Z M14.7502064,10.25 C15.3514344,10.5132871 16.0141838,10.6591619 16.7106177,10.6591619 C17.0801643,10.6591619 17.4650883,10.6192702 17.8539954,10.5441996 L18,10.5144083 L17.9996862,21 L14.75,21 L14.7502064,10.25 Z M7.28934375,1.5 C9.61482498,1.5 11.5,3.40278981 11.5,5.75 C11.5,8.09721019 9.61482498,10 7.28934375,10 C5.60106403,10 3.30901196,8.99710851 2.3336899,7.54936157 C2.16015837,7.29177512 2.00741545,6.60763155 2.00029012,5.90055488 C1.99781059,5.65449959 2.01133436,5.40566716 2.03664376,5.17106649 L2.05521641,5.01696111 C2.11589473,4.5620901 2.21996644,4.17926511 2.3336899,4.00455715 C3.29492863,2.52785169 5.580184,1.5 7.28934375,1.5 Z M16.7106562,1.5 C18.419816,1.5 20.7050714,2.52785169 21.6663101,4.00455715 C21.7800336,4.17926511 21.8841053,4.5620901 21.9447836,5.01696111 L21.9633562,5.17106649 C21.9886656,5.40566716 22.0021894,5.65449959 21.9997099,5.90055488 C21.9925846,6.60763155 21.8398416,7.29177512 21.6663101,7.54936157 C20.690988,8.99710851 18.398936,10 16.7106562,10 C14.385175,10 12.5,8.09721019 12.5,5.75 C12.5,3.40278981 14.385175,1.5 16.7106562,1.5 Z M3.11076307,4.30946938 C2.72928674,4.41236453 2.5,5.14753431 2.5,5.93047028 C2.5,6.71340625 2.8117058,7.34810127 3.19620597,7.34810127 C3.58070615,7.34810127 3.89240506,6.71340625 3.89240506,5.93047028 C3.89240506,5.38311622 3.84805169,4.79224284 3.64092196,4.49486161 C3.51819968,4.31866621 3.36415712,4.24112171 3.11076307,4.30946938 Z M20.359078,4.49486161 C20.1519483,4.79224284 20.1075949,5.38311622 20.1075949,5.93047028 C20.1075949,6.71340625 20.4192939,7.34810127 20.803794,7.34810127 C21.1882942,7.34810127 21.5,6.71340625 21.5,5.93047028 C21.5,5.14753431 21.2707133,4.41236453 20.8892369,4.30946938 C20.6358429,4.24112171 20.4818003,4.31866621 20.359078,4.49486161 Z M15.3792419,4.8800354 C14.8959928,4.8800354 14.5042419,5.27178624 14.5042419,5.7550354 C14.5042419,6.23828456 14.8959928,6.6300354 15.3792419,6.6300354 C15.8624911,6.6300354 16.2542419,6.23828456 16.2542419,5.7550354 C16.2542419,5.27178624 15.8624911,4.8800354 15.3792419,4.8800354 Z M18.1292419,4.8800354 C17.6459928,4.8800354 17.2542419,5.27178624 17.2542419,5.7550354 C17.2542419,6.23828456 17.6459928,6.6300354 18.1292419,6.6300354 C18.6124911,6.6300354 19.0042419,6.23828456 19.0042419,5.7550354 C19.0042419,5.27178624 18.6124911,4.8800354 18.1292419,4.8800354 Z M8.6229248,4.86981201 C8.13967565,4.86981201 7.7479248,5.26156286 7.7479248,5.74481201 C7.7479248,6.22806117 8.13967565,6.61981201 8.6229248,6.61981201 C9.10617396,6.61981201 9.4979248,6.22806117 9.4979248,5.74481201 C9.4979248,5.26156286 9.10617396,4.86981201 8.6229248,4.86981201 Z M5.8729248,4.86981201 C5.38967565,4.86981201 4.9979248,5.26156286 4.9979248,5.74481201 C4.9979248,6.22806117 5.38967565,6.61981201 5.8729248,6.61981201 C6.35617396,6.61981201 6.7479248,6.22806117 6.7479248,5.74481201 C6.7479248,5.26156286 6.35617396,4.86981201 5.8729248,4.86981201 Z" id="_形状" fill="#000000"/>
        <path d="M3.11076307,4.30946938 C3.36415712,4.24112171 3.51819968,4.31866621 3.64092196,4.49486161 C3.84805169,4.79224284 3.89240506,5.38311622 3.89240506,5.93047028 C3.89240506,6.71340625 3.58070615,7.34810127 3.19620597,7.34810127 C2.8117058,7.34810127 2.5,6.71340625 2.5,5.93047028 C2.5,5.14753431 2.72928674,4.41236453 3.11076307,4.30946938 Z M20.8892369,4.30946938 C21.2707133,4.41236453 21.5,5.14753431 21.5,5.93047028 C21.5,6.71340625 21.1882942,7.34810127 20.803794,7.34810127 C20.4192939,7.34810127 20.1075949,6.71340625 20.1075949,5.93047028 C20.1075949,5.38311622 20.1519483,4.79224284 20.359078,4.49486161 C20.4818003,4.31866621 20.6358429,4.24112171 20.8892369,4.30946938 Z" id="_形状" fill="#000000" opacity="0.400000006"/>
        <path d="M9.25,21 L9.25,21.875 C9.25,22.7724627 8.52246272,23.5 7.625,23.5 C6.72753728,23.5 6,22.7724627 6,21.875 L6,21 L9.25,21 Z M18,21 L18,21.875 C18,22.7724627 17.2724627,23.5 16.375,23.5 C15.4970473,23.5 14.7817124,22.8037509 14.7510258,21.9332835 L14.75,21.875 L14.75,21 L18,21 Z" id="_形状" fill="#000000" opacity="0.6"/>
    </g>
</svg>