<?xml version="1.0" encoding="UTF-8"?>
<svg xmlns="http://www.w3.org/2000/svg" xmlns:xlink="http://www.w3.org/1999/xlink" width="24" height="24" viewBox="0 0 24 24" version="1.1">
    <!-- Generator: Sketch 63.1 (92452) - https://sketch.com -->
    <title>查找耳机/ic_device_earphone_otter_right</title>
    <desc>Created with Sketch.</desc>
    <defs>
        <path d="M16.6443024,4.24733121 C17.7245702,5.607079 17.8354065,7.6908124 16.6695889,9.1923774 C16.1844458,9.8172384 15.6528918,10.2414842 15.0002112,10.5219401 L15,20.2054431 C15,20.9673272 14.4409404,21.6114516 13.6925406,21.7118414 C13.5029404,21.7372743 13.1788309,21.75 12.9881987,21.75 C12.7940293,21.75 12.4985641,21.7367977 12.3046974,21.7104238 C11.5771956,21.6114547 11.0294752,20.9987099 11.0011516,20.2642117 L11,20.2043987 L11,11.8205 L10.8155921,11.8620537 L10.6955127,11.8874822 L10.5223658,11.920601 L10.4381401,11.9353803 L10.2759642,11.9609488 C10.1186042,11.9836856 9.97695604,11.9975832 9.86239777,11.9995483 C8.16958032,12.0285867 6.77993492,10.653682 6.75048645,8.99568827 C6.73490675,8.11852758 7.09402401,7.37646533 7.76118266,6.65408817 L7.83383964,6.57676069 L7.98038233,6.42481702 L8.24980582,6.14038875 L8.37251359,6.01365832 L8.44559059,5.94044019 L8.50648561,5.88224766 L8.53811369,5.85434433 L8.58725017,5.81766429 L8.62472677,5.79282432 C8.83310761,5.66130228 9.05874342,5.57598774 9.2945359,5.533074 L9.30961935,5.50736758 C10.185241,4.0160265 11.1400485,3.14016822 12.5516403,2.83541983 C14.0004017,2.52264692 15.7214504,3.08572484 16.6443024,4.24733121 Z M13.9874567,10.8288885 C13.6313768,10.9004108 13.243011,10.9477814 12.8153466,10.9763313 C12.7526073,11.0565344 12.6829623,11.130565 12.6062694,11.1978109 L12.5474259,11.2469637 L12.5448996,11.2480434 L12.4842142,11.2928037 C12.3641133,11.3773525 12.2318911,11.4472855 12.0899577,11.5005189 L11.9955,11.53275 L11.9956956,20.2642117 C11.9956956,20.5178166 12.1815399,20.6851509 12.430595,20.7190322 C12.5053503,20.729202 12.6074491,20.7368256 12.7095101,20.7419066 L12.8591506,20.7476219 C12.9067396,20.7488917 12.9508965,20.7495264 12.9881987,20.7495264 L13.0484473,20.7490684 L13.0484473,20.7490684 L13.1923463,20.7454041 C13.3203715,20.7408233 13.4605172,20.7324238 13.5516369,20.7202011 C13.7879736,20.688499 13.9676657,20.5413162 13.985926,20.3050084 L13.9874567,20.2652561 L13.9874567,10.8288885 Z M13,19.25 C13.2761424,19.25 13.5,19.4738576 13.5,19.75 C13.5,20.0261424 13.2761424,20.25 13,20.25 C12.7238576,20.25 12.5,20.0261424 12.5,19.75 C12.5,19.4738576 12.7238576,19.25 13,19.25 Z M9.22692975,6.52056244 L9.18550807,6.54191768 L9.14357395,6.56697092 L9.12819742,6.5812973 L8.64449412,7.08862502 L8.52325669,7.21279331 C8.04077415,7.71711246 7.76708804,8.19646614 7.70711192,8.72125412 C8.10713247,8.51339502 8.72015439,8.89379453 9.124364,9.54013807 C9.47842527,10.1062928 9.56975713,10.7125705 9.33268892,11.0167745 C9.49441878,11.0549996 9.66310651,11.073937 9.83592003,11.0709726 C9.88973118,11.0700495 9.9542789,11.0649461 10.0267915,11.056411 L10.0826261,11.0493779 L10.2335746,11.0266257 L10.4168863,10.9936567 L10.5753916,10.9616358 L10.7378654,10.9260347 L10.9012045,10.8876916 L11.0623059,10.8474446 L11.2180666,10.806132 L11.3653837,10.7645918 L11.501154,10.7236623 L11.5561298,10.7061618 L11.6795964,10.6640843 L11.7798536,10.6252755 L11.8224321,10.6062926 L11.8406201,10.5973187 C12.4581073,10.2801686 12.4627213,8.91476396 11.6985196,7.77687525 C10.9926046,6.72577487 9.92003438,6.23224028 9.2696543,6.50148078 L9.22692975,6.52056244 Z M12.7669356,3.81041519 C11.7889803,4.02154586 11.0875012,4.59760344 10.4149921,5.63128576 L10.5127822,5.66094966 L10.5379947,5.6694714 L10.7564231,5.74938376 C11.4918374,6.07614716 12.1997128,6.71718534 12.6723595,7.53495428 C13.0783394,8.23737695 13.2710838,8.98826464 13.2481743,9.66102686 C13.2449931,9.75444803 13.2352804,9.84764576 13.2209269,9.93850952 C14.4818766,9.79320457 15.2278628,9.41046381 15.8690078,8.58467344 C16.7413964,7.46104288 16.6572531,5.87913895 15.8506169,4.86381513 C15.1731951,4.01113508 13.8469968,3.57724091 12.7669356,3.81041519 Z M15.8621849,5.28795615 C16.1870499,5.82862243 16.063971,6.5136321 15.5641015,6.81398398 C15.064232,7.11433585 14.4016223,6.90141558 14.0767572,6.36074931 C13.7518922,5.82008303 13.8749711,5.13507336 14.3748406,4.83472148 C14.8747101,4.53436961 15.5373198,4.74728988 15.8621849,5.28795615 Z M14.6323596,5.26330513 C14.3828649,5.41321672 14.3156191,5.78748027 14.5053409,6.10323027 C14.6950626,6.41898027 15.0570877,6.53531191 15.3065825,6.38540032 C15.5560772,6.23548874 15.623323,5.86122519 15.4336012,5.54547519 C15.2438795,5.22972519 14.8818544,5.11339355 14.6323596,5.26330513 Z" id="_path-1"/>
    </defs>
    <g id="_查找耳机/ic_device_earphone_otter_right" stroke="none" stroke-width="1" fill="none" fill-rule="evenodd">
        <mask id="_mask-2" fill="white">
            <use xlink:href="#_path-1"/>
        </mask>
        <use id="_形状" fill="#000000" fill-rule="nonzero" xlink:href="#_path-1"/>
    </g>
</svg>