<?xml version="1.0" encoding="UTF-8"?>
<svg xmlns="http://www.w3.org/2000/svg" xmlns:xlink="http://www.w3.org/1999/xlink" width="24" height="24" viewBox="0 0 24 24" version="1.1">
    <!-- Generator: Sketch 63.1 (92452) - https://sketch.com -->
    <title>查找耳机/ic_device_earphone_flypods_right</title>
    <desc>Created with Sketch.</desc>
    <defs>
        <path d="M14.5826533,2.07973923 C16.4237088,2.46382195 17.6348459,4.22233165 17.3482141,6.07158592 L17.3350103,6.15089149 L17.0784521,7.59214165 C16.8381652,8.94198517 16.7093575,10.309144 16.6932511,11.6797812 L16.6915252,11.9735374 L16.6915252,21.3203505 C16.6915252,21.9925391 16.1609486,22.540805 15.4957476,22.5691956 L15.4415252,22.5703505 L14.7125065,22.5703505 C14.0403178,22.5703505 13.492052,22.0397738 13.4636614,21.3745729 L13.4625065,21.3203505 L13.4625065,11.5399119 C13.4625065,10.8931682 13.1060523,10.3011365 12.5391175,9.99743491 L12.4797243,9.96705561 L11.7840402,9.62781511 C11.7622593,9.6483762 11.740038,9.66852765 11.7173855,9.68825308 L11.654386,9.74110402 L11.654386,9.74110402 L11.5774442,9.80056724 L11.5774442,9.80056724 L11.5155698,9.84463786 L11.5155698,9.84463786 L11.4347715,9.89764892 L11.4347715,9.89764892 L11.3727968,9.93502044 L11.3727968,9.93502044 L11.3238019,9.96266007 L11.3238019,9.96266007 L11.2807538,9.98565632 L11.2807538,9.98565632 L11.2065518,10.0225053 L11.2065518,10.0225053 L11.1242765,10.0594847 L11.1242765,10.0594847 L11.0526025,10.0885388 L11.0526025,10.0885388 L10.998813,10.1085086 L10.998813,10.1085086 L10.9477711,10.1260461 L10.9088326,10.1385269 L10.9088326,10.1385269 L10.4151311,10.2826683 C10.3233574,10.3093915 10.2312078,10.3313162 10.1389681,10.3485747 C9.96437528,10.3812245 9.78965669,10.3971597 9.61654843,10.3973111 C8.50936189,10.3982912 7.46809862,9.75364601 6.9979798,8.69774184 C6.47781067,7.52942285 6.79968214,6.17837437 7.74152647,5.36565881 C7.77211612,5.33929858 7.8033028,5.31351579 7.83513356,5.28832341 C7.89243128,5.24296073 7.95176495,5.19955664 8.01312109,5.15822044 L8.10667046,5.09778072 L8.50904186,4.84863842 C8.59549551,4.79510763 8.68547855,4.74749908 8.77837215,4.70614018 C8.80949712,4.69229516 8.8407134,4.67922281 8.8720547,4.66690349 L8.95385092,4.63655067 L8.95385092,4.63655067 L9.03567733,4.60970231 L9.13414867,4.581896 L9.13414867,4.581896 L9.21376149,4.56290376 L9.21376149,4.56290376 L9.3048968,4.54489274 L9.3048968,4.54489274 L9.33872277,4.53920517 L9.33872277,4.53920517 L9.3954254,4.53085625 L9.3954254,4.53085625 L9.47374358,4.52175848 L9.47374358,4.52175848 L9.57985126,4.51387564 L9.57985126,4.51387564 L9.64847164,4.51147512 L9.64847164,4.51147512 L9.75693014,4.5119775 L9.75693014,4.5119775 L9.86459225,4.51769326 L9.86459225,4.51769326 L9.95226178,4.52618612 L9.95226178,4.52618612 L10.0008111,4.53237077 L10.0008111,4.53237077 L10.0926963,4.54706377 L10.0926963,4.54706377 C10.1332704,4.5544358 10.1736386,4.5629006 10.2137178,4.57245522 C10.2528872,4.49173116 10.2943589,4.41257421 10.3377864,4.33522946 C11.0158621,2.67338036 12.794492,1.70669133 14.5826533,2.07973923 Z M14.9621447,3.25672919 L14.966761,3.26366441 C15.3468292,3.82720281 15.5299444,4.66162272 15.5036268,5.71045684 C15.4537369,7.69871893 14.5942301,9.00878843 13.265527,9.27076797 C13.987122,9.76388285 14.4357686,10.5764024 14.4613505,11.4600066 L14.4625065,11.5399119 L14.4622798,21.2990564 L14.4627519,21.331932 C14.4680057,21.4550319 14.5633898,21.5550928 14.6842043,21.5687592 L14.7125065,21.5703505 L15.4202311,21.5705772 L15.4531067,21.5701051 C15.5762067,21.5648513 15.6762676,21.4694672 15.6899339,21.3486527 L15.6915252,21.3203505 L15.6915425,11.9676622 L15.6933202,11.668031 C15.7088758,10.3442671 15.8255113,9.02373557 16.0421587,7.71795316 L16.0939291,7.41688582 L16.3485885,5.98666002 L16.3600142,5.91841631 C16.533421,4.7996527 15.9416863,3.7294184 14.9621447,3.25672919 Z M9.71021142,5.51112952 L9.67028679,5.51151048 C9.63737592,5.51210769 9.6043788,5.51401491 9.57136917,5.51726044 L9.52185455,5.52313601 L9.47154272,5.53119109 L9.44659762,5.53578694 L9.38905813,5.54892197 L9.33256692,5.56465508 L9.29503668,5.57674805 L9.26151084,5.58858114 C9.23586919,5.59807036 9.21040904,5.60843395 9.1851634,5.61967403 C9.15075837,5.63499214 9.11707199,5.65185338 9.08420613,5.67020384 L9.03553547,5.69883972 L8.5885,5.97625 L8.56506425,5.99217619 C8.53477214,6.01278583 8.50525048,6.03416677 8.4765119,6.05627795 L8.41854658,6.10272024 L8.41854658,6.10272024 L8.36898872,6.1456189 L8.36898872,6.1456189 L8.33638703,6.1755595 C8.30543964,6.20466552 8.27562954,6.23470468 8.246978,6.26560796 L8.21327455,6.30290789 L8.21327455,6.30290789 L8.16512245,6.36009642 C8.07325847,6.47365804 7.99575271,6.59690408 7.9335076,6.72690433 L7.89786308,6.80603836 L7.89786308,6.80603836 C7.86943042,6.87323586 7.84495833,6.94207281 7.82457633,7.01211362 L7.80965724,7.06664946 C7.78271157,7.17095545 7.76475069,7.27765713 7.7561429,7.38551904 L7.75144651,7.46661372 C7.74504936,7.64398975 7.76395816,7.82364682 7.80978804,8.0001669 C7.82785473,8.07004303 7.85024497,8.13949658 7.8769669,8.20813638 C7.8878374,8.23590366 7.89935125,8.26352765 7.91157987,8.29099359 C8.18731912,8.91031409 8.76495011,9.31225401 9.40378836,9.38518028 L9.46379681,9.39106141 C9.6570273,9.4067784 9.85511473,9.39241413 10.0515097,9.34493089 L10.1355563,9.32254439 L10.5899441,9.1902329 L10.6416814,9.17396485 L10.6855901,9.15821171 L10.6855901,9.15821171 L10.7285723,9.14097433 L10.7843386,9.11577969 C10.846321,9.08592592 10.9049979,9.05134103 10.9600508,9.01260531 L11.0138839,8.97250746 C11.402361,8.66647237 11.5873827,8.14459058 11.4406303,7.64060943 C11.4301013,7.6044502 11.4179461,7.56879455 11.4042045,7.53375067 L11.3824073,7.48165723 L10.8354614,6.25319666 L10.8123521,6.20413176 C10.6442408,5.86612402 10.3410531,5.63563064 9.99807668,5.54922911 L9.92981933,5.53404306 L9.92981933,5.53404306 L9.87928722,5.52516592 L9.82420503,5.51803084 L9.76540319,5.51342443 L9.76540319,5.51342443 L9.71021142,5.51112952 Z M13.797845,3.00001312 L13.7324741,3.00142976 C12.6211909,3.03457233 11.6115634,3.74222371 11.2197301,4.8290141 L11.1465401,5.04301949 C11.3749681,5.23586431 11.5680261,5.47715632 11.7084695,5.76027593 L11.7490069,5.84646002 L12.2959528,7.07492059 C12.3373117,7.16781418 12.3723257,7.26340464 12.4007542,7.36103455 C12.5398043,7.83856402 12.5133757,8.32502177 12.3551587,8.75903734 C12.524572,8.79810651 12.6884212,8.81721058 12.8415906,8.81559105 L12.9172617,8.81305081 L12.9887091,8.80727826 C14.1430611,8.68595098 14.9289233,7.60635424 15.0006279,5.79561661 L15.0037841,5.69791467 L15.0055433,5.60785633 C15.0260981,4.12794363 14.6203279,3.22797639 13.797845,3.00001312 Z" id="_path-1"/>
    </defs>
    <g id="_查找耳机/ic_device_earphone_flypods_right" stroke="none" stroke-width="1" fill="none" fill-rule="evenodd">
        <mask id="_mask-2" fill="white">
            <use xlink:href="#_path-1"/>
        </mask>
        <use id="_形状" fill="#000000" fill-rule="nonzero" xlink:href="#_path-1"/>
    </g>
</svg>