<?xml version="1.0" encoding="UTF-8"?>
<svg xmlns="http://www.w3.org/2000/svg" xmlns:xlink="http://www.w3.org/1999/xlink" width="24" height="24" viewBox="0 0 90 80" version="1.1">
    <title>battery/icon/ic_battery_earphone_case03</title>
    <defs>
        <path d="M4,38 L31,38 C31,39.0543618 31.8158778,39.9181651 32.8507377,39.9945143 L33,40 L56,40 C57.0543618,40 57.9181651,39.1841222 57.9945143,38.1492623 L58,38 L86,38 L86,45.6166888 L85.9953815,46.433452 L85.9953815,46.433452 L85.9815657,47.1965455 C85.9784999,47.3194218 85.9750534,47.4401867 85.9712274,47.5589026 L85.9437273,48.2471098 L85.9437273,48.2471098 L85.9071787,48.8891381 L85.9071787,48.8891381 L85.8616412,49.4879837 C85.8032937,50.1626124 85.7267155,50.7551938 85.6323318,51.2871389 L85.547081,51.7287415 C85.5172172,51.8713253 85.4859098,52.0094587 85.4531688,52.1436409 L85.3506546,52.5348334 C85.3150562,52.6616127 85.2780341,52.7849402 85.2395981,52.9053153 L85.1200588,53.2580828 L85.1200588,53.2580828 L84.9920962,53.5961322 L84.9920962,53.5961322 L84.8557699,53.9224598 L84.8557699,53.9224598 L84.7111393,54.2400618 L84.7111393,54.2400618 L84.5582641,54.5519345 L84.5582641,54.5519345 L84.3972038,54.8610742 L84.3972038,54.8610742 C83.3513612,56.8166298 81.8166298,58.3513612 79.8610742,59.3972038 L79.5519345,59.5582641 L79.5519345,59.5582641 L79.2400618,59.7111393 L79.2400618,59.7111393 L78.9224598,59.8557699 L78.9224598,59.8557699 L78.5961322,59.9920962 L78.5961322,59.9920962 L78.2580828,60.1200588 L78.2580828,60.1200588 L77.9053153,60.2395981 C77.7849402,60.2780341 77.6616127,60.3150562 77.5348334,60.3506546 L77.1436409,60.4531688 C77.0094587,60.4859098 76.8713253,60.5172172 76.7287415,60.547081 L76.2871389,60.6323318 C75.831186,60.7132321 75.3306839,60.7810508 74.7721494,60.8355202 L74.1937715,60.8855298 C74.0939847,60.8931198 73.992461,60.9003365 73.8891381,60.9071787 L73.2471098,60.9437273 L73.2471098,60.9437273 L72.5589026,60.9712274 L72.5589026,60.9712274 L71.8215202,60.9896195 C71.6943587,60.9919226 71.5650235,60.9938437 71.433452,60.9953815 L70.6166888,61 L70.6166888,61 L19.3833112,61 L18.566548,60.9953815 L18.566548,60.9953815 L17.8034545,60.9815657 C17.6805782,60.9784999 17.5598133,60.9750534 17.4410974,60.9712274 L16.7528902,60.9437273 L16.7528902,60.9437273 L16.1108619,60.9071787 L16.1108619,60.9071787 L15.5120163,60.8616412 C14.8373876,60.8032937 14.2448062,60.7267155 13.7128611,60.6323318 L13.2712585,60.547081 C13.1286747,60.5172172 12.9905413,60.4859098 12.8563591,60.4531688 L12.4651666,60.3506546 C12.3383873,60.3150562 12.2150598,60.2780341 12.0946847,60.2395981 L11.7419172,60.1200588 L11.7419172,60.1200588 L11.4038678,59.9920962 L11.4038678,59.9920962 L11.0775402,59.8557699 L11.0775402,59.8557699 L10.7599382,59.7111393 L10.7599382,59.7111393 L10.4480655,59.5582641 L10.4480655,59.5582641 L10.1389258,59.3972038 L10.1389258,59.3972038 C8.18337022,58.3513612 6.64863878,56.8166298 5.60279622,54.8610742 L5.4417359,54.5519345 L5.4417359,54.5519345 L5.28886069,54.2400618 L5.28886069,54.2400618 L5.14423015,53.9224598 L5.14423015,53.9224598 L5.0079038,53.5961322 L5.0079038,53.5961322 L4.87994119,53.2580828 L4.87994119,53.2580828 L4.76040186,52.9053153 C4.72196591,52.7849402 4.68494377,52.6616127 4.64934535,52.5348334 L4.5468312,52.1436409 C4.51409016,52.0094587 4.48278277,51.8713253 4.45291896,51.7287415 L4.36766815,51.2871389 C4.28676792,50.831186 4.21894915,50.3306839 4.1644798,49.7721494 L4.11447017,49.1937715 C4.10688017,49.0939847 4.09966347,48.992461 4.09282131,48.8891381 L4.05627272,48.2471098 L4.05627272,48.2471098 L4.0287726,47.5589026 L4.0287726,47.5589026 L4.01038046,46.8215202 C4.00807741,46.6943587 4.00615635,46.5650235 4.0046185,46.433452 L4,45.6166888 L4,45.6166888 L4,38 Z M19.3833112,19 L70.6166888,19 L71.433452,19.0046185 L71.433452,19.0046185 L72.1965455,19.0184343 C72.3194218,19.0215001 72.4401867,19.0249466 72.5589026,19.0287726 L73.2471098,19.0562727 L73.2471098,19.0562727 L73.8891381,19.0928213 L73.8891381,19.0928213 L74.4879837,19.1383588 C75.1626124,19.1967063 75.7551938,19.2732845 76.2871389,19.3676682 L76.7287415,19.452919 C76.8713253,19.4827828 77.0094587,19.5140902 77.1436409,19.5468312 L77.5348334,19.6493454 C77.6616127,19.6849438 77.7849402,19.7219659 77.9053153,19.7604019 L78.2580828,19.8799412 L78.2580828,19.8799412 L78.5961322,20.0079038 L78.5961322,20.0079038 L78.9224598,20.1442301 L78.9224598,20.1442301 L79.2400618,20.2888607 L79.2400618,20.2888607 L79.5519345,20.4417359 L79.5519345,20.4417359 L79.8610742,20.6027962 L79.8610742,20.6027962 C81.8166298,21.6486388 83.3513612,23.1833702 84.3972038,25.1389258 L84.5582641,25.4480655 L84.5582641,25.4480655 L84.7111393,25.7599382 L84.7111393,25.7599382 L84.8557699,26.0775402 L84.8557699,26.0775402 L84.9920962,26.4038678 L84.9920962,26.4038678 L85.1200588,26.7419172 L85.1200588,26.7419172 L85.2395981,27.0946847 C85.2780341,27.2150598 85.3150562,27.3383873 85.3506546,27.4651666 L85.4531688,27.8563591 C85.4859098,27.9905413 85.5172172,28.1286747 85.547081,28.2712585 L85.6323318,28.7128611 C85.7132321,29.168814 85.7810508,29.6693161 85.8355202,30.2278506 L85.8855298,30.8062285 C85.8931198,30.9060153 85.9003365,31.007539 85.9071787,31.1108619 L85.9437273,31.7528902 L85.9437273,31.7528902 L85.9712274,32.4410974 L85.9712274,32.4410974 L85.9896195,33.1784798 C85.9919226,33.3056413 85.9938437,33.4349765 85.9953815,33.566548 L86,34.3833112 L86,34.3833112 L86,35 L4,35 L4,34.3833112 C4,34.101779 4.00154281,33.829691 4.0046185,33.566548 L4.01843431,32.8034545 C4.02150008,32.6805782 4.02494659,32.5598133 4.0287726,32.4410974 L4.05627272,31.7528902 L4.05627272,31.7528902 L4.09282131,31.1108619 L4.09282131,31.1108619 L4.13835881,30.5120163 C4.19670627,29.8373876 4.27328454,29.2448062 4.36766815,28.7128611 L4.45291896,28.2712585 C4.48278277,28.1286747 4.51409016,27.9905413 4.5468312,27.8563591 L4.64934535,27.4651666 C4.68494377,27.3383873 4.72196591,27.2150598 4.76040186,27.0946847 L4.87994119,26.7419172 L4.87994119,26.7419172 L5.0079038,26.4038678 L5.0079038,26.4038678 L5.14423015,26.0775402 L5.14423015,26.0775402 L5.28886069,25.7599382 L5.28886069,25.7599382 L5.4417359,25.4480655 L5.4417359,25.4480655 L5.60279622,25.1389258 L5.60279622,25.1389258 C6.64863878,23.1833702 8.18337022,21.6486388 10.1389258,20.6027962 L10.4480655,20.4417359 L10.4480655,20.4417359 L10.7599382,20.2888607 L10.7599382,20.2888607 L11.0775402,20.1442301 L11.0775402,20.1442301 L11.4038678,20.0079038 L11.4038678,20.0079038 L11.7419172,19.8799412 L11.7419172,19.8799412 L12.0946847,19.7604019 C12.2150598,19.7219659 12.3383873,19.6849438 12.4651666,19.6493454 L12.8563591,19.5468312 C12.9905413,19.5140902 13.1286747,19.4827828 13.2712585,19.452919 L13.7128611,19.3676682 C14.168814,19.2867679 14.6693161,19.2189492 15.2278506,19.1644798 L15.8062285,19.1144702 C15.9060153,19.1068802 16.007539,19.0996635 16.1108619,19.0928213 L16.7528902,19.0562727 L16.7528902,19.0562727 L17.4410974,19.0287726 L17.4410974,19.0287726 L18.1784798,19.0103805 C18.3056413,19.0080774 18.4349765,19.0061563 18.566548,19.0046185 L19.3833112,19 L19.3833112,19 Z" id="_path-1"/>
    </defs>
    <g id="_battery/icon/ic_battery_earphone_case03" stroke="none" stroke-width="1" fill="none" fill-rule="evenodd">
        <mask id="_mask-2" fill="white">
            <use xlink:href="#_path-1"/>
        </mask>
        <use id="_形状" fill="#000000" xlink:href="#_path-1"/>
    </g>
</svg>