<?xml version="1.0" encoding="UTF-8"?>
<svg xmlns="http://www.w3.org/2000/svg" xmlns:xlink="http://www.w3.org/1999/xlink" width="24" height="24" viewBox="0 0 24 24" version="1.1">
    <!-- Generator: Sketch 63.1 (92452) - https://sketch.com -->
    <title>Linear/ic_device_earphone_walrus</title>
    <desc>Created with Sketch.</desc>
    <defs>
        <path d="M8.32236889,2.19941488 C10.1634243,2.5834976 11.3745615,4.3420073 11.0879296,6.19126157 L11.0747259,6.27056714 L10.8181676,7.7118173 C10.5778807,9.06166082 10.4490731,10.4288196 10.4329667,11.7994569 L10.4312408,12.093213 L10.4312408,21.4400261 C10.4312408,22.1122148 9.90066413,22.6604806 9.23546321,22.6888712 L9.18124081,22.6900261 L8.45222209,22.6900261 C7.78003342,22.6900261 7.23176756,22.1594494 7.20337697,21.4942485 L7.20222209,21.4400261 L7.20222209,11.6595876 C7.20222209,11.0128439 6.84576783,10.4208122 6.27883309,10.1171106 L6.21943983,10.0867313 L5.5237558,9.74749076 L5.49075526,9.77802312 L5.49075526,9.77802312 L5.43586158,9.82616132 L5.43586158,9.82616132 L5.39410155,9.86077967 L5.39410155,9.86077967 L5.32581065,9.91381746 L5.32581065,9.91381746 L5.25528541,9.96431351 L5.25528541,9.96431351 L5.17448709,10.0173246 L5.17448709,10.0173246 L5.09705109,10.0636011 L5.09705109,10.0636011 L5.02046937,10.105332 L5.02046937,10.105332 L4.93587298,10.1470753 L4.93587298,10.1470753 L4.8922327,10.1669023 C4.87348401,10.1751983 4.85457832,10.1832449 4.83551707,10.1910506 L4.7602616,10.2203099 L4.7602616,10.2203099 L4.6874867,10.2457218 L4.60923454,10.2700324 L4.15484671,10.4023439 C4.06307297,10.4290672 3.97092338,10.4509918 3.87868369,10.4682503 C3.70409086,10.5009002 3.52937227,10.5168353 3.35626401,10.5169868 C2.24907747,10.5179668 1.2078142,9.87332166 0.737695377,8.81741749 C0.21752625,7.6490985 0.539397714,6.29805002 1.48124205,5.48533446 C1.5118317,5.45897423 1.54301838,5.43319144 1.57484914,5.40799906 C1.63214685,5.36263638 1.69148053,5.31923229 1.75283667,5.27789609 L1.84638604,5.21745637 L2.24875744,4.96831407 C2.33521109,4.91478328 2.42519413,4.86717473 2.51808773,4.82581583 C2.54475481,4.81394288 2.57152939,4.80263057 2.59839824,4.79187381 L2.51814234,4.82580423 L2.56485471,4.8056239 L2.56485471,4.8056239 L2.64519684,4.77373537 L2.64519684,4.77373537 L2.6935665,4.75622632 L2.6935665,4.75622632 L2.78649636,4.72599932 L2.78649636,4.72599932 L2.86172403,4.704739 L2.86172403,4.704739 L2.95347707,4.68257941 L2.95347707,4.68257941 L3.04461238,4.66456839 L3.04461238,4.66456839 L3.13514098,4.6505319 L3.13514098,4.6505319 L3.21345915,4.64143413 L3.21345915,4.64143413 L3.24590527,4.63848981 L3.24590527,4.63848981 L3.31956684,4.63355129 L3.31956684,4.63355129 L3.38818722,4.63115077 L3.38818722,4.63115077 L3.42890369,4.63073284 L3.42890369,4.63073284 L3.51982837,4.63245466 L3.51982837,4.63245466 L3.58181722,4.63573449 L3.58181722,4.63573449 L3.65352875,4.64169478 L3.65352875,4.64169478 L3.74052667,4.65204642 L3.74052667,4.65204642 L3.83241189,4.66673942 L3.83241189,4.66673942 C3.872986,4.67411145 3.91335417,4.68257625 3.95343339,4.69213087 C3.99260276,4.61140681 4.03407447,4.53224986 4.07750197,4.45490511 C4.75557772,2.79305601 6.53420762,1.82636698 8.32236889,2.19941488 Z M15.6776311,2.19941488 C17.4679477,1.82591733 19.24871,2.79538835 19.9248092,4.46100299 C19.9671099,4.5364623 20.0074644,4.61353636 20.0459543,4.6922408 L20.1070022,4.67859132 L20.1070022,4.67859132 L20.1930726,4.66227368 L20.1930726,4.66227368 L20.2687522,4.65077833 L20.2687522,4.65077833 L20.3076185,4.64590905 L20.3076185,4.64590905 L20.3956062,4.63737526 L20.3956062,4.63737526 L20.4567179,4.63348566 L20.4567179,4.63348566 L20.5303179,4.63104978 L20.5711163,4.63073455 L20.5711163,4.63073455 L20.6462453,4.63210115 L20.6462453,4.63210115 L20.697745,4.63449177 L20.697745,4.63449177 L20.7508209,4.63821877 L20.7508209,4.63821877 L20.8318117,4.64635531 L20.8318117,4.64635531 L20.8868751,4.65359598 L20.8868751,4.65359598 L20.9666321,4.66657849 L20.9666321,4.66657849 L21.0476733,4.68283197 L21.0476733,4.68283197 L21.1473678,4.70715909 L21.1473678,4.70715909 L21.2298748,4.73100274 L21.2298748,4.73100274 L21.2681281,4.74322135 L21.2681281,4.74322135 L21.3548001,4.77373353 L21.3548001,4.77373353 L21.3881179,4.78652534 C21.419571,4.79889846 21.4507873,4.81197081 21.4818577,4.82580423 L21.4016018,4.79187381 C21.4284706,4.80263057 21.4552452,4.81394288 21.4819123,4.82581583 C21.5748059,4.86717473 21.6647889,4.91478328 21.7512426,4.96831407 L22.153614,5.21745637 C22.2117763,5.25346961 22.2682409,5.29127056 22.3229737,5.33074888 C22.3577841,5.35588689 22.3918687,5.3816557 22.4252451,5.40807367 C22.919432,5.79916659 23.2583828,6.33264964 23.4137379,6.91649488 L23.4356607,7.00443788 C23.5727185,7.59366196 23.5244025,8.22873592 23.2623046,8.81741749 C22.8024058,9.85036722 21.7959249,10.4897444 20.7158963,10.5161486 L20.643736,10.5169868 C20.4752594,10.5168394 20.3052575,10.5017416 20.1355108,10.4708676 L20.0628376,10.4566792 C19.9901359,10.4415084 19.9175277,10.4234184 19.8451533,10.4023439 L19.3797156,10.2666756 L19.2832182,10.2358285 L19.2832182,10.2358285 L19.2052918,10.2073005 L19.2052918,10.2073005 L19.1148049,10.1700098 L19.1148049,10.1700098 L19.0474621,10.1392 L19.0474621,10.1392 L19.0128601,10.1222942 L19.0128601,10.1222942 L18.9703243,10.1005184 L18.9703243,10.1005184 L18.9029681,10.0635925 L18.9029681,10.0635925 L18.8429562,10.0281021 L18.8429562,10.0281021 L18.8082491,10.0064216 L18.8082491,10.0064216 L18.7446538,9.96427118 L18.7446538,9.96427118 L18.6619933,9.90465706 L18.6619933,9.90465706 L18.5976654,9.85409824 L18.5976654,9.85409824 L18.5427884,9.80779652 L18.5427884,9.80779652 L18.4762442,9.74749076 L17.7805602,10.0867313 L17.7211669,10.1171106 C17.1737816,10.4103397 16.8226112,10.972357 16.7990435,11.5928878 L16.7977779,11.6595876 L16.7977779,21.4400261 L16.796623,21.4942485 C16.7690211,22.1409716 16.2500247,22.6604458 15.6034983,22.6888064 L15.5477779,22.6900261 L14.8187592,22.6900261 L14.7645368,22.6888712 C14.1178137,22.6612693 13.5983396,22.1422729 13.5699789,21.4957465 L13.5687592,21.4400261 L13.5687592,12.093213 L13.5670333,11.7994569 C13.5520773,10.5267223 13.4399453,9.25698696 13.2316157,8.00132947 L13.1818324,7.7118173 L12.9252741,6.27056714 L12.9120704,6.19126157 C12.6254385,4.3420073 13.8365757,2.5834976 15.6776311,2.19941488 Z M8.70186027,3.37640484 L8.70647655,3.38334006 C9.08654479,3.94687846 9.26965994,4.78129837 9.24334236,5.83013249 C9.19345245,7.81839458 8.33394566,9.12846408 7.00524259,9.39044362 C7.72683753,9.8835585 8.17548419,10.6960781 8.20106605,11.5796822 L8.20222209,11.6595876 L8.20199535,21.418732 L8.20246743,21.4516076 C8.20772131,21.5747076 8.30310533,21.6747685 8.42391984,21.6884348 L8.45222209,21.6900261 L9.15994672,21.6902529 L9.19282231,21.6897808 C9.31592228,21.6845269 9.41598315,21.5891429 9.4296495,21.4683284 L9.43124081,21.4400261 L9.43125807,12.0873378 L9.43303575,11.7877066 C9.44859135,10.4639428 9.56522692,9.14341122 9.78187429,7.83762881 L9.8336447,7.53656147 L10.0883041,6.10633567 L10.0997297,6.03809196 C10.2731365,4.91932835 9.68140188,3.84909405 8.70186027,3.37640484 Z M15.2992929,3.37600538 L15.2939175,3.37844721 C14.3381379,3.841873 13.7529386,4.87474987 13.8900552,5.96530823 L13.9002703,6.03809196 L13.9116959,6.10633567 L14.1663553,7.53656147 L14.2181257,7.83762881 C14.4181079,9.04296642 14.5328729,10.2608713 14.5615807,11.4822853 L14.5669642,11.7877066 L14.5687419,12.0873378 L14.5687592,21.4400261 L14.5703505,21.4683284 C14.5829656,21.5798495 14.669195,21.669702 14.7792078,21.6869979 L14.8071777,21.6897808 L14.8400533,21.6902529 L15.5477779,21.6900261 L15.5760802,21.6884348 C15.6876012,21.6758197 15.7774538,21.5895904 15.7947496,21.4795775 L15.7975326,21.4516076 L15.7980047,21.418732 L15.7977779,11.6595876 L15.798934,11.5796822 C15.8244991,10.6966535 16.2725783,9.88461685 16.9933488,9.39097221 C15.6654484,9.12891704 14.8064651,7.81904581 14.7565908,5.83140739 C14.7301389,4.77721887 14.9152635,3.93963934 15.2992929,3.37600538 Z M3.44992699,5.63080517 L3.41000237,5.63118613 C3.3770915,5.63178334 3.34409438,5.63369056 3.31108475,5.63693609 L3.26157013,5.64281166 L3.1863132,5.65546259 L3.15749723,5.66168133 L3.15749723,5.66168133 L3.09263684,5.67842753 L3.03475226,5.6964237 L3.00122642,5.70825679 C2.97558476,5.71774601 2.95012462,5.7281096 2.92487898,5.73934968 C2.89047395,5.75466779 2.85678757,5.77152903 2.82392171,5.78987949 L2.77525105,5.81851537 L2.32821558,6.09592565 L2.30477983,6.11185184 C2.27448772,6.13246148 2.24496605,6.15384242 2.21622748,6.1759536 L2.15826216,6.22239589 L2.15826216,6.22239589 L2.1087043,6.26529455 L2.1087043,6.26529455 L2.07610261,6.29523515 C2.04515521,6.32434117 2.01534512,6.35438033 1.98669358,6.38528361 L1.95299013,6.42258354 L1.95299013,6.42258354 L1.90483803,6.47977207 C1.81297405,6.59333369 1.73546829,6.71657973 1.67322318,6.84657998 L1.63757866,6.92571401 L1.63757866,6.92571401 C1.609146,6.99291151 1.58467391,7.06174846 1.5642919,7.13178927 L1.54937282,7.18632511 C1.52242714,7.2906311 1.50446626,7.39733278 1.49585847,7.50519469 L1.49116209,7.58628937 C1.48476494,7.7636654 1.50367374,7.94332247 1.54950362,8.11984255 C1.56757031,8.18971868 1.58996055,8.25917223 1.61668248,8.32781203 C1.62755298,8.35557931 1.63906683,8.3832033 1.65129545,8.41066924 C1.9270347,9.02998974 2.50466569,9.43192966 3.14350394,9.50485593 L3.20351238,9.51073706 C3.39674288,9.52645405 3.5948303,9.51208978 3.79122527,9.46460654 L3.87527183,9.44222004 L4.32965966,9.30990855 L4.38139701,9.2936405 L4.42530571,9.27788736 L4.42530571,9.27788736 L4.48976604,9.251474 L4.52405416,9.23545534 C4.58603656,9.20560157 4.64471348,9.17101668 4.69976638,9.13228096 L4.75359946,9.09218311 C5.14207659,8.78614802 5.3270983,8.26426623 5.18034592,7.76028508 C5.16981685,7.72412585 5.1576617,7.6884702 5.14392012,7.65342632 L5.12212288,7.60133288 L4.57517699,6.37287231 L4.55206772,6.32380741 C4.38395641,5.98579967 4.08076871,5.75530629 3.73779226,5.66890476 L3.6695349,5.65371871 L3.6695349,5.65371871 L3.6190028,5.64484157 L3.56537025,5.63808756 L3.56537025,5.63808756 L3.50221799,5.63266066 L3.47607789,5.63145606 L3.47607789,5.63145606 L3.44992699,5.63080517 Z M20.5899976,5.63118613 L20.5252983,5.63140799 L20.4667838,5.63506005 L20.4667838,5.63506005 L20.4361473,5.63792578 L20.403998,5.64155869 L20.3809974,5.64501514 C20.3591177,5.64832379 20.3373505,5.65220916 20.3157189,5.65666238 L20.2632487,5.668643 C19.9198448,5.75484008 19.6162136,5.98545776 19.4479323,6.32380741 L19.424823,6.37287231 L18.8778771,7.60133288 C18.8549,7.65294043 18.8354477,7.70604624 18.8196541,7.76028508 C18.679699,8.24092264 18.8414954,8.73784098 19.1937419,9.04829196 L19.2369185,9.08463806 L19.2799837,9.11772639 C19.3060702,9.13687656 19.3330069,9.15508012 19.3607581,9.17227221 L19.4208278,9.20745536 L19.4208278,9.20745536 L19.4544391,9.22484038 L19.5102463,9.25134035 C19.5453793,9.26696944 19.5815164,9.28110275 19.618603,9.2936405 L19.6703403,9.30990855 L20.1247282,9.44222004 C20.3281336,9.50144891 20.5343759,9.52445941 20.73611,9.51465833 L20.796433,9.51072545 C21.4589376,9.45683862 22.0643484,9.0493435 22.3487046,8.41066924 C22.3710302,8.36052496 22.3909735,8.30985384 22.4085747,8.25879167 C22.4245076,8.21277941 22.4384884,8.16638908 22.4505913,8.11978595 C22.5054367,7.9082323 22.5216889,7.69211389 22.5020355,7.48082139 C22.4927747,7.38125891 22.4755415,7.28276796 22.4506272,7.18632511 L22.4357081,7.13178927 L22.4234273,7.09129883 L22.4234273,7.09129883 L22.3958998,7.01063213 L22.3958998,7.01063213 L22.3692655,6.94208746 L22.3692655,6.94208746 L22.3624096,6.92566074 C22.3192665,6.82362559 22.2669519,6.72517977 22.2058773,6.63171792 L22.1588441,6.56320868 L22.1588441,6.56320868 L22.0951838,6.47972905 L22.0521677,6.42847492 L22.0521677,6.42847492 L22.0163516,6.38857605 L21.9810125,6.35132297 L21.9810125,6.35132297 L21.9445373,6.31494832 L21.8969641,6.27040072 L21.8767026,6.25232083 C21.8456553,6.22507543 21.8135496,6.1987345 21.7804042,6.17336063 L21.7383204,6.14206753 L21.7383204,6.14206753 L21.6714656,6.09592565 L21.5952156,6.04767565 L21.2248036,5.81852698 L21.1761329,5.7898911 L21.1261768,5.76347745 L21.075121,5.73934968 L20.9955738,5.7070963 L20.9636554,5.69584427 L20.9074638,5.67836125 L20.8711532,5.66871071 L20.8150254,5.6559235 L20.758437,5.64576118 C20.7022831,5.63701447 20.6460154,5.63220264 20.5899976,5.63118613 Z M16.4667692,3.11996586 L16.4285017,3.13080275 C15.6287525,3.37391997 15.2344037,4.26935241 15.2546743,5.72880688 L15.2564335,5.81886522 C15.3033453,7.68844219 16.0965431,8.80473497 17.2715085,8.92822881 L17.3448459,8.93410743 C17.5190739,8.94385715 17.7087497,8.92530068 17.9057892,8.88024102 C17.7469597,8.44563292 17.7203465,7.95869883 17.8595302,7.4807102 C17.8879587,7.38308029 17.9229728,7.28748983 17.9643317,7.19459624 L18.5112775,5.96613567 C18.6540004,5.64557484 18.8624736,5.37482444 19.1137443,5.16269514 L19.0405544,4.94868975 C18.6415583,3.84203295 17.6019753,3.12850309 16.4667692,3.11996586 Z M7.53756055,3.11968877 L7.47218964,3.12110541 C6.36090651,3.15424798 5.35127903,3.86189936 4.95944564,4.94868975 L4.88625566,5.16269514 C5.11468365,5.35553996 5.30774167,5.59683197 5.4481851,5.87995158 L5.48872245,5.96613567 L6.03566834,7.19459624 C6.07702723,7.28748983 6.11204132,7.38308029 6.14046981,7.4807102 C6.27951983,7.95823967 6.25309128,8.44469742 6.09487429,8.87871299 C6.26428753,8.91778216 6.42813676,8.93688623 6.58130621,8.9352667 L6.65697726,8.93272646 L6.7284247,8.92695391 C7.88277666,8.80562663 8.66863885,7.72602989 8.74034352,5.91529226 L8.74349969,5.81759032 L8.74525888,5.72753198 C8.76581364,4.24761928 8.36004348,3.34765204 7.53756055,3.11968877 Z" id="_path-1"/>
    </defs>
    <g id="_Linear/ic_device_earphone_walrus" stroke="none" stroke-width="1" fill="none" fill-rule="evenodd">
        <mask id="_mask-2" fill="white">
            <use xlink:href="#_path-1"/>
        </mask>
        <use id="_形状" fill="#000000" fill-rule="nonzero" xlink:href="#_path-1"/>
    </g>
</svg>