<?xml version="1.0" encoding="UTF-8"?>
<svg xmlns="http://www.w3.org/2000/svg" xmlns:xlink="http://www.w3.org/1999/xlink" width="24" height="24" viewBox="0 0 24 24" version="1.1">
    <!-- Generator: Sketch 63.1 (92452) - https://sketch.com -->
    <title>查找耳机/ic_device_earphone_h2_right</title>
    <desc>Created with Sketch.</desc>
    <defs>
        <path d="M15.9025701,7.18086065 L15.861,7.27275 L15.8074276,7.38505189 L15.8074276,7.38505189 L15.7783961,7.44215822 L15.7783961,7.44215822 L15.7110454,7.56701731 L15.7110454,7.56701731 L15.6487746,7.67426069 L15.6487746,7.67426069 L15.5771347,7.78937687 L15.5771347,7.78937687 L15.5332172,7.85611408 L15.5332172,7.85611408 L15.4731958,7.9431305 L15.4731958,7.9431305 C15.4322077,8.00099889 15.3899005,8.05768077 15.3462327,8.11325571 L15.3055577,8.16421673 L15.3055577,8.16421673 L15.2302814,8.2545028 L15.2302814,8.2545028 L15.1510363,8.34436228 L15.1510363,8.34436228 L15.1311562,8.36612837 C15.0778703,8.42406387 15.0231126,8.48041 14.9668369,8.53522319 L14.9248621,8.57555641 L14.9248621,8.57555641 L14.8575383,8.6380201 L14.8575383,8.6380201 L14.8164062,8.67489243 C14.7876292,8.7003575 14.7584813,8.72546085 14.7289924,8.75017517 L14.6610047,8.80597974 L14.6610047,8.80597974 L14.5722744,8.87540366 L14.5722744,8.87540366 L14.4942399,8.93344011 L14.4942399,8.93344011 C14.4607933,8.95773106 14.4270049,8.98153313 14.3928587,9.0048553 L14.3929556,21.5 C14.3929732,22.3095992 13.7515849,22.9693979 12.9492134,22.9989766 L12.8929672,23 L12.3929672,23 C11.5645401,23 10.8929672,22.3284271 10.8929672,21.5 L10.8929672,12.513965 C10.8929672,12.3201625 10.907052,12.1266162 10.9351102,11.9348555 L11.1429672,10.5142806 C11.1836885,10.2359757 11.219314,9.95702211 11.2498339,9.67756004 L11.18975,9.66525 L11.1087385,9.64733332 L11.1087385,9.64733332 L10.9892319,9.61755433 L10.9892319,9.61755433 L10.886114,9.58872922 L10.886114,9.58872922 L10.8093091,9.56567522 L10.8093091,9.56567522 L10.7091335,9.53307627 L10.7091335,9.53307627 L10.6116002,9.49889552 L10.6116002,9.49889552 C10.5345609,9.47101234 10.4581321,9.44092432 10.3823704,9.40881674 L10.2749975,9.36169947 L10.1614617,9.3086022 L10.1614617,9.3086022 L10.0674857,9.26192337 L10.0674857,9.26192337 L9.94044229,9.1948163 L9.94044229,9.1948163 L9.8360887,9.13625866 L9.8360887,9.13625866 L9.76811551,9.09640775 L9.66311931,9.03205033 L9.66311931,9.03205033 L9.52683568,8.94334242 L9.52683568,8.94334242 L9.49428744,8.92126985 C9.46814573,8.90342157 9.44214285,8.88530788 9.41630754,8.86696945 L9.30032796,8.78228455 L9.30032796,8.78228455 L9.16774579,8.67950524 L9.16774579,8.67950524 L9.09685054,8.62176134 L9.09685054,8.62176134 L9.00337346,8.54250078 L9.00337346,8.54250078 L8.9327289,8.48011671 L8.9327289,8.48011671 L8.86241002,8.41576695 C8.84604653,8.40052709 8.8297103,8.38511543 8.81348547,8.3696138 L8.72989116,8.28796408 L8.72989116,8.28796408 L8.63391327,8.18958513 L8.63391327,8.18958513 L8.58173482,8.13386027 L8.58173482,8.13386027 L8.48669002,8.0279339 L8.48669002,8.0279339 L8.3837282,7.90606824 L8.3837282,7.90606824 L8.30790105,7.81098176 L8.30790105,7.81098176 L8.25320072,7.73923597 L8.25320072,7.73923597 C8.22372294,7.6998078 8.19500562,7.66013013 8.1670244,7.62016118 C8.12942875,7.56645948 8.09315788,7.51222506 8.0582764,7.45752357 L7.98761191,7.34286378 L7.98761191,7.34286378 L7.95156509,7.28111902 L7.95156509,7.28111902 L7.89391123,7.17700359 L7.89391123,7.17700359 L7.83589927,7.06435583 C7.79882557,6.98946139 7.76444575,6.91400439 7.73290289,6.838127 C7.62798314,6.58573907 7.49695184,6.05610294 7.5,5.5 C7.50331922,4.9551748 7.63855047,4.38379758 7.74518165,4.13264712 C8.39363201,2.60533949 10.1998598,1.25 11.9729239,1.25 C14.3351486,1.25 16.2501101,3.15278981 16.2501101,5.5 L16.2496162,5.56525158 L16.2496162,5.56525158 L16.2458799,5.69072653 L16.2458799,5.69072653 L16.2400302,5.79408366 L16.2344645,5.86607519 L16.2247924,5.96509448 L16.2247924,5.96509448 L16.2020305,6.13935889 L16.2020305,6.13935889 L16.1790281,6.27573182 L16.1790281,6.27573182 L16.1621587,6.36162622 L16.1621587,6.36162622 C16.1554213,6.39413978 16.1482979,6.42657069 16.1408042,6.45886091 L16.1271296,6.51596699 L16.1271296,6.51596699 L16.0923489,6.64764016 L16.0923489,6.64764016 L16.060752,6.75440245 L16.0410021,6.81632266 L16.0410021,6.81632266 L15.9940591,6.95179265 L15.9940591,6.95179265 L15.9591517,7.04387225 L15.9287866,7.11908282 C15.9202067,7.13975792 15.9114673,7.16035103 15.9025701,7.18086065 Z M13.39275,13.5 L11.89275,13.5 L11.8929672,21.5 C11.8929672,21.7761424 12.1168248,22 12.3929672,22 L12.8929672,22 C13.1565577,22 13.3725085,21.7960347 13.3915958,21.5373198 L13.392963,21.5 L13.39275,13.5 Z M13.3929663,9.51015947 C13.0313866,9.63657338 12.6475595,9.71607033 12.2488863,9.74129621 L12.2439233,9.78612377 C12.2226921,9.98053277 12.1990953,10.1746809 12.1731377,10.3685251 L12.1324315,10.659058 L11.9245744,12.0796329 C11.9087917,12.1874983 11.898904,12.296117 11.8949466,12.4050051 L11.893,12.5 L13.39275,12.5 L13.3929663,9.51015947 Z M13.0179672,4.75 C13.5012164,4.75 13.8929672,5.14175084 13.8929672,5.625 C13.8929672,6.10824916 13.5012164,6.5 13.0179672,6.5 C12.5347181,6.5 12.1429672,6.10824916 12.1429672,5.625 C12.1429672,5.14175084 12.5347181,4.75 13.0179672,4.75 Z M10.7679672,5 C11.1131452,5 11.3929672,5.27982203 11.3929672,5.625 C11.3929672,5.97017797 11.1131452,6.25 10.7679672,6.25 C10.4227892,6.25 10.1429672,5.97017797 10.1429672,5.625 C10.1429672,5.27982203 10.4227892,5 10.7679672,5 Z M10.0095596,8.06143195 L10.13275,8.14475 L10.2144978,8.19683039 C10.7685518,8.53981879 11.3891002,8.75 11.9729239,8.75 C12.6341799,8.75 13.2493863,8.55589303 13.7640401,8.22214504 L13.84025,8.171 L13.9000728,8.12906193 L14.0167711,8.0406941 L14.0624253,8.00400966 L14.1274641,7.94898329 C14.4003854,7.7126138 14.6334047,7.43211963 14.8152455,7.1187697 C14.885621,6.99749806 14.9483308,6.87130521 15.0027213,6.74084441 L15.0315754,6.6692247 L15.0315754,6.6692247 L15.0661753,6.57612361 L15.0587539,6.5967811 C15.0773474,6.54534388 15.0946702,6.49330817 15.1106848,6.44071134 L15.1310866,6.37071098 L15.1499414,6.30015976 L15.171151,6.21185097 C15.1945413,6.10802935 15.2128811,6.00259785 15.2259742,5.89586347 L15.23875,5.7685 L15.2439639,5.70027904 L15.2463907,5.6558756 L15.2463907,5.6558756 L15.2482137,5.61135184 C15.2494761,5.57445013 15.2501101,5.53729793 15.2501101,5.5 C15.2501101,3.70650698 13.7842862,2.25 11.9729239,2.25 L11.9005867,2.25106875 C10.835905,2.28237156 9.66041858,2.997767 8.99959809,3.9311323 L8.951,4.0015 C9.32519545,4.03638891 9.49055528,4.63963711 9.49970665,5.42974794 L9.50011007,5.5 C9.50011007,6.32359707 9.33650176,6.96141381 8.9523996,6.99831253 C9.22275539,7.39927501 9.59104044,7.76733689 10.0095596,8.06143195 Z" id="_path-1"/>
    </defs>
    <g id="_查找耳机/ic_device_earphone_h2_right" stroke="none" stroke-width="1" fill="none" fill-rule="evenodd">
        <mask id="_mask-2" fill="white">
            <use xlink:href="#_path-1"/>
        </mask>
        <use id="_形状" fill="#000000" xlink:href="#_path-1"/>
    </g>
</svg>