<?xml version="1.0" encoding="UTF-8"?>
<svg xmlns="http://www.w3.org/2000/svg" xmlns:xlink="http://www.w3.org/1999/xlink" width="24" height="24" viewBox="0 0 24 24" version="1.1">
    <!-- Generator: Sketch 63.1 (92452) - https://sketch.com -->
    <title>查找耳机/ic_device_earphone_hero_left</title>
    <desc>Created with Sketch.</desc>
    <defs>
        <path d="M11.4606562,1.5 C13.169816,1.5 15.4550714,2.52785169 16.4163101,4.00455715 C16.5300336,4.17926511 16.6341053,4.5620901 16.6947836,5.01696111 L16.7133562,5.17106649 C16.7386656,5.40566716 16.7521894,5.65449959 16.7497099,5.90055488 C16.7425846,6.60763155 16.5898416,7.29177512 16.4163101,7.54936157 C15.7177885,8.58623186 14.3438682,9.39491958 13.0000704,9.77042298 L13,21.0000585 C13,21.8859857 12.341663,22.61815 11.4875152,22.7340251 L11.4289273,22.7409649 C11.3700975,22.7469394 11.3104061,22.75 11.25,22.75 C11.1292502,22.75 11.0113012,22.7377582 10.8973843,22.7144474 L10.840695,22.7018734 C10.225946,22.5545621 9.73733613,22.0828109 9.56601428,21.4777685 C9.54538932,21.4045337 9.52933397,21.3295069 9.5182447,21.2528726 C9.51020976,21.1978901 9.50477932,21.1420175 9.5020518,21.0854198 L9.5,21 L9.5000321,9.51212389 C8.16209439,8.80030054 7.25,7.38266107 7.25,5.75 C7.25,3.40278981 9.13517502,1.5 11.4606562,1.5 Z M12.00025,10 L10.50025,10 L10.5,20.75 L12,20.75 L12.00025,10 Z M11.4606562,2.5 C9.68955239,2.5 8.24999896,3.95300335 8.24999896,5.75 C8.24999896,7.54699665 9.68955239,9 11.4606562,9 C12.7030288,9 14.278159,8.33920681 15.1761506,7.47246887 C14.8231262,7.21992186 14.6075949,6.6152478 14.6075949,5.93047028 C14.6075949,5.1879904 14.6834225,4.6685711 14.9039345,4.35197659 C14.9888138,4.23011331 15.0887294,4.14218061 15.2037052,4.09025826 C14.319799,3.18966752 12.7271975,2.5 11.4606562,2.5 Z M12.875,4.875 C13.3582492,4.875 13.75,5.26675084 13.75,5.75 C13.75,6.23324916 13.3582492,6.625 12.875,6.625 C12.3917508,6.625 12,6.23324916 12,5.75 C12,5.26675084 12.3917508,4.875 12.875,4.875 Z M10.125,4.875 C10.6082492,4.875 11,5.26675084 11,5.75 C11,6.23324916 10.6082492,6.625 10.125,6.625 C9.64175084,6.625 9.25,6.23324916 9.25,5.75 C9.25,5.26675084 9.64175084,4.875 10.125,4.875 Z" id="_path-1"/>
    </defs>
    <g id="_查找耳机/ic_device_earphone_hero_left" stroke="none" stroke-width="1" fill="none" fill-rule="evenodd">
        <mask id="_mask-2" fill="white">
            <use xlink:href="#_path-1"/>
        </mask>
        <use id="_形状" fill="#000000" fill-rule="nonzero" xlink:href="#_path-1"/>
    </g>
</svg>