<?xml version="1.0" encoding="UTF-8"?>
<svg xmlns="http://www.w3.org/2000/svg" xmlns:xlink="http://www.w3.org/1999/xlink" width="24" height="24" viewBox="0 0 24 24" version="1.1">
    <!-- Generator: Sketch 63.1 (92452) - https://sketch.com -->
    <title>Linear/ic_device_earphone_mermaid</title>
    <desc>Created with Sketch.</desc>
    <defs>
        <path d="M16.0398798,7 C17.4571703,7 18.8747315,8.17753824 20.0891741,9.89353329 C20.516632,9.85632998 20.9311911,9.94217394 21.2966212,10.1720248 C21.3224231,10.1882539 21.3474285,10.2056237 21.3719726,10.2242774 C21.4246652,10.2643243 21.5505132,10.3921884 21.6800229,10.5275373 L21.985254,10.8497899 L22.1063052,10.9748669 C22.8376589,11.740463 23.2394419,12.5293191 23.2394419,13.4763899 C23.2394419,15.2047977 21.8659506,16.6625 20.1623646,16.6625 C19.874147,16.6625 19.41426,16.5878052 18.962425,16.4856082 L18.8722186,16.4648161 L18.8722919,21.1089992 L18.8711656,21.1643559 C18.8442427,21.8248399 18.3378048,22.3638398 17.6915713,22.4194839 L17.6358454,22.4230612 L17.5810136,22.4242213 L15.4637087,22.4242213 L15.4088769,22.4230612 C14.7549313,22.3953329 14.2310529,21.8739093 14.1770041,21.2206628 L14.1735298,21.1643559 L14.1724035,21.1089992 L14.1721247,14.6313527 C12.8670815,13.9127005 12.0689835,12.6914194 12.0069995,11.2331786 L12.004045,11.1397802 L12.003102,11.0489606 L12.00385,10.970228 C12.0456768,8.77075381 13.8362767,7 16.0398798,7 Z M15.1719393,15.071527 L15.1724035,21.1089992 L15.1739448,21.1417678 C15.1871859,21.2815507 15.2842225,21.3911972 15.4059752,21.4179513 L15.4344839,21.4226298 L15.4637087,21.4242213 L17.5810136,21.4242213 L17.6102364,21.4226299 C17.7354329,21.4089417 17.8404549,21.3083079 17.866235,21.1734624 L17.8707508,21.1417609 L17.8722919,21.1089888 L17.8723434,16.1691061 C17.8130994,16.1455498 17.7614582,16.1226967 17.7190599,16.1009773 C17.4376779,15.9568344 17.2169244,15.7425713 17.0548358,15.4787423 L17.0155347,15.4117643 L16.4096578,15.3407527 L16.2083588,15.315045 L16.0813959,15.2976569 C15.9027942,15.2722749 15.7766636,15.2498051 15.6919274,15.2270219 C15.5402697,15.1862453 15.4007904,15.1456784 15.2692102,15.1034956 L15.1719393,15.071527 Z M7.96012022,2 C10.1637233,2 11.9543232,3.77075381 11.99615,5.97022796 L11.996898,6.04896062 L11.995955,6.13978015 C11.9647486,7.63922249 11.1606854,8.89740998 9.82787534,9.6313527 L9.8275965,16.1089992 L9.82647015,16.1643559 C9.7987768,16.8437107 9.26375284,17.3945406 8.59112312,17.4230612 L8.53629133,17.4242213 L6.41898639,17.4242213 L6.36415463,17.4230612 C5.69152594,17.3945406 5.15652651,16.8437109 5.12883445,16.1643559 L5.12770815,16.1089992 L5.12778142,11.4648161 C4.6478213,11.5775139 4.14506748,11.6625 3.83763544,11.6625 C2.13404935,11.6625 0.760558101,10.2047977 0.760558101,8.47638992 C0.760558101,7.52931908 1.16234114,6.74046303 1.89369478,5.97486695 L2.01474603,5.84978991 C2.16795519,5.68888868 2.528497,5.29992149 2.62802742,5.22427744 C2.65257153,5.20562369 2.67757688,5.18825391 2.70337882,5.17202482 C3.0688089,4.94217394 3.48336804,4.85632998 3.91082593,4.89353329 C5.12526851,3.17753824 6.54282968,2 7.96012022,2 Z M8.8280607,10.071527 C8.66818816,10.125408 8.49764469,10.1760512 8.30807255,10.2270219 C8.22333636,10.2498051 8.09720579,10.2722749 7.91860409,10.2976569 L7.79164122,10.315045 L7.59034222,10.3407527 L6.98446534,10.4117643 C6.81944681,10.7063739 6.5857706,10.9448225 6.28094015,11.1009773 C6.23854178,11.1226967 6.18690062,11.1455498 6.12765656,11.1691061 L6.12770815,16.1089888 L6.12924924,16.1417609 C6.14350725,16.2923113 6.25493661,16.4078887 6.38976364,16.4226299 L6.41898639,16.4242213 L8.53629133,16.4242213 L8.56551612,16.4226298 C8.70035296,16.4078876 8.8117955,16.2923032 8.82605523,16.1417678 L8.8275965,16.1089992 L8.8280607,10.071527 Z M20.7250472,10.9954222 C20.0885669,10.6443863 18.97443,11.1677076 18.2658161,12.3092003 C17.5313361,13.4923601 17.5598327,14.8958364 18.1749871,15.2109603 C18.4672919,15.3606987 19.7068839,15.6625 20.1623646,15.6625 C20.3330208,15.6625 20.49922,15.6400589 20.6582121,15.5979139 C20.4188405,15.2893899 20.498374,14.6645607 20.8379818,14.0763428 C21.2256908,13.4048111 21.8242058,13.0029727 22.2227572,13.2095863 C22.154346,12.6711919 21.8757534,12.1832697 21.3905959,11.6733663 L21.2687312,11.5478662 L20.7823157,11.0348916 L20.7668846,11.020436 L20.7250472,10.9954222 Z M16.0398798,8 C15.632329,8 15.2434925,8.08061996 14.8882244,8.22680684 C15.1383001,8.24572219 15.3796162,8.32454183 15.5946883,8.46960974 C16.3835239,9.00168609 16.4782995,10.1949579 15.846067,11.1322811 C15.2138346,12.0696043 14.0719486,12.4287374 13.283113,11.896661 C13.2072344,11.8454803 13.1377777,11.7881818 13.0749397,11.7255094 C13.2570567,12.5559789 13.779207,13.2457029 14.5699725,13.7074807 L14.6527311,13.7544341 L14.7472736,13.80475 L14.7625266,13.8107684 L14.8147533,13.8357813 L14.9021533,13.8803207 C15.1629704,14.0100646 15.4142924,14.1061329 15.7358288,14.2007532 L15.8457174,14.2322838 L15.951578,14.2613192 L15.9852123,14.2690581 L16.0958526,14.2885765 C16.141939,14.2959101 16.1969435,14.3040244 16.2600022,14.3127786 L16.5325391,14.3483313 L16.7228316,14.3709908 C16.6621169,13.5584617 16.901279,12.611275 17.4162097,11.781783 C17.8585094,11.0692909 18.4489452,10.5199863 19.0733136,10.2000023 C18.0791936,8.88293338 16.9671462,8 16.0398798,8 Z M15.3150918,8.88412853 C14.7785467,8.52222431 13.9362515,8.78713352 13.446253,9.51358611 C12.9562545,10.2400387 13.0261644,11.120238 13.5627094,11.4821422 C14.0992545,11.8440465 14.9415498,11.5791373 15.4315482,10.8526847 C15.9215467,10.1262321 15.8516369,9.24603275 15.3150918,8.88412853 Z M3.27495275,5.99542218 L3.23311542,6.02043604 L3.21768425,6.03489161 L2.73126885,6.54786617 L2.68011711,6.60036555 C2.1512558,7.13691539 1.84891171,7.64555404 1.77724277,8.20958626 C2.17579421,8.00297267 2.77430923,8.40481113 3.1620182,9.07634277 C3.50162597,9.66456069 3.58115951,10.2893899 3.3417879,10.5979139 C3.50077998,10.6400589 3.66697916,10.6625 3.83763544,10.6625 C4.29311613,10.6625 5.5327081,10.3606987 5.82501292,10.2109603 C6.44016725,9.89583642 6.4686639,8.49236006 5.73418392,7.30920032 C5.02556996,6.16770764 3.91143315,5.64438628 3.27495275,5.99542218 Z M7.96012022,3 C7.03285376,3 5.92080636,3.88293338 4.92668642,5.20000225 C5.55105478,5.51998632 6.14149062,6.06929093 6.58379032,6.78178305 C7.09872096,7.61127497 7.33788309,8.55846169 7.27716841,9.37099079 L7.46746085,9.34833131 C7.73345479,9.31539601 7.92578348,9.28736096 8.01478774,9.26905809 L8.04842198,9.26131924 L8.15428255,9.23228382 C8.52997547,9.12706568 8.80804994,9.02448058 9.09784668,8.88032072 L9.1852467,8.83578131 L9.23747339,8.81076841 L9.25272637,8.80475 L9.34726893,8.75443406 C10.1843784,8.29310277 10.7366634,7.58461578 10.9250603,6.72550937 C10.8622223,6.78818175 10.7927656,6.84548029 10.716887,6.89666103 C9.9280514,7.42873738 8.78616543,7.06960428 8.15393297,6.13228111 C7.52170051,5.19495795 7.61647612,4.00168609 8.40531174,3.46960974 C8.62038377,3.32454183 8.86169988,3.24572219 9.11177556,3.22680684 C8.75650754,3.08061996 8.36767102,3 7.96012022,3 Z M8.68490819,3.88412853 C8.14836312,4.24603275 8.07845329,5.12623207 8.56845176,5.85268466 C9.05845022,6.57913726 9.90074549,6.84404647 10.4372906,6.48214225 C10.9738356,6.12023803 11.0437455,5.24003871 10.553747,4.51358611 C10.0637485,3.78713352 9.22145326,3.52222431 8.68490819,3.88412853 Z" id="_path-1"/>
    </defs>
    <g id="_Linear/ic_device_earphone_mermaid" stroke="none" stroke-width="1" fill="none" fill-rule="evenodd">
        <mask id="_mask-2" fill="white">
            <use xlink:href="#_path-1"/>
        </mask>
        <use id="_形状" fill="#000000" fill-rule="nonzero" xlink:href="#_path-1"/>
    </g>
</svg>