<?xml version="1.0" encoding="UTF-8"?>
<svg xmlns="http://www.w3.org/2000/svg" xmlns:xlink="http://www.w3.org/1999/xlink" width="24" height="24" viewBox="0 0 70 70" version="1.1">
    <title>Artboard</title>
    <g id="_Artboard" stroke="none" stroke-width="1" fill="none" fill-rule="evenodd">
        <g id="_Group" fill="#000000" fill-rule="nonzero">
            <path d="M0.9,27 L21,27 L21,27.3 C21,28.2 21.7,28.9 22.6,29 L22.7,29 L47.3,29 C48.2,29 48.9,28.3 49,27.4 L49,27.3 L49,27 L69.1,27 C69.7,29.6 70,32.2 70,35 C70,41.6 68.3,47.7 65.3,52.9 C62.3,58.1 58,62.4 52.9,65.3 C47.7,68.3 41.6,70 35,70 C28.4,70 22.3,68.3 17.1,65.3 C11.9,62.3 7.6,58 4.7,52.9 C1.8,47.8 0,41.6 0,35 C0,32.2 0.3,29.6 0.9,27 Z M35,0 C41.6,0 47.7,1.7 52.9,4.7 C58.1,7.7 62.4,12 65.3,17.1 C66.5,19.3 67.5,21.6 68.3,24 L1.6,24 C2.4,21.6 3.4,19.3 4.6,17.1 C7.6,11.9 11.9,7.6 17,4.7 C22.1,1.8 28.4,0 35,0 Z" id="_path-1_1"/>
        </g>
    </g>
</svg>