<?xml version="1.0" encoding="UTF-8"?>
<svg xmlns="http://www.w3.org/2000/svg" xmlns:xlink="http://www.w3.org/1999/xlink" width="24" height="24" viewBox="0 0 24 24" version="1.1">
    <!-- Generator: Sketch 63.1 (92452) - https://sketch.com -->
    <title>Filled/ic_device_earphone_otter_filled</title>
    <desc>Created with Sketch.</desc>
    <g id="_Filled/ic_device_earphone_otter_filled" stroke="none" stroke-width="1" fill="none" fill-rule="evenodd">
        <path d="M8.75002664,11.5 L8.74982277,20.6214972 C8.74982277,21.3014717 8.23009834,21.8763468 7.53435569,21.9659438 C7.35809561,21.9886424 7.18128911,22 7.0040697,22 C6.82356194,22 6.64312578,21.9882171 6.46289944,21.9646786 C5.7865844,21.8763496 5.27740133,21.3294804 5.25107058,20.6739476 L5.25,20.6205651 L5.25,12.5145 L5.60340162,12.4060899 L5.69548942,12.375479 L5.77815868,12.3439135 L5.85769919,12.3102928 C5.93575315,12.2756218 6.00946418,12.2377652 6.07988279,12.1964148 L6.14924284,12.1538883 L6.2138557,12.1104126 L6.23840754,12.1004333 L6.3744528,11.9878127 L6.43902991,11.9295127 L6.43902991,11.9295127 L7.18481173,11.8352504 L7.29877104,11.8198199 L7.41357122,11.8031292 C7.90275396,11.7294987 8.34618139,11.6301109 8.75002664,11.5 Z M15.25,11.5 C15.6089735,11.6156541 15.9992219,11.7070332 16.4250807,11.7776249 L16.5864554,11.8031292 L16.7012556,11.8198199 L16.8152149,11.8352504 L17.5609967,11.9295127 L17.6255738,11.9878127 L17.7616191,12.1004333 L17.7861709,12.1104126 L17.8507838,12.1538883 L17.9201438,12.1964148 C17.9670896,12.2239817 18.0154986,12.2499958 18.0656822,12.2745485 L18.1423274,12.3102928 L18.221868,12.3439135 L18.3045372,12.375479 L18.396625,12.4060899 L18.7500266,12.5145 L18.7500266,20.6205651 L18.7489561,20.6739476 C18.7226253,21.3294804 18.2134422,21.8763496 17.5371272,21.9646786 C17.3569009,21.9882171 17.1764647,22 16.9959569,22 C16.8187375,22 16.641931,21.9886424 16.4656709,21.9659438 C15.7898067,21.8789067 15.2800461,21.3339256 15.2514686,20.6795144 L15.2502039,20.6214972 L15.25,11.5 Z M7,20.0113868 C6.65482203,20.0113868 6.375,20.289204 6.375,20.6319089 C6.375,20.9746138 6.65482203,21.252431 7,21.252431 C7.34517797,21.252431 7.625,20.9746138 7.625,20.6319089 C7.625,20.289204 7.34517797,20.0113868 7,20.0113868 Z M17.0000266,20.0113868 C16.6548487,20.0113868 16.3750266,20.289204 16.3750266,20.6319089 C16.3750266,20.9746138 16.6548487,21.252431 17.0000266,21.252431 C17.3452046,21.252431 17.6250266,20.9746138 17.6250266,20.6319089 C17.6250266,20.289204 17.3452046,20.0113868 17.0000266,20.0113868 Z" id="_形状" fill="#000000" opacity="0.600000024"/>
        <path d="M7,19.9988403 C7.34517797,19.9988403 7.625,20.2786624 7.625,20.6238403 C7.625,20.9690183 7.34517797,21.2488403 7,21.2488403 C6.65482203,21.2488403 6.375,20.9690183 6.375,20.6238403 C6.375,20.2786624 6.65482203,19.9988403 7,19.9988403 Z M17,19.9988403 C17.345178,19.9988403 17.625,20.2786624 17.625,20.6238403 C17.625,20.9690183 17.345178,21.2488403 17,21.2488403 C16.654822,21.2488403 16.375,20.9690183 16.375,20.6238403 C16.375,20.2786624 16.654822,19.9988403 17,19.9988403 Z M2.70353646,9.73533806 C3.01010062,10.2747864 3.07308727,10.8826802 2.68019944,11.069663 C2.28731162,11.2566458 1.89564112,10.972897 1.58907696,10.4334487 C1.28251281,9.89400035 1.25048402,9.31915553 1.57003243,9.11614778 C1.88958084,8.91314003 2.39697231,9.19588973 2.70353646,9.73533806 Z M22.4299676,9.11614778 C22.749516,9.31915553 22.7174872,9.89400035 22.410923,10.4334487 C22.1043589,10.972897 21.7126884,11.2566458 21.3198006,11.069663 C20.9269127,10.8826802 20.9898994,10.2747864 21.2964635,9.73533806 C21.6030277,9.19588973 22.1104192,8.91314003 22.4299676,9.11614778 Z M10.3103795,5.21474796 C10.5691299,5.64254769 10.4734272,6.17167628 10.0966193,6.39659467 C9.71980823,6.62150786 9.204582,6.45703981 8.94582386,6.02924473 C8.68707346,5.601445 8.78277613,5.07231641 9.15958406,4.84739802 C9.53639512,4.62248483 10.0516214,4.78695288 10.3103795,5.21474796 Z M14.8404159,4.84739802 C15.2172239,5.07231641 15.3129265,5.601445 15.0541761,6.02924473 C14.795418,6.45703981 14.2801918,6.62150786 13.9033807,6.39659467 C13.5265728,6.17167628 13.4308701,5.64254769 13.6896205,5.21474796 C13.9483786,4.78695288 14.4636049,4.62248483 14.8404159,4.84739802 Z" id="_形状" fill="#000000" opacity="0.400000006"/>
        <path d="M3.38365135,6.00019724 C3.54371014,6.00251933 3.76556884,6.03988016 4.06047098,6.13670686 L4.14500808,6.16553102 L4.27707506,6.21789857 L4.3501896,6.24761373 C4.99659643,6.56073172 5.61365937,7.1633705 6.01953774,7.92534201 C6.36816698,8.57983747 6.52711515,9.27567301 6.49623161,9.89601526 C6.47985612,10.2249414 6.37916148,10.5493546 6.28925413,10.762512 L6.25409194,10.8415883 C6.23133462,10.8900126 6.21024614,10.9295134 6.19263001,10.9580664 C6.11335742,11.0865549 6.01834397,11.2016293 5.90729896,11.3002305 L5.85043915,11.3481441 L5.84818391,11.3491003 L5.79371465,11.3894367 C5.68597942,11.4655424 5.56773515,11.5279715 5.44114996,11.5748394 L5.36421528,11.6010777 L4.79622522,11.7785513 L4.58573625,11.8272059 L4.44433513,11.8587385 L4.30642197,11.8882304 L4.19963616,11.9097908 L4.0457135,11.9376066 L3.97086015,11.9499092 L3.89778726,11.9610427 L3.89778726,11.9610427 L3.75810835,11.9795049 C3.64577091,11.9926525 3.54436916,12 3.45976488,12 C1.95953682,12 0.75,10.7094901 0.75,9.17932358 C0.75,8.37082234 1.07900028,7.6925631 1.67998146,7.03741906 L1.74787351,6.96471496 L1.88009568,6.82684774 L2.12327029,6.56869218 L2.23397888,6.45371001 L2.29987446,6.38731396 L2.35474082,6.33458804 L2.38320117,6.3093444 L2.4273114,6.27628027 L2.46090511,6.2539555 C2.74248753,6.07590356 3.05719434,5.99546109 3.38365135,6.00019724 Z M20.6163487,6.00019724 C20.9176936,5.99582541 21.2090265,6.06403181 21.4735361,6.21459365 L21.5390949,6.2539555 L21.5726886,6.27628027 L21.6167988,6.3093444 L21.6452592,6.33458804 L21.7001255,6.38731396 L21.7660211,6.45371001 L21.8767297,6.56869218 L22.1199043,6.82684774 L22.2521265,6.96471496 L22.3200185,7.03741906 C22.9209997,7.6925631 23.25,8.37082234 23.25,9.17932358 C23.25,10.7094901 22.0404632,12 20.5402351,12 C20.4556308,12 20.3542291,11.9926525 20.2418916,11.9795049 L20.1022127,11.9610427 L20.1022127,11.9610427 L20.0291399,11.9499092 L19.9542865,11.9376066 L19.8003638,11.9097908 L19.693578,11.8882304 L19.5556649,11.8587385 L19.4142638,11.8272059 L19.2037748,11.7785513 L18.6357847,11.6010777 L18.55885,11.5748394 C18.4575819,11.5373451 18.3616519,11.4898916 18.2721702,11.4334438 L18.2062853,11.3894367 L18.1518161,11.3491003 L18.1495609,11.3481441 L18.092701,11.3002305 C17.981656,11.2016293 17.8866426,11.0865549 17.80737,10.9580664 C17.7941579,10.9366517 17.7789926,10.9090788 17.762635,10.8762017 L17.7459081,10.8415883 L17.7107459,10.762512 C17.6208385,10.5493546 17.5201439,10.2249414 17.5037684,9.89601526 C17.4728848,9.27567301 17.631833,8.57983747 17.9804623,7.92534201 C18.3701055,7.19384936 18.9543764,6.60919776 19.5723941,6.28656926 L19.6498104,6.24761373 L19.7229249,6.21789857 L19.8549919,6.16553102 L19.939529,6.13670686 C20.2344312,6.03988016 20.4562899,6.00251933 20.6163487,6.00019724 Z M1.57003243,9.11614778 C1.25048402,9.31915553 1.28251281,9.89400035 1.58907696,10.4334487 C1.89564112,10.972897 2.28731162,11.2566458 2.68019944,11.069663 C3.07308727,10.8826802 3.01010062,10.2747864 2.70353646,9.73533806 C2.39697231,9.19588973 1.88958084,8.91314003 1.57003243,9.11614778 Z M22.4299676,9.11614778 C22.1104192,8.91314003 21.6030277,9.19588973 21.2964635,9.73533806 C20.9898994,10.2747864 20.9269127,10.8826802 21.3198006,11.069663 C21.7126884,11.2566458 22.1043589,10.972897 22.410923,10.4334487 C22.7174872,9.89400035 22.749516,9.31915553 22.4299676,9.11614778 Z M10.5177605,4.13433571 C11.6565103,5.42874982 11.8752548,7.49253416 10.8017851,9.04337275 C9.98994961,10.2162291 8.88529108,10.7392806 7.2232413,10.9754714 L7.10905289,10.9911351 L6.97636046,11.007712 C7.10727929,10.6957086 7.21050291,10.2967262 7.22887194,9.93082818 C7.26673086,9.17670525 7.07171517,8.36542728 6.67271845,7.62261022 C6.22519326,6.78944708 5.54412171,6.10136598 4.78523127,5.71093453 L4.6973305,5.66721436 L4.65574295,5.64883959 L4.57416907,5.61596268 L4.42255017,5.55683454 L4.31597652,5.52086352 C4.03472879,5.42964258 3.78289967,5.37568416 3.56020085,5.35875693 C4.45650209,4.13545495 5.26870855,3.39680266 6.34487268,2.96130393 C7.6836033,2.41955063 9.48317105,2.95832045 10.5177605,4.13433571 Z M13.4822395,4.13433571 C14.516829,2.95832045 16.3163967,2.41955063 17.6551273,2.96130393 C18.7312915,3.39680266 19.5434979,4.13545495 20.4397991,5.35875693 C20.2449377,5.37356825 20.0277733,5.41673159 19.7881129,5.4884019 L19.6840235,5.52086352 L19.5774498,5.55683454 L19.4258309,5.61596268 L19.344257,5.64883959 L19.3026695,5.66721436 L19.2147687,5.71093453 C18.4558783,6.10136598 17.7748067,6.78944708 17.3272815,7.62261022 C16.9282848,8.36542728 16.7332691,9.17670525 16.7711281,9.93082818 C16.7878272,10.2634628 16.8746541,10.6234398 16.988664,10.9205539 L17.0236395,11.007712 L16.8909471,10.9911351 L16.7767587,10.9754714 C15.1147089,10.7392806 14.0100504,10.2162291 13.1982149,9.04337275 C12.1247452,7.49253416 12.3434897,5.42874982 13.4822395,4.13433571 Z M9.15958406,4.84739802 C8.78277613,5.07231641 8.68707346,5.601445 8.94582386,6.02924473 C9.204582,6.45703981 9.71980823,6.62150786 10.0966193,6.39659467 C10.4734272,6.17167628 10.5691299,5.64254769 10.3103795,5.21474796 C10.0516214,4.78695288 9.53639512,4.62248483 9.15958406,4.84739802 Z M14.8404159,4.84739802 C14.4636049,4.62248483 13.9483786,4.78695288 13.6896205,5.21474796 C13.4308701,5.64254769 13.5265728,6.17167628 13.9033807,6.39659467 C14.2801918,6.62150786 14.795418,6.45703981 15.0541761,6.02924473 C15.3129265,5.601445 15.2172239,5.07231641 14.8404159,4.84739802 Z" id="_形状" fill="#000000"/>
    </g>
</svg>