<?xml version="1.0" encoding="UTF-8"?>
<svg xmlns="http://www.w3.org/2000/svg" xmlns:xlink="http://www.w3.org/1999/xlink" width="24" height="24" viewBox="0 0 24 24" version="1.1">
    <!-- Generator: Sketch 63.1 (92452) - https://sketch.com -->
    <title>Filled/ic_device_earphone_mermaid_filled</title>
    <desc>Created with Sketch.</desc>
    <g id="_Filled/ic_device_earphone_mermaid_filled" stroke="none" stroke-width="1" fill="none" fill-rule="evenodd">
        <path d="M21.5379088,11.0039555 C21.5606465,11.0183232 21.5826822,11.0337007 21.6043115,11.050215 L21.6289948,11.0708599 L21.6441467,11.084588 L21.6990511,11.137314 L21.7649924,11.20371 L21.8757777,11.3186922 L22.1191209,11.5768477 L22.2514347,11.714715 C22.8959327,12.3925003 23.25,13.0908778 23.25,13.9293236 C23.25,15.4594901 22.0396247,16.75 20.5383566,16.75 C20.4050125,16.75 20.2299713,16.7317736 20.0361507,16.7013664 L19.9520018,16.6876066 L19.7979724,16.6597908 L19.640195,16.6281895 L19.4809219,16.5933969 L19.4014285,16.5749896 L18.7564466,16.3745234 C18.1231571,16.1776913 17.6555374,15.6397974 17.5487075,14.9852855 C17.4046884,14.1029219 17.5800477,13.2757866 18.0747854,12.5038795 C18.4745937,11.8800845 18.9911129,11.3334982 19.5413313,11.050215 C19.811874,10.9097073 20.1683219,10.8000851 20.4738582,10.7574058 C20.8505512,10.7244696 21.2158772,10.8004676 21.5379088,11.0039555 Z M21.2726479,14.4921729 C20.939426,15.0765752 20.8709623,15.7351269 21.2980143,15.9376915 C21.7250662,16.1402562 22.150795,15.8328617 22.484017,15.2484594 C22.8172389,14.664057 22.8520528,14.0413085 22.5047175,13.8213834 C22.1573823,13.6014583 21.6058698,13.9077705 21.2726479,14.4921729 Z M15.9959704,7 C17.3738808,7 18.9937368,8.2988855 20.1900567,9.99245232 L20.25,10.0781395 L20.147888,10.0967129 C19.8037105,10.1636246 19.441072,10.2879658 19.1494184,10.4430108 C18.500505,10.7849789 17.8963387,11.4087383 17.4124849,12.1814497 C16.8246045,13.1202909 16.6117838,14.1477741 16.7840568,15.2281078 C16.7987808,15.3204422 16.8183513,15.4111732 16.8425129,15.5 C15.6450459,15.4214969 14.7667573,15.0814517 14.1470963,14.7321818 C12.8552456,14.0040343 12.0652155,12.7666172 12.0038581,11.2891094 L12.0009335,11.1944769 L12,11.1024574 L12.0007405,11.0226845 C12.0421444,8.79414985 13.8146434,7 15.9959704,7 Z M3.52614178,5.77211527 C3.83167815,5.81479459 4.188126,5.92441677 4.45866874,6.06492444 C5.00888706,6.34820765 5.5254063,6.894794 5.92521461,7.51858898 C6.41995226,8.29049603 6.59531156,9.11763137 6.45129253,9.99999498 C6.34446264,10.6545069 5.87684294,11.1924007 5.24355344,11.3892328 L4.59857153,11.5896991 L4.51907806,11.6081064 L4.35980502,11.642899 L4.20202758,11.6745003 L4.04799822,11.7023161 C3.82089148,11.7409035 3.61403667,11.7647095 3.46164339,11.7647095 C1.96037532,11.7647095 0.75,10.4741996 0.75,8.94403305 C0.75,8.10558732 1.10406726,7.4072098 1.74856528,6.72942443 L1.88087911,6.59155721 L2.1242223,6.33340165 L2.23500764,6.21841948 L2.3009489,6.15202343 L2.35585329,6.09929751 L2.39568851,6.06492444 L2.39568851,6.06492444 C2.41731776,6.04841019 2.43935348,6.03303265 2.46209117,6.01866498 C2.78412275,5.81517704 3.14944882,5.73917903 3.52614178,5.77211527 Z M12.9053343,8.69742725 C12.3032735,9.56820865 12.3891716,10.6232826 13.0484243,11.0570886 C13.707677,11.4908945 14.7426048,11.1733542 15.3446657,10.3025728 C15.9467265,9.43179135 15.8608284,8.37671741 15.2015757,7.94291144 C14.542323,7.50910548 13.5073952,7.82664584 12.9053343,8.69742725 Z M1.49528247,8.83609288 C1.14794724,9.05601794 1.18276114,9.67876649 1.51598305,10.2631688 C1.84920496,10.8475712 2.27493376,11.1549657 2.70198574,10.952401 C3.12903773,10.7498363 3.06057398,10.0912847 2.72735207,9.50688235 C2.39413016,8.92247999 1.84261769,8.61616782 1.49528247,8.83609288 Z M7.98763,2 C10.1643598,2 11.9380984,3.72782804 12.0213517,5.8899531 L12.0236597,5.97022796 L12.0244078,6.04896062 L12.0234647,6.13978015 L12.0205102,6.2331786 C11.9585263,7.69141944 11.1604283,8.91270046 9.85538511,9.6313527 C9.22939597,9.97606812 8.3421382,10.3116791 7.13244252,10.3891584 C7.15685088,10.30149 7.17662127,10.2119421 7.19149564,10.1208117 C7.36552786,9.05456586 7.15053381,8.04048119 6.55664988,7.11388263 C6.06785492,6.35124755 5.45751882,5.73562211 4.80197865,5.39811332 C4.50734661,5.24509016 4.14100481,5.12237039 3.79331256,5.05633122 L3.69015473,5.038 L3.75071318,4.95343019 C4.93727671,3.31233838 6.53628427,2.04674506 7.91146536,2.00126599 L7.98763,2 Z M8.76587095,2.85070025 C8.10661828,3.28450621 8.02072011,4.33958015 8.62278099,5.21036156 C9.22484186,6.08114296 10.2597697,6.39868332 10.9190223,5.96487736 C11.578275,5.5310714 11.6641732,4.47599745 11.0621123,3.60521605 C10.4600514,2.73443464 9.42512362,2.41689428 8.76587095,2.85070025 Z" id="_形状" fill="#000000"/>
        <path d="M14.25,15.5 C14.9913961,15.8485115 15.8295367,16.0775477 16.787801,16.1572255 L16.9486279,16.169117 L17.4203242,16.1997222 C17.6799203,16.5260355 18.0200635,16.7875461 18.4145175,16.9542178 L18.4998651,16.9884706 L18.5,21.1755917 L18.4988604,21.231335 C18.4716207,21.8964322 17.9592207,22.4391967 17.3053794,22.4952295 L17.2489975,22.4988318 L17.1935202,22.5 L15.5571756,22.5 L15.5016983,22.4988318 C14.8400541,22.4709098 14.3100084,21.9458443 14.2553233,21.2880352 L14.2518081,21.231335 L14.2506685,21.1755917 L14.25,15.5 Z M9.87688921,10.4877618 L9.87641204,16.1237087 L9.87528569,16.1790654 C9.84759234,16.8584201 9.31256838,17.4092501 8.63993866,17.4377707 L8.58510687,17.4389308 L6.96780193,17.4389308 L6.91297017,17.4377707 C6.24034148,17.4092501 5.70534205,16.8584203 5.67764999,16.1790654 L5.67652369,16.1237087 L5.67665705,11.9656297 C6.10076504,11.8035116 6.46584629,11.5317012 6.74038231,11.1864538 L7.3439437,11.1421501 L7.49148858,11.1288439 C8.39234714,11.0397713 9.18008158,10.8170439 9.87688921,10.4877618 Z" id="_形状" fill="#000000" opacity="0.6"/>
        <path d="M22.5047175,13.8213834 C22.8520528,14.0413085 22.8172389,14.664057 22.484017,15.2484594 C22.150795,15.8328617 21.7250662,16.1402562 21.2980143,15.9376915 C20.8709623,15.7351269 20.939426,15.0765752 21.2726479,14.4921729 C21.6058698,13.9077705 22.1573823,13.6014583 22.5047175,13.8213834 Z M15.2015757,7.94291144 C15.8608284,8.37671741 15.9467265,9.43179135 15.3446657,10.3025728 C14.7426048,11.1733542 13.707677,11.4908945 13.0484243,11.0570886 C12.3891716,10.6232826 12.3032735,9.56820865 12.9053343,8.69742725 C13.5073952,7.82664584 14.542323,7.50910548 15.2015757,7.94291144 Z M2.72735207,9.50688235 C3.06057398,10.0912847 3.12903773,10.7498363 2.70198574,10.952401 C2.27493376,11.1549657 1.84920496,10.8475712 1.51598305,10.2631688 C1.18276114,9.67876649 1.14794724,9.05601794 1.49528247,8.83609288 C1.84261769,8.61616782 2.39413016,8.92247999 2.72735207,9.50688235 Z M11.0621123,3.60521605 C11.6641732,4.47599745 11.578275,5.5310714 10.9190223,5.96487736 C10.2597697,6.39868332 9.22484186,6.08114296 8.62278099,5.21036156 C8.02072011,4.33958015 8.10661828,3.28450621 8.76587095,2.85070025 C9.42512362,2.41689428 10.4600514,2.73443464 11.0621123,3.60521605 Z" id="_形状" fill="#000000" opacity="0.400000006"/>
    </g>
</svg>