<?xml version="1.0" encoding="UTF-8"?>
<svg xmlns="http://www.w3.org/2000/svg" xmlns:xlink="http://www.w3.org/1999/xlink" width="24" height="24" viewBox="0 0 24 24" version="1.1">
    <!-- Generator: Sketch 63.1 (92452) - https://sketch.com -->
    <title>查找耳机/ic_device_earphone_shark_right</title>
    <desc>Created with Sketch.</desc>
    <defs>
        <path d="M12.5393438,1.5 C14.864825,1.5 16.75,3.40278981 16.75,5.75 C16.75,7.38266107 15.8379056,8.80030054 14.4999679,9.51212389 L14.5,21 C14.5,21.0859225 14.4938077,21.1703988 14.481845,21.2530068 C14.470666,21.3295069 14.4546107,21.4045337 14.4339261,21.4776163 C14.2318457,22.1916385 13.5880109,22.7199617 12.8164401,22.748762 L12.7499415,22.75 C11.7834755,22.75 11,21.9665245 11,21.0000585 L11.0001797,9.77049284 C9.65630227,9.39501989 8.2822548,8.58629617 7.5836899,7.54936157 C7.41015837,7.29177512 7.25741545,6.60763155 7.25029012,5.90055488 C7.24781059,5.65449959 7.26133436,5.40566716 7.28664376,5.17106649 L7.30521641,5.01696111 C7.36589473,4.5620901 7.46996644,4.17926511 7.5836899,4.00455715 C8.54492863,2.52785169 10.830184,1.5 12.5393438,1.5 Z M13.49975,10 L11.99975,10 L12,20.75 L13.49975,20.75 L13.49975,10 Z M12.5393438,2.5 C11.2728025,2.5 9.68020102,3.18966752 8.79597387,4.09056942 C8.91127059,4.14218061 9.01118621,4.23011331 9.0960655,4.35197659 C9.31657751,4.6685711 9.39240506,5.1879904 9.39240506,5.93047028 C9.39240506,6.6152478 9.17687376,7.21992186 8.82396136,7.472588 C9.72184096,8.33920681 11.2969712,9 12.5393438,9 C14.3104476,9 15.750001,7.54699665 15.750001,5.75 C15.750001,3.95300335 14.3104476,2.5 12.5393438,2.5 Z M11.125,4.875 C11.6082492,4.875 12,5.26675084 12,5.75 C12,6.23324916 11.6082492,6.625 11.125,6.625 C10.6417508,6.625 10.25,6.23324916 10.25,5.75 C10.25,5.26675084 10.6417508,4.875 11.125,4.875 Z M13.875,4.875 C14.3582492,4.875 14.75,5.26675084 14.75,5.75 C14.75,6.23324916 14.3582492,6.625 13.875,6.625 C13.3917508,6.625 13,6.23324916 13,5.75 C13,5.26675084 13.3917508,4.875 13.875,4.875 Z" id="_path-1"/>
    </defs>
    <g id="_查找耳机/ic_device_earphone_shark_right" stroke="none" stroke-width="1" fill="none" fill-rule="evenodd">
        <mask id="_mask-2" fill="white">
            <use xlink:href="#_path-1"/>
        </mask>
        <use id="_形状" fill="#000000" fill-rule="nonzero" xlink:href="#_path-1"/>
    </g>
</svg>