<?xml version="1.0" encoding="UTF-8"?>
<svg xmlns="http://www.w3.org/2000/svg" xmlns:xlink="http://www.w3.org/1999/xlink" width="24" height="24" viewBox="0 0 24 24" version="1.1">
    <!-- Generator: Sketch 63.1 (92452) - https://sketch.com -->
    <title>Filled/ic_device_earphone_walrus_filled</title>
    <desc>Created with Sketch.</desc>
    <g id="_Filled/ic_device_earphone_walrus_filled" stroke="none" stroke-width="1" fill="none" fill-rule="evenodd">
        <path d="M11.4987978,5.23180078 C11.5042847,5.38502018 11.4992521,5.53843552 11.4837386,5.69096625 L11.4515915,5.99842724 L11.4515915,5.99842724 L11.410562,6.36375882 L11.410562,6.36375882 L11.3716275,6.67810023 L11.3716275,6.67810023 L11.3438016,6.88039398 L11.3438016,6.88039398 L11.3171541,7.05400576 L11.3171541,7.05400576 L11.3000439,7.15381252 L11.3000439,7.15381252 L11.2569162,7.38759348 L11.2569162,7.38759348 L11.2338153,7.50896895 C10.9119996,9.18352375 10.75,10.8848651 10.75,12.5900628 L10.75,22.25 C10.75,22.6642136 10.4142136,22.9999915 10,22.9999915 L8.5,22.9999915 C8.08578644,22.9999915 7.75,22.6642136 7.75,22.25 L7.75,12.1250178 C7.75,11.3600013 7.34420454,10.6523936 6.68391919,10.2660343 L6.66202427,10.253547 C6.83423007,10.2778955 7.00885642,10.2802141 7.18430702,10.2586715 C8.76029032,10.0651651 9.80598546,8.0196904 9.5199325,5.68997596 C9.30801607,3.96405514 8.42464923,2.56632018 7.34022215,2.03642291 C7.42583369,2.02703785 7.51250027,2.02068613 7.60001843,2.01755202 L8.02927382,2.00217995 C9.87919157,1.93593253 11.4325504,3.38188303 11.4987978,5.23180078 Z M15.8927405,2.00027761 L15.9707262,2.00217995 L16.3999816,2.01755202 C16.4874835,2.02068555 16.5741342,2.0270355 16.6598216,2.03648572 C15.5753098,2.56638503 14.691979,3.96409518 14.4800675,5.68997596 C14.1940145,8.0196904 15.2397097,10.0651651 16.815693,10.2586715 C16.9911044,10.2802093 17.165692,10.2778965 17.3378604,10.2535633 L17.3160808,10.2660343 C16.677095,10.6399304 16.2764452,11.3146835 16.2512617,12.0511721 L16.25,12.1250178 L16.25,22.25 C16.25,22.6494202 15.93777,22.9759152 15.5440682,22.9987268 L15.5,22.9999915 L14,22.9999915 C13.6005798,22.9999915 13.2740848,22.68777 13.2512732,22.2940682 L13.25,22.25 L13.25,12.5900628 C13.25,10.9851709 13.1064987,9.3836949 12.8213163,7.80475202 L12.6999561,7.15381252 L12.6999561,7.15381252 L12.6828459,7.05400576 L12.6828459,7.05400576 L12.6652119,6.94145146 L12.6652119,6.94145146 L12.6283725,6.67810023 L12.6283725,6.67810023 L12.589438,6.36375882 L12.589438,6.36375882 L12.5484085,5.99842724 L12.5484085,5.99842724 L12.5162614,5.69096625 L12.5162614,5.69096625 C12.5007479,5.53843552 12.4957153,5.38502018 12.5012022,5.23180078 C12.5665166,3.40793821 14.0773468,1.97674367 15.8927405,2.00027761 Z M5.37053627,6.86622179 C5.94609981,8.4475696 5.54732658,9.95901381 4.50698756,10.3376663 L3.91893769,10.5516989 C2.45033825,11.0862293 0.828946837,10.3495168 0.260151603,8.90364597 L0.233455796,8.83313338 C-0.309692492,7.34084573 0.459736991,5.69079887 1.95202582,5.14765382 L2.5400754,4.93362127 C3.58041393,4.55496901 4.79497274,5.28487397 5.37053627,6.86622179 Z M21.4050135,4.91471442 L21.4599246,4.93362127 L22.0479742,5.14765382 C23.5165759,5.68217752 24.285084,7.28874217 23.7914186,8.76195788 L23.7665442,8.83313338 L23.7398484,8.90364597 C23.1802273,10.3261963 21.6016909,11.0622799 20.1522378,10.5765735 L20.0810623,10.5516989 L19.4930124,10.3376663 C18.4526734,9.95901381 18.0539002,8.4475696 18.6294637,6.86622179 C19.1848321,5.34035986 20.3351406,4.60723867 21.3498069,4.89784643 L21.4050135,4.91471442 Z M0.915684724,7.40390914 C0.591323534,7.52196695 0.500645424,8.09097578 0.713149497,8.67482592 C0.92565357,9.25867607 1.36086886,9.63627535 1.68523005,9.51821753 C2.00959124,9.40015971 2.10026935,8.83115089 1.88776527,8.24730074 C1.6752612,7.6634506 1.24004591,7.28585132 0.915684724,7.40390914 Z M22.1122347,8.24730074 C21.8997307,8.83115089 21.9904088,9.40015971 22.31477,9.51821753 C22.6391311,9.63627535 23.0743464,9.25867607 23.2868505,8.67482592 C23.4993546,8.09097578 23.4086765,7.52196695 23.0843153,7.40390914 C22.7599541,7.28585132 22.3247388,7.6634506 22.1122347,8.24730074 Z" id="_形状" fill="#000000"/>
        <path d="M7.34047228,2.03654516 C8.42478506,2.56653512 9.30803236,3.96418784 9.5199325,5.68997596 C9.80598546,8.0196904 8.76029032,10.0651651 7.18430702,10.2586715 C7.00906557,10.2801884 6.8346464,10.277901 6.66264011,10.253634 L6.03403445,9.8857318 C6.47905805,9.00757063 6.50764257,7.79754236 6.07530574,6.60970668 C5.7177833,5.62742185 5.11603487,4.87316223 4.4073301,4.45348799 C4.80419452,3.18182483 5.9128191,2.22047845 7.27503756,2.04428951 L7.34047228,2.03654516 Z M16.6595277,2.03654516 C18.0516253,2.1898824 19.1894738,3.16153645 19.5926699,4.45348799 C18.8839651,4.87316223 18.2822167,5.62742185 17.9246943,6.60970668 C17.5054585,7.76154734 17.5196328,8.93425596 17.9266573,9.80499459 L17.9659656,9.8857318 L17.3373599,10.253634 C17.1653536,10.277901 16.9909344,10.2801884 16.815693,10.2586715 C15.2397097,10.0651651 14.1940145,8.0196904 14.4800675,5.68997596 C14.6919676,3.96418784 15.5752149,2.56653512 16.6595277,2.03654516 Z" id="_形状" fill="#000000" opacity="0.600000024"/>
        <path d="M0.915684724,7.40390914 C1.24004591,7.28585132 1.6752612,7.6634506 1.88776527,8.24730074 C2.10026935,8.83115089 2.00959124,9.40015971 1.68523005,9.51821753 C1.36086886,9.63627535 0.92565357,9.25867607 0.713149497,8.67482592 C0.500645424,8.09097578 0.591323534,7.52196695 0.915684724,7.40390914 Z M23.0843153,7.40390914 C23.4086765,7.52196695 23.4993546,8.09097578 23.2868505,8.67482592 C23.0743464,9.25867607 22.6391311,9.63627535 22.31477,9.51821753 C21.9904088,9.40015971 21.8997307,8.83115089 22.1122347,8.24730074 C22.3247388,7.6634506 22.7599541,7.28585132 23.0843153,7.40390914 Z" id="_形状" fill="#000000" opacity="0.400000006"/>
    </g>
</svg>