<?xml version="1.0" encoding="UTF-8"?>
<svg xmlns="http://www.w3.org/2000/svg" width="24" height="24" version="1.1" viewBox="0 0 24 24">
  <g fill="#000" fill-opacity=".9" fill-rule="evenodd" stroke="none" stroke-width="1">
    <path d="M16,0.5 C16.5522847,0.5 17,0.94771525 17,1.5 L17,20.75 L7,20.75 L7,1.5 C7,0.94771525 7.44771525,0.5 8,0.5 L16,0.5 Z M12,2.75 C11.5857864,2.75 11.25,3.08578644 11.25,3.5 C11.25,3.91421356 11.5857864,4.25 12,4.25 C12.4142136,4.25 12.75,3.91421356 12.75,3.5 C12.75,3.08578644 12.4142136,2.75 12,2.75 Z"/>
    <path d="M10,18.75 L10,19.5 L9.625,19.5 C9.44378157,19.5 9.29258602,19.6285432 9.25761867,19.7994244 L9.25,19.875 C9.25,20.0562184 9.37854325,20.207414 9.54942442,20.2423813 L9.625,20.25 L9.96832133,20.2506762 C9.85707562,20.6816399 9.46571631,21 9,21 L1,21 C0.534283693,21 0.142924379,20.6816399 0.0316786723,20.2506762 L0.375,20.25 C0.582106781,20.25 0.75,20.0821068 0.75,19.875 C0.75,19.6937816 0.621456754,19.542586 0.45057558,19.5076187 L0.375,19.5 L-1.42108547e-13,19.5 L1.42108547e-13,18.75 L10,18.75 Z M6.875,19.5 L3.125,19.5 C2.91789322,19.5 2.75,19.6678932 2.75,19.875 C2.75,20.0562184 2.87854325,20.207414 3.04942442,20.2423813 L3.125,20.25 L6.875,20.25 C7.08210678,20.25 7.25,20.0821068 7.25,19.875 C7.25,19.6678932 7.08210678,19.5 6.875,19.5 Z M5,0 C5.41421356,0 5.75,0.335786438 5.75,0.75 C5.75,1.16421356 5.41421356,1.5 5,1.5 C4.58578644,1.5 4.25,1.16421356 4.25,0.75 C4.25,0.335786438 4.58578644,0 5,0 Z" opacity=".6" transform="translate(7 2.75)"/>
  </g>
</svg>