<?xml version="1.0" encoding="utf-8"?>
<!-- Generator: Adobe Illustrator 24.3.0, SVG Export Plug-In . SVG Version: 6.00 Build 0)  -->
<svg version="1.1" id="图层_1" xmlns="http://www.w3.org/2000/svg" xmlns:xlink="http://www.w3.org/1999/xlink" x="0px" y="0px"
	 viewBox="0 0 24 24" style="enable-background:new 0 0 24 24;" xml:space="preserve">
<style type="text/css">
	.st0{fill-rule:evenodd;clip-rule:evenodd;fill:none;}
	.st1{fill-rule:evenodd;clip-rule:evenodd;}
</style>
<rect y="0" class="st0" width="24" height="24"/>
<g>
	<path id="_uxs-a_1_" class="st1" d="M17,21.5v0.8h-0.4c-0.2,0-0.3,0.1-0.4,0.3l0,0.1c0,0.2,0.1,0.3,0.3,0.4l0.1,0l0.3,0
		c-0.1,0.4-0.5,0.7-1,0.7H8c-0.5,0-0.9-0.3-1-0.7l0.3,0c0.2,0,0.4-0.2,0.4-0.4c0-0.2-0.1-0.3-0.3-0.4l-0.1,0H7v-0.8H17z M13.9,22.2
		h-3.8c-0.2,0-0.4,0.2-0.4,0.4c0,0.2,0.1,0.3,0.3,0.4l0.1,0h3.8c0.2,0,0.4-0.2,0.4-0.4S14.1,22.2,13.9,22.2z M15.5,0.5
		C16.3,0.5,17,1.2,17,2v18.8h-1.5V2h-7v18.8H7V2c0-0.8,0.7-1.5,1.5-1.5H15.5z M12,3.5c0.4,0,0.8,0.3,0.8,0.8S12.4,5,12,5
		s-0.8-0.3-0.8-0.8S11.6,3.5,12,3.5z"/>
</g>
</svg>
