<?xml version="1.0" encoding="UTF-8"?>
<svg xmlns="http://www.w3.org/2000/svg" width="24" height="24" version="1.1" viewBox="0 0 24 24">
  <g fill="#000" fill-opacity=".9" fill-rule="evenodd" stroke="none" stroke-width="1">
    <path d="M14.25,2.5 C14.8022847,2.5 15.25,2.94771525 15.25,3.5 L15.25,20.25 L6.25,20.25 L6.25,3.5 C6.25,2.94771525 6.69771525,2.5 7.25,2.5 L14.25,2.5 Z M10.75,4.5 C10.3357864,4.5 10,4.83578644 10,5.25 C10,5.66421356 10.3357864,6 10.75,6 C11.1642136,6 11.5,5.66421356 11.5,5.25 C11.5,4.83578644 11.1642136,4.5 10.75,4.5 Z"/>
    <path d="M9,20.25 L9,21 L8.675,21 C8.49378157,21 8.34258602,21.1285432 8.30761867,21.2994244 L8.3,21.375 C8.3,21.5562184 8.42854325,21.707414 8.59942442,21.7423813 L8.675,21.75 L8.9873353,21.751311 C8.91538415,22.1763228 8.54549151,22.5 8.1,22.5 L0.9,22.5 C0.45450849,22.5 0.0846158468,22.1763228 0.0126647034,21.751311 L0.575,21.75 C0.782106781,21.75 0.95,21.5821068 0.95,21.375 C0.95,21.1937816 0.821456754,21.042586 0.65057558,21.0076187 L0.575,21 L-1.12798659e-13,21 L6.83009205e-13,20.25 L9,20.25 Z M6.125,21 L2.875,21 C2.66789322,21 2.5,21.1678932 2.5,21.375 C2.5,21.5562184 2.62854325,21.707414 2.79942442,21.7423813 L2.875,21.75 L6.125,21.75 C6.33210678,21.75 6.5,21.5821068 6.5,21.375 C6.5,21.1678932 6.33210678,21 6.125,21 Z M9,1.9220181e-10 C10.3807119,1.92201556e-10 11.5,1.11928813 11.5,2.5 L11.5,19.5 L11.375,19.5 C11.1937816,19.5 11.042586,19.6285432 11.0076187,19.7994244 L11,19.875 C11,20.0562184 11.1285432,20.207414 11.2994244,20.2423813 L11.375,20.25 L11.4683213,20.2506762 C11.3570756,20.6816399 10.9657163,21 10.5,21 L9.74954687,20.999 L9.75,2.75 C9.75,1.78350169 8.96649831,0.999999999 8,0.999999999 L3.00054687,0.999028669 C3.45669465,0.392357818 4.18252728,1.9220196e-10 5,1.9220181e-10 L9,1.9220181e-10 Z M4.5,3.75 C4.91421356,3.75 5.25,4.08578644 5.25,4.5 C5.25,4.91421356 4.91421356,5.25 4.5,5.25 C4.08578644,5.25 3.75,4.91421356 3.75,4.5 C3.75,4.08578644 4.08578644,3.75 4.5,3.75 Z" opacity=".6" transform="translate(6.25 .75)"/>
  </g>
</svg>