<?xml version="1.0" encoding="utf-8"?>
<!-- Generator: Adobe Illustrator 24.3.0, SVG Export Plug-In . SVG Version: 6.00 Build 0)  -->
<svg version="1.1" id="图层_1" xmlns="http://www.w3.org/2000/svg" xmlns:xlink="http://www.w3.org/1999/xlink" x="0px" y="0px"
	 viewBox="0 0 24 24" style="enable-background:new 0 0 24 24;" xml:space="preserve">
<style type="text/css">
	.st0{fill-rule:evenodd;clip-rule:evenodd;fill:none;}
	.st1{fill-rule:evenodd;clip-rule:evenodd;}
</style>
<rect y="0" class="st0" width="24" height="24"/>
<g>
	<path id="_uxs-a_1_" class="st1" d="M15.2,21v0.8h-0.4c-0.2,0-0.3,0.1-0.4,0.3l0,0.1c0,0.2,0.1,0.3,0.3,0.4l0.1,0l0.4,0
		c-0.1,0.4-0.4,0.7-0.9,0.7H7.2c-0.4,0-0.8-0.3-0.9-0.7l0.4,0c0.2,0,0.4-0.2,0.4-0.4c0-0.2-0.1-0.3-0.3-0.4l-0.1,0H6.2V21H15.2z
		 M12.4,21.7H9.1c-0.2,0-0.4,0.2-0.4,0.4c0,0.2,0.1,0.3,0.3,0.4l0.1,0h3.2c0.2,0,0.4-0.2,0.4-0.4S12.6,21.7,12.4,21.7z M15,0.7
		c1.4,0,2.5,1.1,2.5,2.5v17h-0.1c-0.2,0-0.3,0.1-0.4,0.3l0,0.1c0,0.2,0.1,0.3,0.3,0.4l0.1,0l0.1,0c-0.1,0.4-0.5,0.7-1,0.7l-0.5,0
		l0-18.2c0-1-0.8-1.8-1.8-1.8L9,1.7c0.5-0.6,1.2-1,2-1H15z M14,2.5c0.7,0,1.2,0.6,1.2,1.2v16.5h-1.5V4h-6v16.2H6.2V3.7
		c0-0.7,0.6-1.2,1.2-1.2H14z M10.8,5.2c0.4,0,0.8,0.3,0.8,0.8s-0.3,0.8-0.8,0.8S10,6.4,10,6S10.3,5.2,10.8,5.2z"/>
</g>
</svg>
