<?xml version="1.0" encoding="UTF-8"?>
<svg xmlns="http://www.w3.org/2000/svg" xmlns:xlink="http://www.w3.org/1999/xlink" width="24" height="24" viewBox="0 0 24 24" version="1.1">
    <!-- Generator: Sketch 63.1 (92452) - https://sketch.com -->
    <title>Linear/ic_device_foldablescreen</title>
    <desc>Created with Sketch.</desc>
    <g id="_Linear/ic_device_foldablescreen" stroke="none" stroke-width="1" fill="none" fill-rule="evenodd">
        <path d="M10.3729237,0.634595673 C11.3806218,0.394450511 12.4266141,0.372174458 13.44125,0.567639411 L13.7782051,0.640858701 L20.2796397,2.21551505 C21.2329984,2.44641982 21.9200873,3.26529264 21.9934881,4.23052483 L22,4.40228934 L22,21.0780163 C22,22.320657 20.9926407,23.3280163 19.75,23.3280163 C19.6271498,23.3280163 19.5046097,23.317955 19.3836019,23.2979831 L19.2033923,23.2606111 L12.128,21.48875 L4.78219925,23.2771833 C3.64793808,23.553309 2.50514369,22.9165029 2.12719593,21.8373201 L2.08047101,21.6874609 L2.06384723,21.6232298 C2.03557205,21.5070819 2.01662057,21.3889582 2.00712793,21.2699855 L2,21.0910305 L2,4.4067621 C2,3.42292043 2.63782512,2.56057538 3.56235136,2.26436034 L3.72840771,2.21805438 L10.3729237,0.634595673 Z M11.3751782,1.97700362 C11.2287321,1.99451711 11.082788,2.01764806 10.9376697,2.04639705 L10.7206519,2.09373415 L4.0761359,3.67719286 C3.7721347,3.74963957 3.54866558,4.00137031 3.50701177,4.30412867 L3.5,4.4067621 L3.5,21.0910305 C3.5,21.1508006 3.50714482,21.2103563 3.52128241,21.2684303 C3.61109299,21.6373516 3.95946324,21.8755037 4.32689764,21.8371679 L4.42739975,21.8197481 L11.375,20.1280501 L11.3751782,1.97700362 Z M12.8760394,1.99349905 L12.875,20.1290501 L19.5677974,21.8055479 C19.5975899,21.8130091 19.6277843,21.8186262 19.6582087,21.822378 L19.75,21.8280163 C20.1296958,21.8280163 20.443491,21.5458624 20.4931534,21.1797869 L20.5,21.0780163 L20.5,4.40228934 C20.5,4.09454882 20.3127614,3.82235375 20.0348324,3.70842811 L19.9265466,3.67336458 L13.4251119,2.09870822 C13.2434738,2.05471522 13.0602335,2.0196451 12.8760394,1.99349905 Z" id="_形状" fill="#000000" fill-rule="nonzero"/>
    </g>
</svg>