<?xml version="1.0" encoding="UTF-8"?>
<svg xmlns="http://www.w3.org/2000/svg" xmlns:xlink="http://www.w3.org/1999/xlink" width="24" height="24" viewBox="0 0 24 24" version="1.1">
    <!-- Generator: Sketch 63.1 (92452) - https://sketch.com -->
    <title>Filled/ic_device_foldablescreen_filled</title>
    <desc>Created with Sketch.</desc>
    <g id="_Filled/ic_device_foldablescreen_filled" stroke="none" stroke-width="1" fill="none" fill-rule="evenodd">
        <path d="M10.3729237,0.634595673 L3.72840771,2.21805438 C2.71507038,2.45954342 2,3.3650474 2,4.4067621 L2,21.0910305 C2,21.2703406 2.02143447,21.4490079 2.06384723,21.6232298 L2.08047101,21.6874609 C2.40123566,22.8567252 3.59638075,23.5658602 4.78219925,23.2771833 L12.128,21.48875 L19.2033923,23.2606111 C19.3821472,23.3053784 19.5657246,23.3280163 19.75,23.3280163 C20.9926407,23.3280163 22,22.320657 22,21.0780163 L22,4.40228934 C22,3.36366511 21.2890783,2.46000245 20.2796397,2.21551505 L13.7782051,0.640858701 C12.6595296,0.369913966 11.4925883,0.367767716 10.3729237,0.634595673 Z M13.4251119,2.09870822 L19.9265466,3.67336458 C20.2630261,3.75486038 20.5,4.05608126 20.5,4.40228934 L20.5,21.0780163 C20.5,21.4922299 20.1642136,21.8280163 19.75,21.8280163 C19.6885749,21.8280163 19.6273824,21.8204703 19.5677974,21.8055479 L12.3132768,19.9887302 C12.1952791,19.9591789 12.0718644,19.9587719 11.9536744,19.9875442 L4.42739975,21.8197481 C4.02494014,21.9177233 3.61925759,21.6708899 3.52128241,21.2684303 C3.50714482,21.2103563 3.5,21.1508006 3.5,21.0910305 L3.5,4.4067621 C3.5,4.05952386 3.73835679,3.75768921 4.0761359,3.67719286 L10.7206519,2.09373415 C11.6098847,1.88182052 12.5366646,1.88352506 13.4251119,2.09870822 Z" id="_Rectangle-Copy-6" fill="#000000" fill-rule="nonzero"/>
        <path d="M13.1897165,3.07060791 C12.4955858,2.9024885 11.7731703,2.89189079 11.0753495,3.03891201 L10.9524707,3.06649314 L4.5,4.604 L4.5,20.77275 L11.7171414,19.0159207 C11.9653404,18.9554989 12.2234141,18.950226 12.4732608,19.0000423 L12.5562135,19.018688 L19.5,20.75775 L19.5,4.599 L13.1897165,3.07060791 Z" id="_路径" fill="#000000" opacity="0.400000006"/>
        <path d="M12.0009339,2.93644626 L12.0004564,18.9711429 L11.8581123,18.9876805 L11.8581123,18.9876805 L11.7171414,19.0159207 L4.5,20.77275 L4.5,4.604 L11.0753495,3.03891201 C11.3806461,2.97459023 11.6906503,2.94043769 12.0009339,2.93644626 Z" id="_路径" fill="#000000" opacity="0.400000006"/>
    </g>
</svg>