<?xml version="1.0" encoding="UTF-8"?>
<svg xmlns="http://www.w3.org/2000/svg" xmlns:xlink="http://www.w3.org/1999/xlink" width="24" height="24" viewBox="0 0 24 24" version="1.1">
    <!-- Generator: Sketch 63.1 (92452) - https://sketch.com -->
    <title>Linear/ic_device_glass</title>
    <desc>Created with Sketch.</desc>
    <defs>
        <path d="M19.1439044,7.15503399 C19.6110171,6.7678611 20.7889624,7.15503399 21.5328105,7.77370648 C22.0287093,8.18615481 22.7530667,8.82427591 23.7058828,9.68806978 L23.6254699,9.61625521 C23.6437947,9.61910819 23.6621189,9.62196372 23.6804426,9.62482091 C23.7327006,9.6329207 23.7842389,9.64749237 23.8361371,9.66071408 C23.9096662,9.67949447 23.9462908,9.72698146 23.9511687,9.80265889 C23.9616443,9.9701339 23.9791569,10.1368148 23.9844747,10.3046472 C23.9909994,10.5375161 23.9909994,10.7708614 23.9907521,11.0041671 C23.9907521,11.0563789 23.9780774,11.1093452 23.9663623,11.1612791 C23.9510488,11.2285391 23.9149439,11.2778525 23.843574,11.3031445 C23.6801227,11.3608356 23.5799249,11.4910278 23.4819661,11.6238802 C23.3844071,11.756137 23.3479425,11.9111844 23.3050405,12.0640878 C23.2590599,12.227235 23.2080013,12.389191 23.1673784,12.5538867 C23.0897311,12.869024 23.0152824,13.1848363 22.9429528,13.5009662 C22.7953749,14.1473213 22.6320436,14.7888324 22.3777906,15.4038207 C22.2572413,15.6955719 22.110583,15.9731484 21.9128262,16.2219786 C21.6071547,16.6073935 21.1982867,16.8324009 20.7332824,16.9709311 C20.280113,17.1054511 19.814229,17.1650083 19.3429072,17.1852181 C18.5633552,17.2193245 17.7878414,17.1829946 17.0199644,17.0350941 C16.5094592,16.9363878 16.0191854,16.7782435 15.5609782,16.5298897 C14.9127708,16.1788195 14.4239365,15.6700417 14.0533324,15.0402038 C13.6064803,14.2822384 13.252989,13.4842902 12.9865811,12.646796 C12.9252069,12.4532349 12.8467199,12.2639619 12.7639947,12.0777065 C12.7216126,11.9820576 12.6606782,11.8914511 12.5948259,11.8096592 C12.4436095,11.6216567 12.2255412,11.57413 11.9987966,11.5609083 C11.9012777,11.5552305 11.8015996,11.5592407 11.70544,11.57413 C11.4031672,11.6202671 11.2003325,11.7941346 11.0955766,12.0754037 C11.0246464,12.2663442 10.9671506,12.4620891 10.9058964,12.6565634 C10.6937456,13.3341265 10.4572051,14.0024384 10.119987,14.630966 C9.78256892,15.2603274 9.34315376,15.8090483 8.79738335,16.2710935 C8.4397338,16.5733268 8.01859096,16.7597807 7.57309836,16.8939037 C6.97295082,17.0740048 6.35696994,17.1677876 5.73319234,17.212535 C5.11701155,17.2569647 4.50262999,17.2452121 3.89180695,17.1493249 C3.55095033,17.0954851 3.21857015,17.0111918 2.89894461,16.8790541 C2.37096671,16.6607965 1.99900318,16.2810197 1.73815291,15.7851857 C1.50453118,15.3414047 1.35779291,14.8671701 1.24524026,14.3821755 C1.12716993,13.8737153 1.01989505,13.3622375 0.904623544,12.8531024 C0.880073871,12.7442317 0.839450959,12.6388947 0.808703894,12.5310167 C0.759284683,12.3580624 0.720740896,12.1813759 0.661085991,12.0117171 C0.577441177,11.7743616 0.472245429,11.5457411 0.25389728,11.3946642 C0.208796253,11.3636547 0.156618202,11.3415788 0.105879546,11.3195823 C0.0580196789,11.2987373 0.030791133,11.2644323 0.023274295,11.2148409 C0.0141981131,11.1561969 -0.000235815115,11.0969573 0.000955617949,11.0382735 C0.0109994586,10.6478558 0.0246737064,10.2579543 0.0375083073,9.86797335 C0.0399472813,9.78618138 0.0889266775,9.73730472 0.162935545,9.71804787 L0.255859638,9.69398382 C0.248338367,9.69203301 0.240790419,9.69006167 0.233215794,9.68806978 C1.18603188,8.82427591 1.91038931,8.18615481 2.40628808,7.77370648 C3.15013624,7.15503399 4.32808154,6.7678611 4.79519419,7.15503399 C5.26230684,7.54220688 5.20391308,7.97007056 5.01251495,8.07673355 C4.82111681,8.18339654 4.55744624,7.88607948 4.1674832,7.88607948 C3.77752017,7.88607948 3.41670955,8.16810984 3.02347121,8.59796849 C2.7786389,8.8656008 2.4264428,9.18169055 2.1009626,9.42481172 L2.57652024,9.36396011 L2.57652024,9.36396011 C3.38829875,9.26723912 4.2037957,9.23650757 5.1116538,9.2351179 C6.22530533,9.22328586 7.41976286,9.32294501 8.60514422,9.54044812 C9.21480775,9.65174079 9.80212069,9.83779767 10.3898734,10.0265942 C10.7146568,10.1309782 11.0450378,10.226111 11.3799769,10.288527 C11.9371026,10.3923155 12.4878709,10.3163204 13.0246051,10.1475748 C13.3686604,10.0391409 13.7062784,9.91045753 14.0498138,9.80019719 C14.7296079,9.58201909 15.4293135,9.4549636 16.1362562,9.36622328 C17.2932095,9.22094327 18.4542011,9.19569099 19.6176317,9.2473867 C20.2221374,9.27438599 20.8260433,9.30078971 21.4291896,9.34251949 L21.7717128,9.374474 C21.4654658,9.1391189 21.1438864,8.84748415 20.9156274,8.59796849 C20.522389,8.16810984 20.1615784,7.88607948 19.7716154,7.88607948 C19.3816524,7.88607948 19.1179818,8.18339654 18.9265836,8.07673355 C18.7351855,7.97007056 18.6767918,7.54220688 19.1439044,7.15503399 Z M5.59768973,10.25 C5.35440508,10.263582 4.97751954,10.2784875 4.60158049,10.3079849 C4.09488003,10.347338 3.59283923,10.420089 3.10000851,10.5435115 C2.56079972,10.6788096 2.22537778,11.0094802 2.10044094,11.5284189 C2.06512953,11.6743389 2.05260672,11.8257265 2.03327646,11.9747111 C1.99479795,12.2710087 1.98882777,12.5675849 2.01987997,12.8654844 C2.07284707,13.3788858 2.14314225,13.8896405 2.2680791,14.3921066 C2.36389314,14.7770009 2.50674051,15.1415918 2.73946815,15.4734465 C2.94998965,15.7730526 3.22676553,15.9762957 3.59156511,16.0659372 C3.76870459,16.1088077 3.9462445,16.1539419 4.12625986,16.1799219 C5.04526647,16.311633 5.95375246,16.2553894 6.85204547,16.0305194 C7.29569505,15.9192163 7.69991963,15.7383661 8.0356692,15.4316904 C8.29012973,15.1996812 8.49071307,14.9291895 8.66741571,14.6402053 C8.99122493,14.1113761 9.23316266,13.5514823 9.37994161,12.9540812 C9.49359337,12.4900627 9.54146398,12.0222482 9.45733547,11.5477124 C9.41689117,11.3177579 9.32031266,11.1143058 9.13101441,10.9650077 C9.01645256,10.8745652 8.88900387,10.7951277 8.75769641,10.7283667 C8.49074948,10.5922676 8.19518938,10.5347006 7.90334244,10.4707605 C7.18888715,10.3131739 6.46260073,10.2604129 5.59768973,10.25 Z M18.1523103,10.25 C17.2873993,10.2604129 16.5611128,10.3131739 15.8466576,10.4707605 C15.5548106,10.5347006 15.2592505,10.5922676 14.9923036,10.7283667 C14.8609961,10.7951277 14.7335474,10.8745652 14.6189856,10.9650077 C14.4296873,11.1143058 14.3331088,11.3177579 14.2926645,11.5477124 C14.208536,12.0222482 14.2564066,12.4900627 14.3700584,12.9540812 C14.5168373,13.5514823 14.7587751,14.1113761 15.0825843,14.6402053 C15.2592869,14.9291895 15.4598703,15.1996812 15.7143308,15.4316904 C16.0500804,15.7383661 16.4543049,15.9192163 16.8979545,16.0305194 C17.7962475,16.2553894 18.7047335,16.311633 19.6237401,16.1799219 C19.8037555,16.1539419 19.9812954,16.1088077 20.1584349,16.0659372 C20.5232345,15.9762957 20.8000104,15.7730526 21.0105319,15.4734465 C21.2432595,15.1415918 21.3861069,14.7770009 21.4819209,14.3921066 C21.6068577,13.8896405 21.6771529,13.3788858 21.73012,12.8654844 C21.7611722,12.5675849 21.7552021,12.2710087 21.7167235,11.9747111 C21.6973933,11.8257265 21.6848705,11.6743389 21.6495591,11.5284189 C21.5246222,11.0094802 21.1892003,10.6788096 20.6499915,10.5435115 C20.1571608,10.420089 19.65512,10.347338 19.1484195,10.3079849 C18.7724805,10.2784875 18.3955949,10.263582 18.1523103,10.25 Z" id="_path-1"/>
    </defs>
    <g id="_Linear/ic_device_glass" stroke="none" stroke-width="1" fill="none" fill-rule="evenodd">
        <mask id="_mask-2" fill="white">
            <use xlink:href="#_path-1"/>
        </mask>
        <use id="_形状结合" fill="#000000" fill-rule="nonzero" xlink:href="#_path-1"/>
    </g>
</svg>