<?xml version="1.0" encoding="UTF-8"?>
<svg xmlns="http://www.w3.org/2000/svg" xmlns:xlink="http://www.w3.org/1999/xlink" width="24" height="24" viewBox="0 0 24 24" version="1.1">
    <!-- Generator: Sketch 63.1 (92452) - https://sketch.com -->
    <title>Filled/ic_device_glass_filled</title>
    <desc>Created with Sketch.</desc>
    <g id="_Filled/ic_device_glass_filled" stroke="none" stroke-width="1" fill="none" fill-rule="evenodd">
        <path d="M4.79519419,7.15503399 C5.26230684,7.54220688 5.20391308,7.97007056 5.01251495,8.07673355 C4.93192626,8.12164429 4.83852473,8.09493528 4.72827795,8.04895589 L4.59693109,7.99185999 C4.47348333,7.93878943 4.33167817,7.88607948 4.1674832,7.88607948 C3.79524576,7.88607948 3.44957075,8.14305342 3.0768994,8.5402803 L3.02347121,8.59796849 C2.77941594,8.8647514 2.42867729,9.17968466 2.10406238,9.4224947 C1.59604513,9.48521956 1.08843741,9.55285498 0.580759781,9.62120777 C0.501255726,9.63210675 0.422776395,9.64992786 0.344695569,9.66987995 L0.254215794,9.6935 L0.233215794,9.68806978 L0.233215794,9.68806978 L0.928227175,9.06173613 L0.928227175,9.06173613 L1.53110297,8.52641455 L1.53110297,8.52641455 L1.83423642,8.26137906 L1.83423642,8.26137906 L2.17084608,7.97187596 L2.17084608,7.97187596 L2.35024806,7.82046277 L2.35024806,7.82046277 L2.40628808,7.77370648 C3.15013624,7.15503399 4.32808154,6.7678611 4.79519419,7.15503399 Z M21.5328105,7.77370648 L21.778296,7.98042088 L21.778296,7.98042088 L22.0563214,8.21927851 L22.0563214,8.21927851 L22.4496127,8.56305197 L22.4496127,8.56305197 L22.8008533,8.87423187 L22.8008533,8.87423187 L23.2856634,9.30840817 L23.2856634,9.30840817 L23.6262158,9.61625 L23.3176848,9.56873882 C22.8020633,9.49006971 22.2855785,9.41726022 21.7663316,9.36965951 C21.4955106,9.16166365 21.2132719,8.90968699 20.994532,8.68205562 L20.9156274,8.59796849 C20.522389,8.16810984 20.1615784,7.88607948 19.7716154,7.88607948 C19.6279448,7.88607948 19.5014164,7.92643553 19.3893288,7.97207768 L19.2108206,8.04895589 C19.1005739,8.09493528 19.0071723,8.12164429 18.9265836,8.07673355 C18.7351855,7.97007056 18.6767918,7.54220688 19.1439044,7.15503399 C19.6110171,6.7678611 20.7889624,7.15503399 21.5328105,7.77370648 Z" id="_形状" fill="#000000" opacity="0.600000024"/>
        <path d="M19.6176317,9.2473867 C20.2221374,9.27438599 20.8260433,9.30078971 21.4291896,9.34251949 C22.1843519,9.39445342 22.9328371,9.5082475 23.6804426,9.62482091 C23.7327006,9.6329207 23.7842389,9.64749237 23.8361371,9.66071408 C23.9096662,9.67949447 23.9462908,9.72698146 23.9511687,9.80265889 C23.9616443,9.9701339 23.9791569,10.1368148 23.9844747,10.3046472 C23.9909994,10.5375161 23.9909994,10.7708614 23.9907521,11.0041671 C23.9907521,11.0563789 23.9780774,11.1093452 23.9663623,11.1612791 C23.9510488,11.2285391 23.9149439,11.2778525 23.843574,11.3031445 C23.6801227,11.3608356 23.5799249,11.4910278 23.4819661,11.6238802 C23.3844071,11.756137 23.3479425,11.9111844 23.3050405,12.0640878 C23.2590599,12.227235 23.2080013,12.389191 23.1673784,12.5538867 C23.0897311,12.869024 23.0152824,13.1848363 22.9429528,13.5009662 C22.7953749,14.1473213 22.6320436,14.7888324 22.3777906,15.4038207 C22.2572413,15.6955719 22.110583,15.9731484 21.9128262,16.2219786 C21.6071547,16.6073935 21.1982867,16.8324009 20.7332824,16.9709311 C20.280113,17.1054511 19.814229,17.1650083 19.3429072,17.1852181 C18.5633552,17.2193245 17.7878414,17.1829946 17.0199644,17.0350941 C16.5094592,16.9363878 16.0191854,16.7782435 15.5609782,16.5298897 C14.9127708,16.1788195 14.4239365,15.6700417 14.0533324,15.0402038 C13.6064803,14.2822384 13.252989,13.4842902 12.9865811,12.646796 C12.9252069,12.4532349 12.8467199,12.2639619 12.7639947,12.0777065 C12.7216126,11.9820576 12.6606782,11.8914511 12.5948259,11.8096592 C12.4436095,11.6216567 12.2255412,11.57413 11.9987966,11.5609083 C11.9012777,11.5552305 11.8015996,11.5592407 11.70544,11.57413 C11.4031672,11.6202671 11.2003325,11.7941346 11.0955766,12.0754037 C11.0246464,12.2663442 10.9671506,12.4620891 10.9058964,12.6565634 C10.6937456,13.3341265 10.4572051,14.0024384 10.119987,14.630966 C9.78256892,15.2603274 9.34315376,15.8090483 8.79738335,16.2710935 C8.4397338,16.5733268 8.01859096,16.7597807 7.57309836,16.8939037 C6.97295082,17.0740048 6.35696994,17.1677876 5.73319234,17.212535 C5.11701155,17.2569647 4.50262999,17.2452121 3.89180695,17.1493249 C3.55095033,17.0954851 3.21857015,17.0111918 2.89894461,16.8790541 C2.37096671,16.6607965 1.99900318,16.2810197 1.73815291,15.7851857 C1.50453118,15.3414047 1.35779291,14.8671701 1.24524026,14.3821755 C1.12716993,13.8737153 1.01989505,13.3622375 0.904623544,12.8531024 C0.880073871,12.7442317 0.83945096,12.6388947 0.808703894,12.5310167 C0.759284683,12.3580624 0.720740896,12.1813759 0.661085991,12.0117171 C0.577441177,11.7743616 0.472245429,11.5457411 0.25389728,11.3946642 C0.208796253,11.3636547 0.156618202,11.3415788 0.105879546,11.3195823 C0.0580196789,11.2987373 0.030791133,11.2644323 0.0232742951,11.2148409 C0.0141981131,11.1561969 -0.000235815104,11.0969573 0.00095561796,11.0382735 C0.0109994586,10.6478558 0.0246737064,10.2579543 0.0375083073,9.86797335 C0.0399472813,9.78618138 0.0889266775,9.73730472 0.162935545,9.71804787 C0.301317333,9.68183706 0.439419238,9.64058373 0.580759781,9.62120777 C1.24576004,9.53167335 1.91064035,9.44336979 2.57652024,9.36396011 C3.38829875,9.26723912 4.2037957,9.23650757 5.1116538,9.2351179 C6.22530533,9.22328586 7.41976286,9.32294501 8.60514422,9.54044812 C9.21480775,9.65174079 9.80212069,9.83779767 10.3898734,10.0265942 C10.7146568,10.1309782 11.0450378,10.226111 11.3799769,10.288527 C11.9371026,10.3923155 12.4878709,10.3163204 13.0246051,10.1475748 C13.3686604,10.0391409 13.7062784,9.91045753 14.0498138,9.80019719 C14.7296079,9.58201909 15.4293135,9.4549636 16.1362562,9.36622328 C17.2932095,9.22094327 18.4542011,9.19569099 19.6176317,9.2473867 Z M5.73427189,9.92550566 C5.46706429,9.94099055 5.05311842,9.95798422 4.64021212,9.99161422 C4.08368623,10.0364807 3.53227819,10.1194241 2.99098589,10.2601381 C2.39875502,10.4143914 2.03034999,10.7913888 1.89312772,11.3830306 C1.85434403,11.5493939 1.84058982,11.7219909 1.81935875,11.8918482 C1.77709653,12.229657 1.77053928,12.5677834 1.80464494,12.9074186 C1.86282047,13.4927473 1.94002799,14.0750585 2.07725026,14.64792 C2.18248599,15.0867379 2.33937999,15.5024078 2.59499247,15.8807553 C2.8262152,16.222336 3.13020732,16.4540534 3.53087877,16.5562537 C3.72543693,16.6051304 3.9204349,16.6565878 4.11815173,16.6862076 C5.12752712,16.8363713 6.12534738,16.772248 7.11197234,16.5158739 C7.59924736,16.3889772 8.0432206,16.18279 8.41198547,15.8331491 C8.6914679,15.5686355 8.91177523,15.260248 9.10585359,14.9307772 C9.46150398,14.3278592 9.7272322,13.6895245 9.88832443,13.008388 C10.0132719,12.4794004 10.0658498,11.9460453 9.97344862,11.4050271 C9.92902731,11.1428561 9.82295193,10.9109004 9.61503939,10.7406857 C9.48921232,10.6375723 9.34923121,10.5470055 9.20501188,10.4708914 C8.91181521,10.3157248 8.58719177,10.2500927 8.26664661,10.1771946 C7.48193671,9.99753024 6.68423227,9.93737741 5.73427189,9.92550566 Z M18.3346914,9.89469471 C18.0805982,9.90565324 17.7049962,9.91577798 17.3302739,9.93991852 C16.8503957,9.97072948 16.3745959,10.0402129 15.9028343,10.133162 C15.4790526,10.2165421 15.0587494,10.3152087 14.6569584,10.4765691 C14.2570467,10.638009 13.9915584,10.9183649 13.9126316,11.3477727 C13.880605,11.5201315 13.8624926,11.6967386 13.8580545,11.8716384 C13.8480187,12.2780175 13.9252662,12.6740335 14.0169477,13.0675482 C14.2150643,13.9194155 14.5690354,14.6976701 15.121563,15.3835712 C15.5525817,15.9183557 16.0943138,16.2716097 16.773748,16.4149442 C17.4593796,16.5597477 18.1509287,16.6467013 18.8529933,16.640428 C19.3178378,16.6364575 19.7796835,16.6072744 20.2310936,16.4858173 C20.5904225,16.3889375 20.9285202,16.2504073 21.2003259,15.9887127 C21.4440234,15.7542953 21.6061552,15.465522 21.725305,15.1530449 C21.9783643,14.4914829 22.1170064,13.8070509 22.1645218,13.1070999 L22.1807934,12.7558652 C22.18887,12.4406485 22.1730367,12.1244788 22.1608418,11.8090239 C22.153205,11.6102614 22.1373317,11.4093947 22.0661217,11.2220672 C22.0051073,11.0622949 21.9257007,10.9086769 21.8484532,10.755178 C21.7784827,10.6164493 21.6702082,10.5092462 21.5293075,10.4438126 C21.3808499,10.3745674 21.2305932,10.3034957 21.0733793,10.2591454 C20.2188987,10.017065 19.3399885,9.94357137 18.3346914,9.89469471 Z" id="_形状结合" fill="#000000"/>
        <path d="M5.73427189,9.92550566 C6.68423227,9.93737741 7.48193671,9.99753024 8.26664661,10.1771946 L8.48055794,10.2257792 C8.72991692,10.283684 8.97697003,10.3502063 9.20501188,10.4708914 C9.34923121,10.5470055 9.48921232,10.6375723 9.61503939,10.7406857 C9.82295193,10.9109004 9.92902731,11.1428561 9.97344862,11.4050271 C10.0596897,11.9099774 10.0196379,12.4082523 9.91232748,12.9025313 L9.88832443,13.008388 L9.85220846,13.1536934 C9.68881224,13.7805345 9.43610038,14.3709248 9.10585359,14.9307772 C8.91177523,15.260248 8.6914679,15.5686355 8.41198547,15.8331491 C8.0432206,16.18279 7.59924736,16.3889772 7.11197234,16.5158739 C6.12534738,16.772248 5.12752712,16.8363713 4.11815173,16.6862076 C3.99952163,16.6684358 3.88187033,16.6428023 3.76470553,16.6145817 L3.53087877,16.5562537 L3.53087877,16.5562537 C3.13020732,16.4540534 2.8262152,16.222336 2.59499247,15.8807553 C2.33937999,15.5024078 2.18248599,15.0867379 2.07725026,14.64792 C1.94002799,14.0750585 1.86282047,13.4927473 1.80464494,12.9074186 C1.77480249,12.6102378 1.77609257,12.3142121 1.80519377,12.0185437 L1.81935875,11.8918482 L1.84332755,11.6872787 C1.8555979,11.5849107 1.86985751,11.4828486 1.89312772,11.3830306 C2.03034999,10.7913888 2.39875502,10.4143914 2.99098589,10.2601381 C3.53227819,10.1194241 4.08368623,10.0364807 4.64021212,9.99161422 L4.83031997,9.97721888 L4.83031997,9.97721888 L5.19806397,9.95419383 L5.19806397,9.95419383 L5.73427189,9.92550566 L5.73427189,9.92550566 Z M18.3346914,9.89469471 C19.3399885,9.94357137 20.2188987,10.017065 21.0733793,10.2591454 C21.2305932,10.3034957 21.3808499,10.3745674 21.5293075,10.4438126 C21.6702082,10.5092462 21.7784827,10.6164493 21.8484532,10.755178 C21.9257007,10.9086769 22.0051073,11.0622949 22.0661217,11.2220672 C22.1373317,11.4093947 22.153205,11.6102614 22.1608418,11.8090239 C22.1705977,12.0613878 22.1826822,12.3142092 22.1829906,12.5666342 L22.1807934,12.7558652 L22.1755019,12.9098356 C22.1419962,13.6785188 22.0020886,14.4294614 21.725305,15.1530449 C21.6061552,15.465522 21.4440234,15.7542953 21.2003259,15.9887127 C20.9285202,16.2504073 20.5904225,16.3889375 20.2310936,16.4858173 C19.7796835,16.6072744 19.3178378,16.6364575 18.8529933,16.640428 C18.1509287,16.6467013 17.4593796,16.5597477 16.773748,16.4149442 C16.0943138,16.2716097 15.5525817,15.9183557 15.121563,15.3835712 C14.5690354,14.6976701 14.2150643,13.9194155 14.0169477,13.0675482 C13.9252662,12.6740335 13.8480187,12.2780175 13.8580545,11.8716384 C13.8624926,11.6967386 13.880605,11.5201315 13.9126316,11.3477727 C13.9915584,10.9183649 14.2570467,10.638009 14.6569584,10.4765691 C15.0587494,10.3152087 15.4790526,10.2165421 15.9028343,10.133162 C16.3745959,10.0402129 16.8503957,9.97072948 17.3302739,9.93991852 L17.5171417,9.92894749 L17.5171417,9.92894749 L17.7902816,9.91596855 L17.7902816,9.91596855 L18.3346914,9.89469471 L18.3346914,9.89469471 Z" id="_形状" fill="#000000" opacity="0.400000006"/>
    </g>
</svg>