<?xml version="1.0" encoding="UTF-8"?>
<svg xmlns="http://www.w3.org/2000/svg" xmlns:xlink="http://www.w3.org/1999/xlink" width="24" height="24" viewBox="0 0 24 24" version="1.1">
    <!-- Generator: Sketch 63.1 (92452) - https://sketch.com -->
    <title>Filled/ic_device_earphone_bluetooth_filled</title>
    <desc>Created with Sketch.</desc>
    <g id="_Filled/ic_device_earphone_bluetooth_filled" stroke="none" stroke-width="1" fill="none" fill-rule="evenodd">
        <path d="M12.326087,12.5584711 C12.5511385,12.5584711 12.7682571,12.6382491 12.9393542,12.7825971 L12.9811476,12.8200206 L14.6870845,14.4406607 C15.0679056,14.8024407 15.0833414,15.4044378 14.7215614,15.7852588 L12.9955,17.49975 L14.7022395,19.1949852 C15.062079,19.5523713 15.0764076,20.126072 14.7438042,20.5006634 L14.7068405,20.5400174 L12.9811476,22.1799794 C12.6003265,22.5417594 11.9983294,22.5263236 11.6365495,22.1455026 C11.4815453,21.9823403 11.389844,21.7699824 11.3766532,21.5465175 L11.375,21.4904419 L11.375,19.10925 L9.94042739,20.53436 C9.70616452,20.7670256 9.33391626,20.775903 9.08911604,20.5619001 L9.05654908,20.5313365 C8.82388346,20.2970736 8.81500609,19.9248253 9.02900899,19.6800251 L9.05957261,19.6474582 L11.22175,17.49975 L9.05957261,15.3525418 C8.82530975,15.1198762 8.81388588,14.7476974 9.02620898,14.5014388 L9.05654908,14.4686635 C9.2892147,14.2344007 9.66139352,14.2229768 9.9076521,14.4352999 L9.94042739,14.46564 L11.375,15.8905 L11.375,13.5095581 C11.375,13.000702 11.7746185,12.5851817 12.2771441,12.5597087 L12.326087,12.5584711 Z M12,1.25 C17.6043095,1.25 22.1581112,5.7477586 22.2486268,11.3304975 L22.25,11.5 L22.25,19.75 C22.25,20.8186072 21.6404921,21.7448563 20.7501603,22.2000633 L20.75,11.5 C20.75,6.66750844 16.8324916,2.75 12,2.75 C7.21583335,2.75 3.32844167,6.58955002 3.25117225,11.3553028 L3.25,11.5 L3.2498397,22.2000633 C2.35950786,21.7448563 1.75,20.8186072 1.75,19.75 L1.75,11.5 C1.75,5.83908131 6.33908131,1.25 12,1.25 Z M12.625,18.89375 L12.625,20.79375 L13.603,19.865 L12.625,18.89375 Z M12.625,14.206 L12.625,16.106 L13.603,15.13475 L12.625,14.206 Z" id="_形状" fill="#000000"/>
        <path d="M4.5,13.5 C6.01878306,13.5 7.25,14.7312169 7.25,16.25 L7.25,19.75 C7.25,21.2687831 6.01878306,22.5 4.5,22.5 C4.04978931,22.5 3.62484702,22.3918131 3.24975255,22.2000187 L3.24975255,13.7999813 C3.62484702,13.6081869 4.04978931,13.5 4.5,13.5 Z M19.5,13.5 C19.9501758,13.5 20.3750872,13.6081702 20.7501603,13.7999367 L20.7501603,22.2000633 C20.3750872,22.3918298 19.9501758,22.5 19.5,22.5 C17.9812169,22.5 16.75,21.2687831 16.75,19.75 L16.75,16.25 C16.75,14.7312169 17.9812169,13.5 19.5,13.5 Z" id="_形状" fill="#000000" opacity="0.6"/>
    </g>
</svg>