<?xml version="1.0" encoding="UTF-8"?>
<svg xmlns="http://www.w3.org/2000/svg" xmlns:xlink="http://www.w3.org/1999/xlink" width="24" height="24" viewBox="0 0 24 24" version="1.1">
    <!-- Generator: Sketch 63.1 (92452) - https://sketch.com -->
    <title>Linear/ic_device_earphone_roc</title>
    <desc>Created with Sketch.</desc>
    <defs>
        <path d="M12.0001023,1 C17.6830465,1 22.2998159,5.7590324 22.5148723,11.6980057 L22.5227047,11.9910921 C22.5227047,12.8411595 22.5227047,13.5107955 22.5227047,14 C22.5227047,13.9358292 22.5227047,13.9037438 22.5227047,13.9037438 C22.5227047,14.0507161 22.4035601,14.1698607 22.2565878,14.1698607 C22.226282,14.1698607 22.196313,14.1646851 22.1679438,14.154663 L22.1225,14.134 L22.0883869,14.4984579 C22.0730855,14.6300898 22.0550588,14.7617216 22.0343067,14.8933535 C21.9749657,15.2697581 21.8995311,15.5361088 21.8080028,15.6924054 L21.7857426,15.7244035 L21.7587785,15.7525518 L21.6425155,15.8584329 C21.4974677,15.9933649 21.3924102,16.1034521 21.3273432,16.1886945 L21.2860412,16.247968 L21.2597287,16.297446 C21.32645,16.3659545 21.3502384,16.4694986 21.3133082,16.563462 C20.9750792,17.422836 20.6111801,18.2702397 20.221611,19.1056734 C19.8320522,19.9410849 19.4168247,20.7645269 18.9759285,21.5759994 C18.9234016,21.6726757 18.8157455,21.7213855 18.7120316,21.7027326 L18.6507489,21.6833021 L18.0837607,21.4178866 L16.6769434,22.6420305 C16.5527422,22.7501398 16.3851928,22.7888453 16.229158,22.7504184 L16.1373578,22.7180444 L16.0661236,22.6841981 L16.0649337,22.6882795 L14.9773644,22.1811376 C14.0239549,21.7365555 13.5857106,20.6360553 13.9493841,19.6674834 L14.0099854,19.5232855 L16.5456949,14.0854388 C16.9902771,13.1320293 18.0907773,12.693785 19.0593492,13.0574585 L19.203547,13.1180598 L20.2021236,13.5841981 L20.204879,13.5809815 L20.3635404,13.6549666 C20.5170387,13.726544 20.6220649,13.8698506 20.6466866,14.0337468 L20.6521493,14.1171739 L20.6187607,15.9798866 L20.8603388,16.0943023 C20.9839169,15.9072404 21.1002395,15.6524352 21.2093067,15.3298866 C21.3514584,14.9094962 21.4131325,14.3604542 21.3921987,13.6822943 C21.1892758,13.4845976 21.0713113,13.2116347 21.0713113,12.9216169 L21.0713113,12.131318 C21.0713113,6.7813498 17.000956,2.45984498 12.0001023,2.45984498 C6.99924868,2.45984498 2.92889343,6.7813498 2.92889343,12.131318 L2.92889343,12.9175745 C2.92889343,13.2060382 2.81218294,13.4776906 2.61237115,13.6750199 C2.61106168,13.6767584 2.61019072,13.6851287 2.60975827,13.7001308 C2.5904463,14.3700875 2.65227934,14.913188 2.79318265,15.3298866 C2.90224989,15.6524352 3.01857253,15.9072404 3.14215057,16.0943023 L3.38372872,15.9798866 L3.35034008,14.1171739 C3.34676224,13.919612 3.45986767,13.7384735 3.63894898,13.6549666 L3.79761035,13.5809815 L4.79894237,13.1180598 C5.80002231,12.6512485 6.98998322,13.0843589 7.45679446,14.0854388 L9.99250403,19.5232855 C10.4593153,20.5243655 10.0262049,21.7143264 9.02512498,22.1811376 L7.93755564,22.6882795 L7.93537416,22.6841981 L7.86513159,22.7180444 C7.68605029,22.8015514 7.47458742,22.7717616 7.32554597,22.6420305 L5.9185,21.417 L5.35174048,21.6833021 C5.23201154,21.7389507 5.08959323,21.692011 5.02656084,21.5759994 C4.58566464,20.7645269 4.17043715,19.9410849 3.78087836,19.1056734 C3.39130925,18.2702397 3.02741021,17.422836 2.68918123,16.563462 C2.65225102,16.4694986 2.6760394,16.3659545 2.74276066,16.297446 L2.71644819,16.247968 C2.67137641,16.1751479 2.58631419,16.0774831 2.46126154,15.9549735 L2.24371088,15.7525518 C2.22426724,15.7351921 2.20765844,15.714898 2.19448661,15.6924054 C2.1029583,15.5361088 2.02752365,15.2697581 1.96818265,14.8933535 C1.92809706,14.6390874 1.89818031,14.3848213 1.8784324,14.1305553 C1.74619511,14.205973 1.58390847,14.1606531 1.51176564,14.0326052 C1.48930189,13.9927338 1.4775,13.9477431 1.4775,13.901979 L1.4775,11.9488374 L1.48115465,11.8351762 C1.62947137,5.83248126 6.27347205,1 12.0001023,1 Z M5.33009852,13.9811787 L5.22156063,14.0243676 L4.31483022,14.4460795 L7.69577632,21.6965418 L8.60250672,21.2748298 C9.06729384,21.0580961 9.28721651,20.5295962 9.12938507,20.0544417 L9.08619625,19.9459038 L6.55048668,14.5080571 C6.33375289,14.04327 5.80525304,13.8233473 5.33009852,13.9811787 Z M17.5073863,14.4052057 L17.4520027,14.5080571 L14.9162931,19.9459038 L14.8731043,20.0544417 C14.7274138,20.4930459 14.9035965,20.977104 15.2971313,21.2194462 L15.3999827,21.2748298 L16.3067131,21.6965418 L19.6876592,14.4460795 L18.7809288,14.0243676 L18.6723909,13.9811787 C18.2337867,13.8354882 17.7497285,14.0116709 17.5073863,14.4052057 Z" id="_path-1"/>
    </defs>
    <g id="_Linear/ic_device_earphone_roc" stroke="none" stroke-width="1" fill="none" fill-rule="evenodd">
        <mask id="_mask-2" fill="white">
            <use xlink:href="#_path-1"/>
        </mask>
        <use id="_形状" fill="#000000" xlink:href="#_path-1"/>
    </g>
</svg>