<?xml version="1.0" encoding="UTF-8"?>
<svg xmlns="http://www.w3.org/2000/svg" xmlns:xlink="http://www.w3.org/1999/xlink" width="24" height="24" viewBox="0 0 24 24" version="1.1">
    <!-- Generator: Sketch 63.1 (92452) - https://sketch.com -->
    <title>Linear/ic_device_earphone</title>
    <desc>Created with Sketch.</desc>
    <g id="_Linear/ic_device_earphone" stroke="none" stroke-width="1" fill="none" fill-rule="evenodd">
        <path d="M22.5,19.6094601 C22.5,21.4195855 21.0815167,22.8984063 19.2954895,22.9949831 L19.1094601,23 L18.8905399,23 C17.0804145,23 15.6015937,21.5815167 15.5050169,19.7954895 L15.5,19.6094601 L15.5,16.3905399 C15.5,14.5804145 16.9184833,13.1015937 18.7045105,13.0050169 L18.8905399,13 L19.1094601,13 C19.8100271,13 20.460968,13.2124742 21.0013572,13.5764969 L21,11.5 C21,6.52943725 16.9705627,2.5 12,2.5 C7.07914288,2.5 3.08068286,6.44925145 3.00120574,11.3511685 L2.99965296,13.5758167 C3.479822,13.2526103 4.0472018,13.0490268 4.65908219,13.0077762 L4.89053989,13 L5.10946011,13 C6.91958547,13 8.3984063,14.4184833 8.4949831,16.2045105 L8.5,16.3905399 L8.5,19.6094601 C8.5,21.4195855 7.08151668,22.8984063 5.29548954,22.9949831 L5.10946011,23 L4.89053989,23 C3.08041453,23 1.6015937,21.5815167 1.5050169,19.7954895 L1.5,19.6094601 L1.5,11.5 C1.5,5.70101013 6.20101013,1 12,1 C17.741,1 22.40587,5.60746003 22.4985933,11.3263633 L22.5,11.5 L22.5,19.6094601 Z M19.1094601,14.5 L18.8905399,14.5 C17.8961434,14.5 17.08106,15.2677311 17.0056879,16.2427953 L17,16.3905399 L17,19.6094601 C17,20.6038566 17.7677311,21.41894 18.7427953,21.4943121 L18.8905399,21.5 L19.1094601,21.5 C20.1038566,21.5 20.91894,20.7322689 20.9943121,19.7572047 L21,19.6094601 L21,16.3905399 C21,15.3961434 20.2322689,14.58106 19.2572047,14.5056879 L19.1094601,14.5 Z M5.10946011,14.5 L4.89053989,14.5 C3.89614337,14.5 3.08106005,15.2677311 3.00568793,16.2427953 L3,16.3905399 L3,19.6094601 C3,20.6038566 3.7677311,21.41894 4.74279531,21.4943121 L4.89053989,21.5 L5.10946011,21.5 C6.10385663,21.5 6.91893995,20.7322689 6.99431207,19.7572047 L7,19.6094601 L7,16.3905399 C7,15.3961434 6.2322689,14.58106 5.25720469,14.5056879 L5.10946011,14.5 Z" id="_形状" fill="#000000" fill-rule="nonzero"/>
    </g>
</svg>