<?xml version="1.0" encoding="UTF-8"?>
<svg xmlns="http://www.w3.org/2000/svg" xmlns:xlink="http://www.w3.org/1999/xlink" width="24" height="24" viewBox="0 0 24 24" version="1.1">
    <!-- Generator: Sketch 63.1 (92452) - https://sketch.com -->
    <title>Filled/ic_device_earphone_filled</title>
    <desc>Created with Sketch.</desc>
    <g id="_Filled/ic_device_earphone_filled" stroke="none" stroke-width="1" fill="none" fill-rule="evenodd">
        <path d="M12,1.25 C17.6043095,1.25 22.1581112,5.7477586 22.2486268,11.3304975 L22.25,11.5 L22.25,19.75 C22.25,20.8186072 21.6404921,21.7448563 20.7501603,22.2000633 L20.75,11.5 C20.75,6.66750844 16.8324916,2.75 12,2.75 C7.21583335,2.75 3.32844167,6.58955002 3.25117225,11.3553028 L3.25,11.5 L3.2498397,22.2000633 C2.35950786,21.7448563 1.75,20.8186072 1.75,19.75 L1.75,11.5 C1.75,5.83908131 6.33908131,1.25 12,1.25 Z" id="_路径" fill="#000000"/>
        <path d="M4.5,13.5 C6.01878306,13.5 7.25,14.7312169 7.25,16.25 L7.25,19.75 C7.25,21.2687831 6.01878306,22.5 4.5,22.5 C4.04978931,22.5 3.62484702,22.3918131 3.24975255,22.2000187 L3.24975255,13.7999813 C3.62484702,13.6081869 4.04978931,13.5 4.5,13.5 Z M19.5,13.5 C19.9501758,13.5 20.3750872,13.6081702 20.7501603,13.7999367 L20.7501603,22.2000633 C20.3750872,22.3918298 19.9501758,22.5 19.5,22.5 C17.9812169,22.5 16.75,21.2687831 16.75,19.75 L16.75,16.25 C16.75,14.7312169 17.9812169,13.5 19.5,13.5 Z" id="_形状" fill="#000000" opacity="0.6"/>
    </g>
</svg>