<?xml version="1.0" encoding="UTF-8"?>
<svg xmlns="http://www.w3.org/2000/svg" xmlns:xlink="http://www.w3.org/1999/xlink" width="24" height="24" viewBox="0 0 24 24" version="1.1">
    <!-- Generator: Sketch 63.1 (92452) - https://sketch.com -->
    <title>Linear/ic_device_earphone_bluetooth</title>
    <desc>Created with Sketch.</desc>
    <defs>
        <path d="M22.5,19.75 C22.5,21.5449254 21.0449254,23 19.25,23 C17.4550746,23 16,21.5449254 16,19.75 L16,19.75 L16,16.25 C16,14.4550746 17.4550746,13 19.25,13 C19.894978,13 20.496074,13.1878807 21.0015445,13.5118984 L21,11.5 C21,6.52943725 16.9705627,2.5 12,2.5 C7.07914288,2.5 3.08068286,6.44925145 3.00120574,11.3511685 L3,11.5 L2.99945917,13.5112553 C3.50472161,13.1876321 4.10544889,13 4.75,13 C6.54492544,13 8,14.4550746 8,16.25 L8,16.25 L8,19.75 C8,21.5449254 6.54492544,23 4.75,23 C2.95507456,23 1.5,21.5449254 1.5,19.75 L1.5,19.75 L1.5,11.5 C1.5,5.70101013 6.20101013,1 12,1 C17.741,1 22.40587,5.60746003 22.4985933,11.3263633 L22.5,11.5 Z M19.25,14.5 C18.2835017,14.5 17.5,15.2835017 17.5,16.25 L17.5,16.25 L17.5,19.75 C17.5,20.7164983 18.2835017,21.5 19.25,21.5 C20.2164983,21.5 21,20.7164983 21,19.75 L21,19.75 L21,16.25 C21,15.2835017 20.2164983,14.5 19.25,14.5 Z M4.75,14.5 C3.78350169,14.5 3,15.2835017 3,16.25 L3,16.25 L3,19.75 C3,20.7164983 3.78350169,21.5 4.75,21.5 C5.71649831,21.5 6.5,20.7164983 6.5,19.75 L6.5,19.75 L6.5,16.25 C6.5,15.2835017 5.71649831,14.5 4.75,14.5 Z M12.326087,13.0584711 C12.5511385,13.0584711 12.7682571,13.1382491 12.9393542,13.2825971 L12.9811476,13.3200206 L14.6870845,14.9406607 C15.0679056,15.3024407 15.0833414,15.9044378 14.7215614,16.2852588 L12.9955,17.99975 L14.7022395,19.6949852 C15.062079,20.0523713 15.0764076,20.626072 14.7438042,21.0006634 L14.7068405,21.0400174 L12.9811476,22.6799794 C12.6003265,23.0417594 11.9983294,23.0263236 11.6365495,22.6455026 C11.4815453,22.4823403 11.389844,22.2699824 11.3766532,22.0465175 L11.375,21.9904419 L11.375,19.60925 L9.94042739,21.03436 C9.70616452,21.2670256 9.33391626,21.275903 9.08911604,21.0619001 L9.05654908,21.0313365 C8.82388346,20.7970736 8.81500609,20.4248253 9.02900899,20.1800251 L9.05957261,20.1474582 L11.22175,17.99975 L9.05957261,15.8525418 C8.82530975,15.6198762 8.81388588,15.2476974 9.02620898,15.0014388 L9.05654908,14.9686635 C9.2892147,14.7344007 9.66139352,14.7229768 9.9076521,14.9352999 L9.94042739,14.96564 L11.375,16.3905 L11.375,14.0095581 C11.375,13.500702 11.7746185,13.0851817 12.2771441,13.0597087 L12.326087,13.0584711 Z M12.625,19.39375 L12.625,21.29375 L13.603,20.365 L12.625,19.39375 Z M12.625,14.706 L12.625,16.606 L13.603,15.63475 L12.625,14.706 Z" id="_path-1"/>
    </defs>
    <g id="_Linear/ic_device_earphone_bluetooth" stroke="none" stroke-width="1" fill="none" fill-rule="evenodd">
        <mask id="_mask-2" fill="white">
            <use xlink:href="#_path-1"/>
        </mask>
        <use id="_形状结合" fill="#000000" fill-rule="nonzero" xlink:href="#_path-1"/>
    </g>
</svg>