<?xml version="1.0" encoding="UTF-8"?>
<svg xmlns="http://www.w3.org/2000/svg" xmlns:xlink="http://www.w3.org/1999/xlink" width="24" height="24" viewBox="0 0 24 24" version="1.1">
    <!-- Generator: Sketch 63.1 (92452) - https://sketch.com -->
    <title>Filled/ic_device_earphone_roc_filled</title>
    <desc>Created with Sketch.</desc>
    <g id="_Filled/ic_device_earphone_roc_filled" stroke="none" stroke-width="1" fill="none" fill-rule="evenodd">
        <path d="M6.72912456,13.8943452 L9.68745239,20.2384997 C10.0375608,20.9893097 9.71272806,21.8817804 8.9619181,22.2318888 L8.05561032,22.6545071 L3.8294277,13.5914292 L4.73573549,13.1688109 C5.48654544,12.8187025 6.37901613,13.1435353 6.72912456,13.8943452 Z M17.2714504,13.8943452 C17.6215589,13.1435353 18.5140296,12.8187025 19.2648395,13.1688109 L19.2648395,13.1688109 L20.1711473,13.5914292 L15.9449647,22.6545071 L15.0386569,22.2318888 C14.2878469,21.8817804 13.9630142,20.9893097 14.3131226,20.2384997 L14.3131226,20.2384997 Z M2.64379636,13.6426395 C2.61819903,14.3439081 2.67936388,14.9096392 2.825,15.3403342 C2.93406724,15.6628828 3.05038988,15.9176881 3.17396792,16.10475 L3.41554607,15.9903342 L3.41701454,16.0523695 C3.41870354,16.1456331 3.43342775,16.2379684 3.46057683,16.3267357 L3.51054281,16.4568807 L5.65557185,21.0569103 C5.69499321,21.1414497 5.74594929,21.2198467 5.80681026,21.2899371 L5.90532664,21.388572 L5.95054607,21.4283342 L5.38355783,21.6937498 C5.26382889,21.7493984 5.12141058,21.7024586 5.05837819,21.5864471 C4.61748199,20.7749746 4.2022545,19.9515326 3.81269571,19.1161211 C3.4231266,18.2806874 3.05922756,17.4332836 2.72099858,16.5739097 C2.68406838,16.4799463 2.70785675,16.3764021 2.77457801,16.3078936 L2.74826555,16.2584156 C2.69192581,16.1673905 2.57310103,16.0375455 2.3917912,15.8688806 L2.27552824,15.7629995 C2.2560846,15.7456398 2.23947579,15.7253457 2.22630396,15.7028531 C2.13477565,15.5465565 2.059341,15.2802058 2,14.9038011 C1.95849592,14.6405374 1.92789309,14.3772738 1.90819151,14.1140101 L2.38693069,13.8449793 C2.48390684,13.7903425 2.57017238,13.7217945 2.64379636,13.6426395 Z M21.3571837,13.6475148 C21.4066873,13.7006237 21.4618869,13.748941 21.5221957,13.7914665 L21.6164174,13.8507858 L22.0921583,14.1170131 C22.072449,14.3792758 22.0419213,14.6415384 22.000575,14.9038011 C21.941234,15.2802058 21.8657993,15.5465565 21.774271,15.7028531 L21.7520108,15.7348511 L21.7250468,15.7629995 L21.6087838,15.8688806 C21.4637359,16.0038125 21.3586785,16.1138997 21.2936115,16.1991422 L21.2523094,16.2584156 L21.225997,16.3078936 C21.2927182,16.3764021 21.3165066,16.4799463 21.2795764,16.5739097 C20.9413474,17.4332836 20.5774484,18.2806874 20.1878793,19.1161211 C19.7983205,19.9515326 19.383093,20.7749746 18.9421968,21.5864471 C18.8896698,21.6831234 18.7820137,21.7318331 18.6782998,21.7131802 L18.6170172,21.6937498 L18.0489647,21.4283342 L18.0952484,21.388572 C18.2007859,21.2967082 18.2858711,21.1837194 18.3450031,21.0569103 L20.4900322,16.4568807 C20.5491642,16.3300716 20.581027,16.1922649 20.5835605,16.0523695 L20.5839647,15.9903342 L20.8266071,16.10475 C20.9254695,15.9551004 21.0196885,15.7620952 21.109264,15.5257342 L21.175575,15.3403342 C21.3098038,14.9433745 21.3722759,14.4317045 21.3629914,13.8053241 L21.3571837,13.6475148 Z" id="_形状结合" fill="#000000" opacity="0.600000024"/>
        <path d="M3.8294277,13.5914292 L8.05561032,22.6545071 L7.89694894,22.7284921 C7.71786764,22.8119991 7.50640477,22.7822093 7.35736332,22.6524781 L5.90532664,21.388572 C5.79978905,21.2967082 5.71470389,21.1837194 5.65557185,21.0569103 L3.51054281,16.4568807 C3.45141076,16.3300716 3.41954804,16.1922649 3.41701454,16.0523695 L3.38215743,14.1276216 C3.37857959,13.9300596 3.49168502,13.7489212 3.67076633,13.6654142 L3.8294277,13.5914292 Z M20.1711473,13.5914292 L20.3298087,13.6654142 C20.50889,13.7489212 20.6219954,13.9300596 20.6184176,14.1276216 L20.6184176,14.1276216 L20.5835605,16.0523695 C20.581027,16.1922649 20.5491642,16.3300716 20.4900322,16.4568807 L20.4900322,16.4568807 L18.3450031,21.0569103 C18.2858711,21.1837194 18.2007859,21.2967082 18.0952484,21.388572 L18.0952484,21.388572 L16.6432117,22.6524781 C16.4941702,22.7822093 16.2827074,22.8119991 16.103626,22.7284921 L16.103626,22.7284921 L15.9449647,22.6545071 L20.1711473,13.5914292 Z M12.0001023,1 C17.6830465,1 22.2998159,5.7590324 22.5148723,11.6980057 L22.5227047,11.9910921 L22.5227047,13.9037438 C22.5227047,14.0507161 22.4035601,14.1698607 22.2565878,14.1698607 C22.2111291,14.1698607 22.1664283,14.1582157 22.1267476,14.136036 L21.6164174,13.8507858 C21.2798361,13.6626528 21.0713113,13.3072087 21.0713113,12.9216169 L21.0713113,12.131318 C21.0713113,6.7813498 17.000956,2.45984498 12.0001023,2.45984498 C6.99924868,2.45984498 2.92889343,6.7813498 2.92889343,12.131318 L2.92889343,12.9175745 C2.92889343,13.3018764 2.72174924,13.6563409 2.38693069,13.8449793 L1.87424299,14.1338302 C1.74619511,14.205973 1.58390847,14.1606531 1.51176564,14.0326052 C1.48930189,13.9927338 1.4775,13.9477431 1.4775,13.901979 L1.4775,11.9488374 L1.4795,11.948 L1.48115465,11.8351762 C1.62947137,5.83248126 6.27347205,1 12.0001023,1 Z" id="_形状结合" fill-opacity="0.9" fill="#000000"/>
    </g>
</svg>