<?xml version="1.0" encoding="UTF-8"?>
<svg xmlns="http://www.w3.org/2000/svg" xmlns:xlink="http://www.w3.org/1999/xlink" width="24" height="24" viewBox="0 0 24 24" version="1.1">
    <!-- Generator: Sketch 63.1 (92452) - https://sketch.com -->
    <title>Linear/ic_device_kidswatch</title>
    <desc>Created with Sketch.</desc>
    <defs>
        <path d="M14.5214865,0.75 C15.4585603,0.75 16.2749198,1.38094241 16.5148595,2.28118453 L16.5532842,2.43599252 C16.7145519,3.05438066 17.0610634,3.73082484 17.5990115,4.46082374 C18.7327895,5.31647143 19.4727065,6.66567656 19.4992607,8.18880887 L19.5,8.27367983 L19.5002252,9.79275606 C19.7914056,9.89577871 20,10.1735294 20,10.5 L20,13.5 C20,13.8264706 19.7914056,14.1042213 19.5002252,14.2072439 L19.5,15.7263202 C19.5,17.2843656 18.7535809,18.6680755 17.5988257,19.539367 C17.0609054,20.2692499 16.7145151,20.9455267 16.5532842,21.5637738 L16.5306585,21.6553418 C16.3128247,22.5891365 15.4803527,23.2497663 14.5214865,23.2497663 L9.46383477,23.2497663 C8.49827783,23.2497663 7.66510396,22.5807679 7.45224074,21.6449081 L7.43869429,21.5806907 C7.30360584,20.8864298 6.98818239,20.227992 6.48394182,19.6001224 C5.30330773,18.7484929 4.5279338,17.37105 4.50073929,15.8111911 L4.5,15.7263202 L4.5,8.27367983 C4.5,6.67920245 5.2817344,5.26730892 6.48284509,4.40035735 C6.96213395,3.80440962 7.27078548,3.18088421 7.41655017,2.52532151 L7.45224074,2.3548582 C7.66026616,1.44026794 8.46072669,0.78054686 9.3982122,0.75103195 L9.46383477,0.75 L14.5214865,0.75 Z M15.3452334,20.4601057 L15.3124605,20.4643734 C15.147815,20.4845319 14.9805786,20.4963076 14.8111911,20.4992607 L14.7263202,20.5 L9.27367983,20.5 C9.07308466,20.5 8.87537928,20.4876273 8.68128521,20.4636035 C8.77959809,20.7346773 8.85610451,21.0116582 8.91108075,21.2941979 C8.9625604,21.558772 9.19429995,21.7497663 9.46383477,21.7497663 L14.5214839,21.7497663 C14.7832013,21.7497663 15.0104219,21.5694495 15.0698788,21.3145741 L15.0972922,21.2027687 C15.1603143,20.9576019 15.2430175,20.7100884 15.3452334,20.4601057 Z M14.7263202,5 L9.27367983,5 C7.491505,5 6.04194633,6.42409903 6.00089408,8.19640683 L6,8.27367983 L6,15.7263202 C6,17.508495 7.42409903,18.9580537 9.19640683,18.9991059 L9.27367983,19 L14.7263202,19 C16.508495,19 17.9580537,17.575901 17.9991059,15.8035932 L18,15.7263202 L18,8.27367983 C18,6.46567638 16.5343236,5 14.7263202,5 Z M14.5214839,2.25 L9.46383477,2.25 C9.19429995,2.25 8.9625604,2.44099438 8.91108075,2.70556843 C8.8560944,2.98816009 8.77956997,3.26519089 8.68174069,3.53651629 C8.84794932,3.51576779 9.01727614,3.50372979 9.18880887,3.50073929 L9.27367983,3.5 L14.7263202,3.5 C14.9363075,3.5 15.143128,3.5135584 15.3459542,3.53984753 C15.2612145,3.33419949 15.1903244,3.13022328 15.1327331,2.92784994 L15.0972922,2.79699767 L15.0698788,2.68519225 C15.0104219,2.43031681 14.7832013,2.25 14.5214839,2.25 Z" id="_path-1"/>
    </defs>
    <g id="_Linear/ic_device_kidswatch" stroke="none" stroke-width="1" fill="none" fill-rule="evenodd">
        <mask id="_mask-2" fill="white">
            <use xlink:href="#_path-1"/>
        </mask>
        <use id="_形状" fill="#000000" fill-rule="nonzero" xlink:href="#_path-1"/>
    </g>
</svg>