<?xml version="1.0" encoding="UTF-8"?>
<svg xmlns="http://www.w3.org/2000/svg" xmlns:xlink="http://www.w3.org/1999/xlink" width="24" height="24" viewBox="0 0 24 24" version="1.1">
    <!-- Generator: Sketch 63.1 (92452) - https://sketch.com -->
    <title>Filled/ic_device_matebook_filled</title>
    <desc>Created with Sketch.</desc>
    <g id="_Filled/ic_device_matebook_filled" stroke="none" stroke-width="1" fill="none" fill-rule="evenodd">
        <path d="M23.2497746,19.5 C23.6639882,19.5 23.9997746,19.8357864 23.9997746,20.25 C23.9997746,20.6494202 23.6875446,20.9759152 23.2938428,20.9987268 L23.2497746,21 L0.75,21 C0.335786438,21 -1.93089988e-12,20.6642136 -1.93089988e-12,20.25 C-1.93089988e-12,19.8505798 0.312229991,19.5240848 0.705931803,19.5012732 L0.75,19.5 L23.2497746,19.5 Z M19.75,3 C21.5449254,3 23,4.45507456 23,6.25 L23,6.25 L23,15.75 C23,17.5449254 21.5449254,19 19.75,19 L19.75,19 L4.25,19 C2.45507456,19 1,17.5449254 1,15.75 L1,15.75 L1,6.25 C1,4.45507456 2.45507456,3 4.25,3 L4.25,3 Z M19.75,4.5 L4.25,4.5 C3.28350169,4.5 2.5,5.28350169 2.5,6.25 L2.5,6.25 L2.5,15.75 C2.5,16.7164983 3.28350169,17.5 4.25,17.5 L4.25,17.5 L19.75,17.5 C20.7164983,17.5 21.5,16.7164983 21.5,15.75 L21.5,15.75 L21.5,6.25 C21.5,5.28350169 20.7164983,4.5 19.75,4.5 L19.75,4.5 Z" id="_形状结合" fill="#000000" fill-rule="nonzero"/>
        <path d="M4.5,5.5 L19.5,5.5 C20.0522847,5.5 20.5,5.94771525 20.5,6.5 L20.5,15.5 C20.5,16.0522847 20.0522847,16.5 19.5,16.5 L4.5,16.5 C3.94771525,16.5 3.5,16.0522847 3.5,15.5 L3.5,6.5 C3.5,5.94771525 3.94771525,5.5 4.5,5.5 Z" id="_矩形" fill="#000000" opacity="0.600000024"/>
    </g>
</svg>