<?xml version="1.0" encoding="UTF-8"?>
<svg xmlns="http://www.w3.org/2000/svg" xmlns:xlink="http://www.w3.org/1999/xlink" width="24" height="24" viewBox="0 0 24 24" version="1.1">
    <!-- Generator: Sketch 63.1 (92452) - https://sketch.com -->
    <title>Filled/ic_device_pad_filled</title>
    <desc>Created with Sketch.</desc>
    <g id="_Filled/ic_device_pad_filled" stroke="none" stroke-width="1" fill="none" fill-rule="evenodd">
        <path d="M5.1729139,6.25 L18.8270861,6.25 C19.4957252,6.25 19.7381898,6.31961921 19.9826343,6.45034953 C20.2270787,6.58107985 20.4189202,6.77292128 20.5496505,7.01736572 C20.6803808,7.26181017 20.75,7.50427485 20.75,8.1729139 L20.75,15.8270861 C20.75,16.4957252 20.6803808,16.7381898 20.5496505,16.9826343 C20.4189202,17.2270787 20.2270787,17.4189202 19.9826343,17.5496505 C19.7381898,17.6803808 19.4957252,17.75 18.8270861,17.75 L5.1729139,17.75 C4.50427485,17.75 4.26181017,17.6803808 4.01736572,17.5496505 C3.77292128,17.4189202 3.58107985,17.2270787 3.45034953,16.9826343 C3.31961921,16.7381898 3.25,16.4957252 3.25,15.8270861 L3.25,8.1729139 C3.25,7.50427485 3.31961921,7.26181017 3.45034953,7.01736572 C3.58107985,6.77292128 3.77292128,6.58107985 4.01736572,6.45034953 C4.26181017,6.31961921 4.50427485,6.25 5.1729139,6.25 Z" id="_矩形" fill="#000000" opacity="0.600000024"/>
        <path d="M5.2367991,3.75 L18.7632009,3.75 C20.3233587,3.75 20.8891096,3.91244482 21.45948,4.21748223 C22.0298504,4.52251964 22.4774804,4.97014965 22.7825178,5.54052002 L22.8842249,5.74326214 C23.1235291,6.25777167 23.25,6.86018928 23.25,8.2367991 L23.25,15.7632009 C23.25,17.3233587 23.0875552,17.8891096 22.7825178,18.45948 C22.4774804,19.0298504 22.0298504,19.4774804 21.45948,19.7825178 L21.2567379,19.8842249 C20.7422283,20.1235291 20.1398107,20.25 18.7632009,20.25 L5.2367991,20.25 C3.67664131,20.25 3.11089039,20.0875552 2.54052002,19.7825178 C1.97014965,19.4774804 1.52251964,19.0298504 1.21748223,18.45948 L1.11577509,18.2567379 C0.87647088,17.7422283 0.75,17.1398107 0.75,15.7632009 L0.75,8.2367991 C0.75,6.67664131 0.91244482,6.11089039 1.21748223,5.54052002 C1.52251964,4.97014965 1.97014965,4.52251964 2.54052002,4.21748223 L2.74326214,4.11577509 C3.25777167,3.87647088 3.86018928,3.75 5.2367991,3.75 Z M5.2367991,5.25 C4.04081707,5.25 3.6491107,5.32564199 3.24791831,5.54020203 C2.93895065,5.70543974 2.70543974,5.93895065 2.54020203,6.24791831 L2.46163699,6.40981826 C2.31872488,6.74032199 2.25932077,7.13419566 2.25102731,8.00808525 L2.25,15.7632009 C2.25,16.9591829 2.32564199,17.3508893 2.54020203,17.7520817 C2.70543974,18.0610494 2.93895065,18.2945603 3.24791831,18.459798 L3.40981826,18.538363 C3.74032199,18.6812751 4.13419566,18.7406792 5.00808525,18.7489727 L5.2367991,18.75 L18.7632009,18.75 L19.2006279,18.7458158 C20.0638066,18.7273591 20.4043816,18.64575 20.7520817,18.459798 C21.0610494,18.2945603 21.2945603,18.0610494 21.459798,17.7520817 L21.538363,17.5901817 C21.6812751,17.259678 21.7406792,16.8658043 21.7489727,15.9919147 L21.75,15.7632009 L21.75,8.2367991 L21.7458158,7.79937207 C21.7273591,6.9361934 21.64575,6.59561838 21.459798,6.24791831 C21.2945603,5.93895065 21.0610494,5.70543974 20.7520817,5.54020203 L20.5901817,5.46163699 C20.259678,5.31872488 19.8658043,5.25932077 18.9919147,5.25102731 L5.2367991,5.25 Z" id="_矩形" fill="#000000" fill-rule="nonzero"/>
    </g>
</svg>