<?xml version="1.0" encoding="utf-8"?>
<!-- Generator: Adobe Illustrator 24.3.0, SVG Export Plug-In . SVG Version: 6.00 Build 0)  -->
<svg version="1.1" id="图层_1" xmlns="http://www.w3.org/2000/svg" xmlns:xlink="http://www.w3.org/1999/xlink" x="0px" y="0px"
	 viewBox="0 0 24 24" style="enable-background:new 0 0 24 24;" xml:space="preserve">
<style type="text/css">
	.st0{fill-rule:evenodd;clip-rule:evenodd;fill:none;}
	.st1{fill-rule:evenodd;clip-rule:evenodd;}
</style>
<rect y="0" class="st0" width="24" height="24"/>
<g>
	<path id="_uxs-a_1_" class="st1" d="M16.5,8c2.7,0,5,2.2,5,4.9V13c0,1.2-0.4,2.2-1.1,3.1c-0.9,1.4-2.5,2.4-4.3,2.4H5.4
		c-1.8,0-3.4-0.9-4.3-2.4c-0.7-0.8-1.1-1.9-1.1-3l0-0.2C0,10.2,2.2,8,4.9,8H16.5z M16.6,9.5l-11.7,0c-1.9,0-3.4,1.5-3.4,3.4l0,0.2
		c0,1.9,1.5,3.4,3.4,3.4l0.1,0h11.6c1.9,0,3.4-1.5,3.4-3.4l0-0.1v-0.1C20,11.1,18.5,9.5,16.6,9.5z M19,5.5c2.7,0,5,2.2,5,4.9v0.1
		c0,1.6-0.8,3-1.9,3.9c0.1-0.5,0.2-1,0.2-1.5c0-0.3,0-0.7-0.1-1c0.2-0.4,0.3-0.9,0.3-1.4l0-0.2C22.5,8.6,21,7,19,7L7.5,7
		C7.1,7,6.6,7.1,6.2,7.2L5,7.2c-0.5,0-1,0.1-1.5,0.2c0.9-1.2,2.3-1.9,3.9-1.9H19z"/>
</g>
</svg>
