<?xml version="1.0" encoding="UTF-8"?>
<svg xmlns="http://www.w3.org/2000/svg" width="24" height="24" version="1.1" viewBox="0 0 24 24">
  <g fill="#000" fill-opacity=".9" fill-rule="evenodd" stroke="none" stroke-width="1">
    <path d="M3.53050922e-14,10.2264377 C0.858074887,11.0186616 1.99063125,11.5 3.23219344,11.5 L16.536115,11.5 L16.6159783,11.4993271 C17.8264621,11.4786762 18.9276918,11.0015904 19.7661221,10.2284792 C18.846263,11.5988733 17.2829433,12.5 15.5091542,12.5 L4.25915423,12.5 C2.48406915,12.5 0.919761159,11.597556 3.53050922e-14,10.2264377 Z M18.9909251,1.0658141e-14 C21.2791673,1.0658141e-14 23.1341542,2.01471863 23.1341542,4.5 C23.1341542,6.18340827 22.2830777,7.65092018 21.0227587,8.42265554 C21.2556323,7.83089798 21.3841542,7.18136517 21.3841542,6.5 C21.3841542,3.73857625 19.2731768,1.5 16.6691542,1.5 L3.09915423,1.5 C2.95564975,1.5 2.81364264,1.5067985 2.67340368,1.52010836 C3.43197959,0.58772469 4.54148783,1.0658141e-14 5.77738339,1.0658141e-14 L18.9909251,1.0658141e-14 Z" opacity=".6" transform="translate(.866 5.75)"/>
    <rect width="21.5" height="8.5" x="0" y="8" rx="4.25"/>
  </g>
</svg>