<?xml version="1.0" encoding="utf-8"?>
<!-- Generator: Adobe Illustrator 24.3.0, SVG Export Plug-In . SVG Version: 6.00 Build 0)  -->
<svg version="1.1" id="图层_1" xmlns="http://www.w3.org/2000/svg" xmlns:xlink="http://www.w3.org/1999/xlink" x="0px" y="0px"
	 viewBox="0 0 24 24" style="enable-background:new 0 0 24 24;" xml:space="preserve">
<style type="text/css">
	.st0{fill-rule:evenodd;clip-rule:evenodd;fill:none;}
	.st1{fill-rule:evenodd;clip-rule:evenodd;fill:#231815;}
</style>
<rect y="0" class="st0" width="24" height="24"/>
<g>
	<path id="_uxs-a_1_" class="st1" d="M18.5,5.5c3,0,5.5,2.5,5.5,5.5c0,1.3-0.4,2.4-1.1,3.3l-0.1,0.1C21.7,16,20,17,18,17H6
		c-2,0-3.7-1-4.7-2.5C0.5,13.5,0,12.3,0,11c0-3,2.5-5.5,5.5-5.5H18.5z M18.6,7L5.5,7c-2.2,0-4,1.8-4,4c0,2.2,1.7,4,3.9,4l0.1,0h13
		c2.2,0,4-1.8,4-4C22.5,8.8,20.8,7,18.6,7z"/>
</g>
</svg>
