<?xml version="1.0" encoding="UTF-8"?>
<svg xmlns="http://www.w3.org/2000/svg" xmlns:xlink="http://www.w3.org/1999/xlink" width="24" height="24" viewBox="0 0 24 24" version="1.1">
    <!-- Generator: Sketch 63.1 (92452) - https://sketch.com -->
    <title>Filled/ic_device_smartscreen_filled</title>
    <desc>Created with Sketch.</desc>
    <g id="_Filled/ic_device_smartscreen_filled" stroke="none" stroke-width="1" fill="none" fill-rule="evenodd">
        <path d="M22.7180574,4 C23.1638168,4 23.3254599,4.04641281 23.4884229,4.13356635 C23.6513858,4.2207199 23.7792801,4.34861419 23.8664336,4.51157715 C23.9535872,4.67454011 24,4.83618323 24,5.2819426 L24,17.7180574 C24,18.1638168 23.9535872,18.3254599 23.8664336,18.4884229 C23.7792801,18.6513858 23.6513858,18.7792801 23.4884229,18.8664336 C23.3254599,18.9535872 23.1638168,19 22.7180574,19 L21.5,19 L21.5,19.5 C21.5,19.7761424 21.2761424,20 21,20 L3,20 C2.72385763,20 2.5,19.7761424 2.5,19.5 L2.5,19 L1.2819426,19 C0.83618323,19 0.674540111,18.9535872 0.511577148,18.8664336 C0.348614185,18.7792801 0.220719898,18.6513858 0.133566352,18.4884229 C0.0509998343,18.3340369 0.00499841372,18.1808355 0.000384875033,17.786121 L3.45280103e-17,5.2819426 C3.45280103e-17,4.83618323 0.0464128056,4.67454011 0.133566352,4.51157715 C0.220719898,4.34861419 0.348614185,4.2207199 0.511577148,4.13356635 C0.665963113,4.05099983 0.819164509,4.00499841 1.213879,4.00038488 L22.7180574,4 Z M22.5,5.5 L1.5,5.5 L1.5,17.5 L22.5,17.5 L22.5,5.5 Z" id="_形状结合" fill="#000000" fill-rule="nonzero"/>
        <polygon id="_矩形" fill="#000000" opacity="0.600000024" points="2.5 6.54163951 21.4838356 6.5 21.5 16.5 2.5 16.4345526"/>
    </g>
</svg>