<?xml version="1.0" encoding="UTF-8"?>
<svg xmlns="http://www.w3.org/2000/svg" xmlns:xlink="http://www.w3.org/1999/xlink" width="24" height="24" viewBox="0 0 24 24" version="1.1">
    <!-- Generator: Sketch 63.1 (92452) - https://sketch.com -->
    <title>Filled/ic_device_sound_ai_filled</title>
    <desc>Created with Sketch.</desc>
    <g id="_Filled/ic_device_sound_ai_filled" stroke="none" stroke-width="1" fill="none" fill-rule="evenodd">
        <path d="M6.00210276,2.84260542 L6,2.875 C6,4.02252498 8.56822733,4.95760605 11.7800382,4.99859853 L11.7800382,4.99859853 L12,5 C15.3137085,5 18,4.04860509 18,2.875 C18,2.86483892 17.9997986,2.85469449 17.9993972,2.8445672 C18.1732526,2.92777517 18.3442321,3.01818828 18.5120846,3.11460357 C20.2540068,4.11517205 22,7.66324923 22,12.1856725 C22,16.7311412 20.1779904,20.1149425 17.9718093,21.2683583 C16.6339555,21.9678031 14.75,22.4920952 12,22.4962361 C9.25,22.5 7.36604453,21.9678031 6.02819067,21.2683583 C3.82200956,20.1149425 2,16.7311412 2,12.1856725 C2,7.66324923 3.74599318,4.11517205 5.48791537,3.11460357 C5.65609068,3.01800286 5.82740499,2.92742745 6.00210276,2.84260542 Z" id="_形状结合" fill="#000000"/>
        <path d="M12,1.5 C14.6233526,1.5 16.75,2.05964406 16.75,2.75 C16.75,3.44035594 14.6233526,4 12,4 L11.8258636,3.9991756 C9.28317997,3.97506238 7.25,3.42501469 7.25,2.75 C7.25,2.06731468 9.32965116,1.51245267 11.9127411,1.50020669 L12,1.5 Z" id="_路径" fill="#000000" opacity="0.400000006"/>
    </g>
</svg>