<?xml version="1.0" encoding="UTF-8"?>
<svg xmlns="http://www.w3.org/2000/svg" xmlns:xlink="http://www.w3.org/1999/xlink" width="24" height="24" viewBox="0 0 24 24" version="1.1">
    <!-- Generator: Sketch 63.1 (92452) - https://sketch.com -->
    <title>Linear/ic_device_soundx</title>
    <desc>Created with Sketch.</desc>
    <g id="_Linear/ic_device_soundx" stroke="none" stroke-width="1" fill="none" fill-rule="evenodd">
        <path d="M13.75,1 C17.5773333,1 20.6872467,4.07164002 20.7490622,7.8842422 L20.75,16 C20.75,19.8273333 17.67836,22.9372467 13.8657578,22.9990622 L10.25,23 C6.42266668,23 3.31275333,19.92836 3.2509378,16.1157578 L3.25,8 C3.25,4.17266668 6.32164002,1.06275333 10.1342422,1.0009378 L13.75,1 Z M19.2365663,16.3874237 C16.9618581,17.1477138 14.5486306,17.5277778 12,17.5277778 C9.53624727,17.5277778 7.19902907,17.1726071 4.99126698,16.4619537 L4.76333971,16.3871698 L4.76787183,16.446622 C4.99279861,19.2455535 7.31321224,21.4531223 10.1590474,21.4992632 L13.75,21.5 C16.6573179,21.5 19.0377684,19.2442128 19.2365663,16.3874237 Z M15.6116987,2.82307323 L15.6023268,2.82996212 C14.9950938,3.16494949 13.5735209,3.4 11.9166667,3.4 C10.3104099,3.4 8.92528381,3.17908638 8.28889993,2.86036851 C6.24711804,3.63878557 4.78815612,5.60113509 4.75073684,7.90904744 L4.74997341,14.7939348 C7.01131059,15.6163527 9.42663651,16.0277778 12,16.0277778 C14.5733635,16.0277778 16.9886894,15.6163527 19.2500266,14.7939348 L19.2500266,8 C19.2500266,5.61587725 17.7330632,3.58605638 15.6116987,2.82307323 Z M12,7.125 C13.1522668,7.125 14.0903304,8.04211324 14.1240609,9.18620993 L14.125,12.75 C14.125,13.9236051 13.1736051,14.875 12,14.875 C10.8477332,14.875 9.90966964,13.9578868 9.87593915,12.8137901 L9.875,9.25 C9.875,8.07639491 10.8263949,7.125 12,7.125 Z M12,8.375 C11.5328591,8.375 11.1512184,8.7410694 11.1262947,9.2019912 L11.125,9.25 L11.125,12.75 C11.125,13.2332492 11.5167508,13.625 12,13.625 C12.4671409,13.625 12.8487816,13.2589306 12.8737053,12.7980088 L12.875,9.25 C12.875,8.76675084 12.4832492,8.375 12,8.375 Z" id="_形状" fill="#000000" fill-rule="nonzero"/>
    </g>
</svg>