<?xml version="1.0" encoding="UTF-8"?>
<svg xmlns="http://www.w3.org/2000/svg" xmlns:xlink="http://www.w3.org/1999/xlink" width="24" height="24" viewBox="0 0 24 24" version="1.1">
    <!-- Generator: Sketch 63.1 (92452) - https://sketch.com -->
    <title>Filled/ic_device_sound_filled</title>
    <desc>Created with Sketch.</desc>
    <g id="_Filled/ic_device_sound_filled" stroke="none" stroke-width="1" fill="none" fill-rule="evenodd">
        <path d="M8.3458278,1 L15.6541722,1 L15.858363,1.00115463 L15.858363,1.00115463 L16.0491364,1.00460858 C16.0798554,1.00537502 16.1100467,1.00623665 16.1397256,1.00719315 L16.3117774,1.01406818 L16.3117774,1.01406818 L16.4722845,1.02320533 L16.4722845,1.02320533 L16.6219959,1.0345897 C16.7906531,1.04917657 16.9387985,1.06832114 17.0717847,1.09191704 L17.1821854,1.11322974 C17.2178313,1.12069569 17.2523647,1.12852254 17.2859102,1.1367078 L17.3837084,1.16233634 C17.4154032,1.17123594 17.446235,1.18049148 17.4763288,1.19010046 L17.5645207,1.2199853 L17.5645207,1.2199853 L17.6490331,1.25197595 L17.6490331,1.25197595 L17.7306149,1.28605754 L17.7306149,1.28605754 L17.8100155,1.32221517 L17.8100155,1.32221517 L17.8879836,1.36043397 L17.8879836,1.36043397 L17.9652686,1.40069906 L17.9652686,1.40069906 C18.4541574,1.66215969 18.8378403,2.04584256 19.0993009,2.53473144 L19.139566,2.61201637 L19.139566,2.61201637 L19.1777848,2.68998455 L19.1777848,2.68998455 L19.2139425,2.76938505 L19.2139425,2.76938505 L19.2480241,2.85096695 L19.2480241,2.85096695 L19.2800147,2.9354793 L19.2800147,2.9354793 L19.3098995,3.02367118 C19.3195085,3.05376495 19.3287641,3.08459683 19.3376637,3.11629165 L19.3632922,3.21408978 C19.3714775,3.24763533 19.3793043,3.28216866 19.3867703,3.31781463 L19.408083,3.42821528 C19.428308,3.54220351 19.4452627,3.66732903 19.4588801,3.80696264 L19.4713825,3.95155713 C19.47328,3.97650383 19.4750841,4.00188474 19.4767947,4.02771548 L19.4859318,4.18822255 L19.4859318,4.18822255 L19.4928069,4.36027436 L19.4928069,4.36027436 L19.4974049,4.54461996 C19.4979806,4.57641032 19.4984609,4.60874414 19.4988454,4.64163701 L19.5,4.8458278 L19.5,4.8458278 L19.5,19.1541722 L19.4988454,19.358363 L19.4988454,19.358363 L19.4953914,19.5491364 C19.494625,19.5798554 19.4937634,19.6100467 19.4928069,19.6397256 L19.4859318,19.8117774 L19.4859318,19.8117774 L19.4767947,19.9722845 L19.4767947,19.9722845 L19.4654103,20.1219959 C19.4508234,20.2906531 19.4316789,20.4387985 19.408083,20.5717847 L19.3867703,20.6821854 C19.3793043,20.7178313 19.3714775,20.7523647 19.3632922,20.7859102 L19.3376637,20.8837084 C19.3287641,20.9154032 19.3195085,20.946235 19.3098995,20.9763288 L19.2800147,21.0645207 L19.2800147,21.0645207 L19.2480241,21.1490331 L19.2480241,21.1490331 L19.2139425,21.2306149 L19.2139425,21.2306149 L19.1777848,21.3100155 L19.1777848,21.3100155 L19.139566,21.3879836 L19.139566,21.3879836 L19.0993009,21.4652686 L19.0993009,21.4652686 C18.8378403,21.9541574 18.4541574,22.3378403 17.9652686,22.5993009 L17.8879836,22.639566 L17.8879836,22.639566 L17.8100155,22.6777848 L17.8100155,22.6777848 L17.7306149,22.7139425 L17.7306149,22.7139425 L17.6490331,22.7480241 L17.6490331,22.7480241 L17.5645207,22.7800147 L17.5645207,22.7800147 L17.4763288,22.8098995 C17.446235,22.8195085 17.4154032,22.8287641 17.3837084,22.8376637 L17.2859102,22.8632922 C17.2523647,22.8714775 17.2178313,22.8793043 17.1821854,22.8867703 L17.0717847,22.908083 C16.9577965,22.928308 16.832671,22.9452627 16.6930374,22.9588801 L16.5484429,22.9713825 C16.5234962,22.97328 16.4981153,22.9750841 16.4722845,22.9767947 L16.3117774,22.9859318 L16.3117774,22.9859318 L16.1397256,22.9928069 L16.1397256,22.9928069 L15.95538,22.9974049 C15.9235897,22.9979806 15.8912559,22.9984609 15.858363,22.9988454 L15.6541722,23 L15.6541722,23 L8.3458278,23 L8.14163701,22.9988454 L8.14163701,22.9988454 L7.95086362,22.9953914 C7.92014455,22.994625 7.88995333,22.9937634 7.86027436,22.9928069 L7.68822255,22.9859318 L7.68822255,22.9859318 L7.52771548,22.9767947 L7.52771548,22.9767947 L7.37800406,22.9654103 C7.20934691,22.9508234 7.06120155,22.9316789 6.92821528,22.908083 L6.81781463,22.8867703 C6.78216866,22.8793043 6.74763533,22.8714775 6.71408978,22.8632922 L6.61629165,22.8376637 C6.58459683,22.8287641 6.55376495,22.8195085 6.52367118,22.8098995 L6.4354793,22.7800147 L6.4354793,22.7800147 L6.35096695,22.7480241 L6.35096695,22.7480241 L6.26938505,22.7139425 L6.26938505,22.7139425 L6.18998455,22.6777848 L6.18998455,22.6777848 L6.11201637,22.639566 L6.11201637,22.639566 L6.03473144,22.5993009 L6.03473144,22.5993009 C5.54584256,22.3378403 5.16215969,21.9541574 4.90069906,21.4652686 L4.86043397,21.3879836 L4.86043397,21.3879836 L4.82221517,21.3100155 L4.82221517,21.3100155 L4.78605754,21.2306149 L4.78605754,21.2306149 L4.75197595,21.1490331 L4.75197595,21.1490331 L4.7199853,21.0645207 L4.7199853,21.0645207 L4.69010046,20.9763288 C4.68049148,20.946235 4.67123594,20.9154032 4.66233634,20.8837084 L4.6367078,20.7859102 C4.62852254,20.7523647 4.62069569,20.7178313 4.61322974,20.6821854 L4.59191704,20.5717847 C4.57169198,20.4577965 4.55473729,20.332671 4.54111995,20.1930374 L4.52861754,20.0484429 C4.52672004,20.0234962 4.52491587,19.9981153 4.52320533,19.9722845 L4.51406818,19.8117774 L4.51406818,19.8117774 L4.50719315,19.6397256 L4.50719315,19.6397256 L4.50259512,19.45538 C4.50201935,19.4235897 4.50153909,19.3912559 4.50115463,19.358363 L4.5,19.1541722 L4.5,19.1541722 L4.5,4.8458278 C4.5,4.77544474 4.5003857,4.70742276 4.50115463,4.64163701 L4.50460858,4.45086362 C4.50537502,4.42014455 4.50623665,4.38995333 4.50719315,4.36027436 L4.51406818,4.18822255 L4.51406818,4.18822255 L4.52320533,4.02771548 L4.52320533,4.02771548 L4.5345897,3.87800406 C4.54917657,3.70934691 4.56832114,3.56120155 4.59191704,3.42821528 L4.61322974,3.31781463 C4.62069569,3.28216866 4.62852254,3.24763533 4.6367078,3.21408978 L4.66233634,3.11629165 C4.67123594,3.08459683 4.68049148,3.05376495 4.69010046,3.02367118 L4.7199853,2.9354793 L4.7199853,2.9354793 L4.75197595,2.85096695 L4.75197595,2.85096695 L4.78605754,2.76938505 L4.78605754,2.76938505 L4.82221517,2.68998455 L4.82221517,2.68998455 L4.86043397,2.61201637 L4.86043397,2.61201637 L4.90069906,2.53473144 L4.90069906,2.53473144 C5.16215969,2.04584256 5.54584256,1.66215969 6.03473144,1.40069906 L6.11201637,1.36043397 L6.11201637,1.36043397 L6.18998455,1.32221517 L6.18998455,1.32221517 L6.26938505,1.28605754 L6.26938505,1.28605754 L6.35096695,1.25197595 L6.35096695,1.25197595 L6.4354793,1.2199853 L6.4354793,1.2199853 L6.52367118,1.19010046 C6.55376495,1.18049148 6.58459683,1.17123594 6.61629165,1.16233634 L6.71408978,1.1367078 C6.74763533,1.12852254 6.78216866,1.12069569 6.81781463,1.11322974 L6.92821528,1.09191704 C7.04220351,1.07169198 7.16732903,1.05473729 7.30696264,1.04111995 L7.45155713,1.02861754 C7.47650383,1.02672004 7.50188474,1.02491587 7.52771548,1.02320533 L7.68822255,1.01406818 L7.68822255,1.01406818 L7.86027436,1.00719315 L7.86027436,1.00719315 L8.04461996,1.00259512 C8.07641032,1.00201935 8.10874414,1.00153909 8.14163701,1.00115463 L8.3458278,1 L8.3458278,1 Z M12,11.75 C9.790861,11.75 8,13.540861 8,15.75 C8,17.959139 9.790861,19.75 12,19.75 C14.209139,19.75 16,17.959139 16,15.75 C16,13.540861 14.209139,11.75 12,11.75 Z M12,5.25 C10.8954305,5.25 10,6.1454305 10,7.25 C10,8.3545695 10.8954305,9.25 12,9.25 C13.1045695,9.25 14,8.3545695 14,7.25 C14,6.1454305 13.1045695,5.25 12,5.25 Z" id="_形状" fill="#000000"/>
        <path d="M12,12.5 C13.7949254,12.5 15.25,13.9550746 15.25,15.75 C15.25,17.5449254 13.7949254,19 12,19 C10.2050746,19 8.75,17.5449254 8.75,15.75 C8.75,13.9550746 10.2050746,12.5 12,12.5 Z M12,6 C12.6903559,6 13.25,6.55964406 13.25,7.25 C13.25,7.94035594 12.6903559,8.5 12,8.5 C11.3096441,8.5 10.75,7.94035594 10.75,7.25 C10.75,6.55964406 11.3096441,6 12,6 Z" id="_形状" fill="#000000" opacity="0.400000006"/>
    </g>
</svg>