<?xml version="1.0" encoding="UTF-8"?>
<svg xmlns="http://www.w3.org/2000/svg" xmlns:xlink="http://www.w3.org/1999/xlink" width="24" height="24" viewBox="0 0 24 24" version="1.1">
    <!-- Generator: Sketch 63.1 (92452) - https://sketch.com -->
    <title>Filled/ic_device_soundx_filled</title>
    <desc>Created with Sketch.</desc>
    <g id="_Filled/ic_device_soundx_filled" stroke="none" stroke-width="1" fill="none" fill-rule="evenodd">
        <path d="M20.75,8 L20.7497434,15.1271798 C19.1616733,16.191683 15.8465504,17 12,17 C8.15186162,17 4.83558965,16.1910154 3.24829068,15.1258614 L3.25,8 C3.25,4.3681549 6.01587392,1.38231427 9.55614455,1.03395533 C8.46337155,1.19251897 7.75,1.45410775 7.75,1.75 C7.75,2.21599026 9.51930328,2.59690109 11.7502802,2.62351463 L12,2.625 C14.3472102,2.625 16.25,2.23324916 16.25,1.75 C16.25,1.45409485 15.5365662,1.19249615 14.444519,1.03413752 C17.9841261,1.38231427 20.75,4.3681549 20.75,8 Z M12,7.25 C11.0818266,7.25 10.3288077,7.95711027 10.2558012,8.85647279 L10.25,9 L10.25,12.5 C10.25,13.4664983 11.0335017,14.25 12,14.25 C12.9181734,14.25 13.6711923,13.5428897 13.7441988,12.6435272 L13.75,12.5 L13.75,9 C13.75,8.03350169 12.9664983,7.25 12,7.25 Z" id="_形状" fill="#000000"/>
        <path d="M13.75,23 L10.25,23 C6.47769104,23 3.40232209,20.0160451 3.25548701,16.2797291 C5.20793688,17.3483474 8.40155444,18 12,18 C15.5980904,18 18.7914326,17.348476 20.7441549,16.2801718 C20.5976779,20.0160451 17.522309,23 13.75,23 Z" id="_路径" fill="#000000" opacity="0.600000024"/>
        <ellipse id="_椭圆形" fill="#000000" opacity="0.4" cx="12" cy="1.75" rx="4.25" ry="1"/>
    </g>
</svg>