<?xml version="1.0" encoding="UTF-8"?>
<svg xmlns="http://www.w3.org/2000/svg" xmlns:xlink="http://www.w3.org/1999/xlink" width="24" height="24" viewBox="0 0 24 24" version="1.1">
    <!-- Generator: Sketch 63.1 (92452) - https://sketch.com -->
    <title>Linear/ic_device_sound</title>
    <desc>Created with Sketch.</desc>
    <defs>
        <path d="M8.3458278,1 L15.6541722,1 L15.858363,1.00115463 L15.858363,1.00115463 L16.1397256,1.00719315 L16.1397256,1.00719315 L16.3117774,1.01406818 L16.4722845,1.02320533 L16.6219959,1.0345897 C16.7906531,1.04917657 16.9387985,1.06832114 17.0717847,1.09191704 L17.1821854,1.11322974 C17.2178313,1.12069569 17.2523647,1.12852254 17.2859102,1.1367078 L17.3837084,1.16233634 C17.4154032,1.17123594 17.446235,1.18049148 17.4763288,1.19010046 L17.5645207,1.2199853 L17.6490331,1.25197595 L17.7306149,1.28605754 L17.8100155,1.32221517 L17.8879836,1.36043397 L17.9652686,1.40069906 C18.4541574,1.66215969 18.8378403,2.04584256 19.0993009,2.53473144 L19.139566,2.61201637 L19.1777848,2.68998455 L19.2139425,2.76938505 L19.2480241,2.85096695 L19.2800147,2.9354793 L19.3098995,3.02367118 C19.3195085,3.05376495 19.3287641,3.08459683 19.3376637,3.11629165 L19.3632922,3.21408978 C19.3714775,3.24763533 19.3793043,3.28216866 19.3867703,3.31781463 L19.408083,3.42821528 C19.428308,3.54220351 19.4452627,3.66732903 19.4588801,3.80696264 L19.4713825,3.95155713 L19.4767947,4.02771548 L19.4767947,4.02771548 L19.4859318,4.18822255 L19.4928069,4.36027436 L19.4988454,4.64163701 L19.4988454,4.64163701 L19.5,4.8458278 L19.5,19.1541722 L19.4988454,19.358363 L19.4928069,19.6397256 L19.4928069,19.6397256 L19.4859318,19.8117774 L19.4767947,19.9722845 L19.4654103,20.1219959 C19.4508234,20.2906531 19.4316789,20.4387985 19.408083,20.5717847 L19.3867703,20.6821854 C19.3793043,20.7178313 19.3714775,20.7523647 19.3632922,20.7859102 L19.3376637,20.8837084 C19.3287641,20.9154032 19.3195085,20.946235 19.3098995,20.9763288 L19.2800147,21.0645207 L19.2480241,21.1490331 L19.2139425,21.2306149 L19.1777848,21.3100155 L19.139566,21.3879836 L19.0993009,21.4652686 C18.8378403,21.9541574 18.4541574,22.3378403 17.9652686,22.5993009 L17.8879836,22.639566 L17.8100155,22.6777848 L17.7306149,22.7139425 L17.6490331,22.7480241 L17.5645207,22.7800147 L17.4763288,22.8098995 C17.446235,22.8195085 17.4154032,22.8287641 17.3837084,22.8376637 L17.2859102,22.8632922 C17.2523647,22.8714775 17.2178313,22.8793043 17.1821854,22.8867703 L17.0717847,22.908083 C16.9577965,22.928308 16.832671,22.9452627 16.6930374,22.9588801 L16.5484429,22.9713825 L16.4722845,22.9767947 L16.4722845,22.9767947 L16.3117774,22.9859318 L16.1397256,22.9928069 L15.858363,22.9988454 L15.858363,22.9988454 L15.6541722,23 L8.3458278,23 L8.14163701,22.9988454 L7.86027436,22.9928069 L7.86027436,22.9928069 L7.68822255,22.9859318 L7.52771548,22.9767947 L7.37800406,22.9654103 C7.20934691,22.9508234 7.06120155,22.9316789 6.92821528,22.908083 L6.81781463,22.8867703 C6.78216866,22.8793043 6.74763533,22.8714775 6.71408978,22.8632922 L6.61629165,22.8376637 C6.58459683,22.8287641 6.55376495,22.8195085 6.52367118,22.8098995 L6.4354793,22.7800147 L6.35096695,22.7480241 L6.26938505,22.7139425 L6.18998455,22.6777848 L6.11201637,22.639566 L6.03473144,22.5993009 C5.54584256,22.3378403 5.16215969,21.9541574 4.90069906,21.4652686 L4.86043397,21.3879836 L4.82221517,21.3100155 L4.78605754,21.2306149 L4.75197595,21.1490331 L4.7199853,21.0645207 L4.69010046,20.9763288 C4.68049148,20.946235 4.67123594,20.9154032 4.66233634,20.8837084 L4.6367078,20.7859102 C4.62852254,20.7523647 4.62069569,20.7178313 4.61322974,20.6821854 L4.59191704,20.5717847 C4.57169198,20.4577965 4.55473729,20.332671 4.54111995,20.1930374 L4.52861754,20.0484429 L4.52320533,19.9722845 L4.52320533,19.9722845 L4.51406818,19.8117774 L4.50719315,19.6397256 L4.50115463,19.358363 L4.50115463,19.358363 L4.5,19.1541722 L4.5,4.8458278 C4.5,4.77544474 4.5003857,4.70742276 4.50115463,4.64163701 L4.50719315,4.36027436 L4.50719315,4.36027436 L4.51406818,4.18822255 L4.52320533,4.02771548 L4.5345897,3.87800406 C4.54917657,3.70934691 4.56832114,3.56120155 4.59191704,3.42821528 L4.61322974,3.31781463 C4.62069569,3.28216866 4.62852254,3.24763533 4.6367078,3.21408978 L4.66233634,3.11629165 C4.67123594,3.08459683 4.68049148,3.05376495 4.69010046,3.02367118 L4.7199853,2.9354793 L4.75197595,2.85096695 L4.78605754,2.76938505 L4.82221517,2.68998455 L4.86043397,2.61201637 L4.90069906,2.53473144 C5.16215969,2.04584256 5.54584256,1.66215969 6.03473144,1.40069906 L6.11201637,1.36043397 L6.18998455,1.32221517 L6.26938505,1.28605754 L6.35096695,1.25197595 L6.4354793,1.2199853 L6.52367118,1.19010046 C6.55376495,1.18049148 6.58459683,1.17123594 6.61629165,1.16233634 L6.71408978,1.1367078 C6.74763533,1.12852254 6.78216866,1.12069569 6.81781463,1.11322974 L6.92821528,1.09191704 C7.04220351,1.07169198 7.16732903,1.05473729 7.30696264,1.04111995 L7.45155713,1.02861754 L7.52771548,1.02320533 L7.52771548,1.02320533 L7.68822255,1.01406818 L7.86027436,1.00719315 L8.14163701,1.00115463 L8.14163701,1.00115463 L8.3458278,1 Z M15.7425421,2.50016218 L8.25745794,2.50016218 L8.08655227,2.50154908 L7.93034129,2.50441227 L7.78780144,2.50882266 L7.59738594,2.51849438 L7.59738594,2.51849438 L7.48454578,2.52708304 L7.38179424,2.53746711 L7.28810776,2.54971751 L7.20246277,2.56390517 L7.16233596,2.57174762 L7.16233596,2.57174762 L7.08683402,2.58897412 C7.01424395,2.60724608 6.94987773,2.62868985 6.8891293,2.65362456 L6.8294162,2.67973475 L6.77109139,2.70824316 L6.74212973,2.72341885 L6.74212973,2.72341885 C6.51464355,2.84507979 6.34507979,3.01464355 6.22341885,3.24212973 L6.20870801,3.27018563 L6.18101696,3.32665919 L6.1555797,3.3843906 C6.14746908,3.40394745 6.13972335,3.42386903 6.13233175,3.44431044 L6.11120865,3.50734929 C6.09782053,3.55062165 6.08580599,3.59659372 6.07507906,3.64650629 L6.05994362,3.72448561 L6.04667513,3.80930624 C6.04255629,3.8388234 6.03873786,3.86963588 6.0352091,3.90189876 L6.02548106,4.00319375 L6.01742653,4.11412178 L6.01098105,4.23561343 L6.00418873,4.43969334 L6.00148376,4.59166532 L6.00016218,4.75745794 L6.00016218,19.2425421 L6.00154908,19.4134477 L6.00441227,19.5696587 L6.00882266,19.7121986 L6.01849438,19.9026141 L6.01849438,19.9026141 L6.02708304,20.0154542 L6.03746711,20.1182058 L6.04971751,20.2118922 L6.06390517,20.2975372 L6.07174762,20.337664 L6.07174762,20.337664 L6.08897412,20.413166 C6.10724608,20.4857561 6.12868985,20.5501223 6.15362456,20.6108707 L6.17973475,20.6705838 L6.20824316,20.7289086 L6.22341885,20.7578703 L6.22341885,20.7578703 C6.34507979,20.9853564 6.51464355,21.1549202 6.74212973,21.2765811 L6.77018563,21.291292 L6.82665919,21.318983 L6.8843906,21.3444203 C6.90394745,21.3525309 6.92386903,21.3602767 6.94431044,21.3676682 L7.00734929,21.3887914 C7.05062165,21.4021795 7.09659372,21.414194 7.14650629,21.4249209 L7.22448561,21.4400564 L7.30930624,21.4533249 C7.3388234,21.4574437 7.36963588,21.4612621 7.40189876,21.4647909 L7.50319375,21.4745189 L7.61412178,21.4825735 L7.73561343,21.489019 L7.93969334,21.4958113 L8.09166532,21.4985162 L8.3458278,21.5 L15.7425421,21.5 L15.9083347,21.4985162 L16.0603067,21.4958113 L16.2643866,21.489019 L16.3858782,21.4825735 L16.4968063,21.4745189 L16.5981012,21.4647909 C16.6303641,21.4612621 16.6611766,21.4574437 16.6906938,21.4533249 L16.7755144,21.4400564 L16.8534937,21.4249209 C16.9034063,21.414194 16.9493784,21.4021795 16.9926507,21.3887914 L17.0556896,21.3676682 C17.076131,21.3602767 17.0960526,21.3525309 17.1156094,21.3444203 L17.1733408,21.318983 L17.2438453,21.2840095 L17.2438453,21.2840095 L17.2578703,21.2765811 C17.4853564,21.1549202 17.6549202,20.9853564 17.7765811,20.7578703 L17.791292,20.7298144 L17.818983,20.6733408 L17.8444203,20.6156094 C17.8525309,20.5960526 17.8602767,20.576131 17.8676682,20.5556896 L17.8887914,20.4926507 C17.9021795,20.4493784 17.914194,20.4034063 17.9249209,20.3534937 L17.9400564,20.2755144 L17.9533249,20.1906938 C17.9574437,20.1611766 17.9612621,20.1303641 17.9647909,20.0981012 L17.9745189,19.9968063 L17.9825735,19.8858782 L17.989019,19.7643866 L17.9958113,19.5603067 L17.9985162,19.4083347 L18,19.1541722 L17.9998378,4.75745794 L17.9985162,4.59166532 L17.9958113,4.43969334 L17.989019,4.23561343 L17.9825735,4.11412178 L17.9745189,4.00319375 L17.9647909,3.90189876 C17.9612621,3.86963588 17.9574437,3.8388234 17.9533249,3.80930624 L17.9400564,3.72448561 L17.9249209,3.64650629 C17.914194,3.59659372 17.9021795,3.55062165 17.8887914,3.50734929 L17.8676682,3.44431044 C17.8602767,3.42386903 17.8525309,3.40394745 17.8444203,3.3843906 L17.818983,3.32665919 L17.7840095,3.25615472 L17.7840095,3.25615472 L17.7765811,3.24212973 C17.6549202,3.01464355 17.4853564,2.84507979 17.2578703,2.72341885 L17.2298144,2.70870801 L17.1733408,2.68101696 L17.1156094,2.6555797 C17.0960526,2.64746908 17.076131,2.63972335 17.0556896,2.63233175 L16.9926507,2.61120865 C16.9493784,2.59782053 16.9034063,2.58580599 16.8534937,2.57507906 L16.7755144,2.55994362 L16.6906938,2.54667513 C16.6611766,2.54255629 16.6303641,2.53873786 16.5981012,2.5352091 L16.4968063,2.52548106 L16.3858782,2.51742653 L16.2643866,2.51098105 L16.0603067,2.50418873 L15.9083347,2.50148376 L15.7425421,2.50016218 Z M12,11.75 C14.0710678,11.75 15.75,13.4289322 15.75,15.5 C15.75,17.5710678 14.0710678,19.25 12,19.25 C9.92893219,19.25 8.25,17.5710678 8.25,15.5 C8.25,13.4289322 9.92893219,11.75 12,11.75 Z M12,13.25 C10.7573593,13.25 9.75,14.2573593 9.75,15.5 C9.75,16.7426407 10.7573593,17.75 12,17.75 C13.2426407,17.75 14.25,16.7426407 14.25,15.5 C14.25,14.2573593 13.2426407,13.25 12,13.25 Z M12,5.5 C12.9664983,5.5 13.75,6.28350169 13.75,7.25 C13.75,8.21649831 12.9664983,9 12,9 C11.0335017,9 10.25,8.21649831 10.25,7.25 C10.25,6.28350169 11.0335017,5.5 12,5.5 Z" id="_path-1"/>
    </defs>
    <g id="_Linear/ic_device_sound" stroke="none" stroke-width="1" fill="none" fill-rule="evenodd">
        <mask id="_mask-2" fill="white">
            <use xlink:href="#_path-1"/>
        </mask>
        <use id="_形状" fill="#000000" xlink:href="#_path-1"/>
    </g>
</svg>