<?xml version="1.0" encoding="UTF-8"?>
<svg xmlns="http://www.w3.org/2000/svg" xmlns:xlink="http://www.w3.org/1999/xlink" width="24" height="24" viewBox="0 0 24 24" version="1.1">
    <!-- Generator: Sketch 63.1 (92452) - https://sketch.com -->
    <title>Filled/ic_device_sound_cm510_filled</title>
    <desc>Created with Sketch.</desc>
    <g id="_Filled/ic_device_sound_cm510_filled" stroke="none" stroke-width="1" fill="none" fill-rule="evenodd">
        <path d="M10.7814789,8.00595562 L11.6457327,8.00110857 C5.10494536,8.03549431 0.818181818,8.86073343 0.818181818,9.20572917 C0.818181818,9.51068768 4.16770982,10.25721 9.46277943,10.4525758 L9.81865095,10.4647728 L9.81818182,10.2727273 L9.82538474,10.2101934 C9.84893974,10.1097899 9.9279717,10.0307579 10.0283752,10.0072029 L10.0909091,10 L14.0454545,10 L14.1079884,10.0072029 C14.2083919,10.0307579 14.2874239,10.1097899 14.3109789,10.2101934 L14.3181818,10.2727273 L14.318721,10.4647408 L15.0246247,10.4387065 C20.116259,10.2241612 23.3181818,9.50389261 23.3181818,9.20572917 C23.3181818,8.87330542 19.3381534,8.09500162 13.196611,8.00795684 L12.7369822,8.00214402 L13.2185211,8.00595562 L14.3881293,8.02382246 L15.2885986,8.04669203 L15.7270941,8.06098551 L16.3701635,8.08599909 L16.3701635,8.08599909 L17.4028155,8.13721739 L17.4028155,8.13721739 L17.9989284,8.17366576 L17.9989284,8.17366576 L18.7663545,8.22893387 L19.6816154,8.30873913 L19.6816154,8.30873913 L20.0340242,8.34399637 L20.7153634,8.42022826 L21.2058245,8.48240489 L21.2058245,8.48240489 L21.8323813,8.57197735 L22.1339206,8.61962227 L22.7135209,8.72062952 L22.7135209,8.72062952 L23.1276778,8.80138767 L23.1276778,8.80138767 C23.6354038,8.90522738 24,9.35193732 24,9.87017321 L24,13.91775 L23.7691387,13.964025 C19.8456858,14.7380431 15.9227495,15.125 12,15.125 C8.00024074,15.125 4.00028714,14.7227008 -0.000210147311,13.9179919 L-0.000210147311,9.87017376 C-0.000210147311,9.35193748 0.364595859,8.90522721 0.872322343,8.80138765 L1.28647919,8.7206295 L1.86607956,8.61962226 L1.86607956,8.61962226 L2.16761885,8.57197733 L2.79417564,8.48240487 L3.28463666,8.42022824 L3.28463666,8.42022824 L3.96597594,8.34399636 L4.67861949,8.27538767 L5.04668038,8.24394202 L6.00107164,8.17366575 L6.00107164,8.17366575 L6.59718461,8.13721739 L6.59718461,8.13721739 L7.62983657,8.08599909 L7.62983657,8.08599909 L8.27290595,8.0609855 L8.27290595,8.0609855 L9.15772305,8.03430435 L9.6118707,8.02382246 L10.7814789,8.00595562 Z" id="_路径" fill="#000000"/>
        <path d="M24,14.6828846 L24,15.4867082 C24,16.2053185 23.5311672,16.8398383 22.8442512,17.0509006 C21.5205802,17.4576127 19.9346818,17.7608629 18.086556,17.9606513 L17.7004434,18.0005106 L17.5045809,18.019333 L17.5045809,18.019333 L17.1072435,18.0547634 C17.0403969,18.0604225 16.9732386,18.0659585 16.9057685,18.0713715 L16.497206,18.1023731 C16.4284887,18.107294 16.3594595,18.1120919 16.2901186,18.1167667 L15.8703312,18.1433396 C15.799743,18.1475223 15.7288431,18.1515821 15.6576313,18.1555188 L15.2266189,18.1776628 C14.7194059,18.2017752 14.1969145,18.2198595 13.6591447,18.2319157 L13.1944575,18.2407733 C13.116386,18.2420035 13.0380027,18.2431107 12.9593076,18.2440949 L12.4833955,18.2485237 L12,18.25 L11.5166046,18.2485237 L11.0406925,18.2440949 C10.9619975,18.2431107 10.8836142,18.2420035 10.8055427,18.2407733 L10.3408556,18.2319157 C9.80308589,18.2198595 9.28059457,18.2017752 8.77338166,18.1776629 L8.34236939,18.1555188 C8.27115762,18.1515821 8.20025765,18.1475224 8.12966949,18.1433396 L7.70988217,18.1167668 C7.64054123,18.1120919 7.57151209,18.1072941 7.50279475,18.1023732 L7.09423238,18.0713715 L6.89275743,18.0547635 L6.89275743,18.0547635 L6.49542002,18.0193331 L6.29955755,18.0005107 L6.29955755,18.0005107 L5.91344508,17.9606514 C4.06531947,17.7608631 2.47942121,17.457613 1.15575029,17.0509011 C0.468833781,16.8398399 -0.000235004499,16.2053199 -0.000235004499,15.4867094 L-0.000235004499,14.6825 L0.0725540114,14.6972482 C4.04796156,15.4823812 8.02388711,15.875 12,15.875 C16.0002863,15.875 20.000383,15.4775927 24,14.6828846 Z M12.5,16.5 L11.5,16.5 C11.2238576,16.5 11,16.7238576 11,17 C11,17.2635904 11.2039694,17.4795413 11.4626844,17.4986286 L11.5,17.5 L12.5,17.5 C12.7761424,17.5 13,17.2761424 13,17 C13,16.7238576 12.7761424,16.5 12.5,16.5 Z" id="_形状结合" fill="#000000" opacity="0.600000024"/>
        <path d="M12.5,16.5 C12.7761424,16.5 13,16.7238576 13,17 C13,17.2761424 12.7761424,17.5 12.5,17.5 L11.5,17.5 C11.2238576,17.5 11,17.2761424 11,17 C11,16.7238576 11.2238576,16.5 11.5,16.5 L12.5,16.5 Z M12.449367,8.00090229 L13.196611,8.00795684 C19.3381534,8.09500162 23.3181818,8.87330542 23.3181818,9.20572917 C23.3181818,9.51744549 19.8185596,10.2905123 14.318721,10.4647408 L14.3181818,10.2727273 C14.3181818,10.1436217 14.2284726,10.0354689 14.1079884,10.0072029 L14.0454545,10 L10.0909091,10 C9.96180356,10 9.85365074,10.0897092 9.82538474,10.2101934 L9.81818182,10.2727273 L9.81865095,10.4647728 L9.11267248,10.4387458 C4.02049599,10.2242493 0.818181818,9.50391083 0.818181818,9.20572917 C0.818181818,8.86000847 5.12298052,8.03202391 11.6869966,8.00090229 L12.449367,8.00090229 Z" id="_形状" fill="#000000" opacity="0.400000006"/>
    </g>
</svg>