<?xml version="1.0" encoding="UTF-8"?>
<svg xmlns="http://www.w3.org/2000/svg" xmlns:xlink="http://www.w3.org/1999/xlink" width="24" height="24" viewBox="0 0 24 24" version="1.1">
    <!-- Generator: Sketch 63.1 (92452) - https://sketch.com -->
    <title>Linear/ic_device_sound_cm530</title>
    <desc>Created with Sketch.</desc>
    <defs>
        <path d="M12,1 C14.8580044,1 17.2754857,1.24860452 19.2524437,1.74581355 C19.9858673,1.93026919 20.5,2.58971829 20.5,3.34598153 L20.5,20.1032556 C20.5,21.075543 19.8617629,21.9325273 18.9302235,22.211054 C17.1711234,22.737018 14.8610489,23 12,23 C9.138951,23 6.82887648,22.737018 5.06977643,22.2110539 C4.13823644,21.9325273 3.5,21.0755425 3.5,20.1032546 L3.5,3.3459815 C3.5,2.58971941 4.01413235,1.93027128 4.74755438,1.74581404 C6.72451275,1.24860468 9.14199463,1 12,1 Z M12.3185624,17.4987 L12,17.5 C9.66619344,17.5 7.33273346,17.2906827 5,16.8721761 L5,20.1032546 C5,20.412619 5.20307519,20.6852959 5.49947446,20.773918 C7.10092651,21.2527459 9.2728442,21.5 12,21.5 C14.7271557,21.5 16.8990734,21.2527459 18.5005254,20.7739181 C18.7821043,20.6897271 18.9794588,20.4394264 18.9984906,20.1493665 L19,20.1032556 L19.0001451,16.8721761 C16.7735678,17.271627 14.546233,17.4805185 12.3185624,17.4987 Z M12,18.5 C12.5522847,18.5 13,18.9477153 13,19.5 C13,20.0522847 12.5522847,20.5 12,20.5 C11.4477153,20.5 11,20.0522847 11,19.5 C11,18.9477153 11.4477153,18.5 12,18.5 Z M12,2.5 C9.25700452,2.5 6.9591695,2.73630065 5.11341414,3.20051216 C5.05414776,3.21541779 5.0106327,3.26444188 5.00169433,3.32343777 L5,3.3459815 L5,15.3473355 C7.3341176,15.7825099 9.6672459,16 12,16 C14.3328374,16 16.666049,15.7824943 19.0001789,15.3472889 L19,3.34598153 C19,3.27723014 18.9532612,3.21728098 18.8865841,3.20051172 C17.040829,2.7363005 14.7429946,2.5 12,2.5 Z" id="_path-1"/>
    </defs>
    <g id="_Linear/ic_device_sound_cm530" stroke="none" stroke-width="1" fill="none" fill-rule="evenodd">
        <mask id="_mask-2" fill="white">
            <use xlink:href="#_path-1"/>
        </mask>
        <use id="_形状" fill="#000000" fill-rule="nonzero" xlink:href="#_path-1"/>
    </g>
</svg>