<?xml version="1.0" encoding="UTF-8"?>
<svg xmlns="http://www.w3.org/2000/svg" xmlns:xlink="http://www.w3.org/1999/xlink" width="24" height="24" viewBox="0 0 24 24" version="1.1">
    <!-- Generator: Sketch 63.1 (92452) - https://sketch.com -->
    <title>Linear/ic_device_sound_ai</title>
    <desc>Created with Sketch.</desc>
    <g id="_Linear/ic_device_sound_ai" stroke="none" stroke-width="1" fill="none" fill-rule="evenodd">
        <path d="M11.7907157,1.50145535 L12.3206635,1.50315837 L12.3206635,1.50315837 L12.106259,1.50054882 C14.7441195,1.51919128 16.7922419,1.88125643 18.5120846,2.88104457 C20.2540068,3.8936681 22,7.4844932 22,12.0614035 C22,16.6616369 20.1779904,20.0862069 17.9718093,21.2535193 C16.6339555,21.9613911 14.75,22.492 12,22.4961705 C9.25,22.5 7.36604453,21.9613911 6.02819067,21.2535193 C3.82200956,20.0862069 2,16.6616369 2,12.0614035 C2,7.4844932 3.74599318,3.8936681 5.48791537,2.88104457 C7.18530236,1.8943105 9.20245244,1.52875485 11.7907157,1.50145535 Z M17.856073,4.23894563 L17.8415357,4.26590436 C17.2196837,5.25989928 14.8403216,6 12,6 L11.7800382,5.99851609 C9.01342884,5.96112866 6.7243495,5.22131633 6.14291034,4.24037042 L6.24177821,4.1778448 C4.86046953,4.98083455 3.5,8.30049643 3.5,12.0614035 C3.5,15.9020674 4.92347903,18.9719774 6.72970967,19.927672 C8.02545669,20.6132646 9.7281132,20.9993255 11.9977477,20.99617 C14.2792813,20.9927051 15.9851483,20.6076534 17.2702903,19.927672 C19.076521,18.9719774 20.5,15.9020674 20.5,12.0614035 C20.5,8.38935103 19.2030556,5.13794047 17.856073,4.23894563 Z M12.089528,3.00027206 L11.6286196,3.00469699 C10.329457,3.03764349 9.14090034,3.24218256 8.28404448,3.56350351 C8.18066509,3.60227078 8.08483855,3.64180989 7.99707604,3.68144558 L7.85375,3.75 L7.87154421,3.75911287 C7.9378531,3.79208241 8.00993952,3.82521934 8.08750763,3.85813291 L8.28404448,3.93649649 C9.22193632,4.28820593 10.5572361,4.5 12,4.5 C13.4427639,4.5 14.7780637,4.28820593 15.7159555,3.93649649 C15.8400108,3.88997577 15.95319,3.84234359 16.0546097,3.79476682 L16.146,3.75 L16.1284558,3.74088713 C16.0621469,3.70791759 15.9900605,3.67478066 15.9124924,3.64186709 L15.7159555,3.56350351 C14.7974939,3.21908041 13.49792,3.0088355 12.089528,3.00027206 Z" id="_形状" fill="#000000" fill-rule="nonzero"/>
    </g>
</svg>