<?xml version="1.0" encoding="UTF-8"?>
<svg xmlns="http://www.w3.org/2000/svg" xmlns:xlink="http://www.w3.org/1999/xlink" width="24" height="24" viewBox="0 0 24 24" version="1.1">
    <!-- Generator: Sketch 63.1 (92452) - https://sketch.com -->
    <title>Filled/ic_device_sound_cm530_filled</title>
    <desc>Created with Sketch.</desc>
    <g id="_Filled/ic_device_sound_cm530_filled" stroke="none" stroke-width="1" fill="none" fill-rule="evenodd">
        <path d="M19.9979015,2.18594461 L19.9999314,2.16263292 C20.3114904,2.46560938 20.5,2.88804483 20.5,3.34597763 L20.49975,15.18075 L20.3299827,15.2210995 C17.5525736,15.8686165 14.7761124,16.1922619 12,16.1922619 C9.16722881,16.1922619 6.33409455,15.8552709 3.49996049,15.1810485 L3.50024618,3.34597778 C3.50024599,2.88804469 3.68875563,2.46560897 4.00031487,2.16263292 L4,2.16666667 C4,2.22465657 4.05686342,2.28126301 4.16509889,2.33591398 L4.20307252,2.35405776 L4.26383205,2.37971685 L4.33213357,2.40505699 L4.40784531,2.43006445 L4.49083551,2.45472552 L4.58097239,2.47902647 L4.62867966,2.49103761 L4.7292895,2.51477263 L4.89294546,2.54963131 L5.0103514,2.57235451 L5.13424519,2.59464895 L5.33196233,2.62725668 L5.54353594,2.65882251 L5.76852128,2.68930011 L6.00647365,2.71864317 L6.25694832,2.74680535 L6.60962505,2.78243794 L6.98271891,2.81577903 L7.17659284,2.83155596 L7.6815912,2.86828177 L8.10539672,2.89475506 L8.65818272,2.92403234 L9.11755005,2.94426887 L9.3525842,2.95328762 L9.83269463,2.96905747 L10.2010455,2.97884661 L10.7023584,2.98909307 L11.2143377,2.99603233 L11.6046878,2.99900036 L12,3 L12.3953122,2.99900036 L12.7856623,2.99603233 L13.2976416,2.98909307 L13.7989545,2.97884661 L14.1673054,2.96905747 L14.6474158,2.95328762 L15.113961,2.93451254 L15.4543337,2.91852509 L15.8946033,2.89475506 L16.1086299,2.88184946 L16.5238081,2.85406571 L17.0172811,2.81577903 L17.3903749,2.78243794 L17.7430517,2.74680535 L17.9935264,2.71864317 L18.3079366,2.67926469 L18.5285008,2.64841919 L18.735505,2.61650092 L18.9285045,2.58355618 L19.0491708,2.56104565 L19.1632834,2.53811322 L19.2707105,2.51477263 L19.4190276,2.47902647 L19.5091645,2.45472552 L19.5921547,2.43006445 L19.6678664,2.40505699 L19.736168,2.37971685 L19.7969275,2.35405776 C19.9165112,2.2998484 19.985333,2.24362001 19.9979015,2.18594461 L19.9979015,2.18594461 Z M11.5132605,1.00244789 L11.6046878,1.00188164 L11.3438756,1.00517914 L11.0854006,1.01005776 L10.7023584,1.02024026 L10.4503028,1.02887162 L10.2010455,1.03892405 L9.95471826,1.05035184 L9.59100965,1.06997227 L9.23463498,1.09243003 L9.00134589,1.10890196 L8.65818272,1.13574566 L8.43411307,1.15499865 L8.2139618,1.17528404 L7.89137007,1.20754787 L7.57833586,1.24187741 L7.2753039,1.27811833 L6.98271891,1.3161163 L6.71511877,1.35366139 L6.92186599,1.32417882 C8.29268533,1.12683966 9.82315017,1.01959602 11.5132605,1.00244789 Z M12.6509306,1.00509755 L12.3934605,1.0017351 L12.2679962,1.0007351 C13.9515996,1.01002057 15.4793281,1.10727363 16.8511817,1.29249427 L17.0044605,1.3142351 L16.586572,1.26121995 L16.2820099,1.22618335 L16.0736046,1.20389494 L15.7532705,1.17217722 L15.4240485,1.14265047 L15.0863701,1.11546444 L14.8567663,1.09871476 L14.6237237,1.08311632 L14.2679962,1.0619743 L14.0269118,1.04944806 L13.7828404,1.03822836 L13.4114045,1.02394559 L13.1604143,1.01618631 L12.9068804,1.00988884 L12.6509306,1.00509755 Z" id="_形状" fill="#000000"/>
        <path d="M12,19 C12.5522847,19 13,19.4477153 13,20 C13,20.5522847 12.5522847,21 12,21 C11.4477153,21 11,20.5522847 11,20 C11,19.4477153 11.4477153,19 12,19 Z M11.8677054,1.00021098 L12.1322946,1.00021098 L12.3926927,1.0018568 L12.3926927,1.0018568 L12.6509306,1.00509755 L12.6509306,1.00509755 L12.9068804,1.00988884 L12.9068804,1.00988884 L13.1604143,1.01618631 L13.1604143,1.01618631 L13.4114045,1.02394559 L13.4114045,1.02394559 L13.7828404,1.03822836 L13.7828404,1.03822836 L14.0269118,1.04944806 L14.0269118,1.04944806 L14.2679919,1.0619743 L14.2679919,1.0619743 L14.6237237,1.08311632 L14.6237237,1.08311632 L14.8567663,1.09871476 L14.8567663,1.09871476 L15.0863701,1.11546444 L15.0863701,1.11546444 L15.4240485,1.14265047 L15.4240485,1.14265047 L15.7532705,1.17217722 L15.7532705,1.17217722 L16.0736046,1.20389494 L16.0736046,1.20389494 L16.2820099,1.22618335 L16.2820099,1.22618335 L16.586572,1.26121995 L16.586572,1.26121995 L16.9769647,1.31069657 L16.9769647,1.31069657 L17.2574322,1.34968079 L17.2574322,1.34968079 L17.4383009,1.37648078 L17.4383009,1.37648078 L17.6141326,1.40387741 L17.6141326,1.40387741 L17.8681563,1.445994 L17.8681563,1.445994 L18.1101277,1.48920347 L18.1101277,1.48920347 L18.3396153,1.53335607 L18.3396153,1.53335607 L18.4854585,1.56324116 L18.4854585,1.56324116 L18.6254337,1.5934345 L18.6254337,1.5934345 L18.8241144,1.63920542 L18.8241144,1.63920542 L18.9488603,1.66997528 L18.9488603,1.66997528 L19.0672908,1.70089811 L19.0672908,1.70089811 L19.1792779,1.73192953 C19.1973983,1.73710801 19.215245,1.74228918 19.2328152,1.74747209 L19.3348976,1.77858322 L19.3348976,1.77858322 L19.430217,1.80969202 C19.4455329,1.81487417 19.4605617,1.82005436 19.4753007,1.82523169 L19.6000556,1.87172519 L19.6000556,1.87172519 L19.674319,1.90256082 L19.674319,1.90256082 L19.741308,1.93321666 C19.9101326,2.0146864 20,2.09376508 20,2.16666667 C20,2.23109989 19.9297982,2.29382514 19.7969275,2.35405776 L19.736168,2.37971685 L19.736168,2.37971685 L19.6678664,2.40505699 L19.6678664,2.40505699 L19.5921547,2.43006445 L19.5921547,2.43006445 L19.5091645,2.45472552 L19.5091645,2.45472552 L19.4190276,2.47902647 L19.4190276,2.47902647 L19.2707105,2.51477263 L19.2707105,2.51477263 L19.1632834,2.53811322 L19.1632834,2.53811322 L19.0491708,2.56104565 L19.0491708,2.56104565 L18.9285045,2.58355618 L18.9285045,2.58355618 L18.735505,2.61650092 L18.735505,2.61650092 L18.5285008,2.64841919 L18.5285008,2.64841919 L18.3079366,2.67926469 L18.3079366,2.67926469 L17.9935264,2.71864317 L17.9935264,2.71864317 L17.7430517,2.74680535 L17.7430517,2.74680535 L17.3903749,2.78243794 L17.3903749,2.78243794 L17.0172811,2.81577903 L17.0172811,2.81577903 L16.5238081,2.85406571 L16.5238081,2.85406571 L16.1086299,2.88184946 L16.1086299,2.88184946 L15.8946033,2.89475506 L15.8946033,2.89475506 L15.4543337,2.91852509 L15.4543337,2.91852509 L15.113961,2.93451254 L15.113961,2.93451254 L14.6474158,2.95328762 L14.6474158,2.95328762 L14.1673054,2.96905747 L14.1673054,2.96905747 L13.7989545,2.97884661 L13.7989545,2.97884661 L13.2976416,2.98909307 L13.2976416,2.98909307 L12.7856623,2.99603233 L12.7856623,2.99603233 L12.3953122,2.99900036 L12.3953122,2.99900036 L12,3 L12,3 L11.6046878,2.99900036 L11.6046878,2.99900036 L11.2143377,2.99603233 L11.2143377,2.99603233 L10.7023584,2.98909307 L10.7023584,2.98909307 L10.2010455,2.97884661 L10.2010455,2.97884661 L9.83269463,2.96905747 L9.83269463,2.96905747 L9.3525842,2.95328762 L9.3525842,2.95328762 L9.11755005,2.94426887 L9.11755005,2.94426887 L8.65818272,2.92403234 L8.65818272,2.92403234 L8.10539672,2.89475506 L8.10539672,2.89475506 L7.6815912,2.86828177 L7.6815912,2.86828177 L7.17659284,2.83155596 L7.17659284,2.83155596 L6.98271891,2.81577903 L6.98271891,2.81577903 L6.60962505,2.78243794 L6.60962505,2.78243794 L6.25694832,2.74680535 L6.25694832,2.74680535 L6.00647365,2.71864317 L6.00647365,2.71864317 L5.76852128,2.68930011 L5.76852128,2.68930011 L5.54353594,2.65882251 L5.54353594,2.65882251 L5.33196233,2.62725668 L5.33196233,2.62725668 L5.13424519,2.59464895 L5.13424519,2.59464895 L5.0103514,2.57235451 L5.0103514,2.57235451 L4.89294546,2.54963131 L4.89294546,2.54963131 L4.7292895,2.51477263 L4.7292895,2.51477263 L4.62867966,2.49103761 C4.61248678,2.48704966 4.59658344,2.48304585 4.58097239,2.47902647 L4.49083551,2.45472552 L4.49083551,2.45472552 L4.40784531,2.43006445 L4.40784531,2.43006445 L4.33213357,2.40505699 L4.33213357,2.40505699 L4.26383205,2.37971685 L4.26383205,2.37971685 L4.20307252,2.35405776 C4.07020175,2.29382514 4,2.23109989 4,2.16666667 C4,2.11143819 4.0515768,2.05266455 4.14998674,1.99199187 L4.20307252,1.9615049 C4.22205406,1.95129491 4.24231455,1.94103979 4.26383205,1.93074715 L4.33213357,1.89976435 C4.34413834,1.89458433 4.35645186,1.88939684 4.3690714,1.88420284 L4.44843884,1.85296819 L4.44843884,1.85296819 L4.53501885,1.8216228 L4.53501885,1.8216228 L4.62867966,1.79021239 C4.64487254,1.78497445 4.66135496,1.7797357 4.67812418,1.7744971 L4.78215913,1.74307491 L4.78215913,1.74307491 L4.89294546,1.71170202 L4.89294546,1.71170202 L5.0103514,1.68042416 L5.0103514,1.68042416 L5.13424519,1.64928705 L5.13424519,1.64928705 L5.26449505,1.61833642 L5.26449505,1.61833642 L5.40096922,1.58761799 L5.40096922,1.58761799 L5.54353594,1.55717749 L5.54353594,1.55717749 L5.76852128,1.51213789 L5.76852128,1.51213789 L6.00647365,1.46798083 L6.00647365,1.46798083 L6.25694832,1.42486065 L6.25694832,1.42486065 L6.51950059,1.38293167 L6.51950059,1.38293167 L6.70102559,1.35571701 L6.70102559,1.35571701 L6.98271891,1.3161163 L6.98271891,1.3161163 L7.2753039,1.27811833 L7.2753039,1.27811833 L7.57833586,1.24187741 L7.57833586,1.24187741 L7.89137007,1.20754787 L7.89137007,1.20754787 L8.2139618,1.17528404 L8.2139618,1.17528404 L8.43411307,1.15499865 L8.43411307,1.15499865 L8.65818272,1.13574566 L8.65818272,1.13574566 L9.00134589,1.10890196 L9.00134589,1.10890196 L9.23463498,1.09243003 L9.23463498,1.09243003 L9.59100965,1.06997227 L9.59100965,1.06997227 L9.95471826,1.05035184 L9.95471826,1.05035184 L10.2010455,1.03892405 L10.2010455,1.03892405 L10.4503028,1.02887162 L10.4503028,1.02887162 L10.7023584,1.02024026 L10.7023584,1.02024026 L11.0854006,1.01005776 L11.0854006,1.01005776 L11.3438756,1.00517914 L11.3438756,1.00517914 L11.6046878,1.00188164 L11.6046878,1.00188164 L11.8677054,1.00021098 L11.8677054,1.00021098 Z" id="_形状" fill="#000000" opacity="0.400000006"/>
        <path d="M20.4997817,16.2645615 L20.5000039,20.1032612 C20.5000039,21.075547 19.8617664,21.9325305 18.9302291,22.2110591 C17.1711567,22.7370197 14.8611214,23 12.0001231,23 C9.13912424,23 6.82908853,22.7370196 5.07001597,22.2110587 C4.13847954,21.9325294 3.50024618,21.0755464 3.50024618,20.1032611 L3.50000394,16.2645615 C6.33259769,16.9214463 9.16612633,17.25 12.0000039,17.25 C14.8338022,17.25 17.6672594,16.9214629 20.4997817,16.2645615 Z M12,19 C11.4477088,19 11,19.4477544 11,20 C11,20.5524205 11.4477088,21.0001749 12,21 C12.5522623,21.0001749 12.999971,20.5524205 13,20 C12.999971,19.4477544 12.5522623,19 12,19 Z" id="_形状结合" fill="#000000" opacity="0.600000024"/>
    </g>
</svg>