<?xml version="1.0" encoding="UTF-8"?>
<svg xmlns="http://www.w3.org/2000/svg" xmlns:xlink="http://www.w3.org/1999/xlink" width="24" height="24" viewBox="0 0 24 24" version="1.1">
    <!-- Generator: Sketch 63.1 (92452) - https://sketch.com -->
    <title>Linear/ic_device_sound_cm510</title>
    <desc>Created with Sketch.</desc>
    <defs>
        <path d="M12,8.5 C16.7723853,8.5 20.4631888,8.69753934 23.0724104,9.09261801 C23.6057545,9.17337464 24,9.63180917 24,10.1712325 L24,16.4867105 C24,17.2053199 23.5311656,17.8398389 22.8442505,18.0509008 C20.2425524,18.8503003 16.6278023,19.25 12,19.25 L11.5166046,19.2485237 L11.0406925,19.2440949 C6.86985376,19.1919334 3.57487301,18.7942022 1.15575029,18.0509011 C0.468833781,17.8398399 4.54747351e-12,17.2053199 4.54747351e-12,16.4867094 L4.54747351e-12,10.1712329 C4.54747351e-12,9.63180959 0.394245168,9.17337507 0.927589204,9.09261808 L1.20623887,9.05176045 C3.70293134,8.69729616 7.13473118,8.51361921 11.5016384,8.5007296 L12,8.5 Z M22.5000036,14.9522148 C19.4153965,15.4419518 16.1485533,15.625 12,15.625 L11.4500149,15.6238963 C7.56028835,15.6080584 4.4469056,15.4201003 1.49985861,14.9522148 L1.49985861,16.4867094 C1.49985861,16.5391081 1.52991231,16.5861413 1.57573967,16.608864 L1.59631355,16.6170587 C4.0325744,17.3656256 7.50872757,17.7499996 12,17.7499996 L12.4690152,17.7485812 C16.7339332,17.722578 20.0529091,17.3393601 22.4036872,16.6170585 C22.4537747,16.6016686 22.4899485,16.5592607 22.4982094,16.5087827 L22.5000036,16.4867105 L22.5000036,14.9522148 Z M12.5,16.25 C12.7761424,16.25 13,16.4738576 13,16.75 C13,17.0261424 12.7761424,17.25 12.5,17.25 L11.5,17.25 C11.2238576,17.25 11,17.0261424 11,16.75 C11,16.4738576 11.2238576,16.25 11.5,16.25 L12.5,16.25 Z M12.0010936,9.9999996 L11.7520165,10.0001808 C7.49031354,10.0064199 4.13108608,10.1743785 1.68932218,10.4994333 L1.49981246,10.52525 L1.49981246,13.6860074 L1.91010627,13.7510312 C4.859401,14.2038546 8.00903239,14.375 12,14.375 L12.5414643,14.3739191 L13.0958075,14.3704392 C16.7554658,14.3390769 19.7051121,14.1428582 22.5,13.6860685 L22.5,10.525 L22.1711425,10.481157 C19.7870085,10.1739398 16.5532276,10.0124423 12.4837147,10.000691 L12.0010936,9.9999996 Z" id="_path-1"/>
    </defs>
    <g id="_Linear/ic_device_sound_cm510" stroke="none" stroke-width="1" fill="none" fill-rule="evenodd">
        <mask id="_mask-2" fill="white">
            <use xlink:href="#_path-1"/>
        </mask>
        <use id="_形状结合" fill="#000000" fill-rule="nonzero" xlink:href="#_path-1"/>
    </g>
</svg>