<?xml version="1.0" encoding="UTF-8"?>
<svg xmlns="http://www.w3.org/2000/svg" xmlns:xlink="http://www.w3.org/1999/xlink" width="24" height="24" viewBox="0 0 24 24" version="1.1">
    <!-- Generator: Sketch 63.1 (92452) - https://sketch.com -->
    <title>Filled/ic_device_vrglass_filled</title>
    <desc>Created with Sketch.</desc>
    <g id="_Filled/ic_device_vrglass_filled" stroke="none" stroke-width="1" fill="none" fill-rule="evenodd">
        <path d="M16.0037202,9 C17.3133916,9 18.601902,9.33037121 19.75,9.96053785 L19.9434918,10.0667414 C20.2809602,10.2519706 20.5735246,10.4966674 20.8110483,10.7837047 C18.9654874,11.0584434 15.9968622,11.1053268 12,11.1053268 L11.535747,11.1051352 C7.762227,11.1018919 4.9595868,11.0551298 3.18517642,10.7892548 C3.42305513,10.4995314 3.7170663,10.2530538 4.05650817,10.0667414 L4.25,9.96053785 C5.39809804,9.33037121 6.6866084,9 7.99627978,9 L16.0037202,9 Z" id="_形状结合" fill="#000000" opacity="0.6"/>
        <path d="M13.6897285,5.99980365 C15.3066384,6.02550926 16.9464385,6.16155567 18.6091285,6.40808139 L19.2629339,6.50940636 C21.809776,6.92647909 24.1563977,7.63580278 23.9918281,10.4162298 L23.9643287,10.8617665 L23.9157419,11.5460207 C23.7540001,13.6000223 23.500702,14.6353791 22.6809622,16.1622191 C23.2649099,14.8196607 23.5965781,13.1604046 23.5965781,12.0196048 C23.5965781,10.2388444 23.2465155,10.4660241 22.9378805,10.6898815 L22.8533644,10.7405181 C22.3711825,10.9932354 20.5232203,11.5606772 17.6871953,11.6008864 L17.3680345,11.6031416 L6.82512168,11.6031416 C3.68301099,11.6031416 1.83994318,11.082698 1.30997455,10.819234 L1.20553972,10.7614741 C0.808347573,10.520968 0.654023629,10.2092675 0.609432982,11.3529378 L0.597595209,11.8530163 L0.596578067,12.0196048 C0.596578067,13.6100888 1.24125699,16.2083205 2.31725923,17.555626 C2.02495908,17.2843871 1.74927564,16.9348237 1.49640724,16.4847885 L1.38632993,16.286349 C0.369950308,14.4288904 0.180706902,13.3312327 0.0081719375,10.4162298 C-0.170416886,7.39894601 2.60825156,6.82065821 5.39087146,6.40808139 C7.05356155,6.16155567 8.69336156,6.02550926 10.3102715,5.99980365 C10.3719672,5.99891154 10.4314572,6.00811498 10.4871443,6.02593533 C5.09000255,6.2094036 0.75,7.35911536 0.75,8.75 C0.75,9.369757 0.967942647,10.0104203 1.49640724,10.3245399 L1.56484303,10.3613009 L1.56484303,10.3613009 L1.64289114,10.3960552 C2.85516097,10.9396833 5.5865803,11.0720143 9.73741087,11.0991211 L12,11.1053268 C16.0017136,11.1053268 18.9726925,11.0583295 20.817845,10.7839756 L21.0426185,10.7484842 C21.5597446,10.6719286 22.0047075,10.5585034 22.3624049,10.3944053 L22.5035928,10.3245399 L22.5035928,10.3245399 C23.0975453,10.007427 23.25,9.45094114 23.25,8.75 C23.25,7.35911536 18.9099974,6.2094036 13.5130757,6.02563004 C13.5685428,6.00811498 13.6280328,5.99891154 13.6897285,5.99980365 Z" id="_路径" fill="#000000" opacity="0.8"/>
        <path d="M1.30997455,10.819234 L1.44935445,10.8816957 C2.12011807,11.1569451 3.91575993,11.6031416 6.82512168,11.6031416 L17.3680345,11.6031416 C20.4921902,11.6031416 22.4926209,10.9589332 22.9013005,10.7137763 L23.0715477,10.599603 C23.3393893,10.442094 23.5965781,10.4932387 23.5965781,12.0196048 C23.5965781,13.1604046 23.2649099,14.8196607 22.6803044,16.1638953 L22.5035928,16.4847885 L22.5035928,16.4847885 C21.3904366,18.4658955 19.8351564,18.5 18.3316567,18.5 L18.1009082,18.4985978 C17.546478,18.4920544 16.8799279,18.4626091 16.1012581,18.4102619 C14.9043603,18.329794 13.8577205,17.5814738 13.3924801,16.4806714 L12.8849204,15.193301 C12.7426017,14.8315598 12.4024446,14.588338 12.0174722,14.5678721 L11.9825278,14.5678721 C11.5975554,14.588338 11.2573983,14.8315598 11.1150796,15.193301 L10.6376698,16.4067658 C10.1887227,17.5478853 9.12223741,18.3280058 7.89874193,18.4102619 L7.57189076,18.4312942 C6.82525515,18.4770981 6.19073933,18.5 5.6683433,18.5 L5.38595089,18.4991333 C4.31201407,18.4907761 3.22747212,18.4044911 2.31070178,17.5494233 C1.23896887,16.1990938 0.596578067,13.6072638 0.596578067,12.0196048 L0.604421049,11.5035871 C0.644558058,10.0775354 0.816555487,10.5739398 1.30997455,10.819234 Z" id="_路径" fill="#000000"/>
        <path d="M10.870561,6.54279321 C10.870561,6.86301259 10.6300329,7.12161568 10.3193449,7.14406209 C5.28106109,7.50799503 2.34008188,8.56815429 1.49640724,10.3245399 L1.60389114,10.379465 C1.56438432,10.3619246 1.528518,10.3436265 1.49640724,10.3245399 C0.967942647,10.0104203 0.75,9.369757 0.75,8.75 C0.75,7.35920138 5.0894658,6.20954579 10.4859231,6.02566414 C10.7059029,6.0954562 10.8667137,6.29948079 10.870561,6.54279321 Z M13.4352778,6.05747812 L13.5140769,6.02566414 L14.1693616,6.05295785 C19.2575469,6.30379697 23.25,7.41596867 23.25,8.75 C23.25,9.39702259 23.1200978,9.92095904 22.632953,10.247154 L22.5035928,10.3245399 C21.6599181,8.56815429 18.7189389,7.50799503 13.6806551,7.14406209 C13.3834753,7.12259161 13.150424,6.88505339 13.1307205,6.5918299 L13.129439,6.54279321 C13.1328108,6.32955744 13.2567388,6.14649684 13.4352778,6.05747812 Z" id="_形状" fill="#000000"/>
    </g>
</svg>