<?xml version="1.0" encoding="UTF-8"?>
<svg xmlns="http://www.w3.org/2000/svg" xmlns:xlink="http://www.w3.org/1999/xlink" width="24" height="24" viewBox="0 0 24 24" version="1.1">
    <!-- Generator: Sketch 63.1 (92452) - https://sketch.com -->
    <title>Linear/ic_device_vrglass</title>
    <desc>Created with Sketch.</desc>
    <defs>
        <path d="M13.6897285,5.7498719 C15.3066384,5.77550926 16.9464385,5.91155567 18.6091285,6.15808139 L19.0159702,6.22163192 C21.6558011,6.65667557 24.1617052,7.54613058 23.9918281,10.4162298 L23.9441182,11.146721 C23.7661351,13.6025007 23.4564302,15.039004 22.5035928,16.7347885 C21.4600089,18.5920763 20.0278393,18.7381315 18.6140491,18.7491333 C17.8286101,18.7552455 17.116039,18.7356921 16.4763358,18.6904731 L16.1012581,18.6602619 C14.9457346,18.5825756 13.9302603,18.1054053 13.4427937,17.091323 L13.3623302,16.9067658 L12.8849204,15.693301 C12.7584149,15.3717533 12.4755926,15.1438505 12.1439266,15.0828013 L12.0087361,15.0674055 L11.9912639,15.0674055 L11.8560734,15.0828013 C11.5658657,15.1362193 11.3130538,15.3173847 11.1696366,15.5772532 L11.1150796,15.693301 L10.6376698,16.9067658 C10.2136642,17.9844898 9.23882979,18.5172177 8.10112508,18.6423776 L7.29923498,18.7104863 L6.95148178,18.7304943 C6.5793495,18.7474384 6.11493648,18.7548062 5.38595089,18.7491333 L5.05955058,18.7434796 C3.7541262,18.7055358 2.45971543,18.449208 1.49640724,16.7347885 C0.452823376,14.8775007 0.180706902,13.3312327 0.0081719375,10.4162298 C-0.170416886,7.39894601 2.60825156,6.57065821 5.39087146,6.15808139 C7.05356155,5.91155567 8.69336156,5.77550926 10.3102715,5.74961049 C10.5844318,5.74559085 10.8150365,5.94203905 10.8619272,6.20343998 L10.870561,6.29279321 C10.8706231,6.58099065 10.6757456,6.8192789 10.410278,6.88041801 L10.3193449,6.89406209 L9.9972042,6.91782384 C5.15553732,7.28264113 2.32193834,7.85592602 1.49640724,9.57453987 C1.99392637,9.84070246 2.81339395,10.0172407 3.94510546,10.1338678 L4.05650817,10.0667414 L4.25,9.96053785 C5.39809804,9.33037121 6.6866084,9 7.99627978,9 L16.0037202,9 C17.3133916,9 18.601902,9.33037121 19.75,9.96053785 L19.9434918,10.0667414 L20.055077,10.133849 C21.1866941,10.0172217 22.0061004,9.84068816 22.5035928,9.57453987 C21.6599181,7.81815429 18.7189389,7.25799503 13.6806551,6.89406209 C13.4010359,6.87386032 13.1781904,6.66237164 13.1364175,6.39319402 L13.12937,6.30151478 C13.1342558,5.98817069 13.3851059,5.74513012 13.6897285,5.7498719 Z M1.66820018,11.2530912 L1.566,11.2208719 L1.57629969,11.351314 C1.75672983,13.5714212 2.05978804,14.6753153 2.80411354,16.0000068 C3.37540857,17.0167524 3.91961255,17.2376771 5.39762326,17.2491787 L6.09568538,17.2504255 L6.63898481,17.2412253 C6.74728113,17.2379601 6.84887252,17.2338613 6.94693162,17.2288888 L7.47773735,17.1919157 L7.79812353,17.1636403 C8.52924343,17.1144869 8.98198461,16.8727667 9.19384498,16.4634144 L9.24181342,16.3575984 L9.71922317,15.1441335 C10.0123844,14.3989855 10.6429655,13.846526 11.406152,13.6472326 L11.5845327,13.6075841 L11.6863476,13.5924345 L11.8215381,13.5770387 L11.9912639,13.5674055 L12.0887287,13.56954 C13.0079944,13.6184119 13.8162805,14.1615525 14.208064,14.9773947 L14.2807768,15.1441335 L14.7581866,16.3575984 C14.9301605,16.7947163 15.3398905,17.0662799 16.0525105,17.149539 L16.2370134,17.1664177 C16.9173097,17.2282406 17.7064515,17.2561507 18.6023767,17.2491787 C20.0803874,17.2376771 20.6245914,17.0167524 21.1958865,16.0000068 C21.8988605,14.7489092 22.2082351,13.6947576 22.3924385,11.7112259 L22.433,11.2218719 L22.3692695,11.2432544 C20.9389094,11.6878906 18.6291952,11.8240383 14.0495365,11.8502273 L11.9986977,11.8551213 L10.0473847,11.8509239 C5.50253831,11.8270131 3.13077964,11.6948626 1.66820018,11.2530912 Z" id="_path-1"/>
    </defs>
    <g id="_Linear/ic_device_vrglass" stroke="none" stroke-width="1" fill="none" fill-rule="evenodd">
        <mask id="_mask-2" fill="white">
            <use xlink:href="#_path-1"/>
        </mask>
        <use id="_形状" fill="#000000" xlink:href="#_path-1"/>
    </g>
</svg>