<?xml version="1.0" encoding="UTF-8"?>
<svg xmlns="http://www.w3.org/2000/svg" xmlns:xlink="http://www.w3.org/1999/xlink" width="24" height="24" viewBox="0 0 24 24" version="1.1">
    <!-- Generator: Sketch 63.1 (92452) - https://sketch.com -->
    <title>Filled/ic_device_watch_filled</title>
    <desc>Created with Sketch.</desc>
    <g id="_Filled/ic_device_watch_filled" stroke="none" stroke-width="1" fill="none" fill-rule="evenodd">
        <path d="M14.4390389,0.712127586 C15.4958471,0.712127586 16.3844871,1.49621036 16.5218754,2.53736715 L16.5456143,2.74998248 C16.6922605,3.9955807 17.1064093,5.34416981 17.7925009,6.79448528 L17.8346023,6.84153292 C17.8965901,6.91159282 17.9573354,6.98277745 18.0168039,7.0550523 L18.0215228,7.05195054 C18.2569962,6.91003063 18.5658611,6.98726409 18.7075141,7.22296948 L19.2249857,8.08366308 C19.3611588,8.31024993 19.2955305,8.60424699 19.080633,8.75248046 C19.5346247,9.74082433 19.7878724,10.8408376 19.7878724,12 C19.7878724,13.1906648 19.5206727,14.3189218 19.0429651,15.3280791 L19.0548153,15.3345451 C19.278752,15.4693524 19.3591862,15.7546497 19.2452199,15.9849304 L19.2256023,16.0208033 L18.7074698,16.8827962 C18.5658167,17.1185016 18.2569344,17.1954856 18.021229,17.0538325 C17.999884,17.0409831 17.9798428,17.0267664 17.9611495,17.0113604 C17.9062842,17.0770243 17.8500482,17.1416664 17.7927768,17.2053589 C17.1064567,18.6555633 16.6922689,20.0042355 16.5456143,21.249905 L16.5293433,21.3984593 C16.4206881,22.4713472 15.5174146,23.2877599 14.4390389,23.2877599 L9.53342715,23.2877599 C8.43848956,23.2877599 7.5271244,22.4468485 7.43921601,21.3554455 C7.32099994,19.887705 6.92969032,18.5271817 6.26405102,17.2674179 C4.98983879,15.8810179 4.21212759,14.031331 4.21212759,12 C4.21212759,9.96879152 4.98974497,8.11920531 6.26352061,6.73270049 C6.92961705,5.47296052 7.32098887,4.11231989 7.43921601,2.64444198 C7.52540071,1.57443902 8.40306634,0.745200808 9.46923561,0.713093044 L9.53342715,0.712127586 L14.4390389,0.712127586 Z M12,5.21212759 C8.25116158,5.21212759 5.21212759,8.25116158 5.21212759,12 C5.21212759,15.7488384 8.25116158,18.7878724 12,18.7878724 C15.7488384,18.7878724 18.7878724,15.7488384 18.7878724,12 C18.7878724,8.25116158 15.7488384,5.21212759 12,5.21212759 Z" id="_形状" fill="#000000"/>
        <path d="M12,6 C8.6862915,6 6,8.6862915 6,12 C6,15.3137085 8.6862915,18 12,18 C15.3137085,18 18,15.3137085 18,12 C18,8.6862915 15.3137085,6 12,6 Z" id="_路径" fill="#000000" opacity="0.600000024"/>
    </g>
</svg>