<?xml version="1.0" encoding="UTF-8"?>
<svg xmlns="http://www.w3.org/2000/svg" xmlns:xlink="http://www.w3.org/1999/xlink" width="24" height="24" viewBox="0 0 24 24" version="1.1">
    <!-- Generator: Sketch 63.1 (92452) - https://sketch.com -->
    <title>Linear/ic_device_watch</title>
    <desc>Created with Sketch.</desc>
    <defs>
        <path d="M14.439039,0.75 C15.476365,0.75 16.3486917,1.5193077 16.4841614,2.54106054 L16.4916636,2.60524413 C16.6226082,3.89822167 17.0441474,5.30244996 17.7610533,6.81656996 C17.8378866,6.90134943 17.9124767,6.98795485 17.9851534,7.07619532 C17.9965319,7.0677159 18.0087961,7.05958995 18.0215228,7.05195054 C18.2569962,6.91003063 18.5658611,6.98726409 18.7075141,7.22296948 L19.2249857,8.08366308 C19.3666388,8.31936846 19.2899216,8.62801879 19.0539668,8.76965444 L19.0481895,8.77281831 C19.498795,9.75533714 19.75,10.8483325 19.75,12 C19.75,13.1844196 19.4843038,14.3067826 19.0092627,15.3107377 C19.0246985,15.3174967 19.0399034,15.3255834 19.0548153,15.3345451 C19.278752,15.4693524 19.3591862,15.7546497 19.2452199,15.9849304 L19.2256023,16.0208033 L18.7074698,16.8827962 C18.5658167,17.1185016 18.2569344,17.1954856 18.021229,17.0538325 C17.9886912,17.0342451 17.959183,17.0114806 17.9328605,16.9861694 C17.8769401,17.0530921 17.8196206,17.1189454 17.7612215,17.1838073 C17.071638,18.6394004 16.6554513,19.9935187 16.5080606,21.2448544 L16.4916636,21.3945213 C16.384967,22.4480693 15.497976,23.2497654 14.439039,23.2497654 L9.53342715,23.2497654 C8.45822687,23.2497654 7.56328993,22.4240123 7.47696617,21.3522828 C7.3581896,19.8775834 6.96459604,18.5104838 6.29500426,17.2448134 C5.02509936,15.8649264 4.25,14.0229803 4.25,12 C4.25,9.97714237 5.02500538,8.13529695 6.29429054,6.75518934 C6.96449256,5.48964099 7.35817399,4.12237585 7.47696617,2.64748262 C7.56156345,1.59718774 8.42275284,0.783128517 9.46913647,0.750986266 L9.53342715,0.75 L14.439039,0.75 Z M15.4732214,18.9296863 L15.454453,18.9394308 C14.4143642,19.4581904 13.24126,19.75 12,19.75 C10.7704313,19.75 9.60774059,19.4636616 8.57497187,18.9540288 C8.7767803,19.6881284 8.90896965,20.4477459 8.97212415,21.231856 C8.99568576,21.5243789 9.23995579,21.7497654 9.53342715,21.7497654 L14.4390407,21.7497654 C14.7280744,21.7497654 14.9701748,21.5309459 14.9992972,21.2433839 L15.017155,21.0796449 C15.0984677,20.3835522 15.2506556,19.6669465 15.4732214,18.9296863 Z M12,5.75 C8.54822031,5.75 5.75,8.54822031 5.75,12 C5.75,15.4517797 8.54822031,18.25 12,18.25 C15.4517797,18.25 18.25,15.4517797 18.25,12 C18.25,8.54822031 15.4517797,5.75 12,5.75 Z M14.4390407,2.25 L9.53342715,2.25 C9.23995579,2.25 8.99568576,2.47538654 8.97212415,2.76790946 C8.90896465,3.55208153 8.77675938,4.31175725 8.57562914,5.04630551 C9.60774059,4.53633844 10.7704313,4.25 12,4.25 C13.2490422,4.25 14.4290713,4.54548013 15.4740001,5.07035319 C15.2699895,4.39691845 15.1253887,3.74067885 15.0398929,3.10156628 L15.017155,2.92012053 L14.9992972,2.75638148 C14.9701748,2.46881947 14.7280744,2.25 14.4390407,2.25 Z" id="_path-1"/>
    </defs>
    <g id="_Linear/ic_device_watch" stroke="none" stroke-width="1" fill="none" fill-rule="evenodd">
        <mask id="_mask-2" fill="white">
            <use xlink:href="#_path-1"/>
        </mask>
        <use id="_形状" fill="#000000" xlink:href="#_path-1"/>
    </g>
</svg>