<?xml version="1.0" encoding="UTF-8"?>
<svg xmlns="http://www.w3.org/2000/svg" xmlns:xlink="http://www.w3.org/1999/xlink" width="24" height="24" viewBox="0 0 24 24" version="1.1">
    <!-- Generator: Sketch 63.1 (92452) - https://sketch.com -->
    <title>Linear/ic_device_watch_fit</title>
    <desc>Created with Sketch.</desc>
    <defs>
        <path d="M14.5545718,0.75 C15.2269987,0.75 15.8142671,1.24425018 15.8442448,1.92165478 C15.8844199,2.82948742 16.0572081,3.53356618 16.3474097,4.03773837 L16.387709,4.1052504 L16.5295745,4.33457276 C17.2698479,4.88088247 17.75,5.75936847 17.75,6.75 L17.7502252,9.79275606 C18.0414056,9.89577871 18.25,10.1735294 18.25,10.5 L18.25,13.5 C18.25,13.8264706 18.0414056,14.1042213 17.7502252,14.2072439 L17.75,17.25 C17.75,18.2406315 17.2698479,19.1191175 16.5295745,19.6654272 L16.387709,19.8947496 C16.0731901,20.4028476 15.886246,21.1292475 15.8442448,22.0783452 C15.8142671,22.7557498 15.2269987,23.25 14.5545718,23.25 L9.44542837,23.25 C8.7730014,23.25 8.18573295,22.75575 8.15575519,22.0783452 C8.11375397,21.1292475 7.92680987,20.4028476 7.61229101,19.8947496 L7.4704255,19.6654272 C6.73015209,19.1191175 6.25,18.2406315 6.25,17.25 L6.25,6.75 C6.25,5.75936847 6.73015209,4.88088247 7.4704255,4.33457276 L7.61229101,4.1052504 C7.92680987,3.59715236 8.11375397,2.87075254 8.15575519,1.92165477 C8.18490024,1.26306684 8.74080538,0.777599658 9.38960003,0.751137429 L9.44542837,0.75 L14.5545718,0.75 Z M14.61475,20.25 L9.385,20.25 L9.39521103,20.284227 C9.50734214,20.6798862 9.58382675,21.1131983 9.62590966,21.5838482 L9.639,21.75 L14.36075,21.75 L14.3613351,21.742114 C14.3996168,21.2099547 14.4801988,20.7238483 14.604789,20.284227 L14.61475,20.25 Z M14.75,5.25 L9.25,5.25 C8.44040076,5.25 7.78060706,5.89139372 7.75103462,6.69376543 L7.75,6.75 L7.75,17.25 C7.75,18.0595992 8.39139372,18.7193929 9.19376543,18.7489654 L9.25,18.75 L14.75,18.75 C15.5595992,18.75 16.2193929,18.1086063 16.2489654,17.3062346 L16.25,17.25 L16.25,6.75 C16.25,5.94040076 15.6086063,5.28060706 14.8062346,5.25103462 L14.75,5.25 Z M14.36075,2.25 L9.639,2.25 L9.62590966,2.41615175 C9.58850263,2.83450725 9.52391401,3.22336125 9.43126953,3.58249248 L9.39521103,3.715773 L9.385,3.75 L14.61475,3.75 L14.604789,3.715773 C14.4926579,3.3201138 14.4161733,2.88680169 14.3740903,2.41615176 L14.36075,2.25 Z" id="_path-1"/>
    </defs>
    <g id="_Linear/ic_device_watch_fit" stroke="none" stroke-width="1" fill="none" fill-rule="evenodd">
        <mask id="_mask-2" fill="white">
            <use xlink:href="#_path-1"/>
        </mask>
        <use id="_形状" fill="#000000" fill-rule="nonzero" xlink:href="#_path-1"/>
    </g>
</svg>