<?xml version="1.0" encoding="UTF-8"?>
<svg xmlns="http://www.w3.org/2000/svg" xmlns:xlink="http://www.w3.org/1999/xlink" width="24" height="24" viewBox="0 0 24 24" version="1.1">
    <!-- Generator: Sketch 63.1 (92452) - https://sketch.com -->
    <title>Filled/ic_device_watch_fit_filled</title>
    <desc>Created with Sketch.</desc>
    <g id="_Filled/ic_device_watch_fit_filled" stroke="none" stroke-width="1" fill="none" fill-rule="evenodd">
        <path d="M14.5545718,0.731707317 C15.236313,0.731707317 15.8320848,1.23311414 15.8625196,1.92084605 C15.9002055,2.77243118 16.0547786,3.44356339 16.3132686,3.93752563 L16.4032629,4.09562236 L16.5729099,4.3671603 C17.2885322,4.91544972 17.75,5.77883407 17.75,6.75 L17.7513685,9.79316162 C18.0419515,9.89650612 18.25,10.1739569 18.25,10.5 L18.25,13.5 C18.25,13.8260431 18.0419515,14.1034939 17.7513685,14.2068384 L17.75,17.25 C17.75,18.2216176 17.2881028,19.0853534 16.5719112,19.6336045 L16.4032629,19.9043776 C16.0905712,20.4095239 15.9043928,21.1329482 15.8625196,22.079154 C15.8320848,22.7668859 15.236313,23.2682927 14.5545718,23.2682927 L9.44542837,23.2682927 C8.76368716,23.2682927 8.16791518,22.766886 8.1374804,22.079154 C8.09560716,21.1329482 7.90942882,20.4095239 7.59673714,19.9043776 L7.42808877,19.6336045 C6.71189718,19.0853534 6.25,18.2216176 6.25,17.25 L6.25,6.75 C6.25,5.77883407 6.71146781,4.91544972 7.42709006,4.3671603 L7.59673714,4.09562236 C7.90942882,3.59047607 8.09560716,2.86705175 8.1374804,1.92084604 C8.166013,1.27609725 8.69142401,0.795110985 9.31872638,0.737506252 L9.44542837,0.731707317 L14.5545718,0.731707317 Z M14.75,4.75 L9.25,4.75 C8.1956382,4.75 7.33183488,5.56587779 7.25548574,6.60073766 L7.25,6.75 L7.25,17.25 C7.25,18.3043618 8.06587779,19.1681651 9.10073766,19.2445143 L9.25,19.25 L14.75,19.25 C15.8043618,19.25 16.6681651,18.4341222 16.7445143,17.3992623 L16.75,17.25 L16.75,6.75 C16.75,5.6956382 15.9341222,4.83183488 14.8992623,4.75548574 L14.75,4.75 Z" id="_形状" fill="#000000"/>
        <rect id="_矩形" fill="#000000" opacity="0.600000024" x="8" y="5.5" width="8" height="13" rx="1.25"/>
    </g>
</svg>