<svg id="HarmonyOS" xmlns="http://www.w3.org/2000/svg" viewBox="0 0 575 105" width="180px" height="32.88px" fill="rgba(0, 0, 0, 1)">
    <path id="H" d="M0,79H13V45H50V79H63V1H50V33H13V1H0Z"/>
    <path id="a" d="M107,73h1v6h11V43c0-17-13-21-24-21-8,0-16,3-21,11l8,6c4-5,7-7,13-7,7,0,11,3,12,7v6H91c-7,0-19,6-19,17,0,15,14,18,19,18C98,80,105,76,107,73ZM90,70c-4,0-7-5-7-8,0-4,5-8,9-8h15v6c0,5-6,10-10,10Z"/>
    <path id="r" d="M129,79h13V44a10,10,0,0,1,10-10h10V23h-9c-4,0-8,2-11,7h-1V23H129Z"/>
    <path id="m" d="M168,79h13V44c0-7.94,5-11,11-11s11,3,11,11V79h13V44c0-8,5-11,11-11s11,3,11,11V79h12V42c0-15-12-20-20-20-7,0-14.05,3-17,9,0,0,0,0-1,0-3-6-9-9-16-9s-13,3-16,8h-1V23H168Z"/>
    <path id="o" d="M284,80c24,0,27-21,27-29s-3-29-27-29-28,21-28,29S260,80,284,80ZM268,51c0-7,4-19,16-19,11,0,15,12,15,19,0,8-4,19-15,19C272,70,268,59,268,51Z"/>
    <path id="n" d="M318,79h13V44c0-8,6-11,12-11s12,3,12,11V79h12V42c0-15-12-20-20-20s-14,3-17,8h-1V23H318Z"/>
    <path id="y" d="M382,105h13l32-82H415L400,63h-1L385,23H372l22,56Z"/>
    <path id="O" d="M515,40c0-23-17-40-40-40s-40,17-40,40,17,40,40,40S515,63,515,40Zm-69,0c0-15,14-29,29-29s29,14,29,29-14,29-29,29S446,55,446,40Z"/>
    <path id="S" d="M575,57c0-11-10-18-19-21s-23-4-23-15c0-6,6-11,14-11,9.09,0,14,5.05,18,11l8-6c-3-8-13-15-26-15-21,0-26,17-26,23,0,13,12,19,20,21s22,5,22,14c0,9.2-8,11-15,11-8,0-16.19-2.14-19-11l-10,6c4,10,19,16,29,16C565,80,575,69,575,57Z"/>
    <path id="_" d="M448,93h54v11H448Z" fill="rgba(10, 89, 247, 1)"/>
</svg>