<?xml version="1.0" encoding="UTF-8"?>
<svg xmlns="http://www.w3.org/2000/svg" xmlns:xlink="http://www.w3.org/1999/xlink" width="24" height="24" viewBox="0 0 24 24" version="1.1">
    <title>Public/ic_public_download_filled</title>
    <defs>
        <path d="M21,15.25 C21.5355488,15.25 21.9727697,15.6709921 21.9987762,16.2000899 L22,16.25 L22,18 C22,20.1828397 20.2515247,21.9573012 18.0787177,21.9992409 L18,22 L6,22 C3.81716027,22 2.04269883,20.2515247 2.0007591,18.0787177 L2,16.25 C2,15.6977153 2.44771525,15.25 3,15.25 C3.53554885,15.25 3.97276972,15.6709921 3.99877617,16.2000899 L4,16.25 L4,18 C4,19.0837286 4.86195944,19.9661357 5.93770517,19.9990483 L6,20 L18,20 C19.0837286,20 19.9661357,19.1380406 19.9990483,18.0622948 L20,18 L20,16.25 C20,15.6977153 20.4477153,15.25 21,15.25 Z M11.9984143,2 C12.5506991,2 12.9984143,2.44771525 12.9984143,3 L12.998,14.837 L16.5428932,11.2928932 C16.9334175,10.9023689 17.5665825,10.9023689 17.9571068,11.2928932 C18.335797,11.6715834 18.3472725,12.2784317 17.9915332,12.6709496 L17.9571068,12.7071068 L13.4142136,17.25 C12.6479017,18.0163118 11.4144483,18.0307705 10.6305085,17.2933761 L10.5857864,17.25 L6.04289322,12.7071068 C5.65236893,12.3165825 5.65236893,11.6834175 6.04289322,11.2928932 C6.42158344,10.914203 7.02843166,10.9027275 7.42094964,11.2584668 L7.45710678,11.2928932 L10.998,14.833 L10.9984143,3 C10.9984143,2.44771525 11.4461296,2 11.9984143,2 Z" id="_path-1"/>
    </defs>
    <g id="_Public/ic_public_download_filled" stroke="none" stroke-width="1" fill="none" fill-rule="evenodd">
        <mask id="_mask-2" fill="white">
            <use xlink:href="#_path-1"/>
        </mask>
        <use id="_Combined-Shape" fill="#000000" fill-rule="nonzero" xlink:href="#_path-1"/>
    </g>
</svg>