<?xml version="1.0" encoding="UTF-8"?>
<svg xmlns="http://www.w3.org/2000/svg" xmlns:xlink="http://www.w3.org/1999/xlink" width="24" height="24" viewBox="0 0 24 24" version="1.1">
    <title>ic_merge</title>
    <defs>
        <path d="M11.3773655,1.59318035 C11.9333544,1.27217997 12.6339647,1.42857611 13.0045353,1.93518376 L13.0787187,2.04905657 L16.2592478,7.55789461 C16.3685613,7.74723104 16.4261101,7.96200623 16.4261101,8.18063311 C16.4261101,8.82549994 15.9360152,9.35589898 15.3079759,9.41967985 L15.1806331,9.42611011 L12.765813,9.42611011 L12.7666285,11.6743596 C12.7666285,16.755889 16.1894212,21.1576237 21.024705,22.4572669 C21.4257877,22.5650713 21.6635368,22.9776058 21.5557325,23.3786885 C21.4479282,23.7797713 21.0353937,24.0175204 20.6343109,23.9097161 C16.5763509,22.8190044 13.3957223,19.8044379 12.0135386,15.9764756 C10.6336388,19.8044732 7.45311482,22.8190157 3.395197,23.9097161 C2.99411425,24.0175204 2.58157976,23.7797713 2.47377543,23.3786885 C2.3659711,22.9776058 2.60372024,22.5650713 3.004803,22.4572669 C7.74521115,21.1831246 11.1278873,16.9273765 11.2587188,11.9724744 L11.2626513,11.6743596 L11.261813,9.42611011 L8.81957486,9.42611011 C8.64467336,9.42611011 8.47223693,9.38927885 8.31331817,9.31857786 L8.19683636,9.25924783 C7.64084739,8.93824745 7.4259853,8.25330312 7.67943508,7.67907571 L7.74096014,7.55789461 L10.9214893,2.04905657 C11.0308027,1.85972014 11.1880291,1.70249379 11.3773655,1.59318035 Z" id="_path-1"/>
    </defs>
    <g id="_ic_merge" stroke="none" stroke-width="1" fill="none" fill-rule="evenodd">
        <mask id="_mask-2" fill="white">
            <use xlink:href="#_path-1"/>
        </mask>
        <use id="_路径" fill="#000000" xlink:href="#_path-1"/>
    </g>
</svg>