<?xml version="1.0" encoding="UTF-8"?>
<svg xmlns="http://www.w3.org/2000/svg" xmlns:xlink="http://www.w3.org/1999/xlink" width="24" height="24" viewBox="0 0 24 24" version="1.1">
    <title>Public/ic_public_mobile_data_filled</title>
    <defs>
        <path d="M12,1 C18.0751322,1 23,5.92486775 23,12 C23,18.0751322 18.0751322,23 12,23 C5.92486775,23 1,18.0751322 1,12 C1,5.92486775 5.92486775,1 12,1 Z M14.2928932,6 C14.0167508,6 13.7928932,6.22385763 13.7928932,6.5 L13.7928932,6.5 L13.7914231,7.43968712 C13.783326,7.48384033 13.7790954,7.5293456 13.7790954,7.57583896 L13.7790954,7.57583896 L13.7790954,17.2593816 L13.785942,17.3611522 C13.8356045,17.7272277 14.1493996,18.0093816 14.5290954,18.0093816 L14.5290954,18.0093816 L14.630866,18.002535 C14.9969415,17.9528726 15.2790954,17.6390774 15.2790954,17.2593816 L15.2790954,17.2593816 L15.279,9.292 L16.5857864,9.29289322 C16.7183947,9.29289322 16.8455716,9.2402148 16.9393398,9.14644661 C17.134602,8.95118446 17.134602,8.63460197 16.9393398,8.43933983 L16.9393398,8.43933983 L14.6464466,6.14644661 C14.5526784,6.05267842 14.4255015,6 14.2928932,6 Z M9.52909541,6.07734951 C9.11488185,6.07734951 8.77909541,6.41313595 8.77909541,6.82734951 L8.77909541,6.82734951 L8.779,14.542 L7.5,14.5428932 C7.36739176,14.5428932 7.2402148,14.5955716 7.14644661,14.6893398 C6.95118446,14.884602 6.95118446,15.2011845 7.14644661,15.3964466 L7.14644661,15.3964466 L9.43933983,17.6893398 C9.53310802,17.783108 9.66028497,17.8357864 9.79289322,17.8357864 C10.0690356,17.8357864 10.2928932,17.6119288 10.2928932,17.3357864 L10.2928932,17.3357864 L10.2928932,15.0428932 C10.2928932,15.0057133 10.2888351,14.9694811 10.2811377,14.9346156 L10.2811377,14.9346156 L10.2790954,6.82734951 C10.2790954,6.41313595 9.94330898,6.07734951 9.52909541,6.07734951 Z" id="_path-1"/>
    </defs>
    <g id="_Public/ic_public_mobile_data_filled" stroke="none" stroke-width="1" fill="none" fill-rule="evenodd">
        <mask id="_mask-2" fill="white">
            <use xlink:href="#_path-1"/>
        </mask>
        <use id="_合并形状" fill="#000000" xlink:href="#_path-1"/>
    </g>
</svg>