<?xml version="1.0" encoding="UTF-8"?>
<svg xmlns="http://www.w3.org/2000/svg" xmlns:xlink="http://www.w3.org/1999/xlink" width="24" height="24" viewBox="0 0 24 24" version="1.1">
    <title>ic_gallery_sync</title>
    <g id="_ic_gallery_sync" stroke="none" stroke-width="1" fill="none" fill-rule="evenodd">
        <path d="M10.9998734,3 C14.7111864,3 17.8823055,5.5423317 18.759995,9.04794617 C21.7146595,9.42106743 23.9998734,11.9436636 23.9998734,15 C23.9998734,18.2383969 21.4342985,20.8775718 18.2248116,20.9958615 L17.9998734,21.0001266 L6,21.0001266 C2.6862915,21.0001266 -6.75015599e-14,18.3138351 -6.75015599e-14,15.0001266 C-6.75015599e-14,12.7834704 1.21341914,10.7890971 3.09794349,9.74738444 C3.70208672,5.89749374 7.03520766,3 10.9998734,3 Z" id="_路径" fill="#FFFFFF" fill-rule="nonzero"/>
        <path d="M12.1125988,10.0632679 L12.2374369,10.1767767 L14.5303301,12.4696699 C14.8232233,12.7625631 14.8232233,13.2374369 14.5303301,13.5303301 C14.2640635,13.7965966 13.8473998,13.8208027 13.5537883,13.6029482 L13.4696699,13.5303301 L11.749,11.8102136 L11.7498734,17 C11.7498734,17.4142136 11.4140869,17.75 10.9998734,17.75 C10.6201776,17.75 10.3063824,17.4678461 10.25672,17.1017706 L10.2498734,17 L10.249,11.8112136 L8.53033009,13.5303301 C8.23743687,13.8232233 7.76256313,13.8232233 7.46966991,13.5303301 C7.20340335,13.2640635 7.1791973,12.8473998 7.39705176,12.5537883 L7.46966991,12.4696699 L9.76256313,10.1767767 C10.4057796,9.53356021 11.4251311,9.49572395 12.1125988,10.0632679 Z" id="_形状结合" fill="#000000" fill-rule="nonzero"/>
    </g>
</svg>