<?xml version="1.0" encoding="UTF-8"?>
<svg xmlns="http://www.w3.org/2000/svg" xmlns:xlink="http://www.w3.org/1999/xlink" width="24" height="24" viewBox="0 0 24 24" version="1.1">
    <title>Public/ic_public_topping_filled</title>
    <defs>
        <path d="M13.2540578,5.97911483 C13.3304554,6.04442567 13.4018232,6.11541257 13.4675538,6.19147138 L20.131504,13.9025167 C20.4924537,14.3201818 20.4468525,14.9516988 20.0296509,15.3130495 C19.8481282,15.4702718 19.616124,15.5568 19.3760937,15.5568 L16.25,15.556 L16.25,20.0575 C16.25,20.6097847 15.8022847,21.0575 15.25,21.0575 L8.75,21.0575 C8.19771525,21.0575 7.75,20.6097847 7.75,20.0575 L7.75,15.556 L4.62389023,15.5568 C4.07221839,15.5568 3.625,15.1090848 3.625,14.5568 C3.625,14.3187263 3.70984318,14.088463 3.86427259,13.9074171 L10.437498,6.20127214 C11.1539905,5.36128948 12.4150073,5.26182626 13.2540578,5.97911483 Z M18,2.75 C18.5522847,2.75 19,3.19771525 19,3.75 C19,4.30228475 18.5522847,4.75 18,4.75 L6,4.75 C5.44771525,4.75 5,4.30228475 5,3.75 C5,3.19771525 5.44771525,2.75 6,2.75 L18,2.75 Z" id="_path-1"/>
    </defs>
    <g id="_Public/ic_public_topping_filled" stroke="none" stroke-width="1" fill="none" fill-rule="evenodd">
        <mask id="_mask-2" fill="white">
            <use xlink:href="#_path-1"/>
        </mask>
        <use id="_蒙版" fill="#000000" xlink:href="#_path-1"/>
    </g>
</svg>