<?xml version="1.0" encoding="UTF-8"?>
<svg xmlns="http://www.w3.org/2000/svg" xmlns:xlink="http://www.w3.org/1999/xlink" width="24" height="24" viewBox="0 0 24 24" version="1.1">
    <title>Public/ic_public_upgrade_filled</title>
    <defs>
        <path d="M15.25,19 C15.8022847,19 16.25,19.4477153 16.25,20 C16.25,20.5522847 15.8022847,21 15.25,21 L8.75,21 C8.19771525,21 7.75,20.5522847 7.75,20 C7.75,19.4477153 8.19771525,19 8.75,19 L15.25,19 Z M13.2540578,2.42161483 C13.3304554,2.48692567 13.4018232,2.55791257 13.4675538,2.63397138 L20.131504,10.3450167 C20.4924537,10.7626818 20.4468525,11.3941988 20.0296509,11.7555495 C19.8481282,11.9127718 19.616124,11.9993 19.3760937,11.9993 L16.25,11.9985 L16.25,16.5 C16.25,17.0522847 15.8022847,17.5 15.25,17.5 L8.75,17.5 C8.19771525,17.5 7.75,17.0522847 7.75,16.5 L7.75,11.9985 L4.62389023,11.9993 C4.07221839,11.9993 3.625,11.5515848 3.625,10.9993 C3.625,10.7612263 3.70984318,10.530963 3.86427259,10.3499171 L10.437498,2.64377214 C11.1539905,1.80378948 12.4150073,1.70432626 13.2540578,2.42161483 Z" id="_path-1"/>
    </defs>
    <g id="_Public/ic_public_upgrade_filled" stroke="none" stroke-width="1" fill="none" fill-rule="evenodd">
        <mask id="_mask-2" fill="white">
            <use xlink:href="#_path-1"/>
        </mask>
        <use id="_形状结合" fill="#000000" xlink:href="#_path-1"/>
    </g>
</svg>