<?xml version="1.0" encoding="UTF-8"?>
<svg xmlns="http://www.w3.org/2000/svg" xmlns:xlink="http://www.w3.org/1999/xlink" width="24" height="24" viewBox="0 0 24 24" version="1.1">
    <!-- Generator: Sketch 63.1 (92452) - https://sketch.com -->
    <title>Public/ic_upload_filled</title>
    <desc>Created with Sketch.</desc>
    <defs>
        <path d="M21,15.25 C21.5355488,15.25 21.9727697,15.6709921 21.9987762,16.2000899 L22,16.25 L22,18 C22,20.1828397 20.2515247,21.9573012 18.0787177,21.9992409 L18,22 L6,22 C3.81716027,22 2.04269883,20.2515247 2.0007591,18.0787177 L2,16.25 C2,15.6977153 2.44771525,15.25 3,15.25 C3.53554885,15.25 3.97276972,15.6709921 3.99877617,16.2000899 L4,16.25 L4,18 C4,19.0837286 4.86195944,19.9661357 5.93770517,19.9990483 L6,20 L18,20 C19.0837286,20 19.9661357,19.1380406 19.9990483,18.0622948 L20,18 L20,16.25 C20,15.6977153 20.4477153,15.25 21,15.25 Z M10.6305085,3.04583742 C11.4144483,2.30844303 12.6479017,2.32290174 13.4142136,3.08921356 L13.4142136,3.08921356 L17.9571068,7.63210678 L17.9915332,7.66826392 C18.3472725,8.0607819 18.335797,8.66763012 17.9571068,9.04632034 C17.5665825,9.43684464 16.9334175,9.43684464 16.5428932,9.04632034 L16.5428932,9.04632034 L12.998,5.50142712 L12.9984143,16.9929133 C12.9984143,17.545198 12.5506991,17.9929133 11.9984143,17.9929133 C11.4461296,17.9929133 10.9984143,17.545198 10.9984143,16.9929133 L10.998,5.50542712 L7.45710678,9.04632034 L7.42094964,9.08074673 C7.02843166,9.43648603 6.42158344,9.42501057 6.04289322,9.04632034 C5.65236893,8.65579605 5.65236893,8.02263107 6.04289322,7.63210678 L6.04289322,7.63210678 L10.5857864,3.08921356 Z" id="_path-1"/>
    </defs>
    <g id="_Public/ic_upload_filled" stroke="none" stroke-width="1" fill="none" fill-rule="evenodd">
        <mask id="_mask-2" fill="white">
            <use xlink:href="#_path-1"/>
        </mask>
        <use id="_Combined-Shape" fill="#000000" fill-rule="nonzero" xlink:href="#_path-1"/>
    </g>
</svg>