<?xml version="1.0" encoding="UTF-8"?>
<svg xmlns="http://www.w3.org/2000/svg" xmlns:xlink="http://www.w3.org/1999/xlink" width="24" height="24" viewBox="0 0 24 24" version="1.1">
    <title>Public/ic_public_copy_filled</title>
    <defs>
        <path d="M6.4867991,4.5 L15.0132009,4.5 C16.5733587,4.5 17.1391096,4.66244482 17.70948,4.96748223 C18.2798504,5.27251964 18.7274804,5.72014965 19.0325178,6.29052002 C19.3375552,6.86089039 19.5,7.42664131 19.5,8.9867991 L19.5,17.5132009 C19.5,19.0733587 19.3375552,19.6391096 19.0325178,20.20948 C18.7274804,20.7798504 18.2798504,21.2274804 17.70948,21.5325178 C17.1391096,21.8375552 16.5733587,22 15.0132009,22 L6.4867991,22 C4.92664131,22 4.36089039,21.8375552 3.79052002,21.5325178 C3.22014965,21.2274804 2.77251964,20.7798504 2.46748223,20.20948 C2.16244482,19.6391096 2,19.0733587 2,17.5132009 L2,8.9867991 C2,7.42664131 2.16244482,6.86089039 2.46748223,6.29052002 C2.77251964,5.72014965 3.22014965,5.27251964 3.79052002,4.96748223 C4.36089039,4.66244482 4.92664131,4.5 6.4867991,4.5 Z M15.590287,2 C17.8190838,2 18.6272994,2.23206403 19.4421143,2.66783176 C20.2569291,3.10359949 20.8964005,3.74307093 21.3321682,4.55788574 C21.767936,5.37270056 22,6.18091615 22,8.409713 L22,14.3722296 C22,16.1552671 21.8143488,16.8018396 21.4657346,17.4536914 C21.2202776,17.9126561 20.8940321,18.3020799 20.4949174,18.6140435 C20.4981214,18.4695118 20.5,18.316606 20.5,18.1541722 L20.5,8.3458278 C20.5,6.97563815 20.3663256,6.28341544 19.9811141,5.56313259 C19.6264537,4.89997522 19.1000248,4.3735463 18.4368674,4.01888586 C17.7646034,3.65935514 17.1167829,3.51894119 15.9193798,3.50181725 L5.8458278,3.5 C5.68310622,3.5 5.5299464,3.50188529 5.38516578,3.50585327 C5.69792007,3.10596794 6.0873439,2.77972241 6.54630859,2.53426541 C7.19816044,2.18565122 7.84473292,2 9.6277704,2 L15.590287,2 Z M10.75,8.25 C11.1642136,8.25 11.5,8.58578644 11.5,9 L11.5,17.5 C11.5,17.9142136 11.1642136,18.25 10.75,18.25 C10.3357864,18.25 10,17.9142136 10,17.5 L10,14 L6.5,14 C6.08578644,14 5.75,13.6642136 5.75,13.25 C5.75,12.8357864 6.08578644,12.5 6.5,12.5 L10,12.5 L10,9 C10,8.58578644 10.3357864,8.25 10.75,8.25 Z M15,12.5 C15.4142136,12.5 15.75,12.8357864 15.75,13.25 C15.75,13.6642136 15.4142136,14 15,14 L12.5,14 L12.5,12.5 L15,12.5 Z" id="_path-1"/>
    </defs>
    <g id="_Public/ic_public_copy_filled" stroke="none" stroke-width="1" fill="none" fill-rule="evenodd">
        <mask id="_mask-2" fill="white">
            <use xlink:href="#_path-1"/>
        </mask>
        <use id="_形状结合" fill="#000000" xlink:href="#_path-1"/>
    </g>
</svg>