<?xml version="1.0" encoding="UTF-8"?>
<svg xmlns="http://www.w3.org/2000/svg" xmlns:xlink="http://www.w3.org/1999/xlink" width="24" height="24" viewBox="0 0 24 24" version="1.1">
    <title>Public/ic_public_drag_handle_filled</title>
    <defs>
        <path d="M3,10 C2.44771525,10 2,9.55228475 2,9 C2,8.44771525 2.44771525,8 3,8 L21,8 C21.5522847,8 22,8.44771525 22,9 C22,9.55228475 21.5522847,10 21,10 L3,10 Z M21,13.9751037 C21.5522847,13.9751037 22,14.422819 22,14.9751037 C22,15.5273885 21.5522847,15.9751037 21,15.9751037 L3,15.9751037 C2.44771525,15.9751037 2,15.5273885 2,14.9751037 C2,14.422819 2.44771525,13.9751037 3,13.9751037 L21,13.9751037 Z" id="_path-1"/>
    </defs>
    <g id="_Public/ic_public_drag_handle_filled" stroke="none" stroke-width="1" fill="none" fill-rule="evenodd">
        <mask id="_mask-2" fill="white">
            <use xlink:href="#_path-1"/>
        </mask>
        <use id="_move" fill="#000000" fill-rule="nonzero" xlink:href="#_path-1"/>
    </g>
</svg>