<?xml version="1.0" encoding="UTF-8"?>
<svg xmlns="http://www.w3.org/2000/svg" xmlns:xlink="http://www.w3.org/1999/xlink" width="24" height="24" viewBox="0 0 24 24" version="1.1">
    <title>Public/ic_public_drag_handle</title>
    <defs>
        <path d="M2.75,9.75 C2.33578644,9.75 2,9.41421356 2,9 C2,8.58578644 2.33578644,8.25 2.75,8.25 L21.25,8.25 C21.6642136,8.25 22,8.58578644 22,9 C22,9.41421356 21.6642136,9.75 21.25,9.75 L2.75,9.75 Z M21.25,14.25 C21.6642136,14.25 22,14.5857864 22,15 C22,15.4142136 21.6642136,15.75 21.25,15.75 L2.75,15.75 C2.33578644,15.75 2,15.4142136 2,15 C2,14.5857864 2.33578644,14.25 2.75,14.25 L21.25,14.25 Z" id="_path-1"/>
    </defs>
    <g id="_Public/ic_public_drag_handle" stroke="none" stroke-width="1" fill="none" fill-rule="evenodd">
        <mask id="_mask-2" fill="white">
            <use xlink:href="#_path-1"/>
        </mask>
        <use id="_move" fill="#000000" fill-rule="nonzero" xlink:href="#_path-1"/>
    </g>
</svg>