<?xml version="1.0" encoding="UTF-8"?>
<svg xmlns="http://www.w3.org/2000/svg" xmlns:xlink="http://www.w3.org/1999/xlink" width="24" height="24" viewBox="0 0 24 24" version="1.1">
    <title>Public/ic_public_edit_filled</title>
    <defs>
        <path d="M16.8722296,2 C17.8725531,2 18.5151789,2.05843295 19.0017157,2.17129256 L10.5628157,10.6087572 C9.78176708,11.3898058 9.78176708,12.6561358 10.5628157,13.4371843 C11.3438642,14.2182329 12.6101942,14.2182329 13.3912428,13.4371843 L21.8289375,4.9992768 C21.9416465,5.48569497 22,6.12812696 22,7.1277704 L22,16.8722296 C22,18.6552671 21.8143488,19.3018396 21.4657346,19.9536914 C21.1171204,20.6055433 20.6055433,21.1171204 19.9536914,21.4657346 C19.3018396,21.8143488 18.6552671,22 16.8722296,22 L7.1277704,22 C5.34473292,22 4.69816044,21.8143488 4.04630859,21.4657346 C3.39445674,21.1171204 2.88287959,20.6055433 2.53426541,19.9536914 C2.18565122,19.3018396 2,18.6552671 2,16.8722296 L2,7.1277704 C2,5.34473292 2.18565122,4.69816044 2.53426541,4.04630859 C2.88287959,3.39445674 3.39445674,2.88287959 4.04630859,2.53426541 C4.69816044,2.18565122 5.34473292,2 7.1277704,2 L16.8722296,2 Z M22.2300776,1.76992245 C22.6206018,2.16044674 22.6206018,2.79361172 22.2300776,3.18413601 L12.684136,12.7300776 C12.2936117,13.1206018 11.6604467,13.1206018 11.2699224,12.7300776 C10.8793982,12.3395533 10.8793982,11.7063883 11.2699224,11.315864 L20.815864,1.76992245 C21.2063883,1.37939815 21.8395533,1.37939815 22.2300776,1.76992245 Z" id="_path-1"/>
    </defs>
    <g id="_Public/ic_public_edit_filled" stroke="none" stroke-width="1" fill="none" fill-rule="evenodd">
        <mask id="_mask-2" fill="white">
            <use xlink:href="#_path-1"/>
        </mask>
        <use id="_形状结合" fill="#000000" fill-rule="nonzero" xlink:href="#_path-1"/>
    </g>
</svg>