<?xml version="1.0" encoding="UTF-8"?>
<svg xmlns="http://www.w3.org/2000/svg" xmlns:xlink="http://www.w3.org/1999/xlink" width="24" height="24" viewBox="0 0 18 18" version="1.1">
    <!-- Generator: Sketch 63.1 (92452) - https://sketch.com -->
    <title>Public/ic_public_input_voice</title>
    <desc>Created with Sketch.</desc>
    <g id="_Public/ic_public_input_voice" stroke="none" stroke-width="1" fill="none" fill-rule="evenodd">
        <path d="M14.0625,7.6875 C14.4767136,7.6875 14.8125,8.02328644 14.8125,8.4375 C14.8125,11.3936215 12.6057284,13.8343239 9.74969359,14.2020988 L9.75,15.75 C9.75,16.1642136 9.41421356,16.5 9,16.5 C8.59833836,16.5 8.27042271,16.1842559 8.25091787,15.7874326 L8.24930467,14.2019697 C5.3937556,13.8337532 3.1875,11.3932759 3.1875,8.4375 C3.1875,8.02328644 3.52328644,7.6875 3.9375,7.6875 C4.35171356,7.6875 4.6875,8.02328644 4.6875,8.4375 C4.6875,10.819228 6.61827202,12.75 9,12.75 C11.2864589,12.75 13.1573167,10.9706005 13.303327,8.72104806 L13.3125,8.4375 C13.3125,8.02328644 13.6482864,7.6875 14.0625,7.6875 Z" id="_路径" fill="#000000" fill-rule="nonzero"/>
        <path d="M9,1.5 C10.5976809,1.5 11.9036609,2.74891996 11.9949073,4.32372721 L12,4.5 L12,8.4375 C12,10.0943542 10.6568542,11.4375 9,11.4375 C7.40231912,11.4375 6.09633912,10.18858 6.00509269,8.61377279 L6,8.4375 L6,4.5 C6,2.84314575 7.34314575,1.5 9,1.5 Z" id="_路径" fill="#000000" fill-rule="nonzero"/>
    </g>
</svg>