<?xml version="1.0" encoding="utf-8"?>
<!-- Generator: Adobe Illustrator 24.3.0, SVG Export Plug-In . SVG Version: 6.00 Build 0)  -->
<svg version="1.1" id="图层_1" xmlns="http://www.w3.org/2000/svg" xmlns:xlink="http://www.w3.org/1999/xlink" x="0px" y="0px"
	 viewBox="0 0 24 24" style="enable-background:new 0 0 24 24;" xml:space="preserve">
<style type="text/css">
	.st0{fill-rule:evenodd;clip-rule:evenodd;fill:none;}
	.st1{fill-rule:evenodd;clip-rule:evenodd;}
</style>
<desc>Created with Sketch.</desc>
<g id="_形状结合">
</g>
<rect id="_x5F_color_x2F__x23_000000" y="0" class="st0" width="24" height="24"/>
<g>
	<path id="_path-1_1_" class="st1" d="M8,12.7c1.1,0,1.5,0.1,1.9,0.3c0.4,0.2,0.7,0.5,0.9,0.9c0.2,0.4,0.3,0.8,0.3,1.9v2.3
		c0,1.1-0.1,1.5-0.3,1.9s-0.5,0.7-0.9,0.9c-0.4,0.2-0.8,0.3-1.9,0.3H5.7c-1.1,0-1.5-0.1-1.9-0.3c-0.4-0.2-0.7-0.5-0.9-0.9
		c-0.2-0.4-0.3-0.7-0.3-1.7l0-2.6c0-1.1,0.1-1.5,0.3-1.9c0.2-0.4,0.5-0.7,0.9-0.9c0.4-0.2,0.8-0.3,1.9-0.3H8z M14.9,18.2
		c0.2,0,0.3,0,0.4,0.1c0.1,0,0.1,0.1,0.2,0.2c0,0.1,0.1,0.2,0.1,0.4v1.5c0,0.2,0,0.3-0.1,0.4c0,0.1-0.1,0.1-0.2,0.2
		c-0.1,0-0.2,0.1-0.4,0.1h-1.5c-0.2,0-0.3,0-0.4-0.1c-0.1,0-0.1-0.1-0.2-0.2c0-0.1-0.1-0.2-0.1-0.4v-1.5c0-0.2,0-0.3,0.1-0.4
		c0-0.1,0.1-0.1,0.2-0.2c0.1,0,0.2-0.1,0.4-0.1H14.9z M20.6,18.2c0.2,0,0.3,0,0.4,0.1c0.1,0,0.1,0.1,0.2,0.2c0,0.1,0.1,0.2,0.1,0.4
		v1.5c0,0.2,0,0.3-0.1,0.4c0,0.1-0.1,0.1-0.2,0.2c-0.1,0-0.2,0.1-0.4,0.1h-1.5c-0.2,0-0.3,0-0.4-0.1c-0.1,0-0.1-0.1-0.2-0.2
		c0-0.1-0.1-0.2-0.1-0.4v-1.5c0-0.2,0-0.3,0.1-0.4c0-0.1,0.1-0.1,0.2-0.2c0.1,0,0.2-0.1,0.4-0.1H20.6z M5.7,14.7c-0.4,0-0.6,0-0.8,0
		l-0.1,0c-0.1,0-0.1,0-0.1,0c-0.1,0-0.1,0.1-0.1,0.1c0,0.1,0,0.1,0,0.1c0,0.1,0,0.3,0,0.6l0,2.5c0,0.4,0,0.7,0,0.8
		c0,0.1,0,0.1,0,0.1c0,0.1,0.1,0.1,0.1,0.1c0.1,0,0.1,0,0.1,0l0.2,0c0.1,0,0.3,0,0.5,0l0.2,0H8l0.4,0c0.2,0,0.4,0,0.5,0
		c0.1,0,0.1,0,0.1,0c0.1,0,0.1-0.1,0.1-0.1c0,0,0-0.1,0-0.1l0,0c0-0.1,0-0.3,0-0.6l0-2.5c0-0.4,0-0.6,0-0.8l0-0.1c0-0.1,0-0.1,0-0.1
		c0-0.1-0.1-0.1-0.1-0.1c0,0-0.1,0-0.1,0l0,0c-0.1,0-0.3,0-0.6,0L5.7,14.7z M17.9,15.5c0.2,0,0.3,0,0.4,0.1c0.1,0,0.1,0.1,0.2,0.2
		c0,0.1,0.1,0.2,0.1,0.4v1.7c0,0.2,0,0.3-0.1,0.4c0,0.1-0.1,0.1-0.2,0.2c-0.1,0-0.2,0.1-0.4,0.1h-1.7c-0.2,0-0.3,0-0.4-0.1
		c-0.1,0-0.1-0.1-0.2-0.2c0-0.1-0.1-0.2-0.1-0.4v-1.7c0-0.2,0-0.3,0.1-0.4c0-0.1,0.1-0.1,0.2-0.2c0.1,0,0.2-0.1,0.4-0.1H17.9z
		 M7.7,16c0.1,0,0.2,0,0.2,0c0,0,0.1,0.1,0.1,0.1c0,0,0,0.1,0,0.2v1.6c0,0.1,0,0.2,0,0.2c0,0-0.1,0.1-0.1,0.1c0,0-0.1,0-0.2,0H6.1
		c-0.1,0-0.2,0-0.2,0c0,0-0.1-0.1-0.1-0.1c0,0,0-0.1,0-0.2v-1.6c0-0.1,0-0.2,0-0.2c0,0,0.1-0.1,0.1-0.1c0,0,0.1,0,0.2,0H7.7z
		 M14.9,13c0.2,0,0.3,0,0.4,0.1c0.1,0,0.1,0.1,0.2,0.2c0,0.1,0.1,0.2,0.1,0.4v1.5c0,0.2,0,0.3-0.1,0.4c0,0.1-0.1,0.1-0.2,0.2
		c-0.1,0-0.2,0.1-0.4,0.1h-1.5c-0.2,0-0.3,0-0.4-0.1c-0.1,0-0.1-0.1-0.2-0.2c0-0.1-0.1-0.2-0.1-0.4v-1.5c0-0.2,0-0.3,0.1-0.4
		c0-0.1,0.1-0.1,0.2-0.2c0.1,0,0.2-0.1,0.4-0.1H14.9z M20.6,13c0.2,0,0.3,0,0.4,0.1c0.1,0,0.1,0.1,0.2,0.2c0,0.1,0.1,0.2,0.1,0.4
		v1.5c0,0.2,0,0.3-0.1,0.4c0,0.1-0.1,0.1-0.2,0.2c-0.1,0-0.2,0.1-0.4,0.1h-1.5c-0.2,0-0.3,0-0.4-0.1c-0.1,0-0.1-0.1-0.2-0.2
		c0-0.1-0.1-0.2-0.1-0.4v-1.5c0-0.2,0-0.3,0.1-0.4c0-0.1,0.1-0.1,0.2-0.2c0.1,0,0.2-0.1,0.4-0.1H20.6z M8,2.5c1.1,0,1.5,0.1,1.9,0.3
		c0.4,0.2,0.7,0.5,0.9,0.9c0.2,0.4,0.3,0.8,0.3,1.9V8c0,1.1-0.1,1.5-0.3,1.9c-0.2,0.4-0.5,0.7-0.9,0.9c-0.4,0.2-0.8,0.3-1.9,0.3H5.7
		c-1.1,0-1.5-0.1-1.9-0.3c-0.4-0.2-0.7-0.5-0.9-0.9C2.6,9.6,2.5,9.2,2.5,8.3l0-2.6c0-1.1,0.1-1.5,0.3-1.9c0.2-0.4,0.5-0.7,0.9-0.9
		c0.4-0.2,0.7-0.3,1.7-0.3L8,2.5z M18.3,2.5c1.1,0,1.5,0.1,1.9,0.3c0.4,0.2,0.7,0.5,0.9,0.9c0.2,0.4,0.3,0.8,0.3,1.9V8
		c0,1.1-0.1,1.5-0.3,1.9c-0.2,0.4-0.5,0.7-0.9,0.9s-0.8,0.3-1.9,0.3H16c-1.1,0-1.5-0.1-1.9-0.3c-0.4-0.2-0.7-0.5-0.9-0.9
		c-0.2-0.4-0.3-0.8-0.3-1.9V5.7c0-1.1,0.1-1.5,0.3-1.9c0.2-0.4,0.5-0.7,0.9-0.9c0.4-0.2,0.7-0.3,1.7-0.3L18.3,2.5z M5.7,4.5
		c-0.4,0-0.7,0-0.8,0c-0.1,0-0.1,0-0.1,0c-0.1,0-0.1,0.1-0.1,0.1c0,0.1,0,0.1,0,0.1l0,0.2c0,0.1,0,0.3,0,0.5l0,2.5
		c0,0.4,0,0.7,0,0.8c0,0.1,0,0.1,0,0.1c0,0.1,0.1,0.1,0.1,0.1c0,0,0.1,0,0.1,0l0,0c0.1,0,0.3,0,0.6,0l2.5,0c0.4,0,0.6,0,0.8,0l0.1,0
		c0.1,0,0.1,0,0.1,0c0.1,0,0.1-0.1,0.1-0.1c0,0,0-0.1,0-0.1l0,0c0-0.1,0-0.3,0-0.6l0-2.5c0-0.4,0-0.6,0-0.8l0-0.1c0-0.1,0-0.1,0-0.1
		c0-0.1-0.1-0.1-0.1-0.1c-0.1,0-0.1,0-0.1,0c-0.1,0-0.3,0-0.6,0L5.7,4.5z M16,4.5c-0.4,0-0.7,0-0.8,0c-0.1,0-0.1,0-0.1,0
		c-0.1,0-0.1,0.1-0.1,0.1c0,0,0,0.1,0,0.1l0,0c0,0.1,0,0.3,0,0.6l0,2.5c0,0.4,0,0.6,0,0.8l0,0.1c0,0.1,0,0.1,0,0.1
		c0,0.1,0.1,0.1,0.1,0.1c0,0,0.1,0,0.1,0l0,0c0.1,0,0.3,0,0.6,0l2.5,0c0.4,0,0.6,0,0.8,0l0.1,0c0.1,0,0.1,0,0.1,0
		c0.1,0,0.1-0.1,0.1-0.1c0-0.1,0-0.1,0-0.1c0-0.1,0-0.3,0-0.6l0-0.2V5.7l0-0.4c0-0.2,0-0.4,0-0.5c0-0.1,0-0.1,0-0.1
		c0-0.1-0.1-0.1-0.1-0.1c-0.1,0-0.1,0-0.1,0l-0.2,0c-0.1,0-0.3,0-0.5,0L16,4.5z M7.7,5.7c0.1,0,0.2,0,0.2,0c0,0,0.1,0.1,0.1,0.1
		c0,0,0,0.1,0,0.2v1.6c0,0.1,0,0.2,0,0.2c0,0-0.1,0.1-0.1,0.1c0,0-0.1,0-0.2,0H6.1C6,8,5.9,8,5.9,8c0,0-0.1-0.1-0.1-0.1
		c0,0,0-0.1,0-0.2V6.1c0-0.1,0-0.2,0-0.2c0,0,0.1-0.1,0.1-0.1c0,0,0.1,0,0.2,0H7.7z M17.9,5.7c0.1,0,0.2,0,0.2,0
		c0,0,0.1,0.1,0.1,0.1c0,0,0,0.1,0,0.2v1.6c0,0.1,0,0.2,0,0.2c0,0-0.1,0.1-0.1,0.1c0,0-0.1,0-0.2,0h-1.6c-0.1,0-0.2,0-0.2,0
		c0,0-0.1-0.1-0.1-0.1c0,0,0-0.1,0-0.2V6.1c0-0.1,0-0.2,0-0.2c0,0,0.1-0.1,0.1-0.1c0,0,0.1,0,0.2,0H17.9z"/>
</g>
</svg>
