<?xml version="1.0" encoding="utf-8"?>
<!-- Generator: Adobe Illustrator 24.3.0, SVG Export Plug-In . SVG Version: 6.00 Build 0)  -->
<svg version="1.1" id="图层_1" xmlns="http://www.w3.org/2000/svg" xmlns:xlink="http://www.w3.org/1999/xlink" x="0px" y="0px"
	 viewBox="0 0 24 24" style="enable-background:new 0 0 24 24;" xml:space="preserve">
<style type="text/css">
	.st0{fill-rule:evenodd;clip-rule:evenodd;}
</style>
<path d="M4,6.5c0.3,0,0.6,0,0.8-0.1c0.2-0.1,0.4-0.2,0.6-0.4c0,0.1,0,0.3,0,0.5h0.8V4.1c0-0.5-0.2-0.9-0.5-1.2
	C5.4,2.6,4.9,2.5,4.3,2.5c-0.4,0-0.8,0.1-1.1,0.2C2.9,2.9,2.6,3.1,2.5,3.4l0.7,0.3c0.2-0.4,0.6-0.6,1.1-0.6c0.7,0,1,0.3,1.1,1
	C5,4.1,4.6,4.1,4.3,4.1c-0.6,0-1.1,0.1-1.4,0.3S2.3,4.9,2.3,5.3c0,0.3,0.1,0.5,0.2,0.6c0.2,0.2,0.4,0.3,0.6,0.4
	C3.4,6.4,3.7,6.5,4,6.5z M4.1,5.9c-0.3,0-0.5-0.1-0.6-0.2C3.3,5.6,3.2,5.5,3.2,5.3c0-0.2,0.1-0.4,0.3-0.5S4,4.6,4.4,4.6
	c0.3,0,0.6,0,1,0.1l0,0V5c0,0.3-0.1,0.5-0.4,0.6C4.7,5.8,4.4,5.9,4.1,5.9z"/>
<path d="M4.9,14.4c0.3,0,0.6-0.1,0.9-0.2c0.3-0.1,0.5-0.4,0.7-0.6s0.3-0.6,0.3-1c0-0.4-0.1-0.7-0.3-1c-0.2-0.3-0.4-0.5-0.7-0.6
	c-0.3-0.1-0.6-0.2-0.9-0.2c-0.3,0-0.5,0-0.7,0.1c-0.2,0.1-0.4,0.2-0.6,0.5l0,0V9.1H2.8v5.2h0.7c0-0.2,0-0.4,0-0.6
	c0.1,0.2,0.3,0.4,0.6,0.5C4.4,14.4,4.7,14.4,4.9,14.4z M4.8,13.8c-0.3,0-0.6-0.1-0.8-0.3c-0.2-0.2-0.3-0.5-0.3-0.9
	c0-0.4,0.1-0.7,0.3-0.9s0.5-0.3,0.8-0.3c0.3,0,0.6,0.1,0.8,0.3c0.2,0.2,0.3,0.5,0.3,0.9c0,0.4-0.1,0.7-0.3,0.9S5.1,13.8,4.8,13.8z"
	/>
<path d="M4.9,21.4c0.4,0,0.7-0.1,1-0.2s0.5-0.3,0.7-0.6l0,0l-0.7-0.3c-0.3,0.3-0.6,0.5-1,0.5c-0.4,0-0.7-0.1-0.9-0.3
	c-0.2-0.2-0.4-0.6-0.4-1c0-0.4,0.1-0.7,0.4-1s0.6-0.3,0.9-0.3c0.4,0,0.8,0.2,1,0.5l0,0l0.7-0.3c-0.2-0.3-0.4-0.5-0.7-0.6
	c-0.3-0.1-0.6-0.2-1-0.2c-0.4,0-0.8,0.1-1.1,0.2S3.1,18,2.9,18.3S2.6,19,2.6,19.4c0,0.4,0.1,0.8,0.3,1.1s0.5,0.5,0.8,0.7
	C4.1,21.3,4.5,21.4,4.9,21.4z"/>
<path class="st0" d="M10.3,3.9h11c0.4,0,0.7,0.3,0.7,0.7v0c0,0.4-0.3,0.7-0.7,0.7h-11C9.9,5.3,9.6,5,9.6,4.6v0
	C9.6,4.2,9.9,3.9,10.3,3.9z"/>
<path class="st0" d="M10.4,11.3h8.8c0.4,0,0.7,0.3,0.7,0.7v0c0,0.4-0.3,0.7-0.7,0.7h-8.8c-0.4,0-0.7-0.3-0.7-0.7v0
	C9.7,11.7,10,11.3,10.4,11.3z"/>
<path class="st0" d="M10.1,18.9h11c0.4,0,0.7,0.3,0.7,0.7v0c0,0.4-0.3,0.7-0.7,0.7h-11c-0.4,0-0.7-0.3-0.7-0.7v0
	C9.4,19.2,9.7,18.9,10.1,18.9z"/>
</svg>
