<?xml version="1.0" encoding="UTF-8"?>
<svg xmlns="http://www.w3.org/2000/svg" xmlns:xlink="http://www.w3.org/1999/xlink" width="24" height="24" viewBox="0 0 24 24" version="1.1">
    <title>Public/ic_public_move_filled</title>
    <defs>
        <path d="M7.37867966,3 C7.77650439,3 8.15803526,3.15803526 8.43933983,3.43933983 L11.7071068,6.70710678 C11.8946432,6.89464316 12.1489971,7 12.4142136,7 L19,7 C19.149679,7 19.2974379,7.00822125 19.4428497,7.02423682 C19.2349828,6.16929644 18.4757047,5.5288976 17.5622948,5.50095171 L17.5,5.5 L11.957,5.49986632 L10.45675,3.99986632 L17.5,4 C19.4329966,4 21,5.56700338 21,7.5 L21.0001204,7.53519846 C22.1956568,8.22683444 23,9.51948501 23,11 L23,17 C23,19.209139 21.209139,21 19,21 L5,21 C2.790861,21 1,19.209139 1,17 L1,7 C1,4.790861 2.790861,3 5,3 L7.37867966,3 Z M12.3446699,10.2573593 C12.0784034,10.5236259 12.0541973,10.9402896 12.2720518,11.2339011 L12.3446699,11.3180195 L14.315,13.2896894 L7.375,13.2892751 C6.96078644,13.2892751 6.625,13.6250615 6.625,14.0392751 C6.625,14.4189708 6.90715388,14.732766 7.27322944,14.7824285 L7.375,14.7892751 L14.312,14.7896894 L12.3446699,16.7573593 L12.3144093,16.7894205 C12.0521503,17.08394 12.0622372,17.5355867 12.3446699,17.8180195 C12.6109365,18.084286 13.0276002,18.1084921 13.3212117,17.8906376 L13.4053301,17.8180195 L15.9482233,15.2751263 L15.990047,15.2318675 C16.5936208,14.5860861 16.6167758,13.5947048 16.059512,12.9224069 L15.9482233,12.8002525 L13.4053301,10.2573593 L13.3732689,10.2270987 C13.0787494,9.96483968 12.6271027,9.97492657 12.3446699,10.2573593 Z" id="_path-1"/>
    </defs>
    <g id="_Public/ic_public_move_filled" stroke="none" stroke-width="1" fill="none" fill-rule="evenodd">
        <mask id="_mask-2" fill="white">
            <use xlink:href="#_path-1"/>
        </mask>
        <use id="_形状结合" fill="#000000" fill-rule="nonzero" xlink:href="#_path-1"/>
    </g>
</svg>