<?xml version="1.0" encoding="utf-8"?>
<!-- Generator: Adobe Illustrator 24.3.0, SVG Export Plug-In . SVG Version: 6.00 Build 0)  -->
<svg version="1.1" id="图层_1" xmlns="http://www.w3.org/2000/svg" xmlns:xlink="http://www.w3.org/1999/xlink" x="0px" y="0px"
	 viewBox="0 0 24 24" style="enable-background:new 0 0 24 24;" xml:space="preserve">
<g class="st0">
		<path id="_uxs-a_1_" class="st1" d="M7.4,3c0.4,0,0.8,0.2,1.1,0.4l3.3,3.3C11.9,6.9,12.1,7,12.4,7H19c0.1,0,0.3,0,0.4,0
			c-0.2-0.9-1-1.5-1.9-1.5l-0.1,0l-5.5,0L10.5,4l7,0C19.4,4,21,5.6,21,7.5l0,0c1.2,0.7,2,2,2,3.5v6c0,2.2-1.8,4-4,4H5
			c-2.2,0-4-1.8-4-4V7c0-2.2,1.8-4,4-4H7.4z M7.4,4.5H5c-1.4,0-2.5,1.1-2.5,2.4l0,10.1c0,1.4,1.1,2.5,2.4,2.5l0.1,0h14
			c1.4,0,2.5-1.1,2.5-2.4l0-0.1v-6c0-1.4-1.1-2.5-2.4-2.5l-6.7,0c-0.6,0-1.2-0.2-1.7-0.7l-0.1-0.1L7.4,4.5z"/>
	</g>
<path class="st3" d="M12.6,17.4c0,0.3-0.3,0.6-0.6,0.6s-0.6-0.3-0.6-0.6v-2.8H8.6C8.3,14.6,8,14.3,8,14s0.3-0.6,0.6-0.6h2.8v-2.8
	c0-0.3,0.3-0.6,0.6-0.6s0.6,0.3,0.6,0.6V17.4z M13.4,13.4h2c0.3,0,0.6,0.3,0.6,0.6s-0.3,0.6-0.6,0.6h-2V13.4z"/>
</svg>
