<?xml version="1.0" encoding="UTF-8"?>
<svg xmlns="http://www.w3.org/2000/svg" xmlns:xlink="http://www.w3.org/1999/xlink" width="24" height="24" viewBox="0 0 24 24" version="1.1">
    <title>ic_gallery_photoedit_crop_1_1</title>
    <defs>
        <path d="M19.5,3 C20.3284271,3 21,3.67157288 21,4.5 L21,19.5 C21,20.3284271 20.3284271,21 19.5,21 L4.5,21 C3.67157288,21 3,20.3284271 3,19.5 L3,4.5 C3,3.67157288 3.67157288,3 4.5,3 L19.5,3 Z M19.5,4.5 L4.5,4.5 L4.5,19.5 L19.5,19.5 L19.5,4.5 Z M12.000194,13.807 C12.140194,13.807 12.2580273,13.8571667 12.353694,13.9575 C12.4493606,14.0578333 12.497194,14.1756667 12.497194,14.311 C12.497194,14.451 12.4493606,14.5711667 12.353694,14.6715 C12.2580273,14.7718333 12.140194,14.822 12.000194,14.822 C11.8648606,14.822 11.7493606,14.7718333 11.653694,14.6715 C11.5580273,14.5711667 11.510194,14.451 11.510194,14.311 C11.510194,14.1756667 11.5580273,14.0578333 11.653694,13.9575 C11.7493606,13.8571667 11.8648606,13.807 12.000194,13.807 Z M10.2712153,9.614 L10.2712153,14.738 L9.43121531,14.738 L9.43121531,10.558 L8.24121531,11.231 L8.24121531,10.412 L9.62721531,9.614 L10.2712153,9.614 Z M15.3181666,9.614 L15.3181666,14.738 L14.4781666,14.738 L14.4772153,10.558 L13.2881666,11.231 L13.2881666,10.412 L14.6741666,9.614 L15.3181666,9.614 Z M12.000194,11.021 C12.140194,11.021 12.2580273,11.07 12.353694,11.168 C12.4493606,11.266 12.497194,11.385 12.497194,11.525 C12.497194,11.665 12.4493606,11.7851667 12.353694,11.8855 C12.2580273,11.9858333 12.140194,12.036 12.000194,12.036 C11.8648606,12.036 11.7493606,11.9858333 11.653694,11.8855 C11.5580273,11.7851667 11.510194,11.665 11.510194,11.525 C11.510194,11.385 11.5580273,11.266 11.653694,11.168 C11.7493606,11.07 11.8648606,11.021 12.000194,11.021 Z" id="_path-1"/>
    </defs>
    <g id="_ic_gallery_photoedit_crop_1_1" stroke="none" stroke-width="1" fill="none" fill-rule="evenodd">
        <mask id="_mask-2" fill="white">
            <use xlink:href="#_path-1"/>
        </mask>
        <use id="_形状结合" fill="#000000" fill-rule="nonzero" xlink:href="#_path-1"/>
    </g>
</svg>