<?xml version="1.0" encoding="UTF-8"?>
<svg xmlns="http://www.w3.org/2000/svg" xmlns:xlink="http://www.w3.org/1999/xlink" width="24" height="24" viewBox="0 0 24 24" version="1.1">
    <title>ic_gallery_photoedit_crop_9_16</title>
    <defs>
        <path d="M18.2156637,7.61422526e-13 C19.0440908,7.61574706e-13 19.7156637,0.671572875 19.7156637,1.5 L19.7156637,22.5 C19.7156637,23.3284271 19.0440908,24 18.2156637,24 L5.78433632,24 C4.95590919,24 4.28433632,23.3284271 4.28433632,22.5 L4.28433632,1.5 C4.28433632,0.671572875 4.95590919,7.58986749e-13 5.78433632,7.59138928e-13 L18.2156637,7.61422526e-13 Z M18.2156637,1.5 L5.78433632,1.5 L5.78433632,22.5 L18.2156637,22.5 L18.2156637,1.5 Z M10.8251645,13.3614928 C10.9451645,13.3614928 11.0461645,13.4044928 11.1281645,13.4904928 C11.2101645,13.5764928 11.2511645,13.6774928 11.2511645,13.7934928 C11.2511645,13.9134928 11.2101645,14.0164928 11.1281645,14.1024928 C11.0461645,14.1884928 10.9451645,14.2314928 10.8251645,14.2314928 C10.7091645,14.2314928 10.6101645,14.1884928 10.5281645,14.1024928 C10.4461645,14.0164928 10.4051645,13.9134928 10.4051645,13.7934928 C10.4051645,13.6774928 10.4461645,13.5764928 10.5281645,13.4904928 C10.6101645,13.4044928 10.7091645,13.3614928 10.8251645,13.3614928 Z M16.3631227,9.76149283 L15.4871227,11.1294928 L15.4811227,11.1414928 L15.4124827,11.2457728 C15.3689627,11.3112128 15.3299227,11.3684928 15.2953627,11.4176128 L15.2953627,11.4176128 L15.2761732,11.4444928 L15.3888727,11.4167428 C15.4703727,11.4012428 15.5551227,11.3934928 15.6431227,11.3934928 C15.9191227,11.3934928 16.1631227,11.4534928 16.3751227,11.5734928 C16.5871227,11.6934928 16.7521227,11.8594928 16.8701227,12.0714928 C16.9881227,12.2834928 17.0471227,12.5214928 17.0471227,12.7854928 C17.0471227,13.0614928 16.9811227,13.3094928 16.8491227,13.5294928 C16.7171227,13.7494928 16.5361227,13.9214928 16.3061227,14.0454928 C16.0761227,14.1694928 15.8191227,14.2314928 15.5351227,14.2314928 C15.2471227,14.2314928 14.9881227,14.1694928 14.7581227,14.0454928 C14.5281227,13.9214928 14.3481227,13.7494928 14.2181227,13.5294928 C14.0881227,13.3094928 14.0231227,13.0574928 14.0231227,12.7734928 C14.0231227,12.5494928 14.0641227,12.3374928 14.1461227,12.1374928 C14.2281227,11.9374928 14.3691227,11.6814928 14.5691227,11.3694928 L14.5691227,11.3694928 L15.5771227,9.76149283 L16.3631227,9.76149283 Z M8.52117325,9.68949283 C8.80917325,9.68949283 9.06817325,9.75149283 9.29817325,9.87549283 C9.52817325,9.99949283 9.70717325,10.1714928 9.83517325,10.3914928 C9.96317325,10.6114928 10.0271732,10.8634928 10.0271732,11.1474928 C10.0271732,11.3714928 9.98617325,11.5834928 9.90417325,11.7834928 C9.82217325,11.9834928 9.68317325,12.2394928 9.48717325,12.5514928 L9.48717325,12.5514928 L8.47917325,14.1594928 L7.69317325,14.1594928 L8.56917325,12.7914928 L8.57517325,12.7794928 L8.64381325,12.6752128 C8.68733325,12.6097728 8.72637325,12.5524928 8.76093325,12.5033728 L8.76093325,12.5033728 L8.77917325,12.4774928 L8.66742325,12.5042428 C8.58592325,12.5197428 8.50117325,12.5274928 8.41317325,12.5274928 C8.13717325,12.5274928 7.89317325,12.4674928 7.68117325,12.3474928 C7.46917325,12.2274928 7.30417325,12.0614928 7.18617325,11.8494928 C7.06817325,11.6374928 7.00917325,11.3994928 7.00917325,11.1354928 C7.00917325,10.8594928 7.07517325,10.6114928 7.20717325,10.3914928 C7.33917325,10.1714928 7.52017325,9.99949283 7.75017325,9.87549283 C7.98017325,9.75149283 8.23717325,9.68949283 8.52117325,9.68949283 Z M13.369141,9.76749283 L13.369141,14.1594928 L12.649141,14.1594928 L12.6481732,10.5764928 L11.629141,11.1534928 L11.629141,10.4514928 L12.817141,9.76749283 L13.369141,9.76749283 Z M15.5291227,12.0114928 C15.3811227,12.0114928 15.2491227,12.0454928 15.1331227,12.1134928 C15.0171227,12.1814928 14.9281227,12.2744928 14.8661227,12.3924928 C14.8041227,12.5104928 14.7731227,12.6474928 14.7731227,12.8034928 C14.7731227,12.9594928 14.8051227,13.0964928 14.8691227,13.2144928 C14.9331227,13.3324928 15.0221227,13.4244928 15.1361227,13.4904928 C15.2501227,13.5564928 15.3811227,13.5894928 15.5291227,13.5894928 C15.6811227,13.5894928 15.8151227,13.5564928 15.9311227,13.4904928 C16.0471227,13.4244928 16.1351227,13.3314928 16.1951227,13.2114928 C16.2551227,13.0914928 16.2851227,12.9534928 16.2851227,12.7974928 C16.2851227,12.6454928 16.2551227,12.5104928 16.1951227,12.3924928 C16.1351227,12.2744928 16.0481227,12.1814928 15.9341227,12.1134928 C15.8201227,12.0454928 15.6851227,12.0114928 15.5291227,12.0114928 Z M8.52117325,10.3314928 C8.37317325,10.3314928 8.24117325,10.3644928 8.12517325,10.4304928 C8.00917325,10.4964928 7.92117325,10.5894928 7.86117325,10.7094928 C7.80117325,10.8294928 7.77117325,10.9674928 7.77117325,11.1234928 C7.77117325,11.2754928 7.80117325,11.4104928 7.86117325,11.5284928 C7.92117325,11.6464928 8.00817325,11.7394928 8.12217325,11.8074928 C8.23617325,11.8754928 8.36917325,11.9094928 8.52117325,11.9094928 C8.67317325,11.9094928 8.80717325,11.8754928 8.92317325,11.8074928 C9.03917325,11.7394928 9.12817325,11.6464928 9.19017325,11.5284928 C9.25217325,11.4104928 9.28317325,11.2734928 9.28317325,11.1174928 C9.28317325,10.9614928 9.25117325,10.8244928 9.18717325,10.7064928 C9.12317325,10.5884928 9.03417325,10.4964928 8.92017325,10.4304928 C8.80617325,10.3644928 8.67317325,10.3314928 8.52117325,10.3314928 Z M10.8251645,10.9734928 C10.9451645,10.9734928 11.0461645,11.0154928 11.1281645,11.0994928 C11.2101645,11.1834928 11.2511645,11.2854928 11.2511645,11.4054928 C11.2511645,11.5254928 11.2101645,11.6284928 11.1281645,11.7144928 C11.0461645,11.8004928 10.9451645,11.8434928 10.8251645,11.8434928 C10.7091645,11.8434928 10.6101645,11.8004928 10.5281645,11.7144928 C10.4461645,11.6284928 10.4051645,11.5254928 10.4051645,11.4054928 C10.4051645,11.2854928 10.4461645,11.1834928 10.5281645,11.0994928 C10.6101645,11.0154928 10.7091645,10.9734928 10.8251645,10.9734928 Z" id="_path-1"/>
    </defs>
    <g id="_ic_gallery_photoedit_crop_9_16" stroke="none" stroke-width="1" fill="none" fill-rule="evenodd">
        <mask id="_mask-2" fill="white">
            <use xlink:href="#_path-1"/>
        </mask>
        <use id="_Combined-Shape" fill="#000000" fill-rule="nonzero" xlink:href="#_path-1"/>
    </g>
</svg>