<?xml version="1.0" encoding="UTF-8"?>
<svg xmlns="http://www.w3.org/2000/svg" xmlns:xlink="http://www.w3.org/1999/xlink" width="24" height="24" viewBox="0 0 24 24" version="1.1">
    <title> ic_free</title>
    <defs>
        <path d="M10.267767,13.7677669 C10.7855339,14.2855339 10.8178943,15.1048938 10.3648483,15.6603599 L10.267767,15.7677669 L10.267767,15.7677669 C9.45430985,16.5812241 8.15482754,16.6402956 7.27092197,15.9039969 C6.83794696,15.5433073 6.50355889,15.1645677 6.26776696,14.7677669 C6.75808479,14.7677669 7.42871131,14.4071496 8.27964652,13.6859148 C8.86268988,13.1917101 9.72731442,13.2273144 10.267767,13.7677669 Z M3.04417564,15.1723927 L3.05617564,15.2053927 L3.04617564,15.1793927 L3.05588557,15.206302 C3.06763448,15.2391538 3.07956995,15.2719539 3.09169199,15.3047005 L3.07863171,15.2671147 C3.2642514,15.7722402 3.49547522,16.268433 3.77372702,16.7503792 C3.91679704,16.9981838 4.06934541,17.2371042 4.2306498,17.4669469 L4.47908311,17.8048786 L4.51894125,17.8559419 L4.51894125,17.8559419 L4.47908311,17.8048786 C4.51825365,17.855771 4.55787051,17.9061757 4.59792485,17.9560902 L4.55934823,17.9070642 C4.78256249,18.1875682 5.02393106,18.4583708 5.28345393,18.7178936 C5.60206379,19.0365035 5.93767418,19.3277514 6.28736511,19.5916374 L6.36617564,19.6503927 L6.2988588,19.6018478 C6.38546481,19.6667506 6.47306285,19.7300716 6.56160594,19.7917983 L6.48234268,19.734907 L6.57317564,19.7993927 L6.58617564,19.8083927 L6.65844795,19.8584198 C6.69085177,19.8804163 6.72337798,19.902202 6.75602435,19.9237761 L6.71017564,19.8923927 L6.79717564,19.9503927 L6.75602435,19.9237761 L6.80063868,19.9529233 L6.80063868,19.9529233 L6.87456522,20.0008473 L6.87456522,20.0008473 L6.87917564,20.0033927 L6.90960538,20.0232729 L6.94417564,20.0443927 L7.01104881,20.0868828 C7.04496737,20.1078527 7.07898926,20.1285893 7.11311218,20.1490926 L7.01117564,20.0863927 L7.13244235,20.1600308 L7.13244235,20.1600308 L7.16217564,20.1773927 L7.13117564,20.1593927 L7.20745159,20.2050339 L7.20745159,20.2050339 L7.24717564,20.2273927 L7.27203376,20.2415437 C8.3031904,20.8319559 9.43516005,21.2229708 10.6042099,21.3975113 L10.6518327,21.4046304 L10.6518327,21.4046304 L10.6811756,21.4083927 L10.7335386,21.4159162 L10.7335386,21.4159162 L10.8321756,21.4283927 L10.7361756,21.4153927 L10.8339194,21.4288521 L10.8339194,21.4288521 L10.9271756,21.4393927 L10.9534082,21.4430758 L10.9534082,21.4430758 L10.9811756,21.4453927 L11.3858243,21.4805653 C12.4999264,21.552417 13.6242744,21.4288503 14.7031359,21.1098651 C15.4034158,20.9018833 16.0905672,20.6089033 16.7509684,20.2276205 C17.0593412,20.0495814 17.3539563,19.8568642 17.6344407,19.6508611 C18.0128817,19.3720947 18.375531,19.0608454 18.7184828,18.7178936 L18.7368011,18.7028866 C21.6923889,15.7362393 22.4221818,11.0504503 20.2282097,7.25037921 C20.0211029,6.89165974 20.1440093,6.43296694 20.5027287,6.22586016 C20.8614482,6.01875337 21.320141,6.14165974 21.5272478,6.50037921 C24.3322697,11.3588196 23.0098238,17.4676245 18.6478731,20.7664612 C17.6656348,21.5133415 16.586794,22.0727322 15.4596792,22.4449898 C15.4302629,22.4545531 15.401193,22.4640766 15.3721015,22.4734724 C15.3276768,22.4877681 15.2828309,22.5018468 15.2379141,22.5156315 C13.8061574,22.957949 12.3252518,23.0928555 10.8823418,22.9441597 L10.774928,22.9322521 L10.774928,22.9322521 C10.6455304,22.9179408 10.5166038,22.9010626 10.3880635,22.8819242 C9.00185587,22.6778653 7.64694091,22.2084308 6.4053917,21.4739178 C6.38518277,21.4611683 6.364825,21.4490798 6.34450284,21.4369234 C6.28865352,21.4040952 6.233105,21.3700647 6.17779693,21.3354959 C6.14672213,21.3158297 6.11583474,21.296384 6.08503553,21.2767784 C6.03973735,21.2479202 5.99450946,21.2185443 5.94945218,21.1888023 C4.91772352,20.51073 3.98902736,19.6504465 3.21604916,18.6223024 C2.4787538,17.6471736 1.92553251,16.5768707 1.55635776,15.45909 L1.52648665,15.3672102 L1.52648665,15.3672102 L1.48238793,15.2264602 L1.48238793,15.2264602 C1.43801914,15.0830485 1.39706342,14.9394583 1.35915157,14.7954627 C1.35380983,14.7711739 1.34759205,14.7470761 1.34145716,14.7229616 C0.986666077,13.3414913 0.912357584,11.9236449 1.09686841,10.5469307 C1.12351216,10.3457195 1.1557581,10.1450425 1.19357207,9.94521131 L1.20217564,9.90039271 L1.2806912,9.52896405 C1.56636042,8.28442063 2.07083613,7.07993517 2.79411835,5.97687192 L2.82697003,5.92658829 C2.86150534,5.87433748 2.89650857,5.82235254 2.93197788,5.77064033 C2.94846948,5.74776694 2.96450834,5.72466625 2.98064587,5.70161362 C3.60197851,4.80921736 4.36371159,4.0000856 5.25559698,3.30964075 C9.57127104,-0.0482906199 15.812864,0.255925673 19.7791429,4.22220461 C20.0476284,4.49069007 20.0700022,4.9120897 19.8462643,5.20606085 L19.7791429,5.28286479 L12.5312984,12.5307093 C12.2384052,12.8236025 11.7635315,12.8236025 11.4706383,12.5307093 C11.2021528,12.2622238 11.179779,11.8408242 11.4035169,11.5468531 L11.4706383,11.4700491 L18.1669395,4.7737479 L18.1249331,4.73695501 C15.0371274,2.12761657 10.6774907,1.80144927 7.27172721,3.7584531 C7.26581265,3.76439923 7.25844168,3.76882315 7.25096835,3.77313787 C6.88732265,3.98308882 6.54280861,4.21345109 6.21803786,4.461942 C5.96333512,4.6578177 5.71594483,4.86869063 5.47738153,5.09427777 L5.28345393,5.28286479 C4.84338337,5.72293535 4.45551311,6.19543901 4.11984314,6.69268149 C3.29702372,7.91562114 2.77363789,9.31158959 2.58183246,10.7598294 C2.42022781,11.9935584 2.50082336,13.2531175 2.82364074,14.4614267 C2.82496369,14.4693171 2.82708469,14.4771664 2.82921619,14.4850143 L2.83982568,14.5212237 L2.83982568,14.5212237 L2.85640665,14.5809348 L2.87117564,14.6323927 L2.89717564,14.7223927 L2.90817564,14.7583927 L2.91917564,14.7953927 L2.93497935,14.8455055 L2.95417564,14.9073927 L2.95517564,14.9093927 L2.97711317,14.9767999 L2.97711317,14.9767999 L2.98817564,15.0103927 L3.02119853,15.1075928 L3.04417564,15.1723927 Z" id="_path-1"/>
    </defs>
    <g id="_-ic_free" stroke="none" stroke-width="1" fill="none" fill-rule="evenodd">
        <mask id="_mask-2" fill="white">
            <use xlink:href="#_path-1"/>
        </mask>
        <use id="_形状结合" fill="#000000" fill-rule="nonzero" xlink:href="#_path-1"/>
    </g>
</svg>