<?xml version="1.0" encoding="UTF-8"?>
<svg xmlns="http://www.w3.org/2000/svg" xmlns:xlink="http://www.w3.org/1999/xlink" width="24" height="24" viewBox="0 0 24 24" version="1.1">
    <title>ic_gallery_photoedit_crop_2_3</title>
    <defs>
        <path d="M18.5,1 C19.3284271,1 20,1.67157288 20,2.5 L20,21.5 C20,22.3284271 19.3284271,23 18.5,23 L5.5,23 C4.67157288,23 4,22.3284271 4,21.5 L4,2.5 C4,1.67157288 4.67157288,1 5.5,1 L18.5,1 Z M5.5,2.5 L5.5,21.5 L18.5,21.5 L18.5,2.5 L5.5,2.5 Z M12.0441282,13.7040693 C12.1841282,13.7040693 12.3019615,13.7542359 12.3976282,13.8545693 C12.4932948,13.9549026 12.5411282,14.0727359 12.5411282,14.2080693 C12.5411282,14.3480693 12.4932948,14.4682359 12.3976282,14.5685693 C12.3019615,14.6689026 12.1841282,14.7190693 12.0441282,14.7190693 C11.9087948,14.7190693 11.7932948,14.6689026 11.6976282,14.5685693 C11.6019615,14.4682359 11.5541282,14.3480693 11.5541282,14.2080693 C11.5541282,14.0727359 11.6019615,13.9549026 11.6976282,13.8545693 C11.7932948,13.7542359 11.9087948,13.7040693 12.0441282,13.7040693 Z M14.9281008,9.42006927 C15.2314342,9.42006927 15.5009342,9.47840261 15.7366008,9.59506927 C15.9722675,9.71173594 16.1531008,9.87390261 16.2791008,10.0815693 C16.4051008,10.2892359 16.4681008,10.5307359 16.4681008,10.8060693 C16.4681008,11.2027359 16.3292675,11.5177359 16.0516008,11.7510693 L16.0516008,11.7510693 L15.9410774,11.8331005 C15.9021034,11.8586214 15.8609967,11.8823193 15.8177571,11.9041943 L15.8177571,11.9041943 L15.754,11.933 L15.9052571,11.9958505 C15.9537467,12.0183818 16.0001034,12.0427906 16.0443274,12.0690771 L16.1706008,12.1535693 C16.4902675,12.3939026 16.6501008,12.7427359 16.6501008,13.2000693 C16.6501008,13.5174026 16.5719342,13.7904026 16.4156008,14.0190693 C16.2592675,14.2477359 16.0504342,14.4215693 15.7891008,14.5405693 C15.5277675,14.6595693 15.2407675,14.7190693 14.9281008,14.7190693 C14.5267675,14.7190693 14.1686008,14.6210693 13.8536008,14.4250693 C13.5386008,14.2290693 13.3204342,13.9420693 13.1991008,13.5640693 L13.1991008,13.5640693 L13.8641008,13.1790693 L13.9209408,13.3281693 C14.0053142,13.5167026 14.1240342,13.6641693 14.2771008,13.7705693 C14.4684342,13.9035693 14.6807675,13.9700693 14.9141008,13.9700693 C15.0727675,13.9700693 15.2162675,13.9385693 15.3446008,13.8755693 C15.4729342,13.8125693 15.5744342,13.7192359 15.6491008,13.5955693 C15.7237675,13.4719026 15.7611008,13.3237359 15.7611008,13.1510693 C15.7611008,12.8850693 15.6642675,12.6832359 15.4706008,12.5455693 C15.2769342,12.4079026 14.9817675,12.3390693 14.5851008,12.3390693 L14.5851008,12.3390693 L14.3891008,12.3390693 L14.3891008,11.6320693 L14.6481008,11.6320693 L14.7938369,11.6259443 C15.0268462,11.6055276 15.2104342,11.5340693 15.3446008,11.4115693 C15.5056008,11.2645693 15.5861008,11.0767359 15.5861008,10.8480693 C15.5861008,10.6380693 15.5184342,10.4724026 15.3831008,10.3510693 C15.2477675,10.2297359 15.0751008,10.1690693 14.8651008,10.1690693 C14.6364342,10.1690693 14.4427675,10.2379026 14.2841008,10.3755693 C14.1254342,10.5132359 14.0041008,10.7127359 13.9201008,10.9740693 L13.9201008,10.9740693 L13.2691008,10.6030693 L13.3245294,10.4427836 C13.4462437,10.1336407 13.6331008,9.89306927 13.8851008,9.72106927 C14.1791008,9.52040261 14.5267675,9.42006927 14.9281008,9.42006927 Z M9.09713416,9.41306927 C9.39580082,9.41306927 9.66180082,9.47606927 9.89513416,9.60206927 C10.1284675,9.72806927 10.3104675,9.90423594 10.4411342,10.1305693 C10.5718008,10.3569026 10.6371342,10.6240693 10.6371342,10.9320693 C10.6371342,11.2307359 10.5648008,11.5107359 10.4201342,11.7720693 L10.4201342,11.7720693 L10.351277,11.8884978 C10.1998484,12.1302121 9.96613416,12.4250693 9.65013416,12.7730693 L9.65013416,12.7730693 L8.62613416,13.9070693 L10.8051342,13.9070693 L10.8051342,14.6350693 L7.39613416,14.6350693 L7.39613416,14.0960693 L8.99913416,12.3110693 L9.13631471,12.1559026 C9.35247212,11.9070137 9.50624527,11.7067359 9.59763416,11.5550693 C9.70730082,11.3730693 9.76213416,11.1770693 9.76213416,10.9670693 C9.76213416,10.7197359 9.69330082,10.5260693 9.55563416,10.3860693 C9.41796749,10.2460693 9.24180082,10.1760693 9.02713416,10.1760693 C8.80780082,10.1760693 8.61296749,10.2530693 8.44263416,10.4070693 C8.27230082,10.5610693 8.14513416,10.7734026 8.06113416,11.0440693 L8.06113416,11.0440693 L7.40313416,10.6730693 L7.45906273,10.5066407 C7.58277701,10.1849264 7.77763416,9.93006927 8.04363416,9.74206927 C8.35396749,9.52273594 8.70513416,9.41306927 9.09713416,9.41306927 Z M12.0441282,10.9180693 C12.1841282,10.9180693 12.3019615,10.9670693 12.3976282,11.0650693 C12.4932948,11.1630693 12.5411282,11.2820693 12.5411282,11.4220693 C12.5411282,11.5620693 12.4932948,11.6822359 12.3976282,11.7825693 C12.3019615,11.8829026 12.1841282,11.9330693 12.0441282,11.9330693 C11.9087948,11.9330693 11.7932948,11.8829026 11.6976282,11.7825693 C11.6019615,11.6822359 11.5541282,11.5620693 11.5541282,11.4220693 C11.5541282,11.2820693 11.6019615,11.1630693 11.6976282,11.0650693 C11.7932948,10.9670693 11.9087948,10.9180693 12.0441282,10.9180693 Z" id="_path-1"/>
    </defs>
    <g id="_ic_gallery_photoedit_crop_2_3" stroke="none" stroke-width="1" fill="none" fill-rule="evenodd">
        <mask id="_mask-2" fill="white">
            <use xlink:href="#_path-1"/>
        </mask>
        <use id="_形状结合" fill="#000000" fill-rule="nonzero" xlink:href="#_path-1"/>
    </g>
</svg>