<?xml version="1.0" encoding="UTF-8"?>
<svg xmlns="http://www.w3.org/2000/svg" xmlns:xlink="http://www.w3.org/1999/xlink" width="24" height="24" viewBox="0 0 24 24" version="1.1">
    <title>ic_gallery_photoedit_crop_9_21</title>
    <defs>
        <path d="M18.2156637,5.34048851e-13 C19.0440908,5.3420103e-13 19.7156637,0.671572875 19.7156637,1.5 L19.7156637,22.5 C19.7156637,23.3284271 19.0440908,24 18.2156637,24 L5.78433632,24 C4.95590919,24 4.28433632,23.3284271 4.28433632,22.5 L4.28433632,1.5 C4.28433632,0.671572875 4.95590919,5.31613073e-13 5.78433632,5.31765253e-13 L18.2156637,5.34048851e-13 Z M18.2156637,1.5 L5.78433632,1.5 L5.78433632,22.5 L18.2156637,22.5 L18.2156637,1.5 Z M10.7723419,13.3521241 C10.8923419,13.3521241 10.9933419,13.3951241 11.0753419,13.4811241 C11.1573419,13.5671241 11.1983419,13.6681241 11.1983419,13.7841241 C11.1983419,13.9041241 11.1573419,14.0071241 11.0753419,14.0931241 C10.9933419,14.1791241 10.8923419,14.2221241 10.7723419,14.2221241 C10.6563419,14.2221241 10.5573419,14.1791241 10.4753419,14.0931241 C10.3933419,14.0071241 10.3523419,13.9041241 10.3523419,13.7841241 C10.3523419,13.6681241 10.3933419,13.5671241 10.4753419,13.4811241 C10.5573419,13.3951241 10.6563419,13.3521241 10.7723419,13.3521241 Z M8.46835074,9.68012409 C8.75635074,9.68012409 9.01535074,9.74212409 9.24535074,9.86612409 C9.47535074,9.99012409 9.65435074,10.1621241 9.78235074,10.3821241 C9.91035074,10.6021241 9.97435074,10.8541241 9.97435074,11.1381241 C9.97435074,11.3621241 9.93335074,11.5741241 9.85135074,11.7741241 C9.76935074,11.9741241 9.63035074,12.2301241 9.43435074,12.5421241 L9.43435074,12.5421241 L8.42635074,14.1501241 L7.64035074,14.1501241 L8.51635074,12.7821241 L8.52235074,12.7701241 L8.59099074,12.6658441 C8.63451074,12.6004041 8.67355074,12.5431241 8.70811074,12.4940041 L8.70811074,12.4940041 L8.72635074,12.4681241 L8.61460074,12.4948741 C8.53310074,12.5103741 8.44835074,12.5181241 8.36035074,12.5181241 C8.08435074,12.5181241 7.84035074,12.4581241 7.62835074,12.3381241 C7.41635074,12.2181241 7.25135074,12.0521241 7.13335074,11.8401241 C7.01535074,11.6281241 6.95635074,11.3901241 6.95635074,11.1261241 C6.95635074,10.8501241 7.02235074,10.6021241 7.15435074,10.3821241 C7.28635074,10.1621241 7.46735074,9.99012409 7.69735074,9.86612409 C7.92735074,9.74212409 8.18435074,9.68012409 8.46835074,9.68012409 Z M12.9983185,9.67412409 C13.2543185,9.67412409 13.4823185,9.72812409 13.6823185,9.83612409 C13.8823185,9.94412409 14.0383185,10.0951241 14.1503185,10.2891241 C14.2623185,10.4831241 14.3183185,10.7121241 14.3183185,10.9761241 C14.3183185,11.2321241 14.2563185,11.4721241 14.1323185,11.6961241 L14.1323185,11.6961241 L14.0623185,11.8132908 C13.9323185,12.0171796 13.7356518,12.2641241 13.4723185,12.5541241 L13.4723185,12.5541241 L12.5943507,13.5261241 L14.4623185,13.5261241 L14.4623185,14.1501241 L11.5403185,14.1501241 L11.5403185,13.6881241 L12.9143185,12.1581241 L13.0319018,12.0251241 C13.2171796,11.8117908 13.3489852,11.6401241 13.4273185,11.5101241 C13.5213185,11.3541241 13.5683185,11.1861241 13.5683185,11.0061241 C13.5683185,10.7941241 13.5093185,10.6281241 13.3913185,10.5081241 C13.2733185,10.3881241 13.1223185,10.3281241 12.9383185,10.3281241 C12.7503185,10.3281241 12.5833185,10.3941241 12.4373185,10.5261241 C12.2913185,10.6581241 12.1823185,10.8401241 12.1103185,11.0721241 L12.1103185,11.0721241 L11.5463185,10.7541241 L11.6032352,10.5886241 C11.7096241,10.3236241 11.8736518,10.1127908 12.0953185,9.95612409 C12.3613185,9.76812409 12.6623185,9.67412409 12.9983185,9.67412409 Z M16.4423134,9.75812409 L16.4423134,14.1501241 L15.7223134,14.1501241 L15.7213507,10.5671241 L14.7023134,11.1441241 L14.7023134,10.4421241 L15.8903134,9.75812409 L16.4423134,9.75812409 Z M8.46835074,10.3221241 C8.32035074,10.3221241 8.18835074,10.3551241 8.07235074,10.4211241 C7.95635074,10.4871241 7.86835074,10.5801241 7.80835074,10.7001241 C7.74835074,10.8201241 7.71835074,10.9581241 7.71835074,11.1141241 C7.71835074,11.2661241 7.74835074,11.4011241 7.80835074,11.5191241 C7.86835074,11.6371241 7.95535074,11.7301241 8.06935074,11.7981241 C8.18335074,11.8661241 8.31635074,11.9001241 8.46835074,11.9001241 C8.62035074,11.9001241 8.75435074,11.8661241 8.87035074,11.7981241 C8.98635074,11.7301241 9.07535074,11.6371241 9.13735074,11.5191241 C9.19935074,11.4011241 9.23035074,11.2641241 9.23035074,11.1081241 C9.23035074,10.9521241 9.19835074,10.8151241 9.13435074,10.6971241 C9.07035074,10.5791241 8.98135074,10.4871241 8.86735074,10.4211241 C8.75335074,10.3551241 8.62035074,10.3221241 8.46835074,10.3221241 Z M10.7723419,10.9641241 C10.8923419,10.9641241 10.9933419,11.0061241 11.0753419,11.0901241 C11.1573419,11.1741241 11.1983419,11.2761241 11.1983419,11.3961241 C11.1983419,11.5161241 11.1573419,11.6191241 11.0753419,11.7051241 C10.9933419,11.7911241 10.8923419,11.8341241 10.7723419,11.8341241 C10.6563419,11.8341241 10.5573419,11.7911241 10.4753419,11.7051241 C10.3933419,11.6191241 10.3523419,11.5161241 10.3523419,11.3961241 C10.3523419,11.2761241 10.3933419,11.1741241 10.4753419,11.0901241 C10.5573419,11.0061241 10.6563419,10.9641241 10.7723419,10.9641241 Z" id="_path-1"/>
    </defs>
    <g id="_ic_gallery_photoedit_crop_9_21" stroke="none" stroke-width="1" fill="none" fill-rule="evenodd">
        <mask id="_mask-2" fill="white">
            <use xlink:href="#_path-1"/>
        </mask>
        <use id="_Combined-Shape" fill="#000000" fill-rule="nonzero" xlink:href="#_path-1"/>
    </g>
</svg>