<?xml version="1.0" encoding="UTF-8"?>
<svg xmlns="http://www.w3.org/2000/svg" xmlns:xlink="http://www.w3.org/1999/xlink" width="24" height="24" viewBox="0 0 24 24" version="1.1">
    <title>ic_gallery_frame_overlay_rectify</title>
    <defs>
        <path d="M20,2 C21.1045695,2 22,2.8954305 22,4 C22,4.84088323 21.48106,5.56056153 20.7459664,5.85624835 L20.75,6 L20.75,18 L20.7459664,18.1437517 C21.48106,18.4394385 22,19.1591168 22,20 C22,21.1045695 21.1045695,22 20,22 C19.1591168,22 18.4394385,21.48106 18.1437517,20.7459664 L18,20.75 L6,20.75 L5.85624835,20.7459664 C5.56056153,21.48106 4.84088323,22 4,22 C2.8954305,22 2,21.1045695 2,20 C2,19.1591168 2.51894004,18.4394385 3.25403357,18.1437517 L3.25,18 L3.25,6 L3.25403357,5.85624835 C2.51894004,5.56056153 2,4.84088323 2,4 C2,2.8954305 2.8954305,2 4,2 C4.84088323,2 5.56056153,2.51894004 5.85624835,3.25403357 L6,3.25 L18,3.25 L18.1437517,3.25403357 C18.4394385,2.51894004 19.1591168,2 20,2 Z M18,4.75 L6,4.75 C5.94884964,4.75 5.89841684,4.7530723 5.8488761,4.75904242 C5.6473121,5.25354491 5.25354491,5.6473121 4.76101315,5.85012431 C4.75810832,5.85662737 4.75724516,5.86440048 4.75645361,5.87219476 L4.75,6 L4.75,18 C4.75,18.0511504 4.7530723,18.1015832 4.75904242,18.1511239 C5.25354491,18.3526879 5.6473121,18.7464551 5.85012431,19.2389869 C5.85662737,19.2418917 5.86440048,19.2427548 5.87219476,19.2435464 L6,19.25 L18,19.25 C18.0511504,19.25 18.1015832,19.2469277 18.1511239,19.2409576 C18.3526879,18.7464551 18.7464551,18.3526879 19.2389869,18.1498757 C19.2418917,18.1433726 19.2427548,18.1355995 19.2435464,18.1278052 L19.25,18 L19.25,6 C19.25,5.94884964 19.2469277,5.89841684 19.2409576,5.8488761 C18.7464551,5.6473121 18.3526879,5.25354491 18.1498757,4.76101315 C18.1015832,4.7530723 18.0511504,4.75 18,4.75 Z M16,15.25 C16.4142136,15.25 16.75,15.5857864 16.75,16 C16.75,16.3796958 16.4678461,16.693491 16.1017706,16.7431534 L16,16.75 L8,16.75 C7.58578644,16.75 7.25,16.4142136 7.25,16 C7.25,15.6203042 7.53215388,15.306509 7.89822944,15.2568466 L8,15.25 L16,15.25 Z M16,11.25 C16.4142136,11.25 16.75,11.5857864 16.75,12 C16.75,12.3796958 16.4678461,12.693491 16.1017706,12.7431534 L16,12.75 L8,12.75 C7.58578644,12.75 7.25,12.4142136 7.25,12 C7.25,11.6203042 7.53215388,11.306509 7.89822944,11.2568466 L8,11.25 L16,11.25 Z M16,7.25 C16.4142136,7.25 16.75,7.58578644 16.75,8 C16.75,8.37969577 16.4678461,8.69349096 16.1017706,8.74315338 L16,8.75 L8,8.75 C7.58578644,8.75 7.25,8.41421356 7.25,8 C7.25,7.62030423 7.53215388,7.30650904 7.89822944,7.25684662 L8,7.25 L16,7.25 Z" id="_path-1"/>
    </defs>
    <g id="_ic_gallery_frame_overlay_rectify" stroke="none" stroke-width="1" fill="none" fill-rule="evenodd">
        <mask id="_mask-2" fill="white">
            <use xlink:href="#_path-1"/>
        </mask>
        <use id="_形状结合" fill="#000000" fill-rule="nonzero" xlink:href="#_path-1"/>
    </g>
</svg>