<?xml version="1.0" encoding="UTF-8"?>
<svg xmlns="http://www.w3.org/2000/svg" xmlns:xlink="http://www.w3.org/1999/xlink" width="24" height="24" viewBox="0 0 24 24" version="1.1">
    <title>ic_gallery_photoedit_crop_21_9</title>
    <g id="_ic_gallery_photoedit_crop_21_9" stroke="none" stroke-width="1" fill="none" fill-rule="evenodd">
        <path d="M22.5,4.28433632 C23.3284271,4.28433632 24,4.95590919 24,5.78433632 L24,18.2156637 C24,19.0440908 23.3284271,19.7156637 22.5,19.7156637 L1.5,19.7156637 C0.671572875,19.7156637 -5.46046987e-12,19.0440908 -5.46026697e-12,18.2156637 L-5.45722217e-12,5.78433632 C-5.45701926e-12,4.95590919 0.671572875,4.28433632 1.5,4.28433632 L22.5,4.28433632 Z M22.5,5.78433632 L1.5,5.78433632 L1.5,18.2156637 L22.5,18.2156637 L22.5,5.78433632 Z M13.5060218,13.59808 C13.6460218,13.59808 13.7638551,13.6482467 13.8595218,13.74858 C13.9551885,13.8489134 14.0030218,13.9667467 14.0030218,14.10208 C14.0030218,14.24208 13.9551885,14.3622467 13.8595218,14.46258 C13.7638551,14.5629134 13.6460218,14.61308 13.5060218,14.61308 C13.3706885,14.61308 13.2551885,14.5629134 13.1595218,14.46258 C13.0638551,14.3622467 13.0160218,14.24208 13.0160218,14.10208 C13.0160218,13.9667467 13.0638551,13.8489134 13.1595218,13.74858 C13.2551885,13.6482467 13.3706885,13.59808 13.5060218,13.59808 Z M7.40904914,9.30708004 C7.70771581,9.30708004 7.97371581,9.37008004 8.20704914,9.49608004 C8.44038248,9.62208004 8.62238248,9.79824671 8.75304914,10.02458 C8.88371581,10.2509134 8.94904914,10.51808 8.94904914,10.82608 C8.94904914,11.1247467 8.87671581,11.4047467 8.73204914,11.66608 L8.73204914,11.66608 L8.663192,11.7825086 C8.51176343,12.0242229 8.27804914,12.31908 7.96204914,12.66708 L7.96204914,12.66708 L6.93804914,13.80108 L9.11704914,13.80108 L9.11704914,14.52908 L5.70804914,14.52908 L5.70804914,13.99008 L7.31104914,12.20508 L7.4482297,12.0499134 C7.66438711,11.8010245 7.81816025,11.6007467 7.90954914,11.44908 C8.01921581,11.26708 8.07404914,11.07108 8.07404914,10.86108 C8.07404914,10.6137467 8.00521581,10.42008 7.86754914,10.28008 C7.72988248,10.14008 7.55371581,10.07008 7.33904914,10.07008 C7.11971581,10.07008 6.92488248,10.14708 6.75454914,10.30108 C6.58421581,10.45508 6.45704914,10.6674134 6.37304914,10.93808 L6.37304914,10.93808 L5.71504914,10.56708 L5.77097771,10.4006515 C5.894692,10.0789372 6.08954914,9.82408004 6.35554914,9.63608004 C6.66588248,9.41674671 7.01704914,9.30708004 7.40904914,9.30708004 Z M11.7770432,9.40508004 L11.7770432,14.52908 L10.9370432,14.52908 L10.9360491,10.34908 L9.74704316,11.02208 L9.74704316,10.20308 L11.1330432,9.40508004 L11.7770432,9.40508004 Z M16.4669945,9.31408004 C16.8029945,9.31408004 17.1051611,9.38641337 17.3734945,9.53108004 C17.6418278,9.67574671 17.8506611,9.87641337 17.9999945,10.13308 C18.1493278,10.3897467 18.2239945,10.6837467 18.2239945,11.01508 C18.2239945,11.2764134 18.1761611,11.5237467 18.0804945,11.75708 C17.9848278,11.9904134 17.8226611,12.28908 17.5939945,12.65308 L17.5939945,12.65308 L16.4179945,14.52908 L15.5009945,14.52908 L16.5229945,12.93308 L16.5299945,12.91908 L16.6100745,12.79742 C16.6608478,12.7210734 16.7063945,12.6542467 16.7467145,12.59694 L16.7467145,12.59694 L16.7690491,12.56608 L16.6376195,12.597955 C16.5425361,12.6160384 16.4436611,12.62508 16.3409945,12.62508 C16.0189945,12.62508 15.7343278,12.55508 15.4869945,12.41508 C15.2396611,12.27508 15.0471611,12.0814134 14.9094945,11.83408 C14.7718278,11.5867467 14.7029945,11.30908 14.7029945,11.00108 C14.7029945,10.67908 14.7799945,10.3897467 14.9339945,10.13308 C15.0879945,9.87641337 15.2991611,9.67574671 15.5674945,9.53108004 C15.8358278,9.38641337 16.1356611,9.31408004 16.4669945,9.31408004 Z M16.4669945,10.06308 C16.2943278,10.06308 16.1403278,10.10158 16.0049945,10.17858 C15.8696611,10.25558 15.7669945,10.36408 15.6969945,10.50408 C15.6269945,10.64408 15.5919945,10.80508 15.5919945,10.98708 C15.5919945,11.1644134 15.6269945,11.3219134 15.6969945,11.45958 C15.7669945,11.5972467 15.8684945,11.7057467 16.0014945,11.78508 C16.1344945,11.8644134 16.2896611,11.90408 16.4669945,11.90408 C16.6443278,11.90408 16.8006611,11.8644134 16.9359945,11.78508 C17.0713278,11.7057467 17.1751611,11.5972467 17.2474945,11.45958 C17.3198278,11.3219134 17.3559945,11.16208 17.3559945,10.98008 C17.3559945,10.79808 17.3186611,10.6382467 17.2439945,10.50058 C17.1693278,10.3629134 17.0654945,10.25558 16.9324945,10.17858 C16.7994945,10.10158 16.6443278,10.06308 16.4669945,10.06308 Z M13.5060218,10.81208 C13.6460218,10.81208 13.7638551,10.86108 13.8595218,10.95908 C13.9551885,11.05708 14.0030218,11.17608 14.0030218,11.31608 C14.0030218,11.45608 13.9551885,11.5762467 13.8595218,11.67658 C13.7638551,11.7769134 13.6460218,11.82708 13.5060218,11.82708 C13.3706885,11.82708 13.2551885,11.7769134 13.1595218,11.67658 C13.0638551,11.5762467 13.0160218,11.45608 13.0160218,11.31608 C13.0160218,11.17608 13.0638551,11.05708 13.1595218,10.95908 C13.2551885,10.86108 13.3706885,10.81208 13.5060218,10.81208 Z" id="_形状结合" fill="#000000" fill-rule="nonzero"/>
    </g>
</svg>