<?xml version="1.0" encoding="UTF-8"?>
<svg xmlns="http://www.w3.org/2000/svg" xmlns:xlink="http://www.w3.org/1999/xlink" width="24" height="24" viewBox="0 0 24 24" version="1.1">
    <title>ic_gallery_photoedit_crop_16_9</title>
    <defs>
        <path d="M22.5,4.28433632 C23.3284271,4.28433632 24,4.95590919 24,5.78433632 L24,18.2156637 C24,19.0440908 23.3284271,19.7156637 22.5,19.7156637 L1.5,19.7156637 C0.671572875,19.7156637 -2.27373675e-13,19.0440908 -2.27373675e-13,18.2156637 L-2.27373675e-13,5.78433632 C-2.23820962e-13,4.95590919 0.671572875,4.28433632 1.5,4.28433632 L22.5,4.28433632 Z M22.5,5.78433632 L1.5,5.78433632 L1.5,18.2156637 L22.5,18.2156637 L22.5,5.78433632 Z M11.2089786,9.607 L10.1869786,11.203 L10.1799786,11.217 L10.0998986,11.33866 C10.0491253,11.4150067 10.0035786,11.4818333 9.96325864,11.53914 L9.96325864,11.53914 L9.94,11.571 L10.0723536,11.538125 C10.167437,11.5200417 10.266312,11.511 10.3689786,11.511 C10.6909786,11.511 10.9756453,11.581 11.2229786,11.721 C11.470312,11.861 11.662812,12.0546667 11.8004786,12.302 C11.9381453,12.5493333 12.0069786,12.827 12.0069786,13.135 C12.0069786,13.457 11.9299786,13.7463333 11.7759786,14.003 C11.6219786,14.2596667 11.410812,14.4603333 11.1424786,14.605 C10.8741453,14.7496667 10.574312,14.822 10.2429786,14.822 C9.90697864,14.822 9.60481197,14.7496667 9.33647864,14.605 C9.0681453,14.4603333 8.8581453,14.2596667 8.70647864,14.003 C8.55481197,13.7463333 8.47897864,13.4523333 8.47897864,13.121 C8.47897864,12.8596667 8.52681197,12.6123333 8.62247864,12.379 C8.7181453,12.1456667 8.8826453,11.847 9.11597864,11.483 L9.11597864,11.483 L10.2919786,9.607 L11.2089786,9.607 Z M13.1969684,13.807 C13.3369684,13.807 13.4548017,13.8571667 13.5504684,13.9575 C13.6461351,14.0578333 13.6939684,14.1756667 13.6939684,14.311 C13.6939684,14.451 13.6461351,14.5711667 13.5504684,14.6715 C13.4548017,14.7718333 13.3369684,14.822 13.1969684,14.822 C13.0616351,14.822 12.9461351,14.7718333 12.8504684,14.6715 C12.7548017,14.5711667 12.7069684,14.451 12.7069684,14.311 C12.7069684,14.1756667 12.7548017,14.0578333 12.8504684,13.9575 C12.9461351,13.8571667 13.0616351,13.807 13.1969684,13.807 Z M7.366,9.614 L7.366,14.738 L6.526,14.738 L6.526,10.558 L5.336,11.231 L5.336,10.412 L6.722,9.614 L7.366,9.614 Z M16.157941,9.523 C16.493941,9.523 16.7961077,9.59533333 17.064441,9.74 C17.3327744,9.88466667 17.5416077,10.0853333 17.690941,10.342 C17.8402744,10.5986667 17.914941,10.8926667 17.914941,11.224 C17.914941,11.4853333 17.8671077,11.7326667 17.771441,11.966 C17.6757744,12.1993333 17.5136077,12.498 17.284941,12.862 L17.284941,12.862 L16.108941,14.738 L15.191941,14.738 L16.213941,13.142 L16.220941,13.128 L16.301021,13.00634 C16.3517944,12.9299933 16.397341,12.8631667 16.437661,12.80586 L16.437661,12.80586 L16.46,12.775 L16.328566,12.806875 C16.2334827,12.8249583 16.1346077,12.834 16.031941,12.834 C15.709941,12.834 15.4252744,12.764 15.177941,12.624 C14.9306077,12.484 14.7381077,12.2903333 14.600441,12.043 C14.4627744,11.7956667 14.393941,11.518 14.393941,11.21 C14.393941,10.888 14.470941,10.5986667 14.624941,10.342 C14.778941,10.0853333 14.9901077,9.88466667 15.258441,9.74 C15.5267744,9.59533333 15.8266077,9.523 16.157941,9.523 Z M10.2359786,12.232 C10.063312,12.232 9.90931197,12.2716667 9.77397864,12.351 C9.6386453,12.4303333 9.53481197,12.5388333 9.46247864,12.6765 C9.3901453,12.8141667 9.35397864,12.974 9.35397864,13.156 C9.35397864,13.338 9.39131197,13.4978333 9.46597864,13.6355 C9.5406453,13.7731667 9.64447864,13.8805 9.77747864,13.9575 C9.91047864,14.0345 10.063312,14.073 10.2359786,14.073 C10.413312,14.073 10.5696453,14.0345 10.7049786,13.9575 C10.840312,13.8805 10.9429786,13.772 11.0129786,13.632 C11.0829786,13.492 11.1179786,13.331 11.1179786,13.149 C11.1179786,12.9716667 11.0829786,12.8141667 11.0129786,12.6765 C10.9429786,12.5388333 10.8414786,12.4303333 10.7084786,12.351 C10.5754786,12.2716667 10.4179786,12.232 10.2359786,12.232 Z M16.157941,10.272 C15.9852744,10.272 15.8312744,10.3105 15.695941,10.3875 C15.5606077,10.4645 15.457941,10.573 15.387941,10.713 C15.317941,10.853 15.282941,11.014 15.282941,11.196 C15.282941,11.3733333 15.317941,11.5308333 15.387941,11.6685 C15.457941,11.8061667 15.559441,11.9146667 15.692441,11.994 C15.825441,12.0733333 15.9806077,12.113 16.157941,12.113 C16.3352744,12.113 16.4916077,12.0733333 16.626941,11.994 C16.7622744,11.9146667 16.8661077,11.8061667 16.938441,11.6685 C17.0107744,11.5308333 17.046941,11.371 17.046941,11.189 C17.046941,11.007 17.0096077,10.8471667 16.934941,10.7095 C16.8602744,10.5718333 16.756441,10.4645 16.623441,10.3875 C16.490441,10.3105 16.3352744,10.272 16.157941,10.272 Z M13.1969684,11.021 C13.3369684,11.021 13.4548017,11.07 13.5504684,11.168 C13.6461351,11.266 13.6939684,11.385 13.6939684,11.525 C13.6939684,11.665 13.6461351,11.7851667 13.5504684,11.8855 C13.4548017,11.9858333 13.3369684,12.036 13.1969684,12.036 C13.0616351,12.036 12.9461351,11.9858333 12.8504684,11.8855 C12.7548017,11.7851667 12.7069684,11.665 12.7069684,11.525 C12.7069684,11.385 12.7548017,11.266 12.8504684,11.168 C12.9461351,11.07 13.0616351,11.021 13.1969684,11.021 Z" id="_path-1"/>
    </defs>
    <g id="_ic_gallery_photoedit_crop_16_9" stroke="none" stroke-width="1" fill="none" fill-rule="evenodd">
        <mask id="_mask-2" fill="white">
            <use xlink:href="#_path-1"/>
        </mask>
        <use id="_形状结合" fill="#000000" fill-rule="nonzero" xlink:href="#_path-1"/>
    </g>
</svg>