<?xml version="1.0" encoding="UTF-8"?>
<svg xmlns="http://www.w3.org/2000/svg" xmlns:xlink="http://www.w3.org/1999/xlink" width="24" height="24" viewBox="0 0 24 24" version="1.1">
    <title>ic_gallery_photoedit_crop_3_4</title>
    <defs>
        <path d="M19.5,2 C20.3284271,2 21,2.67157288 21,3.5 L21,20.5 C21,21.3284271 20.3284271,22 19.5,22 L4.5,22 C3.67157288,22 3,21.3284271 3,20.5 L3,3.5 C3,2.67157288 3.67157288,2 4.5,2 L19.5,2 Z M4.5,3.5 L4.5,20.5 L19.5,20.5 L19.5,3.5 L4.5,3.5 Z M9.10949594,9.523 C9.41282927,9.523 9.68232927,9.58133333 9.91799594,9.698 C10.1536626,9.81466667 10.3344959,9.97683333 10.4604959,10.1845 C10.5864959,10.3921667 10.6494959,10.6336667 10.6494959,10.909 C10.6494959,11.3056667 10.5106626,11.6206667 10.2329959,11.854 L10.2329959,11.854 L10.1224725,11.9360312 C10.0834985,11.9615521 10.0423918,11.98525 9.99915219,12.007125 L9.99915219,12.007125 L9.93349594,12.037 C10.0930506,12.0931484 10.2321209,12.166375 10.3519959,12.2565 C10.6716626,12.4968333 10.8314959,12.8456667 10.8314959,13.303 C10.8314959,13.6203333 10.7533293,13.8933333 10.5969959,14.122 C10.4406626,14.3506667 10.2318293,14.5245 9.97049594,14.6435 C9.70916261,14.7625 9.42216261,14.822 9.10949594,14.822 C8.70816261,14.822 8.34999594,14.724 8.03499594,14.528 C7.71999594,14.332 7.50182927,14.045 7.38049594,13.667 L7.38049594,13.667 L8.04549594,13.282 L8.10233594,13.4311 C8.18670927,13.6196333 8.30542927,13.7671 8.45849594,13.8735 C8.64982927,14.0065 8.86216261,14.073 9.09549594,14.073 C9.25416261,14.073 9.39766261,14.0415 9.52599594,13.9785 C9.65432927,13.9155 9.75582927,13.8221667 9.83049594,13.6985 C9.90516261,13.5748333 9.94249594,13.4266667 9.94249594,13.254 C9.94249594,12.988 9.84566261,12.7861667 9.65199594,12.6485 C9.45832927,12.5108333 9.16316261,12.442 8.76649594,12.442 L8.76649594,12.442 L8.57049594,12.442 L8.57049594,11.735 L8.82949594,11.735 L8.97523205,11.728875 C9.20824131,11.7084583 9.39182927,11.637 9.52599594,11.5145 C9.68699594,11.3675 9.76749594,11.1796667 9.76749594,10.951 C9.76749594,10.741 9.69982927,10.5753333 9.56449594,10.454 C9.42916261,10.3326667 9.25649594,10.272 9.04649594,10.272 C8.81782927,10.272 8.62416261,10.3408333 8.46549594,10.4785 C8.30682927,10.6161667 8.18549594,10.8156667 8.10149594,11.077 L8.10149594,11.077 L7.45049594,10.706 L7.50592451,10.5457143 C7.6276388,10.2365714 7.81449594,9.996 8.06649594,9.824 C8.36049594,9.62333333 8.70816261,9.523 9.10949594,9.523 Z M12.0494216,13.807 C12.1894216,13.807 12.3072549,13.8571667 12.4029216,13.9575 C12.4985883,14.0578333 12.5464216,14.1756667 12.5464216,14.311 C12.5464216,14.451 12.4985883,14.5711667 12.4029216,14.6715 C12.3072549,14.7718333 12.1894216,14.822 12.0494216,14.822 C11.9140883,14.822 11.7985883,14.7718333 11.7029216,14.6715 C11.6072549,14.5711667 11.5594216,14.451 11.5594216,14.311 C11.5594216,14.1756667 11.6072549,14.0578333 11.7029216,13.9575 C11.7985883,13.8571667 11.9140883,13.807 12.0494216,13.807 Z M16.0603943,9.614 L14.2324959,12.939 L15.5624959,12.939 L15.5633943,11.637 L16.3823943,11.637 L16.3814959,12.939 L17.1243943,12.939 L17.1243943,13.653 L16.3814959,13.653 L16.3823943,14.738 L15.5633943,14.738 L15.5624959,13.653 L13.2813943,13.653 L13.2813943,13.079 L15.1713943,9.614 L16.0603943,9.614 Z M12.0494216,11.021 C12.1894216,11.021 12.3072549,11.07 12.4029216,11.168 C12.4985883,11.266 12.5464216,11.385 12.5464216,11.525 C12.5464216,11.665 12.4985883,11.7851667 12.4029216,11.8855 C12.3072549,11.9858333 12.1894216,12.036 12.0494216,12.036 C11.9140883,12.036 11.7985883,11.9858333 11.7029216,11.8855 C11.6072549,11.7851667 11.5594216,11.665 11.5594216,11.525 C11.5594216,11.385 11.6072549,11.266 11.7029216,11.168 C11.7985883,11.07 11.9140883,11.021 12.0494216,11.021 Z" id="_path-1"/>
    </defs>
    <g id="_ic_gallery_photoedit_crop_3_4" stroke="none" stroke-width="1" fill="none" fill-rule="evenodd">
        <mask id="_mask-2" fill="white">
            <use xlink:href="#_path-1"/>
        </mask>
        <use id="_形状结合" fill="#000000" fill-rule="nonzero" xlink:href="#_path-1"/>
    </g>
</svg>