<?xml version="1.0" encoding="UTF-8"?>
<svg xmlns="http://www.w3.org/2000/svg" xmlns:xlink="http://www.w3.org/1999/xlink" width="24" height="24" viewBox="0 0 24 24" version="1.1">
    <title>ic_gallery_photoedit_crop_3_2</title>
    <defs>
        <path d="M21.5,4 C22.3284271,4 23,4.67157288 23,5.5 L23,18.5 C23,19.3284271 22.3284271,20 21.5,20 L2.5,20 C1.67157288,20 1,19.3284271 1,18.5 L1,5.5 C1,4.67157288 1.67157288,4 2.5,4 L21.5,4 Z M2.5,5.5 L2.5,18.5 L21.5,18.5 L21.5,5.5 L2.5,5.5 Z M8.932,9.523 C9.23533333,9.523 9.50483333,9.58133333 9.7405,9.698 C9.97616667,9.81466667 10.157,9.97683333 10.283,10.1845 C10.409,10.3921667 10.472,10.6336667 10.472,10.909 C10.472,11.3056667 10.3331667,11.6206667 10.0555,11.854 L10.0555,11.854 L9.94497656,11.9360313 C9.9060026,11.9615521 9.86489583,11.98525 9.82165625,12.007125 L9.82165625,12.007125 L9.75728906,12.0368203 C9.91555469,12.0931484 10.054625,12.166375 10.1745,12.2565 C10.4941667,12.4968333 10.654,12.8456667 10.654,13.303 C10.654,13.6203333 10.5758333,13.8933333 10.4195,14.122 C10.2631667,14.3506667 10.0543333,14.5245 9.793,14.6435 C9.53166667,14.7625 9.24466667,14.822 8.932,14.822 C8.53066667,14.822 8.1725,14.724 7.8575,14.528 C7.5425,14.332 7.32433333,14.045 7.203,13.667 L7.203,13.667 L7.868,13.282 L7.92484,13.4311 C8.00921333,13.6196333 8.12793333,13.7671 8.281,13.8735 C8.47233333,14.0065 8.68466667,14.073 8.918,14.073 C9.07666667,14.073 9.22016667,14.0415 9.3485,13.9785 C9.47683333,13.9155 9.57833333,13.8221667 9.653,13.6985 C9.72766667,13.5748333 9.765,13.4266667 9.765,13.254 C9.765,12.988 9.66816667,12.7861667 9.4745,12.6485 C9.28083333,12.5108333 8.98566667,12.442 8.589,12.442 L8.589,12.442 L8.393,12.442 L8.393,11.735 L8.652,11.735 L8.79773611,11.728875 C9.03074537,11.7084583 9.21433333,11.637 9.3485,11.5145 C9.5095,11.3675 9.59,11.1796667 9.59,10.951 C9.59,10.741 9.52233333,10.5753333 9.387,10.454 C9.25166667,10.3326667 9.079,10.272 8.869,10.272 C8.64033333,10.272 8.44666667,10.3408333 8.288,10.4785 C8.12933333,10.6161667 8.008,10.8156667 7.924,11.077 L7.924,11.077 L7.273,10.706 L7.32842857,10.5457143 C7.45014286,10.2365714 7.637,9.996 7.889,9.824 C8.183,9.62333333 8.53066667,9.523 8.932,9.523 Z M11.8719257,13.807 C12.0119257,13.807 12.129759,13.8571667 12.2254257,13.9575 C12.3210923,14.0578333 12.3689257,14.1756667 12.3689257,14.311 C12.3689257,14.451 12.3210923,14.5711667 12.2254257,14.6715 C12.129759,14.7718333 12.0119257,14.822 11.8719257,14.822 C11.7365923,14.822 11.6210923,14.7718333 11.5254257,14.6715 C11.429759,14.5711667 11.3819257,14.451 11.3819257,14.311 C11.3819257,14.1756667 11.429759,14.0578333 11.5254257,13.9575 C11.6210923,13.8571667 11.7365923,13.807 11.8719257,13.807 Z M14.8188983,9.516 C15.117565,9.516 15.383565,9.579 15.6168983,9.705 C15.8502316,9.831 16.0322316,10.0071667 16.1628983,10.2335 C16.293565,10.4598333 16.3588983,10.727 16.3588983,11.035 C16.3588983,11.3336667 16.286565,11.6136667 16.1418983,11.875 L16.1418983,11.875 L16.0730412,11.9914286 C15.9216126,12.2331429 15.6878983,12.528 15.3718983,12.876 L15.3718983,12.876 L14.347,14.01 L16.5268983,14.01 L16.5268983,14.738 L13.1178983,14.738 L13.1178983,14.199 L14.7208983,12.414 L14.8580789,12.2588333 C15.0742363,12.0099444 15.2280094,11.8096667 15.3193983,11.658 C15.429065,11.476 15.4838983,11.28 15.4838983,11.07 C15.4838983,10.8226667 15.415065,10.629 15.2773983,10.489 C15.1397316,10.349 14.963565,10.279 14.7488983,10.279 C14.529565,10.279 14.3347316,10.356 14.1643983,10.51 C13.994065,10.664 13.8668983,10.8763333 13.7828983,11.147 L13.7828983,11.147 L13.1248983,10.776 L13.1808269,10.6095714 C13.3045412,10.2878571 13.4993983,10.033 13.7653983,9.845 C14.0757316,9.62566667 14.4268983,9.516 14.8188983,9.516 Z M11.8719257,11.021 C12.0119257,11.021 12.129759,11.07 12.2254257,11.168 C12.3210923,11.266 12.3689257,11.385 12.3689257,11.525 C12.3689257,11.665 12.3210923,11.7851667 12.2254257,11.8855 C12.129759,11.9858333 12.0119257,12.036 11.8719257,12.036 C11.7365923,12.036 11.6210923,11.9858333 11.5254257,11.8855 C11.429759,11.7851667 11.3819257,11.665 11.3819257,11.525 C11.3819257,11.385 11.429759,11.266 11.5254257,11.168 C11.6210923,11.07 11.7365923,11.021 11.8719257,11.021 Z" id="_path-1"/>
    </defs>
    <g id="_ic_gallery_photoedit_crop_3_2" stroke="none" stroke-width="1" fill="none" fill-rule="evenodd">
        <mask id="_mask-2" fill="white">
            <use xlink:href="#_path-1"/>
        </mask>
        <use id="_形状结合" fill="#000000" fill-rule="nonzero" xlink:href="#_path-1"/>
    </g>
</svg>