<?xml version="1.0" encoding="UTF-8"?>
<svg xmlns="http://www.w3.org/2000/svg" xmlns:xlink="http://www.w3.org/1999/xlink" width="24" height="24" viewBox="0 0 24 24" version="1.1">
    <title>ic_gallery_photoedit_crop_4_3</title>
    <defs>
        <path d="M20.5,3 C21.3284271,3 22,3.67157288 22,4.5 L22,19.5 C22,20.3284271 21.3284271,21 20.5,21 L3.5,21 C2.67157288,21 2,20.3284271 2,19.5 L2,4.5 C2,3.67157288 2.67157288,3 3.5,3 L20.5,3 Z M3.5,4.5 L3.5,19.5 L20.5,19.5 L20.5,4.5 L3.5,4.5 Z M12.0249033,13.807 C12.1649033,13.807 12.2827367,13.8571667 12.3784033,13.9575 C12.47407,14.0578333 12.5219033,14.1756667 12.5219033,14.311 C12.5219033,14.451 12.47407,14.5711667 12.3784033,14.6715 C12.2827367,14.7718333 12.1649033,14.822 12.0249033,14.822 C11.88957,14.822 11.77407,14.7718333 11.6784033,14.6715 C11.5827367,14.5711667 11.5349033,14.451 11.5349033,14.311 C11.5349033,14.1756667 11.5827367,14.0578333 11.6784033,13.9575 C11.77407,13.8571667 11.88957,13.807 12.0249033,13.807 Z M14.908876,9.523 C15.2122093,9.523 15.4817093,9.58133333 15.717376,9.698 C15.9530427,9.81466667 16.133876,9.97683333 16.259876,10.1845 C16.385876,10.3921667 16.448876,10.6336667 16.448876,10.909 C16.448876,11.3056667 16.3100427,11.6206667 16.032376,11.854 L16.032376,11.854 L15.9218526,11.9360312 C15.8828786,11.9615521 15.8417718,11.98525 15.7985322,12.007125 L15.7985322,12.007125 L15.7329221,12.037 C15.8924307,12.0931484 16.031501,12.166375 16.151376,12.2565 C16.4710427,12.4968333 16.630876,12.8456667 16.630876,13.303 C16.630876,13.6203333 16.5527093,13.8933333 16.396376,14.122 C16.2400427,14.3506667 16.0312093,14.5245 15.769876,14.6435 C15.5085427,14.7625 15.2215427,14.822 14.908876,14.822 C14.5075427,14.822 14.149376,14.724 13.834376,14.528 C13.519376,14.332 13.3012093,14.045 13.179876,13.667 L13.179876,13.667 L13.844876,13.282 L13.901716,13.4311 C13.9860893,13.6196333 14.1048093,13.7671 14.257876,13.8735 C14.4492093,14.0065 14.6615427,14.073 14.894876,14.073 C15.0535427,14.073 15.1970427,14.0415 15.325376,13.9785 C15.4537093,13.9155 15.5552093,13.8221667 15.629876,13.6985 C15.7045427,13.5748333 15.741876,13.4266667 15.741876,13.254 C15.741876,12.988 15.6450427,12.7861667 15.451376,12.6485 C15.2577093,12.5108333 14.9625427,12.442 14.565876,12.442 L14.565876,12.442 L14.369876,12.442 L14.369876,11.735 L14.628876,11.735 L14.7746121,11.728875 C15.0076214,11.7084583 15.1912093,11.637 15.325376,11.5145 C15.486376,11.3675 15.566876,11.1796667 15.566876,10.951 C15.566876,10.741 15.4992093,10.5753333 15.363876,10.454 C15.2285427,10.3326667 15.055876,10.272 14.845876,10.272 C14.6172093,10.272 14.4235427,10.3408333 14.264876,10.4785 C14.1062093,10.6161667 13.984876,10.8156667 13.900876,11.077 L13.900876,11.077 L13.249876,10.706 L13.3053046,10.5457143 C13.4270189,10.2365714 13.613876,9.996 13.865876,9.824 C14.159876,9.62333333 14.5075427,9.523 14.908876,9.523 Z M9.82692214,9.614 L7.99992214,12.939 L9.32992214,12.939 L9.32992214,11.637 L10.1489221,11.637 L10.1489221,12.939 L10.8909221,12.939 L10.8909221,13.653 L10.1489221,13.653 L10.1489221,14.738 L9.32992214,14.738 L9.32992214,13.653 L7.04792214,13.653 L7.04792214,13.079 L8.93792214,9.614 L9.82692214,9.614 Z M12.0249033,11.021 C12.1649033,11.021 12.2827367,11.07 12.3784033,11.168 C12.47407,11.266 12.5219033,11.385 12.5219033,11.525 C12.5219033,11.665 12.47407,11.7851667 12.3784033,11.8855 C12.2827367,11.9858333 12.1649033,12.036 12.0249033,12.036 C11.88957,12.036 11.77407,11.9858333 11.6784033,11.8855 C11.5827367,11.7851667 11.5349033,11.665 11.5349033,11.525 C11.5349033,11.385 11.5827367,11.266 11.6784033,11.168 C11.77407,11.07 11.88957,11.021 12.0249033,11.021 Z" id="_path-1"/>
    </defs>
    <g id="_ic_gallery_photoedit_crop_4_3" stroke="none" stroke-width="1" fill="none" fill-rule="evenodd">
        <mask id="_mask-2" fill="white">
            <use xlink:href="#_path-1"/>
        </mask>
        <use id="_形状结合" fill="#000000" fill-rule="nonzero" xlink:href="#_path-1"/>
    </g>
</svg>