<?xml version="1.0" encoding="UTF-8"?>
<svg xmlns="http://www.w3.org/2000/svg" xmlns:xlink="http://www.w3.org/1999/xlink" width="24" height="24" viewBox="0 0 24 24" version="1.1">
    <title>ic_rotate_position_normal</title>
    <defs>
        <path d="M12,0.25 C12.3796958,0.25 12.693491,0.532153882 12.7431534,0.898229443 L12.75,1 L12.7511231,2.02778481 C17.6755059,2.39346309 21.6070931,6.32535839 21.9722893,11.2498754 L23,11.25 C23.4142136,11.25 23.75,11.5857864 23.75,12 C23.75,12.3796958 23.4678461,12.693491 23.1017706,12.7431534 L23,12.75 L21.9722152,12.7511231 C21.6065616,17.6751731 17.6751731,21.6065616 12.7511231,21.9722152 L12.75,23 C12.75,23.4142136 12.4142136,23.75 12,23.75 C11.6203042,23.75 11.306509,23.4678461 11.2568466,23.1017706 L11.25,23 L11.2498754,21.9722893 C6.32535839,21.6070931 2.39346309,17.6755059 2.02778481,12.7511231 L1,12.75 C0.585786438,12.75 0.25,12.4142136 0.25,12 C0.25,11.6203042 0.532153882,11.306509 0.898229443,11.2568466 L1,11.25 L2.02771071,11.2498754 C2.39293158,6.32502554 6.32502554,2.39293158 11.2498754,2.02771071 L11.25,1 C11.25,0.585786438 11.5857864,0.25 12,0.25 Z M12.750795,3.53270348 L12.75,5 C12.75,5.41421356 12.4142136,5.75 12,5.75 C11.6203042,5.75 11.306509,5.46784612 11.2568466,5.10177056 L11.25,5 L11.2502026,3.53261623 C7.15401709,3.89062294 3.89062294,7.15401709 3.53261623,11.2502026 L5,11.25 C5.41421356,11.25 5.75,11.5857864 5.75,12 C5.75,12.3796958 5.46784612,12.693491 5.10177056,12.7431534 L5,12.75 L3.53270348,12.750795 C3.89115276,16.8465127 7.1543496,20.1094061 11.2502026,20.4673838 L11.25,19 C11.25,18.5857864 11.5857864,18.25 12,18.25 C12.3796958,18.25 12.693491,18.5321539 12.7431534,18.8982294 L12.75,19 L12.750795,20.4672965 C16.8461802,20.1088763 20.1088763,16.8461802 20.4672965,12.750795 L19,12.75 C18.5857864,12.75 18.25,12.4142136 18.25,12 C18.25,11.6203042 18.5321539,11.306509 18.8982294,11.2568466 L19,11.25 L20.4673838,11.2502026 C20.1094061,7.1543496 16.8465127,3.89115276 12.750795,3.53270348 Z M12,10 C13.1045695,10 14,10.8954305 14,12 C14,13.1045695 13.1045695,14 12,14 C10.8954305,14 10,13.1045695 10,12 C10,10.8954305 10.8954305,10 12,10 Z" id="_path-1"/>
    </defs>
    <g id="_ic_rotate_position_normal" stroke="none" stroke-width="1" fill="none" fill-rule="evenodd">
        <mask id="_mask-2" fill="white">
            <use xlink:href="#_path-1"/>
        </mask>
        <use id="_形状结合" fill="#000000" fill-rule="nonzero" xlink:href="#_path-1"/>
    </g>
</svg>