<?xml version="1.0" encoding="UTF-8"?>
<svg xmlns="http://www.w3.org/2000/svg" xmlns:xlink="http://www.w3.org/1999/xlink" width="24" height="24" viewBox="0 0 24 24" version="1.1">
    <title>Public/ic_public_remove_filled</title>
    <defs>
        <path d="M12,1 C18.0751322,1 23,5.92486775 23,12 C23,18.0751322 18.0751322,23 12,23 C5.92486775,23 1,18.0751322 1,12 C1,5.92486775 5.92486775,1 12,1 Z M18.25,11.25 L5.75,11.25 C5.33578644,11.25 5,11.5857864 5,12 C5,12.4142136 5.33578644,12.75 5.75,12.75 L5.75,12.75 L18.25,12.75 C18.6642136,12.75 19,12.4142136 19,12 C19,11.5857864 18.6642136,11.25 18.25,11.25 L18.25,11.25 Z" id="_path-1"/>
    </defs>
    <g id="_Public/ic_public_remove_filled" stroke="none" stroke-width="1" fill="none" fill-rule="evenodd">
        <mask id="_mask-2" fill="white">
            <use xlink:href="#_path-1"/>
        </mask>
        <use id="_合并形状" fill="#000000" fill-rule="nonzero" xlink:href="#_path-1"/>
    </g>
</svg>