<?xml version="1.0" encoding="UTF-8"?>
<svg xmlns="http://www.w3.org/2000/svg" xmlns:xlink="http://www.w3.org/1999/xlink" width="24" height="24" viewBox="0 0 24 24" version="1.1">
    <title>Public/ic_public_scan_filled</title>
    <defs>
        <path d="M21,13.5 C21.5128358,13.5 21.9355072,13.8860402 21.9932723,14.3833789 L22,14.5 L22,17.75 C22,19.8921954 20.3160315,21.6410789 18.1996403,21.7451047 L18,21.75 L14.75,21.75 C14.1977153,21.75 13.75,21.3022847 13.75,20.75 C13.75,20.2371642 14.1360402,19.8144928 14.6333789,19.7567277 L14.75,19.75 L18,19.75 C19.0543618,19.75 19.9181651,18.9341222 19.9945143,17.8992623 L20,17.75 L20,14.5 C20,13.9477153 20.4477153,13.5 21,13.5 Z M3,13.5 C3.51283584,13.5 3.93550716,13.8860402 3.99327227,14.3833789 L4,14.5 L4,17.75 C4,18.8043618 4.81587779,19.6681651 5.85073766,19.7445143 L6,19.75 L9.25,19.75 C9.80228475,19.75 10.25,20.1977153 10.25,20.75 C10.25,21.2628358 9.86395981,21.6855072 9.36662113,21.7432723 L9.25,21.75 L6,21.75 C3.85780461,21.75 2.10892112,20.0660315 2.00489531,17.9496403 L2,17.75 L2,14.5 C2,13.9477153 2.44771525,13.5 3,13.5 Z M18,10.75 C18.5522847,10.75 19,11.1977153 19,11.75 C19,12.3022847 18.5522847,12.75 18,12.75 L6,12.75 C5.44771525,12.75 5,12.3022847 5,11.75 C5,11.1977153 5.44771525,10.75 6,10.75 L18,10.75 Z M18,1.75 C20.1421954,1.75 21.8910789,3.43396847 21.9951047,5.55035966 L22,5.75 L22,9 C22,9.55228475 21.5522847,10 21,10 C20.4871642,10 20.0644928,9.61395981 20.0067277,9.11662113 L20,9 L20,5.75 C20,4.6956382 19.1841222,3.83183488 18.1492623,3.75548574 L18,3.75 L14.75,3.75 C14.1977153,3.75 13.75,3.30228475 13.75,2.75 C13.75,2.23716416 14.1360402,1.81449284 14.6333789,1.75672773 L14.75,1.75 L18,1.75 Z M9.25,1.75 C9.80228475,1.75 10.25,2.19771525 10.25,2.75 C10.25,3.26283584 9.86395981,3.68550716 9.36662113,3.74327227 L9.25,3.75 L6,3.75 C4.9456382,3.75 4.08183488,4.56587779 4.00548574,5.60073766 L4,5.75 L4,9 C4,9.55228475 3.55228475,10 3,10 C2.48716416,10 2.06449284,9.61395981 2.00672773,9.11662113 L2,9 L2,5.75 C2,3.60780461 3.68396847,1.85892112 5.80035966,1.75489531 L6,1.75 L9.25,1.75 Z" id="_path-1"/>
    </defs>
    <g id="_Public/ic_public_scan_filled" stroke="none" stroke-width="1" fill="none" fill-rule="evenodd">
        <mask id="_mask-2" fill="white">
            <use xlink:href="#_path-1"/>
        </mask>
        <use id="_形状结合" fill="#000000" fill-rule="nonzero" xlink:href="#_path-1"/>
    </g>
</svg>