<?xml version="1.0" encoding="UTF-8"?>
<svg xmlns="http://www.w3.org/2000/svg" xmlns:xlink="http://www.w3.org/1999/xlink" width="24" height="24" version="1.1" viewBox="0 0 24 24">
  <defs>
    <path id="_uxs-a" d="M1.61022264,11.6699261 C1.29514477,11.4010418 1.25769756,10.9276468 1.52658194,10.612569 C1.79546633,10.2974911 2.26886127,10.2600439 2.58393914,10.5289283 C4.11847534,11.8384865 5.58312901,12.4942195 6.9829491,12.5287934 C8.9740272,12.5779707 10.0281109,12.3535932 11.3585776,11.7270862 C11.5096377,11.655953 12.0695491,11.388846 12.2009667,11.3269835 C12.5209083,11.1763766 12.7723179,11.0630899 13.0184915,10.9605238 C14.2407617,10.4512752 15.3254333,10.2343015 16.7948476,10.2705943 C18.8565941,10.321517 21.0825479,11.2099718 22.6359862,12.814906 C22.9240656,13.1125352 22.916324,13.5873458 22.6186948,13.8754252 C22.3210657,14.1635047 21.846255,14.1557631 21.5581756,13.8581339 C20.2918708,12.5498515 18.4426144,11.8117496 16.7578106,11.770137 C15.5055166,11.7392068 14.6288272,11.9145765 13.595385,12.3451515 C13.3734161,12.437633 13.1410526,12.5423373 12.8398224,12.6841362 C12.713045,12.7438144 12.1532521,13.0108649 11.9976114,13.084155 C10.4568823,13.8096731 9.17141756,14.0833034 6.94591218,14.0283361 C5.16865697,13.98444 3.3884108,13.1874146 1.61022264,11.6699261 Z"/>
  </defs>
  <use fill="#000" fill-rule="nonzero" stroke="none" stroke-width="1" transform="rotate(-2 12.097 12.177)" xlink:href="#_uxs-a"/>
</svg>