<?xml version="1.0" encoding="UTF-8"?>
<svg xmlns="http://www.w3.org/2000/svg" width="24" height="24" version="1.1" viewBox="0 0 24 24">
  <g fill="#000" fill-rule="evenodd" stroke="none" stroke-width="1">
    <path fill-rule="nonzero" d="M4.5,18 L6,18 L6,20 C6,20.7796961 6.59488808,21.4204487 7.35553999,21.4931334 L7.5,21.5 L9.5,21.5 L9.5,23 L7.5,23 C5.84314575,23 4.5,21.6568542 4.5,20 L4.5,18 Z M19.5,18 L19.5,20 C19.5,21.6568542 18.1568542,23 16.5,23 L14.5,23 L14.5,21.5 L16.5,21.5 C17.2796961,21.5 17.9204487,20.9051119 17.9931334,20.14446 L18,20 L18,18 L19.5,18 Z M16.5,1 C18.1568542,1 19.5,2.34314575 19.5,4 L19.5,6 L18,6 L18,4 C18,3.22030388 17.4051119,2.57955132 16.64446,2.50686658 L16.5,2.5 L14.5,2.5 L14.5,1 L16.5,1 Z M9.5,2.5 L7.5,2.5 C6.72030388,2.5 6.07955132,3.09488808 6.00686658,3.85553999 L6,4 L6,6 L4.5,6 L4.5,4 C4.5,2.34314575 5.84314575,1 7.5,1 L9.5,1 L9.5,2.5 Z"/>
    <path d="M10.0428932,15.5355339 C9.62867966,15.5355339 9.29289322,15.1997475 9.29289322,14.7855339 L9.29289322,10.8713203 C9.29289322,10.4571068 9.62867966,10.1213203 10.0428932,10.1213203 C10.4571068,10.1213203 10.7928932,10.4571068 10.7928932,10.8713203 L10.7918932,14.0353203 L13.9571068,14.0355339 C14.3713203,14.0355339 14.7071068,14.3713203 14.7071068,14.7855339 C14.7071068,15.1997475 14.3713203,15.5355339 13.9571068,15.5355339 L10.0428932,15.5355339 L10.0428932,15.5355339 Z" transform="rotate(-45 12 12.828)"/>
    <path d="M10.2196699,6.29809704 C10.6338835,6.29809704 10.9696699,6.63388348 10.9696699,7.04809704 L10.9696699,9.85809704 L13.7803301,9.85875721 C14.1945436,9.85875721 14.5303301,10.1945436 14.5303301,10.6087572 C14.5303301,11.0229708 14.1945436,11.3587572 13.7803301,11.3587572 L10.2196699,11.3587572 L10.2196699,11.3587572 C9.80545635,11.3587572 9.46966991,11.0229708 9.46966991,10.6087572 L9.46966991,7.04809704 C9.46966991,6.63388348 9.80545635,6.29809704 10.2196699,6.29809704 Z" transform="rotate(-45 12 8.828)"/>
  </g>
</svg>