<?xml version="1.0" encoding="UTF-8"?>
<svg xmlns="http://www.w3.org/2000/svg" xmlns:xlink="http://www.w3.org/1999/xlink" width="24" height="24" version="1.1" viewBox="0 0 24 24">
  <defs>
    <path id="_uxs-a" d="M7.18640954,14.9344483 C8.62103366,14.9344483 9.78854268,16.0754941 9.7882793,17.4779759 C9.7882793,19.4460866 8.15107967,21.0471567 6.13823301,21.0471567 C5.00312552,21.0471567 3.83377251,20.5876475 2.9702584,19.8342483 C3.81348863,19.4710712 4.58453982,18.6728543 4.58453982,17.4779759 C4.58453982,16.0754941 5.75204884,14.9344483 7.18640954,14.9344483 Z M18.0144382,18.0872554 C19.0244739,18.0872554 20.0986882,18.6449554 20.8455266,19.6581253 C21.0913,19.9915444 21.0202491,20.4610727 20.6868299,20.7068461 C20.3534108,20.9526195 19.8838825,20.8815686 19.6381091,20.5481494 C19.1704337,19.9136953 18.5416611,19.5872554 18.0144382,19.5872554 C17.6064286,19.5872554 17.3460171,19.6708252 17.0084215,19.8859077 C16.8725133,19.972495 16.736628,20.0699438 16.3903181,20.3222688 C15.7874778,20.7547332 15.2561214,20.8531373 14.0372145,20.8531373 C13.1749538,20.8531373 12.3257076,20.4320442 11.4853379,19.638418 C11.1841891,19.3540199 11.17061,18.8793404 11.4550081,18.5781916 C11.7394062,18.2770428 12.2140858,18.2634637 12.5152346,18.5478618 C13.1008448,19.1008989 13.6095507,19.3531373 14.0372145,19.3531373 C14.9651596,19.3531373 15.2384741,19.302521 15.5159671,19.1034537 C15.8511366,18.8586546 16.0260246,18.7332355 16.2024442,18.6208383 C16.7702534,18.2590864 17.3056952,18.0872554 18.0144382,18.0872554 Z M7.18640954,16.4344483 C6.57283228,16.4344483 6.08453982,16.9117549 6.08453982,17.4779759 C6.08453982,18.2244694 5.89085106,18.90414 5.55071558,19.4869155 C5.74771355,19.5264738 5.94514266,19.5471567 6.13823301,19.5471567 C7.33002174,19.5471567 8.2882793,18.6101033 8.2882793,17.4776941 C8.2883856,16.9116483 7.80020218,16.4344483 7.18640954,16.4344483 Z M19.8425458,3.42749605 L20.5986266,4.18357693 C21.1844131,4.76936336 21.1844131,5.71911083 20.5986266,6.30489727 L12.1867646,14.7167593 C11.6009782,15.3025457 10.6512307,15.3025457 10.0654443,14.7167593 L9.3093634,13.9606784 C8.72357696,13.374892 8.72357696,12.4251445 9.3093634,11.8393581 L17.7212254,3.42749605 C18.3070119,2.84170961 19.2567593,2.84170961 19.8425458,3.42749605 Z M18.7818856,4.48815622 L10.3700236,12.9000182 L11.1261044,13.6560991 L19.5379665,5.2442371 L18.7818856,4.48815622 Z"/>
  </defs>
  <use fill="#000" fill-rule="nonzero" stroke="none" stroke-width="1" xlink:href="#_uxs-a"/>
</svg>