<?xml version="1.0" encoding="UTF-8"?>
<svg xmlns="http://www.w3.org/2000/svg" width="24" height="24" version="1.1" viewBox="0 0 24 24">
  <path fill="#000" fill-rule="nonzero" stroke="none" stroke-width="1" d="M19.3254181,12.4782635 L19.4949317,12.4050414 C21.8333766,11.364541 23.1751443,9.81491266 22.4412169,7.53813638 C22.0732446,6.39871281 20.1533977,5.49943816 19.063787,5.91862694 L18.7108833,6.06439307 L18.091516,6.33581185 L17.9381825,6.39997232 C17.8403751,6.43996038 17.7513684,6.47439285 17.6709882,6.50336317 L17.482,6.565 L17.4761414,6.47493008 C17.2285574,3.3006589 15.1408576,1.18343564 12.6959892,2.77124869 C12.3457402,2.99870725 12.1183043,3.22438917 11.7389356,3.68607007 L11.3748128,4.13228426 C11.1528865,4.39618144 11.0179126,4.52649007 10.8548086,4.63656562 C10.4465786,4.91218364 9.90705109,5.00979953 9.02969773,5.00639697 L8.78927496,5.00015361 C8.70363797,4.99621562 8.61058095,4.99036508 8.50433207,4.982435 L8.16963036,4.95496509 C5.92213526,4.7618774 4.88400062,5.10913394 4.46112877,7.04443243 C4.28987593,7.82865215 4.45657963,8.36726985 4.98070638,9.24912962 L5.19747371,9.60426148 C5.56100627,10.1985327 5.64448952,10.4667016 5.55035454,10.7603979 C5.51195878,10.880176 5.37258249,11.0380969 5.09544402,11.2582663 L4.87596587,11.4277037 C3.7805258,12.2639527 3.14758042,12.8836371 2.50414182,13.8263035 C1.21053359,15.7200681 0.977054632,16.8264598 1.53374581,18.2953635 C2.18754767,20.0193655 4.41153929,21.2388856 6.17488283,20.536041 C6.95955844,20.2233343 7.39512785,19.8517181 7.96788514,19.1221713 L8.23502027,18.7728264 C8.71643009,18.1420405 9.04889804,17.850327 9.68125118,17.6000731 C10.3709923,17.3271524 10.6181577,17.4890011 11.1925042,18.570529 L11.4873075,19.1323148 C12.8781818,21.7090755 15.7556506,21.7570284 17.6513606,19.4534264 C18.5303951,18.3847599 19.1840793,17.0589953 18.9873029,16.043054 C18.8791769,15.4883431 18.5907441,15.1269212 18.0288263,14.6705795 L17.5167738,14.2701002 L17.4752744,14.2360998 C17.4012014,14.1746609 17.345439,14.1235665 17.3046698,14.0800575 C16.9906964,13.7448349 16.9830384,13.6791587 17.0765045,13.569487 C17.2370247,13.3811349 17.5932302,13.178333 18.2009491,12.9257892 L19.3254181,12.4782635 Z M15.998188,6.92632904 C16.0195856,7.71558794 16.5805517,8.1600935 17.3147919,8.11712342 C17.6494383,8.09753884 17.9981046,7.99515236 18.4705033,7.80303717 L19.5308381,7.34581651 C19.5492789,7.33877086 19.5697547,7.33115084 19.6024117,7.31858532 C19.8933957,7.20663964 20.9119596,7.68374471 21.0136829,7.99873006 C21.4198188,9.25863782 20.6726464,10.1907172 19.0874618,10.9417163 L18.8381496,11.0552725 L17.8348503,11.4553558 C16.883007,11.835245 16.3253206,12.1383679 15.9348555,12.596534 C15.3034056,13.3374682 15.409973,14.2514095 16.209993,15.1055733 C16.2694582,15.1690347 16.3336629,15.2308561 16.4050002,15.2941668 L16.6508114,15.4980906 L16.9335648,15.7165273 C17.332237,16.0252458 17.4899084,16.2012481 17.5148419,16.3291625 C17.5973577,16.7551877 17.1017428,17.7603654 16.4930182,18.5004086 C15.2792714,19.9753122 13.7649636,19.999914 12.8948502,18.5724569 L12.7729798,18.3558536 L12.6128931,18.049347 C11.6583136,16.2080124 10.8300878,15.5323377 9.12931763,16.2053081 C8.27854426,16.5420018 7.76524294,16.9582327 7.19872884,17.6632093 L6.91824533,18.0268045 C6.4201281,18.6848179 6.15721628,18.9283567 5.61953696,19.1426312 C4.69443815,19.5113629 3.31156571,18.7530684 2.93633546,17.7636284 C2.57388456,16.8072534 2.70327402,16.1941128 3.74289884,14.6721646 C4.23439638,13.9520987 4.71219577,13.4625948 5.53022341,12.818287 L6.02849808,12.4327492 C6.52053611,12.0418554 6.82553617,11.6962737 6.97876759,11.2182583 C7.22662165,10.4449665 7.07627405,9.84990829 6.59416087,9.01790686 L6.3843406,8.67097004 C5.95744583,7.97954953 5.85349584,7.69918972 5.92657383,7.36454296 C6.11505074,6.50196709 6.40678173,6.33775541 7.67152656,6.4209694 L8.57376341,6.49070068 C8.7377602,6.5007699 8.8801216,6.50586019 9.02404744,6.50638632 C10.1783077,6.5108628 10.9721021,6.36724277 11.694032,5.87982908 C11.9873059,5.68190457 12.1920821,5.48825099 12.4832222,5.14504677 L12.9815677,4.5378075 C13.2083073,4.26880206 13.3461977,4.13754532 13.5129706,4.02923973 C14.7641668,3.21665381 15.9324355,4.49900653 15.998188,6.92632904 Z"/>
</svg>