<?xml version="1.0" encoding="utf-8"?>
<!-- Generator: Adobe Illustrator 24.3.0, SVG Export Plug-In . SVG Version: 6.00 Build 0)  -->
<svg version="1.1" id="图层_1" xmlns="http://www.w3.org/2000/svg" xmlns:xlink="http://www.w3.org/1999/xlink" x="0px" y="0px"
	 viewBox="0 0 24 24" style="enable-background:new 0 0 24 24;" xml:space="preserve">
<path d="M18.8,21H5.2C4,21,3,20,3,18.8V5.3C3,4,4,3,5.2,3h13.5C20,3,21,4,21,5.3v13.5C21,20,20,21,18.8,21z M5.2,4.5
	c-0.4,0-0.8,0.3-0.8,0.8v13.5c0,0.4,0.3,0.8,0.8,0.8h13.5c0.4,0,0.8-0.3,0.8-0.8V5.3c0-0.4-0.3-0.8-0.8-0.8H5.2z"/>
<path d="M15.8,12.1h-1.5c-1.2,0-2.2-1-2.2-2.2V8.3C12,7,13,6,14.2,6h1.5C17,6,18,7,18,8.3v1.5C18,11,17,12.1,15.8,12.1z M14.2,7.5
	c-0.4,0-0.8,0.3-0.8,0.8v1.5c0,0.4,0.3,0.8,0.8,0.8h1.5c0.4,0,0.8-0.3,0.8-0.8V8.3c0-0.4-0.3-0.8-0.8-0.8H14.2z"/>
<path d="M9.8,18.1H8.2c-1.2,0-2.2-1-2.2-2.2v-1.5c0-1.2,1-2.2,2.2-2.2h1.5c1.2,0,2.2,1,2.2,2.2v1.5C12,17.1,11,18.1,9.8,18.1z
	 M8.2,13.6c-0.4,0-0.8,0.3-0.8,0.8v1.5c0,0.4,0.3,0.7,0.8,0.7h1.5c0.4,0,0.8-0.3,0.8-0.7v-1.5c0-0.4-0.3-0.8-0.8-0.8H8.2z"/>
</svg>
