<?xml version="1.0" encoding="utf-8"?>
<!-- Generator: Adobe Illustrator 24.3.0, SVG Export Plug-In . SVG Version: 6.00 Build 0)  -->
<svg version="1.1" id="图层_1" xmlns="http://www.w3.org/2000/svg" xmlns:xlink="http://www.w3.org/1999/xlink" x="0px" y="0px"
	 viewBox="0 0 24 24" style="enable-background:new 0 0 24 24;" xml:space="preserve">
<style type="text/css">
	.st0{opacity:0.9;}
</style>
<g transform="translate(2.25 2.5)" class="st0">
	<path d="M3.6,18.7c-0.8,0-1.7-0.2-2.5-0.7l-0.8-0.5L1,17c0.2-0.2,0.4-0.4,0.5-0.6c0.3-0.4,0.4-0.9,0.4-1.5c0-0.7,0.3-1.4,0.8-1.9
		c1-1,2.8-1,3.9,0c0.5,0.5,0.8,1.2,0.8,1.9c0,1-0.4,1.9-1.1,2.7C5.5,18.3,4.6,18.7,3.6,18.7z M2.4,17.2c1.1,0.4,2.2,0.2,3-0.6
		c0.5-0.5,0.7-1.1,0.7-1.8c0-0.4-0.2-0.7-0.4-1c-0.6-0.6-1.6-0.6-2.1,0c-0.3,0.3-0.4,0.6-0.4,1c0,0.8-0.2,1.5-0.7,2.2
		C2.5,17.1,2.4,17.2,2.4,17.2z"/>
	<path d="M9.2,12.9c-0.4,0-0.8-0.2-1.1-0.4l-1.1-1.1c-0.3-0.3-0.4-0.7-0.4-1.1c0-0.4,0.2-0.8,0.4-1.1L16,0.4c0.6-0.6,1.6-0.6,2.1,0
		l1.1,1.1c0.3,0.3,0.4,0.7,0.4,1.1c0,0.4-0.2,0.8-0.4,1.1l-8.9,8.9C10,12.8,9.6,12.9,9.2,12.9z M8.1,10.3l1.1,1.1l8.9-8.9L17,1.4
		L8.1,10.3z M7.6,9.8l0.5,0.5c0,0,0,0,0,0L7.6,9.8z"/>
</g>
</svg>
