<?xml version="1.0" encoding="utf-8"?>
<!-- Generator: Adobe Illustrator 24.3.0, SVG Export Plug-In . SVG Version: 6.00 Build 0)  -->
<svg version="1.1" id="图层_1" xmlns="http://www.w3.org/2000/svg" xmlns:xlink="http://www.w3.org/1999/xlink" x="0px" y="0px"
	 viewBox="0 0 24 24" style="enable-background:new 0 0 24 24;" xml:space="preserve">
<g class="st0">
	<g>
		<path id="_uxs-b" d="M21.9768829,12.0717859 L21.9749853,12.0897842 L21.9749853,12.0897842 L21.9704783,12.1277379 L21.9704783,12.1277379 L21.9669201,12.1471892 C21.9643108,12.1581009 21.9607526,12.1685381 21.9574317,12.1792126 C21.9536363,12.1915476 21.9503154,12.2038825 21.9453339,12.2159803 C21.943199,12.2221477 21.9410641,12.2287896 21.9384548,12.2347199 C21.9339478,12.2449199 21.9277803,12.2546456 21.9223245,12.2648456 C21.9166314,12.2759945 21.9109384,12.2871434 21.9040593,12.2982923 C21.9005011,12.3037482 21.8974174,12.3094412 21.8933848,12.3148971 C21.8862685,12.3250971 21.8777289,12.3338739 21.869901,12.3435996 L21.869901,12.3435996 L21.8537706,12.3654229 C21.851873,12.3675578 21.8490264,12.3689811 21.8468915,12.3713532 L21.8386188,12.3799224 L21.8386188,12.3799224 L21.8255426,12.393651 L19.4534366,14.4848996 C19.3621105,14.5681606 19.2470633,14.6099096 19.1324906,14.6099096 C19.0041597,14.6099096 18.8765404,14.5581977 18.7828422,14.4566716 C18.6988696,14.3651083 18.6587811,14.2491123 18.6580694,14.1343024 L18.6580694,14.1343024 L18.6574309,12.7490904 L2.6574309,12.75 C2.24321734,12.75 1.9074309,12.4142136 1.9074309,12 C1.9074309,11.5857864 2.24321734,11.25 2.6574309,11.25 L18.6574309,11.2490904 L18.6592555,9.86617204 C18.6588997,9.77970878 18.6813605,9.69297865 18.7280391,9.61628921 L18.7828422,9.54332841 C18.8765404,9.44203949 19.0041597,9.39009037 19.1324906,9.39009037 C19.2470633,9.39009037 19.3621105,9.43183943 19.4531994,9.51533756 L19.4531994,9.51533756 L21.8317101,11.6139397 C21.8369287,11.618684 21.8416729,11.6239026 21.8466543,11.628884 C21.848552,11.6310189 21.8513985,11.6324422 21.8535334,11.6348143 L21.8535334,11.6348143 L21.8696637,11.6566377 C21.8777289,11.6663633 21.8862685,11.6751401 21.8931476,11.6853401 C21.8971802,11.690796 21.9002639,11.696489 21.9038221,11.7019449 L21.9038221,11.7019449 L21.9220873,11.7353916 L21.9220873,11.7353916 L21.9382176,11.7655173 C21.9405897,11.7714476 21.9427246,11.7780895 21.9450967,11.7844942 C21.9500781,11.7963547 21.9533991,11.8084524 21.9571945,11.8210246 L21.9571945,11.8210246 L21.9666829,11.853048 C21.9681061,11.8594527 21.969055,11.8660946 21.970241,11.8724993 C21.9726131,11.8855459 21.973562,11.8978808 21.974748,11.910453 L21.9753883,11.9089562 L21.9764309,11.8910904 L21.9776857,11.9032324 L21.9776857,11.9032324 L21.9774309,11.9600904 L21.9787806,11.9557602 L21.9785925,11.9733456 L21.9785925,11.9733456 L21.9774309,11.9820904 L21.9774309,11.9730904 L21.974748,12.0001186 C21.9752225,12.0047679 21.9762799,12.0220558 21.9772055,12.036816 L21.9774309,12.0530904 L21.9784309,12.0490904 C21.9788986,12.0610779 21.9787133,12.0593852 21.9784057,12.0551647 L21.9768829,12.0717859 L21.9768829,12.0717859 Z"/>
	</g>
</g>
</svg>
