<?xml version="1.0" encoding="UTF-8"?>
<svg xmlns="http://www.w3.org/2000/svg" xmlns:xlink="http://www.w3.org/1999/xlink" width="24" height="24" viewBox="0 0 24 24" version="1.1">
    <title>ic_search_ocr</title>
    <defs>
        <path d="M12,1 C18.0751322,1 23,5.92486775 23,12 C23,18.0751322 18.0751322,23 12,23 C5.92486775,23 1,18.0751322 1,12 C1,5.92486775 5.92486775,1 12,1 Z M12,2.5 C6.75329488,2.5 2.5,6.75329488 2.5,12 C2.5,17.2467051 6.75329488,21.5 12,21.5 C17.2467051,21.5 21.5,17.2467051 21.5,12 C21.5,6.75329488 17.2467051,2.5 12,2.5 Z M15,8.25 C15.4142136,8.25 15.75,8.58578644 15.75,9 C15.75,9.37969577 15.4678461,9.69349096 15.1017706,9.74315338 L15,9.75 L12.75,9.75 L12.75,17 C12.75,17.4142136 12.4142136,17.75 12,17.75 C11.6203042,17.75 11.306509,17.4678461 11.2568466,17.1017706 L11.25,17 L11.25,9.75 L9,9.75 C8.58578644,9.75 8.25,9.41421356 8.25,9 C8.25,8.62030423 8.53215388,8.30650904 8.89822944,8.25684662 L9,8.25 L15,8.25 Z" id="_path-1"/>
    </defs>
    <g id="_ic_search_ocr" stroke="none" stroke-width="1" fill="none" fill-rule="evenodd">
        <mask id="_mask-2" fill="white">
            <use xlink:href="#_path-1"/>
        </mask>
        <use id="_形状结合" fill="#000000" fill-rule="nonzero" xlink:href="#_path-1"/>
    </g>
</svg>