<?xml version="1.0" encoding="UTF-8"?>
<svg xmlns="http://www.w3.org/2000/svg" xmlns:xlink="http://www.w3.org/1999/xlink" width="24" height="24" viewBox="0 0 24 24" version="1.1">
    <title>ic_search_title</title>
    <g id="_ic_search_title" stroke="none" stroke-width="1" fill="none" fill-rule="evenodd">
        <path d="M18,2 C20.209139,2 22,3.790861 22,6 L22,18 C22,20.209139 20.209139,22 18,22 L6,22 C3.790861,22 2,20.209139 2,18 L2,6 C2,3.790861 3.790861,2 6,2 L18,2 Z M18,3.5 L6,3.5 C4.6745166,3.5 3.58996133,4.53153594 3.50531768,5.83562431 L3.5,6 L3.5,18 C3.5,19.3254834 4.53153594,20.4100387 5.83562431,20.4946823 L6,20.5 L18,20.5 C19.3254834,20.5 20.4100387,19.4684641 20.4946823,18.1643757 L20.5,18 L20.5,6 C20.5,4.6745166 19.4684641,3.58996133 18.1643757,3.50531768 L18,3.5 Z M7.05756226,6.53 L7.05756226,11.06 L11.1375623,11.06 L11.1375623,6.53 L12.8475623,6.53 L12.8475623,17.51 L11.1375623,17.51 L11.1375623,12.575 L7.05756226,12.575 L7.05756226,17.51 L5.34756226,17.51 L5.34756226,6.53 L7.05756226,6.53 Z M18.3225366,8.53 L18.3225366,17.51 L16.5975366,17.51 L16.5975366,10.63 L14.5575366,12.055 L14.5575366,10.225 L16.9575366,8.53 L18.3225366,8.53 Z" id="_形状结合" fill="#000000" fill-rule="nonzero"/>
    </g>
</svg>