<?xml version="1.0" encoding="UTF-8"?>
<svg xmlns="http://www.w3.org/2000/svg" xmlns:xlink="http://www.w3.org/1999/xlink" width="24" height="24" viewBox="0 0 24 24" version="1.1">
    <title>Public/ic_public_share_filled</title>
    <defs>
        <path d="M12.25,2 C13.9068542,2 15.25,3.34314575 15.25,5 C15.25,6.65685425 13.9068542,8 12.25,8 C12.073172,8 11.8999172,7.98470122 11.731487,7.95535509 L6.11841001,16.3757733 C6.43294022,16.6894476 6.67821942,17.0725268 6.82932572,17.5000889 L17.1706743,17.5000889 C17.5824856,16.3348501 18.6937479,15.5 20,15.5 C21.6568542,15.5 23,16.8431458 23,18.5 C23,20.1568542 21.6568542,21.5 20,21.5 C18.6941178,21.5 17.5831148,20.6656226 17.1710242,19.5009007 L6.82897577,19.5009007 C6.41688515,20.6656226 5.30588222,21.5 4,21.5 C2.34314575,21.5 1,20.1568542 1,18.5 C1,16.8431458 2.34314575,15.5 4,15.5 C4.09714009,15.5 4.19320185,15.5046169 4.2879778,15.5136433 L9.985928,6.96831066 C9.52754117,6.44149399 9.25,5.7531586 9.25,5 C9.25,3.34314575 10.5931458,2 12.25,2 Z" id="_path-1"/>
    </defs>
    <g id="_Public/ic_public_share_filled" stroke="none" stroke-width="1" fill="none" fill-rule="evenodd">
        <mask id="_mask-2" fill="white">
            <use xlink:href="#_path-1"/>
        </mask>
        <use id="_合并形状" fill="#000000" fill-rule="nonzero" xlink:href="#_path-1"/>
    </g>
</svg>