<?xml version="1.0" encoding="UTF-8"?>
<svg xmlns="http://www.w3.org/2000/svg" xmlns:xlink="http://www.w3.org/1999/xlink" width="24" height="24" viewBox="0 0 24 24" version="1.1">
    <title>Public/ic_public_switch_audio</title>
    <defs>
        <path d="M4.75,3.925 C5.02614237,3.925 5.25,4.14885763 5.25,4.425 L5.25,4.425 L5.25,8.25 C5.25,8.52614237 5.02614237,8.75 4.75,8.75 L4.75,8.75 L3.0675,8.75 C2.01296497,11.6634799 2.44348082,14.9079937 4.22132846,17.4456436 C5.9991761,19.9832934 8.90154983,21.4960527 12,21.5 C12.6813512,21.5020875 13.3607253,21.4266015 14.025,21.275 C14.2207114,21.2304498 14.4261135,21.2662063 14.5952577,21.3742706 C14.7644018,21.482335 14.8831723,21.6536888 14.925,21.85 C14.9996749,22.2544993 14.7484254,22.6477592 14.35,22.75 C13.5784747,22.9209162 12.7902157,23.0047736 12,23 C8.50799335,22.9971671 5.22476512,21.3364543 3.15330945,18.525193 C1.08185378,15.7139318 0.468269274,12.086113 1.5,8.75 L1.5,8.75 L1.475,8.75 C1.98973081,7.09638299 2.88935525,5.58844108 4.1,4.35 L4.1,4.35 L4.4,4.05 C4.50041219,3.97218621 4.62301169,3.92840067 4.75,3.925 Z M12,1 C18.0751322,1 23,5.92486775 23,12 C22.9977181,13.1023132 22.8291547,14.1979749 22.5,15.25 L22.5,15.25 L22.525,15.25 C22.0102692,16.903617 21.1106448,18.4115589 19.9,19.65 L19.9,19.65 L19.6,19.95 C19.4995878,20.0278138 19.3769883,20.0715993 19.25,20.075 C18.9738576,20.075 18.75,19.8511424 18.75,19.575 L18.75,19.575 L18.75,15.75 C18.75,15.4738576 18.9738576,15.25 19.25,15.25 L19.25,15.25 L20.93,15.25 C21.9906064,12.3368295 21.5630196,9.0894018 19.7844841,6.5500594 C18.0059486,4.010717 15.1002334,2.49895093 12,2.5 C11.3186488,2.49791251 10.6392747,2.57339852 9.975,2.725 C9.56769,2.81474626 9.16474629,2.55730999 9.07500002,2.15 C8.98525375,1.74269 9.24269001,1.33974628 9.65,1.25 C10.4215253,1.07908378 11.2097843,0.995226449 12,1 Z M12,7 C12.345178,7 12.625,7.27982203 12.625,7.625 L12.625,7.625 L12.625,16.625 C12.625,16.970178 12.345178,17.25 12,17.25 C11.654822,17.25 11.375,16.970178 11.375,16.625 L11.375,16.625 L11.375,7.625 C11.375,7.27982203 11.654822,7 12,7 Z M9.5,9.00000003 C9.84517796,9.00000003 10.125,9.27982204 10.125,9.625 L10.125,9.625 L10.125,15.375 C10.125,15.720178 9.84517797,16 9.5,16 C9.15482203,16 8.875,15.720178 8.875,15.375 L8.875,15.375 L8.875,9.625 C8.875,9.27982204 9.15482204,9.00000003 9.5,9.00000003 Z M14.5,9.75 C14.845178,9.75 15.125,10.029822 15.125,10.375 L15.125,10.375 L15.125,14.125 C15.125,14.470178 14.845178,14.75 14.5,14.75 C14.154822,14.75 13.875,14.470178 13.875,14.125 L13.875,14.125 L13.875,10.375 C13.875,10.029822 14.154822,9.75 14.5,9.75 Z M7,11.25 C7.34517797,11.25 7.625,11.529822 7.625,11.875 L7.625,11.875 L7.625,13.125 C7.625,13.470178 7.34517797,13.75 7,13.75 C6.65482203,13.75 6.375,13.470178 6.375,13.125 L6.375,13.125 L6.375,11.875 C6.375,11.529822 6.65482203,11.25 7,11.25 Z M17,11 C17.345178,11 17.625,11.279822 17.625,11.625 L17.625,11.625 L17.625,13.125 C17.625,13.470178 17.345178,13.75 17,13.75 C16.654822,13.75 16.375,13.470178 16.375,13.125 L16.375,13.125 L16.375,11.625 C16.375,11.279822 16.654822,11 17,11 Z" id="_path-1"/>
    </defs>
    <g id="_Public/ic_public_switch_audio" stroke="none" stroke-width="1" fill="none" fill-rule="evenodd">
        <mask id="_mask-2" fill="white">
            <use xlink:href="#_path-1"/>
        </mask>
        <use id="_形状结合" fill="#1A1A1A" fill-rule="nonzero" xlink:href="#_path-1"/>
    </g>
</svg>