<?xml version="1.0" encoding="UTF-8"?>
<svg xmlns="http://www.w3.org/2000/svg" xmlns:xlink="http://www.w3.org/1999/xlink" width="24" height="24" viewBox="0 0 24 24" version="1.1">
    <title>Public/ic_public_switch_camera</title>
    <defs>
        <path d="M3.24961696,10.9243661 L3.24990744,12.6099859 C2.14273101,13.2494301 1.5,13.9952583 1.5,14.75 C1.5,16.268106 4.21171106,17.8466135 8.24991457,18.4710245 L8.25,17.6465071 C8.25,17.3703647 8.47385763,17.1465071 8.75,17.1465071 C8.84280839,17.1465071 8.93378525,17.1723379 9.01274644,17.2211081 L11.8112588,18.949601 C12.0462001,19.0947119 12.1190222,19.4028051 11.9739113,19.6377464 C11.9330715,19.703868 11.8773804,19.7595592 11.8112588,19.800399 L9.01274644,21.5288919 C8.77780506,21.6740028 8.46971185,21.6011807 8.324601,21.3662393 C8.27583085,21.2872782 8.25,21.1963013 8.25,21.1034929 L8.25011361,19.9879773 C3.41861207,19.2930848 0,17.3135194 0,14.75 C0,13.2129798 1.2377215,11.8883207 3.24961696,10.9243661 Z M20.751376,10.9248419 C22.7626857,11.8887566 24,13.2132326 24,14.75 C24,17.4292572 20.2657342,19.4706455 15.0869977,20.0742092 C14.6755689,20.1221598 14.3031684,19.8275026 14.2552178,19.4160738 C14.2072672,19.0046451 14.5019245,18.6322445 14.9133532,18.5842939 L15.1814091,18.551466 C19.5316733,17.9927534 22.5,16.3383101 22.5,14.75 C22.5,13.9954879 21.85766,13.2498839 20.7511029,12.6105695 L20.751376,10.9248419 Z M14.1,2.25 C14.6539679,2.25 15.1628386,2.55532241 15.4235294,3.04411765 L15.93325,4 L17.25,4 C18.6307119,4 19.75,5.11928813 19.75,6.5 L19.75,12.5 C19.75,13.8807119 18.6307119,15 17.25,15 L6.75,15 C5.36928813,15 4.25,13.8807119 4.25,12.5 L4.25,6.5 C4.25,5.11928813 5.36928813,4 6.75,4 L8.0665,4 L8.57647059,3.04411765 C8.83716138,2.55532241 9.34603207,2.25 9.9,2.25 L14.1,2.25 Z M14.1,3.75 L9.89998802,3.75 L8.96636155,5.5 L6.75,5.5 C6.21445115,5.5 5.77723028,5.92099212 5.75122383,6.45008991 L5.75,6.5 L5.75,12.5 C5.75,13.0355488 6.17099212,13.4727697 6.70008991,13.4987762 L6.75,13.5 L17.25,13.5 C17.7855488,13.5 18.2227697,13.0790079 18.2487762,12.5499101 L18.25,12.5 L18.25,6.5 C18.25,5.96445115 17.8290079,5.52723028 17.2999101,5.50122383 L17.25,5.5 L15.0331808,5.5 L14.1,3.75 Z M12,6.25 C13.6568542,6.25 15,7.59314575 15,9.25 C15,10.9068542 13.6568542,12.25 12,12.25 C10.3431458,12.25 9,10.9068542 9,9.25 C9,7.59314575 10.3431458,6.25 12,6.25 Z M12,7.5 C11.0335017,7.5 10.25,8.28350169 10.25,9.25 C10.25,10.2164983 11.0335017,11 12,11 C12.9664983,11 13.75,10.2164983 13.75,9.25 C13.75,8.28350169 12.9664983,7.5 12,7.5 Z" id="_path-1"/>
    </defs>
    <g id="_Public/ic_public_switch_camera" stroke="none" stroke-width="1" fill="none" fill-rule="evenodd">
        <mask id="_mask-2" fill="white">
            <use xlink:href="#_path-1"/>
        </mask>
        <use id="_形状结合" fill="#000000" fill-rule="nonzero" xlink:href="#_path-1"/>
    </g>
</svg>