<?xml version="1.0" encoding="UTF-8"?>
<svg xmlns="http://www.w3.org/2000/svg" xmlns:xlink="http://www.w3.org/1999/xlink" width="24" height="24" viewBox="0 0 24 24" version="1.1">
    <title>Public/ic_public_text_filled</title>
    <defs>
        <path d="M7.1277704,2 L16.8722296,2 C18.6552671,2 19.3018396,2.18565122 19.9536914,2.53426541 C20.6055433,2.88287959 21.1171204,3.39445674 21.4657346,4.04630859 C21.8143488,4.69816044 22,5.34473292 22,7.1277704 L22,16.8722296 C22,18.6552671 21.8143488,19.3018396 21.4657346,19.9536914 C21.1171204,20.6055433 20.6055433,21.1171204 19.9536914,21.4657346 C19.3018396,21.8143488 18.6552671,22 16.8722296,22 L7.1277704,22 C5.34473292,22 4.69816044,21.8143488 4.04630859,21.4657346 C3.39445674,21.1171204 2.88287959,20.6055433 2.53426541,19.9536914 C2.18565122,19.3018396 2,18.6552671 2,16.8722296 L2,7.1277704 C2,5.34473292 2.18565122,4.69816044 2.53426541,4.04630859 C2.88287959,3.39445674 3.39445674,2.88287959 4.04630859,2.53426541 C4.69816044,2.18565122 5.34473292,2 7.1277704,2 Z M16.1071429,8.5 L19.7261905,17.25 L18.2380952,17.25 L17.3095238,14.9166667 L15.918,14.916 L15.421,13.714 L16.8452381,13.7142857 L15.5,10.2738095 L14.78,12.164 L14.142,10.622 L14.9880952,8.5 L16.1071429,8.5 Z M10.942,5.5 L15.806,17.25 L13.806,17.25 L12.558,14.124 L7.742,14.124 L6.558,17.25 L4.75,17.25 L9.438,5.5 L10.942,5.5 Z M10.126,7.884 L8.366,12.508 L11.934,12.508 L10.126,7.884 Z" id="_path-1"/>
    </defs>
    <g id="_Public/ic_public_text_filled" stroke="none" stroke-width="1" fill="none" fill-rule="evenodd">
        <mask id="_mask-2" fill="white">
            <use xlink:href="#_path-1"/>
        </mask>
        <use id="_Combined-Shape" fill="#000000" xlink:href="#_path-1"/>
    </g>
</svg>