<?xml version="1.0" encoding="UTF-8"?>
<svg xmlns="http://www.w3.org/2000/svg" xmlns:xlink="http://www.w3.org/1999/xlink" width="24" height="24" viewBox="0 0 24 24" version="1.1">
    <title>Public/ic_public_translate_e2c</title>
    <defs>
        <path d="M8.501,8.5 L8.5,10.001 L5.4867991,10 C4.29081707,10 3.8991107,10.075642 3.49791831,10.290202 C3.18895065,10.4554397 2.95543974,10.6889506 2.79020203,10.9979183 L2.71163699,11.1598183 C2.56872488,11.490322 2.50932077,11.8841957 2.50102731,12.7580853 L2.5,17.5132009 C2.5,18.7091829 2.57564199,19.1008893 2.79020203,19.5020817 C2.95543974,19.8110494 3.18895065,20.0445603 3.49791831,20.209798 L3.65981826,20.288363 C3.99032199,20.4312751 4.38419566,20.4906792 5.25808525,20.4989727 L5.4867991,20.5 L10.0132009,20.5 L10.4506279,20.4958158 C11.3138066,20.4773591 11.6543816,20.39575 12.0020817,20.209798 C12.3110494,20.0445603 12.5445603,19.8110494 12.709798,19.5020817 L12.788363,19.3401817 C12.9312751,19.009678 12.9906792,18.6158043 12.9989727,17.7419147 L12.9981734,16.4732771 C13.2911186,16.4916669 13.6171013,16.5 13.9867991,16.5 L14.5,16.5 L14.5,17.5132009 C14.5,19.0733587 14.3375552,19.6391096 14.0325178,20.20948 C13.7274804,20.7798504 13.2798504,21.2274804 12.70948,21.5325178 L12.5067379,21.6342249 C11.9922283,21.8735291 11.3898107,22 10.0132009,22 L5.4867991,22 C3.92664131,22 3.36089039,21.8375552 2.79052002,21.5325178 C2.22014965,21.2274804 1.77251964,20.7798504 1.46748223,20.20948 L1.36577509,20.0067379 C1.12647088,19.4922283 1,18.8898107 1,17.5132009 L1,12.9867991 C1,11.4266413 1.16244482,10.8608904 1.46748223,10.29052 C1.77251964,9.72014965 2.22014965,9.27251964 2.79052002,8.96748223 L2.99326214,8.86577509 C3.47347103,8.64242449 4.03025764,8.51736427 5.22159636,8.50168224 L8.501,8.5 Z M7.88967796,11.3137215 L8.03960491,11.6694477 C8.14701704,11.9194005 8.25847018,12.1642602 8.37396345,12.4040279 L8.4908034,12.6420983 L8.52425,12.709 L8.60029966,12.7088978 C8.65896634,13.0885872 8.74593941,13.410606 8.86780529,13.7157553 L6.35175,13.7155 L6.40341055,13.8808254 C6.53102057,14.2733381 6.69055484,14.6489605 6.88171631,15.0072216 L6.96557815,15.1596978 C7.1775434,15.5244752 7.42219069,15.8561517 7.69958327,16.154888 L7.7195,16.17575 L7.72373425,16.172215 C7.99829922,15.9013751 8.22810898,15.6108027 8.4127627,15.3015668 L8.47264095,15.1977984 C8.68376793,14.8008797 8.85319897,14.3912876 8.9809886,13.9689189 C9.01203295,14.0395967 9.04777272,14.1102189 9.08566903,14.1810788 C9.25831265,14.5038943 9.46706669,14.7977178 9.70884519,15.0594633 L9.62133334,15.2668263 L9.54121132,15.4411869 L9.45768817,15.6139459 C9.25605051,15.9828999 9.01626617,16.3264464 8.73844513,16.6444712 L8.63247949,16.7625339 L8.537,16.8635 L8.55875957,16.8791579 C8.83988745,17.0749536 9.12980794,17.2460659 9.43022539,17.3933007 L9.58131675,17.4649321 L9.73420495,17.5326062 C10.2976754,17.8068617 10.8788555,18.0367854 11.4777973,18.2223958 L11.7032332,18.2899225 L11.8402948,18.3295684 L11.3700585,19.4012698 L10.985647,19.2584216 C10.3474297,19.0165971 9.72661515,18.7485747 9.12013718,18.4528011 C8.66057965,18.21281 8.22814672,17.9387072 7.8229088,17.6305205 L7.75,17.57375 L7.67709312,17.6305195 C7.3731762,17.8616534 7.05403121,18.0735785 6.72010255,18.266063 L6.55190832,18.3606842 L6.38126248,18.4520589 C5.78695135,18.7720726 5.16563574,19.0536688 4.51735389,19.2968473 L4.27298423,19.3862384 L4.16739217,19.4238914 L3.65680969,18.370136 L4.01903121,18.2502897 C4.61908643,18.0465707 5.20133101,17.8073453 5.77142935,17.5300345 C6.17656081,17.3571125 6.56647282,17.1401871 6.94124816,16.8791544 L6.96275,16.8635 L6.8668693,16.7616525 C6.61054079,16.4831826 6.38044263,16.1798901 6.17670011,15.852018 L6.09099586,15.7099973 L6.01752535,15.5812334 C5.70388894,15.0230669 5.459024,14.423378 5.28293841,13.782391 L5.26525,13.7155 L3.936,13.7155 L3.936,12.709 L7.3315,12.709 L7.28510227,12.5992287 L7.16186228,12.3173106 L7.03544783,12.0364484 L6.90585884,11.7566421 L6.84410607,11.6251684 L7.88967796,11.3137215 Z M18.5132009,2 C20.0733587,2 20.6391096,2.16244482 21.20948,2.46748223 C21.7798504,2.77251964 22.2274804,3.22014965 22.5325178,3.79052002 C22.8375552,4.36089039 23,4.92664131 23,6.4867991 L23,11.0132009 C23,12.5733587 22.8375552,13.1391096 22.5325178,13.70948 C22.2274804,14.2798504 21.7798504,14.7274804 21.20948,15.0325178 C20.6391096,15.3375552 20.0733587,15.5 18.5132009,15.5 L13.9867991,15.5 C12.4266413,15.5 11.8608904,15.3375552 11.29052,15.0325178 C10.7201496,14.7274804 10.2725196,14.2798504 9.96748223,13.70948 C9.66244482,13.1391096 9.5,12.5733587 9.5,11.0132009 L9.5,6.4867991 C9.5,4.92664131 9.66244482,4.36089039 9.96748223,3.79052002 C10.2725196,3.22014965 10.7201496,2.77251964 11.29052,2.46748223 C11.8608904,2.16244482 12.4266413,2 13.9867991,2 L18.5132009,2 Z M16.9804631,4.6 L15.8921852,4.6 L12.5,12.6 L13.8082489,12.6 L14.6649783,10.4666667 L18.1497829,10.4666667 L19.052822,12.6 L20.5,12.6 L16.9804631,4.6 Z M16.3900145,6.22176871 L17.6982634,9.36734694 L15.1164978,9.36734694 L16.3900145,6.22176871 Z" id="_path-1"/>
    </defs>
    <g id="_Public/ic_public_translate_e2c" stroke="none" stroke-width="1" fill="none" fill-rule="evenodd">
        <mask id="_mask-2" fill="white">
            <use xlink:href="#_path-1"/>
        </mask>
        <use id="_形状结合" fill="#000000" fill-rule="nonzero" xlink:href="#_path-1"/>
    </g>
</svg>