<?xml version="1.0" encoding="UTF-8"?>
<svg xmlns="http://www.w3.org/2000/svg" xmlns:xlink="http://www.w3.org/1999/xlink" width="24" height="24" viewBox="0 0 24 24" version="1.1">
    <title>ic_privacy_statement</title>
    <defs>
        <path d="M10.6911795,1.30107415 L4.26838461,4.41515652 C3.49262814,4.79128086 3,5.57760856 3,6.43973826 L3,11.25 C3,16.5172142 6.35549222,21.1121681 11.2519921,22.7983767 C11.26444,22.8026634 11.2850119,22.8094012 11.3137077,22.8185901 L11.3137088,22.8185866 C11.759784,22.9614277 12.2393172,22.9614959 12.685433,22.8187818 C12.7161694,22.8089491 12.7379871,22.8018097 12.7508862,22.7973636 C17.6459225,21.1101108 21,16.5158971 21,11.25 L21,6.43973826 C21,5.57760856 20.5073719,4.79128086 19.7316154,4.41515652 L13.3088205,1.30107415 C12.4822869,0.900330583 11.5177131,0.900330583 10.6911795,1.30107415 Z M12.6544103,2.65079531 L19.0772051,5.76487768 C19.3357906,5.89025246 19.5,6.15236169 19.5,6.43973826 L19.5,11.25 L19.4990866,11.3909195 C19.4399024,15.954552 16.5098224,19.9199393 12.2514939,21.3828832 L12.2455137,21.384915 L12.2373194,21.3876508 C12.081498,21.4396589 11.9129108,21.4390691 11.7574571,21.385972 C11.7557242,21.38538 11.7540267,21.384799 11.7523646,21.3842288 C7.44826353,19.9075659 4.5,15.8744307 4.5,11.25 L4.5,6.43973826 C4.5,6.15236169 4.66420938,5.89025246 4.92279487,5.76487768 L11.3455897,2.65079531 C11.7588565,2.45042353 12.2411435,2.45042353 12.6544103,2.65079531 Z M12,10.25 C11.5857864,10.25 11.25,10.5857864 11.25,11 L11.25,11 L11.25,17 L11.2568466,17.1017706 C11.306509,17.4678461 11.6203042,17.75 12,17.75 C12.4142136,17.75 12.75,17.4142136 12.75,17 L12.75,17 L12.75,11 L12.7431534,10.8982294 C12.693491,10.5321539 12.3796958,10.25 12,10.25 Z M12,6 C11.3096441,6 10.75,6.55964406 10.75,7.25 C10.75,7.94035594 11.3096441,8.5 12,8.5 C12.6903559,8.5 13.25,7.94035594 13.25,7.25 C13.25,6.55964406 12.6903559,6 12,6 Z" id="_path-1"/>
    </defs>
    <g id="_ic_privacy_statement" stroke="none" stroke-width="1" fill="none" fill-rule="evenodd">
        <mask id="_mask-2" fill="white">
            <use xlink:href="#_path-1"/>
        </mask>
        <use id="_路径" fill="#000000" fill-rule="nonzero" xlink:href="#_path-1"/>
    </g>
</svg>