<?xml version="1.0" encoding="utf-8"?>
<!-- Generator: Adobe Illustrator 24.3.0, SVG Export Plug-In . SVG Version: 6.00 Build 0)  -->
<svg version="1.1" id="图层_1" xmlns="http://www.w3.org/2000/svg" xmlns:xlink="http://www.w3.org/1999/xlink" x="0px" y="0px"
	 viewBox="0 0 21 24" style="enable-background:new 0 0 21 24;" xml:space="preserve">
<style type="text/css">
	.st0{fill-rule:evenodd;clip-rule:evenodd;fill:#61A4FF;}
	.st1{fill-rule:evenodd;clip-rule:evenodd;fill:#A2C9FF;}
	.st2{fill:#FFFFFF;}
	.st3{fill-rule:evenodd;clip-rule:evenodd;fill:#FFFFFF;}
</style>
<g id="_页面-1">
	<g id="_7z">
		<path id="_矩形备份-104" class="st0" d="M1.2,0h13.5v4.9c0,0.8,0.6,1.4,1.4,1.4H21v16.5c0,0.7-0.5,1.2-1.2,1.2h0H1.2
			C0.5,24,0,23.5,0,22.8l0,0V1.2C0,0.5,0.5,0,1.2,0C1.2,0,1.2,0,1.2,0z"/>
		<path id="_矩形备份-105" class="st1" d="M14.7,0L21,6.3h-4.9c-0.8,0-1.4-0.6-1.4-1.4c0,0,0,0,0,0V0z"/>
		<g id="_编组-134">
			<path class="st2" d="M8.2,19C8.2,19,8.2,19,8.2,19c-0.2,0-0.4-0.2-0.4-0.4c0-1.2,0.4-2.4,1.1-3.4H7.3c-0.2,0-0.4-0.2-0.4-0.4
				s0.2-0.4,0.4-0.4h2.4c0.2,0,0.3,0.1,0.4,0.2c0.1,0.1,0,0.3-0.1,0.4c-0.9,1-1.4,2.2-1.4,3.5C8.5,18.9,8.4,19,8.2,19z"/>
			<path class="st2" d="M13.7,19.1h-2.5c-0.1,0-0.3-0.1-0.3-0.2c-0.1-0.1-0.1-0.3,0-0.4l2.1-3.2h-1.8c-0.2,0-0.4-0.2-0.4-0.4
				s0.2-0.4,0.4-0.4h2.5c0.1,0,0.3,0.1,0.3,0.2c0.1,0.1,0.1,0.3,0,0.4l-2.1,3.2h1.8c0.2,0,0.4,0.2,0.4,0.4S13.9,19.1,13.7,19.1z"/>
		</g>
		<g id="_编组-109">
			<path id="_Rectangle-16-Copy-2" class="st3" d="M5.4,4.8h1.9c0.1,0,0.2,0.1,0.2,0.2v0.8C7.5,5.9,7.4,6,7.3,6H5.4V4.8z"/>
			<path id="_Rectangle-16-Copy-4" class="st3" d="M5.4,7.2h1.9c0.1,0,0.2,0.1,0.2,0.2v1H5.4V7.2z"/>
			<path id="_Rectangle-16-Copy" class="st3" d="M6.4,3.6H4.5c-0.1,0-0.2,0.1-0.2,0.2v0.7c0,0.1,0.1,0.2,0.2,0.2c0,0,0,0,0,0h1.8
				V3.6z"/>
			<path id="_Rectangle-16-Copy-6" class="st3" d="M7.3,2.4H5.4v1.2h1.9c0.1,0,0.2-0.1,0.2-0.2V2.6C7.5,2.5,7.4,2.4,7.3,2.4z"/>
			<path id="_Rectangle-16-Copy-6备份-3" class="st3" d="M7.5,0H5.4v1.2h1.9c0.1,0,0.2-0.1,0.2-0.2V0z"/>
			<path id="_Rectangle-16-Copy-6备份-2" class="st3" d="M6.4,1.2H4.5c-0.1,0-0.2,0.1-0.2,0.2v0.8c0,0.1,0.1,0.2,0.2,0.2
				c0,0,0,0,0,0h1.8V1.2z"/>
			<path id="_Rectangle-16-Copy-3" class="st3" d="M6.4,6H4.5C4.4,6,4.3,6.1,4.3,6.2V7c0,0.1,0.1,0.2,0.2,0.2h1.8V6z"/>
			<path id="_Combined-Shape" class="st3" d="M7.5,8.4v2c0,0.2-0.2,0.4-0.4,0.4H4.7c-0.2,0-0.4-0.2-0.4-0.4v-2H7.5z M6.7,9H5.1v0.8
				c0,0.1,0.1,0.2,0.2,0.2h1.2c0.1,0,0.2-0.1,0.2-0.2c0,0,0,0,0,0l0,0L6.7,9z"/>
		</g>
	</g>
</g>
</svg>
