<svg id="图层_1" data-name="图层 1" xmlns="http://www.w3.org/2000/svg" viewBox="0 0 21 24"><defs><style>.cls-1{fill:#61a4ff;}.cls-1,.cls-2,.cls-3{fill-rule:evenodd;}.cls-2{fill:#a2c9ff;}.cls-3{fill:#fff;}</style></defs><g id="_页面-1" data-name=" 页面-1"><path id="_矩形备份-80" data-name=" 矩形备份-80" class="cls-1" d="M2.69,0H16.21V4.93A1.37,1.37,0,0,0,17.57,6.3h4.92V22.8a1.2,1.2,0,0,1-1.2,1.2H2.69a1.2,1.2,0,0,1-1.2-1.2V1.2A1.2,1.2,0,0,1,2.69,0Z" transform="translate(-1.49 0)"/><path id="_矩形备份-81" data-name=" 矩形备份-81" class="cls-2" d="M16.19,0l6.3,6.3H17.57a1.37,1.37,0,0,1-1.38-1.37V0Z" transform="translate(-1.49 0)"/><g id="_编组-249" data-name=" 编组-249"><path id="_矩形" data-name=" 矩形" class="cls-3" d="M7,11H17a.6.6,0,0,1,.6.6h0a.6.6,0,0,1-.6.6H7a.6.6,0,0,1-.6-.6h0A.6.6,0,0,1,7,11Z" transform="translate(-1.49 0)"/><path id="_矩形备份" data-name=" 矩形备份" class="cls-3" d="M7,14.55H17a.6.6,0,0,1,.6.6h0a.6.6,0,0,1-.6.6H7a.6.6,0,0,1-.6-.6h0A.6.6,0,0,1,7,14.55Z" transform="translate(-1.49 0)"/><path id="_矩形备份-2" data-name=" 矩形备份-2" class="cls-3" d="M7,18.15h5.62a.6.6,0,0,1,.6.6h0a.6.6,0,0,1-.6.6H7a.6.6,0,0,1-.6-.6h0A.6.6,0,0,1,7,18.15Z" transform="translate(-1.49 0)"/></g></g></svg>