<?xml version="1.0" encoding="utf-8"?>
<!-- Generator: Adobe Illustrator 24.3.0, SVG Export Plug-In . SVG Version: 6.00 Build 0)  -->
<svg version="1.1" id="图层_1" xmlns="http://www.w3.org/2000/svg" xmlns:xlink="http://www.w3.org/1999/xlink" x="0px" y="0px"
	 viewBox="0 0 21 24" style="enable-background:new 0 0 21 24;" xml:space="preserve">
<style type="text/css">
	.st0{fill-rule:evenodd;clip-rule:evenodd;fill:#61A4FF;}
	.st1{fill-rule:evenodd;clip-rule:evenodd;fill:#A2C9FF;}
	.st2{fill:#FFFFFF;}
</style>
<g id="_页面-1">
	<path id="_矩形备份-90" class="st0" d="M1.2,0h13.5v4.9c0,0.8,0.6,1.4,1.4,1.4H21v16.5c0,0.7-0.5,1.2-1.2,1.2h0H1.2
		C0.5,24,0,23.5,0,22.8l0,0V1.2C0,0.5,0.5,0,1.2,0C1.2,0,1.2,0,1.2,0z"/>
	<path id="_矩形备份-91" class="st1" d="M14.7,0L21,6.3h-4.9c-0.8,0-1.4-0.6-1.4-1.4c0,0,0,0,0,0V0z"/>
	<g id="_编组-35">
		<path class="st2" d="M11.7,17.7c-0.1,0-0.3-0.1-0.3-0.2L9,13.7c-0.1-0.2-0.1-0.4,0.1-0.5c0.2-0.1,0.4-0.1,0.5,0.1l2.4,3.8
			c0.1,0.2,0.1,0.4-0.1,0.5C11.9,17.7,11.8,17.7,11.7,17.7z"/>
		<path class="st2" d="M9.4,17.7c-0.1,0-0.1,0-0.2-0.1C9,17.5,8.9,17.3,9,17.1l2.3-3.8c0.1-0.2,0.4-0.2,0.5-0.1
			c0.2,0.1,0.2,0.4,0.1,0.5l-2.4,3.8C9.6,17.6,9.5,17.7,9.4,17.7z"/>
		<path class="st2" d="M7.6,13.9H5c-0.2,0-0.4-0.2-0.4-0.4s0.2-0.4,0.4-0.4h2.6c0.2,0,0.4,0.2,0.4,0.4S7.9,13.9,7.6,13.9z"/>
		<path class="st2" d="M6.3,17.7c-0.2,0-0.4-0.2-0.4-0.4v-3.8c0-0.2,0.2-0.4,0.4-0.4s0.4,0.2,0.4,0.4v3.8
			C6.7,17.5,6.6,17.7,6.3,17.7z"/>
		<path class="st2" d="M16,13.9h-2.6c-0.2,0-0.4-0.2-0.4-0.4s0.2-0.4,0.4-0.4H16c0.2,0,0.4,0.2,0.4,0.4S16.2,13.9,16,13.9z"/>
		<path class="st2" d="M14.7,17.7c-0.2,0-0.4-0.2-0.4-0.4v-3.8c0-0.2,0.2-0.4,0.4-0.4s0.4,0.2,0.4,0.4v3.8
			C15.1,17.5,14.9,17.7,14.7,17.7z"/>
	</g>
</g>
</svg>
