<?xml version="1.0" encoding="utf-8"?>
<!-- Generator: Adobe Illustrator 24.3.0, SVG Export Plug-In . SVG Version: 6.00 Build 0)  -->
<svg version="1.1" id="图层_1" xmlns="http://www.w3.org/2000/svg" xmlns:xlink="http://www.w3.org/1999/xlink" x="0px" y="0px"
	 viewBox="0 0 21 24" style="enable-background:new 0 0 21 24;" xml:space="preserve">
<style type="text/css">
	.st0{fill-rule:evenodd;clip-rule:evenodd;fill:#B4C4D0;}
	.st1{fill-rule:evenodd;clip-rule:evenodd;fill:#D2DDE6;}
	.st2{fill:#FFFFFF;}
</style>
<g id="_页面-1">
	<path id="_矩形备份-84" class="st0" d="M1.2,0h13.5v4.9c0,0.8,0.6,1.4,1.4,1.4H21v16.5c0,0.7-0.5,1.2-1.2,1.2h0H1.2
		C0.5,24,0,23.5,0,22.8l0,0V1.2C0,0.5,0.5,0,1.2,0C1.2,0,1.2,0,1.2,0z"/>
	<path id="_矩形备份-85" class="st1" d="M14.7,0L21,6.3h-4.9c-0.8,0-1.4-0.6-1.4-1.4c0,0,0,0,0,0V0z"/>
	<g id="_编组-34">
		<path class="st2" d="M16.4,17.6h-2.1c-0.2,0-0.4-0.2-0.4-0.4v-3.8c0-0.2,0.2-0.4,0.4-0.4s0.4,0.2,0.4,0.4v3.4h1.7
			c0.2,0,0.4,0.2,0.4,0.4S16.7,17.6,16.4,17.6z"/>
		<path class="st2" d="M12.6,17.7c-0.2,0-0.4-0.2-0.4-0.4v-2.7L11,17.4c-0.1,0.1-0.2,0.2-0.4,0.2c-0.2,0-0.3-0.1-0.4-0.3l-1.1-2.9
			l0,2.8c0,0.2-0.2,0.4-0.4,0.4c0,0,0,0,0,0c-0.2,0-0.4-0.2-0.4-0.4l0-3.8c0-0.2,0.2-0.4,0.4-0.4h0.4c0.2,0,0.3,0.1,0.4,0.3l1.1,2.8
			l1.1-2.8c0.1-0.1,0.2-0.2,0.4-0.2h0.4c0.2,0,0.4,0.2,0.4,0.4v3.8C13,17.5,12.8,17.7,12.6,17.7z"/>
		<path class="st2" d="M6.9,17.6c-0.1,0-0.3-0.1-0.3-0.2l-2.3-3.7c-0.1-0.2-0.1-0.4,0.1-0.5C4.6,13,4.8,13,4.9,13.2L7.3,17
			c0.1,0.2,0.1,0.4-0.1,0.5C7.1,17.5,7,17.6,6.9,17.6z"/>
		<path class="st2" d="M4.6,17.6c-0.1,0-0.1,0-0.2-0.1c-0.2-0.1-0.2-0.4-0.1-0.5l2.3-3.7C6.7,13,6.9,13,7.1,13.1
			c0.2,0.1,0.2,0.4,0.1,0.5l-2.3,3.7C4.8,17.5,4.7,17.6,4.6,17.6z"/>
	</g>
</g>
</svg>
