<?xml version="1.0" encoding="utf-8"?>
<!-- Generator: Adobe Illustrator 24.3.0, SVG Export Plug-In . SVG Version: 6.00 Build 0)  -->
<svg version="1.1" id="图层_1" xmlns="http://www.w3.org/2000/svg" xmlns:xlink="http://www.w3.org/1999/xlink" x="0px" y="0px"
	 viewBox="0 0 21 24" style="enable-background:new 0 0 21 24;" xml:space="preserve">
<style type="text/css">
	.st0{fill-rule:evenodd;clip-rule:evenodd;fill:#38C48C;}
	.st1{fill-rule:evenodd;clip-rule:evenodd;fill:#5FE5B0;}
	.st2{fill:#FFFFFF;}
</style>
<g id="_页面-1">
	<path id="_矩形备份-76" class="st0" d="M1.2,0h13.5v4.9c0,0.8,0.6,1.4,1.4,1.4H21v16.5c0,0.7-0.5,1.2-1.2,1.2h0H1.2
		C0.5,24,0,23.5,0,22.8l0,0V1.2C0,0.5,0.5,0,1.2,0C1.2,0,1.2,0,1.2,0z"/>
	<path id="_矩形备份-77" class="st1" d="M14.7,0L21,6.3h-4.9c-0.8,0-1.4-0.6-1.4-1.4c0,0,0,0,0,0V0z"/>
	<g id="_编组-3">
		<g id="_编组-2">
			<path class="st2" d="M13,18.7c-0.2,0-0.4-0.1-0.5-0.3l-5.1-7.2c-0.2-0.3-0.1-0.6,0.1-0.8c0.3-0.2,0.6-0.1,0.8,0.1l5.1,7.2
				c0.2,0.3,0.1,0.6-0.1,0.8C13.2,18.6,13.1,18.7,13,18.7z"/>
			<path class="st2" d="M8,18.7c-0.1,0-0.2,0-0.3-0.1c-0.3-0.2-0.3-0.6-0.1-0.8l5.1-7.2c0.2-0.3,0.6-0.3,0.8-0.1
				c0.3,0.2,0.3,0.6,0.1,0.8l-5,7.2C8.4,18.6,8.2,18.7,8,18.7z"/>
		</g>
	</g>
</g>
</svg>
