<svg id="图层_1" data-name="图层 1" xmlns="http://www.w3.org/2000/svg" viewBox="0 0 21 24"><defs><style>.cls-1,.cls-4{fill:#38c48c;}.cls-1,.cls-2{fill-rule:evenodd;}.cls-2{fill:#5fe5b0;}.cls-3{fill:#fff;}</style></defs><g id="_页面-1" data-name=" 页面-1"><path id="_矩形备份-66" data-name=" 矩形备份-66" class="cls-1" d="M2.66,0H16.18V4.93A1.36,1.36,0,0,0,17.53,6.3h4.93V22.8a1.2,1.2,0,0,1-1.2,1.2H2.66a1.2,1.2,0,0,1-1.2-1.2V1.2A1.2,1.2,0,0,1,2.66,0Z" transform="translate(-1.46 0)"/><path id="_矩形备份-67" data-name=" 矩形备份-67" class="cls-2" d="M16.16,0l6.3,6.3H17.53a1.37,1.37,0,0,1-1.37-1.37V0Z" transform="translate(-1.46 0)"/><g id="_编组-244" data-name=" 编组-244"><path id="_路径" data-name=" 路径" class="cls-3" d="M14.8,11.1H9.13a1.22,1.22,0,0,0-1.22,1.21V18A1.22,1.22,0,0,0,9.13,19.2H14.8A1.21,1.21,0,0,0,16,18V12.31A1.21,1.21,0,0,0,14.8,11.1Z" transform="translate(-1.46 0)"/><g id="_编组-119" data-name=" 编组-119"><circle id="_椭圆形" data-name=" 椭圆形" class="cls-4" cx="8.4" cy="13.05" r="0.6"/><circle id="_椭圆形备份" data-name=" 椭圆形备份" class="cls-4" cx="12.6" cy="13.05" r="0.6"/></g><path class="cls-4" d="M12,15.37a2.32,2.32,0,0,1-2.32-2.32h.45a1.88,1.88,0,0,0,3.75,0h.45A2.33,2.33,0,0,1,12,15.37Z" transform="translate(-1.46 0)"/></g></g></svg>