<svg id="图层_1" data-name="图层 1" xmlns="http://www.w3.org/2000/svg" viewBox="0 0 21 24"><defs><style>.cls-1{fill:#fb5ba5;}.cls-1,.cls-2{fill-rule:evenodd;}.cls-2{fill:#ffa6b2;}.cls-3{fill:#fff;}</style></defs><g id="_页面-1" data-name=" 页面-1"><g id="_音乐-mp3" data-name=" 音乐-mp3"><path id="_矩形备份-61" data-name=" 矩形备份-61" class="cls-1" d="M2.69,0H16.21V4.93A1.37,1.37,0,0,0,17.57,6.3h4.92V22.8a1.2,1.2,0,0,1-1.2,1.2H2.69a1.2,1.2,0,0,1-1.2-1.2V1.2A1.2,1.2,0,0,1,2.69,0Z" transform="translate(-1.49 0)"/><path id="_矩形备份-68" data-name=" 矩形备份-68" class="cls-2" d="M16.19,0l6.3,6.3H17.57a1.37,1.37,0,0,1-1.38-1.37V0Z" transform="translate(-1.49 0)"/><g id="_编组-240" data-name=" 编组-240"><g id="_Shape-Copy备份-3" data-name=" Shape-Copy备份-3"><path id="_path-1" data-name=" path-1" class="cls-3" d="M14.69,9.35V14.4h0a1.26,1.26,0,0,1-1.12,1.25.94.94,0,0,1-1.13-.86,1.18,1.18,0,0,1,.87-1.09,1,1,0,0,0,.69-.78V10.24l-3.47.65v4a1.65,1.65,0,0,1-1.21,1.45,1,1,0,0,1-1.23-.95A1.34,1.34,0,0,1,9,14.22c.19-.07.84-.28.84-.6V10a.66.66,0,0,1,.55-.65l3.54-.61a.67.67,0,0,1,.77.54Z" transform="translate(-1.49 0)"/></g><path class="cls-3" d="M11.76,21.17a.28.28,0,0,1-.29-.28v-3a.29.29,0,0,1,.29-.28h.91a1.15,1.15,0,1,1,0,2.3H12v.95A.28.28,0,0,1,11.76,21.17Zm.28-1.8h.63a.58.58,0,1,0,0-1.16H12Z" transform="translate(-1.49 0)"/><path class="cls-3" d="M10.6,21.1a.29.29,0,0,1-.29-.29v-2l-.89,2.15a.29.29,0,0,1-.27.18h0a.33.33,0,0,1-.27-.18L8,18.76v2a.29.29,0,0,1-.29.29h0a.3.3,0,0,1-.29-.29l0-2.74a.28.28,0,0,1,.28-.28h.32a.28.28,0,0,1,.27.18l.84,2.08L10,18a.27.27,0,0,1,.26-.17h.31a.28.28,0,0,1,.29.28v2.74A.29.29,0,0,1,10.6,21.1Z" transform="translate(-1.49 0)"/><path class="cls-3" d="M15.46,21.22a1.19,1.19,0,0,1-1.08-.63.3.3,0,0,1,.11-.4.31.31,0,0,1,.4.11.58.58,0,0,0,.54.35c.44-.07.51-.29.5-.53a.58.58,0,0,0-.66-.4.27.27,0,0,1-.35-.27.3.3,0,0,1,.26-.3h0s.15,0,.46-.13a.4.4,0,0,0-.27-.75c-.35,0-.46.14-.51.25a.29.29,0,0,1-.53-.24,1,1,0,0,1,1-.58,1,1,0,0,1,.7,1.7,1.43,1.43,0,0,1,.38.56s0,.05,0,.08a1.06,1.06,0,0,1-1,1.18Z" transform="translate(-1.49 0)"/></g></g></g></svg>