<svg id="图层_1" data-name="图层 1" xmlns="http://www.w3.org/2000/svg" viewBox="0 0 21 24"><defs><style>.cls-1{fill:#fb5ba5;}.cls-1,.cls-2{fill-rule:evenodd;}.cls-2{fill:#ffa6b2;}.cls-3{fill:#fff;}</style></defs><g id="_页面-1" data-name=" 页面-1"><g id="_编组-89" data-name=" 编组-89"><path id="_矩形备份-56" data-name=" 矩形备份-56" class="cls-1" d="M2.69,0H16.21V4.93A1.37,1.37,0,0,0,17.57,6.3h4.92V22.8a1.2,1.2,0,0,1-1.2,1.2H2.69a1.2,1.2,0,0,1-1.2-1.2V1.2A1.2,1.2,0,0,1,2.69,0Z" transform="translate(-1.49 0)"/><path id="_矩形备份-58" data-name=" 矩形备份-58" class="cls-2" d="M16.19,0l6.3,6.3H17.57a1.37,1.37,0,0,1-1.38-1.37V0Z" transform="translate(-1.49 0)"/><g id="_编组-242" data-name=" 编组-242"><g id="_Shape-Copy备份" data-name=" Shape-Copy备份"><path id="_path-1" data-name=" path-1" class="cls-3" d="M14.54,9.35V14.4h0a1.26,1.26,0,0,1-1.12,1.25.94.94,0,0,1-1.13-.86,1.18,1.18,0,0,1,.87-1.09,1,1,0,0,0,.69-.78V10.24l-3.47.65v4a1.65,1.65,0,0,1-1.21,1.45,1,1,0,0,1-1.23-.95,1.34,1.34,0,0,1,.9-1.16c.19-.07.84-.28.84-.6V10a.66.66,0,0,1,.55-.65l3.54-.61a.67.67,0,0,1,.77.54Z" transform="translate(-1.49 0)"/></g><path class="cls-3" d="M11.26,21.17a.28.28,0,0,1-.29-.28v-3a.29.29,0,0,1,.29-.28h.91a1.15,1.15,0,1,1,0,2.3h-.62v.95A.28.28,0,0,1,11.26,21.17Zm.29-1.8h.62a.58.58,0,1,0,0-1.16h-.62Z" transform="translate(-1.49 0)"/><path class="cls-3" d="M9.92,21.24a.28.28,0,0,1-.27-.19l-.77-2.14-.82,2.14a.28.28,0,0,1-.37.17.29.29,0,0,1-.17-.37L8.61,18a.3.3,0,0,1,.28-.19.28.28,0,0,1,.26.19l1,2.87a.29.29,0,0,1-.17.37Z" transform="translate(-1.49 0)"/><path class="cls-3" d="M9.47,20.37H8.28a.29.29,0,1,1,0-.58H9.47a.29.29,0,0,1,0,.58Z" transform="translate(-1.49 0)"/><path class="cls-3" d="M15.85,21.17H14.29a.28.28,0,0,1-.29-.28V18a.29.29,0,0,1,.29-.29h1.56a.29.29,0,0,1,0,.58H14.58V20.6h1.27a.29.29,0,0,1,.28.29A.28.28,0,0,1,15.85,21.17Z" transform="translate(-1.49 0)"/><path class="cls-3" d="M15.62,19.64H14.38a.29.29,0,1,1,0-.57h1.24a.29.29,0,0,1,0,.57Z" transform="translate(-1.49 0)"/></g></g></g></svg>