<?xml version="1.0" encoding="utf-8"?>
<!-- Generator: Adobe Illustrator 24.3.0, SVG Export Plug-In . SVG Version: 6.00 Build 0)  -->
<svg version="1.1" id="图层_1" xmlns="http://www.w3.org/2000/svg" xmlns:xlink="http://www.w3.org/1999/xlink" x="0px" y="0px"
	 viewBox="0 0 21 24" style="enable-background:new 0 0 21 24;" xml:space="preserve">
<style type="text/css">
	.st0{fill-rule:evenodd;clip-rule:evenodd;fill:#61A4FF;}
	.st1{fill-rule:evenodd;clip-rule:evenodd;fill:#A2C9FF;}
	.st2{fill:#FFFFFF;}
</style>
<g id="_页面-1">
	<path id="_矩形备份-92" class="st0" d="M1.2,0h13.5v4.9c0,0.8,0.6,1.4,1.4,1.4H21v16.5c0,0.7-0.5,1.2-1.2,1.2h0H1.2
		C0.5,24,0,23.5,0,22.8l0,0V1.2C0,0.5,0.5,0,1.2,0C1.2,0,1.2,0,1.2,0z"/>
	<path id="_矩形备份-93" class="st1" d="M14.7,0L21,6.3h-4.9c-0.8,0-1.4-0.6-1.4-1.4c0,0,0,0,0,0V0z"/>
	<g id="_编组-247">
		<path class="st2" d="M14.5,17.7c-0.2,0-0.4-0.2-0.4-0.4v-2.7L13,17.5c-0.1,0.1-0.2,0.2-0.4,0.2c-0.2,0-0.3-0.1-0.4-0.2l-1.1-2.8
			l0,2.7c0,0.2-0.2,0.4-0.4,0.4c0,0,0,0,0,0c-0.2,0-0.4-0.2-0.4-0.4l0-3.7c0-0.2,0.2-0.4,0.4-0.4h0.4c0.2,0,0.3,0.1,0.4,0.2l1,2.8
			l1.1-2.8c0.1-0.1,0.2-0.2,0.4-0.2h0.4c0.2,0,0.4,0.2,0.4,0.4v3.7C14.9,17.5,14.7,17.7,14.5,17.7z"/>
		<path class="st2" d="M9.4,13.9H6.9c-0.2,0-0.4-0.2-0.4-0.4s0.2-0.4,0.4-0.4h2.6c0.2,0,0.4,0.2,0.4,0.4S9.7,13.9,9.4,13.9z"/>
		<path class="st2" d="M8.2,17.6c-0.2,0-0.4-0.2-0.4-0.4v-3.7c0-0.2,0.2-0.4,0.4-0.4s0.4,0.2,0.4,0.4v3.7
			C8.5,17.4,8.4,17.6,8.2,17.6z"/>
		<path class="st2" d="M2.8,17.5c-0.2,0-0.4-0.2-0.4-0.4v-3.7c0-0.2,0.2-0.4,0.4-0.4s0.4,0.2,0.4,0.4v3.7C3.2,17.4,3,17.5,2.8,17.5z
			"/>
		<path class="st2" d="M5.4,15.6H3c-0.2,0-0.4-0.2-0.4-0.4s0.2-0.4,0.4-0.4h2.5c0.2,0,0.4,0.2,0.4,0.4S5.7,15.6,5.4,15.6z"/>
		<path class="st2" d="M5.4,17.5c-0.2,0-0.4-0.2-0.4-0.4v-3.7c0-0.2,0.2-0.4,0.4-0.4s0.4,0.2,0.4,0.4v3.7
			C5.8,17.4,5.7,17.5,5.4,17.5z"/>
		<path class="st2" d="M18.3,17.7h-2c-0.2,0-0.4-0.2-0.4-0.4v-3.8c0-0.2,0.2-0.4,0.4-0.4s0.4,0.2,0.4,0.4v3.4h1.7
			c0.2,0,0.4,0.2,0.4,0.4S18.6,17.7,18.3,17.7z"/>
	</g>
</g>
</svg>
