<?xml version="1.0" encoding="utf-8"?>
<!-- Generator: Adobe Illustrator 24.3.0, SVG Export Plug-In . SVG Version: 6.00 Build 0)  -->
<svg version="1.1" id="图层_1" xmlns="http://www.w3.org/2000/svg" xmlns:xlink="http://www.w3.org/1999/xlink" x="0px" y="0px"
	 viewBox="0 0 21 24" style="enable-background:new 0 0 21 24;" xml:space="preserve">
<style type="text/css">
	.st0{fill-rule:evenodd;clip-rule:evenodd;fill:#F57C43;}
	.st1{fill-rule:evenodd;clip-rule:evenodd;fill:#FEB694;}
	.st2{fill:#FFFFFF;}
</style>
<g id="_页面-1">
	<g id="_编组-236">
		<path id="_矩形备份-23" class="st0" d="M1.2,0h13.5v4.9c0,0.8,0.6,1.4,1.4,1.4H21v16.5c0,0.7-0.5,1.2-1.2,1.2h0H1.2
			C0.5,24,0,23.5,0,22.8l0,0V1.2C0,0.5,0.5,0,1.2,0C1.2,0,1.2,0,1.2,0z"/>
		<path id="_矩形备份-24" class="st1" d="M14.7,0L21,6.3h-4.9c-0.8,0-1.4-0.6-1.4-1.4c0,0,0,0,0,0V0z"/>
	</g>
	<g id="_编组-2">
		<path class="st2" d="M7.8,19.8c-0.4,0-0.6-0.3-0.6-0.6v-7.8c0-0.5,0.4-1,1-1h2.8c0.4,0,0.6,0.3,0.6,0.6s-0.3,0.6-0.6,0.6H8.4v7.5
			C8.4,19.5,8.2,19.8,7.8,19.8z"/>
		<path class="st2" d="M10.9,16.2H8.3c-0.4,0-0.6-0.3-0.6-0.6s0.3-0.6,0.6-0.6h2.6c0.4,0,0.9-0.2,1.2-0.5c0.3-0.3,0.5-0.7,0.5-1.2
			c0-0.9-0.7-1.7-1.7-1.7c-0.4,0-0.6-0.3-0.6-0.6c0-0.4,0.3-0.6,0.6-0.6h0c1.6,0,2.9,1.3,2.9,2.9c0,0.8-0.3,1.5-0.9,2.1
			S11.7,16.2,10.9,16.2z"/>
	</g>
</g>
</svg>
