<svg id="图层_1" data-name="图层 1" xmlns="http://www.w3.org/2000/svg" viewBox="0 0 21 24"><defs><style>.cls-1{fill:#fb5ba5;}.cls-1,.cls-2{fill-rule:evenodd;}.cls-2{fill:#ffa6b2;}.cls-3{fill:#fff;}</style></defs><g id="_页面-1" data-name=" 页面-1"><path id="_矩形备份-54" data-name=" 矩形备份-54" class="cls-1" d="M2.69,0H16.21V4.93A1.37,1.37,0,0,0,17.57,6.3h4.92V22.8a1.2,1.2,0,0,1-1.2,1.2H2.69a1.2,1.2,0,0,1-1.2-1.2V1.2A1.2,1.2,0,0,1,2.69,0Z" transform="translate(-1.49 0)"/><path id="_矩形备份-55" data-name=" 矩形备份-55" class="cls-2" d="M16.19,0l6.3,6.3H17.57a1.37,1.37,0,0,1-1.38-1.37V0Z" transform="translate(-1.49 0)"/><g id="_编组-243" data-name=" 编组-243"><g id="_Shape-Copy" data-name=" Shape-Copy"><path id="_path-1" data-name=" path-1" class="cls-3" d="M14.62,9.35V14.4h0a1.26,1.26,0,0,1-1.13,1.25.94.94,0,0,1-1.13-.86,1.18,1.18,0,0,1,.87-1.09,1,1,0,0,0,.69-.78V10.24l-3.47.65v4a1.65,1.65,0,0,1-1.2,1.45A1,1,0,0,1,8,15.38a1.33,1.33,0,0,1,.9-1.16c.18-.07.84-.28.84-.6V10a.66.66,0,0,1,.55-.65l3.54-.61a.66.66,0,0,1,.76.54A.45.45,0,0,1,14.62,9.35Z" transform="translate(-1.49 0)"/></g><g id="_编组" data-name=" 编组"><path class="cls-3" d="M16.42,21.25a.28.28,0,0,1-.28-.19l-.8-2.2-.84,2.2a.28.28,0,0,1-.38.17.29.29,0,0,1-.17-.38l1.12-3a.34.34,0,0,1,.28-.19.29.29,0,0,1,.28.2l1.06,3a.3.3,0,0,1-.17.38Z" transform="translate(-1.49 0)"/><path class="cls-3" d="M8.9,21.18h0A.28.28,0,0,1,8.62,21l-.89-2.22v2.11a.31.31,0,0,1-.3.3.29.29,0,0,1-.3-.3l0-2.82a.29.29,0,0,1,.29-.29h.33A.29.29,0,0,1,8,18L8.9,20.1,9.8,18a.28.28,0,0,1,.27-.18h.32a.3.3,0,0,1,.3.3v2.81a.3.3,0,1,1-.6,0V18.79L9.17,21A.3.3,0,0,1,8.9,21.18Z" transform="translate(-1.49 0)"/><path class="cls-3" d="M12.82,21.18a.29.29,0,0,1-.29-.3v-.43H11.41a.3.3,0,0,1-.26-.15.31.31,0,0,1,0-.31l1.41-2.22a.29.29,0,0,1,.34-.13.3.3,0,0,1,.21.28v1.94h.22a.3.3,0,0,1,0,.59h-.22v.43A.29.29,0,0,1,12.82,21.18ZM12,19.86h.58V19Z" transform="translate(-1.49 0)"/><path class="cls-3" d="M16,20.35H14.72a.3.3,0,0,1,0-.59H16a.3.3,0,1,1,0,.59Z" transform="translate(-1.49 0)"/></g></g></g></svg>