<svg id="图层_1" data-name="图层 1" xmlns="http://www.w3.org/2000/svg" viewBox="0 0 21 24"><defs><style>.cls-1{fill:#fb5ba5;}.cls-1,.cls-2{fill-rule:evenodd;}.cls-2{fill:#ffa6b2;}.cls-3{fill:#fff;}</style></defs><g id="_页面-1" data-name=" 页面-1"><path id="_矩形备份-59" data-name=" 矩形备份-59" class="cls-1" d="M2.69,0H16.21V4.93A1.37,1.37,0,0,0,17.57,6.3h4.92V22.8a1.2,1.2,0,0,1-1.2,1.2H2.69a1.2,1.2,0,0,1-1.2-1.2V1.2A1.2,1.2,0,0,1,2.69,0Z" transform="translate(-1.49 0)"/><path id="_矩形备份-60" data-name=" 矩形备份-60" class="cls-2" d="M16.19,0l6.3,6.3H17.57a1.37,1.37,0,0,1-1.38-1.37V0Z" transform="translate(-1.49 0)"/><g id="_编组-241" data-name=" 编组-241"><g id="_Shape-Copy备份-2" data-name=" Shape-Copy备份-2"><path id="_path-1" data-name=" path-1" class="cls-3" d="M14.69,9.35V14.4h0a1.26,1.26,0,0,1-1.12,1.25.94.94,0,0,1-1.13-.86,1.18,1.18,0,0,1,.87-1.09,1,1,0,0,0,.69-.78V10.24l-3.47.65v4a1.65,1.65,0,0,1-1.21,1.45,1,1,0,0,1-1.23-.95A1.34,1.34,0,0,1,9,14.22c.19-.07.84-.28.84-.6V10a.66.66,0,0,1,.55-.65l3.54-.61a.67.67,0,0,1,.77.54Z" transform="translate(-1.49 0)"/></g><path class="cls-3" d="M16.21,21.2a1.31,1.31,0,0,1-.92-.31,1.49,1.49,0,0,1-.46-1,3.83,3.83,0,0,1,0-1.13,1.32,1.32,0,0,1,.56-.91,1.43,1.43,0,0,1,1.41-.06,1.14,1.14,0,0,1,.55,1,.3.3,0,0,1-.29.3.29.29,0,0,1-.31-.29.56.56,0,0,0-.23-.51.84.84,0,0,0-.82.05.8.8,0,0,0-.29.51,3.74,3.74,0,0,0,0,.95,1,1,0,0,0,.26.62,1,1,0,0,0,.84.14c.12,0,.27-.14.27-.51a.3.3,0,0,1,.6,0,1,1,0,0,1-.73,1.09A2.42,2.42,0,0,1,16.21,21.2Z" transform="translate(-1.49 0)"/><path class="cls-3" d="M12,21.24a.22.22,0,0,1-.11,0,.29.29,0,0,1-.17-.38l1.13-3a.27.27,0,0,1,.28-.2.3.3,0,0,1,.27.2l1.07,3a.29.29,0,0,1-.18.38.31.31,0,0,1-.38-.18l-.79-2.21-.84,2.21A.3.3,0,0,1,12,21.24Z" transform="translate(-1.49 0)"/><path class="cls-3" d="M11.14,21.11H9.55a.31.31,0,0,1-.3-.3V17.92a.3.3,0,0,1,.3-.29.29.29,0,0,1,.3.29v2.59h1.29a.3.3,0,0,1,.3.3A.31.31,0,0,1,11.14,21.11Z" transform="translate(-1.49 0)"/><path class="cls-3" d="M6.89,21.13a.29.29,0,0,1-.29-.29V17.92a.29.29,0,0,1,.29-.29H8.56a.3.3,0,1,1,0,.59H7.19v2.62A.29.29,0,0,1,6.89,21.13Z" transform="translate(-1.49 0)"/><path class="cls-3" d="M8.25,19.72H7.05a.3.3,0,0,1,0-.6h1.2a.3.3,0,0,1,0,.6Z" transform="translate(-1.49 0)"/><path class="cls-3" d="M13.69,20.34H12.46a.3.3,0,1,1,0-.59h1.23a.3.3,0,1,1,0,.59Z" transform="translate(-1.49 0)"/></g></g></svg>