<svg id="图层_1" data-name="图层 1" xmlns="http://www.w3.org/2000/svg" viewBox="0 0 21 24"><defs><style>.cls-1{fill:#67cc67;}.cls-1,.cls-2,.cls-3{fill-rule:evenodd;}.cls-2{fill:#96ed96;}.cls-3{fill:#fff;}</style></defs><g id="_页面-1" data-name=" 页面-1"><path id="_矩形备份-94" data-name=" 矩形备份-94" class="cls-1" d="M2.69,0H16.21V4.93A1.37,1.37,0,0,0,17.57,6.3h4.92V22.8a1.2,1.2,0,0,1-1.2,1.2H2.69a1.2,1.2,0,0,1-1.2-1.2V1.2A1.2,1.2,0,0,1,2.69,0Z" transform="translate(-1.49 0)"/><path id="_矩形备份-95" data-name=" 矩形备份-95" class="cls-2" d="M16.19,0l6.3,6.3H17.57a1.37,1.37,0,0,1-1.38-1.37V0Z" transform="translate(-1.49 0)"/><g id="_编组-248" data-name=" 编组-248"><path id="_路径-6" data-name=" 路径-6" class="cls-3" d="M9.31,14.31h1.6V10.83a.18.18,0,0,1,.18-.18h1.74a.18.18,0,0,1,.18.18v3.48h1.66a.19.19,0,0,1,.18.19.21.21,0,0,1,0,.13l-2.68,2.69a.19.19,0,0,1-.26,0h0L9.18,14.63a.17.17,0,0,1,0-.26A.16.16,0,0,1,9.31,14.31Z" transform="translate(-1.49 0)"/><path id="_矩形" data-name=" 矩形" class="cls-3" d="M8.68,18.18h6.61a.74.74,0,0,1,.74.74h0a.74.74,0,0,1-.74.73H8.68a.74.74,0,0,1-.74-.73h0A.74.74,0,0,1,8.68,18.18Z" transform="translate(-1.49 0)"/></g></g></svg>