<svg id="图层_1" data-name="图层 1" xmlns="http://www.w3.org/2000/svg" viewBox="0 0 24 24"><defs><style>.cls-1{fill:none;}.cls-2{fill:#fb5ba5;}.cls-2,.cls-3{fill-rule:evenodd;}.cls-3{fill:#ffa6b2;}.cls-4{fill:#fff;}</style></defs><g id="_页面-1" data-name=" 页面-1"><rect id="_矩形" data-name=" 矩形" class="cls-1" width="24" height="24"/><path id="_矩形备份-23" data-name=" 矩形备份-23" class="cls-2" d="M2.69,0H16.21V4.93A1.37,1.37,0,0,0,17.57,6.3h4.92V22.8a1.2,1.2,0,0,1-1.2,1.2H2.69a1.2,1.2,0,0,1-1.2-1.2V1.2A1.2,1.2,0,0,1,2.69,0Z" transform="translate(0.08 0)"/><path id="_矩形备份-24" data-name=" 矩形备份-24" class="cls-3" d="M16.19,0l6.3,6.3H17.57a1.37,1.37,0,0,1-1.38-1.37V0Z" transform="translate(0.08 0)"/><g id="_Shape-Copy" data-name=" Shape-Copy"><path id="_path-1" data-name=" path-1" class="cls-4" d="M15.31,11v6.43h0A1.6,1.6,0,0,1,13.87,19a1.19,1.19,0,0,1-1.44-1.09,1.49,1.49,0,0,1,1.11-1.39,1.26,1.26,0,0,0,.88-1V12.08L10,12.91V18a2.13,2.13,0,0,1-1.54,1.85,1.29,1.29,0,0,1-1.57-1.21A1.7,1.7,0,0,1,8,17.16c.23-.09,1.07-.36,1.07-.76V11.73a.85.85,0,0,1,.7-.83l4.51-.77a.83.83,0,0,1,1,.69A.59.59,0,0,1,15.31,11Z" transform="translate(0.08 0)"/></g></g></svg>