<?xml version="1.0" encoding="utf-8"?>
<!-- Generator: Adobe Illustrator 24.3.0, SVG Export Plug-In . SVG Version: 6.00 Build 0)  -->
<svg version="1.1" id="图层_1" xmlns="http://www.w3.org/2000/svg" xmlns:xlink="http://www.w3.org/1999/xlink" x="0px" y="0px"
	 viewBox="0 0 21 24" style="enable-background:new 0 0 21 24;" xml:space="preserve">
<style type="text/css">
	.st0{fill-rule:evenodd;clip-rule:evenodd;fill:#FF5C59;}
	.st1{fill-rule:evenodd;clip-rule:evenodd;fill:#FFA6B2;}
	.st2{fill:#FFFFFF;}
</style>
<g id="_页面-1">
	<path id="_矩形备份-25" class="st0" d="M1.2,0h13.5v4.9c0,0.8,0.6,1.4,1.4,1.4H21v16.5c0,0.7-0.5,1.2-1.2,1.2h0H1.2
		C0.5,24,0,23.5,0,22.8l0,0V1.2C0,0.5,0.5,0,1.2,0C1.2,0,1.2,0,1.2,0z"/>
	<path id="_矩形备份-47" class="st1" d="M14.7,0L21,6.3h-4.9c-0.8,0-1.4-0.6-1.4-1.4c0,0,0,0,0,0V0z"/>
	<g id="_编组">
		<path class="st2" d="M12.9,18H8.2c-0.2,0-0.3-0.1-0.4-0.2c-0.1-0.1-0.1-0.3,0-0.5l2.4-4.1c0.2-0.3,0.6-0.3,0.8,0l2.4,4.1
			c0.1,0.1,0.1,0.3,0,0.5C13.2,17.9,13.1,18,12.9,18z M8.9,17h3.2l-1.6-2.8L8.9,17z"/>
		<path class="st2" d="M10.5,13.5c-0.1,0-0.2,0-0.3-0.1c-0.5-0.5-0.9-1.1-1-1.7c0-0.2,0-0.2,0-0.3c0-0.4,0.2-0.7,0.5-0.9
			c0.3-0.2,0.7-0.3,1-0.3c0.4,0,0.7,0.2,0.9,0.5c0.2,0.3,0.3,0.7,0.3,1c-0.2,0.7-0.5,1.3-1,1.8C10.8,13.4,10.7,13.5,10.5,13.5
			C10.5,13.4,10.5,13.5,10.5,13.5z M10.6,10.9c-0.1,0-0.2,0-0.3,0.1c-0.1,0.1-0.2,0.2-0.2,0.3c0,0,0,0.1,0,0.1
			c0.1,0.3,0.3,0.7,0.5,1c0.2-0.3,0.4-0.6,0.5-1c0-0.1,0-0.2-0.1-0.3C10.9,11,10.7,10.9,10.6,10.9C10.6,10.9,10.6,10.9,10.6,10.9z"
			/>
		<path class="st2" d="M14.6,19.8c-0.2,0-0.5-0.1-0.7-0.2c0,0-0.1,0-0.1-0.1c-0.5-0.5-0.9-1.1-1-1.8c0-0.2,0-0.3,0.1-0.4
			c0.1-0.1,0.1-0.2,0.3-0.2c0.7-0.2,1.4-0.2,2.1,0c0,0,0.1,0,0.1,0c0.6,0.4,0.9,1.2,0.5,1.9C15.5,19.6,15.1,19.8,14.6,19.8z
			 M14.4,18.9c0.2,0.1,0.5,0,0.7-0.2c0.1-0.2,0-0.5-0.2-0.7c-0.4-0.1-0.7-0.1-1.1-0.1C13.9,18.3,14.1,18.6,14.4,18.9z"/>
		<path class="st2" d="M6.4,19.9c-0.2,0-0.3,0-0.5-0.1c-0.3-0.1-0.6-0.4-0.8-0.7c-0.3-0.7,0-1.5,0.7-1.8c0.7-0.2,1.4-0.2,2.1,0
			c0.1,0,0.2,0.1,0.3,0.2c0.1,0.1,0.1,0.2,0.1,0.4c-0.2,0.7-0.5,1.3-1,1.8c-0.1,0.1-0.2,0.1-0.3,0.2C6.8,19.8,6.6,19.9,6.4,19.9z
			 M6.9,17.9c-0.3,0-0.5,0-0.8,0.1C6,18.1,5.9,18.4,6,18.7c0.1,0.1,0.2,0.2,0.3,0.3c0.1,0,0.3,0,0.4,0c0.3-0.3,0.6-0.6,0.7-1
			C7.2,17.9,7.1,17.9,6.9,17.9z"/>
	</g>
</g>
</svg>
