<svg id="图层_1" data-name="图层 1" xmlns="http://www.w3.org/2000/svg" viewBox="0 0 21 24"><defs><style>.cls-1{fill:#f57c43;}.cls-1,.cls-2,.cls-3{fill-rule:evenodd;}.cls-2{fill:#feb694;}.cls-3{fill:#fff;}</style></defs><g id="_页面-1" data-name=" 页面-1"><path id="_矩形备份-78" data-name=" 矩形备份-78" class="cls-1" d="M2.69,0H16.21V4.93A1.37,1.37,0,0,0,17.57,6.3h4.92V22.8a1.2,1.2,0,0,1-1.2,1.2H2.69a1.2,1.2,0,0,1-1.2-1.2V1.2A1.2,1.2,0,0,1,2.69,0Z" transform="translate(-1.49 0)"/><path id="_矩形备份-79" data-name=" 矩形备份-79" class="cls-2" d="M16.19,0l6.3,6.3H17.57a1.37,1.37,0,0,1-1.38-1.37V0Z" transform="translate(-1.49 0)"/><path id="_多边形备份" data-name=" 多边形备份" class="cls-3" d="M15.55,14.94,9.94,18.17A.52.52,0,0,1,9.22,18a.53.53,0,0,1-.08-.27V11.24a.54.54,0,0,1,.54-.53.48.48,0,0,1,.26.07L15.55,14a.54.54,0,0,1,.19.73A.52.52,0,0,1,15.55,14.94Z" transform="translate(-1.49 0)"/></g></svg>