<?xml version="1.0" encoding="utf-8"?>
<!-- Generator: Adobe Illustrator 24.3.0, SVG Export Plug-In . SVG Version: 6.00 Build 0)  -->
<svg version="1.1" id="图层_1" xmlns="http://www.w3.org/2000/svg" xmlns:xlink="http://www.w3.org/1999/xlink" x="0px" y="0px"
	 viewBox="0 0 21 24" style="enable-background:new 0 0 21 24;" xml:space="preserve">
<style type="text/css">
	.st0{fill-rule:evenodd;clip-rule:evenodd;fill:#B4C4D0;}
	.st1{fill-rule:evenodd;clip-rule:evenodd;fill:#D2DDE6;}
	.st2{fill:#FFFFFF;}
</style>
<path id="_矩形备份-86" class="st0" d="M1.2,0h13.5v4.9c0,0.8,0.6,1.4,1.4,1.4H21v16.5c0,0.7-0.5,1.2-1.2,1.2h0H1.2
	C0.5,24,0,23.5,0,22.8l0,0V1.2C0,0.5,0.5,0,1.2,0C1.2,0,1.2,0,1.2,0z"/>
<path id="_矩形备份-87" class="st1" d="M14.7,0L21,6.3h-4.9c-0.8,0-1.4-0.6-1.4-1.4c0,0,0,0,0,0V0z"/>
<g id="_Combined-Shape">
	<path id="_path-1-2" class="st2" d="M10.5,10.7c2.4,0,4.4,2,4.4,4.4s-2,4.4-4.4,4.4c-2.4,0-4.4-2-4.4-4.4
		C6.1,12.6,8,10.7,10.5,10.7C10.5,10.7,10.5,10.7,10.5,10.7z M10.5,16.9c-0.2,0-0.4,0.2-0.4,0.4c0,0.2,0.2,0.4,0.4,0.4
		c0.2,0,0.4-0.2,0.4-0.4c0,0,0,0,0,0C10.9,17.1,10.7,16.9,10.5,16.9C10.5,16.9,10.5,16.9,10.5,16.9z M10.8,12.7
		C10,12.5,9.3,13,9.1,13.8c0,0.1,0,0.2,0,0.3c0,0.2,0.2,0.3,0.4,0.2c0.1,0,0.2-0.1,0.2-0.2c0-0.4,0.3-0.8,0.8-0.8c0.1,0,0.1,0,0.2,0
		c0.3,0.1,0.6,0.3,0.6,0.6c0.1,0.4-0.1,0.7-0.5,0.9c-0.4,0.2-0.6,0.6-0.6,1l0,0V16c0,0.2,0.1,0.3,0.3,0.3c0,0,0,0,0,0
		c0.2,0,0.3-0.1,0.3-0.3l0,0l0,0v-0.2c0-0.2,0.1-0.3,0.3-0.4c0.7-0.3,1-1.1,0.7-1.8C11.7,13.1,11.3,12.8,10.8,12.7L10.8,12.7z"/>
</g>
</svg>
