<svg id="图层_1" data-name="图层 1" xmlns="http://www.w3.org/2000/svg" viewBox="0 0 21 24"><defs><style>.cls-1{fill:#67cc67;}.cls-1,.cls-2,.cls-4{fill-rule:evenodd;}.cls-2,.cls-3{fill:#fff;}.cls-4{fill:#96ed96;}</style></defs><g id="_页面-1" data-name=" 页面-1"><path id="_矩形" data-name=" 矩形" class="cls-1" d="M2.69,0H16.21V4.93A1.37,1.37,0,0,0,17.57,6.3h4.92V22.8a1.2,1.2,0,0,1-1.2,1.2H2.69a1.2,1.2,0,0,1-1.2-1.2V1.2A1.2,1.2,0,0,1,2.69,0Z" transform="translate(-1.49 0)"/><g id="_编组" data-name=" 编组"><path id="_路径-8" data-name=" 路径-8" class="cls-2" d="M6.28,18.57l2.53-3.31a.42.42,0,0,1,.59-.08l.08.08,1.39,1.86h0l2.66-3.74a.41.41,0,0,1,.58-.09.32.32,0,0,1,.1.1l3.59,5.2a.41.41,0,0,1-.11.57.4.4,0,0,1-.23.08H6.61a.41.41,0,0,1-.41-.42A.44.44,0,0,1,6.28,18.57Z" transform="translate(-1.49 0)"/><circle id="_椭圆形" data-name=" 椭圆形" class="cls-3" cx="6.63" cy="12" r="1.05"/></g><path id="_矩形-2" data-name=" 矩形" class="cls-4" d="M16.19,0l6.3,6.3H17.57a1.37,1.37,0,0,1-1.38-1.37V0Z" transform="translate(-1.49 0)"/></g></svg>