<?xml version="1.0" encoding="utf-8"?>
<!-- Generator: Adobe Illustrator 24.3.0, SVG Export Plug-In . SVG Version: 6.00 Build 0)  -->
<svg version="1.1" id="图层_1" xmlns="http://www.w3.org/2000/svg" xmlns:xlink="http://www.w3.org/1999/xlink" x="0px" y="0px"
	 viewBox="0 0 21 24" style="enable-background:new 0 0 21 24;" xml:space="preserve">
<style type="text/css">
	.st0{fill-rule:evenodd;clip-rule:evenodd;fill:#B4C4D0;}
	.st1{fill-rule:evenodd;clip-rule:evenodd;fill:#D2DDE6;}
	.st2{fill:#FFFFFF;}
</style>
<g id="_页面-1">
	<path id="_矩形备份-74" class="st0" d="M1.2,0h13.5v4.9c0,0.8,0.6,1.4,1.4,1.4H21v16.5c0,0.7-0.5,1.2-1.2,1.2h0H1.2
		C0.5,24,0,23.5,0,22.8l0,0V1.2C0,0.5,0.5,0,1.2,0C1.2,0,1.2,0,1.2,0z"/>
	<path id="_矩形备份-75" class="st1" d="M14.7,0L21,6.3h-4.9c-0.8,0-1.4-0.6-1.4-1.4c0,0,0,0,0,0V0z"/>
	<g id="_编组-245">
		<path class="st2" d="M7.5,17.4H5.5c-0.2,0-0.4-0.2-0.4-0.4v-3.6c0-0.2,0.2-0.4,0.4-0.4s0.4,0.2,0.4,0.4v3.2h1.6
			c0.2,0,0.4,0.2,0.4,0.4S7.7,17.4,7.5,17.4z"/>
		<path class="st2" d="M14.4,17.6c-0.4,0-0.8-0.1-1.2-0.4c-0.4-0.4-0.6-0.8-0.6-1.3c-0.1-0.5,0-1,0.1-1.4c0.1-0.5,0.3-0.9,0.7-1.1
			c0.5-0.3,1.2-0.4,1.8-0.1c0.5,0.3,0.7,0.8,0.7,1.4c0,0.2-0.2,0.3-0.4,0.3c-0.2,0-0.3-0.2-0.3-0.4c0-0.3-0.1-0.5-0.3-0.7
			c-0.3-0.2-0.7-0.1-1,0.1c-0.2,0.1-0.4,0.4-0.4,0.6c-0.1,0.4-0.1,0.8,0,1.3c0,0.3,0.2,0.6,0.4,0.8c0.3,0.2,0.7,0.3,1,0.2
			c0.2,0,0.3-0.1,0.4-0.2c0-0.2,0-0.4,0-0.6h-0.7c-0.2,0-0.4-0.2-0.4-0.4s0.2-0.4,0.4-0.4h1c0.2,0,0.3,0.1,0.4,0.3
			c0.1,0.4,0.1,0.8,0,1.2c0,0.1,0,0.1-0.1,0.2c-0.2,0.3-0.5,0.5-0.8,0.6C14.8,17.5,14.6,17.6,14.4,17.6z"/>
		<path class="st2" d="M9.9,17.4c-1,0-1.8-1-1.8-2.2s0.8-2.2,1.8-2.2s1.8,1,1.8,2.2S10.9,17.4,9.9,17.4z M9.9,13.8
			c-0.6,0-1.1,0.6-1.1,1.4c0,0.8,0.5,1.4,1.1,1.4S11,16,11,15.2C11,14.4,10.5,13.8,9.9,13.8z"/>
	</g>
</g>
</svg>
