<?xml version="1.0" encoding="utf-8"?>
<!-- Generator: Adobe Illustrator 24.3.0, SVG Export Plug-In . SVG Version: 6.00 Build 0)  -->
<svg version="1.1" id="图层_1" xmlns="http://www.w3.org/2000/svg" xmlns:xlink="http://www.w3.org/1999/xlink" x="0px" y="0px"
	 viewBox="0 0 21 24" style="enable-background:new 0 0 21 24;" xml:space="preserve">
<style type="text/css">
	.st0{fill-rule:evenodd;clip-rule:evenodd;fill:#61A4FF;}
	.st1{fill-rule:evenodd;clip-rule:evenodd;fill:#A2C9FF;}
	.st2{fill:#FFFFFF;}
</style>
<g id="_页面-1">
	<path id="_矩形备份-88" class="st0" d="M1.2,0h13.5v4.9c0,0.8,0.6,1.4,1.4,1.4H21v16.5c0,0.7-0.5,1.2-1.2,1.2h0H1.2
		C0.5,24,0,23.5,0,22.8l0,0V1.2C0,0.5,0.5,0,1.2,0C1.2,0,1.2,0,1.2,0z"/>
	<path id="_矩形备份-89" class="st1" d="M14.7,0L21,6.3h-4.9c-0.8,0-1.4-0.6-1.4-1.4c0,0,0,0,0,0V0z"/>
	<path class="st2" d="M5.9,17.7c-0.4,0-0.8-0.1-1.2-0.4c-0.4-0.4-0.6-0.8-0.6-1.3c-0.1-0.5,0-1,0.1-1.5c0.1-0.4,0.3-0.9,0.7-1.1
		c0.6-0.3,1.2-0.4,1.8-0.1c0.5,0.3,0.7,0.8,0.7,1.4C7.4,14.9,7.2,15,7,15c-0.2,0-0.3-0.2-0.3-0.4c0-0.3-0.1-0.5-0.3-0.7
		c-0.3-0.2-0.7-0.1-1,0.1c-0.2,0.1-0.4,0.4-0.4,0.7c-0.1,0.4-0.1,0.9-0.1,1.3c0,0.3,0.1,0.6,0.4,0.8c0.3,0.2,0.7,0.3,1,0.2
		c0.2-0.1,0.4-0.3,0.4-0.6c0-0.2,0.1-0.4,0.3-0.4c0.2,0,0.4,0.1,0.4,0.3c0,0.6-0.3,1.2-0.9,1.4C6.3,17.7,6.1,17.7,5.9,17.7z"/>
	<path class="st2" d="M8.6,17.5c-0.2,0-0.4-0.2-0.4-0.4v-3.5c0-0.2,0.2-0.4,0.4-0.4S9,13.5,9,13.6v3.5C9,17.3,8.8,17.5,8.6,17.5z"/>
	<path class="st2" d="M11.2,15.7H8.8c-0.2,0-0.4-0.2-0.4-0.4S8.6,15,8.8,15h2.4c0.2,0,0.4,0.2,0.4,0.4S11.3,15.7,11.2,15.7z"/>
	<path class="st2" d="M11.2,17.5c-0.2,0-0.4-0.2-0.4-0.4v-3.5c0-0.2,0.2-0.4,0.4-0.4c0.2,0,0.4,0.2,0.4,0.4v3.5
		C11.5,17.3,11.3,17.5,11.2,17.5z"/>
	<path class="st2" d="M13,17.5L13,17.5c-0.2,0-0.4-0.2-0.4-0.4l0-3.5c0-0.2,0.2-0.4,0.4-0.4h0.4c0.1,0,0.3,0.1,0.3,0.2l1,2.6l1-2.6
		c0.1-0.1,0.2-0.2,0.3-0.2h0.4c0.2,0,0.4,0.2,0.4,0.4v3.5c0,0.2-0.2,0.4-0.4,0.4s-0.4-0.2-0.4-0.4v-2.6l-1.1,2.7
		c-0.1,0.1-0.2,0.2-0.3,0.2c0,0,0,0,0,0c-0.1,0-0.3-0.1-0.3-0.2l-1-2.7l0,2.6C13.4,17.3,13.2,17.5,13,17.5z"/>
</g>
</svg>
