<svg id="图层_1" data-name="图层 1" xmlns="http://www.w3.org/2000/svg" viewBox="0 0 21 24"><defs><style>.cls-1{fill:#67cc67;}.cls-1,.cls-2{fill-rule:evenodd;}.cls-2{fill:#96ed96;}.cls-3{fill:#fff;}</style></defs><g id="_页面-1" data-name=" 页面-1"><g id="_编组-4" data-name=" 编组-4"><path id="_矩形备份-136" data-name=" 矩形备份-136" class="cls-1" d="M2.69,0H16.21V4.93A1.37,1.37,0,0,0,17.57,6.3h4.92V22.8a1.2,1.2,0,0,1-1.2,1.2H2.69a1.2,1.2,0,0,1-1.2-1.2V1.2A1.2,1.2,0,0,1,2.69,0Z" transform="translate(-1.49 0)"/><path id="_矩形备份-137" data-name=" 矩形备份-137" class="cls-2" d="M16.19,0l6.3,6.3H17.57a1.37,1.37,0,0,1-1.38-1.37V0Z" transform="translate(-1.49 0)"/><g id="_public_ic_calendar" data-name="_public/ic_calendar"><g id="_calendar" data-name=" calendar"><g id="_Combined-Shape" data-name=" Combined-Shape"><path id="_path-1" data-name=" path-1" class="cls-3" d="M13.69,9.45a.38.38,0,0,1,.37.39v.28h.73A1.23,1.23,0,0,1,16,11.35v5.73a1.23,1.23,0,0,1-1.23,1.23H9.06a1.23,1.23,0,0,1-1.23-1.23V11.35a1.23,1.23,0,0,1,1.23-1.23h.73V9.84a.38.38,0,1,1,.75,0v.28h2.77V9.84A.38.38,0,0,1,13.69,9.45Zm1.72,3.23h-7v4.4a.61.61,0,0,0,.61.61h5.73a.61.61,0,0,0,.62-.61Zm-2.1-1.95H10.54v.13a.38.38,0,1,1-.75,0v-.13H9.06a.61.61,0,0,0-.61.62v.71h7v-.71a.62.62,0,0,0-.62-.62h-.73v.13a.38.38,0,1,1-.75,0Z" transform="translate(-1.49 0)"/><path class="cls-3" d="M14.79,18.38H9.06a1.3,1.3,0,0,1-1.3-1.3V11.35A1.31,1.31,0,0,1,9.06,10h.65v-.2a.45.45,0,1,1,.9,0V10h2.63v-.2a.45.45,0,1,1,.9,0V10h.65a1.31,1.31,0,0,1,1.31,1.31v5.73A1.31,1.31,0,0,1,14.79,18.38ZM9.06,10.19a1.16,1.16,0,0,0-1.15,1.16v5.73a1.16,1.16,0,0,0,1.15,1.15h5.73A1.16,1.16,0,0,0,16,17.08V11.35a1.16,1.16,0,0,0-1.16-1.16H14V9.84a.3.3,0,0,0-.3-.31.3.3,0,0,0-.3.31v.35H10.46V9.84a.3.3,0,0,0-.3-.31.3.3,0,0,0-.3.31v.35Zm5.73,7.58H9.06a.69.69,0,0,1-.69-.69V12.6h7.11v4.48A.69.69,0,0,1,14.79,17.77Zm-6.27-5v4.33a.54.54,0,0,0,.54.54h5.73a.54.54,0,0,0,.54-.54V12.75Zm7-.61H8.37v-.79a.69.69,0,0,1,.69-.69h.8v.2a.3.3,0,0,0,.3.31.3.3,0,0,0,.3-.31v-.2h2.93v.2a.3.3,0,0,0,.3.31.3.3,0,0,0,.3-.31v-.2h.8a.69.69,0,0,1,.69.69Zm-7-.15h6.81v-.64a.54.54,0,0,0-.54-.54h-.65v0a.45.45,0,1,1-.9,0v0H10.61v0a.45.45,0,1,1-.9,0v0H9.06a.54.54,0,0,0-.54.54Z" transform="translate(-1.49 0)"/></g></g></g></g></g></svg>