<svg id="图层_1" data-name="图层 1" xmlns="http://www.w3.org/2000/svg" viewBox="0 0 21 24"><defs><style>.cls-1{fill:#fb5ba5;}.cls-1,.cls-2{fill-rule:evenodd;}.cls-2{fill:#ffa6b2;}.cls-3{fill:#fff;}</style></defs><g id="_页面-1" data-name=" 页面-1"><g id="_音屏-amr" data-name=" 音屏-amr"><path id="_矩形备份-98" data-name=" 矩形备份-98" class="cls-1" d="M2.69,0H16.21V4.93A1.37,1.37,0,0,0,17.57,6.3h4.92V22.8a1.2,1.2,0,0,1-1.2,1.2H2.69a1.2,1.2,0,0,1-1.2-1.2V1.2A1.2,1.2,0,0,1,2.69,0Z" transform="translate(-1.49 0)"/><path id="_矩形备份-99" data-name=" 矩形备份-99" class="cls-2" d="M16.19,0l6.3,6.3H17.57a1.37,1.37,0,0,1-1.38-1.37V0Z" transform="translate(-1.49 0)"/><g id="_编组-237" data-name=" 编组-237"><g id="_Shape-Copy备份-6" data-name=" Shape-Copy备份-6"><path id="_path-1" data-name=" path-1" class="cls-3" d="M14.69,9.35V14.4h0a1.26,1.26,0,0,1-1.12,1.25.94.94,0,0,1-1.13-.86,1.18,1.18,0,0,1,.87-1.09,1,1,0,0,0,.69-.78V10.24l-3.47.65v4a1.65,1.65,0,0,1-1.21,1.45,1,1,0,0,1-1.23-.95A1.34,1.34,0,0,1,9,14.22c.19-.07.84-.28.84-.6V10a.66.66,0,0,1,.55-.65l3.54-.61a.67.67,0,0,1,.77.54Z" transform="translate(-1.49 0)"/></g><path class="cls-3" d="M14.73,21.26a.31.31,0,0,1-.3-.3v-3a.3.3,0,0,1,.3-.29h.94a1.11,1.11,0,0,1,1.14,1.16c0,.62-.43,1-1.14,1H15V21A.31.31,0,0,1,14.73,21.26Zm.3-2.07h.64c.54,0,.54-.26.54-.4a.52.52,0,0,0-.54-.57H15Z" transform="translate(-1.49 0)"/><path class="cls-3" d="M12.12,21.18h0a.32.32,0,0,1-.28-.19L11,18.76v2.12a.28.28,0,0,1-.3.3.31.31,0,0,1-.3-.3l0-2.83a.29.29,0,0,1,.3-.29H11a.28.28,0,0,1,.27.19l.87,2.14L13,17.94a.31.31,0,0,1,.28-.18h.32a.3.3,0,0,1,.3.3v2.82a.31.31,0,0,1-.3.3.3.3,0,0,1-.3-.3v-2.1L12.39,21A.29.29,0,0,1,12.12,21.18Z" transform="translate(-1.49 0)"/><path class="cls-3" d="M7.27,21.25l-.11,0A.3.3,0,0,1,7,20.85l1.13-3a.28.28,0,0,1,.28-.19.29.29,0,0,1,.27.2l1.07,3a.29.29,0,0,1-.18.38.29.29,0,0,1-.38-.18l-.79-2.2-.84,2.21A.3.3,0,0,1,7.27,21.25Z" transform="translate(-1.49 0)"/><path class="cls-3" d="M9,20.35H7.77a.29.29,0,0,1-.3-.3.3.3,0,0,1,.3-.3H9a.3.3,0,0,1,.29.3A.29.29,0,0,1,9,20.35Z" transform="translate(-1.49 0)"/><path class="cls-3" d="M16.58,21.26a.27.27,0,0,1-.19-.08l-1.52-1.33a.3.3,0,0,1,.39-.45l1.52,1.34a.31.31,0,0,1,0,.42A.34.34,0,0,1,16.58,21.26Z" transform="translate(-1.49 0)"/></g></g></g></svg>