<svg id="图层_1" data-name="图层 1" xmlns="http://www.w3.org/2000/svg" viewBox="0 0 21 24"><defs><style>.cls-1{fill:#fb5ba5;}.cls-1,.cls-2{fill-rule:evenodd;}.cls-2{fill:#ffa6b2;}.cls-3{fill:#fff;}</style></defs><g id="_页面-1" data-name=" 页面-1"><path id="_矩形备份-69" data-name=" 矩形备份-69" class="cls-1" d="M2.69,0H16.21V4.93A1.37,1.37,0,0,0,17.57,6.3h4.92V22.8a1.2,1.2,0,0,1-1.2,1.2H2.69a1.2,1.2,0,0,1-1.2-1.2V1.2A1.2,1.2,0,0,1,2.69,0Z" transform="translate(-1.49 0)"/><path id="_矩形备份-70" data-name=" 矩形备份-70" class="cls-2" d="M16.19,0l6.3,6.3H17.57a1.37,1.37,0,0,1-1.38-1.37V0Z" transform="translate(-1.49 0)"/><g id="_编组-239" data-name=" 编组-239"><g id="_Shape-Copy备份-4" data-name=" Shape-Copy备份-4"><path id="_path-1" data-name=" path-1" class="cls-3" d="M14.77,9.35V14.4h0a1.26,1.26,0,0,1-1.13,1.25.94.94,0,0,1-1.13-.86,1.18,1.18,0,0,1,.87-1.09,1,1,0,0,0,.69-.78V10.24l-3.47.65v4a1.65,1.65,0,0,1-1.2,1.45,1,1,0,0,1-1.23-.95,1.33,1.33,0,0,1,.9-1.16c.18-.07.84-.28.84-.6V10a.66.66,0,0,1,.55-.65L14,8.7a.66.66,0,0,1,.76.54A.45.45,0,0,1,14.77,9.35Z" transform="translate(-1.49 0)"/></g><path class="cls-3" d="M13.37,21.3a.32.32,0,0,1-.29-.21l-.82-2.28-.87,2.29a.29.29,0,0,1-.39.17.3.3,0,0,1-.18-.39L12,17.82a.31.31,0,0,1,.58,0l1.1,3.06a.31.31,0,0,1-.18.4Z" transform="translate(-1.49 0)"/><path class="cls-3" d="M12.89,20.36H11.62a.3.3,0,0,1-.31-.3.31.31,0,0,1,.31-.31h1.27a.31.31,0,0,1,.31.31A.3.3,0,0,1,12.89,20.36Z" transform="translate(-1.49 0)"/><path class="cls-3" d="M7.74,21.24h0A.32.32,0,0,1,7.44,21l-.69-2.91A.3.3,0,1,1,7.34,18l.45,1.86.63-1.89a.31.31,0,0,1,.29-.21h0a.31.31,0,0,1,.29.21l.62,1.89L10.07,18a.32.32,0,0,1,.38-.23.31.31,0,0,1,.22.37L10,21a.33.33,0,0,1-.29.24.33.33,0,0,1-.3-.22L8.7,19,8,21A.31.31,0,0,1,7.74,21.24Z" transform="translate(-1.49 0)"/><path class="cls-3" d="M15.28,21.24h0A.3.3,0,0,1,15,21l-1.12-2.91a.31.31,0,1,1,.58-.22l.82,2.16.83-2.16a.31.31,0,0,1,.4-.18.31.31,0,0,1,.17.4L15.57,21A.31.31,0,0,1,15.28,21.24Z" transform="translate(-1.49 0)"/></g></g></svg>