<svg id="图层_1" data-name="图层 1" xmlns="http://www.w3.org/2000/svg" viewBox="0 0 21 24"><defs><style>.cls-1{fill:#61a4ff;}.cls-1,.cls-2,.cls-3{fill-rule:evenodd;}.cls-2{fill:#a2c9ff;}.cls-3{fill:#fff;}</style></defs><g id="_页面-1" data-name=" 页面-1"><path id="_矩形备份-82" data-name=" 矩形备份-82" class="cls-1" d="M2.69,0H16.21V4.93A1.37,1.37,0,0,0,17.57,6.3h4.92V22.8a1.2,1.2,0,0,1-1.2,1.2H2.69a1.2,1.2,0,0,1-1.2-1.2V1.2A1.2,1.2,0,0,1,2.69,0Z" transform="translate(-1.49 0)"/><path id="_矩形备份-83" data-name=" 矩形备份-83" class="cls-2" d="M16.19,0l6.3,6.3H17.57a1.37,1.37,0,0,1-1.38-1.37V0Z" transform="translate(-1.49 0)"/><g id="_编组-109" data-name=" 编组-109"><path id="_Rectangle-16-Copy-2" data-name=" Rectangle-16-Copy-2" class="cls-3" d="M6.94,4.8H8.81A.22.22,0,0,1,9,5v.75A.23.23,0,0,1,8.81,6H6.94Z" transform="translate(-1.49 0)"/><path id="_Rectangle-16-Copy-4" data-name=" Rectangle-16-Copy-4" class="cls-3" d="M6.94,7.2H8.81A.22.22,0,0,1,9,7.42v1H6.94Z" transform="translate(-1.49 0)"/><path id="_Rectangle-16-Copy" data-name=" Rectangle-16-Copy" class="cls-3" d="M7.84,3.6H6a.22.22,0,0,0-.22.22v.75A.22.22,0,0,0,6,4.8H7.84Z" transform="translate(-1.49 0)"/><path id="_Rectangle-16-Copy-6" data-name=" Rectangle-16-Copy-6" class="cls-3" d="M8.81,2.4H6.94V3.6H8.81A.23.23,0,0,0,9,3.37V2.62A.22.22,0,0,0,8.81,2.4Z" transform="translate(-1.49 0)"/><path id="_Rectangle-16-Copy-6备份-3" data-name=" Rectangle-16-Copy-6备份-3" class="cls-3" d="M9,0H6.94V1.2H8.81A.23.23,0,0,0,9,1V0Z" transform="translate(-1.49 0)"/><path id="_Rectangle-16-Copy-6备份-2" data-name=" Rectangle-16-Copy-6备份-2" class="cls-3" d="M7.84,1.2H6a.22.22,0,0,0-.22.22v.75A.22.22,0,0,0,6,2.4H7.84Z" transform="translate(-1.49 0)"/><path id="_Rectangle-16-Copy-3" data-name=" Rectangle-16-Copy-3" class="cls-3" d="M7.84,6H6a.22.22,0,0,0-.22.22V7A.22.22,0,0,0,6,7.2H7.84Z" transform="translate(-1.49 0)"/><path id="_Combined-Shape" data-name=" Combined-Shape" class="cls-3" d="M9,8.4v2a.44.44,0,0,1-.44.44H6.18a.44.44,0,0,1-.44-.44v-2ZM8.21,9H6.56v.82a.23.23,0,0,0,.23.23H8a.22.22,0,0,0,.22-.23h0Z" transform="translate(-1.49 0)"/></g></g></svg>