<svg id="图层_1" data-name="图层 1" xmlns="http://www.w3.org/2000/svg" viewBox="0 0 21 24"><defs><style>.cls-1{fill:#67cc67;}.cls-1,.cls-2,.cls-3{fill-rule:evenodd;}.cls-2{fill:#96ed96;}.cls-3{fill:#fff;}</style></defs><g id="_页面-1" data-name=" 页面-1"><path id="_矩形备份-96" data-name=" 矩形备份-96" class="cls-1" d="M2.69,0H16.21V4.93A1.37,1.37,0,0,0,17.57,6.3h4.92V22.8a1.2,1.2,0,0,1-1.2,1.2H2.69a1.2,1.2,0,0,1-1.2-1.2V1.2A1.2,1.2,0,0,1,2.69,0Z" transform="translate(-1.49 0)"/><path id="_矩形备份-97" data-name=" 矩形备份-97" class="cls-2" d="M16.19,0l6.3,6.3H17.57a1.37,1.37,0,0,1-1.38-1.37V0Z" transform="translate(-1.49 0)"/><g id="_Group" data-name=" Group"><g id="_合并形状" data-name=" 合并形状"><path id="_path-1" data-name=" path-1" class="cls-3" d="M13.71,15.47a2.16,2.16,0,0,1,2.16,2.16v1.51a.65.65,0,0,1-.65.64H8.74a.65.65,0,0,1-.65-.64V17.63a2.16,2.16,0,0,1,2.16-2.16ZM12,10.5a2.05,2.05,0,1,1-2.05,2.05A2.05,2.05,0,0,1,12,10.5Z" transform="translate(-1.49 0)"/></g></g></g></svg>