<?xml version="1.0" encoding="utf-8"?>
<!-- Generator: Adobe Illustrator 24.3.0, SVG Export Plug-In . SVG Version: 6.00 Build 0)  -->
<svg version="1.1" id="图层_1" xmlns="http://www.w3.org/2000/svg" xmlns:xlink="http://www.w3.org/1999/xlink" x="0px" y="0px"
	 viewBox="0 0 21 24" style="enable-background:new 0 0 21 24;" xml:space="preserve">
<style type="text/css">
	.st0{fill:#FFFFFF;}
	.st1{fill-rule:evenodd;clip-rule:evenodd;fill:#61A4FF;}
	.st2{fill-rule:evenodd;clip-rule:evenodd;fill:#A2C9FF;}
</style>
<g id="_页面-1">
	<rect id="_矩形备份-6" x="20.2" y="5.7" class="st0" width="0.3" height="0.4"/>
	<path id="_矩形备份-23" class="st1" d="M1.2,0h13.5v4.9c0,0.8,0.6,1.4,1.4,1.4H21v16.5c0,0.7-0.5,1.2-1.2,1.2h0H1.2
		C0.5,24,0,23.5,0,22.8l0,0V1.2C0,0.5,0.5,0,1.2,0C1.2,0,1.2,0,1.2,0z"/>
	<path id="_矩形备份-24" class="st2" d="M14.7,0L21,6.3h-4.9c-0.8,0-1.4-0.6-1.4-1.4c0,0,0,0,0,0V0z"/>
	<path class="st0" d="M12.6,19.2c-0.3,0-0.5-0.2-0.6-0.4L10.5,14L9,18.8c-0.1,0.3-0.3,0.4-0.6,0.4c-0.3,0-0.5-0.2-0.6-0.5l-1.6-6.6
		c-0.1-0.3,0.1-0.6,0.4-0.7c0.3-0.1,0.6,0.1,0.7,0.4l1.1,4.6l1.5-4.6c0.1-0.2,0.3-0.4,0.6-0.4c0,0,0,0,0,0c0.3,0,0.5,0.2,0.6,0.4
		l1.5,4.6l1.1-4.5c0.1-0.3,0.4-0.5,0.7-0.4c0.3,0.1,0.5,0.4,0.4,0.7l-1.6,6.6C13.2,19,12.9,19.2,12.6,19.2
		C12.7,19.2,12.6,19.2,12.6,19.2z"/>
</g>
</svg>
