<svg id="图层_1" data-name="图层 1" xmlns="http://www.w3.org/2000/svg" xmlns:xlink="http://www.w3.org/1999/xlink" viewBox="0 0 23.93 20.19"><defs><style>.cls-1{fill:#fff;}.cls-1,.cls-2,.cls-7{fill-rule:evenodd;}.cls-2{fill:#ffa800;}.cls-3{mask:url(#mask);}.cls-4{opacity:0.5;isolation:isolate;filter:url(#_filter-3);}.cls-5{fill:#d28e1b;}.cls-6{fill:#fff3e2;}.cls-7{fill:#ffc750;}</style><mask id="mask" x="0" y="0" width="23.93" height="20.11" maskUnits="userSpaceOnUse"><g transform="translate(-0.03 -1.91)"><g id="_mask-2" data-name=" mask-2"><path id="_path-1" data-name=" path-1" class="cls-1" d="M1.23,1.91H8.7a1.18,1.18,0,0,1,1,.52l2.08,3.09V7.89H0V3.1A1.19,1.19,0,0,1,1.23,1.91Z"/></g></g></mask><filter id="_filter-3" x="-18.8%" y="-25.4%" width="137.5%" height="150.8%" name="_filter-3"><feGaussianBlur stdDeviation="20" in="SourceGraphic"/></filter></defs><g id="_页面-1" data-name=" 页面-1"><g id="_编组-151备份" data-name=" 编组-151备份"><g id="_矩形备份-9" data-name=" 矩形备份-9"><g id="_蒙版" data-name=" 蒙版"><path id="_path-1-2" data-name=" path-1" class="cls-2" d="M1.23,1.91H8.7a1.18,1.18,0,0,1,1,.52l2.08,3.09V7.89H0V3.1A1.19,1.19,0,0,1,1.23,1.91Z" transform="translate(-0.03 -1.91)"/></g><g class="cls-3"><g class="cls-4"><rect class="cls-5" y="2.47" width="23.93" height="17.64"/></g></g></g><rect id="_矩形" data-name=" 矩形" class="cls-6" x="0.75" y="2.69" width="13.08" height="2.62" rx="0.3"/><path id="_形状结合" data-name=" 形状结合" class="cls-7" d="M0,5.87H3.7v0l4.24,0a1.46,1.46,0,0,0,.85-.27l1.36-.95A1.47,1.47,0,0,1,11,4.37H22.76A1.2,1.2,0,0,1,24,5.57V20.9a1.19,1.19,0,0,1-1.2,1.19H1.23A1.19,1.19,0,0,1,0,20.9Z" transform="translate(-0.03 -1.91)"/><path id="_形状结合-2" data-name=" 形状结合" class="cls-7" d="M0,1.91" transform="translate(-0.03 -1.91)"/></g></g></svg>