<?xml version="1.0" encoding="UTF-8"?>
<svg xmlns="http://www.w3.org/2000/svg" xmlns:xlink="http://www.w3.org/1999/xlink" width="24" height="24" viewBox="0 0 24 24" version="1.1">
    <title>ic_Earpiece Emergency</title>
    <defs>
        <path d="M13.5443725,2.18811098 C16.8500206,2.97088845 19.0120499,5.97690286 18.7125453,9.3117657 C18.6754938,9.7243188 18.3110173,10.028723 17.8984642,9.99167156 C17.4859111,9.9546201 17.1815069,9.59014359 17.2185583,9.17759048 C17.4513918,6.58508348 15.7780533,4.2585287 13.1990029,3.6478095 C10.337219,2.97126433 7.56962653,4.67974032 6.89184912,7.54183236 C6.66446864,8.50156381 6.71047655,9.67930698 7.02958924,10.8232323 C7.33736732,11.9344354 7.74026266,12.6689241 8.50366801,13.6486212 L8.78295466,13.9990113 L9.22612684,14.5448222 L9.4446938,14.8216904 C9.47723478,14.8640221 9.5083145,14.9050966 9.53865621,14.9458875 C10.2305333,15.8760364 10.557322,16.7462243 10.6787993,18.1906352 C10.828294,19.8563165 11.8489297,20.4876781 13.4543018,20.4876781 C14.6213106,20.4876781 15.5752616,19.6530123 16.0352293,18.7347726 C16.2207447,18.3644257 16.6713603,18.2145901 17.0417073,18.4001056 C17.4120542,18.585621 17.5618898,19.0362366 17.3763743,19.4065835 C16.689287,20.7782253 15.3069868,21.9876781 13.4543018,21.9876781 C11.1613167,21.9876781 9.41669469,20.9084612 9.18444074,18.3205385 C9.08592832,17.1493021 8.8593203,16.54588 8.33510393,15.8411316 L8.1625789,15.6168123 L7.53390367,14.8398231 C6.52269673,13.5841247 5.981075,12.6571728 5.58438481,11.2249564 C5.19993984,9.84683974 5.14392761,8.4129989 5.43223665,7.19609919 C6.30084717,3.5281645 9.87633591,1.32096213 13.5443725,2.18811098 Z M12.6275873,6.32364094 C13.9718083,6.63329863 14.8622731,7.8377126 14.7386547,9.17673281 C14.7005764,9.58919241 14.3353433,9.89268842 13.9228837,9.85461014 C13.5447957,9.81970504 13.2582675,9.50989901 13.2424683,9.14080816 L13.2450064,9.03883914 C13.2989814,8.45418786 12.9099283,7.92796724 12.2911285,7.7854191 C11.5981013,7.62603693 10.9426591,8.019651 10.7827628,8.67649841 C10.7288709,8.89778239 10.7406035,9.18995735 10.8236847,9.47968609 C10.8975257,9.73903379 10.9894535,9.91482015 11.1669964,10.1461482 L11.3481024,10.3693152 C11.6135328,10.6873083 11.5709222,11.1602664 11.2529291,11.4256967 C10.934936,11.6911271 10.4619779,11.6485165 10.1965475,11.3305234 L10.1288658,11.2492206 C9.75062036,10.7922918 9.5361085,10.435149 9.38140876,9.89180016 C9.2295105,9.3620951 9.20720817,8.80670532 9.32534269,8.32163703 C9.68135003,6.85917374 11.1420247,5.98199167 12.6275873,6.32364094 Z" id="_path-1"/>
    </defs>
    <g id="_ic_Earpiece-Emergency" stroke="none" stroke-width="1" fill="none" fill-rule="evenodd">
        <mask id="_mask-2" fill="white">
            <use xlink:href="#_path-1"/>
        </mask>
        <use id="_形状结合" fill="#000000" fill-rule="nonzero" xlink:href="#_path-1"/>
    </g>
</svg>