<?xml version="1.0" encoding="UTF-8"?>
<svg xmlns="http://www.w3.org/2000/svg" width="24" height="24" version="1.1" viewBox="0 0 24 24">
  <path fill="#000" fill-rule="evenodd" stroke="none" stroke-width="1" d="M8.25,4 C9.60517342,4 10.8816461,4.33695783 12.0002055,4.93166091 C9.47162272,6.27569609 7.75,8.93679478 7.75,12 C7.75,15.0632052 9.47162272,17.7243039 12.0000437,19.0684716 C10.8816461,19.6630422 9.60517342,20 8.25,20 C3.831722,20 0.25,16.418278 0.25,12 C0.25,7.581722 3.831722,4 8.25,4 Z M15.75,4 C20.168278,4 23.75,7.581722 23.75,12 C23.75,16.418278 20.168278,20 15.75,20 C14.3949272,20 13.1185435,19.6630922 12.0000437,19.0684716 C12.8533076,18.6147714 13.6145546,18.0112786 14.2488053,17.2930021 C11.9406956,16.6397234 10.2495982,14.5173502 10.2495982,12 C10.2495982,9.48264982 11.9406956,7.36027661 14.2488231,6.70694778 C13.6145546,5.98872143 12.8533076,5.38522859 12.0002055,4.93166091 C13.1185435,4.33690778 14.3949272,4 15.75,4 Z M15.75,6.49959818 C15.2295621,6.49959818 14.7260062,6.57187835 14.2488053,6.70694778 C15.4942435,8.11743244 16.25,9.97045803 16.25,12 C16.25,14.029542 15.4942435,15.8825676 14.2488053,17.2930021 C14.7260062,17.4281217 15.2295621,17.5004018 15.75,17.5004018 C18.787788,17.5004018 21.2504018,15.037788 21.2504018,12 C21.2504018,8.96221196 18.787788,6.49959818 15.75,6.49959818 Z"/>
</svg>