<?xml version="1.0" encoding="UTF-8"?>
<svg xmlns="http://www.w3.org/2000/svg" xmlns:xlink="http://www.w3.org/1999/xlink" width="24" height="24" viewBox="0 0 24 24" version="1.1">
    <title>ic_brightness_reduce</title>
    <defs>
        <path d="M12.0625,17.875 C12.3731602,17.875 12.625,18.1268398 12.625,18.4375 L12.625,19.1875 C12.625,19.4981602 12.3731602,19.75 12.0625,19.75 C11.7518398,19.75 11.5,19.4981602 11.5,19.1875 L11.5,18.4375 C11.5,18.1268398 11.7518398,17.875 12.0625,17.875 Z M17.1006358,16.1176407 L17.7635484,16.7805533 C17.9832183,17.0002232 17.9832183,17.3563785 17.7635484,17.5760484 C17.5438785,17.7957183 17.1877232,17.7957183 16.9680533,17.5760484 L16.3051407,16.9131358 C16.0854708,16.6934659 16.0854708,16.3373106 16.3051407,16.1176407 C16.5248106,15.8979708 16.8809659,15.8979708 17.1006358,16.1176407 Z M7.81985931,16.1176407 C8.03952923,16.3373106 8.03952923,16.6934659 7.81985931,16.9131358 L7.15694671,17.5760484 C6.93727679,17.7957183 6.58112149,17.7957183 6.36145158,17.5760484 C6.14178166,17.3563785 6.14178166,17.0002232 6.36145158,16.7805533 L7.02436418,16.1176407 C7.2440341,15.8979708 7.6001894,15.8979708 7.81985931,16.1176407 Z M12.0625,6.625 C14.9619949,6.625 17.3125,8.97550506 17.3125,11.875 C17.3125,14.7744949 14.9619949,17.125 12.0625,17.125 C9.16300506,17.125 6.8125,14.7744949 6.8125,11.875 C6.8125,8.97550506 9.16300506,6.625 12.0625,6.625 Z M12.0625,7.75 C9.78432541,7.75 7.9375,9.59682541 7.9375,11.875 C7.9375,14.1531746 9.78432541,16 12.0625,16 C14.3406746,16 16.1875,14.1531746 16.1875,11.875 C16.1875,9.59682541 14.3406746,7.75 12.0625,7.75 Z M5.5,11.3125 C5.81066017,11.3125 6.0625,11.5643398 6.0625,11.875 C6.0625,12.1856602 5.81066017,12.4375 5.5,12.4375 L4.5625,12.4375 C4.25183983,12.4375 4,12.1856602 4,11.875 C4,11.5643398 4.25183983,11.3125 4.5625,11.3125 L5.5,11.3125 Z M19.5625,11.3125 C19.8731602,11.3125 20.125,11.5643398 20.125,11.875 C20.125,12.1856602 19.8731602,12.4375 19.5625,12.4375 L18.625,12.4375 C18.3143398,12.4375 18.0625,12.1856602 18.0625,11.875 C18.0625,11.5643398 18.3143398,11.3125 18.625,11.3125 L19.5625,11.3125 Z M7.15694671,6.17395158 L7.81985931,6.83686418 C8.03952923,7.0565341 8.03952923,7.4126894 7.81985931,7.63235931 C7.6001894,7.85202923 7.2440341,7.85202923 7.02436418,7.63235931 L6.36145158,6.96944671 C6.14178166,6.74977679 6.14178166,6.39362149 6.36145158,6.17395158 C6.58112149,5.95428166 6.93727679,5.95428166 7.15694671,6.17395158 Z M17.7635484,6.17395158 C17.9832183,6.39362149 17.9832183,6.74977679 17.7635484,6.96944671 L17.1006358,7.63235931 C16.8809659,7.85202923 16.5248106,7.85202923 16.3051407,7.63235931 C16.0854708,7.4126894 16.0854708,7.0565341 16.3051407,6.83686418 L16.9680533,6.17395158 C17.1877232,5.95428166 17.5438785,5.95428166 17.7635484,6.17395158 Z M12.0625,4 C12.3731602,4 12.625,4.25183983 12.625,4.5625 L12.625,5.3125 C12.625,5.62316017 12.3731602,5.875 12.0625,5.875 C11.7518398,5.875 11.5,5.62316017 11.5,5.3125 L11.5,4.5625 C11.5,4.25183983 11.7518398,4 12.0625,4 Z" id="_path-1"/>
    </defs>
    <g id="_ic_brightness_reduce" stroke="none" stroke-width="1" fill="none" fill-rule="evenodd">
        <rect id="_矩形" x="0" y="0" width="24" height="24"/>
        <mask id="_mask-2" fill="white">
            <use xlink:href="#_path-1"/>
        </mask>
        <use id="_合并形状" fill="#000000" fill-rule="nonzero" xlink:href="#_path-1"/>
    </g>
</svg>