<?xml version="1.0" encoding="UTF-8"?>
<svg xmlns="http://www.w3.org/2000/svg" xmlns:xlink="http://www.w3.org/1999/xlink" width="24" height="24" viewBox="0 0 24 24" version="1.1">
    <title>ic_Edit Birthday</title>
    <defs>
        <path d="M13,8 L13,9 L19,9 C20.6568542,9 22,10.3431458 22,12 L22,19 C22,20.6568542 20.6568542,22 19,22 L5,22 C3.34314575,22 2,20.6568542 2,19 L2.00017158,15.5219893 C1.99984382,15.5218299 1.99951609,15.5216704 1.99918837,15.5215108 L1.99862223,13.7573903 L1.99962223,13.758 L2,12 C2,10.3431458 3.34314575,9 5,9 L11,9 L11,8 L13,8 Z M15.9565217,14.1407407 C15.8409218,14.1407407 15.7374801,14.1919064 15.6683588,14.2724544 C14.8057935,15.326414 13.482927,16 12,16 C10.6110726,16 9.36255713,15.409102 8.50046728,14.4691143 L8.34227735,14.2880328 C8.27398373,14.1977535 8.16550481,14.1407407 8.04347826,14.1407407 C7.92787833,14.1407407 7.82443661,14.1919064 7.75531535,14.2724544 C6.89275002,15.326414 5.56988353,16 4.08695652,16 C3.88806892,16 3.69206044,15.9878837 3.49965342,15.9643612 L3.5,19 C3.5,19.7796961 4.09488808,20.4204487 4.85553999,20.4931334 L5,20.5 L19,20.5 C19.7796961,20.5 20.4204487,19.9051119 20.4931334,19.14446 L20.5,19 L20.5000428,15.9643983 C20.3077332,15.9878965 20.1118264,16 19.9130435,16 C18.5241161,16 17.2756006,15.409102 16.4135108,14.4691143 L16.2553208,14.2880328 C16.1870272,14.1977535 16.0785483,14.1407407 15.9565217,14.1407407 Z M19,10.5 L5,10.5 C4.22030388,10.5 3.57955132,11.0948881 3.50686658,11.85554 L3.5,12 L3.49940332,14.4656648 C3.68987284,14.5003747 3.88625897,14.5185185 4.08695652,14.5185185 C5.31698557,14.5185185 6.38507002,13.8370037 6.92168028,12.8371868 L7.0061309,12.6676657 C7.18133739,12.2743859 7.57980742,12 8.04347826,12 C8.46078201,12 8.82527311,12.2222526 9.02111242,12.5528988 L9.08082562,12.6676657 C9.58371028,13.7591764 10.701636,14.5185185 12,14.5185185 C13.2300291,14.5185185 14.2981135,13.8370037 14.8347238,12.8371868 L14.9191744,12.6676657 C15.0943809,12.2743859 15.4928509,12 15.9565217,12 C16.3738255,12 16.7383166,12.2222526 16.9341559,12.5528988 L16.9938691,12.6676657 C17.4967538,13.7591764 18.6146795,14.5185185 19.9130435,14.5185185 C20.1139738,14.5185185 20.3105826,14.5003326 20.5012593,14.465544 L20.5,12 C20.5,11.1715729 19.8284271,10.5 19,10.5 Z M12,2 C12.3586957,2.47244094 13.5,4.32283465 13.5,5.18897638 C13.5,6.17322835 12.8152174,7 12,7 C11.1521739,7 10.5,6.17322835 10.5,5.18897638 C10.5,4.24409449 11.673913,2.39370079 12,2 Z" id="_path-1"/>
    </defs>
    <g id="_ic_Edit-Birthday" stroke="none" stroke-width="1" fill="none" fill-rule="evenodd">
        <mask id="_mask-2" fill="white">
            <use xlink:href="#_path-1"/>
        </mask>
        <use id="_形状结合" fill="#000000" fill-rule="nonzero" xlink:href="#_path-1"/>
    </g>
</svg>