<?xml version="1.0" encoding="UTF-8"?>
<svg xmlns="http://www.w3.org/2000/svg" xmlns:xlink="http://www.w3.org/1999/xlink" width="24" height="24" version="1.1" viewBox="0 0 24 24">
  <defs>
    <path id="_uxs-a" d="M12,0.890443665 C17.1054507,0.890443665 21.25,4.95664638 21.25,9.97979602 C21.25,11.9360332 20.6574499,13.8475128 19.5576286,15.7794054 C18.7085731,17.270815 17.6472682,18.6540478 16.1287501,20.3694494 C15.5553145,21.0172338 14.7969026,21.7513802 13.8518942,22.5749831 L13.8518942,22.5749831 L13.576813,22.812735 C12.7041229,23.5609204 11.420977,23.5841619 10.509368,22.8615879 L10.509368,22.8615879 L10.4382537,22.8023123 L10.1073598,22.5137335 C9.23794876,21.7512674 8.60414027,21.1600155 8.19479534,20.7269698 L8.19479534,20.7269698 L8.10085655,20.6260697 L7.86894106,20.3672896 C4.54095381,16.6239724 2.75,13.449812 2.75,9.97979602 C2.75,4.99342455 6.70791088,0.971543045 11.7334486,0.891584596 L11.7334486,0.891584596 L11.8799375,0.890443665 Z M12,7.75 C10.7573593,7.75 9.75,8.75735931 9.75,10 C9.75,11.2426407 10.7573593,12.25 12,12.25 C13.2426407,12.25 14.25,11.2426407 14.25,10 C14.25,8.75735931 13.2426407,7.75 12,7.75 Z"/>
  </defs>
  <use fill="#000" fill-rule="nonzero" stroke="none" stroke-width="1" xlink:href="#_uxs-a"/>
</svg>