<?xml version="1.0" encoding="UTF-8"?>
<svg xmlns="http://www.w3.org/2000/svg" xmlns:xlink="http://www.w3.org/1999/xlink" width="24" height="24" viewBox="0 0 24 24" version="1.1">
    <title>ic_Organ Emergency</title>
    <defs>
        <path d="M16.1854158,2.24999989 C19.6353435,2.25027897 22.3929869,5.26918887 22.5081137,9.08706442 L22.5118554,9.33716625 C22.5417138,11.9423132 21.3932202,14.276307 17.7774644,17.4231436 L17.2164355,17.9014009 C16.7332224,18.3052548 16.2104515,18.7226562 15.6456051,19.1557223 C15.3168875,19.4077492 14.846101,19.3455791 14.594074,19.0168614 C14.3420471,18.6881438 14.4042172,18.2173573 14.7329349,17.9653303 C14.9487454,17.799869 15.1577144,17.637312 15.3600263,17.4775103 L15.9471757,17.0062227 C16.0417669,16.9290028 16.13474,16.8524346 16.2261181,16.7764993 L16.7554307,16.3283348 C20.0739486,13.4627034 21.0365906,11.5032354 21.0119047,9.34563756 C21.0124263,6.19347477 18.840016,3.75021466 16.1852157,3.74999989 C15.21671,3.74981989 14.2510564,4.03079161 13.4173041,4.53922405 C14.4134834,5.67980691 15.0118371,7.11212725 15.0825417,8.64975986 C15.0843034,8.68807248 15.0831584,8.72584567 15.0793015,8.76286594 L15.0797664,8.77072603 C15.154724,10.6833796 13.7568936,12.3157288 11.8542452,12.2745078 C9.28404533,12.2030566 8.18800531,9.24493972 9.45249374,6.69329561 C9.63641571,6.32215468 10.0863831,6.17038373 10.457524,6.3543057 C10.8286649,6.53822767 10.9804359,6.98819505 10.7965139,7.35933597 C9.96300644,9.0412924 10.59198,10.7388375 11.8913265,10.7749733 C12.8749919,10.7962771 13.6237307,9.92191995 13.580917,8.82946651 C13.5795101,8.79356738 13.5806505,8.75815888 13.5841768,8.72341537 L13.584125,8.7186612 C13.5127351,7.16612492 12.7452916,5.74722621 11.4930583,4.77710402 L11.4753534,4.76011018 C11.3283946,4.64986738 11.1603373,4.53608832 10.9655258,4.41334536 L10.9882166,4.42483134 C10.1531772,3.98520819 9.22988565,3.75 8.30822783,3.75 C5.37890202,3.74978369 2.9716867,6.2795156 2.97123871,9.30050863 C2.98061222,11.6005875 4.35435829,13.9090665 7.50198686,16.4930058 L8.04308668,16.9262587 C8.69369595,17.4348029 9.4122335,17.9543229 10.2017099,18.4867819 L10.8958471,18.9463899 L11.6251511,19.4126102 C11.8741604,19.5691495 12.129101,19.7268367 12.3900433,19.8857174 C12.743836,20.1011324 12.8560133,20.5625664 12.6405984,20.9163591 C12.4251834,21.2701518 11.9637494,21.3823291 11.6099567,21.1669141 L10.8136575,20.6741305 C4.32433542,16.5904915 1.4865858,13.0684098 1.47123871,9.30345601 C1.47180703,5.46717673 4.53343901,2.24972126 8.30828321,2.25 C9.40484226,2.25 10.4957892,2.51063546 11.4913075,2.99813735 C11.5454443,3.01620349 11.5986725,3.04080465 11.6496129,3.07223301 C11.8852096,3.21758778 12.0932588,3.3543901 12.2816197,3.49080678 L12.2636275,3.5016573 C13.4075776,2.69937785 14.7883083,2.24974022 16.1854158,2.24999989 Z" id="_path-1"/>
    </defs>
    <g id="_ic_Organ-Emergency" stroke="none" stroke-width="1" fill="none" fill-rule="evenodd">
        <mask id="_mask-2" fill="white">
            <use xlink:href="#_path-1"/>
        </mask>
        <use id="_形状结合" fill="#000000" fill-rule="nonzero" xlink:href="#_path-1"/>
    </g>
</svg>