<?xml version="1.0" encoding="UTF-8"?>
<svg xmlns="http://www.w3.org/2000/svg" xmlns:xlink="http://www.w3.org/1999/xlink" width="24" height="24" version="1.1" viewBox="0 0 24 24">
  <defs>
    <path id="_uxs-a" d="M12.6591066,1.75136624 L12.5903193,1.75442891 C7.23494928,2.0134844 3.01047935,6.40993103 3.01047935,11.7560664 L3.01047935,12.2367784 C3.01047935,17.7670491 7.52014865,22.2502194 13.0831077,22.2502194 C16.074454,22.2502194 18.8546225,20.944907 20.7558862,18.7244575 C21.3537288,18.0262485 20.828735,16.9549464 19.9071834,16.9925949 C19.7964477,16.9971188 19.6853679,16.9993873 19.5739858,16.9993873 C15.1791309,16.9993873 11.616397,13.4575882 11.616397,9.0885577 L11.616397,8.60784572 L11.6175072,8.47194753 C11.646894,6.62182446 12.3227846,4.87147525 13.511678,3.48309172 C14.1107611,2.78348556 13.5823848,1.71025849 12.6591066,1.75136624 Z"/>
  </defs>
  <use fill="#000" fill-rule="nonzero" stroke="none" stroke-width="1" transform="rotate(-11 12.01 12)" xlink:href="#_uxs-a"/>
</svg>