<?xml version="1.0" encoding="UTF-8"?>
<svg xmlns="http://www.w3.org/2000/svg" xmlns:xlink="http://www.w3.org/1999/xlink" width="24" height="24" viewBox="0 0 24 24" version="1.1">
    <title>ic_Blood Emergency</title>
    <defs>
        <path d="M13.576813,1.51481576 C14.6507653,2.41934741 15.5007016,3.21811302 16.1287501,3.9151063 C19.5470643,7.70867016 21.25,10.6473256 21.25,14.1219306 C21.25,19.0566867 17.1054507,23.0513356 12,23.0513356 L11.7334486,23.0502147 C6.70791088,22.9716633 2.75,19.0205558 2.75,14.1219306 C2.75,10.7129773 4.54095381,7.59467326 7.86894106,3.91722814 L8.10085655,3.66300183 L8.32434386,3.43157429 L8.59168343,3.16968423 L8.90326504,2.87688451 L9.25947845,2.55272795 L9.66071345,2.19676739 L10.1073598,1.80855566 L10.509368,1.46682255 C11.420977,0.756963893 12.7041229,0.779796366 13.576813,1.51481576 Z M11.4539143,2.61146012 L10.8755765,3.10750226 L10.2853201,3.62798572 L9.94841019,3.93406578 L9.52863979,4.33102317 L9.30626605,4.55375335 C9.27305484,4.58805898 9.24177307,4.62095212 9.21242661,4.65242612 L8.98797346,4.89852879 C5.88770541,8.32435171 4.25,11.1758286 4.25,14.1219306 C4.25,18.1340096 7.42012378,21.3789257 11.5004142,21.5689307 L11.8859001,21.5777547 L12,21.5777547 C16.2833634,21.5777547 19.75,18.2364765 19.75,14.1219306 C19.75,11.113009 18.197831,8.43452276 15.0055957,4.89185585 C14.4286634,4.25159008 13.6262559,3.49749179 12.6005016,2.63355472 C12.2735456,2.35817745 11.7903355,2.34957915 11.4539143,2.61146012 Z M12.9111111,9.97516935 C13.0215681,9.97516935 13.1111111,10.0647124 13.1111111,10.1751694 L13.111,12.8631694 L15.8,12.8640582 C15.9104569,12.8640582 16,12.9536013 16,13.0640582 L16,14.8862805 C16,14.9967374 15.9104569,15.0862805 15.8,15.0862805 L13.111,15.0861694 L13.1111111,17.7751694 C13.1111111,17.8856263 13.0215681,17.9751694 12.9111111,17.9751694 L11.0888889,17.9751694 C10.9784319,17.9751694 10.8888889,17.8856263 10.8888889,17.7751694 L10.888,15.0861694 L8.2,15.0862805 C8.08954305,15.0862805 8,14.9967374 8,14.8862805 L8,13.0640582 C8,12.9536013 8.08954305,12.8640582 8.2,12.8640582 L10.888,12.8631694 L10.8888889,10.1751694 C10.8888889,10.0647124 10.9784319,9.97516935 11.0888889,9.97516935 L12.9111111,9.97516935 Z" id="_path-1"/>
    </defs>
    <g id="_ic_Blood-Emergency" stroke="none" stroke-width="1" fill="none" fill-rule="evenodd">
        <mask id="_mask-2" fill="white">
            <use xlink:href="#_path-1"/>
        </mask>
        <use id="_形状结合" fill="#000000" fill-rule="nonzero" xlink:href="#_path-1"/>
    </g>
</svg>