<?xml version="1.0" encoding="UTF-8"?>
<svg xmlns="http://www.w3.org/2000/svg" xmlns:xlink="http://www.w3.org/1999/xlink" width="24" height="24" version="1.1" viewBox="0 0 24 24">
  <defs>
    <path id="_uxs-a" d="M9.28089919,10.5 L15.249047,10.5008976 C15.4940662,10.5155987 15.6872547,10.7043833 15.7155449,10.9397494 L15.7182032,11.0299461 L15.0846097,21.5898384 C15.0398787,22.3353551 14.4559373,22.9266859 13.7258171,22.9936746 L13.5873024,23 L10.9126976,23 C10.1658402,23 9.5405973,22.4525231 9.43000028,21.7277256 L9.41539031,21.5898384 L8.78179677,11.0299461 L8.78089919,11 C8.78089919,10.7545401 8.95777435,10.5503916 9.19102356,10.5080557 L9.28089919,10.5 Z M12.25,12.25 C11.4703039,12.25 10.8295513,12.8448881 10.7568666,13.60554 L10.75,13.75 L10.75,15.25 C10.75,16.0784271 11.4215729,16.75 12.25,16.75 C13.0296961,16.75 13.6704487,16.1551119 13.7431334,15.39446 L13.75,15.25 L13.75,13.75 C13.75,12.9215729 13.0784271,12.25 12.25,12.25 Z M12.25,13.75 C12.8022847,13.75 13.25,14.1977153 13.25,14.75 L13.25,15.25 C13.25,15.8022847 12.8022847,16.25 12.25,16.25 C11.6977153,16.25 11.25,15.8022847 11.25,15.25 L11.25,14.75 C11.25,14.1977153 11.6977153,13.75 12.25,13.75 Z M16.9540583,1 C17.107119,1 17.259278,1.02342677 17.4052503,1.0694666 C18.195312,1.31865304 18.6337781,2.16113019 18.3845917,2.95119197 L18.3845917,2.95119197 L16.649885,8.45119197 C16.4529803,9.07549126 15.8739669,9.5 15.2193516,9.5 L15.2193516,9.5 L9.20812551,9.5 C8.5485885,9.5 7.96642907,9.0691955 7.77363997,8.43846463 L7.77363997,8.43846463 L6.0925108,2.93846463 C6.04907559,2.79636153 6.02699634,2.6485931 6.02699634,2.5 C6.02699634,1.67157288 6.69856922,1 7.52699634,1 L7.52699634,1 Z"/>
  </defs>
  <use fill="#000" fill-rule="evenodd" stroke="none" stroke-width="1" transform="translate(-.25)" xlink:href="#_uxs-a"/>
</svg>