<?xml version="1.0" encoding="UTF-8"?>
<svg xmlns="http://www.w3.org/2000/svg" xmlns:xlink="http://www.w3.org/1999/xlink" width="24" height="24" version="1.1" viewBox="0 0 24 24">
  <defs>
    <path id="_uxs-a" d="M11.5,13.5 C12.7426407,13.5 13.75,14.5073593 13.75,15.75 C13.75,16.9926407 12.7426407,18 11.5,18 C10.2573593,18 9.25,16.9926407 9.25,15.75 C9.25,14.5073593 10.2573593,13.5 11.5,13.5 Z M11.5006868,9 C13.6153489,9 15.5906493,9.84916677 16.9758057,11.3106505 C17.3557222,11.7115019 17.3387512,12.3444394 16.9378998,12.724356 C16.5370484,13.1042725 15.9041109,13.0873015 15.5241943,12.6864501 C14.5167672,11.62351 13.0663814,11 11.5006868,11 C9.93437756,11 8.48347933,11.6240033 7.47603048,12.6876625 C7.09624495,13.0886381 6.46331303,13.105816 6.06233747,12.7260305 C5.66136192,12.3462449 5.644184,11.713313 6.02396952,11.3123375 C7.40917586,9.84984392 9.38518621,9 11.5006868,9 Z M11.5002692,4.5 C14.7685386,4.5 17.818619,5.90678629 19.9943022,8.33155689 C20.3631417,8.74262367 20.3289097,9.37486259 19.9178429,9.74370206 C19.5067762,10.1125415 18.8745372,10.0783095 18.5056978,9.66724276 C16.703513,7.6587313 14.1912454,6.5 11.5002692,6.5 C8.80904291,6.5 6.29656204,7.6589485 4.49435171,9.66778779 C4.1255427,10.0788819 3.49330631,10.1131607 3.08221221,9.74435171 C2.67111811,9.3755427 2.63683928,8.74330631 3.00564829,8.33221221 C5.1813597,5.90704879 8.23169642,4.5 11.5002692,4.5 Z M11.4995363,-5.68434189e-14 C15.8001105,-5.68434189e-14 19.8214916,1.76017363 22.7244081,4.81062864 C23.1051374,5.21070819 23.0894509,5.84367883 22.6893714,6.22440812 C22.2892918,6.60513741 21.6563212,6.58945092 21.2755919,6.18937136 C18.7465254,3.53176711 15.2469734,2 11.4995363,2 C7.75253773,2 4.25335915,3.53140612 1.72434435,6.1884639 C1.34357805,6.58850824 0.71060597,6.60413618 0.310561632,6.22336988 C-0.0894827058,5.84260359 -0.105110646,5.2096315 0.27565565,4.80958716 C3.1785132,1.75975912 7.19946582,-5.68434189e-14 11.4995363,-5.68434189e-14 Z"/>
  </defs>
  <use fill="#000" fill-rule="nonzero" stroke="none" stroke-width="1" transform="translate(.5 2.75)" xlink:href="#_uxs-a"/>
</svg>