<?xml version="1.0" encoding="UTF-8"?>
<svg xmlns="http://www.w3.org/2000/svg" xmlns:xlink="http://www.w3.org/1999/xlink" width="24" height="24" version="1.1" viewBox="0 0 24 24">
  <defs>
    <path id="_uxs-a" d="M17.5,16.25 C17.5,18.1829966 15.9329966,19.75 14,19.75 L4,19.75 C2.06700338,19.75 0.5,18.1829966 0.5,16.25 L0.5,7.75 C0.5,5.81700338 2.06700338,4.25 4,4.25 L14,4.25 C15.9329966,4.25 17.5,5.81700338 17.5,7.75 L17.5,16.25 Z M23.3189379,7.30399329 C23.4377676,7.52337101 23.5,7.7689244 23.5,8.01841801 L23.5,15.981582 C23.5,16.8100091 22.8284271,17.481582 22,17.481582 C21.7505064,17.481582 21.504953,17.4193495 21.2855753,17.3005199 L18.5,15.7911304 L18.5,8.20813041 L21.2855753,6.69948006 C22.0140046,6.30491418 22.9243721,6.57556397 23.3189379,7.30399329 Z M9,9.75 C7.75735931,9.75 6.75,10.7573593 6.75,12 C6.75,13.2426407 7.75735931,14.25 9,14.25 C10.2426407,14.25 11.25,13.2426407 11.25,12 C11.25,10.7573593 10.2426407,9.75 9,9.75 Z"/>
  </defs>
  <use fill="#000" fill-rule="evenodd" stroke="none" stroke-width="1" xlink:href="#_uxs-a"/>
</svg>