<?xml version="1.0" encoding="UTF-8"?>
<svg xmlns="http://www.w3.org/2000/svg" xmlns:xlink="http://www.w3.org/1999/xlink" width="24" height="24" version="1.1" viewBox="0 0 24 24">
  <defs>
    <path id="_uxs-a" d="M17.5,5.75 C19.1568542,5.75 20.5,7.09314575 20.5,8.75 L20.5,15.25 C20.5,16.9068542 19.1568542,18.25 17.5,18.25 L4,18.25 C2.34314575,18.25 1,16.9068542 1,15.25 L1,8.75 C1,7.09314575 2.34314575,5.75 4,5.75 L17.5,5.75 Z M14.3994149,8.60020625 C14.3983524,8.36478825 14.3841555,7.79914151 14.0098721,8.07340029 C13.7597158,8.25670413 13.3209959,8.48903823 12.5431829,8.66498395 C10.6301605,9.0748993 8.97411132,9.572654 7.86056095,10.9195196 C7.31806195,11.5929523 7.06108885,12.4127834 7.08964145,13.3204535 C7.08964145,13.8182082 7.11819404,14.1988441 7.17529922,14.4330815 C7.48937749,13.8767676 7.91766614,13.2618941 8.46016491,12.7934193 C9.85763159,11.5370431 11.0369053,11.2283117 11.9893807,10.7288741 C12.4575334,10.4833948 12.8708953,10.1918439 13.2284447,9.71905251 C13.2284447,9.71905251 13.1132708,9.96435139 12.7496761,10.318309 C12.4605389,10.5997826 12.0143073,10.9499691 11.3439748,11.3001555 C8.74569059,12.6763005 7.77490318,14.9308362 7.48937749,15.8092268 C7.57503504,15.8385065 7.6892454,15.8677862 7.83200836,15.9263453 C8.54582268,16.1020235 9.91634615,15.9849047 11.0013439,15.3407518 C12.2862098,14.6087597 12.942919,13.6718097 13.342655,12.9398176 C14.1392367,11.5288652 14.4052263,9.88771475 14.3994149,8.60020625 Z M22.5,9 C23.0522847,9 23.5,9.44771525 23.5,10 L23.5,14 C23.5,14.5522847 23.0522847,15 22.5,15 C21.9477153,15 21.5,14.5522847 21.5,14 L21.5,10 C21.5,9.44771525 21.9477153,9 22.5,9 Z"/>
  </defs>
  <use fill="#000" fill-rule="evenodd" stroke="none" stroke-width="1" xlink:href="#_uxs-a"/>
</svg>