<?xml version="1.0" encoding="UTF-8"?>
<svg xmlns="http://www.w3.org/2000/svg" width="24" height="24" version="1.1" viewBox="0 0 24 24">
  <path fill="#000" fill-rule="evenodd" stroke="none" stroke-width="1" d="M17.144484,2.0015395 L17.6363219,2.01379596 C18.5537651,2.05046611 19.0897919,2.15976206 19.5320441,2.33596793 L19.7466873,2.42962023 L19.9536914,2.53426541 C20.6055433,2.88287959 21.1171204,3.39445674 21.4657346,4.04630859 L21.5703798,4.25331273 L21.6640321,4.46795593 C21.8402379,4.91020809 21.9495339,5.44623491 21.986204,6.36367807 L21.9984605,6.85551601 L22,7.1277704 L22,16.8722296 L21.9984605,17.144484 L21.986204,17.6363219 C21.9495339,18.5537651 21.8402379,19.0897919 21.6640321,19.5320441 L21.5703798,19.7466873 L21.4657346,19.9536914 C21.1171204,20.6055433 20.6055433,21.1171204 19.9536914,21.4657346 L19.7466873,21.5703798 L19.5320441,21.6640321 C19.0897919,21.8402379 18.5537651,21.9495339 17.6363219,21.986204 L17.144484,21.9984605 L16.8722296,22 L7.1277704,22 L6.85551601,21.9984605 L6.36367807,21.986204 C5.44623491,21.9495339 4.91020809,21.8402379 4.46795593,21.6640321 L4.25331273,21.5703798 L4.04630859,21.4657346 C3.39445674,21.1171204 2.88287959,20.6055433 2.53426541,19.9536914 L2.42962023,19.7466873 L2.33596793,19.5320441 C2.15976206,19.0897919 2.05046611,18.5537651 2.01379596,17.6363219 L2.0015395,17.144484 L2.0015395,6.85551601 L2.01379596,6.36367807 C2.05046611,5.44623491 2.15976206,4.91020809 2.33596793,4.46795593 L2.42962023,4.25331273 L2.53426541,4.04630859 C2.88287959,3.39445674 3.39445674,2.88287959 4.04630859,2.53426541 L4.25331273,2.42962023 L4.46795593,2.33596793 C4.91020809,2.15976206 5.44623491,2.05046611 6.36367807,2.01379596 L6.85551601,2.0015395 L17.144484,2.0015395 Z M7.25,3.665 L7.25062499,8.93280394 L7.25890295,10.5682331 L7.27872435,12.0417993 L7.30153733,13.0465118 L7.33145151,13.9696029 L7.36872746,14.8151125 L7.39779664,15.3376796 L7.44792127,16.0628642 L7.48579752,16.5089554 L7.52733171,16.9265511 L7.57260104,17.3168481 L7.62168273,17.6810435 L7.67465398,18.0203345 L7.73159201,18.3359178 L7.79257401,18.6289907 L7.85767721,18.90075 L7.9269788,19.1523929 C7.93888322,19.1927235 7.95096579,19.2322658 7.96322812,19.2710447 L7.96322812,19.2710447 L8.03897207,19.4947572 C8.05195987,19.5305824 8.06513064,19.5656941 8.078486,19.6001172 L8.078486,19.6001172 L8.16084603,19.7985927 C8.17494616,19.8303613 8.18923409,19.8614913 8.20371143,19.8920075 L8.20371143,19.8920075 L8.29286125,20.0679392 L8.38663412,20.2303381 C8.40265247,20.2563433 8.41886667,20.2818345 8.43527832,20.3068367 L8.43527832,20.3068367 L8.53613052,20.4511806 L8.64179877,20.5849842 L8.7523603,20.7094444 L11.8382353,20.7094444 L11.6731548,20.7027584 C10.2159205,20.5830391 9.52316809,18.8726228 9.20939019,16.9492035 L9.20939019,16.9492035 L9.14574334,16.5188307 L9.09363291,16.0848052 C9.08585697,16.0123498 9.07852255,15.9398823 9.07161005,15.8674726 L9.07161005,15.8674726 L9.03504151,15.4342674 L9.00765907,15.0058088 L8.98852263,14.5854565 L8.97669207,14.1765702 L8.97122726,13.7825096 L8.97058822,7.99833332 L13.9889706,13.0538889 L13.9889706,10.4538889 L7.25,3.665 Z M15.4976397,3.375 L12.4117647,3.375 L12.5768452,3.38168563 C14.0340795,3.501397 14.7268319,5.21170157 15.0406098,7.13503887 L15.0406098,7.13503887 L15.1042567,7.56539397 L15.1563671,7.99940311 C15.164143,8.07185584 15.1714774,8.14432084 15.1783899,8.21672813 L15.1783899,8.21672813 L15.2149585,8.64991945 L15.2423409,9.07836633 L15.2614774,9.49870937 L15.2733079,9.90758918 L15.2787727,10.3016464 L15.2794118,16.0861111 L10.2610294,11.0305555 L10.2610294,13.6305555 L17,20.4194444 L16.998353,14.7270848 L16.98724,13.1330192 L16.9644237,11.6984226 L16.929288,10.4137189 L16.8944811,9.54279771 L16.852138,8.7467648 L16.8195942,8.25568576 L16.7641135,7.57548901 L16.7004035,6.95940736 L16.6532302,6.58231074 L16.6022069,6.23071719 L16.5472566,5.90342968 L16.4883025,5.5992512 L16.4252673,5.31698473 L16.3580743,5.05543326 C16.3465247,5.01350109 16.3347986,4.97238218 16.3228945,4.93205158 L16.3228945,4.93205158 L16.2493201,4.69932819 L16.1713953,4.48432726 L16.0890429,4.28585176 C16.0749443,4.25408313 16.060658,4.22295318 16.0461824,4.19243698 L16.0461824,4.19243698 L15.9570445,4.01650523 L15.9570445,4.01650523 L15.9107479,3.93368901 L15.8146511,3.77760772 L15.7138188,3.6332638 L15.608174,3.49946023 L15.4976397,3.375 Z"/>
</svg>