<?xml version="1.0" encoding="UTF-8"?>
<svg xmlns="http://www.w3.org/2000/svg" xmlns:xlink="http://www.w3.org/1999/xlink" width="24" height="24" version="1.1" viewBox="0 0 24 24">
  <defs>
    <path id="_uxs-a" d="M4.32656694,14 L2.33125538,15.7647836 C2.12441027,15.9477309 1.80842109,15.9283579 1.6254738,15.7215128 C1.54462733,15.6301056 1.5,15.5122878 1.5,15.3902574 L1.5,8.60974263 C1.5,8.33360025 1.72385763,8.10974263 2,8.10974263 C2.12203043,8.10974263 2.23984819,8.15436995 2.33125538,8.23521643 L4.32656694,10 L4.32656694,10 L10,10 L6.97280032,3.51314355 C6.70963875,2.94922589 6.94339806,2.27830097 7.5,2 C8.08235316,1.70882342 8.78913364,1.86665766 9.19229218,2.37791317 L15.2028081,10 L15.2028081,10 L21,10 C22.1045695,10 23,10.8954305 23,12 C23,13.1045695 22.1045695,14 21,14 L14.9872584,14 L14.9872584,14 L9.1783089,21.6112385 C8.78473842,22.1269184 8.08022307,22.2901115 7.5,22 C6.94339806,21.721699 6.70963875,21.0507741 6.97280032,20.4868564 L10,14 L10,14 L4.32656694,14 Z"/>
  </defs>
  <use fill="#000" fill-rule="evenodd" stroke="none" stroke-width="1" xlink:href="#_uxs-a"/>
</svg>