<?xml version="1.0" encoding="UTF-8"?>
<svg xmlns="http://www.w3.org/2000/svg" xmlns:xlink="http://www.w3.org/1999/xlink" width="24" height="24" version="1.1" viewBox="0 0 24 24">
  <defs>
    <path id="_uxs-a" d="M11.9855813,4.5 C16.428894,4.5 20.838068,7.27841682 23.1082356,11.4498407 C23.2771233,11.7601712 23.2771218,12.1362002 23.1082317,12.4465294 C20.8392619,16.6156746 16.4460937,19.5 12.0003644,19.5 C7.55729251,19.5 3.13336884,16.6125759 0.86168677,12.4408061 C0.692625121,12.1303374 0.692638987,11.7540661 0.861723517,11.44361 C3.13231051,7.27458627 7.54029579,4.5 11.9855813,4.5 Z M12.1030105,6.50079653 L11.9855813,6.5 C8.50003506,6.5 4.95220372,8.60385556 2.94206513,11.8435948 L2.88125,11.94225 L2.94218276,12.0420642 C4.49499923,14.5529328 6.95209559,16.4136744 9.56246511,17.1515603 C7.89028624,16.2727169 6.75,14.5195225 6.75,12.5 C6.75,11.9635357 6.83046337,11.4458645 6.9799799,10.9583969 C7.05366048,10.7181766 7.27572261,10.7770121 7.3241015,10.9659401 C7.58677335,11.9917192 8.51733369,12.75 9.625,12.75 C10.9140612,12.75 11.9632598,11.7230265 11.9990559,10.4426197 L12,10.375 L12,10.125 C12,9.09101624 11.3392463,8.21135977 10.4169507,7.88524243 C10.2077236,7.81126118 10.1886209,7.56495342 10.4168532,7.49287563 C10.5266282,7.45820774 10.6379617,7.42704833 10.7507223,7.39952944 C11.151119,7.3018138 11.5695086,7.25 12,7.25 C14.8994949,7.25 17.25,9.60050506 17.25,12.5 C17.25,14.5203324 16.108799,16.2741231 14.4358487,17.1519201 C17.035655,16.4159236 19.4766277,14.560527 21.0275667,12.0487271 L21.0885,11.94825 L21.0275992,11.848867 C19.0400485,8.64316592 15.5481975,6.54748576 12.1030105,6.50079653 Z"/>
  </defs>
  <use fill="#000" fill-rule="nonzero" stroke="none" stroke-width="1" xlink:href="#_uxs-a"/>
</svg>