<?xml version="1.0" encoding="UTF-8"?>
<svg xmlns="http://www.w3.org/2000/svg" width="24" height="24" version="1.1" viewBox="0 0 24 24">
  <path fill="#000" fill-rule="nonzero" stroke="none" stroke-width="1" d="M9.121,11.7062498 L12.6648607,15.2506471 C13.3327459,15.9185324 13.3479252,16.9919572 12.7103983,17.6782762 L12.6648607,17.7255208 L8.70963963,21.5093734 C8.0112075,22.177439 6.90344227,22.152822 6.23537675,21.4543898 C5.94116977,21.1468098 5.76974301,20.743232 5.75160364,20.3196855 L5.75,20.2447502 L5.75,15.0772498 L9.121,11.7062498 Z M7.75,13.16425 L7.75,19.6595 L11.06975,16.484 L7.75,13.16425 Z M1.70710678,17.7071068 C1.32959997,18.0846136 0.725358908,18.0971972 0.332736477,17.7448575 L0.292893219,17.7071068 C-0.0846135965,17.3296 -0.0971971571,16.7253589 0.255142537,16.3327365 L0.292893219,16.2928932 L5.58575,11 L0.292893219,5.70710678 C-0.0846135965,5.32959997 -0.0971971571,4.72535891 0.255142537,4.33273648 L0.292893219,4.29289322 C0.670400034,3.9153864 1.27464109,3.90280284 1.66726352,4.25514254 L1.70710678,4.29289322 L5.75,8.33575 L5.75,1.75524981 C5.75,0.808886882 6.50119585,0.0379751421 7.43983756,0.00626456737 L7.5,0.00524981279 C7.92563273,0.00524981279 8.33576896,0.160331739 8.65437976,0.439988428 L8.70963963,0.490626563 L12.6370634,4.24729279 C13.3196221,4.90017501 13.3586456,5.97299769 12.7365238,6.67331097 L12.6648607,6.74935291 L1.70710678,17.7071068 Z M7.75,2.34025 L7.75,8.8355 L11.06975,5.51575 L7.75,2.34025 Z" transform="translate(5 1)"/>
</svg>