<?xml version="1.0" encoding="UTF-8"?>
<svg xmlns="http://www.w3.org/2000/svg" xmlns:xlink="http://www.w3.org/1999/xlink" width="24" height="24" version="1.1" viewBox="0 0 24 24">
  <defs>
    <path id="_uxs-a" d="M9.54999489,0 L14.4500051,0 C15.6844157,0 16.1320428,0.121076884 16.5833248,0.348433961 C17.0346069,0.575791039 17.3887757,0.909428309 17.6301239,1.33454908 L17.6672917,1.40175336 C17.8846454,1.80611009 18,2.24255022 18,3.34419809 L18,16.6558019 L17.9989342,16.8333591 C17.9861582,17.8630491 17.8587697,18.2627049 17.6301239,18.6654509 C17.3887757,19.0905717 17.0346069,19.424209 16.5833248,19.651566 L16.5119849,19.6865792 C16.0827447,19.8913327 15.6194467,20 14.4500051,20 L9.54999489,20 L9.36151109,19.998996 C8.26845556,19.9869607 7.84420554,19.866957 7.41667518,19.651566 C6.96539313,19.424209 6.61122433,19.0905717 6.36987605,18.6654509 L6.33270828,18.5982466 C6.11535456,18.1938899 6,17.7574498 6,16.6558019 L6,3.34419809 C6,2.18134756 6.12852777,1.75966986 6.36987605,1.33454908 C6.61122433,0.909428309 6.96539313,0.575791039 7.41667518,0.348433961 L7.48801511,0.313420848 C7.91725533,0.108667342 8.38055331,0 9.54999489,0 Z M9.87656293,2 L9.67322965,2.00118701 C9.03831053,2.00919714 8.81801739,2.05870857 8.59358367,2.17873508 C8.41159178,2.27606383 8.27593857,2.41171484 8.17860824,2.59370379 C8.05057788,2.83309586 8.00277932,3.06777697 8,3.80596635 L8,16.1940336 L8.00110954,16.3307582 C8.00928082,16.9625241 8.0588379,17.1823488 8.17860824,17.4062962 C8.27593857,17.5882852 8.41159178,17.7239362 8.59358367,17.8212649 C8.81801739,17.9412914 9.03831053,17.9908029 9.67322965,17.998813 L9.87656293,18 L14.1233073,18 C14.9175425,18 15.1594095,17.9532941 15.4062866,17.8212649 C15.5882785,17.7239362 15.7239317,17.5882852 15.821262,17.4062962 C15.9412905,17.1818661 15.9908027,16.9615766 15.998813,16.3266677 L16,16.1233378 L16,3.87666224 C16,3.08243994 15.9532933,2.84057687 15.821262,2.59370379 C15.7239317,2.41171484 15.5882785,2.27606383 15.4062866,2.17873508 C15.1668906,2.0507068 14.9322057,2.00290901 14.1940044,2 L9.87656293,2 Z"/>
  </defs>
  <g fill="none" fill-rule="evenodd" stroke="none" stroke-width="1">
    <rect width="24" height="24" x="0" y="0"/>
    <g transform="translate(0 2)">
      <path fill="#000" fill-rule="nonzero" d="M20.0937814,2.79387977 L20.7875779,3.49432985 L20.8608159,3.57550937 L20.8608159,3.57550937 L21.0515823,3.81387825 L21.0515823,3.81387825 C22.4700821,5.63996131 23.2532428,7.88420831 23.2532428,10.2450158 C23.2532428,12.7651781 22.3603604,15.1502212 20.762296,17.0322773 C20.4048283,17.4532706 19.773761,17.5047682 19.3527678,17.1473005 C18.9317746,16.7898328 18.880277,16.1587655 19.2377447,15.7377723 C20.5316755,14.2138973 21.2532428,12.2864664 21.2532428,10.2450158 C21.2532428,9.362922 21.1186208,8.50189232 20.8608973,7.68510804 L19.562902,7.68593117 C19.2867597,7.68593117 19.062902,7.46207355 19.062902,7.18593117 L19.062902,3.18666266 C19.062902,2.94650865 19.2124728,2.73176502 19.4377325,2.64850631 C19.6660028,2.56413483 19.9225204,2.62097641 20.0937814,2.79387977 Z"/>
      <use fill="#000" fill-rule="nonzero" xlink:href="#_uxs-a"/>
      <path fill="#000" fill-rule="nonzero" d="M4.65047494,2.84774468 C5.07146816,3.20521238 5.12296578,3.83627964 4.76549808,4.25727286 C3.47156728,5.78114788 2.75,7.7085788 2.75,9.75002937 C2.75,10.6323174 2.88475959,11.4933508 3.14233074,12.3097866 L4.44034072,12.309114 C4.7164831,12.309114 4.94034072,12.5329716 4.94034072,12.809114 L4.94221113,15.6812016 C4.95752556,15.7831081 4.95697449,15.8866336 4.94090629,15.9878981 L4.94034072,16.8083825 C4.94034072,17.0485365 4.79076997,17.2632801 4.56551026,17.3465389 C4.33718202,17.4309317 4.08060482,17.3742723 3.90904956,17.2015739 L3.29469511,16.5831257 C3.25537026,16.5488337 3.21934744,16.5119726 3.18580703,16.4718154 C1.62184089,14.5993113 0.75,12.2404343 0.75,9.75002937 C0.75,7.22986708 1.64288236,4.84482399 3.24094677,2.96276782 C3.59841446,2.5417746 4.22948172,2.49027699 4.65047494,2.84774468 Z"/>
    </g>
  </g>
</svg>