<?xml version="1.0" encoding="UTF-8"?>
<svg xmlns="http://www.w3.org/2000/svg" xmlns:xlink="http://www.w3.org/1999/xlink" width="24" height="24" viewBox="0 0 24 24" version="1.1">
    <title>ic_Edit Birthday_filled</title>
    <defs>
        <path d="M15.9565217,14.1407407 C16.054143,14.1407407 16.1430937,14.1772289 16.2097355,14.2380472 L16.2553208,14.2880328 C17.1200847,15.3329315 18.4373082,16 19.9130435,16 C20.6629378,16 21.3719019,15.8277522 22.0011548,15.5211005 L22,19 C22,20.6568542 20.6568542,22 19,22 L5,22 C3.34314575,22 2,20.6568542 2,19 L1.99894116,15.5213905 C2.62821684,15.8277811 3.33712496,16 4.08695652,16 C5.56988353,16 6.89275002,15.326414 7.75531535,14.2724544 C7.82443661,14.1919064 7.92787833,14.1407407 8.04347826,14.1407407 C8.1410995,14.1407407 8.23005026,14.1772289 8.29669204,14.2380472 L8.34227735,14.2880328 C9.20704117,15.3329315 10.5242647,16 12,16 C13.482927,16 14.8057935,15.326414 15.6683588,14.2724544 C15.7374801,14.1919064 15.8409218,14.1407407 15.9565217,14.1407407 Z M13,8 L13,9 L19,9 C20.6568542,9 22,10.3431458 22,12 L22.0007107,13.7579544 C21.4400641,14.2319927 20.7105966,14.5185185 19.9130435,14.5185185 C18.6830144,14.5185185 17.61493,13.8370037 17.0783197,12.8371868 L16.9938691,12.6676657 C16.8186626,12.2743859 16.4201926,12 15.9565217,12 C15.4928509,12 15.0943809,12.2743859 14.9191744,12.6676657 C14.4162897,13.7591764 13.298364,14.5185185 12,14.5185185 C10.7699709,14.5185185 9.7018865,13.8370037 9.16527624,12.8371868 L9.08082562,12.6676657 C8.90561913,12.2743859 8.5071491,12 8.04347826,12 C7.57980742,12 7.18133739,12.2743859 7.0061309,12.6676657 C6.50324624,13.7591764 5.38532052,14.5185185 4.08695652,14.5185185 C3.2890871,14.5185185 2.55935725,14.2317654 1.99862223,13.7573903 L2,12 C2,10.3431458 3.34314575,9 5,9 L11,9 L11,8 L13,8 Z M12,2 C12.3586957,2.47244094 13.5,4.32283465 13.5,5.18897638 C13.5,6.17322835 12.8152174,7 12,7 C11.1521739,7 10.5,6.17322835 10.5,5.18897638 C10.5,4.24409449 11.673913,2.39370079 12,2 Z" id="_path-1"/>
    </defs>
    <g id="_ic_Edit-Birthday_filled" stroke="none" stroke-width="1" fill="none" fill-rule="evenodd">
        <mask id="_mask-2" fill="white">
            <use xlink:href="#_path-1"/>
        </mask>
        <use id="_形状结合" fill="#000000" fill-rule="nonzero" xlink:href="#_path-1"/>
    </g>
</svg>