<?xml version="1.0" encoding="UTF-8"?>
<svg xmlns="http://www.w3.org/2000/svg" xmlns:xlink="http://www.w3.org/1999/xlink" width="24" height="24" version="1.1" viewBox="0 0 24 24">
  <defs>
    <path id="_uxs-a" d="M17.5,5.75 C19.1568542,5.75 20.5,7.09314575 20.5,8.75 L20.5,15.25 C20.5,16.9068542 19.1568542,18.25 17.5,18.25 L4,18.25 C2.34314575,18.25 1,16.9068542 1,15.25 L1,8.75 C1,7.09314575 2.34314575,5.75 4,5.75 L17.5,5.75 Z M9.67888706,9.00511836 C9.59190771,9.13061227 9.54530365,9.27966469 9.54530365,9.43235434 L9.54530365,11.4076673 L6.13138744,10.2474806 C5.73920225,10.1142002 5.31322826,10.3240841 5.17994788,10.7162692 C5.07165933,11.0349145 5.18888535,11.3866781 5.46667565,11.5766618 L10.3775653,14.9352697 C10.7194666,15.1690995 11.1861889,15.0814902 11.4200187,14.7395889 C11.5053145,14.6148711 11.5509517,14.4672984 11.5509517,14.3162026 L11.5509517,12.3739384 L15.3400452,13.8146252 C15.7272171,13.9618354 16.1604193,13.7673081 16.3076296,13.3801363 C16.4301623,13.0578678 16.3171974,12.6935736 16.0338289,12.497172 L10.7225396,8.81593775 C10.3821021,8.57998183 9.91484298,8.66468088 9.67888706,9.00511836 Z M22.5,9 C23.0522847,9 23.5,9.44771525 23.5,10 L23.5,14 C23.5,14.5522847 23.0522847,15 22.5,15 C21.9477153,15 21.5,14.5522847 21.5,14 L21.5,10 C21.5,9.44771525 21.9477153,9 22.5,9 Z"/>
  </defs>
  <use fill="#000" fill-rule="evenodd" stroke="none" stroke-width="1" xlink:href="#_uxs-a"/>
</svg>