<?xml version="1.0" encoding="utf-8"?>
<!-- Generator: Adobe Illustrator 24.3.0, SVG Export Plug-In . SVG Version: 6.00 Build 0)  -->
<svg version="1.1" id="图层_1" xmlns="http://www.w3.org/2000/svg" xmlns:xlink="http://www.w3.org/1999/xlink" x="0px" y="0px"
	 viewBox="0 0 24 24" style="enable-background:new 0 0 24 24;" xml:space="preserve">
<g transform="translate(5 1)">
	<path d="M10.2,22H3.8c-1.1,0-1.7-0.1-2.3-0.4c-0.5-0.3-0.9-0.7-1.1-1.1C0.1,19.8,0,19.2,0,18.2V3.8c0-1.1,0.1-1.7,0.4-2.3
		c0.3-0.5,0.6-0.9,1.1-1.1C2.2,0.1,2.8,0,3.8,0h6.3c1,0,1.7,0.1,2.3,0.4c0.5,0.3,0.9,0.7,1.1,1.1C13.9,2.2,14,2.8,14,3.8v14.3
		c0,1-0.1,1.7-0.4,2.3c-0.3,0.5-0.7,0.9-1.1,1.1C11.8,21.9,11.2,22,10.2,22z M3.8,2c-1,0-1.2,0.1-1.4,0.2C2.3,2.2,2.2,2.3,2.2,2.5
		C2.1,2.7,2,2.9,2,3.8v14.3c0,1,0.1,1.2,0.2,1.4c0.1,0.1,0.2,0.2,0.3,0.3C2.7,19.9,2.9,20,3.8,20h6.3c1,0,1.2-0.1,1.4-0.2
		c0.1-0.1,0.2-0.2,0.3-0.3c0.1-0.2,0.2-0.4,0.2-1.4V3.8c0-1-0.1-1.2-0.2-1.4c-0.1-0.1-0.2-0.2-0.3-0.3C11.3,2.1,11.1,2,10.2,2H3.8z"
		/>
	<path d="M4.1,7.5c3,0,5.4,2.3,5.4,5.2c0,2.9-2.4,5.2-5.4,5.2c-0.6,0-1.1-0.5-1.1-1.1s0.5-1.1,1.1-1.1c1.7,0,3.2-1.4,3.2-3
		c0-1.7-1.4-3-3.2-3C3.5,9.7,3,9.2,3,8.6C3,8,3.5,7.5,4.1,7.5z M4.2,11.3c0.8,0,1.5,0.7,1.5,1.5S5,14.3,4.2,14.3s-1.5-0.7-1.5-1.5
		S3.3,11.3,4.2,11.3z"/>
</g>
</svg>
