<?xml version="1.0" encoding="UTF-8"?>
<svg xmlns="http://www.w3.org/2000/svg" xmlns:xlink="http://www.w3.org/1999/xlink" width="24" height="24" version="1.1" viewBox="0 0 24 24">
  <defs>
    <path id="_uxs-a" d="M15.6266459,17.6732443 C15.9934028,17.2940544 16.5970236,17.2639301 17.0002503,17.6138316 C17.4173813,17.9757987 17.4621005,18.6073825 17.1001334,19.0245135 L17.1001334,19.0245135 L16.8700666,19.2896426 L16.7276996,19.4503809 C16.3917009,19.8220704 16.0291675,20.1700694 15.6428053,20.4917521 C11.1316515,24.2477101 4.36043951,23.7264758 0.50679159,19.3239304 L0.50679159,19.3239304 L0.247543651,19.0277563 L0.212519192,18.9854965 C-0.112999135,18.5703659 -0.0603599479,17.9682905 0.34135788,17.6166578 C0.756928046,17.2528998 1.38869835,17.2949019 1.75245635,17.710472 L1.75245635,17.710472 L2.01170429,18.0066462 L2.10655003,18.1132366 C5.25991534,21.599429 10.7215023,21.986728 14.3631076,18.9547505 C14.7218158,18.6560923 15.0550294,18.3297177 15.3595016,17.9788439 L15.3595016,17.9788439 L15.5895684,17.7137148 Z M12.4695435,14.7223888 C12.8312442,14.3050268 13.4627993,14.2599044 13.8801613,14.6216051 C14.2975233,14.9833058 14.3426457,15.6148609 13.980945,16.0322229 C13.7359831,16.3148814 13.4679026,16.5774595 13.1793897,16.8173639 C10.2574877,19.2469853 5.87705212,18.9070505 3.38333073,16.0544572 L3.38333073,16.0544572 L3.36672953,16.0354669 L3.33173209,15.9931848 C3.00647915,15.5778462 3.05950314,14.9758046 3.46144562,14.6244287 C3.87724819,14.2609364 4.50899152,14.3033422 4.87248384,14.7191448 L4.87248384,14.7191448 L4.95094274,14.8075696 C6.7395103,16.7776702 9.83596973,16.9963892 11.9006669,15.2795511 C12.1056354,15.1091156 12.295886,14.92277 12.4695435,14.7223888 Z M8.74998536,9.49998978 C9.85455486,9.49998978 10.7499854,10.3954203 10.7499854,11.4999898 C10.7499854,12.6045593 9.85455486,13.4999898 8.74998536,13.4999898 C7.64541586,13.4999898 6.74998536,12.6045593 6.74998536,11.4999898 C6.74998536,10.3954203 7.64541586,9.49998978 8.74998536,9.49998978 Z M13.2591177,6.25422027 C13.5492222,6.4966506 13.8187573,6.76196949 14.0650258,7.04755228 C14.4256986,7.46580287 14.3790226,8.09724506 13.960772,8.45791788 C13.5425214,8.81859071 12.9110792,8.7719147 12.5504064,8.35366411 C12.3752316,8.15052436 12.1833437,7.96163811 11.9766377,7.78890101 C9.89596777,6.05015655 6.77708372,6.271547 4.97421418,8.2673583 L4.8951477,8.35691278 C4.53268069,8.77360944 3.90104373,8.81757126 3.48434707,8.45510424 C3.08154029,8.10471946 3.02703353,7.50281032 3.35126242,7.08667181 L3.3861556,7.04430361 L3.40286879,7.02508991 C5.91113401,4.14155652 10.3195725,3.7977432 13.2591177,6.25422027 Z M15.7391477,2.53660075 C16.1278084,2.86181027 16.4924802,3.2136065 16.8304436,3.58933234 L16.9736419,3.75181503 L17.2052607,4.02006327 C17.5662003,4.4380837 17.5199271,5.06955554 17.1019066,5.4304951 C16.6978202,5.77940334 16.0942753,5.74779389 15.7284526,5.36770261 L15.6914748,5.32714103 L15.459856,5.05889279 C15.1529866,4.70349347 14.817174,4.37293354 14.4556939,4.07046721 C10.787474,1.00110559 5.28750637,1.39306116 2.11062725,4.92280783 L2.01507355,5.03072997 L1.75407671,5.3303885 C1.39134363,5.74685357 0.759678717,5.79041195 0.343213648,5.42767887 C-0.0593692511,5.07703688 -0.113491566,4.47509305 0.211003047,4.05916171 L0.245923287,4.0168158 L0.506920122,3.71715727 C4.38428662,-0.73456706 11.1996305,-1.26181382 15.7391477,2.53660075 Z"/>
  </defs>
  <g fill="none" fill-rule="evenodd" stroke="none" stroke-width="1" transform="translate(-.5 -.75)">
    <rect width="24" height="24" x=".5" y=".75"/>
    <use fill="#000" fill-rule="nonzero" transform="rotate(90 10 14)" xlink:href="#_uxs-a"/>
  </g>
</svg>