<?xml version="1.0" encoding="UTF-8"?>
<svg xmlns="http://www.w3.org/2000/svg" width="24" height="24" version="1.1" viewBox="0 0 24 24">
  <g fill="#000" fill-rule="evenodd" stroke="none" stroke-width="1">
    <path fill-rule="nonzero" d="M12.094382,2 C18.0743641,2 22.9220974,6.84773329 22.9220974,12.8277154 C22.9220974,16.1155293 21.4567068,19.0610828 19.1434263,21.0468753 L19.1326874,21.0335184 C18.9743587,21.1387131 18.7843365,21.2 18.58,21.2 C18.0277153,21.2 17.58,20.7522847 17.58,20.2 C17.58,19.860301 17.7493808,19.5601631 18.0082929,19.3794356 L17.8407707,19.5292354 C19.7271196,17.9102351 20.9220974,15.5085262 20.9220974,12.8277154 C20.9220974,7.95230279 16.9697946,4 12.094382,4 C7.21896946,4 3.26666667,7.95230279 3.26666667,12.8277154 C3.26666667,15.4468787 4.40731728,17.7996289 6.21896174,19.416309 C6.25197589,19.4406878 6.28180115,19.4673736 6.30993854,19.4957363 C6.3221022,19.5069484 6.33492688,19.5180201 6.34778368,19.5290554 C6.50385175,19.710583 6.6,19.9440632 6.6,20.2 C6.6,20.7522847 6.15228475,21.2 5.6,21.2 C5.39837223,21.2 5.2106818,21.1403272 5.05362577,21.0376787 L5.04623935,21.0476492 C2.73243804,19.0618481 1.26666667,16.1159564 1.26666667,12.8277154 C1.26666667,6.84773329 6.11439996,2 12.094382,2 Z M12.094382,6.55430712 C15.5590897,6.55430712 18.3677903,9.36300766 18.3677903,12.8277154 C18.3677903,14.7329459 17.5184782,16.439809 16.1778061,17.5903525 C15.9969402,17.7564867 15.7555585,17.86 15.49,17.86 C14.9377153,17.86 14.49,17.4122847 14.49,16.86 C14.49,16.5356423 14.6444274,16.247353 14.8837697,16.0646446 L14.8759757,16.0720043 C15.7892395,15.2882609 16.3677903,14.125552 16.3677903,12.8277154 C16.3677903,10.4675772 14.4545202,8.55430712 12.094382,8.55430712 C9.73424382,8.55430712 7.82097378,10.4675772 7.82097378,12.8277154 C7.82097378,14.0598876 8.34246173,15.1702599 9.17677004,15.9501645 C9.42208287,16.1308792 9.58,16.4219978 9.58,16.75 C9.58,17.3022847 9.13228475,17.75 8.58,17.75 C8.37267406,17.75 8.18008434,17.6869067 8.02038393,17.5788733 L8.01095795,17.5903525 C6.67028589,16.439809 5.82097378,14.7329459 5.82097378,12.8277154 C5.82097378,9.36300766 8.62967432,6.55430712 12.094382,6.55430712 Z"/>
    <path d="M12,10.75 C13.1045695,10.75 14,11.6454305 14,12.75 L14,12.7511144 C14,13.8556839 13.1045695,14.7511144 12,14.7511144 C10.8954305,14.7511144 10,13.8556839 10,12.7511144 L10,12.75 C10,11.6454305 10.8954305,10.75 12,10.75 Z"/>
  </g>
</svg>