<?xml version="1.0" encoding="UTF-8"?>
<svg xmlns="http://www.w3.org/2000/svg" xmlns:xlink="http://www.w3.org/1999/xlink" width="24" height="24" viewBox="0 0 24 24" version="1.1">
    <title>ic_Medic Emergency</title>
    <defs>
        <path d="M8.375625,2.5 L8.64804936,2.50625632 C10.0065802,2.56872532 11.3064034,3.09759127 12.3295742,4.02923883 L12.5304551,4.22091991 L19.7792382,11.469703 C22.0735873,13.7643387 22.0735873,17.4844113 19.7792051,19.7790801 C18.6626375,20.8956477 17.1722138,21.5 15.624375,21.5 C14.1679624,21.5 12.7613933,20.9643762 11.6705686,19.9707437 L11.4698041,19.7790892 L4.2207618,12.530297 C1.92641273,10.2356613 1.92641273,6.51558867 4.22086115,4.22085368 C5.2718016,3.17017571 6.65410131,2.57288969 8.10320065,2.50625631 L8.375625,2.5 Z M15.0940124,8.906 L8.90601242,15.094 L12.5305213,18.7184862 C13.3623227,19.5504954 14.4708425,20 15.624375,20 C16.7783445,20 17.8861823,19.5507826 18.7185118,18.718453 C20.372045,17.0647133 20.4253847,14.4167939 18.8785612,12.6989436 L18.7185449,12.5303301 L15.0940124,8.906 Z" id="_path-1"/>
    </defs>
    <g id="_ic_Medic-Emergency" stroke="none" stroke-width="1" fill="none" fill-rule="evenodd">
        <mask id="_mask-2" fill="white">
            <use xlink:href="#_path-1"/>
        </mask>
        <use id="_形状结合" fill="#000000" fill-rule="nonzero" xlink:href="#_path-1"/>
    </g>
</svg>