<?xml version="1.0" encoding="utf-8"?>
<!-- Generator: Adobe Illustrator 24.3.0, SVG Export Plug-In . SVG Version: 6.00 Build 0)  -->
<svg version="1.1" id="图层_1" xmlns="http://www.w3.org/2000/svg" xmlns:xlink="http://www.w3.org/1999/xlink" x="0px" y="0px"
	 viewBox="0 0 24 24" style="enable-background:new 0 0 24 24;" xml:space="preserve">
<path d="M9,16v1.7H7c-0.5,0-1,0.5-1,1s0.5,1,1,1h6V16H9z"/>
<path d="M17.4,3c1.1,0,1.7,0.1,2.3,0.5c0.6,0.3,1,0.8,1.4,1.4c0.3,0.5,0.4,1.1,0.4,1.9l-2,0c0-0.5-0.1-0.7-0.2-0.9l0,0l0-0.1
	c-0.1-0.2-0.3-0.4-0.5-0.5C18.5,5.1,18.2,5,17.3,5l0,0L5.1,5c-0.7,0-1,0.1-1.3,0.2l0,0l-0.1,0C3.5,5.3,3.3,5.5,3.2,5.8
	C3.1,6,3,6.3,3,7.2l0,0l0,5.4c0,0.7,0.1,1,0.2,1.3l0,0l0,0.1c0.1,0.2,0.3,0.4,0.5,0.5c0.3,0.2,0.6,0.2,1.5,0.2l0,0l7.8,0v2H5.2
	c-1.1,0-1.7-0.1-2.3-0.4l-0.1-0.1c-0.6-0.3-1-0.8-1.4-1.4C1.1,14.3,1,13.7,1,12.5l0,0l0-5.5C1,6,1.1,5.4,1.5,4.8
	c0.3-0.6,0.8-1,1.4-1.4C3.4,3.1,4,3,5.2,3l0,0L17.4,3z"/>
<path d="M19.5,21h-2c-1.9,0-3.5-1.6-3.5-3.5v-6.2c0-1.9,1.6-3.5,3.5-3.5h2c1.9,0,3.5,1.6,3.5,3.5v6.2C23,19.4,21.4,21,19.5,21z
	 M17.5,9.8c-0.8,0-1.5,0.7-1.5,1.5v6.2c0,0.8,0.7,1.5,1.5,1.5h2c0.8,0,1.5-0.7,1.5-1.5v-6.2c0-0.8-0.7-1.5-1.5-1.5H17.5z"/>
</svg>
