<?xml version="1.0" encoding="UTF-8"?>
<svg xmlns="http://www.w3.org/2000/svg" xmlns:xlink="http://www.w3.org/1999/xlink" width="24" height="24" viewBox="0 0 24 24" version="1.1">
    <title>ic_Medic Conditions Emergency</title>
    <defs>
        <path d="M16,5.25 C18.0710678,5.25 19.75,6.92893219 19.75,9 L19.75,9 L19.75,19 C19.75,21.0710678 18.0710678,22.75 16,22.75 L16,22.75 L8,22.75 C5.92893219,22.75 4.25,21.0710678 4.25,19 L4.25,19 L4.25,9 C4.25,6.92893219 5.92893219,5.25 8,5.25 L8,5.25 Z M16,6.75 L8,6.75 C6.75735931,6.75 5.75,7.75735931 5.75,9 L5.75,9 L5.75,19 C5.75,20.2426407 6.75735931,21.25 8,21.25 L8,21.25 L16,21.25 C17.2426407,21.25 18.25,20.2426407 18.25,19 L18.25,19 L18.25,9 C18.25,7.75735931 17.2426407,6.75 16,6.75 L16,6.75 Z M12.9111111,10 C13.0215681,10 13.1111111,10.0895431 13.1111111,10.2 L13.111,12.888 L15.8,12.8888889 C15.9104569,12.8888889 16,12.9784319 16,13.0888889 L16,14.9111111 C16,15.0215681 15.9104569,15.1111111 15.8,15.1111111 L13.111,15.111 L13.1111111,17.8 C13.1111111,17.9104569 13.0215681,18 12.9111111,18 L11.0888889,18 C10.9784319,18 10.8888889,17.9104569 10.8888889,17.8 L10.888,15.111 L8.2,15.1111111 C8.08954305,15.1111111 8,15.0215681 8,14.9111111 L8,13.0888889 C8,12.9784319 8.08954305,12.8888889 8.2,12.8888889 L10.888,12.888 L10.8888889,10.2 C10.8888889,10.0895431 10.9784319,10 11.0888889,10 L12.9111111,10 Z M16.25,2 C16.6642136,2 17,2.33578644 17,2.75 C17,3.16421356 16.6642136,3.5 16.25,3.5 L7.75,3.5 C7.33578644,3.5 7,3.16421356 7,2.75 C7,2.33578644 7.33578644,2 7.75,2 L16.25,2 Z" id="_path-1"/>
    </defs>
    <g id="_ic_Medic-Conditions-Emergency" stroke="none" stroke-width="1" fill="none" fill-rule="evenodd">
        <mask id="_mask-2" fill="white">
            <use xlink:href="#_path-1"/>
        </mask>
        <use id="_形状结合" fill="#000000" xlink:href="#_path-1"/>
    </g>
</svg>