<?xml version="1.0" encoding="utf-8"?>
<!-- Generator: Adobe Illustrator 24.3.0, SVG Export Plug-In . SVG Version: 6.00 Build 0)  -->
<svg version="1.1" id="图层_1" xmlns="http://www.w3.org/2000/svg" xmlns:xlink="http://www.w3.org/1999/xlink" x="0px" y="0px"
	 viewBox="0 0 24 24" style="enable-background:new 0 0 24 24;" xml:space="preserve">
<g transform="translate(0 -.25)">
	<path d="M12,15.7l-2.5,2.5c0.2,0.4,0.3,0.8,0.3,1.2c0,1.6-1.3,2.9-2.9,2.9S4,21,4,19.4s1.3-2.9,2.9-2.9c0.4,0,0.8,0.1,1.2,0.3
		l2.5-2.5L7.3,11c-0.4-0.4-0.4-1,0-1.4c0.4-0.4,1-0.4,1.4,0l3.3,3.3l3.3-3.3c0.4-0.4,1-0.4,1.4,0c0.4,0.4,0.4,1,0,1.4l-3.3,3.3
		l2.5,2.5c0.4-0.2,0.8-0.3,1.2-0.3c1.6,0,2.9,1.3,2.9,2.9s-1.3,2.9-2.9,2.9s-2.9-1.3-2.9-2.9c0-0.4,0.1-0.8,0.3-1.2L12,15.7z
		 M6.9,20.2c0.5,0,0.9-0.4,0.9-0.9s-0.4-0.9-0.9-0.9S6,18.9,6,19.4S6.4,20.2,6.9,20.2z M17.1,20.2c0.5,0,0.9-0.4,0.9-0.9
		s-0.4-0.9-0.9-0.9s-0.9,0.4-0.9,0.9S16.6,20.2,17.1,20.2z"/>
	<path d="M6.2,15.3L6.2,15.3c-1.2,0-1.8-0.1-2.4-0.5c-0.6-0.3-1-0.8-1.4-1.4C2.1,12.8,2,12.2,2,11V6.5c0-1.2,0.1-1.8,0.5-2.4
		c0.3-0.6,0.8-1,1.4-1.4C4.4,2.4,5,2.3,6.2,2.3h11.6c1.2,0,1.8,0.1,2.4,0.5c0.6,0.3,1,0.8,1.4,1.4C21.9,4.7,22,5.3,22,6.5V11
		c0,1.2-0.1,1.8-0.5,2.4c-0.3,0.6-0.8,1-1.4,1.4c-0.6,0.3-1.2,0.4-2.2,0.5c-0.6,0-1-0.4-1-1c0-0.6,0.4-1,1-1c0.9,0,1.1-0.1,1.3-0.2
		c0.2-0.1,0.4-0.3,0.5-0.5c0.1-0.2,0.2-0.4,0.2-1.5V6.5c0-1.1-0.1-1.3-0.2-1.5c-0.1-0.2-0.3-0.4-0.5-0.5c-0.2-0.1-0.4-0.2-1.5-0.2
		H6.2c-1.1,0-1.3,0.1-1.5,0.2C4.5,4.6,4.3,4.8,4.2,5C4.1,5.2,4,5.4,4,6.5V11c0,1.1,0.1,1.3,0.2,1.5c0.1,0.2,0.3,0.4,0.5,0.5
		c0.2,0.1,0.4,0.2,1.5,0.2c0.6,0,1,0.4,1,1S6.8,15.3,6.2,15.3z"/>
</g>
</svg>
