<?xml version="1.0" encoding="UTF-8"?>
<svg xmlns="http://www.w3.org/2000/svg" width="24" height="24" version="1.1" viewBox="0 0 24 24">
  <g fill="#000" fill-rule="nonzero" stroke="none" stroke-width="1" transform="translate(.5 5)">
    <path d="M0.916,8.3 L2.892,9.269 C3.12,8.889 3.40183333,8.58816667 3.7375,8.3665 C4.07316667,8.14483333 4.47533333,8.034 4.944,8.034 C5.37466667,8.034 5.742,8.129 6.046,8.319 C6.35,8.509 6.578,8.77183333 6.73,9.1075 C6.882,9.44316667 6.958,9.82 6.958,10.238 C6.958,10.656 6.882,11.0296667 6.73,11.359 C6.578,11.6883333 6.35633333,11.948 6.065,12.138 C5.77366667,12.328 5.42533333,12.423 5.02,12.423 C4.51333333,12.423 4.07316667,12.2773333 3.6995,11.986 C3.32583333,11.6946667 3.05033333,11.264 2.873,10.694 L2.873,10.694 L0.65,11.967 C0.979333333,12.9296667 1.5335,13.6548333 2.3125,14.1425 C3.0915,14.6301667 4.00666667,14.874 5.058,14.874 C5.94466667,14.874 6.75216667,14.6871667 7.4805,14.3135 C8.20883333,13.9398333 8.7915,13.392 9.2285,12.67 C9.6655,11.948 9.884,11.1056667 9.884,10.143 C9.884,9.231 9.68766667,8.43616667 9.295,7.7585 C8.90233333,7.08083333 8.3735,6.55516667 7.7085,6.1815 C7.0435,5.80783333 6.312,5.621 5.514,5.621 C4.88066667,5.621 4.30116667,5.735 3.7755,5.963 L3.81635736,5.948 L4.17435736,3.076 L9.276,3.075 L9.276,0.719 L4.469,0.719 L1.866,0.719 L0.916,8.3 Z"/>
    <path d="M10.4452132,8.02126736 C10.4897225,9.28639468 10.7790327,10.4211389 11.3131438,11.4255 C11.8958105,12.5211667 12.7128105,13.3698333 13.7641438,13.9715 C14.8154771,14.5731667 16.0188105,14.874 17.3741438,14.874 C18.5141438,14.874 19.5559771,14.6681667 20.4996438,14.2565 C21.4433105,13.8448333 22.1304771,13.2906667 22.5611438,12.594 L22.5611438,12.594 L22.5611438,11.853 L22.561,8.148 L22.5611438,6.932 L17.2411438,6.932 L17.2411438,9.307 L19.863,9.307 L19.863,11.556 L19.8166994,11.606 C19.7275636,11.6932593 19.6315471,11.7730123 19.52865,11.8452593 L19.3691438,11.948 C18.8751438,12.2393333 18.2671438,12.385 17.5451438,12.385 C16.6964771,12.385 15.9523105,12.195 15.3126438,11.815 C14.6729771,11.435 14.1789771,10.8871667 13.8306438,10.1715 C13.4823105,9.45583333 13.3081438,8.623 13.3081438,7.673 L13.3081438,7.673 L13.3144771,7.36090741 C13.3482549,6.54085802 13.5171438,5.81838889 13.8211438,5.1935 C14.1631438,4.4905 14.6318105,3.949 15.2271438,3.569 C15.8224771,3.189 16.4938105,2.999 17.2411438,2.999 C17.9504771,2.999 18.5648105,3.16683333 19.0841438,3.5025 C19.6034771,3.83816667 20.0024771,4.29733333 20.2811438,4.88 L20.2811438,4.88 L22.5611438,3.569 C22.3458105,2.97366667 21.9911438,2.44166667 21.4971438,1.973 C21.0031438,1.50433333 20.3983105,1.14016667 19.6826438,0.8805 C18.9669771,0.620833333 18.1784771,0.491 17.3171438,0.491 C16.0251438,0.491 14.8566438,0.788666667 13.8116438,1.384 C12.7666438,1.97933333 11.9433105,2.8185 11.3416438,3.9015 C10.7399771,4.9845 10.4391438,6.24166667 10.4391438,7.673 L10.4391438,7.673 L10.4452132,8.02126736 Z"/>
  </g>
</svg>