<?xml version="1.0" encoding="UTF-8"?>
<svg xmlns="http://www.w3.org/2000/svg" width="24" height="24" version="1.1" viewBox="0 0 32 32">
  <defs>
    <linearGradient id="_uxs-a" x1="0%" x2="100%" y1="50%" y2="50%">
      <stop offset="0%" stop-color="#000"/>
      <stop offset="100%" stop-color="#000" stop-opacity=".1"/>
    </linearGradient>
  </defs>
  <g fill="none" fill-rule="evenodd" stroke="none" stroke-width="1">
    <path fill="#000" d="M17.3593579,2.9533379 L27.0312295,6.49371514 C28.2136787,6.92654928 29,8.05172736 29,9.31090625 L29,22.6882 C29,23.9473788 28.2136787,25.0725569 27.0312295,25.5053911 L17.3593579,29.0457683 C16.0627815,29.5203786 14.626951,28.8540434 14.1523407,27.557467 C14.0515659,27.2821625 14,26.9912782 14,26.6981091 L14,5.30099716 C14,3.92028528 15.1192881,2.80099716 16.5,2.80099716 C16.7931692,2.80099716 17.0840534,2.85256301 17.3593579,2.9533379 Z" transform="rotate(180 21.5 16)"/>
    <path fill="url(#_uxs-a)" d="M5.84967423,6.35552466 L12,9.24183175 L12,9.24183175 L12,22.7574807 L5.84967423,25.6437878 C4.84974081,26.1130499 3.65872251,25.6828558 3.18946038,24.6829224 C3.0646856,24.4170444 3,24.1269485 3,23.8332482 L3,8.16606428 C3,7.06149478 3.8954305,6.16606428 5,6.16606428 C5.29370029,6.16606428 5.58379623,6.23074988 5.84967423,6.35552466 Z"/>
  </g>
</svg>