<?xml version="1.0" encoding="UTF-8"?>
<svg xmlns="http://www.w3.org/2000/svg" width="24" height="24" version="1.1" viewBox="0 0 24 24">
  <path fill="#000" fill-rule="nonzero" stroke="none" stroke-width="1" d="M20.2375311,11 C21.618243,11 22.7375311,12.1192881 22.7375311,13.5 C22.7375311,13.5830744 22.7333903,13.6660972 22.7251241,13.7487593 L22.2251241,18.7487593 C22.0973236,20.0267638 21.0219097,21 19.7375311,21 L4.26246891,21 C2.97809028,21 1.90267638,20.0267638 1.77487593,18.7487593 L1.27487593,13.7487593 C1.13748996,12.3748996 2.13984994,11.149793 3.51370961,11.012407 C3.59637173,11.0041408 3.6793945,11 3.76246891,11 L20.2375311,11 Z M20.2375311,12.5 L3.76246891,12.5 C3.72923914,12.5 3.69603003,12.5016563 3.66296519,12.5049628 C3.15267445,12.5559919 2.7705132,12.9821736 2.76252182,13.4827919 L2.76743172,13.5995037 L3.26743172,18.5995037 C3.31461957,19.0713823 3.68478101,19.4393872 4.14552914,19.4932112 L4.26246891,19.5 L19.7375311,19.5 C20.2117632,19.5 20.6147742,19.1682935 20.7141772,18.7151876 L20.7325683,18.5995037 L21.2325683,13.5995037 C21.2358748,13.5664389 21.2375311,13.5332298 21.2375311,13.5 C21.2375311,12.9477153 20.7898158,12.5 20.2375311,12.5 Z M18.1755077,6 C19.5562195,6 20.6755077,7.11928813 20.6755077,8.5 L20.6742732,8.57855477 L20.5827339,10.036819 C20.4896259,10.0206831 20.3947523,10.0096977 20.298417,10.004167 L20.1528559,10 L19.083,10 L19.173533,8.56281278 L19.1755077,8.5 L19.1755077,8.5 C19.1755077,7.94771525 18.7277924,7.5 18.1755077,7.5 L5.4372731,7.50197467 C4.92544995,7.53418732 4.52786152,7.94601437 4.50144971,8.44599936 L4.50206056,8.56281278 L4.592,10 L3.52273765,10 C3.49302305,10 3.46331319,10.0005298 3.4336222,10.0015888 L3.34462002,10.0063533 C3.25888913,10.0124769 3.17447772,10.0228546 3.09157745,10.0372653 L3.00502257,8.65703196 C2.91829621,7.27904654 3.96506851,6.09166304 5.34305393,6.00493668 L5.50008589,6 L18.1755077,6 Z M16.75,3 C17.1642136,3 17.5,3.33578644 17.5,3.75 C17.5,4.16421356 17.1642136,4.5 16.75,4.5 L7.75,4.5 C7.33578644,4.5 7,4.16421356 7,3.75 C7,3.33578644 7.33578644,3 7.75,3 L16.75,3 Z"/>
</svg>