<?xml version="1.0" encoding="UTF-8"?>
<svg xmlns="http://www.w3.org/2000/svg" width="24" height="24" version="1.1" viewBox="0 0 28 28">
  <path fill="#000" fill-rule="evenodd" stroke="none" stroke-width="1" d="M12.6312128,15.0651164 L9.60869565,15.0651164 C9.27252233,15.0651164 9,14.780423 9,14.429236 C9,14.3189091 9.02689601,14.2151447 9.07421202,14.1247079 L9.0747918,14.123082 L9.08549063,14.1040776 C9.09559822,14.0863667 9.10650644,14.0692124 9.11816312,14.0526691 L10.437,12.01 L10.437,8.282 L9.60869565,8.28239226 C9.30308354,8.28239226 9.05007556,8.04710851 9.00659982,7.74047762 L9,7.64651188 C9,7.29532484 9.27252233,7.01063149 9.60869565,7.01063149 L9.60869565,7.01063149 L13.663,7.01 L13.6694697,7 L13.675,7.01 L17.7246377,7.01063149 C18.0302498,7.01063149 18.2832578,7.24591525 18.3267335,7.55254613 L18.3333333,7.64651188 C18.3333333,7.99769892 18.060811,8.28239226 17.7246377,8.28239226 L17.7246377,8.28239226 L16.929,8.282 L16.929,12.054 L18.2641477,14.123082 C18.3074135,14.2189478 18.3333333,14.3209298 18.3333333,14.429236 C18.3333333,14.780423 18.060811,15.0651164 17.7246377,15.0651164 L17.7246377,15.0651164 L14.6481643,15.0651164 L14.2753623,20.3641196 C14.2753623,20.7153067 14.00284,21 13.6666667,21 C13.3304933,21 13.057971,20.7153067 13.057971,20.3641196 L13.057971,20.3641196 L12.6312128,15.0651164 Z" transform="rotate(45 13.667 14)"/>
</svg>