<?xml version="1.0" encoding="UTF-8"?>
<svg xmlns="http://www.w3.org/2000/svg" xmlns:xlink="http://www.w3.org/1999/xlink" width="24" height="24" version="1.1" viewBox="0 0 32 32">
  <defs>
    <linearGradient id="_uxs-a" x1="0%" x2="100%" y1="50%" y2="50%">
      <stop offset="0%" stop-color="#000"/>
      <stop offset="100%" stop-color="#000" stop-opacity=".1"/>
    </linearGradient>
    <path id="_uxs-b" d="M23.9620544,4.38922953 L26,6.57256271 L26,6.57256271 L26,25.4281518 L23.9620544,27.6114849 C23.2083533,28.4189553 21.9427738,28.4625439 21.1353034,27.7088428 C20.7300697,27.3305935 20.5,26.8011229 20.5,26.2467883 L20.5,5.75392613 C20.5,4.64935663 21.3954305,3.75392613 22.5,3.75392613 C23.0543346,3.75392613 23.5838052,3.98399584 23.9620544,4.38922953 Z"/>
    <linearGradient id="_uxs-c" x1="0%" x2="99.2%" y1="50%" y2="50%">
      <stop offset="0%" stop-color="#000"/>
      <stop offset="100%" stop-color="#000" stop-opacity=".1"/>
    </linearGradient>
    <path id="_uxs-d" d="M3.46205444,4.38851507 L5.5,6.57184824 L5.5,6.57184824 L5.5,25.4274373 L3.46205444,27.6107705 C2.70835333,28.4182408 1.44277378,28.4618294 0.635303403,27.7081283 C0.230069712,27.329879 -1.70847043e-15,26.8004085 0,26.2460739 L0,5.75321166 C-7.54966379e-16,4.64864217 0.8954305,3.75321166 2,3.75321166 C2.55433461,3.75321166 3.08380517,3.98328138 3.46205444,4.38851507 Z"/>
  </defs>
  <g fill="none" fill-rule="evenodd" stroke="none" stroke-width="1" transform="translate(3)">
    <use fill="url(#_uxs-a)" transform="rotate(180 23.25 16)" xlink:href="#_uxs-b"/>
    <use fill="url(#_uxs-c)" xlink:href="#_uxs-d"/>
    <path fill="#000" d="M11,3 L15,3 C16.9329966,3 18.5,4.56700338 18.5,6.5 L18.5,25.5 C18.5,27.4329966 16.9329966,29 15,29 L11,29 C9.06700338,29 7.5,27.4329966 7.5,25.5 L7.5,6.5 C7.5,4.56700338 9.06700338,3 11,3 Z"/>
  </g>
</svg>