<?xml version="1.0" encoding="UTF-8"?>
<svg xmlns="http://www.w3.org/2000/svg" width="24" height="24" version="1.1" viewBox="0 0 32 32">
  <defs>
    <linearGradient id="_uxs-a" x1="0%" x2="100%" y1="50%" y2="50%">
      <stop offset="0%" stop-color="#000"/>
      <stop offset="100%" stop-color="#000" stop-opacity=".1"/>
    </linearGradient>
  </defs>
  <g fill="none" fill-rule="evenodd" stroke="none" stroke-width="1" transform="translate(3 3)">
    <path fill="#000" d="M15.0312295,0.199275706 L24.0312295,3.49371514 C25.2136787,3.92654928 26,5.05172736 26,6.31090625 L26,19.6882 C26,20.9473788 25.2136787,22.0725569 24.0312295,22.5053911 L15.0312295,25.7998305 C13.4753378,26.3693628 11.7523412,25.5697606 11.1828089,24.0138689 C11.061879,23.6835035 11,23.3344424 11,22.9826394 L11,3.01646681 C11,1.35961256 12.3431458,0.0164668113 14,0.0164668113 C14.351803,0.0164668113 14.7008641,0.0783458348 15.0312295,0.199275706 Z"/>
    <path fill="url(#_uxs-a)" d="M2.84944762,3.35567069 L9.00292969,6.24251928 L9.00292969,6.24251928 L9.00292969,19.7581683 L2.84944762,22.6450168 C1.84945548,23.1141538 0.65849102,22.6838107 0.189354054,21.6838185 C0.0646484176,21.4180014 -3.96084532e-15,21.1279867 0,20.8343709 L0,5.16631664 C-5.32921774e-16,4.06174714 0.8954305,3.16631664 2,3.16631664 C2.29361584,3.16631664 2.58363046,3.23096505 2.84944762,3.35567069 Z" transform="rotate(180 4.501 13)"/>
  </g>
</svg>