<?xml version="1.0" encoding="UTF-8"?>
<svg xmlns="http://www.w3.org/2000/svg" width="24" height="24" version="1.1" viewBox="0 0 32 32">
  <defs>
    <linearGradient id="_uxs-a" x1="0%" x2="100%" y1="50%" y2="50%">
      <stop offset="0%" stop-color="#000"/>
      <stop offset="100%" stop-color="#000" stop-opacity=".1"/>
    </linearGradient>
  </defs>
  <g fill="none" fill-rule="evenodd" stroke="none" stroke-width="1" transform="translate(3 3)">
    <path fill="#000" d="M3.35935791,-0.0466620983 L13.0312295,3.49371514 C14.2136787,3.92654928 15,5.05172736 15,6.31090625 L15,19.6882 C15,20.9473788 14.2136787,22.0725569 13.0312295,22.5053911 L3.35935791,26.0457683 C2.06278151,26.5203786 0.626951016,25.8540434 0.152340746,24.557467 C0.0515658529,24.2821625 1.291449e-14,23.9912782 1.33226763e-14,23.6981091 L1.33226763e-14,2.30099716 C1.31535879e-14,0.920285282 1.11928813,-0.199002844 2.5,-0.199002844 C2.79316915,-0.199002844 3.0840534,-0.147436991 3.35935791,-0.0466620983 Z"/>
    <path fill="url(#_uxs-a)" d="M17.7169039,3.06139372 L26,6.24183175 L26,6.24183175 L26,19.7574807 L17.7169039,22.9379188 C16.6857351,23.3338539 15.5288388,22.8188952 15.1329037,21.7877264 C15.0450497,21.5589205 15,21.3159152 15,21.0708224 L15,4.92849006 C15,3.82392056 15.8954305,2.92849006 17,2.92849006 C17.2450928,2.92849006 17.4880981,2.97353974 17.7169039,3.06139372 Z" transform="rotate(180 20.5 13)"/>
  </g>
</svg>