<?xml version="1.0" encoding="UTF-8"?>
<svg xmlns="http://www.w3.org/2000/svg" xmlns:xlink="http://www.w3.org/1999/xlink" width="24" height="24" viewBox="0 0 32 32" version="1.1">
    <title>ic_desktop_widgets</title>
    <defs>
        <rect id="_path-1" x="0" y="0" width="32" height="32"/>
    </defs>
    <g id="_ic_desktop_widgets" stroke="none" stroke-width="1" fill="none" fill-rule="evenodd">
        <g id="_Public/ic_public_widgets_filled">
            <mask id="_mask-2" fill="white">
                <use xlink:href="#_path-1"/>
            </mask>
            <g id="_蒙版"/>
            <g mask="url(#_mask-2)" fill="#000000" id="_形状">
                <g transform="translate(3.000000, 3.000000)">
                    <path d="M9.50358541,11 L9.50358541,26 L4.75,26 C2.12664744,26 -1.42108547e-13,23.8733526 -1.42108547e-13,21.25 L-1.42108547e-13,11 L9.50358541,11 Z M26,19.5 L26,21.25 C26,23.8733526 23.8733526,26 21.25,26 L11.5,26 L11.5,19.5 L26,19.5 Z M26,11 L26,17.5 L11.5,17.5 L11.5,11 L26,11 Z M21.25,0 C23.8733526,0 26,2.12664744 26,4.75 L26,9 L-1.3500312e-13,9 L-1.3500312e-13,4.75 C-1.3500312e-13,2.12664744 2.12664744,0 4.75,0 L21.25,0 Z"/>
                </g>
            </g>
        </g>
    </g>
</svg>