<?xml version="1.0" encoding="UTF-8"?>
<svg xmlns="http://www.w3.org/2000/svg" width="24" height="24" version="1.1" viewBox="0 0 24 24">
  <path fill="#000" fill-rule="nonzero" stroke="none" stroke-width="1" d="M11.7500717,3.62 C14.2690148,3.62 16.4805965,4.96521277 17.7348187,6.99119681 L12.3835907,6.99117347 C11.4368169,6.99117347 10.669305,7.75868533 10.669305,8.70545918 L10.669,20.333 L5.31932124,20.3335696 C2.52838779,20.2868461 0.28,17.959567 0.28,15.0954797 C0.28,12.4346808 2.22054112,10.2371908 4.73384324,9.90118325 C5.19022392,6.35622693 8.15755388,3.62 11.7500717,3.62 Z M17.4924541,8 C17.9092986,8 18.2824194,8.25857283 18.4287833,8.64887656 L19.0036364,10.1818182 L22.64,10.1818182 C23.1922847,10.1818182 23.64,10.6295334 23.64,11.1818182 L23.64,19 C23.64,19.5522847 23.1922847,20 22.64,20 L12.64,20 C12.0877153,20 11.64,19.5522847 11.64,19 L11.64,9 C11.64,8.44771525 12.0877153,8 12.64,8 L17.4924541,8 Z"/>
</svg>