<?xml version="1.0" encoding="utf-8"?>
<!-- Generator: Adobe Illustrator 24.3.0, SVG Export Plug-In . SVG Version: 6.00 Build 0)  -->
<svg version="1.1" id="图层_1" xmlns="http://www.w3.org/2000/svg" xmlns:xlink="http://www.w3.org/1999/xlink" x="0px" y="0px"
	 viewBox="0 0 24 24" style="enable-background:new 0 0 24 24;" xml:space="preserve">
<style type="text/css">
	.st0{fill-rule:evenodd;clip-rule:evenodd;}
</style>
<g>
	<path id="_uxs-a_1_" class="st0" d="M20.1,2.6c0.2,0,0.4,0.2,0.5,0.4l0,0.1l0,1l0,14h1.3c0.1,0,0.3,0.1,0.3,0.1
		c0.2,0.2,0.2,0.4,0.1,0.6l-0.1,0.1L20,21.3c-0.1,0.1-0.2,0.2-0.4,0.2c-0.2,0-0.4-0.2-0.5-0.4l0-0.1l0-14.8l-1.4,0
		c-0.1,0-0.2,0-0.3-0.1c-0.2-0.2-0.2-0.4-0.1-0.6l0.1-0.1l2.4-2.6C19.8,2.6,20,2.6,20.1,2.6z M12.6,18.1c0.4,0,0.8,0.3,0.8,0.8
		s-0.3,0.8-0.8,0.8H2.3c-0.4,0-0.8-0.3-0.8-0.8s0.3-0.8,0.8-0.8H12.6z M15.8,11.3c0.4,0,0.8,0.3,0.8,0.8s-0.3,0.8-0.8,0.8H2.3
		c-0.4,0-0.8-0.3-0.8-0.8s0.3-0.8,0.8-0.8H15.8z M12.6,4.6c0.4,0,0.8,0.3,0.8,0.8S13,6.1,12.6,6.1H2.3c-0.4,0-0.8-0.3-0.8-0.8
		s0.3-0.8,0.8-0.8H12.6z"/>
</g>
</svg>
