<svg id="图层_1" data-name="图层 1" xmlns="http://www.w3.org/2000/svg" viewBox="0 0 24 24"><defs><style>.cls-1{opacity:0.9;}.cls-2{fill:none;}</style></defs><g class="cls-1"><rect class="cls-2" width="24" height="24"/><path d="M10,18.2a.75.75,0,0,1,0,1.5H2.75a.75.75,0,0,1,0-1.5Zm-2.25-7a.75.75,0,0,1,0,1.5h-5a.75.75,0,0,1,0-1.5ZM18,4.1a.75.75,0,0,1,0,1.5H2.75a.75.75,0,0,1,0-1.5Z" transform="translate(0 0)"/><path id="_uxs-a" data-name=" uxs-a" d="M16.5,8.6A5.5,5.5,0,1,1,11,14.1,5.5,5.5,0,0,1,16.5,8.6Zm0,.75a4.75,4.75,0,1,0,4.75,4.75A4.75,4.75,0,0,0,16.5,9.35Zm0,1.15a.38.38,0,0,1,.37.38V14l2.2,2.19a.39.39,0,0,1,0,.53.37.37,0,0,1-.53,0l-2.31-2.3a.39.39,0,0,1-.11-.27V10.88A.38.38,0,0,1,16.5,10.5Z" transform="translate(0 0)"/><path d="M16.5,19.85a5.75,5.75,0,1,1,5.75-5.75A5.76,5.76,0,0,1,16.5,19.85Zm0-11a5.25,5.25,0,1,0,5.25,5.25A5.26,5.26,0,0,0,16.5,8.85Zm0,10.25a5,5,0,1,1,5-5A5,5,0,0,1,16.5,19.1Zm0-9.5A4.5,4.5,0,1,0,21,14.1,4.51,4.51,0,0,0,16.5,9.6ZM18.8,17a.62.62,0,0,1-.44-.18l-2.3-2.31a.61.61,0,0,1-.19-.44V10.88a.63.63,0,1,1,1.25,0v3L19.24,16A.63.63,0,0,1,18.8,17Zm-2.3-6.28a.13.13,0,0,0-.13.13V14.1a.15.15,0,0,0,0,.09l2.3,2.3a.13.13,0,0,0,.18,0,.11.11,0,0,0,0-.17l-2.27-2.27V10.88A.12.12,0,0,0,16.5,10.75Z" transform="translate(0 0)"/></g></svg>