<?xml version="1.0" encoding="UTF-8"?>
<svg xmlns="http://www.w3.org/2000/svg" width="24" height="24" version="1.1" viewBox="0 0 24 24">
  <path fill="#000" fill-rule="evenodd" stroke="none" stroke-width="1" d="M2,15.5 L9.25,15.5 L9.25,22 L4,22 C2.8954305,22 2,21.1045695 2,20 L2,15.5 Z M22,15.5 L22,20 C22,21.1045695 21.1045695,22 20,22 L10.25,22 L10.25,15.5 L22,15.5 Z M22,14.5 L10.25,14.5 L10.25,9 L22,9 L22,14.5 Z M2,9 L9.25,9 L9.25,14.5 L2,14.5 L2,9 Z M20,2 C21.1045695,2 22,2.8954305 22,4 L22,8 L10.25,8 L10.25,2 L20,2 Z M9.25,8 L2,8 L2,4 C2,2.8954305 2.8954305,2 4,2 L9.25,2 L9.25,8 Z"/>
</svg>