<?xml version="1.0" encoding="utf-8"?>
<!-- Generator: Adobe Illustrator 24.3.0, SVG Export Plug-In . SVG Version: 6.00 Build 0)  -->
<svg version="1.1" id="图层_1" xmlns="http://www.w3.org/2000/svg" xmlns:xlink="http://www.w3.org/1999/xlink" x="0px" y="0px"
	 viewBox="0 0 24 24" style="enable-background:new 0 0 24 24;" xml:space="preserve">
<style type="text/css">
	.st0{opacity:0.9;}
	.st1{fill:none;}
	.st2{fill-rule:evenodd;clip-rule:evenodd;}
</style>
<g class="st0">
	<rect y="0" class="st1" width="24" height="24"/>
	<g transform="translate(2.5 1.5)">
		<path d="M15.6,20H2.8c-0.7,0-1.4-0.3-2-0.8C0.3,18.7,0,18,0,17.3v-6.4c0-0.7,0.3-1.4,0.8-2c0.5-0.5,1.2-0.8,2-0.8h4.5l2.1,1.7h6.3
			c0.7,0,1.4,0.3,2,0.8c0.5,0.5,0.8,1.2,0.8,2v4.7c0,0.7-0.3,1.4-0.8,2C17.1,19.7,16.4,20,15.6,20z M2.8,9.4c-0.4,0-0.7,0.1-1,0.4
			c-0.3,0.3-0.4,0.6-0.4,1v6.4c0,0.4,0.1,0.7,0.4,1c0.3,0.3,0.6,0.4,1,0.4h12.9c0.4,0,0.7-0.1,1-0.4c0.3-0.3,0.4-0.6,0.4-1v-4.7
			c0-0.4-0.1-0.7-0.4-1c-0.3-0.3-0.6-0.4-1-0.4H8.9L6.8,9.4H2.8z"/>
		<path class="st2" d="M16.3,2.4l0,7.6h-1.4l0-7.5c0-0.7-0.5-1.2-1.2-1.2H5.1c-0.7,0-1.2,0.5-1.2,1.2l0,5.7H2.5l0-5.8
			C2.5,1.1,3.6,0,5,0h8.9C15.2,0,16.3,1.1,16.3,2.4z"/>
		<path d="M5.8,7h3c0.3,0,0.6-0.3,0.6-0.6c0-0.3-0.3-0.6-0.6-0.6h-3c-0.3,0-0.6,0.3-0.6,0.6C5.2,6.8,5.5,7,5.8,7z"/>
		<path d="M5.8,4.4h7.1c0.3,0,0.6-0.3,0.6-0.6s-0.3-0.6-0.6-0.6H5.8c-0.3,0-0.6,0.3-0.6,0.6S5.5,4.4,5.8,4.4z"/>
	</g>
</g>
</svg>
