<?xml version="1.0" encoding="UTF-8"?>
<svg xmlns="http://www.w3.org/2000/svg" xmlns:xlink="http://www.w3.org/1999/xlink" width="24" height="24" viewBox="0 0 36 36" version="1.1">
    <title>ic_shortcut_gallery</title>
    <g id="_ic_shortcut_gallery" stroke="none" stroke-width="1" fill="none" fill-rule="evenodd">
        <circle id="_椭圆形" fill="#000000" cx="18" cy="18" r="18"/>
        <path d="M12.9163134,28 C11.4822629,28 10.7843408,27.865225 10.0589266,27.4772693 C9.3985956,27.1241204 8.87587962,26.6014044 8.52273075,25.9410734 C8.46359069,25.8304911 8.41241111,25.7256435 8.36620332,25.6186495 L8.36620332,25.6186495 L8.1698636,25.1640257 L8.20306886,25.1293767 C8.06941884,24.627903 8,23.9625402 8,22.8722296 L8,13.1277704 C8,11.3826699 8.17783521,10.7261886 8.51223497,10.08792 L8.53426541,10.0463086 C8.86627892,9.42549731 9.34610464,8.93191931 9.9541436,8.58517358 L10.0463086,8.53426541 C10.6981604,8.18565122 11.3447329,8 13.1277704,8 L22.8722296,8 C24.6173301,8 25.2738114,8.17783521 25.91208,8.51223497 L25.9536914,8.53426541 C26.5745027,8.86627892 27.0680807,9.34610464 27.4148264,9.9541436 L27.4657346,10.0463086 C27.8143488,10.6981604 28,11.3447329 28,13.1277704 L28,19.642 L26.5,18.141 L26.5,13.1277704 C26.5,11.7285842 26.4070984,11.2475003 26.1430148,10.7537069 C25.9342003,10.3632577 25.6367423,10.0657997 25.2462931,9.8569852 C24.7771894,9.60610577 24.319556,9.50971811 23.0753381,9.50070655 L13.0245383,9.50017541 L12.823058,9.501658 C11.6550816,9.5151767 11.2098161,9.61305534 10.7537069,9.8569852 C10.3632577,10.0657997 10.0657997,10.3632577 9.8569852,10.7537069 C9.59290159,11.2475003 9.5,11.7285842 9.5,13.1277704 L9.50017541,22.9754617 L9.501658,23.176942 C9.50433313,23.4080653 9.51031162,23.6108889 9.52007149,23.7910966 L12.2311769,21.0802089 C12.8425314,20.4786014 13.2324512,20.2222995 13.747863,20.06608 C14.2434276,19.9158762 14.7565724,19.9158762 15.2624857,20.0692985 L15.2624857,20.0692985 L15.346174,20.0960881 C15.8161182,20.2541699 16.1985117,20.5183877 16.7791097,21.0903817 L16.7791097,21.0903817 L16.8931669,21.204383 C17.1864195,21.4972075 17.6615802,21.4971545 17.9545102,21.2045215 L17.9545102,21.2045215 L20.7829536,18.3767818 C21.3943081,17.7751743 21.7842279,17.5188724 22.2996397,17.3626529 C22.7952043,17.212449 23.3083491,17.212449 23.8039137,17.3626529 C24.3226475,17.5198792 24.712587,17.7778197 25.3310088,18.3870769 L25.3310088,18.3870769 L28,21.0558052 L28,23.0836866 C28,24.5177371 27.865225,25.2156592 27.4772693,25.9410734 C27.1241204,26.6014044 26.6014044,27.1241204 25.9410734,27.4772693 C25.2571114,27.8430561 24.5975894,27.9837704 23.3224552,27.9986577 L23.3224552,27.9986577 L23.0836866,28 Z M23.3688157,18.7981632 C23.156944,18.7339456 22.9466094,18.7339456 22.7347377,18.7981632 C22.4667877,18.8793778 22.2638532,19.016621 21.7691544,19.5113198 L21.7691544,19.5113198 L19.0148897,22.2654623 C18.1361318,23.1433294 16.7122356,23.1434884 15.8330244,22.2655605 L15.8330244,22.2655605 L15.7225662,22.1551288 C15.2943732,21.7333016 15.0911812,21.5929045 14.8791544,21.5214839 L14.8791544,21.5214839 L14.817039,21.5015903 C14.6051673,21.4373727 14.3948327,21.4373727 14.182961,21.5015903 C13.915011,21.582805 13.7120765,21.7200481 13.2173895,22.2147352 L13.2173895,22.2147352 L9.98094669,25.4519096 C10.0040228,25.4859706 10.0279156,25.5191899 10.0526289,25.5515712 C10.0517255,25.5536276 10.0522383,25.5542925 10.0527515,25.5549571 C10.0854414,25.5945648 10.1197002,25.6360813 10.1554142,25.6761293 C10.1657748,25.6898676 10.1773152,25.702453 10.1889989,25.7148959 L10.1554142,25.6761293 C10.1950818,25.7206108 10.2365447,25.7632809 10.279815,25.8041516 L10.1889989,25.7148959 C10.2262287,25.7545447 10.2649139,25.7927462 10.3050448,25.8294907 L10.279815,25.8041516 C10.4189555,25.9355762 10.5767846,26.0483957 10.7537069,26.1430148 C11.2228106,26.3938942 11.680444,26.4902819 12.9246619,26.4992935 L13.1277704,26.5 L22.8722296,26.5 C24.2714158,26.5 24.7524997,26.4070984 25.2462931,26.1430148 C25.6367423,25.9342003 25.9342003,25.6367423 26.1430148,25.2462931 C26.3938942,24.7771894 26.4902819,24.319556 26.4992935,23.0753381 L26.5,22.8722296 L26.5,22.384 L26.49975,21.677 L24.2743429,19.4517016 C23.8764392,19.0597135 23.6794642,18.9133194 23.4632826,18.830363 L23.4632826,18.830363 L23.4008037,18.80823 Z M14.25,13.25 C15.2164983,13.25 16,14.0335017 16,15 C16,15.9664983 15.2164983,16.75 14.25,16.75 C13.2835017,16.75 12.5,15.9664983 12.5,15 C12.5,14.0335017 13.2835017,13.25 14.25,13.25 Z" id="_形状结合" fill="#FFFFFF" fill-rule="nonzero"/>
    </g>
</svg>