<?xml version="1.0" encoding="UTF-8"?>
<svg xmlns="http://www.w3.org/2000/svg" xmlns:xlink="http://www.w3.org/1999/xlink" width="24" height="24" viewBox="0 0 24 24" version="1.1">
    <title>ic_gallery_discover</title>
    <g id="_ic_gallery_discover" stroke="none" stroke-width="1" fill="none" fill-rule="evenodd">
        <path d="M5.16518419,2.57620554 C5.23032605,2.95027159 5.00619138,3.30782143 4.65406384,3.41955265 L4.55497685,3.44375784 C3.9321692,3.55221689 3.55454772,3.90661575 3.4379025,4.53647027 L3.43725139,4.55328493 L3.43725139,4.55328493 C3.42437048,4.62725138 3.4145892,4.70346756 3.40785028,4.78183766 C3.38220862,5.10885058 3.41562141,5.49810048 3.50863124,5.95193211 C3.8725353,7.72756334 5.14227728,10.0693921 7.10880397,12.4830277 C8.19358498,13.8144442 9.39454932,15.0484395 10.6227984,16.1318566 L11.1506022,16.5868042 C12.174958,17.4493848 13.2093604,18.2030126 14.2029863,18.817298 C15.6239991,19.6927126 16.9453293,20.268214 18.0482214,20.4942445 C18.3798235,20.5622042 18.6769465,20.5983461 18.9407825,20.6033079 C19.1201667,20.6040383 19.2901082,20.5906753 19.4495909,20.5629021 L19.4875445,20.5604034 C20.1024987,20.4386981 20.4493139,20.0627979 20.5563957,19.4478989 C20.6274595,19.0398269 21.0158759,18.7666277 21.423948,18.8376916 C21.8320201,18.9087554 22.1052192,19.2971718 22.0341553,19.7052439 C21.8061982,21.0142491 20.9818536,21.793546 19.775485,22.0238675 C19.7536305,22.0313928 19.7305082,22.0365568 19.7069358,22.0406618 C19.2593937,22.1185992 18.764416,22.1178209 18.2323309,22.0453744 C18.0736593,22.0248062 17.9119702,21.9974981 17.7470657,21.963702 C17.1076557,21.8326591 16.4191403,21.6075572 15.6956888,21.2956156 C14.5520107,21.7499455 13.305207,22 12,22 C6.4771525,22 2,17.5228475 2,12 C2,10.6942816 2.25025042,9.44701238 2.70540536,8.30353815 L2.62295143,8.10358498 L2.62295143,8.10358498 C2.46456454,7.7206948 2.33175211,7.34868568 2.22493063,6.98914092 C1.92536024,5.98589468 1.82469767,5.06997198 1.95949174,4.29593997 C1.9661459,4.25772958 1.97558254,4.22070173 1.98755724,4.18502833 C2.22678482,2.9999799 3.00323112,2.19141206 4.29763188,1.9659982 C4.70570394,1.89493435 5.09412034,2.16813348 5.16518419,2.57620554 Z M3.68695603,10.2194918 C3.56418586,10.7956614 3.5,11.390335 3.5,12 C3.5,16.6944204 7.30557963,20.5 12,20.5 C12.6096278,20.5 13.2042661,20.435822 13.7775271,20.3138536 C13.4079722,20.0951433 13.0331256,19.8591447 12.6546006,19.6054761 C11.425988,18.7839051 10.1774328,17.7899312 8.97495566,16.6678274 C6.79154208,14.6367696 4.94531436,12.364871 3.68695603,10.2194918 Z M12,2 C17.5228475,2 22,6.4771525 22,12 C22,15.0228631 20.6587407,17.7324583 18.5388806,19.5661271 C18.4478876,19.5527016 18.3509766,19.5355652 18.2489751,19.5146606 C17.8026986,19.4231992 17.3060153,19.2626398 16.7714958,19.0371779 C19.0214067,17.5069472 20.5,14.9261456 20.5,12 C20.5,7.30557963 16.6944204,3.5 12,3.5 C9.07428548,3.5 6.49381318,4.97815764 4.96465261,7.22840341 C4.74110179,6.69725335 4.58045586,6.2011114 4.48825273,5.75121601 C4.46690118,5.64703339 4.44953626,5.54843413 4.43601165,5.45550732 C6.27093196,3.33958168 8.97902795,2 12,2 Z" id="_形状" fill="#000000" fill-rule="nonzero"/>
    </g>
</svg>