<?xml version="1.0" encoding="UTF-8"?>
<svg xmlns="http://www.w3.org/2000/svg" xmlns:xlink="http://www.w3.org/1999/xlink" width="24" height="24" viewBox="0 0 24 24" version="1.1">
    <title>ic_gallery_map_all</title>
    <g id="_ic_gallery_map_all" stroke="none" stroke-width="1" fill="none" fill-rule="evenodd">
        <path d="M5.63636364,15 C6.0505772,15 6.38636364,15.3357864 6.38636364,15.75 C6.38636364,16.1296958 6.10420975,16.443491 5.73813419,16.4931534 L5.63636364,16.5 L4.72727273,16.5 C4.54774374,16.5 4.38634514,16.6007107 4.30564347,16.7557157 L4.27230703,16.8375277 L3.49959097,19.3874908 C3.29938264,20.0481782 3.67267475,20.7460722 4.33336223,20.9462805 C4.41172296,20.9700262 4.49213157,20.9859863 4.57342147,20.9939879 L4.69587147,21 L19.3041285,21 C19.9944845,21 20.5541285,20.4403559 20.5541285,19.75 C20.5541285,19.6681204 20.5460836,19.5865389 20.5301668,19.5064219 L20.500409,19.3874908 L19.727693,16.8375277 C19.6756282,16.6657141 19.5324388,16.5404586 19.3606912,16.5081777 L19.2727273,16.5 L18.3636364,16.5 C17.9494228,16.5 17.6136364,16.1642136 17.6136364,15.75 C17.6136364,15.3703042 17.8957902,15.056509 18.2618658,15.0068466 L18.3636364,15 L19.2727273,15 C20.0886541,15 20.8144567,15.5006226 21.1099658,16.2495048 L21.1632296,16.4025166 L21.9359456,18.9524797 C22.0143064,19.2110701 22.0541285,19.4797975 22.0541285,19.75 C22.0541285,21.2125318 20.9124239,22.4084043 19.4716509,22.4949812 L19.3041285,22.5 L4.69587147,22.5 C4.42566893,22.5 4.15694156,22.4601778 3.89835114,22.3818171 C2.50074301,21.9582995 1.68770386,20.5224776 2.0187957,19.1204889 L2.06405436,18.9524797 L2.83677043,16.4025166 C3.07339524,15.6216548 3.76299144,15.0722283 4.56538981,15.0066002 L4.72727273,15 L5.63636364,15 Z M11.7975225,1.25085807 L12.2439562,1.25394848 C16.1315708,1.37997006 19.25,4.50675407 19.25,8.35379227 C19.25,11.1056989 17.9296696,13.4164318 15.2885088,16.3891034 C14.8021682,16.9364881 14.1465879,17.5613377 13.3196253,18.2677225 C12.5884061,18.892324 11.5144019,18.911706 10.7484962,18.3068075 L10.7484962,18.3068075 L10.6907629,18.2588049 L10.2269045,17.8537692 L9.84358852,17.5111192 L9.5098281,17.2038661 L9.22494777,16.9312238 L9.22494777,16.9312238 L9.10062655,16.8076362 L8.88779977,16.5854368 L8.70997876,16.3877421 C6.13794093,13.5053134 4.75,11.0544352 4.75,8.35379227 C4.75,4.45652153 7.85456848,1.31333062 11.7975225,1.25085807 L11.7975225,1.25085807 Z M12,2.75 L11.8126173,2.75075695 C8.69623866,2.80017294 6.25,5.27684407 6.25,8.35379227 C6.25,10.5818274 7.48397494,12.7608267 9.82718789,15.3868251 L9.82718789,15.3868251 L9.99752872,15.5762613 L10.1815199,15.7676592 L10.4165269,15.9970641 L10.8636258,16.4112057 L11.2240398,16.7331699 L11.6909508,17.1399739 C11.8824841,17.2911843 12.1592227,17.2861901 12.3453799,17.1271761 C13.1240754,16.4620208 13.7320521,15.8825433 14.1671674,15.3928135 C16.5811328,12.6758543 17.75,10.6301997 17.75,8.35379227 C17.75,5.26276982 15.1793986,2.75 12,2.75 L12,2.75 Z M11.9451446,6.02700444 C13.0497141,6.02700444 13.9451446,6.92243494 13.9451446,8.02700444 C13.9451446,9.13157394 13.0497141,10.0270044 11.9451446,10.0270044 C10.8405751,10.0270044 9.94514455,9.13157394 9.94514455,8.02700444 C9.94514455,6.92243494 10.8405751,6.02700444 11.9451446,6.02700444 Z" id="_形状结合" fill="#000000" fill-rule="nonzero"/>
    </g>
</svg>