<?xml version="1.0" encoding="UTF-8"?>
<svg xmlns="http://www.w3.org/2000/svg" xmlns:xlink="http://www.w3.org/1999/xlink" width="24" height="24" viewBox="0 0 24 24" version="1.1">
    <title>ic_gallery_blur_actived</title>
    <g id="_ic_gallery_blur_actived" stroke="none" stroke-width="1" fill="none" fill-rule="evenodd">
        <path d="M12,0.75 L11.7334486,0.751140931 C6.70791088,0.83109938 2.75,4.85298088 2.75,9.83935235 C2.75,13.3093683 4.54095381,16.4835288 7.86894106,20.2268459 L8.10085655,20.485626 L8.32434386,20.721199 L8.59168343,20.9877802 L8.90326504,21.2858246 L9.25947845,21.6157876 L9.66071345,21.9781243 L10.1073598,22.3732899 L10.509368,22.7211442 C11.420977,23.4437182 12.7041229,23.4204767 13.576813,22.6722914 C14.6507653,21.7515573 15.5007016,20.9384839 16.1287501,20.2290058 C19.5470643,16.3674899 21.25,13.376196 21.25,9.83935235 C21.25,4.81620272 17.1054507,0.75 12,0.75 Z" id="_路径" fill="#000000" fill-rule="nonzero" transform="translate(12.000000, 11.999292) scale(1, -1) translate(-12.000000, -11.999292) "/>
    </g>
</svg>