<?xml version="1.0" encoding="UTF-8"?>
<svg xmlns="http://www.w3.org/2000/svg" xmlns:xlink="http://www.w3.org/1999/xlink" width="24" height="24" viewBox="0 0 24 24" version="1.1">
    <title>ic_cloud_synchronization</title>
    <g id="_ic_cloud_synchronization" stroke="none" stroke-width="1" fill="none" fill-rule="evenodd">
        <path d="M11,3.2 C14.2200221,3.2 17.0230387,5.16293984 18.204346,8.00368738 C18.136791,8.00098422 18.0685104,8 18,8 C17.4894306,8 16.9916282,8.05466223 16.5121259,8.15845372 C15.4781478,6.15242152 13.3824449,4.8 11,4.8 C7.82296034,4.8 5.16849071,7.20171408 4.83511668,10.3355881 C4.82895903,10.3934728 4.81677259,10.449256 4.79924805,10.5023795 C4.76766731,10.7774624 4.59479412,11.0295195 4.32252171,11.1483003 C2.80310089,11.8111588 1.80010129,13.3135609 1.80010129,15.0001013 C1.80010129,17.2494065 3.56826819,19.0857341 5.79047893,19.1949612 L6.00010129,19.2001013 L12.4011202,19.202173 C12.8679907,19.8232308 13.4357915,20.3640943 14.0801639,20.8004048 L6.00010129,20.8001013 C2.79684974,20.8001013 0.200101292,18.2033528 0.200101292,15.0001013 C0.200101292,12.8240513 1.40974742,10.8696321 3.28007459,9.87618712 C3.82861425,6.07405813 7.10113705,3.2 11,3.2 Z M18,9 C19.2413422,9 20.3946382,9.37697069 21.3516545,10.0226786 C21.3768978,10.0400883 21.4018283,10.0571152 21.4265937,10.0743024 C21.4516718,10.0915446 21.4768712,10.1093948 21.5019259,10.1274334 L21.6030921,10.2015731 C21.6642553,10.2478844 21.7246679,10.2951544 21.7841358,10.3435407 C22.107323,10.6047029 22.3967737,10.8948944 22.6519171,11.2080178 C22.7834947,11.3694957 22.9059483,11.5370722 23.0190555,11.7099169 C23.027122,11.7233269 23.0353775,11.7360016 23.0435863,11.7487094 C23.1099653,11.8508458 23.1729459,11.955647 23.2325866,12.0621068 C23.6408992,12.7876309 23.9024876,13.6062077 23.9776151,14.4780861 C24.0345701,15.1229225 23.987727,15.7800978 23.8302226,16.4238059 L23.7610028,16.675 L23.7771013,16.615 L23.755482,16.7009586 L23.7470028,16.724 L23.6934612,16.8984299 C23.6839085,16.9255792 23.6744178,16.953273 23.6647125,16.9809268 C23.6479017,17.0306634 23.6299596,17.0798739 23.6113966,17.1287787 C23.595306,17.169005 23.5795578,17.2090575 23.5633484,17.2490098 C23.4984289,17.4117394 23.4256158,17.5710162 23.3462297,17.7263759 C23.329132,17.7573487 23.3128214,17.7885918 23.2962083,17.8197495 C23.2808946,17.8508272 23.2643836,17.8811383 23.2476203,17.9112898 C23.2301729,17.9404991 23.2133041,17.9702924 23.1961524,18 L23.1877719,18.016423 C22.8718032,18.5586679 22.4732538,19.0468783 22.0093586,19.4638192 C21.9493568,19.5177479 21.8575444,19.5905688 21.7339214,19.682282 L21.6352339,19.7546012 C21.456385,19.8842684 21.2062832,19.8443988 21.076616,19.6655499 C21.027117,19.5972764 21.0004625,19.5151051 21.0004605,19.4307759 L21,17.1 C21,16.7686292 21.2686292,16.5 21.6,16.5 L22.2435316,16.4998736 C22.4183402,16.0070797 22.5021238,15.4971222 22.5007344,14.9918406 C22.5,14.8259269 22.4901161,14.6541623 22.470879,14.4852368 C22.4103851,13.9646856 22.2597548,13.457239 22.0254587,12.9875055 L21.9880028,12.915 L21.9770028,12.893 L21.9605923,12.8618912 L21.9661013,12.874 L21.9460028,12.836 L21.9190028,12.788 L21.8847791,12.7272365 L21.8776621,12.7152364 L21.8210028,12.623 L21.7796507,12.5560704 L21.7636266,12.5322706 C21.4464827,12.0495623 21.0389739,11.631526 20.5651594,11.3022209 L20.5120028,11.266 L20.4895723,11.2508154 L20.4580543,11.230514 L20.4410028,11.219 L20.4330028,11.214 L20.4340028,11.214 L20.4240028,11.208 L20.4241013,11.208 L20.3910028,11.187 L20.1998586,11.0734427 C19.5494235,10.7082531 18.7990318,10.5 18,10.5 C17.5857864,10.5 17.25,10.1642136 17.25,9.75 C17.25,9.33578644 17.5857864,9 18,9 Z M15.7295624,18.8843064 L15.6371013,18.827 L15.801058,18.9261548 C16.4514931,19.2913445 17.2018848,19.4995975 18.0009166,19.4995975 C18.4151302,19.4995975 18.7509166,19.835384 18.7509166,20.2495975 C18.7509166,20.6638111 18.4151302,20.9995975 18.0009166,20.9995975 C16.7595744,20.9995975 15.6062784,20.6226269 14.6492621,19.9769189 C14.6240188,19.9595092 14.5990883,19.9424823 14.5743229,19.9252952 C14.5492448,19.9080529 14.5240454,19.8902028 14.4989907,19.8721642 C14.4647151,19.8475819 14.4311091,19.8229525 14.3978245,19.7980244 C14.3366613,19.7517131 14.2762487,19.7044432 14.2167808,19.6560569 C13.8935936,19.3948946 13.6041429,19.1047032 13.3489995,18.7915797 C13.2174219,18.6301019 13.0949683,18.4625253 12.9818611,18.2896807 C12.9737946,18.2762706 12.9655391,18.2635959 12.9573303,18.2508882 C12.8909513,18.1487517 12.8279706,18.0439505 12.76833,17.9374908 C12.3600174,17.2119666 12.098429,16.3933898 12.0233015,15.5215114 C11.9661166,14.8740662 12.0135707,14.2141795 12.1726122,13.5679753 L12.2081013,13.432 L12.1980028,13.469 L12.2423927,13.3089823 L12.2590028,13.253 L12.3007005,13.1215578 C12.3140072,13.0826477 12.3273637,13.0436053 12.3411468,13.0046432 C12.3559905,12.9608306 12.3718378,12.9174896 12.3881674,12.8743857 C12.404186,12.8342508 12.4200339,12.7938705 12.4363503,12.7535919 C12.5017897,12.5893767 12.5749703,12.4292127 12.6547956,12.2730088 L12.7089862,12.1718394 C12.7228037,12.1436698 12.7378667,12.1160638 12.7531393,12.0885902 C12.7707437,12.0590985 12.7876125,12.0293052 12.8047642,11.9995975 L12.813832,11.9819953 C13.1322799,11.4357818 13.5345332,10.9444251 14.0029683,10.5255491 C14.0613022,10.4733867 14.1503648,10.402945 14.2701561,10.3142239 L14.3656981,10.2441686 C14.5446803,10.1145747 14.7948307,10.1546119 14.9244245,10.3335942 C14.9738455,10.4018496 15.0004541,10.4839664 15.0004561,10.5682353 L15.0009166,12.8995975 C15.0009166,13.2309684 14.7322874,13.4995975 14.4009166,13.4995975 L13.757385,13.4997239 C13.5825764,13.9925178 13.4987928,14.5024753 13.5001822,15.0077569 C13.5009166,15.1736707 13.5108005,15.3454353 13.5300376,15.5143608 C13.5804492,15.9481534 13.6934555,16.3728457 13.8653119,16.7741964 L13.9754579,17.012092 L14.0120028,17.084 L14.0403243,17.1377064 L14.0811233,17.2114602 L14.1160028,17.272 L14.1232544,17.2843612 L14.1792076,17.3765762 L14.2212659,17.4435271 L14.2212659,17.4435271 L14.2521013,17.49 L14.23729,17.4673269 C14.5091276,17.8810769 14.8473558,18.2473128 15.2368235,18.5508835 L15.4357572,18.6973766 L15.5113443,18.7487822 L15.5680028,18.785 L15.5711013,18.787 L15.5428623,18.7690836 L15.5880188,18.7986829 L15.5771013,18.791 L15.6352744,18.8276633 C15.6663917,18.8468694 15.6978216,18.8657527 15.7295624,18.8843064 Z" id="_形状结合" fill="#000000" fill-rule="nonzero"/>
    </g>
</svg>