<?xml version="1.0" encoding="UTF-8"?>
<svg xmlns="http://www.w3.org/2000/svg" xmlns:xlink="http://www.w3.org/1999/xlink" width="24" height="24" viewBox="0 0 36 36" version="1.1">
    <title>ic_shortcut_favorite</title>
    <g id="_ic_shortcut_favorite" stroke="none" stroke-width="1" fill="none" fill-rule="evenodd">
        <circle id="_椭圆形" fill="#000000" cx="18" cy="18" r="18"/>
        <path d="M8.83666388,10.9457527 C11.170238,8.63200749 14.796944,8.38184155 17.4101493,10.1952549 C17.7267375,10.4161666 18.0293619,10.6657693 18.3117448,10.9457527 L18.1701338,10.8104561 C18.1911349,10.8294095 18.2123021,10.8491084 18.2336294,10.869568 L18.3117448,10.9457527 C19.1966008,11.8230899 19.846199,12.4895771 20.263834,12.9490846 C20.5390658,13.2519114 20.5145918,13.7186245 20.2091698,13.9915176 C19.9037478,14.2644106 19.4330349,14.2401446 19.1578031,13.9373178 L19.0167914,13.7839123 C18.6173398,13.3537149 18.030624,12.7547026 17.258958,11.9895937 L17.0761793,11.8167941 C15.0309338,9.97359803 11.86463,10.0311979 9.88945065,11.9895937 C7.97509573,13.8876819 8.05995646,16.9162169 9.93668935,19.3972647 C10.5593469,20.2204202 11.5335011,21.2747381 12.7913069,22.4856291 L12.7913069,22.4856291 L12.8309747,22.523674 C13.4107766,23.0777416 14.4734458,24.0083358 16.0129468,25.3096068 L16.0129468,25.3096068 L17.0422213,26.1753456 C17.5961959,26.6392684 18.4066912,26.64001 18.9613806,26.1772251 L18.9613806,26.1772251 L19.9021779,25.3887674 C21.4192708,24.110957 22.4795793,23.1833751 23.0776837,22.6113375 L23.0776837,22.6113375 L23.337814,22.3609076 C24.5328568,21.2026868 25.4618526,20.1923944 26.0633107,19.3972647 C27.9400435,16.9162169 28.0249043,13.8876819 26.1105493,11.9895937 C24.425519,10.3188814 21.8736076,10.0315377 19.8903896,11.1275623 C19.6063785,10.8401667 19.3139487,10.5476526 19.0136027,10.2498587 C18.9451429,10.1819807 18.8756618,10.1156594 18.8052062,10.0508951 C21.3985593,8.3969063 24.8929646,8.69467313 27.1633361,10.9457527 C29.6509062,13.4121853 29.5431663,17.2572396 27.2544029,20.2829931 L27.2544029,20.2829931 L27.1832189,20.3762251 C26.4832021,21.2847679 25.4386744,22.4043216 24.1113405,23.6738073 L24.1113405,23.6738073 L24.0638212,23.7190923 C23.4028525,24.34679 22.2687969,25.3354362 20.6557776,26.6907797 L20.6557776,26.6907797 L19.9201322,27.3066313 C18.8104573,28.2324481 17.1894663,28.230965 16.0815167,27.3031191 C13.9942565,25.5551554 12.5833347,24.3325486 11.838682,23.625539 L11.838682,23.625539 L11.6197655,23.4149319 C10.3750787,22.2085247 9.3987126,21.1464142 8.74559709,20.2829931 C6.45683374,17.2572396 6.34909382,13.4121853 8.83666388,10.9457527 Z" id="_形状结合" fill="#FFFFFF" fill-rule="nonzero"/>
    </g>
</svg>