<?xml version="1.0" encoding="UTF-8"?>
<svg xmlns="http://www.w3.org/2000/svg" xmlns:xlink="http://www.w3.org/1999/xlink" width="24" height="24" viewBox="0 0 24 24" version="1.1">
    <title>ic_gallery_nocloud_light</title>
    <g id="_ic_gallery_nocloud_light" stroke="none" stroke-width="1" fill="none" fill-rule="evenodd">
        <path d="M2.41083098,1.64705176 L2.49494941,1.71966991 L5.74331805,4.96924775 L5.746,4.966 L20.9858091,20.2054171 C20.984463,20.206191 20.9831165,20.2069643 20.9817697,20.2077372 L22.2803301,21.5050506 C22.5732233,21.7979438 22.5732233,22.2728175 22.2803301,22.5657108 C22.0140635,22.8319773 21.5973998,22.8561834 21.3037883,22.6383289 L21.2196699,22.5657108 L19.471705,20.8181506 C19.0706111,20.9193004 18.6534541,20.9800634 18.2248116,20.9958615 L17.9998734,21.0001266 L6,21.0001266 C2.6862915,21.0001266 -3.62376795e-13,18.3138351 -3.62376795e-13,15.0001266 C-3.62376795e-13,12.7834704 1.21341914,10.7890971 3.09794349,9.74738444 C3.31506178,8.36380244 3.88464264,7.10322777 4.70933121,6.05594442 L1.43428924,2.78033009 C1.14139602,2.48743687 1.14139602,2.01256313 1.43428924,1.71966991 C1.7005558,1.45340335 2.11721948,1.4291973 2.41083098,1.64705176 Z M10.9998734,3 C14.7111864,3 17.8823055,5.5423317 18.759995,9.04794617 C21.7146595,9.42106743 23.9998734,11.9436636 23.9998734,15 C23.9998734,16.8619494 23.1517476,18.5258084 21.8207462,19.6263267 L6.54767492,4.35293984 C7.82405599,3.49704601 9.35779601,3 10.9998734,3 Z" id="_形状结合" fill="#000000" fill-rule="nonzero"/>
    </g>
</svg>