<?xml version="1.0" encoding="UTF-8"?>
<svg xmlns="http://www.w3.org/2000/svg" xmlns:xlink="http://www.w3.org/1999/xlink" width="24" height="24" viewBox="0 0 24 24" version="1.1">
    <title>xxhdpi/ic/navigation/discover_action</title>
    <g id="_ic/navigation/discover_action" stroke="none" stroke-width="1" fill="none" fill-rule="evenodd">
        <path d="M5.16518419,2.57620554 C5.23624804,2.98427759 4.96304891,3.37269399 4.55497685,3.44375784 C3.9321692,3.55221689 3.55454772,3.90661575 3.4379025,4.53647027 C3.43899888,4.54293531 3.43815283,4.54810854 3.43725139,4.55328493 C3.42437048,4.62725138 3.4145892,4.70346756 3.40785028,4.78183766 C3.38220862,5.10885058 3.41562141,5.49810048 3.50863124,5.95193211 C3.54511141,6.1299332 3.59069469,6.31362422 3.64517049,6.50250713 C5.43384045,3.79000295 8.50788143,2 12,2 C17.5228475,2 22,6.4771525 22,12 C22,15.4934009 20.2086822,18.5684171 17.4944766,20.3566187 C17.6844704,20.4116699 17.8692229,20.45756 18.0482214,20.4942445 C18.3798235,20.5622042 18.6769465,20.5983461 18.9407825,20.6033079 C19.1201667,20.6040383 19.2901082,20.5906753 19.4495909,20.5629021 L19.4875445,20.5604034 C20.1024987,20.4386981 20.4493139,20.0627979 20.5563957,19.4478989 C20.6274595,19.0398269 21.0158759,18.7666277 21.423948,18.8376916 C21.8320201,18.9087554 22.1052192,19.2971718 22.0341553,19.7052439 C21.8061982,21.0142491 20.9818536,21.793546 19.775485,22.0238675 C19.7536305,22.0313928 19.7305082,22.0365568 19.7069358,22.0406618 C19.2593937,22.1185992 18.764416,22.1178209 18.2323309,22.0453744 C18.0736593,22.0248062 17.9119702,21.9974981 17.7470657,21.963702 C17.1079497,21.8327193 16.4197735,21.6077641 15.6966867,21.2960458 C14.5527602,21.7497952 13.3055993,22 12,22 C6.4771525,22 2,17.5228475 2,12 C2,10.6936626 2.25048777,9.4458297 2.70605288,8.3019118 C2.69534176,8.27681017 2.6845619,8.25159383 2.67388823,8.22642072 C2.65704016,8.18562529 2.6398572,8.14455349 2.62295143,8.10358498 C2.46456454,7.7206948 2.33175211,7.34868568 2.22493063,6.98914092 C1.92536024,5.98589468 1.82469767,5.06997198 1.95949174,4.29593997 C1.9661459,4.25772958 1.97558254,4.22070173 1.98755724,4.18502833 C2.22678482,2.9999799 3.00323112,2.19141206 4.29763188,1.9659982 C4.70570394,1.89493435 5.09412034,2.16813348 5.16518419,2.57620554 Z" id="_形状结合" fill="#0A59F7" fill-rule="nonzero"/>
        <path d="M14.1611475,0.693450886 C14.4999477,0.931751675 14.5814186,1.3995845 14.3431179,1.73838475 C14.1048171,2.077185 13.6369842,2.15865591 13.298184,1.92035512 C12.7811003,1.55665574 12.2634838,1.54023486 11.7356288,1.90312864 C11.7318326,1.90847538 11.7275763,1.91153515 11.7232786,1.914558 C11.6618682,1.957752 11.6010589,2.00472857 11.5408777,2.05537946 C11.2915133,2.26848112 11.0398984,2.56734877 10.7847589,2.95402408 C9.78651702,4.466904 9.02843718,7.02067017 8.71228342,10.1179126 C8.53788579,11.8264223 8.51452941,13.5481987 8.61694105,15.1827936 L8.66845815,15.8777037 C8.78285052,17.2119693 8.98138812,18.4762975 9.2496224,19.6132626 C9.63541863,21.2370819 10.1627992,22.5783444 10.782834,23.5180346 C10.9692573,23.8005674 11.1537988,24.0362214 11.3368505,24.22629 C11.4631778,24.3536503 11.5927937,24.4643681 11.7252035,24.5575007 L11.7538077,24.5825712 C12.2747046,24.9313508 12.7857416,24.9107846 13.2962591,24.5517036 C13.6350593,24.3134028 14.1028921,24.3948737 14.3411929,24.733674 C14.5794937,25.0724742 14.4980228,25.540307 14.1592226,25.7786078 C13.072426,26.5430242 11.9384803,26.5111707 10.922587,25.8210012 C10.9018123,25.8108689 10.8818109,25.7981704 10.86224,25.7844049 C10.4906699,25.5230549 10.1412181,25.1725025 9.8162046,24.7450341 C9.71855078,24.6182924 9.62352898,24.4846512 9.53082136,24.3441487 C8.69288484,23.0742187 8.02767025,21.2542194 7.59742234,19.0757146 C7.30960039,17.6260158 7.12958429,16.0403083 7.07275172,14.3965814 C6.95054222,11.0160185 7.35429518,7.72312263 8.16357569,5.15584429 C8.17689191,5.11403755 8.18997096,5.07295453 8.2031506,5.03207808 C8.22581244,4.9617731 8.24905642,4.89140831 8.27261163,4.82162961 C8.28666426,4.77960887 8.3007473,4.7383442 8.31493581,4.69730598 C8.38074322,4.50781456 8.44914936,4.32162121 8.51986105,4.14024893 C8.54162463,4.08331056 8.56380614,4.02744223 8.58620012,3.97207796 C8.60313345,3.93131785 8.62002542,3.89012551 8.63704034,3.84920222 C8.79578814,3.46646153 8.96492574,3.10949879 9.14362809,2.77972806 C9.64120206,1.85849758 10.217678,1.13966324 10.8603151,0.687653763 C10.8920391,0.665340143 10.9248945,0.645830208 10.9585868,0.629072693 C11.965702,-0.0397236416 13.0864762,-0.0624370006 14.1611475,0.693450886 Z" id="_形状结合" fill-opacity="0.8" fill="#FFFFFF" fill-rule="nonzero" transform="translate(10.765490, 13.236041) rotate(-45.000000) translate(-10.765490, -13.236041) "/>
    </g>
</svg>