<?xml version="1.0" encoding="UTF-8"?>
<svg xmlns="http://www.w3.org/2000/svg" xmlns:xlink="http://www.w3.org/1999/xlink" width="24" height="24" viewBox="0 0 36 36" version="1.1">
    <title>ic_shortcut_discover</title>
    <g id="_ic_shortcut_discover" stroke="none" stroke-width="1" fill="none" fill-rule="evenodd">
        <circle id="_椭圆形" fill="#000000" cx="18" cy="18" r="18"/>
        <path d="M11.2644546,8.62145105 C11.3295965,8.9955171 11.1054618,9.35306694 10.7533343,9.46479816 L10.6542473,9.48900336 C10.0314396,9.59746241 9.65381816,9.95186126 9.53717294,10.5817158 L9.53652183,10.5985304 L9.53652183,10.5985304 C9.52364092,10.6724969 9.51385964,10.7487131 9.50712072,10.8270832 C9.48147906,11.1540961 9.51489185,11.543346 9.60790168,11.9971776 C9.97180574,13.7728089 11.2415477,16.1146376 13.2080744,18.5282733 C14.2928554,19.8596898 15.4938198,21.093685 16.7220688,22.1771021 L17.2498726,22.6320497 C18.2742285,23.4946304 19.3086308,24.2482581 20.3022568,24.8625436 C21.7232696,25.7379581 23.0445998,26.3134595 24.1474919,26.5394901 C24.4790939,26.6074497 24.776217,26.6435917 25.0400529,26.6485534 C25.2194371,26.6492838 25.3893787,26.6359208 25.5488613,26.6081477 L25.586815,26.605649 C26.2017692,26.4839437 26.5485843,26.1080434 26.6556661,25.4931445 C26.72673,25.0850724 27.1151464,24.8118733 27.5232184,24.8829371 C27.9312905,24.954001 28.2044896,25.3424174 28.1334258,25.7504894 C27.9054686,27.0594947 27.081124,27.8387915 25.8747555,28.069113 C25.8529009,28.0766383 25.8297786,28.0818023 25.8062063,28.0859073 C25.3586641,28.1638447 24.8636864,28.1630664 24.3316014,28.0906199 C24.1729298,28.0700517 24.0112406,28.0427436 23.8463361,28.0089475 C23.2069261,27.8779046 22.5184108,27.6528027 21.7949593,27.3408611 C20.6512811,27.7951911 19.4044775,28.0452455 18.0992704,28.0452455 C12.5764229,28.0452455 8.09927044,23.568093 8.09927044,18.0452455 C8.09927044,16.7395271 8.34952086,15.4922579 8.8046758,14.3487837 L8.72222187,14.1488305 L8.72222187,14.1488305 C8.56383498,13.7659403 8.43102255,13.3939312 8.32420107,13.0343864 C8.02463068,12.0311402 7.92396811,11.1152175 8.05876218,10.3411855 C8.06541634,10.3029751 8.07485298,10.2659472 8.08682768,10.2302738 C8.32605527,9.04522541 9.10250156,8.23665758 10.3969023,8.01124371 C10.8049744,7.94017986 11.1933908,8.21337899 11.2644546,8.62145105 Z M9.78622647,16.2647374 C9.6634563,16.840907 9.59927044,17.4355805 9.59927044,18.0452455 C9.59927044,22.7396659 13.4048501,26.5452455 18.0992704,26.5452455 C18.7088983,26.5452455 19.3035365,26.4810675 19.8767975,26.3590991 C19.5072427,26.1403888 19.132396,25.9043902 18.7538711,25.6507216 C17.5252584,24.8291506 16.2767033,23.8351767 15.0742261,22.7130729 C12.8908125,20.6820152 11.0445848,18.4101165 9.78622647,16.2647374 Z M18.0992704,8.04524552 C23.6221179,8.04524552 28.0992704,12.522398 28.0992704,18.0452455 C28.0992704,21.0681086 26.7580111,23.7777038 24.6381511,25.6113726 C24.547158,25.5979471 24.450247,25.5808107 24.3482455,25.5599061 C23.901969,25.4684447 23.4052857,25.3078853 22.8707663,25.0824234 C25.1206772,23.5521927 26.5992704,20.9713911 26.5992704,18.0452455 C26.5992704,13.3508251 22.7936908,9.54524552 18.0992704,9.54524552 C15.1735559,9.54524552 12.5930836,11.0234032 11.0639231,13.2736489 C10.8403722,12.7424989 10.6797263,12.2463569 10.5875232,11.7964615 C10.5661716,11.6922789 10.5488067,11.5936796 10.5352821,11.5007528 C12.3702024,9.3848272 15.0782984,8.04524552 18.0992704,8.04524552 Z" id="_形状" fill="#FFFFFF" fill-rule="nonzero"/>
    </g>
</svg>