<?xml version="1.0" encoding="UTF-8"?>
<svg xmlns="http://www.w3.org/2000/svg" xmlns:xlink="http://www.w3.org/1999/xlink" width="24" height="24" viewBox="0 0 24 24" version="1.1">
    <title>ic_gallery_blur</title>
    <g id="_ic_gallery_blur" stroke="none" stroke-width="1" fill="none" fill-rule="evenodd">
        <path d="M12,0.75 L11.7334486,0.751140931 C6.70791088,0.83109938 2.75,4.85298088 2.75,9.83935235 C2.75,13.3093683 4.54095381,16.4835288 7.86894106,20.2268459 L8.10085655,20.485626 L8.32434386,20.721199 L8.59168343,20.9877802 L8.90326504,21.2858246 L9.25947845,21.6157876 L9.66071345,21.9781243 L10.1073598,22.3732899 L10.509368,22.7211442 C11.420977,23.4437182 12.7041229,23.4204767 13.576813,22.6722914 C14.6507653,21.7515573 15.5007016,20.9384839 16.1287501,20.2290058 C19.5470643,16.3674899 21.25,13.376196 21.25,9.83935235 C21.25,4.81620272 17.1054507,0.75 12,0.75 Z M11.8859001,2.2499763 L12,2.2499763 C16.2833634,2.2499763 19.75,5.65110493 19.75,9.83935235 C19.75,12.9021711 18.197831,15.6286355 15.0055957,19.2347602 C14.4286634,19.8864947 13.6262559,20.6541008 12.6005016,21.5335131 C12.2735456,21.813823 11.7903355,21.8225753 11.4539143,21.5560034 L10.8755765,21.051076 L10.2853201,20.5212694 L9.94841019,20.2097067 L9.52863979,19.8056388 L9.30626605,19.578919 C9.27305484,19.5439989 9.24177307,19.5105165 9.21242661,19.4784787 L8.98797346,19.2279678 C5.88770541,15.74078 4.25,12.8382262 4.25,9.83935235 C4.25,5.75540729 7.42012378,2.45236677 11.5004142,2.25895838 L11.8859001,2.2499763 Z" id="_路径" fill="#000000" fill-rule="nonzero" transform="translate(12.000000, 11.999292) scale(1, -1) translate(-12.000000, -11.999292) "/>
    </g>
</svg>