<?xml version="1.0" encoding="UTF-8"?>
<svg xmlns="http://www.w3.org/2000/svg" xmlns:xlink="http://www.w3.org/1999/xlink" width="24" height="24" viewBox="0 0 24 24" version="1.1">
    <title>ic_gallery_list_damage</title>
    <g id="_ic_gallery_list_damage" stroke="none" stroke-width="1" fill="none" fill-rule="evenodd">
        <path d="M10.5591027,1.99930272 C10.3921613,2.47010039 10.3413254,2.98513372 10.4289133,3.49976572 L6,3.5 C4.64269002,3.5 3.53801707,4.5816677 3.50096045,5.93002379 L3.5,18 C3.5,18.1451278 3.51236621,18.2873672 3.53610241,18.4257222 C3.99288241,17.935332 4.45924552,17.451792 4.93560727,16.9741019 C5.81819873,16.0890491 6.72795791,15.2312526 7.66486792,14.4007264 C8.4530612,13.7020301 9.45853963,13.3965717 10.4362945,13.4767815 L11.1262383,15.1995502 C10.3360829,14.8028689 9.3562527,14.9059001 8.65988519,15.5231972 C7.74598164,16.3333292 6.85860657,17.1700202 5.99774328,18.0332841 C5.41237019,18.6202897 4.84259323,19.216235 4.28840558,19.8211225 C4.72060698,20.2279849 5.29581487,20.4816097 5.93002379,20.4990396 L10.5190312,20.4997775 C10.4911434,20.6646867 10.477033,20.8320053 10.477033,21.0000031 C10.477033,21.3506053 10.5371758,21.6871604 10.6477072,22 L6,22 C5.04647647,22 4.17087884,21.6663596 3.48358031,21.1094521 L3.31547941,20.9657732 L3.11675914,20.772841 L2.93699393,20.5728654 L2.77715031,20.3697844 C2.68398179,20.2431883 2.59796285,20.1108129 2.51985258,19.9733563 L2.47923825,19.9001103 C2.17359856,19.3350633 2,18.6878047 2,18 L2,6 C2,3.790861 3.790861,2 6,2 L10.5591027,1.99930272 Z M18,2.00000307 C20.209139,2.00000307 22,3.79086407 22,6.00000307 L22,18.0000031 C22,20.2091421 20.209139,22.0000031 18,22.0000031 L13.477033,22.0000031 C12.9247482,22.0000031 12.477033,21.5522878 12.477033,21.0000031 C12.477033,20.8727836 12.5013082,20.7467327 12.5485563,20.6286124 L13.8514437,17.3713937 C13.9468081,17.1329827 13.9468081,16.8670234 13.8514437,16.6286124 L12.1667789,12.4169504 C12.0606957,12.1517424 12.0730873,11.8538284 12.2008284,11.5983462 L13.8147581,8.37048694 C13.9333665,8.1332701 13.952883,7.85865204 13.8690142,7.60704558 L12.4387426,3.31623084 C12.2640948,2.79228752 12.5472548,2.22596755 13.0711981,2.05131977 C13.1731646,2.01733095 13.2799438,2.00000307 13.3874259,2.00000307 L18,2.00000307 Z M18,3.50000307 L14.081,3.50000307 L15.2920391,7.13270393 C15.480744,7.69881846 15.4600935,8.31153149 15.2379125,8.86074065 L15.1563988,9.04130734 L13.643,12.0680031 L15.2441588,16.0715264 C15.4560797,16.6013287 15.4796265,17.1855473 15.3147991,17.7274421 L15.2441588,17.9284798 L14.215,20.5000031 L18,20.5000031 C19.3254834,20.5000031 20.4100387,19.4684671 20.4946823,18.1643788 L20.5,18.0000031 L20.5,6.00000307 C20.5,4.67451967 19.4684641,3.5899644 18.1643757,3.50532075 L18,3.50000307 Z M8.25,7.25 C9.21649831,7.25 10,8.03350169 10,9 C10,9.96649831 9.21649831,10.75 8.25,10.75 C7.28350169,10.75 6.5,9.96649831 6.5,9 C6.5,8.03350169 7.28350169,7.25 8.25,7.25 Z" id="_形状结合" fill="#000000" fill-rule="nonzero"/>
    </g>
</svg>