<?xml version="1.0" encoding="UTF-8"?>
<svg xmlns="http://www.w3.org/2000/svg" xmlns:xlink="http://www.w3.org/1999/xlink" width="24" height="24" version="1.1" viewBox="0 0 46 46">
  <defs>
    <path id="_uxs-a" d="M1.68442077,19.55 C2.61470068,19.55 3.36884154,20.3223088 3.36884154,21.275 C3.36884154,28.8965295 9.40196848,35.075 16.8442077,35.075 C19.1684888,35.075 21.355329,34.4723697 23.2638728,33.4113579 C23.156927,34.6550663 23.2256399,35.9121594 23.4682125,37.1404003 C21.9267493,37.815887 20.2666579,38.2630829 18.528868,38.4398033 L18.5286285,44.275 C18.5286285,45.2276912 17.7744876,46 16.8442077,46 C15.9471521,46 15.2138788,45.281871 15.1626464,44.3763569 L15.159787,44.275 L15.1595474,38.4398033 C6.64774051,37.5742151 0,30.2196416 0,21.275 C0,20.3223088 0.754140867,19.55 1.68442077,19.55 Z M16.8442077,-1.49213975e-13 C21.7186568,-1.49213975e-13 25.6863703,3.97572245 25.824088,8.93348327 L25.8277852,9.2 L25.8277852,21.275 C25.8277852,26.3560197 21.8057005,30.475 16.8442077,30.475 C11.9697586,30.475 8.00204518,26.4992776 7.86432746,21.5415167 L7.86063027,21.275 L7.86063027,9.2 C7.86063027,4.1189803 11.8827149,-1.49213975e-13 16.8442077,-1.49213975e-13 Z M16.8442077,3.45 C13.8153894,3.45 11.3467104,5.90601719 11.2335262,8.97944429 L11.2294718,9.2 L11.2294718,21.275 C11.2294718,24.4506373 13.7432747,27.025 16.8442077,27.025 C19.873026,27.025 22.341705,24.5689828 22.4548892,21.4955557 L22.4589436,21.275 L22.4589436,9.2 C22.4589436,6.02436269 19.9451407,3.45 16.8442077,3.45 Z M32.0039947,19.55 C32.9342746,19.55 33.6884154,20.3223088 33.6884154,21.275 C33.6884154,21.4182595 33.6867102,21.5611112 33.6833193,21.7035348 C32.4939057,21.9219793 31.3293039,22.3154389 30.2282963,22.8828062 C30.2887871,22.3565246 30.3195739,21.8194442 30.3195739,21.275 C30.3195739,20.3223088 31.0737148,19.55 32.0039947,19.55 Z"/>
  </defs>
  <g fill="none" fill-rule="evenodd" stroke="none" stroke-width="1">
    <path fill="#000" d="M28.8516464,41.8160185 C24.9287233,37.7985886 24.9287233,31.2850478 28.8516464,27.2676179 C32.7745695,23.250188 39.1348846,23.250188 43.0578077,27.2676179 C46.9807308,31.2850478 46.9807308,37.7985886 43.0578077,41.8160185 C39.1348846,45.8334484 32.7745695,45.8334484 28.8516464,41.8160185 Z M38.0140906,35.2300233 L40.3021932,37.5746626 L40.3391899,37.6146508 C40.6844922,38.0087009 40.6721599,38.6151392 40.3021932,38.9940188 C39.9489093,39.3558136 39.3930078,39.383644 39.008552,39.0775099 L38.9162263,38.9940188 L36.6280906,36.6500233 L38.0140906,35.2300233 Z M32.9721007,38.975665 C32.5893765,39.3676094 31.968858,39.3676094 31.5861338,38.975665 C31.2161671,38.5967855 31.2038348,37.9903472 31.5491371,37.596297 L31.5861338,37.5563089 L34.5490906,34.5210233 L31.6040558,31.5056915 L31.5670591,31.4657033 C31.2217568,31.0716532 31.234089,30.4652149 31.6040558,30.0863353 C31.9573397,29.7245405 32.5132412,29.6967101 32.897697,30.0028442 L32.9900227,30.0863353 L35.9350906,33.1020233 L38.8983043,30.0679816 C39.2810285,29.6760372 39.901547,29.6760372 40.2842712,30.0679816 C40.654238,30.4468611 40.6665702,31.0532994 40.3212679,31.4473496 L40.2842712,31.4873377 L37.3210906,34.5210233 L37.3220906,34.5210233 L35.9350906,35.9410233 L32.9721007,38.975665 Z"/>
    <use fill="#000" fill-rule="nonzero" xlink:href="#_uxs-a"/>
  </g>
</svg>