<?xml version="1.0" encoding="UTF-8"?>
<svg xmlns="http://www.w3.org/2000/svg" xmlns:xlink="http://www.w3.org/1999/xlink" width="24" height="24" version="1.1" viewBox="0 0 24 24">
  <defs>
    <path id="_uxs-a" d="M9.8792369,3.65670982 C10.1989375,3.87340977 10.5846854,4 11,4 C11.4143227,4 11.7992197,3.87401372 12.1184713,3.65826092 L15,9.24887892 L18.184068,6.8392356 C18.5013289,7.52457445 19.1951437,8 20,8 C20.0983521,8 20.195046,7.99290074 20.2895974,7.97918671 L18.3481847,15.2040827 C18.142779,15.968587 17.4497404,16.5 16.6581229,16.5 L5.35484426,16.5 C4.55717305,16.5 3.860437,15.9605892 3.66063302,15.1883472 L1.79791476,7.98991682 C1.86437115,7.99658506 1.93178677,8 2,8 C2.81865387,8 3.52242638,7.50813443 3.83191493,6.80380587 L7,9.24887892 L9.8792369,3.65670982 Z"/>
  </defs>
  <g fill="none" fill-rule="evenodd" stroke="none" stroke-width="1" opacity=".9" transform="translate(1 3)">
    <use fill="#000" fill-rule="nonzero" opacity=".2" xlink:href="#_uxs-a"/>
    <path fill="#000" fill-rule="nonzero" d="M4.75,19 C4.33578644,19 4,18.6642136 4,18.25 C4,17.8357864 4.33578644,17.5 4.75,17.5 L17.25,17.5 C17.6642136,17.5 18,17.8357864 18,18.25 C18,18.6642136 17.6642136,19 17.25,19 L4.75,19 Z" opacity=".4"/>
    <path fill="#000" fill-rule="nonzero" d="M20,8 C18.8954305,8 18,7.1045695 18,6 C18,4.8954305 18.8954305,4 20,4 C21.1045695,4 22,4.8954305 22,6 C22,7.1045695 21.1045695,8 20,8 Z" opacity=".4"/>
    <path fill="#000" fill-rule="nonzero" d="M2,8 C0.8954305,8 0,7.1045695 0,6 C0,4.8954305 0.8954305,4 2,4 C3.1045695,4 4,4.8954305 4,6 C4,7.1045695 3.1045695,8 2,8 Z" opacity=".4"/>
    <path fill="#000" fill-rule="nonzero" d="M11,4 C9.8954305,4 9,3.1045695 9,2 C9,0.8954305 9.8954305,0 11,0 C12.1045695,0 13,0.8954305 13,2 C13,3.1045695 12.1045695,4 11,4 Z" opacity=".4"/>
  </g>
</svg>