<?xml version="1.0" encoding="UTF-8"?>
<svg xmlns="http://www.w3.org/2000/svg" xmlns:xlink="http://www.w3.org/1999/xlink" width="24" height="24" version="1.1" viewBox="0 0 24 24">
  <defs>
    <path id="_uxs-a" d="M4.65752812,1.26874988 C5.51628753,0.369366701 7.85501844,-0.0201373922 11.499909,0.00079935121 C15.1447996,-0.0201373922 17.4835306,0.369366701 18.34229,1.26874988 C18.9802323,1.93687023 20.3720039,5.23321362 20.4146267,5.36291636 C21.0765384,5.54143891 21.6501075,5.8431156 22.135334,6.26794643 C22.8631738,6.90519268 22.9984923,7.46620129 22.9998661,7.62625307 C23.0104048,9.20687779 22.3958661,15.2485901 22.2478604,15.6079169 C22.0703357,16.0389096 19.8560574,16.1496691 18.7926611,15.7625285 C18.5182259,15.6594541 18.3810083,15.3086687 18.3810083,14.7101723 L18.3810083,14.43363 L4.47411679,14.43363 L4.47411679,14.7101723 C4.47411679,15.3086687 4.33689921,15.6594541 4.06246405,15.7625285 C2.99906773,16.1496691 0.784789365,16.0389096 0.607264659,15.6079169 C0.434989539,15.1896691 -0.00813557827,8.84870867 0.000113627543,7.62625307 C0.00132581225,7.46620129 0.309220996,6.76236876 0.873927141,6.26794643 C1.2503979,5.93833155 1.82081932,5.63665486 2.58519138,5.36291636 C2.62542679,5.2404786 4.01493119,1.94174498 4.65752812,1.26874988 Z"/>
  </defs>
  <g fill="none" fill-rule="evenodd" stroke="none" stroke-width="1" transform="translate(.5 4)">
    <use fill="#000" opacity=".2" xlink:href="#_uxs-a"/>
    <path fill="#000" d="M15.5021872,11.9589935 C15.7871595,11.9589935 16.0181751,11.7321753 16.0181751,11.4523808 C16.0181751,11.1725863 15.7871595,10.9457681 15.5021872,10.9457681 L7.21449525,10.9457681 C6.92952301,10.9457681 6.69850736,11.1725863 6.69850736,11.4523808 C6.69850736,11.7321753 6.92952301,11.9589935 7.21449525,11.9589935 L15.5021872,11.9589935 Z" opacity=".25"/>
    <path fill="#000" d="M5.92452554,11.7056872 L5.92452554,11.1990744 C5.92452554,10.9192799 5.69350989,10.6924617 5.40853765,10.6924617 L3.08659217,10.4391553 C2.80161993,10.4391553 2.57060429,10.6659736 2.57060429,10.9457681 L2.57060429,11.7056872 C2.57060429,11.9854816 2.80161993,12.2122999 3.08659217,12.2122999 L5.40853765,12.2122999 C5.69350989,12.2122999 5.92452554,11.9854816 5.92452554,11.7056872 Z" opacity=".25"/>
    <path fill="#000" d="M20.1460782,11.7056872 L20.1460782,10.9457681 C20.1460782,10.6659736 19.9150625,10.4391553 19.6300903,10.4391553 L17.3081448,10.6924617 C17.0231726,10.6924617 16.7921569,10.9192799 16.7921569,11.1990744 L16.7921569,11.7056872 C16.7921569,11.9854816 17.0231726,12.2122999 17.3081448,12.2122999 L19.6300903,12.2122999 C19.9150625,12.2122999 20.1460782,11.9854816 20.1460782,11.7056872 Z" opacity=".25"/>
    <path fill="#000" d="M4.24113553,5.95060988 C6.91958418,5.64403138 9.16408088,5.49074213 10.9746256,5.49074213 C13.8940973,5.49074213 15.8445002,5.66774298 18.8331863,6.02163523 C18.8331863,6.02163523 17.8068151,3.23643625 16.9584617,2.3479514 C16.5372984,1.90686486 14.6816217,1.57705995 11.5601558,1.55883975 C8.43868979,1.54061954 6.44969175,1.90686486 6.02852842,2.3479514 C5.46295953,2.94027463 4.8671619,4.14116079 4.24113553,5.95060988 Z" opacity=".25"/>
  </g>
</svg>