<?xml version="1.0" encoding="UTF-8"?>
<svg xmlns="http://www.w3.org/2000/svg" width="24" height="24" version="1.1" viewBox="0 0 24 24">
  <g fill="#000" fill-rule="evenodd" stroke="none" stroke-width="1" opacity=".9" transform="translate(2 2)">
    <rect width="20" height="1.5" x="0" y="0" rx=".75"/>
    <path d="M19,0.75 L19,11.5 C19,13.709139 17.209139,15.5 15,15.5 L13.541,15.499 L12.042,14 L15,14 C16.3254834,14 17.4100387,12.9684641 17.4946823,11.6643757 L17.5,11.5 L17.5,1.25 L2.5,1.25 L2.5,11.5 C2.5,12.8254834 3.53153594,13.9100387 4.83562431,13.9946823 L5,14 L10.628,14 L13.5719805,16.9445436 L13.572,16.943 L15.4011309,18.7729708 C15.6673975,19.0392373 15.6916036,19.455901 15.4737491,19.7495125 L15.4011309,19.8336309 C15.1348644,20.0998975 14.7182007,20.1241036 14.4245892,19.9062491 L14.3404708,19.8336309 L10.0978301,15.5909903 C10.0694478,15.562608 10.0438159,15.5325169 10.0209343,15.5010482 L9.97802674,15.5010482 C9.95514514,15.5325169 9.9295132,15.562608 9.90113094,15.5909903 L5.65849026,19.8336309 C5.36559704,20.1265242 4.8907233,20.1265242 4.59783009,19.8336309 C4.30493687,19.5407377 4.30493687,19.065864 4.59783009,18.7729708 L7.87,15.5 L5,15.5 C2.790861,15.5 1,13.709139 1,11.5 L1,0.75 L19,0.75 Z"/>
    <path fill-rule="nonzero" d="M14.0924662,4.47188282 C14.3841373,4.17777253 14.8590069,4.17579514 15.1531172,4.4674662 C15.4204902,4.73262171 15.446431,5.14918099 15.2298011,5.44369709 L15.1575338,5.52811718 L11.8370529,8.87636718 C11.7243908,8.98997143 11.5791631,9.06381388 11.4231811,9.0888067 L11.3045191,9.09825 L7.738,9.098 L5.90158204,10.9090518 C5.63344688,11.1734366 5.21662305,11.1947076 4.9245531,10.9747908 L4.84094817,10.901582 C4.57656342,10.6334469 4.55529235,10.2166231 4.7752092,9.9245531 L4.84841796,9.84094817 L6.90391825,7.81419817 C7.01618745,7.70349929 7.15970552,7.63171179 7.31352832,7.60742474 L7.4305003,7.59825 L10.991,7.598 L14.0924662,4.47188282 Z"/>
  </g>
</svg>