<?xml version="1.0" encoding="utf-8"?>
<!-- Generator: Adobe Illustrator 24.3.0, SVG Export Plug-In . SVG Version: 6.00 Build 0)  -->
<svg version="1.1" id="图层_1" xmlns="http://www.w3.org/2000/svg" xmlns:xlink="http://www.w3.org/1999/xlink" x="0px" y="0px"
	 viewBox="0 0 24 24" style="enable-background:new 0 0 24 24;" xml:space="preserve">
<style type="text/css">
	.st0{fill-rule:evenodd;clip-rule:evenodd;fill-opacity:0.2;}
	.st1{opacity:0.4;fill-rule:evenodd;clip-rule:evenodd;enable-background:new    ;}
	.st2{opacity:0.25;enable-background:new    ;}
</style>
<g transform="translate(1 3)">
	<path class="st0" d="M19,2.5c1.7,0,3,1.3,3,3v9c0,1.7-1.3,3-3,3H3c-1.7,0-3-1.3-3-3v-9c0-1.7,1.3-3,3-3H19z"/>
	<path class="st1" d="M14.1,0c0.7,0,1.3,0.3,1.6,0.9l1.1,1.6H5.1l1.1-1.6C6.6,0.3,7.2,0,7.9,0H14.1z"/>
	<path class="st2" d="M11,14.8c-2.6,0-4.8-2.1-4.8-4.8S8.4,5.3,11,5.3s4.8,2.1,4.8,4.8S13.6,14.8,11,14.8z M11,6.8
		c-1.8,0-3.2,1.5-3.2,3.2s1.5,3.2,3.2,3.2s3.2-1.5,3.2-3.2S12.8,6.8,11,6.8z"/>
</g>
</svg>
