<?xml version="1.0" encoding="UTF-8"?>
<svg xmlns="http://www.w3.org/2000/svg" width="24" height="24" version="1.1" viewBox="0 0 24 24">
  <g fill="#000" fill-rule="evenodd" stroke="none" stroke-width="1" opacity=".9" transform="translate(1.5 1)">
    <path d="M10.5,0 C8.23596342,0 6.39844747,1.76 6.39844747,3.92852778 L6.43098681,4.22705556 C5.77477669,3.78705556 4.97118248,3.53588889 4.10123352,3.53588889 C1.83751595,3.53588889 0,5.29588889 0,7.46411111 C0,9.03588889 0.967886006,10.3714722 2.34602297,11 C0.967886006,11.6285278 0,12.9641111 0,14.5355833 C0,16.7041111 1.83751595,18.4641111 4.10123352,18.4641111 C4.97118248,18.4641111 5.75850702,18.2126389 6.43098681,17.7729444 L6.39844747,18.0714722 C6.39844747,20.24 8.23596342,22 10.5,22 C12.7640366,22 14.6015525,20.24 14.6015525,18.0714722 L14.5686942,17.7729444 C15.2252233,18.2126389 16.0291365,18.4641111 16.8984475,18.4641111 C19.162484,18.4641111 21,16.7041111 21,14.5355833 C21,12.9641111 20.032114,11.6285278 18.653977,11 C20.032114,10.3714722 21,9.03588889 21,7.46411111 C21,5.29588889 19.162484,3.53588889 16.8984475,3.53588889 C16.0291365,3.53588889 15.241493,3.78705556 14.5686942,4.22705556 L14.6015525,3.92852778 C14.6015525,1.76 12.7640366,0 10.5,0" opacity=".2"/>
    <path fill-rule="nonzero" d="M13.5273973,11 C13.5273973,12.65675 12.1780137,14 10.5136986,14 C8.84938356,14 7.5,12.65675 7.5,11 C7.5,9.34325 8.84938356,8 10.5136986,8 C12.1780137,8 13.5273973,9.34325 13.5273973,11 Z" opacity=".25"/>
  </g>
</svg>