<?xml version="1.0" encoding="UTF-8"?>
<svg xmlns="http://www.w3.org/2000/svg" width="24" height="24" version="1.1" viewBox="0 0 24 24">
  <g fill="#000" fill-rule="evenodd" stroke="none" stroke-width="1">
    <path d="M16.5,3.25 C18.4406524,3.25 20.058519,4.63201038 20.4231075,6.4655389 L19,7.874 L19,7.25 C19,5.86928813 17.8807119,4.75 16.5,4.75 L7,4.75 C5.6745166,4.75 4.58996133,5.78153594 4.50531768,7.08562431 L4.5,7.25 L4.5,16.75 C4.5,18.0754834 5.53153594,19.1600387 6.83562431,19.2446823 L7,19.25 L16.5,19.25 C17.8254834,19.25 18.9100387,18.2184641 18.9946823,16.9143757 L19,16.75 L19,12.793 L20.5,11.309 L20.5,16.75 C20.5,18.959139 18.709139,20.75 16.5,20.75 L7,20.75 C4.790861,20.75 3,18.959139 3,16.75 L3,7.25 C3,5.040861 4.790861,3.25 7,3.25 L16.5,3.25 Z M20.5,7.796 L20.5,9.901 L19,11.386 L19,9.283 L20.5,7.796 Z"/>
    <path d="M6.75,7.25 L11,7.25 C11.4142136,7.25 11.75,7.58578644 11.75,8 C11.75,8.41421356 11.4142136,8.75 11,8.75 L6.75,8.75 C6.33578644,8.75 6,8.41421356 6,8 C6,7.58578644 6.33578644,7.25 6.75,7.25 Z"/>
    <path d="M6.75,14.75 L16,14.75 C16.4142136,14.75 16.75,15.0857864 16.75,15.5 C16.75,15.9142136 16.4142136,16.25 16,16.25 L6.75,16.25 C6.33578644,16.25 6,15.9142136 6,15.5 C6,15.0857864 6.33578644,14.75 6.75,14.75 Z"/>
    <path d="M6.75,11 L11.25,11 C11.6642136,11 12,11.3357864 12,11.75 C12,12.1642136 11.6642136,12.5 11.25,12.5 L6.75,12.5 C6.33578644,12.5 6,12.1642136 6,11.75 C6,11.3357864 6.33578644,11 6.75,11 Z"/>
    <path fill-rule="nonzero" d="M19.6527839,4.27825239 C20.0522041,4.27825239 20.3786991,4.59048238 20.4015107,4.98418419 L20.4027839,5.02825239 L20.4027839,11.4184174 C20.4027839,12.3647804 19.651588,13.1356921 18.7129463,13.1674027 L18.6527839,13.1684174 L14.9874925,13.1684174 C14.573279,13.1684174 14.2374925,12.832631 14.2374925,12.4184174 C14.2374925,12.0189972 14.5497225,11.6925022 14.9434244,11.6696906 L14.9874925,11.6684174 L18.6527839,11.6684174 C18.7809928,11.6684174 18.8866606,11.5719074 18.9011019,11.4475727 L18.9027839,11.4184174 L18.9027839,5.02825239 C18.9027839,4.61403883 19.2385703,4.27825239 19.6527839,4.27825239 Z" transform="rotate(45 17.32 8.723)"/>
  </g>
</svg>