<?xml version="1.0" encoding="UTF-8"?>
<svg xmlns="http://www.w3.org/2000/svg" xmlns:xlink="http://www.w3.org/1999/xlink" width="24" height="24" viewBox="0 0 24 24" version="1.1">
    <title>Public/ic_public_voice_filled</title>
    <defs>
        <path d="M18.75,10.25 C19.3022847,10.25 19.75,10.6977153 19.75,11.25 C19.75,15.1912355 16.8080258,18.4453362 13.0003445,18.9360348 L13,21 C13,21.5522847 12.5522847,22 12,22 C11.4644512,22 11.0272303,21.5790079 11.0012238,21.0499101 L11,21 L11.0006622,18.9361644 C7.19249276,18.4459097 4.25,15.1915829 4.25,11.25 C4.25,10.6977153 4.69771525,10.25 5.25,10.25 C5.80228475,10.25 6.25,10.6977153 6.25,11.25 C6.25,14.4256373 8.82436269,17 12,17 C15.1438809,17 17.6984526,14.4768671 17.7492297,11.3450868 L17.75,11.25 C17.75,10.6977153 18.1977153,10.25 18.75,10.25 Z M12,2 C14.209139,2 16,3.790861 16,6 L16,6 L16,11.25 C16,13.459139 14.209139,15.25 12,15.25 C9.790861,15.25 8,13.459139 8,11.25 L8,11.25 L8,6 C8,3.790861 9.790861,2 12,2 Z" id="_path-1"/>
    </defs>
    <g id="_Public/ic_public_voice_filled" stroke="none" stroke-width="1" fill="none" fill-rule="evenodd">
        <mask id="_mask-2" fill="white">
            <use xlink:href="#_path-1"/>
        </mask>
        <use id="_形状结合" fill="#000000" fill-rule="nonzero" xlink:href="#_path-1"/>
    </g>
</svg>