<?xml version="1.0" encoding="UTF-8"?>
<svg xmlns="http://www.w3.org/2000/svg" xmlns:xlink="http://www.w3.org/1999/xlink" width="24" height="24" viewBox="0 0 24 24" version="1.1">
    <title>Public/ic_public_storage</title>
    <defs>
        <path d="M18.25,2.25 C20.3210678,2.25 22,3.92893219 22,6 C22,7.22721641 21.4104959,8.31674676 20.4992136,9.00086515 C21.4104959,9.68325324 22,10.7727836 22,12 C22,13.2272164 21.4104959,14.3167468 20.4992136,15.0008651 C21.4104959,15.6832532 22,16.7727836 22,18 C22,20.0710678 20.3210678,21.75 18.25,21.75 L5.75,21.75 C3.67893219,21.75 2,20.0710678 2,18 C2,16.7727836 2.58950409,15.6832532 3.50078638,14.9991349 C2.58950409,14.3167468 2,13.2272164 2,12 C2,10.7727836 2.58950409,9.68325324 3.50078638,8.99913485 C2.58950409,8.31674676 2,7.22721641 2,6 C2,3.92893219 3.67893219,2.25 5.75,2.25 L18.25,2.25 Z M18.25,15.75 L5.75,15.75 C4.50735931,15.75 3.5,16.7573593 3.5,18 C3.5,19.190864 4.42516159,20.1656449 5.59595119,20.2448092 L5.75,20.25 L18.25,20.25 C19.4926407,20.25 20.5,19.2426407 20.5,18 C20.5,16.809136 19.5748384,15.8343551 18.4040488,15.7551908 L18.25,15.75 Z M5.75,16.75 C6.44035594,16.75 7,17.3096441 7,18 C7,18.6903559 6.44035594,19.25 5.75,19.25 C5.05964406,19.25 4.5,18.6903559 4.5,18 C4.5,17.3096441 5.05964406,16.75 5.75,16.75 Z M18.25,9.75 L5.75,9.75 C4.50735931,9.75 3.5,10.7573593 3.5,12 C3.5,13.190864 4.42516159,14.1656449 5.59595119,14.2448092 L5.75,14.25 L18.25,14.25 C19.4926407,14.25 20.5,13.2426407 20.5,12 C20.5,10.809136 19.5748384,9.83435508 18.4040488,9.75519081 L18.25,9.75 Z M5.75,10.75 C6.44035594,10.75 7,11.3096441 7,12 C7,12.6903559 6.44035594,13.25 5.75,13.25 C5.05964406,13.25 4.5,12.6903559 4.5,12 C4.5,11.3096441 5.05964406,10.75 5.75,10.75 Z M18.25,3.75 L5.75,3.75 C4.50735931,3.75 3.5,4.75735931 3.5,6 C3.5,7.19086399 4.42516159,8.16564492 5.59595119,8.24480919 L5.75,8.25 L18.25,8.25 C19.4926407,8.25 20.5,7.24264069 20.5,6 C20.5,4.80913601 19.5748384,3.83435508 18.4040488,3.75519081 L18.25,3.75 Z M5.75,4.75 C6.44035594,4.75 7,5.30964406 7,6 C7,6.69035594 6.44035594,7.25 5.75,7.25 C5.05964406,7.25 4.5,6.69035594 4.5,6 C4.5,5.30964406 5.05964406,4.75 5.75,4.75 Z" id="_path-1"/>
    </defs>
    <g id="_Public/ic_public_storage" stroke="none" stroke-width="1" fill="none" fill-rule="evenodd">
        <mask id="_mask-2" fill="white">
            <use xlink:href="#_path-1"/>
        </mask>
        <use id="_形状结合" fill="#000000" fill-rule="nonzero" xlink:href="#_path-1"/>
    </g>
</svg>