<?xml version="1.0" encoding="UTF-8"?>
<svg xmlns="http://www.w3.org/2000/svg" xmlns:xlink="http://www.w3.org/1999/xlink" width="24" height="24" viewBox="0 0 24 24" version="1.1">
    <title>Public/ic_public_app_filled</title>
    <defs>
        <path d="M7.36710401,12.75 C8.55605717,12.75 9.10734318,12.8974289 9.62499024,13.1742696 C10.1426373,13.4511103 10.5488897,13.8573627 10.8257304,14.3750098 L10.8776917,14.4757818 C11.1209805,14.9664447 11.25,15.5206495 11.25,16.632896 L11.25,17.867104 C11.25,19.0560572 11.1025711,19.6073432 10.8257304,20.1249902 C10.5488897,20.6426373 10.1426373,21.0488897 9.62499024,21.3257304 L9.52421823,21.3776917 C9.03355532,21.6209805 8.47935051,21.75 7.36710401,21.75 L6.13289599,21.75 C4.94394283,21.75 4.39265682,21.6025711 3.87500976,21.3257304 C3.35736271,21.0488897 2.95111026,20.6426373 2.67426959,20.1249902 L2.62230832,20.0242182 C2.38740875,19.5504747 2.25903377,19.017496 2.25045963,17.9801936 L2.25,16.632896 C2.25,15.4439428 2.39742891,14.8926568 2.67426959,14.3750098 C2.95111026,13.8573627 3.35736271,13.4511103 3.87500976,13.1742696 L3.97578177,13.1223083 C4.44952527,12.8874087 4.98250402,12.7590338 6.01980637,12.7504596 L7.36710401,12.75 Z M17.867104,12.75 C19.0560572,12.75 19.6073432,12.8974289 20.1249902,13.1742696 C20.6426373,13.4511103 21.0488897,13.8573627 21.3257304,14.3750098 L21.3776917,14.4757818 C21.6209805,14.9664447 21.75,15.5206495 21.75,16.632896 L21.75,17.867104 C21.75,19.0560572 21.6025711,19.6073432 21.3257304,20.1249902 C21.0488897,20.6426373 20.6426373,21.0488897 20.1249902,21.3257304 L20.0242182,21.3776917 C19.5335553,21.6209805 18.9793505,21.75 17.867104,21.75 L16.632896,21.75 C15.4439428,21.75 14.8926568,21.6025711 14.3750098,21.3257304 C13.8573627,21.0488897 13.4511103,20.6426373 13.1742696,20.1249902 L13.1223083,20.0242182 C12.8874087,19.5504747 12.7590338,19.017496 12.7504596,17.9801936 L12.75,16.632896 C12.75,15.4439428 12.8974289,14.8926568 13.1742696,14.3750098 C13.4511103,13.8573627 13.8573627,13.4511103 14.3750098,13.1742696 L14.4757818,13.1223083 C14.9495253,12.8874087 15.482504,12.7590338 16.5198064,12.7504596 L17.867104,12.75 Z M7.36710401,2.25 C8.55605717,2.25 9.10734318,2.39742891 9.62499024,2.67426959 C10.1426373,2.95111026 10.5488897,3.35736271 10.8257304,3.87500976 L10.8776917,3.97578177 C11.1209805,4.46644468 11.25,5.02064949 11.25,6.13289599 L11.25,7.36710401 C11.25,8.55605717 11.1025711,9.10734318 10.8257304,9.62499024 C10.5488897,10.1426373 10.1426373,10.5488897 9.62499024,10.8257304 L9.52421823,10.8776917 C9.03355532,11.1209805 8.47935051,11.25 7.36710401,11.25 L6.13289599,11.25 C4.94394283,11.25 4.39265682,11.1025711 3.87500976,10.8257304 C3.35736271,10.5488897 2.95111026,10.1426373 2.67426959,9.62499024 L2.62230832,9.52421823 C2.38740875,9.05047473 2.25903377,8.51749598 2.25045963,7.48019363 L2.25,6.13289599 C2.25,4.94394283 2.39742891,4.39265682 2.67426959,3.87500976 C2.95111026,3.35736271 3.35736271,2.95111026 3.87500976,2.67426959 L3.97578177,2.62230832 C4.44952527,2.38740875 4.98250402,2.25903377 6.01980637,2.25045963 L7.36710401,2.25 Z M17.867104,2.25 C19.0560572,2.25 19.6073432,2.39742891 20.1249902,2.67426959 C20.6426373,2.95111026 21.0488897,3.35736271 21.3257304,3.87500976 L21.3776917,3.97578177 C21.6209805,4.46644468 21.75,5.02064949 21.75,6.13289599 L21.75,7.36710401 C21.75,8.55605717 21.6025711,9.10734318 21.3257304,9.62499024 C21.0488897,10.1426373 20.6426373,10.5488897 20.1249902,10.8257304 L20.0242182,10.8776917 C19.5335553,11.1209805 18.9793505,11.25 17.867104,11.25 L16.632896,11.25 C15.4439428,11.25 14.8926568,11.1025711 14.3750098,10.8257304 C13.8573627,10.5488897 13.4511103,10.1426373 13.1742696,9.62499024 L13.1223083,9.52421823 C12.8874087,9.05047473 12.7590338,8.51749598 12.7504596,7.48019363 L12.75,6.13289599 C12.75,4.94394283 12.8974289,4.39265682 13.1742696,3.87500976 C13.4511103,3.35736271 13.8573627,2.95111026 14.3750098,2.67426959 L14.4757818,2.62230832 C14.9495253,2.38740875 15.482504,2.25903377 16.5198064,2.25045963 L17.867104,2.25 Z" id="_path-1"/>
    </defs>
    <g id="_Public/ic_public_app_filled" stroke="none" stroke-width="1" fill="none" fill-rule="evenodd">
        <mask id="_mask-2" fill="white">
            <use xlink:href="#_path-1"/>
        </mask>
        <use id="_形状结合" fill="#000000" xlink:href="#_path-1"/>
    </g>
</svg>