<?xml version="1.0" encoding="UTF-8"?>
<svg xmlns="http://www.w3.org/2000/svg" xmlns:xlink="http://www.w3.org/1999/xlink" width="24" height="24" viewBox="0 0 24 24" version="1.1">
    <title>Public/ic_public_highlight</title>
    <defs>
        <path d="M12,1 C18.0751322,1 23,5.92486775 23,12 C23,18.0751322 18.0751322,23 12,23 C5.92486775,23 1,18.0751322 1,12 C1,5.92486775 5.92486775,1 12,1 Z M12,2.5 C6.75329488,2.5 2.5,6.75329488 2.5,12 C2.5,17.2467051 6.75329488,21.5 12,21.5 C17.2467051,21.5 21.5,17.2467051 21.5,12 C21.5,6.75329488 17.2467051,2.5 12,2.5 Z M10.5428039,6.04038218 C10.9399901,5.23559498 11.9143821,4.90516911 12.7191693,5.30235534 C13.0396398,5.46051698 13.2990345,5.7199117 13.4571961,6.04038218 L13.4571961,6.04038218 L14.692,8.543 L17.4553991,8.9452467 C18.2941937,9.06713068 18.8896769,9.80942006 18.8445354,10.6397045 L18.8445354,10.6397045 L18.8298383,10.7870304 C18.7784484,11.1406905 18.6119068,11.467547 18.3559959,11.7169984 L18.3559959,11.7169984 L16.356,13.665 L16.8288182,16.417168 C16.9721014,17.2525732 16.4501567,18.0482915 15.6465598,18.2619313 L15.6465598,18.2619313 L15.5019029,18.2934797 C15.1496718,18.3538921 14.7873486,18.2965057 14.4710253,18.1302047 L14.4710253,18.1302047 L12,16.831 L9.52897465,18.1302047 C8.778734,18.5246296 7.86067116,18.2741211 7.40916251,17.5758734 L7.40916251,17.5758734 L7.33445676,17.4480455 C7.16815577,17.1317222 7.11076942,16.7693991 7.17118179,16.417168 L7.17118179,16.417168 L7.643,13.665 L5.64400414,11.7169984 C5.03914691,11.1274083 4.99191863,10.181394 5.51072194,9.53634779 L5.51072194,9.53634779 L5.6146328,9.4190891 C5.86408428,9.16317819 6.1909407,8.99663653 6.54460088,8.9452467 L6.54460088,8.9452467 L9.307,8.543 Z M12.1659621,6.42327543 C11.980242,6.33161707 11.7553823,6.4078692 11.663724,6.59358932 L11.663724,6.59358932 L10.3991275,9.15594169 C10.2352577,9.4879781 9.91849643,9.71811864 9.5520725,9.77136316 L9.5520725,9.77136316 L6.72434877,10.1822555 C6.64273489,10.1941147 6.56730648,10.2325473 6.50974075,10.2916037 C6.3651778,10.4399101 6.36821241,10.6773275 6.51651876,10.8218905 L6.51651876,10.8218905 L8.56267887,12.8164036 C8.82782571,13.0748579 8.94881776,13.4472332 8.88622508,13.8121765 L8.88622508,13.8121765 L8.4031922,16.6284743 C8.38925088,16.7097584 8.40249389,16.7933714 8.44087104,16.8663691 C8.53724634,17.0496858 8.76398152,17.1201658 8.94729824,17.0237905 L8.94729824,17.0237905 L11.4764912,15.694115 C11.8042308,15.5218121 12.1957692,15.5218121 12.5235088,15.694115 L12.5235088,15.694115 L15.0527018,17.0237905 C15.1256994,17.0621676 15.2093125,17.0754106 15.2905966,17.0614693 C15.4947227,17.0264589 15.6318182,16.8326004 15.5968078,16.6284743 L15.5968078,16.6284743 L15.1137749,13.8121765 C15.0511822,13.4472332 15.1721743,13.0748579 15.4373211,12.8164036 L15.4373211,12.8164036 L17.4834812,10.8218905 C17.5425376,10.7643248 17.5809703,10.6888964 17.5928295,10.6072825 C17.6226111,10.4023281 17.4806056,10.2120371 17.2756512,10.1822555 L17.2756512,10.1822555 L14.4479275,9.77136316 C14.0815036,9.71811864 13.7647423,9.4879781 13.6008725,9.15594169 L13.6008725,9.15594169 L12.336276,6.59358932 C12.2997772,6.51963459 12.2399169,6.45977427 12.1659621,6.42327543 Z" id="_path-1"/>
    </defs>
    <g id="_Public/ic_public_highlight" stroke="none" stroke-width="1" fill="none" fill-rule="evenodd">
        <mask id="_mask-2" fill="white">
            <use xlink:href="#_path-1"/>
        </mask>
        <use id="_形状结合" fill="#000000" fill-rule="nonzero" xlink:href="#_path-1"/>
    </g>
</svg>