<?xml version="1.0" encoding="UTF-8"?>
<svg xmlns="http://www.w3.org/2000/svg" xmlns:xlink="http://www.w3.org/1999/xlink" width="24" height="24" viewBox="0 0 24 24" version="1.1">
    <title>Public/ic_public_quickstart_filled</title>
    <defs>
        <path d="M11.75,4 C12.9934344,4 14.0021973,5.00656319 14.0049117,6.24999464 L14.0049117,6.24999464 L14.0161,11.375275 C14.0871,11.386025 16.0271,11.774775 19.33585,12.541025 C20.38185,12.783275 21.0501,13.805775 20.8516,14.859025 L20.8516,14.859025 L19.7786,20.554775 C19.51135,21.972775 18.2711,23.000025 16.8261,23.000025 L16.8261,23.000025 L10.72335,23.000025 C9.83785,23.000025 9.24735,22.609775 8.67635,21.933775 L8.67635,21.933775 L4.5201,17.011775 C3.96285,16.351525 3.7301,15.381525 4.31085,14.742025 C4.7461,14.262775 5.35585,14.003275 5.98035,14.003275 C6.2366,14.003275 6.4951,14.046775 6.7451,14.137025 L6.7451,14.137025 L8.81270782,14.9723351 C8.87222309,14.9963792 8.93581134,15.0087387 9,15.0087387 C9.27614237,15.0087387 9.5,14.7848811 9.5,14.5087387 L9.5,14.5087387 L9.5,6.25 C9.5,5.00735931 10.5073593,4 11.75,4 Z M3.80305,11.80715 C4.18655,11.64865 4.62555,11.83065 4.7843,12.21315 C4.94305,12.5959 4.7608,13.03465 4.37755,13.1929 C3.3878,13.60215 2.67805,14.50615 2.53055,15.59365 C2.38255,16.68215 2.82605,17.7469 3.67205,18.41015 C3.99855,18.66565 4.0553,19.13715 3.79905,19.46315 C3.5428,19.78915 3.0708,19.84565 2.74455,19.5899 C1.4833,18.6014 0.8218,17.01315 1.0418,15.3924 C1.2618,13.7704 2.3233,12.4184 3.80305,11.80715 Z M11.75,1 C14.6494949,1 17,3.35050506 17,6.25 C17,6.66421356 16.6642136,7 16.25,7 C15.8357864,7 15.5,6.66421356 15.5,6.25 C15.5,4.17893219 13.8210678,2.5 11.75,2.5 C9.67893219,2.5 8,4.17893219 8,6.25 C8,6.66421356 7.66421356,7 7.25,7 C6.83578644,7 6.5,6.66421356 6.5,6.25 C6.5,3.35050506 8.85050506,1 11.75,1 Z" id="_path-1"/>
    </defs>
    <g id="_Public/ic_public_quickstart_filled" stroke="none" stroke-width="1" fill="none" fill-rule="evenodd">
        <mask id="_mask-2" fill="white">
            <use xlink:href="#_path-1"/>
        </mask>
        <use id="_形状结合" fill="#1A1A1A" xlink:href="#_path-1"/>
    </g>
</svg>