<?xml version="1.0" encoding="UTF-8"?>
<svg xmlns="http://www.w3.org/2000/svg" xmlns:xlink="http://www.w3.org/1999/xlink" width="24" height="24" viewBox="0 0 24 24" version="1.1">
    <title>Public/ic_public_calendar</title>
    <defs>
        <path d="M16.25,1 C16.7628358,1 17.1855072,1.38604019 17.2432723,1.88337887 L17.25,2 L17.25,4 C17.25,4.55228475 16.8022847,5 16.25,5 C15.6977153,5 15.25,4.55228475 15.25,4 L15.25,3.5 L8.75,3.5 L8.75,4 C8.75,4.55228475 8.30228475,5 7.75,5 C7.19771525,5 6.75,4.55228475 6.75,4 L6.75,3.5 L6,3.5 C4.64269002,3.5 3.53801707,4.5816677 3.50096045,5.93002379 L3.5,7.5 L20.5,7.5 L20.5,6 C20.5,4.70385488 19.5136228,3.6380905 18.250561,3.51239958 L18.2509202,2.00774235 C20.3431683,2.13724416 22,3.87513518 22,6 L22,18 C22,20.209139 20.209139,22 18,22 L6,22 C3.790861,22 2,20.209139 2,18 L2,6 C2,3.790861 3.790861,2 6,2 L6.75,2 C6.75,1.44771525 7.19771525,1 7.75,1 C8.30228475,1 8.75,1.44771525 8.75,2 L15.25,2 C15.25,1.44771525 15.6977153,1 16.25,1 Z M20.5,9 L3.5,9 L3.5,18 C3.5,19.35731 4.5816677,20.4619829 5.93002379,20.4990396 L6,20.5 L18,20.5 C19.35731,20.5 20.4619829,19.4183323 20.4990396,18.0699762 L20.5,18 L20.5,9 Z" id="_path-1"/>
    </defs>
    <g id="_Public/ic_public_calendar" stroke="none" stroke-width="1" fill="none" fill-rule="evenodd">
        <mask id="_mask-2" fill="white">
            <use xlink:href="#_path-1"/>
        </mask>
        <use id="_形状结合" fill="#000000" fill-rule="nonzero" xlink:href="#_path-1"/>
    </g>
</svg>