<?xml version="1.0" encoding="UTF-8"?>
<svg xmlns="http://www.w3.org/2000/svg" xmlns:xlink="http://www.w3.org/1999/xlink" width="24" height="24" viewBox="0 0 24 24" version="1.1">
    <title>Public/ic_public_clean_filled</title>
    <defs>
        <path d="M19.999,13 L20,19.25 C20,20.9068542 18.6568542,22.25 17,22.25 L17,22.25 L14.020856,22.2527994 C14.1328287,22.0348287 14.2423237,21.7938609 14.3462408,21.5300675 C14.7851804,20.4158196 15.0468662,19.1038477 15.0468662,17.6030083 L15.0468662,17.6030083 L15.0468662,15.25 C15.0468662,14.8357864 14.7110798,14.5 14.2968662,14.5 C13.8826526,14.5 13.5468662,14.8357864 13.5468662,15.25 L13.5468662,15.25 L13.5468662,17.6030083 C13.5468662,18.9107403 13.3222271,20.0369771 12.9506254,20.9802878 C12.8231264,21.3039439 12.6879651,21.5801447 12.554878,21.8081877 C12.4801187,21.9362867 12.4269791,22.0148146 12.4053657,22.0429332 C12.3558694,22.1073268 12.3184463,22.1771974 12.2927404,22.2498243 L9.27085595,22.2527994 C9.38282868,22.0348287 9.49232373,21.7938609 9.59624078,21.5300675 C10.0351804,20.4158196 10.2968662,19.1038477 10.2968662,17.6030083 L10.2968662,17.6030083 L10.2968662,15.25 C10.2968662,14.8357864 9.96107975,14.5 9.54686619,14.5 C9.13265263,14.5 8.79686619,14.8357864 8.79686619,15.25 L8.79686619,15.25 L8.79686619,17.6030083 C8.79686619,18.9107403 8.57222713,20.0369771 8.20062541,20.9802878 C8.07312641,21.3039439 7.93796513,21.5801447 7.80487796,21.8081877 C7.73011866,21.9362867 7.67697913,22.0148146 7.6553657,22.0429332 C7.60586942,22.1073268 7.56844627,22.1771974 7.54274039,22.2498243 L3.78521073,22.25 C3.28373815,22.25 2.93489987,21.8528901 3.0102332,21.368053 C3.00995211,21.3218518 3.01501181,21.2753756 3.02456902,21.2297245 C3.03489924,21.1667135 3.08748587,21.0475883 3.15360128,20.9114325 L3.29535855,20.6279939 C3.36674447,20.4865012 3.43250741,20.3540339 3.46391972,20.2696755 C3.67614607,19.7001363 4,18.8052639 4,17.6221843 L4,17.6221843 L3.999,13 L19.999,13 Z M12.0186573,0.25 C12.9748515,0.25 13.75,1.02514854 13.75,1.98134272 L13.75,1.98134272 L13.75,7.25 C13.75,7.80228475 14.1977153,8.25 14.75,8.25 L14.75,8.25 L16.875,8.25 C18.6008898,8.25 20,9.64911016 20,11.375 L20,11.375 L19.999,11.5 L3.999,11.5 L4,11.3936573 C4,9.71733206 5.31207043,8.34745732 6.96526788,8.25497645 L7.14365728,8.25 L9.28731456,8.25 C9.83959931,8.25 10.2873146,7.80228475 10.2873146,7.25 L10.2873146,7.25 L10.2873146,1.98134272 C10.2873146,1.02514854 11.0624631,0.25 12.0186573,0.25 Z" id="_path-1"/>
    </defs>
    <g id="_Public/ic_public_clean_filled" stroke="none" stroke-width="1" fill="none" fill-rule="evenodd">
        <mask id="_mask-2" fill="white">
            <use xlink:href="#_path-1"/>
        </mask>
        <use id="_Combined-Shape" fill="#000000" xlink:href="#_path-1"/>
    </g>
</svg>