<?xml version="1.0" encoding="UTF-8"?>
<svg xmlns="http://www.w3.org/2000/svg" xmlns:xlink="http://www.w3.org/1999/xlink" width="24" height="24" viewBox="0 0 24 24" version="1.1">
    <title>Public/ic_public_time_filled</title>
    <defs>
        <path d="M12,1.25 C17.9370611,1.25 22.75,6.06293894 22.75,12 C22.75,17.9370611 17.9370611,22.75 12,22.75 C6.06293894,22.75 1.25,17.9370611 1.25,12 C1.25,6.06293894 6.06293894,1.25 12,1.25 Z M13.6355698,12.6237513 C13.4490911,13.1124411 13.0498871,13.4960746 12.5511741,13.6614355 L12.5511741,13.6614355 L16.6068542,17.7175144 C16.8997475,18.0104076 17.3746212,18.0104076 17.6675144,17.7175144 C17.9604076,17.4246212 17.9604076,16.9497475 17.6675144,16.6568542 L17.6675144,16.6568542 Z M12.75,5.75 C12.75,5.33578644 12.4142136,5 12,5 C11.5857864,5 11.25,5.33578644 11.25,5.75 L11.25,5.75 L11.25,12 C11.25,12.0461411 11.2541667,12.0913091 11.2621443,12.1351481 C11.2653885,12.1521401 11.267192,12.1606409 11.2691382,12.1690871 C11.2734084,12.1876288 11.2783903,12.2059851 11.2840368,12.2240478 C11.2886815,12.2389084 11.2937895,12.2536051 11.2993335,12.2680861 C11.3052804,12.2836033 11.3116205,12.2986398 11.318427,12.3134171 C11.3259611,12.329796 11.3342487,12.3461836 11.343106,12.3622126 C11.351365,12.3771636 11.360173,12.3918853 11.3694598,12.4062689 C11.3768384,12.4176874 11.3843457,12.4286539 11.3921313,12.4394057 C11.4030986,12.45457 11.4149012,12.4696413 11.4272513,12.4842343 C11.4372322,12.4960209 11.4474184,12.5073362 11.4579358,12.5183321 C11.4713689,12.5323969 11.4857514,12.546305 11.5006699,12.5596255 C11.5098909,12.5678688 11.5196674,12.5761704 11.5296547,12.5842211 C11.5430268,12.5949814 11.5562317,12.6049111 11.5697646,12.614405 C11.5841208,12.6244938 11.599361,12.634401 11.6149696,12.6437566 C11.627137,12.651043 11.6392582,12.6578524 11.6515818,12.664329 C11.6675387,12.6727142 11.683801,12.6805265 11.7003751,12.6877572 C11.7174369,12.6952168 11.7353855,12.7022542 11.7536555,12.7086049 C11.7676056,12.7134482 11.781469,12.7178136 11.7954996,12.721781 C11.8191347,12.728466 11.8432933,12.7340301 11.8678658,12.7383978 L11.8924725,12.7423496 L11.8924725,12.7423496 C11.9287366,12.7474739 11.9640733,12.75 12,12.75 L12,12.75 L12.1017706,12.7431534 C12.4678461,12.693491 12.75,12.3796958 12.75,12 L12.75,12 Z" id="_path-1"/>
    </defs>
    <g id="_Public/ic_public_time_filled" stroke="none" stroke-width="1" fill="none" fill-rule="evenodd">
        <mask id="_mask-2" fill="white">
            <use xlink:href="#_path-1"/>
        </mask>
        <use id="_蒙版" fill="#000000" xlink:href="#_path-1"/>
    </g>
</svg>