<?xml version="1.0" encoding="UTF-8"?>
<svg xmlns="http://www.w3.org/2000/svg" xmlns:xlink="http://www.w3.org/1999/xlink" width="24" height="24" viewBox="0 0 24 24" version="1.1">
    <title>Public/ic_public_clean</title>
    <defs>
        <path d="M12.0186573,0.25 C13.2289878,0.25 14.2142468,1.21364593 14.2490487,2.41555226 L14.25,2.48134272 L14.25,7.75 C14.25,8.01359045 14.4539694,8.22954128 14.7126844,8.24862857 L14.75,8.25 L17.125,8.25 C18.6883907,8.25 19.9603233,9.49788042 19.9990896,11.0519331 L20,11.125 L20,19.5 C20,21.1313642 18.6978639,22.4585982 17.0762437,22.49905 L17,22.5 L3.78521073,22.5 C3.28373815,22.5 2.93489987,22.1028901 3.0102332,21.618053 C3.00995211,21.5718518 3.01501181,21.5253756 3.02456902,21.4797245 C3.03489924,21.4167135 3.08748587,21.2975883 3.15360128,21.1614325 L3.29535855,20.8779939 C3.36674447,20.7365012 3.43250741,20.6040339 3.46391972,20.5196755 L3.53544403,20.3254509 C3.73357036,19.7778846 3.97942892,18.9942206 3.9987806,17.9978383 L4,17.8721843 L4,11.1436573 C4,9.570121 5.25597853,8.28993422 6.82011624,8.25091629 L9.28731456,8.25 C9.55090501,8.25 9.76685585,8.04603055 9.78594313,7.78731559 L9.78731456,7.75 L9.78731456,2.48134272 C9.78731456,1.24900616 10.7863207,0.25 12.0186573,0.25 Z M18.5,12.999 L5.5,12.999 L5.5,17.8721843 C5.5,19.0011593 5.30949211,19.8350124 4.92347706,20.8968558 L4.88525,21 L7.813,21 L7.87766139,20.8941637 C7.9764562,20.7204936 8.07510457,20.5219303 8.16952432,20.2987758 C8.53669346,19.4309972 8.7586737,18.3948427 8.7586737,17.1907318 L8.7586737,14.75 C8.7586737,14.3357864 9.09446014,14 9.5086737,14 C9.92288727,14 10.2586737,14.3357864 10.2586737,14.75 L10.2586737,17.1907318 C10.2586737,18.6014979 9.99432913,19.8353997 9.5509569,20.8832791 L9.498,21 L12.813,21 L12.8776614,20.8941637 C12.9764562,20.7204936 13.0751046,20.5219303 13.1695243,20.2987758 C13.5366935,19.4309972 13.7586737,18.3948427 13.7586737,17.1907318 L13.7586737,14.75 C13.7586737,14.3357864 14.0944601,14 14.5086737,14 C14.9228873,14 15.2586737,14.3357864 15.2586737,14.75 L15.2586737,17.1907318 C15.2586737,18.6014979 14.9943291,19.8353997 14.5509569,20.8832791 L14.498,21 L17,21 C17.8095992,21 18.4693929,20.3586063 18.4989654,19.5562346 L18.5,19.5 L18.5,12.999 Z M12.0186573,1.75 C11.6291732,1.75 11.3108002,2.05446284 11.2885561,2.43837078 L11.2873146,2.48134272 L11.2873146,7.75 C11.2873146,8.83372857 10.4253551,9.71613572 9.3496094,9.74904829 L9.28731456,9.75 L6.89365728,9.75 C6.14228771,9.75 5.52979507,10.3446029 5.5010547,11.0889333 L5.5,11.1436573 L5.5,11.499 L18.5,11.499 L18.5,11.125 C18.5,10.3841302 17.914055,9.78011522 17.1803018,9.7510918 L17.125,9.75 L14.75,9.75 C13.6662714,9.75 12.7838643,8.88804056 12.7509517,7.81229483 L12.75,2.48134272 C12.75,2.07743329 12.4225667,1.75 12.0186573,1.75 Z" id="_path-1"/>
    </defs>
    <g id="_Public/ic_public_clean" stroke="none" stroke-width="1" fill="none" fill-rule="evenodd">
        <mask id="_mask-2" fill="white">
            <use xlink:href="#_path-1"/>
        </mask>
        <use id="_合并形状" fill="#000000" fill-rule="nonzero" xlink:href="#_path-1"/>
    </g>
</svg>