<?xml version="1.0" encoding="UTF-8"?>
<svg xmlns="http://www.w3.org/2000/svg" xmlns:xlink="http://www.w3.org/1999/xlink" width="24" height="24" viewBox="0 0 24 24" version="1.1">
    <title>Public/ic_public_emoji_filled</title>
    <defs>
        <path d="M12,1 C18.0751322,1 23,5.92486775 23,12 C23,18.0751322 18.0751322,23 12,23 C5.92486775,23 1,18.0751322 1,12 C1,5.92486775 5.92486775,1 12,1 Z M7.25,8 C6.5596875,8 6,8.5596875 6,9.25 C6,9.9403125 6.5596875,10.5 7.25,10.5 C7.9403125,10.5 8.5,9.9403125 8.5,9.25 C8.5,8.5596875 7.9403125,8 7.25,8 Z M16.75,8 C16.0596875,8 15.5,8.5596875 15.5,9.25 C15.5,9.9403125 16.0596875,10.5 16.75,10.5 C17.4403125,10.5 18,9.9403125 18,9.25 C18,8.5596875 17.4403125,8 16.75,8 Z M16.5628648,14.3744851 C16.7702559,14.01593 17.229046,13.8933873 17.5876012,14.1007785 C17.9461563,14.3081696 18.068699,14.7669597 17.8613078,15.1255149 C16.6633549,17.1966361 14.452003,18.5 12.0144761,18.5 C9.57706828,18.5 7.3660233,17.196761 6.16769236,15.125598 C5.96025533,14.7670694 6.08273925,14.3082636 6.44126785,14.1008265 C6.79979644,13.8933895 7.25860223,14.0158734 7.46603926,14.374402 C8.39890515,15.9867424 10.1179744,17 12.0144761,17 C13.911077,17 15.6303753,15.9866509 16.5628648,14.3744851 Z" id="_path-1"/>
    </defs>
    <g id="_Public/ic_public_emoji_filled" stroke="none" stroke-width="1" fill="none" fill-rule="evenodd">
        <mask id="_mask-2" fill="white">
            <use xlink:href="#_path-1"/>
        </mask>
        <use id="_Combined-Shape" fill="#000000" xlink:href="#_path-1"/>
    </g>
</svg>