<?xml version="1.0" encoding="UTF-8"?>
<svg xmlns="http://www.w3.org/2000/svg" xmlns:xlink="http://www.w3.org/1999/xlink" width="24" height="24" viewBox="0 0 24 24" version="1.1">
    <!-- Generator: Sketch 63.1 (92452) - https://sketch.com -->
    <title>Public/ic_public_sound_off</title>
    <desc>Created with Sketch.</desc>
    <g id="_Public/ic_public_sound_off" stroke="none" stroke-width="1" fill="none" fill-rule="evenodd">
        <path d="M3.24433269,2.18592862 L3.28033009,2.21966991 L3.509,2.448 L3.51471863,2.45405845 L21.5459415,20.4852814 C21.5478012,20.487141 21.5496718,20.4889829 21.5515533,20.4908072 L21.7803301,20.7196699 C22.0732233,21.0125631 22.0732233,21.4874369 21.7803301,21.7803301 C21.4991526,22.0615076 21.0502619,22.0727547 20.7556673,21.8140714 L20.7196699,21.7803301 L18,19.061 L18,19.4388072 C18,20.3569806 17.2928897,21.1099995 16.3935272,21.183006 L16.25,21.1888072 C15.8570346,21.1888072 15.4755053,21.0565463 15.1668468,20.8133176 L15.1668468,20.8133176 L10.0105,16.74975 L6.5,16.75 C5.27954933,16.75 4.28605214,15.7782966 4.25095928,14.5663406 L4.25095928,14.5663406 L4.25,9.5 C4.25,8.35611222 5.10361121,7.41159601 6.20857123,7.26869847 L2.21966991,3.28033009 C1.9267767,2.98743687 1.9267767,2.51256313 2.21966991,2.21966991 C2.5008474,1.93849242 2.94973814,1.92724532 3.24433269,2.18592862 Z M7.689,8.75 L6.5,8.75 C6.08578644,8.75 5.75,9.08578644 5.75,9.5 L5.75,9.5 L5.75,14.5 C5.75,14.9142136 6.08578644,15.25 6.49998035,15.25 L6.49998035,15.25 L10.5304923,15.2498944 L16.095265,19.6351668 C16.1393579,19.6699128 16.1938621,19.6888072 16.25,19.6888072 C16.3880712,19.6888072 16.5,19.5768784 16.5,19.4388072 L16.5,19.4388072 L16.5,17.561 L7.689,8.75 Z M15.1668552,3.18667572 C15.92598,2.58847135 17.0263127,2.71892317 17.6245171,3.47804801 C17.8677391,3.78669814 18,4.16822738 18,4.56119283 L18,4.56119283 L18,15.525 L16.5,14.025 L16.5,4.56119283 C16.5,4.52376755 16.4916025,4.48706838 16.475709,4.45369607 L16.4463596,4.40645786 L16.42542,4.38303254 C16.337007,4.2957604 16.195368,4.28595026 16.0952467,4.36484769 L16.0952467,4.36484769 L10.918,8.443 L9.723,7.249 L10.01025,7.24975 Z" id="_形状结合" fill="#000000" fill-rule="nonzero"/>
    </g>
</svg>