<?xml version="1.0" encoding="UTF-8"?>
<svg xmlns="http://www.w3.org/2000/svg" xmlns:xlink="http://www.w3.org/1999/xlink" width="24" height="24" viewBox="0 0 24 24" version="1.1">
    <title>Public/ic_public_drawer_filled</title>
    <defs>
        <path d="M3,4.5 L21,4.5 C21.5522847,4.5 22,4.94771525 22,5.5 C22,6.05228475 21.5522847,6.5 21,6.5 L3,6.5 C2.44771525,6.5 2,6.05228475 2,5.5 C2,4.94771525 2.44771525,4.5 3,4.5 Z M3,11 L21,11 C21.5522847,11 22,11.4477153 22,12 C22,12.5522847 21.5522847,13 21,13 L3,13 C2.44771525,13 2,12.5522847 2,12 C2,11.4477153 2.44771525,11 3,11 Z M3,17.5 L21,17.5 C21.5522847,17.5 22,17.9477153 22,18.5 C22,19.0522847 21.5522847,19.5 21,19.5 L3,19.5 C2.44771525,19.5 2,19.0522847 2,18.5 C2,17.9477153 2.44771525,17.5 3,17.5 Z" id="_path-1"/>
    </defs>
    <g id="_Public/ic_public_drawer_filled" stroke="none" stroke-width="1" fill="none" fill-rule="evenodd">
        <mask id="_mask-2" fill="white">
            <use xlink:href="#_path-1"/>
        </mask>
        <use id="_move" fill="#000000" fill-rule="nonzero" xlink:href="#_path-1"/>
    </g>
</svg>