<?xml version="1.0" encoding="UTF-8"?>
<svg xmlns="http://www.w3.org/2000/svg" xmlns:xlink="http://www.w3.org/1999/xlink" width="24" height="24" viewBox="0 0 24 24" version="1.1">
    <title>Public/ic_public_clock_filled</title>
    <defs>
        <path d="M12,2 C17.5228475,2 22,6.4771525 22,12 C22,14.4027491 21.1525918,16.6075755 19.7403381,18.3319164 C19.7564428,18.3430879 19.7711529,18.3569393 19.7855339,18.3713203 L21.1997475,19.7855339 C21.5902718,20.1760582 21.5902718,20.8092232 21.1997475,21.1997475 C20.8092232,21.5902718 20.1760582,21.5902718 19.7855339,21.1997475 L18.3713203,19.7855339 L18.3319164,19.7403381 C16.6075755,21.1525918 14.4027491,22 12,22 C9.59725086,22 7.3924245,21.1525918 5.66808358,19.7403381 L5.62867966,19.7855339 L5.62867966,19.7855339 L4.21446609,21.1997475 C3.8239418,21.5902718 3.19077682,21.5902718 2.80025253,21.1997475 C2.40972824,20.8092232 2.40972824,20.1760582 2.80025253,19.7855339 L4.21446609,18.3713203 L4.25966186,18.3319164 C2.84740817,16.6075755 2,14.4027491 2,12 C2,6.4771525 6.4771525,2 12,2 Z M13.6355698,12.6237513 C13.467739,13.0635722 13.1276007,13.4182973 12.6976895,13.6053922 L12.5511741,13.6614355 L15.8997475,17.0104076 C16.1926407,17.3033009 16.6675144,17.3033009 16.9604076,17.0104076 C17.2266742,16.7441411 17.2508803,16.3274774 17.0330258,16.0338659 L16.9604076,15.9497475 L13.6355698,12.6237513 Z M12,6.25 C11.6203042,6.25 11.306509,6.53215388 11.2568466,6.89822944 L11.25,7 L11.25,12 L11.2532788,12.0694923 L11.2532788,12.0694923 L11.2637303,12.1435875 L11.2691198,12.1690076 C11.2734084,12.1876288 11.2783903,12.2059851 11.2840256,12.224012 C11.2886815,12.2389084 11.2937895,12.2536051 11.2994257,12.2683266 C11.3052804,12.2836033 11.3116205,12.2986398 11.3182704,12.3130769 C11.3259611,12.329796 11.3342487,12.3461836 11.3430583,12.3621263 C11.351365,12.3771636 11.360173,12.3918853 11.3696199,12.4065168 C11.3768384,12.4176874 11.3843457,12.4286539 11.3918755,12.4390522 C11.4030986,12.45457 11.4149012,12.4696413 11.4273933,12.4844021 L11.4575587,12.5179375 L11.4575587,12.5179375 C11.4713689,12.5323969 11.4857514,12.546305 11.5003345,12.5593259 C11.5098909,12.5678688 11.5196674,12.5761704 11.5301703,12.5846364 C11.5430268,12.5949814 11.5562317,12.6049111 11.5692761,12.614062 C11.5841208,12.6244938 11.599361,12.634401 11.6152299,12.6439126 L11.6516143,12.6643461 L11.6516143,12.6643461 C11.6675387,12.6727142 11.683801,12.6805265 11.6998405,12.6875237 C11.7174369,12.6952168 11.7353855,12.7022542 11.7539222,12.7086976 C11.7676056,12.7134482 11.781469,12.7178136 11.7954522,12.7217676 L11.831349,12.7309609 L11.831349,12.7309609 L11.8680558,12.7384315 L11.9,12.742 L11.971,12.748 L11.988,12.749 L12,12.75 C12.3796958,12.75 12.693491,12.4678461 12.7431534,12.1017706 L12.75,12 L12.75,7 C12.75,6.58578644 12.4142136,6.25 12,6.25 Z M5.20698414,1.82139406 C5.54731115,2.25636069 5.47059058,2.88486036 5.03562396,3.22518738 C4.36097131,3.75304976 3.75243298,4.36164022 3.22462871,5.03633805 C2.88433907,5.47133392 2.25584599,5.54810849 1.82085012,5.20781886 C1.38585424,4.86752922 1.30907967,4.23903614 1.64936931,3.80404026 C2.27712212,3.00157714 3.00078161,2.27785567 3.80319082,1.65003387 C4.23815744,1.30970686 4.86665712,1.38642743 5.20698414,1.82139406 Z M20.1970133,1.65009402 C20.9991248,2.27780913 21.722489,3.00121411 22.3500036,3.80323872 C22.6903285,4.238207 22.6136049,4.86670631 22.1786366,5.20703121 C21.7436683,5.54735612 21.115169,5.47063251 20.7748441,5.03566423 C20.2472242,4.36131476 19.6388974,3.75295362 18.9644264,3.22512723 C18.529493,2.88475777 18.4528337,2.2562506 18.7932032,1.82131719 C19.1335727,1.38638378 19.7620798,1.30972456 20.1970133,1.65009402 Z" id="_path-1"/>
    </defs>
    <g id="_Public/ic_public_clock_filled" stroke="none" stroke-width="1" fill="none" fill-rule="evenodd">
        <mask id="_mask-2" fill="white">
            <use xlink:href="#_path-1"/>
        </mask>
        <use id="_蒙版" fill="#000000" fill-rule="nonzero" xlink:href="#_path-1"/>
    </g>
</svg>