<?xml version="1.0" encoding="UTF-8"?>
<svg xmlns="http://www.w3.org/2000/svg" xmlns:xlink="http://www.w3.org/1999/xlink" width="24" height="24" viewBox="0 0 24 24" version="1.1">
    <title>Public/ic_public_clock</title>
    <defs>
        <path d="M12,2 C17.5228475,2 22,6.4771525 22,12 C22,14.4914746 21.0888524,16.7701393 19.5815924,18.520959 L20.9497475,19.8890873 C21.2426407,20.1819805 21.2426407,20.6568542 20.9497475,20.9497475 C20.6568542,21.2426407 20.1819805,21.2426407 19.8890873,20.9497475 L18.520959,19.5815924 C16.7701393,21.0888524 14.4914746,22 12,22 C9.5085254,22 7.22986071,21.0888524 5.47904098,19.5815924 L4.1109127,20.9497475 C3.81801948,21.2426407 3.34314575,21.2426407 3.05025253,20.9497475 C2.75735931,20.6568542 2.75735931,20.1819805 3.05025253,19.8890873 L4.41840762,18.520959 C2.91114756,16.7701393 2,14.4914746 2,12 C2,6.4771525 6.4771525,2 12,2 Z M12,3.5 C7.30557963,3.5 3.5,7.30557963 3.5,12 C3.5,16.6944204 7.30557963,20.5 12,20.5 C16.6944204,20.5 20.5,16.6944204 20.5,12 C20.5,7.30557963 16.6944204,3.5 12,3.5 Z M13.6355698,12.6237513 L16.9604076,15.9497475 C17.2533009,16.2426407 17.2533009,16.7175144 16.9604076,17.0104076 C16.6675144,17.3033009 16.1926407,17.3033009 15.8997475,17.0104076 L12.5511741,13.6614355 C13.0498871,13.4960746 13.4490911,13.1124411 13.6355698,12.6237513 Z M12.75,12 C12.75,12.3796958 12.4678461,12.693491 12.1017706,12.7431534 L12,12.75 L12,12.75 C11.9640733,12.75 11.9287366,12.7474739 11.8941579,12.7425897 L12,12.75 C11.9549821,12.75 11.9108906,12.7460337 11.8680558,12.7384315 C11.8432933,12.7340301 11.8191347,12.728466 11.7954522,12.7217676 C11.781469,12.7178136 11.7676056,12.7134482 11.7539222,12.7086976 C11.7350308,12.7021309 11.71674,12.6949433 11.6988159,12.6870749 C11.6891018,12.6828208 11.6789219,12.6780847 11.668869,12.67313 C11.6477481,12.6627042 11.627582,12.6515555 11.60801,12.6395336 C11.6009458,12.6351971 11.5937911,12.630636 11.5867203,12.6259582 C11.5649505,12.6115537 11.5440196,12.5960797 11.52396,12.5795847 C11.518372,12.5749885 11.5129205,12.5703731 11.5075366,12.5656822 C11.4902398,12.5506186 11.4735171,12.5346462 11.4575587,12.5179375 C11.4464451,12.5063186 11.4353497,12.4939238 11.4246706,12.4811685 C11.4147985,12.4693772 11.4052785,12.4572731 11.3961311,12.4448772 C11.3859949,12.431136 11.376395,12.4171593 11.3672669,12.4028524 C11.3570861,12.3869164 11.3472794,12.3701754 11.338119,12.353037 C11.3333954,12.3441908 11.3289826,12.3355249 11.3247353,12.3267639 C11.3136194,12.30385 11.3035701,12.2801052 11.294744,12.2557739 C11.2910509,12.245596 11.2875502,12.2352464 11.2842719,12.2247984 C11.2786979,12.2070335 11.2737682,12.1889888 11.2695086,12.1706868 C11.2673742,12.1614976 11.265472,12.1525711 11.2637303,12.1435875 C11.2541884,12.0915437 11.25,12.046261 11.25,12 L11.25,7 C11.25,6.58578644 11.5857864,6.25 12,6.25 C12.4142136,6.25 12.75,6.58578644 12.75,7 L12.75,12 Z M5.26008995,2.2254482 C5.51533521,2.55167317 5.45779478,3.02304793 5.13156981,3.27829319 C4.4409476,3.8186505 3.81801912,4.44163233 3.27772128,5.13230082 C3.02250406,5.45854773 2.55113424,5.51612866 2.22488734,5.26091143 C1.89864044,5.0056942 1.84105951,4.53432439 2.09627673,4.20807749 C2.71153598,3.42158503 3.42080532,2.71225493 4.20724496,2.09692806 C4.53346993,1.8416828 5.00484469,1.89922323 5.26008995,2.2254482 Z M19.7929399,2.09697317 C20.5790964,2.71220219 21.2880809,3.42122669 21.9031087,4.20729191 C22.1583524,4.53351812 22.1008096,5.0048926 21.7745834,5.26013628 C21.4483572,5.51537996 20.9769827,5.45783725 20.7217391,5.13161104 C20.1816323,4.44130218 19.5589258,3.81856056 18.8684997,3.27824808 C18.5422997,3.02297098 18.4848053,2.55159061 18.7400824,2.22539055 C18.9953595,1.89919049 19.4667398,1.84169607 19.7929399,2.09697317 Z" id="_path-1"/>
    </defs>
    <g id="_Public/ic_public_clock" stroke="none" stroke-width="1" fill="none" fill-rule="evenodd">
        <mask id="_mask-2" fill="white">
            <use xlink:href="#_path-1"/>
        </mask>
        <use id="_蒙版" fill="#000000" xlink:href="#_path-1"/>
    </g>
</svg>