<?xml version="1.0" encoding="UTF-8"?>
<svg xmlns="http://www.w3.org/2000/svg" xmlns:xlink="http://www.w3.org/1999/xlink" width="24" height="24" viewBox="0 0 24 24" version="1.1">
    <title>Public/ic_public_time</title>
    <defs>
        <path d="M12,1.25 C17.9370611,1.25 22.75,6.06293894 22.75,12 C22.75,17.9370611 17.9370611,22.75 12,22.75 C6.06293894,22.75 1.25,17.9370611 1.25,12 C1.25,6.06293894 6.06293894,1.25 12,1.25 Z M12,2.75 C6.89136606,2.75 2.75,6.89136606 2.75,12 C2.75,17.1086339 6.89136606,21.25 12,21.25 C17.1086339,21.25 21.25,17.1086339 21.25,12 C21.25,6.89136606 17.1086339,2.75 12,2.75 Z M13.6355698,12.6237513 L17.6675144,16.6568542 C17.9604076,16.9497475 17.9604076,17.4246212 17.6675144,17.7175144 C17.3746212,18.0104076 16.8997475,18.0104076 16.6068542,17.7175144 L12.5511741,13.6614355 C13.0498871,13.4960746 13.4490911,13.1124411 13.6355698,12.6237513 Z M12,12.75 L11.988,12.749 L11.8982294,12.7431534 C11.8968711,12.7429691 11.8955139,12.7427812 11.8941579,12.7425897 L12,12.75 C11.9549821,12.75 11.9108906,12.7460337 11.8680558,12.7384315 C11.8432933,12.7340301 11.8191347,12.728466 11.7954522,12.7217676 C11.781469,12.7178136 11.7676056,12.7134482 11.7539222,12.7086976 C11.7353855,12.7022542 11.7174369,12.6952168 11.6998405,12.6875237 C11.683801,12.6805265 11.6675387,12.6727142 11.6516143,12.6643461 C11.6392582,12.6578524 11.627137,12.651043 11.6152299,12.6439126 C11.599361,12.634401 11.5841208,12.6244938 11.5692761,12.614062 C11.5562317,12.6049111 11.5430268,12.5949814 11.5301703,12.5846364 C11.5196674,12.5761704 11.5098909,12.5678688 11.5003345,12.5593259 C11.4857514,12.546305 11.4713689,12.5323969 11.4575587,12.5179375 C11.4474184,12.5073362 11.4372322,12.4960209 11.4273933,12.4844021 C11.4149012,12.4696413 11.4030986,12.45457 11.3918755,12.4390522 C11.3843457,12.4286539 11.3768384,12.4176874 11.3696199,12.4065168 C11.360173,12.3918853 11.351365,12.3771636 11.3430583,12.3621263 C11.3342487,12.3461836 11.3259611,12.329796 11.3182704,12.3130769 C11.3116205,12.2986398 11.3052804,12.2836033 11.2994257,12.2683266 C11.2937895,12.2536051 11.2886815,12.2389084 11.2840256,12.224012 C11.2783903,12.2059851 11.2734084,12.1876288 11.2691198,12.1690076 C11.267192,12.1606409 11.2653885,12.1521401 11.2637303,12.1435875 C11.2541667,12.0913091 11.25,12.0461411 11.25,12 L11.25,5.75 C11.25,5.33578644 11.5857864,5 12,5 C12.4142136,5 12.75,5.33578644 12.75,5.75 L12.75,12 C12.75,12.4142136 12.4142136,12.75 12,12.75 L12,12.75 Z" id="_path-1"/>
    </defs>
    <g id="_Public/ic_public_time" stroke="none" stroke-width="1" fill="none" fill-rule="evenodd">
        <mask id="_mask-2" fill="white">
            <use xlink:href="#_path-1"/>
        </mask>
        <use id="_蒙版" fill="#000000" fill-rule="nonzero" xlink:href="#_path-1"/>
    </g>
</svg>