<?xml version="1.0" encoding="UTF-8"?>
<svg xmlns="http://www.w3.org/2000/svg" xmlns:xlink="http://www.w3.org/1999/xlink" width="24" height="24" viewBox="0 0 24 24" version="1.1">
    <title>Public/ic_public_code</title>
    <defs>
        <path d="M8.0451435,12.75 C9.15954192,12.75 9.56364972,12.866032 9.97105713,13.0839159 C10.3784645,13.3017997 10.6982003,13.6215355 10.9160841,14.0289429 C11.133968,14.4363503 11.25,14.8404581 11.25,15.9548565 L11.25,18.2951435 C11.25,19.4095419 11.133968,19.8136497 10.9160841,20.2210571 C10.6982003,20.6284645 10.3784645,20.9482003 9.97105713,21.1660841 C9.56364972,21.383968 9.15954192,21.5 8.0451435,21.5 L5.7048565,21.5 C4.59045808,21.5 4.18635028,21.383968 3.77894287,21.1660841 C3.37153546,20.9482003 3.05179975,20.6284645 2.83391588,20.2210571 C2.6305576,19.8408102 2.51592361,19.4634376 2.50154289,18.5087641 L2.5,15.9548565 C2.5,14.8404581 2.61603201,14.4363503 2.83391588,14.0289429 C3.05179975,13.6215355 3.37153546,13.3017997 3.77894287,13.0839159 C4.15918978,12.8805576 4.53656237,12.7659236 5.49123592,12.7515429 L8.0451435,12.75 Z M14.8590287,18.5 C15.0819084,18.5 15.1627299,18.5232064 15.2442114,18.5667832 C15.3256929,18.6103599 15.3896401,18.6743071 15.4332168,18.7557886 C15.4767936,18.8372701 15.5,18.9180916 15.5,19.1409713 L15.5,20.3590287 C15.5,20.5819084 15.4767936,20.6627299 15.4332168,20.7442114 C15.3896401,20.8256929 15.3256929,20.8896401 15.2442114,20.9332168 C15.1627299,20.9767936 15.0819084,21 14.8590287,21 L13.6409713,21 C13.4180916,21 13.3372701,20.9767936 13.2557886,20.9332168 C13.1743071,20.8896401 13.1103599,20.8256929 13.0667832,20.7442114 C13.0232064,20.6627299 13,20.5819084 13,20.3590287 L13,19.1409713 C13,18.9180916 13.0232064,18.8372701 13.0667832,18.7557886 C13.1103599,18.6743071 13.1743071,18.6103599 13.2557886,18.5667832 C13.3372701,18.5232064 13.4180916,18.5 13.6409713,18.5 L14.8590287,18.5 Z M20.3590287,18.5 C20.5819084,18.5 20.6627299,18.5232064 20.7442114,18.5667832 C20.8256929,18.6103599 20.8896401,18.6743071 20.9332168,18.7557886 C20.9767936,18.8372701 21,18.9180916 21,19.1409713 L21,20.3590287 C21,20.5819084 20.9767936,20.6627299 20.9332168,20.7442114 C20.8896401,20.8256929 20.8256929,20.8896401 20.7442114,20.9332168 C20.6627299,20.9767936 20.5819084,21 20.3590287,21 L19.1409713,21 C18.9180916,21 18.8372701,20.9767936 18.7557886,20.9332168 C18.6743071,20.8896401 18.6103599,20.8256929 18.5667832,20.7442114 C18.5232064,20.6627299 18.5,20.5819084 18.5,20.3590287 L18.5,19.1409713 C18.5,18.9180916 18.5232064,18.8372701 18.5667832,18.7557886 C18.6103599,18.6743071 18.6743071,18.6103599 18.7557886,18.5667832 C18.8372701,18.5232064 18.9180916,18.5 19.1409713,18.5 L20.3590287,18.5 Z M8.21738076,14.2507451 L5.53261924,14.2507451 L5.22022844,14.2578782 C4.81085883,14.2745864 4.64946671,14.3193952 4.48634116,14.4066357 C4.34033646,14.4847198 4.23471984,14.5903365 4.15663568,14.7363412 L4.10848304,14.8379239 C4.03662841,15.0139047 4.00576316,15.2408558 4.00074513,15.7826192 L4.00074513,18.4673808 L4.00787817,18.7797716 C4.02458639,19.1891412 4.06939518,19.3505333 4.15663568,19.5136588 C4.23471984,19.6596635 4.34033646,19.7652802 4.48634116,19.8433643 L4.58792395,19.891517 C4.76390474,19.9633716 4.99085576,19.9942368 5.53261924,19.9992549 L8.0451435,20 C8.83471722,20 9.04766853,19.9588772 9.26365884,19.8433643 C9.40966354,19.7652802 9.51528016,19.6596635 9.59336432,19.5136588 L9.64151696,19.4120761 C9.71337159,19.2360953 9.74423684,19.0091442 9.74925487,18.4673808 L9.75,15.9548565 C9.75,15.1652828 9.7088772,14.9523315 9.59336432,14.7363412 C9.51528016,14.5903365 9.40966354,14.4847198 9.26365884,14.4066357 L9.16207605,14.358483 C8.98609526,14.2866284 8.75914424,14.2557632 8.21738076,14.2507451 Z M17.6090287,15.75 C17.8319084,15.75 17.9127299,15.7732064 17.9942114,15.8167832 C18.0756929,15.8603599 18.1396401,15.9243071 18.1832168,16.0057886 C18.2267936,16.0872701 18.25,16.1680916 18.25,16.3909713 L18.25,17.6090287 C18.25,17.8319084 18.2267936,17.9127299 18.1832168,17.9942114 C18.1396401,18.0756929 18.0756929,18.1396401 17.9942114,18.1832168 C17.9127299,18.2267936 17.8319084,18.25 17.6090287,18.25 L16.3909713,18.25 C16.1680916,18.25 16.0872701,18.2267936 16.0057886,18.1832168 C15.9243071,18.1396401 15.8603599,18.0756929 15.8167832,17.9942114 C15.7732064,17.9127299 15.75,17.8319084 15.75,17.6090287 L15.75,16.3909713 C15.75,16.1680916 15.7732064,16.0872701 15.8167832,16.0057886 C15.8603599,15.9243071 15.9243071,15.8603599 16.0057886,15.8167832 C16.0872701,15.7732064 16.1680916,15.75 16.3909713,15.75 L17.6090287,15.75 Z M7.67951435,16 C7.79095419,16 7.83136497,16.0116032 7.87210571,16.0333916 C7.91284645,16.05518 7.94482003,16.0871535 7.96660841,16.1278943 C7.9883968,16.168635 8,16.2090458 8,16.3204856 L8,17.9295144 C8,18.0409542 7.9883968,18.081365 7.96660841,18.1221057 C7.94482003,18.1628465 7.91284645,18.19482 7.87210571,18.2166084 C7.83136497,18.2383968 7.79095419,18.25 7.67951435,18.25 L6.07048565,18.25 C5.95904581,18.25 5.91863503,18.2383968 5.87789429,18.2166084 C5.83715355,18.19482 5.80517997,18.1628465 5.78339159,18.1221057 C5.7616032,18.081365 5.75,18.0409542 5.75,17.9295144 L5.75,16.3204856 C5.75,16.2090458 5.7616032,16.168635 5.78339159,16.1278943 C5.80517997,16.0871535 5.83715355,16.05518 5.87789429,16.0333916 C5.91863503,16.0116032 5.95904581,16 6.07048565,16 L7.67951435,16 Z M14.8590287,13 C15.0819084,13 15.1627299,13.0232064 15.2442114,13.0667832 C15.3256929,13.1103599 15.3896401,13.1743071 15.4332168,13.2557886 C15.4767936,13.3372701 15.5,13.4180916 15.5,13.6409713 L15.5,14.8590287 C15.5,15.0819084 15.4767936,15.1627299 15.4332168,15.2442114 C15.3896401,15.3256929 15.3256929,15.3896401 15.2442114,15.4332168 C15.1627299,15.4767936 15.0819084,15.5 14.8590287,15.5 L13.6409713,15.5 C13.4180916,15.5 13.3372701,15.4767936 13.2557886,15.4332168 C13.1743071,15.3896401 13.1103599,15.3256929 13.0667832,15.2442114 C13.0232064,15.1627299 13,15.0819084 13,14.8590287 L13,13.6409713 C13,13.4180916 13.0232064,13.3372701 13.0667832,13.2557886 C13.1103599,13.1743071 13.1743071,13.1103599 13.2557886,13.0667832 C13.3372701,13.0232064 13.4180916,13 13.6409713,13 L14.8590287,13 Z M20.3590287,13 C20.5819084,13 20.6627299,13.0232064 20.7442114,13.0667832 C20.8256929,13.1103599 20.8896401,13.1743071 20.9332168,13.2557886 C20.9767936,13.3372701 21,13.4180916 21,13.6409713 L21,14.8590287 C21,15.0819084 20.9767936,15.1627299 20.9332168,15.2442114 C20.8896401,15.3256929 20.8256929,15.3896401 20.7442114,15.4332168 C20.6627299,15.4767936 20.5819084,15.5 20.3590287,15.5 L19.1409713,15.5 C18.9180916,15.5 18.8372701,15.4767936 18.7557886,15.4332168 C18.6743071,15.3896401 18.6103599,15.3256929 18.5667832,15.2442114 C18.5232064,15.1627299 18.5,15.0819084 18.5,14.8590287 L18.5,13.6409713 C18.5,13.4180916 18.5232064,13.3372701 18.5667832,13.2557886 C18.6103599,13.1743071 18.6743071,13.1103599 18.7557886,13.0667832 C18.8372701,13.0232064 18.9180916,13 19.1409713,13 L20.3590287,13 Z M8.0451435,2.5 C9.15954192,2.5 9.56364972,2.61603201 9.97105713,2.83391588 C10.3784645,3.05179975 10.6982003,3.37153546 10.9160841,3.77894287 C11.133968,4.18635028 11.25,4.59045808 11.25,5.7048565 L11.25,8.0451435 C11.25,9.15954192 11.133968,9.56364972 10.9160841,9.97105713 C10.6982003,10.3784645 10.3784645,10.6982003 9.97105713,10.9160841 C9.56364972,11.133968 9.15954192,11.25 8.0451435,11.25 L5.7048565,11.25 C4.59045808,11.25 4.18635028,11.133968 3.77894287,10.9160841 C3.37153546,10.6982003 3.05179975,10.3784645 2.83391588,9.97105713 C2.6305576,9.59081022 2.51592361,9.21343763 2.50154289,8.25876408 L2.5,5.7048565 C2.5,4.59045808 2.61603201,4.18635028 2.83391588,3.77894287 C3.05179975,3.37153546 3.37153546,3.05179975 3.77894287,2.83391588 C4.15918978,2.6305576 4.53656237,2.51592361 5.49123592,2.50154289 L8.0451435,2.5 Z M18.2951435,2.5 C19.4095419,2.5 19.8136497,2.61603201 20.2210571,2.83391588 C20.6284645,3.05179975 20.9482003,3.37153546 21.1660841,3.77894287 C21.383968,4.18635028 21.5,4.59045808 21.5,5.7048565 L21.5,8.0451435 C21.5,9.15954192 21.383968,9.56364972 21.1660841,9.97105713 C20.9482003,10.3784645 20.6284645,10.6982003 20.2210571,10.9160841 C19.8136497,11.133968 19.4095419,11.25 18.2951435,11.25 L15.9548565,11.25 C14.8404581,11.25 14.4363503,11.133968 14.0289429,10.9160841 C13.6215355,10.6982003 13.3017997,10.3784645 13.0839159,9.97105713 C12.8805576,9.59081022 12.7659236,9.21343763 12.7515429,8.25876408 L12.75,5.7048565 C12.75,4.59045808 12.866032,4.18635028 13.0839159,3.77894287 C13.3017997,3.37153546 13.6215355,3.05179975 14.0289429,2.83391588 C14.4091898,2.6305576 14.7865624,2.51592361 15.7412359,2.50154289 L18.2951435,2.5 Z M8.21738076,4.00074513 L5.53261924,4.00074513 L5.22022844,4.00787817 C4.81085883,4.02458639 4.64946671,4.06939518 4.48634116,4.15663568 C4.34033646,4.23471984 4.23471984,4.34033646 4.15663568,4.48634116 L4.10848304,4.58792395 C4.03662841,4.76390474 4.00576316,4.99085576 4.00074513,5.53261924 L4.00074513,8.21738076 L4.00787817,8.52977156 C4.02458639,8.93914117 4.06939518,9.10053329 4.15663568,9.26365884 C4.23471984,9.40966354 4.34033646,9.51528016 4.48634116,9.59336432 L4.58792395,9.64151696 C4.76390474,9.71337159 4.99085576,9.74423684 5.53261924,9.74925487 L8.0451435,9.75 C8.83471722,9.75 9.04766853,9.7088772 9.26365884,9.59336432 C9.40966354,9.51528016 9.51528016,9.40966354 9.59336432,9.26365884 L9.64151696,9.16207605 C9.71337159,8.98609526 9.74423684,8.75914424 9.74925487,8.21738076 L9.75,5.7048565 C9.75,4.91528278 9.7088772,4.70233147 9.59336432,4.48634116 C9.51528016,4.34033646 9.40966354,4.23471984 9.26365884,4.15663568 L9.16207605,4.10848304 C8.98609526,4.03662841 8.75914424,4.00576316 8.21738076,4.00074513 Z M18.4673808,4.00074513 L15.7826192,4.00074513 L15.4702284,4.00787817 C15.0608588,4.02458639 14.8994667,4.06939518 14.7363412,4.15663568 C14.5903365,4.23471984 14.4847198,4.34033646 14.4066357,4.48634116 L14.358483,4.58792395 C14.2866284,4.76390474 14.2557632,4.99085576 14.2507451,5.53261924 L14.2507451,8.21738076 L14.2578782,8.52977156 C14.2745864,8.93914117 14.3193952,9.10053329 14.4066357,9.26365884 C14.4847198,9.40966354 14.5903365,9.51528016 14.7363412,9.59336432 L14.8379239,9.64151696 C15.0139047,9.71337159 15.2408558,9.74423684 15.7826192,9.74925487 L18.2951435,9.75 C19.0847172,9.75 19.2976685,9.7088772 19.5136588,9.59336432 C19.6596635,9.51528016 19.7652802,9.40966354 19.8433643,9.26365884 L19.891517,9.16207605 C19.9633716,8.98609526 19.9942368,8.75914424 19.9992549,8.21738076 L20,5.7048565 C20,4.91528278 19.9588772,4.70233147 19.8433643,4.48634116 C19.7652802,4.34033646 19.6596635,4.23471984 19.5136588,4.15663568 L19.4120761,4.10848304 C19.2360953,4.03662841 19.0091442,4.00576316 18.4673808,4.00074513 Z M7.67951435,5.75 C7.79095419,5.75 7.83136497,5.7616032 7.87210571,5.78339159 C7.91284645,5.80517997 7.94482003,5.83715355 7.96660841,5.87789429 C7.9883968,5.91863503 8,5.95904581 8,6.07048565 L8,7.67951435 C8,7.79095419 7.9883968,7.83136497 7.96660841,7.87210571 C7.94482003,7.91284645 7.91284645,7.94482003 7.87210571,7.96660841 C7.83136497,7.9883968 7.79095419,8 7.67951435,8 L6.07048565,8 C5.95904581,8 5.91863503,7.9883968 5.87789429,7.96660841 C5.83715355,7.94482003 5.80517997,7.91284645 5.78339159,7.87210571 C5.7616032,7.83136497 5.75,7.79095419 5.75,7.67951435 L5.75,6.07048565 C5.75,5.95904581 5.7616032,5.91863503 5.78339159,5.87789429 C5.80517997,5.83715355 5.83715355,5.80517997 5.87789429,5.78339159 C5.91863503,5.7616032 5.95904581,5.75 6.07048565,5.75 L7.67951435,5.75 Z M17.9295144,5.75 C18.0409542,5.75 18.081365,5.7616032 18.1221057,5.78339159 C18.1628465,5.80517997 18.19482,5.83715355 18.2166084,5.87789429 C18.2383968,5.91863503 18.25,5.95904581 18.25,6.07048565 L18.25,7.67951435 C18.25,7.79095419 18.2383968,7.83136497 18.2166084,7.87210571 C18.19482,7.91284645 18.1628465,7.94482003 18.1221057,7.96660841 C18.081365,7.9883968 18.0409542,8 17.9295144,8 L16.3204856,8 C16.2090458,8 16.168635,7.9883968 16.1278943,7.96660841 C16.0871535,7.94482003 16.05518,7.91284645 16.0333916,7.87210571 C16.0116032,7.83136497 16,7.79095419 16,7.67951435 L16,6.07048565 C16,5.95904581 16.0116032,5.91863503 16.0333916,5.87789429 C16.05518,5.83715355 16.0871535,5.80517997 16.1278943,5.78339159 C16.168635,5.7616032 16.2090458,5.75 16.3204856,5.75 L17.9295144,5.75 Z" id="_path-1"/>
    </defs>
    <g id="_Public/ic_public_code" stroke="none" stroke-width="1" fill="none" fill-rule="evenodd">
        <mask id="_mask-2" fill="white">
            <use xlink:href="#_path-1"/>
        </mask>
        <use id="_形状结合" fill="#000000" fill-rule="nonzero" xlink:href="#_path-1"/>
    </g>
</svg>