<?xml version="1.0" encoding="utf-8"?>
<!-- Generator: Adobe Illustrator 24.3.0, SVG Export Plug-In . SVG Version: 6.00 Build 0)  -->
<svg version="1.1" id="图层_1" xmlns="http://www.w3.org/2000/svg" xmlns:xlink="http://www.w3.org/1999/xlink" x="0px" y="0px"
	 viewBox="0 0 24 24" style="enable-background:new 0 0 24 24;" xml:space="preserve">
<style type="text/css">
	.st0{fill-rule:evenodd;clip-rule:evenodd;}
</style>
<g>
	<path id="_uxs-a_1_" class="st0" d="M19,3.3c0.7,0.3,1.2,0.9,1.5,1.5S21,6.1,21,7.9v9.7c0,1.8-0.2,2.4-0.5,3.1s-0.9,1.2-1.5,1.5
		s-1.3,0.5-3.1,0.5H8.1c-1.8,0-2.4-0.2-3.1-0.5s-1.2-0.9-1.5-1.5S3,19.4,3,17.6V7.9c0-1.8,0.2-2.4,0.5-3.1S4.4,3.6,5,3.3
		C5.5,3,6,2.9,6.8,2.8c0,0.2,0,0.4,0,0.6v0.4c0,0.6,0.1,1.1,0.3,1.5c0.2,0.4,0.6,0.8,1,1c0.4,0.2,0.9,0.3,1.5,0.3h4.9
		c0.6,0,1.1-0.1,1.5-0.3c0.4-0.2,0.8-0.6,1-1c0.2-0.4,0.3-0.9,0.3-1.5V3.4c0-0.2,0-0.4,0-0.6C18,2.9,18.5,3,19,3.3z M17.3,10.2
		c-0.3-0.3-0.8-0.3-1.1,0l0,0l-4.8,4.8l0,0c-0.3,0.3-0.7,0.3-1,0l0,0L8.3,13l0,0c-0.3-0.3-0.7-0.3-1,0c-0.3,0.3-0.3,0.8,0,1.1l0,0
		l2.4,2.4l0,0c0.7,0.6,1.8,0.6,2.4,0l0,0l5.2-5.2l0,0C17.6,11,17.6,10.5,17.3,10.2z M14.5,1.6c0.5,0,0.8,0.1,1,0.2
		C15.7,2,15.9,2.1,16,2.4s0.2,0.5,0.2,1v0.4c0,0.5-0.1,0.8-0.2,1c-0.1,0.2-0.3,0.4-0.6,0.6c-0.2,0.1-0.5,0.2-1,0.2H9.5
		c-0.5,0-0.8-0.1-1-0.2C8.3,5.3,8.1,5.1,8,4.9c-0.1-0.2-0.2-0.5-0.2-1V3.4c0-0.5,0.1-0.8,0.2-1S8.3,2,8.5,1.8c0.2-0.1,0.5-0.2,1-0.2
		H14.5z"/>
</g>
</svg>
