<?xml version="1.0" encoding="UTF-8"?>
<svg xmlns="http://www.w3.org/2000/svg" xmlns:xlink="http://www.w3.org/1999/xlink" width="24" height="24" viewBox="0 0 24 24" version="1.1">
    <title>Public/ic_public_sim</title>
    <defs>
        <path d="M14.764,0.999772016 L21,7.23527202 L21,19 C21,21.209139 19.209139,23 17,23 L7,23 C4.790861,23 3,21.209139 3,19 L3,5 C3,2.790861 4.790861,1 7,1 L14.764,0.999772016 Z M14.14275,2.49975 L7,2.5 C5.64269002,2.5 4.53801707,3.5816677 4.50096045,4.93002379 L4.5,19 C4.5,20.35731 5.5816677,21.4619829 6.93002379,21.4990396 L7,21.5 L17,21.5 C18.35731,21.5 19.4619829,20.4183323 19.4990396,19.0699762 L19.5,19 L19.5,7.8565 L14.14275,2.49975 Z M8,13 C8.55228475,13 9,13.4477153 9,14 L9,19 C9,19.5522847 8.55228475,20 8,20 L7,20 C6.44771525,20 6,19.5522847 6,19 L6,14 C6,13.4477153 6.44771525,13 7,13 L8,13 Z M17,13 C17.5522847,13 18,13.4477153 18,14 L18,19 C18,19.5522847 17.5522847,20 17,20 L16,20 C15.4477153,20 15,19.5522847 15,19 L15,14 C15,13.4477153 15.4477153,13 16,13 L17,13 Z M13,17 C13.5522847,17 14,17.4477153 14,18 L14,19 C14,19.5522847 13.5522847,20 13,20 L11,20 C10.4477153,20 10,19.5522847 10,19 L10,18 C10,17.4477153 10.4477153,17 11,17 L13,17 Z M13,13 C13.5522847,13 14,13.4477153 14,14 L14,15 C14,15.5522847 13.5522847,16 13,16 L11,16 C10.4477153,16 10,15.5522847 10,15 L10,14 C10,13.4477153 10.4477153,13 11,13 L13,13 Z" id="_path-1"/>
    </defs>
    <g id="_Public/ic_public_sim" stroke="none" stroke-width="1" fill="none" fill-rule="evenodd">
        <mask id="_mask-2" fill="white">
            <use xlink:href="#_path-1"/>
        </mask>
        <use id="_形状结合" fill="#000000" fill-rule="nonzero" xlink:href="#_path-1"/>
    </g>
</svg>