<?xml version="1.0" encoding="UTF-8"?>
<svg xmlns="http://www.w3.org/2000/svg" xmlns:xlink="http://www.w3.org/1999/xlink" width="24" height="24" version="1.1" viewBox="0 0 24 24">
  <defs>
    <path id="_uxs-a" d="M8.54999489,0 L13.4500051,0 C14.6844157,0 15.1320428,0.121076884 15.5833248,0.348433961 C16.0346069,0.575791039 16.3887757,0.909428309 16.6301239,1.33454908 L16.6672917,1.40175336 C16.8846454,1.80611009 17,2.24255022 17,3.34419809 L17,16.6558019 L16.9989342,16.8333591 C16.9861582,17.8630491 16.8587697,18.2627049 16.6301239,18.6654509 C16.3887757,19.0905717 16.0346069,19.424209 15.5833248,19.651566 L15.5119849,19.6865792 C15.0827447,19.8913327 14.6194467,20 13.4500051,20 L8.54999489,20 L8.36151109,19.998996 C7.26845556,19.9869607 6.84420554,19.866957 6.41667518,19.651566 C5.96539313,19.424209 5.61122433,19.0905717 5.36987605,18.6654509 L5.33270828,18.5982466 C5.11535456,18.1938899 5,17.7574498 5,16.6558019 L5,3.34419809 C5,2.18134756 5.12852777,1.75966986 5.36987605,1.33454908 C5.61122433,0.909428309 5.96539313,0.575791039 6.41667518,0.348433961 L6.48801511,0.313420848 C6.91725533,0.108667342 7.38055331,0 8.54999489,0 Z M8.87656293,2 L8.67322965,2.00118701 C8.03831053,2.00919714 7.81801739,2.05870857 7.59358367,2.17873508 C7.41159178,2.27606383 7.27593857,2.41171484 7.17860824,2.59370379 C7.05057788,2.83309586 7.00277932,3.06777697 7,3.80596635 L7,16.1940336 L7.00110954,16.3307582 C7.00928082,16.9625241 7.0588379,17.1823488 7.17860824,17.4062962 C7.27593857,17.5882852 7.41159178,17.7239362 7.59358367,17.8212649 C7.81801739,17.9412914 8.03831053,17.9908029 8.67322965,17.998813 L8.87656293,18 L13.1233073,18 C13.9175425,18 14.1594095,17.9532941 14.4062866,17.8212649 C14.5882785,17.7239362 14.7239317,17.5882852 14.821262,17.4062962 C14.9412905,17.1818661 14.9908027,16.9615766 14.998813,16.3266677 L15,16.1233378 L15,3.87666224 C15,3.08243994 14.9532933,2.84057687 14.821262,2.59370379 C14.7239317,2.41171484 14.5882785,2.27606383 14.4062866,2.17873508 C14.1668906,2.0507068 13.9322057,2.00290901 13.1940044,2 L8.87656293,2 Z"/>
  </defs>
  <g fill="none" fill-rule="evenodd" stroke="none" stroke-width="1" transform="translate(1 2)">
    <path fill="#000" fill-rule="nonzero" d="M0.292893219,3.29289322 C0.65337718,2.93240926 1.22060824,2.90467972 1.61289944,3.20970461 L1.70710678,3.29289322 L3.70710678,5.29289322 C4.06759074,5.65337718 4.09532028,6.22060824 3.79029539,6.61289944 L3.70710678,6.70710678 L2.415,8 L3.70710678,9.29289322 C4.06759074,9.65337718 4.09532028,10.2206082 3.79029539,10.6128994 L3.70710678,10.7071068 L2.415,12 L3.70710678,13.2928932 C4.06759074,13.6533772 4.09532028,14.2206082 3.79029539,14.6128994 L3.70710678,14.7071068 L1.70710678,16.7071068 C1.31658249,17.0976311 0.683417511,17.0976311 0.292893219,16.7071068 C-0.0675907428,16.3466228 -0.0953202783,15.7793918 0.209704612,15.3871006 L0.292893219,15.2928932 L1.585,14 L0.292893219,12.7071068 C-0.0675907428,12.3466228 -0.0953202783,11.7793918 0.209704612,11.3871006 L0.292893219,11.2928932 L1.585,10 L0.292893219,8.70710678 C-0.0675907428,8.34662282 -0.0953202783,7.77939176 0.209704612,7.38710056 L0.292893219,7.29289322 L1.585,6 L0.292893219,4.70710678 C-0.0675907428,4.34662282 -0.0953202783,3.77939176 0.209704612,3.38710056 L0.292893219,3.29289322 Z"/>
    <path fill="#000" fill-rule="nonzero" d="M18.2928932,3.29289322 C18.6533772,2.93240926 19.2206082,2.90467972 19.6128994,3.20970461 L19.7071068,3.29289322 L21.7071068,5.29289322 C22.0675907,5.65337718 22.0953203,6.22060824 21.7902954,6.61289944 L21.7071068,6.70710678 L20.415,8 L21.7071068,9.29289322 C22.0675907,9.65337718 22.0953203,10.2206082 21.7902954,10.6128994 L21.7071068,10.7071068 L20.415,12 L21.7071068,13.2928932 C22.0675907,13.6533772 22.0953203,14.2206082 21.7902954,14.6128994 L21.7071068,14.7071068 L19.7071068,16.7071068 C19.3165825,17.0976311 18.6834175,17.0976311 18.2928932,16.7071068 C17.9324093,16.3466228 17.9046797,15.7793918 18.2097046,15.3871006 L18.2928932,15.2928932 L19.585,14 L18.2928932,12.7071068 C17.9324093,12.3466228 17.9046797,11.7793918 18.2097046,11.3871006 L18.2928932,11.2928932 L19.585,10 L18.2928932,8.70710678 C17.9324093,8.34662282 17.9046797,7.77939176 18.2097046,7.38710056 L18.2928932,7.29289322 L19.585,6 L18.2928932,4.70710678 C17.9324093,4.34662282 17.9046797,3.77939176 18.2097046,3.38710056 L18.2928932,3.29289322 Z" transform="matrix(-1 0 0 1 40 0)"/>
    <use fill="#000" fill-rule="nonzero" xlink:href="#_uxs-a"/>
  </g>
</svg>