<?xml version="1.0" encoding="UTF-8"?>
<svg xmlns="http://www.w3.org/2000/svg" xmlns:xlink="http://www.w3.org/1999/xlink" width="24" height="24" viewBox="0 0 24 24" version="1.1">
    <title>Public/ic_public_sim_filled</title>
    <defs>
        <path d="M14.764,0.999772016 L21,7.23527202 L21,19 C21,21.209139 19.209139,23 17,23 L7,23 C4.790861,23 3,21.209139 3,19 L3,5 C3,2.790861 4.790861,1 7,1 L14.764,0.999772016 Z M8,13 L7,13 C6.44771525,13 6,13.4477153 6,14 L6,14 L6,19 C6,19.5522847 6.44771525,20 7,20 L7,20 L8,20 C8.55228475,20 9,19.5522847 9,19 L9,19 L9,14 C9,13.4477153 8.55228475,13 8,13 L8,13 Z M17,13 L16,13 C15.4477153,13 15,13.4477153 15,14 L15,14 L15,19 C15,19.5522847 15.4477153,20 16,20 L16,20 L17,20 C17.5522847,20 18,19.5522847 18,19 L18,19 L18,14 C18,13.4477153 17.5522847,13 17,13 L17,13 Z M13,17 L11,17 C10.4477153,17 10,17.4477153 10,18 L10,18 L10,19 C10,19.5522847 10.4477153,20 11,20 L11,20 L13,20 C13.5522847,20 14,19.5522847 14,19 L14,19 L14,18 C14,17.4477153 13.5522847,17 13,17 L13,17 Z M13,13 L11,13 C10.4477153,13 10,13.4477153 10,14 L10,14 L10,15 C10,15.5522847 10.4477153,16 11,16 L11,16 L13,16 C13.5522847,16 14,15.5522847 14,15 L14,15 L14,14 C14,13.4477153 13.5522847,13 13,13 L13,13 Z" id="_path-1"/>
    </defs>
    <g id="_Public/ic_public_sim_filled" stroke="none" stroke-width="1" fill="none" fill-rule="evenodd">
        <mask id="_mask-2" fill="white">
            <use xlink:href="#_path-1"/>
        </mask>
        <use id="_路径" fill="#000000" fill-rule="nonzero" xlink:href="#_path-1"/>
    </g>
</svg>