<?xml version="1.0" encoding="UTF-8"?>
<svg xmlns="http://www.w3.org/2000/svg" xmlns:xlink="http://www.w3.org/1999/xlink" width="24" height="24" viewBox="0 0 24 24" version="1.1">
    <title>Public/ic_public_quickstart</title>
    <defs>
        <path d="M11.861925,4.00005 C13.189925,4.00005 14.266175,5.0748 14.266175,6.4003 L14.266175,6.4003 L14.266175,11.3753 C14.337175,11.38605 16.027175,11.77455 19.335925,12.54105 C20.381675,12.7833 21.050175,13.80555 20.851675,14.85905 L20.851675,14.85905 L19.778675,20.5548 C19.511425,21.97255 18.270925,23.00005 16.825925,23.00005 L16.825925,23.00005 L10.723425,23.00005 C9.837675,23.00005 8.997425,22.6098 8.426175,21.9338 L8.426175,21.9338 L4.269925,17.0118 C3.712675,16.35155 3.730175,15.38155 4.310675,14.74205 C4.745925,14.2628 5.355925,14.00305 5.980425,14.00305 C6.236675,14.00305 6.495175,14.0468 6.744925,14.13705 L6.744925,14.13705 L9.457925,15.1148 L9.457925,6.4003 C9.457925,5.0748 10.534425,4.00005 11.861925,4.00005 Z M11.861925,5.50005 C11.363425,5.50005 10.957925,5.90405 10.957925,6.4003 L10.957925,6.4003 L10.957925,15.1148 C10.957925,15.6033 10.720175,16.0613 10.320175,16.3423 C10.064425,16.52205 9.762675,16.6148 9.457925,16.6148 C9.286925,16.6148 9.114675,16.58555 8.949425,16.5258 L8.949425,16.5258 L6.236425,15.54805 C6.153675,15.5183 6.067675,15.5033 5.980425,15.5033 C5.767925,15.5033 5.563925,15.5933 5.421425,15.7503 C5.346675,15.83255 5.344425,15.95905 5.416175,16.04405 L5.416175,16.04405 L9.572425,20.96605 C9.858925,21.3053 10.278425,21.50005 10.723425,21.50005 L10.723425,21.50005 L16.825925,21.50005 C17.549425,21.50005 18.171175,20.98555 18.304675,20.2768 L18.304675,20.2768 L19.377675,14.5813 C19.427175,14.31755 19.260175,14.0633 18.997425,14.00255 C14.966425,13.06855 14.122425,12.87755 13.989675,12.84955 C13.282925,12.7173 12.766175,12.0993 12.766175,11.3753 L12.766175,11.3753 L12.766175,6.4003 C12.766175,5.90405 12.360675,5.50005 11.861925,5.50005 Z M3.803125,11.80715 C4.186625,11.64865 4.625625,11.83065 4.784375,12.21315 C4.943125,12.5959 4.760875,13.03465 4.377625,13.1929 C3.387625,13.60215 2.677875,14.50615 2.530375,15.59365 C2.382625,16.68215 2.826125,17.7469 3.672125,18.41015 C3.998375,18.66565 4.055125,19.13715 3.799125,19.46315 C3.542875,19.78915 3.070875,19.84565 2.744375,19.5899 C1.483375,18.6014 0.821875,17.01315 1.041875,15.3924 C1.261875,13.7704 2.323375,12.4184 3.803125,11.80715 Z M11.765525,1 C14.807775,1 17.274025,3.4625 17.274025,6.5 C17.274025,6.914 16.937525,7.25 16.522775,7.25 C16.107775,7.25 15.771775,6.914 15.771775,6.5 C15.771775,4.29075 13.978025,2.5 11.765525,2.5 C9.553275,2.5 7.759775,4.29075 7.759775,6.5 C7.759775,6.914 7.423525,7.25 7.008775,7.25 C6.594025,7.25 6.257525,6.914 6.257525,6.5 C6.257525,3.4625 8.723525,1 11.765525,1 Z" id="_path-1"/>
    </defs>
    <g id="_Public/ic_public_quickstart" stroke="none" stroke-width="1" fill="none" fill-rule="evenodd">
        <mask id="_mask-2" fill="white">
            <use xlink:href="#_path-1"/>
        </mask>
        <use id="_形状结合" fill="#1A1A1A" xlink:href="#_path-1"/>
    </g>
</svg>