<?xml version="1.0" encoding="UTF-8"?>
<svg xmlns="http://www.w3.org/2000/svg" xmlns:xlink="http://www.w3.org/1999/xlink" width="24" height="24" viewBox="0 0 24 24" version="1.1">
    <title>Public/ic_public_sd_filled</title>
    <defs>
        <path d="M14.8786797,1 C15.2765044,1 15.6580353,1.15803526 15.9393398,1.43933983 L20.5606602,6.06066017 C20.8419647,6.34196474 21,6.72349561 21,7.12132034 L21,12 L19,12 L19,13.5 L21,15.5 L21,20 C21,21.6568542 19.6568542,23 18,23 L6,23 C4.34314575,23 3,21.6568542 3,20 L3,4 C3,2.34314575 4.34314575,1 6,1 L14.8786797,1 Z M8.2203125,5 L6.279375,5 C6.125,5 6,5.125 6,5.2796875 L6,9.7203125 C6,9.875 6.125,10 6.279375,10 L8.2203125,10 C8.3746875,10 8.5,9.875 8.5,9.7203125 L8.5,5.2796875 C8.5,5.125 8.3746875,5 8.2203125,5 Z M15.2203125,5 L13.2796875,5 C13.125,5 13,5.125 13,5.2796875 L13,9.7203125 C13,9.875 13.125,10 13.2796875,10 L15.2203125,10 C15.3746875,10 15.5,9.875 15.5,9.7203125 L15.5,5.2796875 C15.5,5.125 15.3746875,5 15.2203125,5 Z M11.7203125,5 L9.7796875,5 C9.625,5 9.5,5.12499318 9.5,5.27967223 L9.5,9.72005478 C9.5,9.87473384 9.625,9.99972701 9.7796875,9.99972701 L11.7203125,9.99972701 C11.8746875,9.99972701 12,9.87473384 12,9.72005478 L12,5.27967223 C12,5.12499318 11.8746875,5 11.7203125,5 Z" id="_path-1"/>
    </defs>
    <g id="_Public/ic_public_sd_filled" stroke="none" stroke-width="1" fill="none" fill-rule="evenodd">
        <mask id="_mask-2" fill="white">
            <use xlink:href="#_path-1"/>
        </mask>
        <use id="_形状结合" fill="#000000" fill-rule="nonzero" xlink:href="#_path-1"/>
    </g>
</svg>