<?xml version="1.0" encoding="UTF-8"?>
<svg xmlns="http://www.w3.org/2000/svg" xmlns:xlink="http://www.w3.org/1999/xlink" width="24" height="24" viewBox="0 0 24 24" version="1.1">
    <title>Public/ic_public_email_filled</title>
    <defs>
        <path d="M19,3 C21.209139,3 23,4.790861 23,7 L23,17 C23,19.209139 21.209139,21 19,21 L5,21 C2.790861,21 1,19.209139 1,17 L1,7 C1,4.790861 2.790861,3 5,3 L19,3 Z M4.24433269,5.43592862 C3.94973814,5.17724532 3.5008474,5.18849242 3.21966991,5.46966991 C2.9267767,5.76256313 2.9267767,6.23743687 3.21966991,6.53033009 L3.21966991,6.53033009 L9.34834957,12.6590097 L9.41354292,12.7226684 C10.8824533,14.1231591 13.2087206,14.1019396 14.6516504,12.6590097 L14.6516504,12.6590097 L20.7803301,6.53033009 L20.8140714,6.49433269 C21.0727547,6.19973814 21.0615076,5.7508474 20.7803301,5.46966991 C20.4874369,5.1767767 20.0125631,5.1767767 19.7196699,5.46966991 L19.7196699,5.46966991 L13.5909903,11.5983496 L13.5386818,11.6490231 C12.656653,12.4766914 11.2704604,12.4598002 10.4090097,11.5983496 L10.4090097,11.5983496 L4.28033009,5.46966991 Z" id="_path-1"/>
    </defs>
    <g id="_Public/ic_public_email_filled" stroke="none" stroke-width="1" fill="none" fill-rule="evenodd">
        <mask id="_mask-2" fill="white">
            <use xlink:href="#_path-1"/>
        </mask>
        <use id="_形状结合" fill="#000000" xlink:href="#_path-1"/>
    </g>
</svg>