<?xml version="1.0" encoding="UTF-8"?>
<svg xmlns="http://www.w3.org/2000/svg" xmlns:xlink="http://www.w3.org/1999/xlink" width="24" height="24" viewBox="0 0 24 24" version="1.1">
    <title>Public/ic_public_code_filled</title>
    <defs>
        <path d="M8.0451435,12.75 C9.15954192,12.75 9.56364972,12.866032 9.97105713,13.0839159 C10.3784645,13.3017997 10.6982003,13.6215355 10.9160841,14.0289429 C11.133968,14.4363503 11.25,14.8404581 11.25,15.9548565 L11.25,18.2951435 C11.25,19.4095419 11.133968,19.8136497 10.9160841,20.2210571 C10.6982003,20.6284645 10.3784645,20.9482003 9.97105713,21.1660841 C9.56364972,21.383968 9.15954192,21.5 8.0451435,21.5 L5.7048565,21.5 C4.59045808,21.5 4.18635028,21.383968 3.77894287,21.1660841 C3.37153546,20.9482003 3.05179975,20.6284645 2.83391588,20.2210571 C2.6305576,19.8408102 2.51592361,19.4634376 2.50154289,18.5087641 L2.5,15.9548565 C2.5,14.8404581 2.61603201,14.4363503 2.83391588,14.0289429 C3.05179975,13.6215355 3.37153546,13.3017997 3.77894287,13.0839159 C4.15918978,12.8805576 4.53656237,12.7659236 5.49123592,12.7515429 L8.0451435,12.75 Z M14.8590287,18.25 C15.0819084,18.25 15.1627299,18.2732064 15.2442114,18.3167832 C15.3256929,18.3603599 15.3896401,18.4243071 15.4332168,18.5057886 C15.4767936,18.5872701 15.5,18.6680916 15.5,18.8909713 L15.5,20.3590287 C15.5,20.5819084 15.4767936,20.6627299 15.4332168,20.7442114 C15.3896401,20.8256929 15.3256929,20.8896401 15.2442114,20.9332168 C15.1627299,20.9767936 15.0819084,21 14.8590287,21 L13.3909713,21 C13.1680916,21 13.0872701,20.9767936 13.0057886,20.9332168 C12.9243071,20.8896401 12.8603599,20.8256929 12.8167832,20.7442114 C12.7732064,20.6627299 12.75,20.5819084 12.75,20.3590287 L12.75,18.8909713 C12.75,18.6680916 12.7732064,18.5872701 12.8167832,18.5057886 C12.8603599,18.4243071 12.9243071,18.3603599 13.0057886,18.3167832 C13.0872701,18.2732064 13.1680916,18.25 13.3909713,18.25 L14.8590287,18.25 Z M20.6090287,18.25 C20.8319084,18.25 20.9127299,18.2732064 20.9942114,18.3167832 C21.0756929,18.3603599 21.1396401,18.4243071 21.1832168,18.5057886 C21.2267936,18.5872701 21.25,18.6680916 21.25,18.8909713 L21.25,20.3590287 C21.25,20.5819084 21.2267936,20.6627299 21.1832168,20.7442114 C21.1396401,20.8256929 21.0756929,20.8896401 20.9942114,20.9332168 C20.9127299,20.9767936 20.8319084,21 20.6090287,21 L19.1409713,21 C18.9180916,21 18.8372701,20.9767936 18.7557886,20.9332168 C18.6743071,20.8896401 18.6103599,20.8256929 18.5667832,20.7442114 C18.5232064,20.6627299 18.5,20.5819084 18.5,20.3590287 L18.5,18.8909713 C18.5,18.6680916 18.5232064,18.5872701 18.5667832,18.5057886 C18.6103599,18.4243071 18.6743071,18.3603599 18.7557886,18.3167832 C18.8372701,18.2732064 18.9180916,18.25 19.1409713,18.25 L20.6090287,18.25 Z M5.7048565,14.75 C5.27844254,14.75 5.01125466,14.768989 4.85598998,14.798972 C4.79516847,14.8107172 4.78173484,14.8156709 4.72214059,14.8475423 C4.66327013,14.8790265 4.62902654,14.9132701 4.59754228,14.9721406 C4.56567092,15.0317348 4.56071719,15.0451685 4.54897202,15.10599 C4.52327231,15.239074 4.5056498,15.4543873 4.50113928,15.7817183 L4.5,18.2951435 C4.5,18.7215575 4.51898903,18.9887453 4.54897202,19.14401 C4.56071719,19.2048315 4.56567092,19.2182652 4.59754228,19.2778594 C4.62902654,19.3367299 4.66327013,19.3709735 4.72214059,19.4024577 C4.78173484,19.4343291 4.79516847,19.4392828 4.85598998,19.451028 C4.98907399,19.4767277 5.2043873,19.4943502 5.53171829,19.4988607 L5.7048565,19.5 L8.0451435,19.5 L8.37275031,19.4955361 C8.61509966,19.4882517 8.78310668,19.4724444 8.89401002,19.451028 C8.95483153,19.4392828 8.96826516,19.4343291 9.02785941,19.4024577 C9.08672987,19.3709735 9.12097346,19.3367299 9.15245772,19.2778594 C9.18432908,19.2182652 9.18928281,19.2048315 9.20102798,19.14401 C9.22672769,19.010926 9.2443502,18.7956127 9.24886072,18.4682817 L9.25,18.2951435 L9.25,15.9548565 L9.2455361,15.6272497 C9.23825166,15.3849003 9.2224444,15.2168933 9.20102798,15.10599 C9.18928281,15.0451685 9.18432908,15.0317348 9.15245772,14.9721406 C9.12097346,14.9132701 9.08672987,14.8790265 9.02785941,14.8475423 C8.96826516,14.8156709 8.95483153,14.8107172 8.89401002,14.798972 C8.76092601,14.7732723 8.5456127,14.7556498 8.21828171,14.7511393 L5.7048565,14.75 Z M17.8590287,15.5 C18.0819084,15.5 18.1627299,15.5232064 18.2442114,15.5667832 C18.3256929,15.6103599 18.3896401,15.6743071 18.4332168,15.7557886 C18.4767936,15.8372701 18.5,15.9180916 18.5,16.1409713 L18.5,17.8590287 C18.5,18.0819084 18.4767936,18.1627299 18.4332168,18.2442114 C18.3896401,18.3256929 18.3256929,18.3896401 18.2442114,18.4332168 C18.1627299,18.4767936 18.0819084,18.5 17.8590287,18.5 L16.1409713,18.5 C15.9180916,18.5 15.8372701,18.4767936 15.7557886,18.4332168 C15.6743071,18.3896401 15.6103599,18.3256929 15.5667832,18.2442114 C15.5232064,18.1627299 15.5,18.0819084 15.5,17.8590287 L15.5,16.1409713 C15.5,15.9180916 15.5232064,15.8372701 15.5667832,15.7557886 C15.6103599,15.6743071 15.6743071,15.6103599 15.7557886,15.5667832 C15.8372701,15.5232064 15.9180916,15.5 16.1409713,15.5 L17.8590287,15.5 Z M7.67951435,16 C7.79095419,16 7.83136497,16.0116032 7.87210571,16.0333916 C7.91284645,16.05518 7.94482003,16.0871535 7.96660841,16.1278943 C7.9883968,16.168635 8,16.2090458 8,16.3204856 L8,17.9295144 C8,18.0409542 7.9883968,18.081365 7.96660841,18.1221057 C7.94482003,18.1628465 7.91284645,18.19482 7.87210571,18.2166084 C7.83136497,18.2383968 7.79095419,18.25 7.67951435,18.25 L6.07048565,18.25 C5.95904581,18.25 5.91863503,18.2383968 5.87789429,18.2166084 C5.83715355,18.19482 5.80517997,18.1628465 5.78339159,18.1221057 C5.7616032,18.081365 5.75,18.0409542 5.75,17.9295144 L5.75,16.3204856 C5.75,16.2090458 5.7616032,16.168635 5.78339159,16.1278943 C5.80517997,16.0871535 5.83715355,16.05518 5.87789429,16.0333916 C5.91863503,16.0116032 5.95904581,16 6.07048565,16 L7.67951435,16 Z M14.8590287,13 C15.0819084,13 15.1627299,13.0232064 15.2442114,13.0667832 C15.3256929,13.1103599 15.3896401,13.1743071 15.4332168,13.2557886 C15.4767936,13.3372701 15.5,13.4180916 15.5,13.6409713 L15.5,15.1090287 C15.5,15.3319084 15.4767936,15.4127299 15.4332168,15.4942114 C15.3896401,15.5756929 15.3256929,15.6396401 15.2442114,15.6832168 C15.1627299,15.7267936 15.0819084,15.75 14.8590287,15.75 L13.3909713,15.75 C13.1680916,15.75 13.0872701,15.7267936 13.0057886,15.6832168 C12.9243071,15.6396401 12.8603599,15.5756929 12.8167832,15.4942114 C12.7732064,15.4127299 12.75,15.3319084 12.75,15.1090287 L12.75,13.6409713 C12.75,13.4180916 12.7732064,13.3372701 12.8167832,13.2557886 C12.8603599,13.1743071 12.9243071,13.1103599 13.0057886,13.0667832 C13.0872701,13.0232064 13.1680916,13 13.3909713,13 L14.8590287,13 Z M20.6090287,13 C20.8319084,13 20.9127299,13.0232064 20.9942114,13.0667832 C21.0756929,13.1103599 21.1396401,13.1743071 21.1832168,13.2557886 C21.2267936,13.3372701 21.25,13.4180916 21.25,13.6409713 L21.25,15.1090287 C21.25,15.3319084 21.2267936,15.4127299 21.1832168,15.4942114 C21.1396401,15.5756929 21.0756929,15.6396401 20.9942114,15.6832168 C20.9127299,15.7267936 20.8319084,15.75 20.6090287,15.75 L19.1409713,15.75 C18.9180916,15.75 18.8372701,15.7267936 18.7557886,15.6832168 C18.6743071,15.6396401 18.6103599,15.5756929 18.5667832,15.4942114 C18.5232064,15.4127299 18.5,15.3319084 18.5,15.1090287 L18.5,13.6409713 C18.5,13.4180916 18.5232064,13.3372701 18.5667832,13.2557886 C18.6103599,13.1743071 18.6743071,13.1103599 18.7557886,13.0667832 C18.8372701,13.0232064 18.9180916,13 19.1409713,13 L20.6090287,13 Z M8.0451435,2.5 C9.15954192,2.5 9.56364972,2.61603201 9.97105713,2.83391588 C10.3784645,3.05179975 10.6982003,3.37153546 10.9160841,3.77894287 C11.133968,4.18635028 11.25,4.59045808 11.25,5.7048565 L11.25,8.0451435 C11.25,9.15954192 11.133968,9.56364972 10.9160841,9.97105713 C10.6982003,10.3784645 10.3784645,10.6982003 9.97105713,10.9160841 C9.56364972,11.133968 9.15954192,11.25 8.0451435,11.25 L5.7048565,11.25 C4.59045808,11.25 4.18635028,11.133968 3.77894287,10.9160841 C3.37153546,10.6982003 3.05179975,10.3784645 2.83391588,9.97105713 C2.6305576,9.59081022 2.51592361,9.21343763 2.50154289,8.25876408 L2.5,5.7048565 C2.5,4.59045808 2.61603201,4.18635028 2.83391588,3.77894287 C3.05179975,3.37153546 3.37153546,3.05179975 3.77894287,2.83391588 C4.15918978,2.6305576 4.53656237,2.51592361 5.49123592,2.50154289 L8.0451435,2.5 Z M18.2951435,2.5 C19.4095419,2.5 19.8136497,2.61603201 20.2210571,2.83391588 C20.6284645,3.05179975 20.9482003,3.37153546 21.1660841,3.77894287 C21.383968,4.18635028 21.5,4.59045808 21.5,5.7048565 L21.5,8.0451435 C21.5,9.15954192 21.383968,9.56364972 21.1660841,9.97105713 C20.9482003,10.3784645 20.6284645,10.6982003 20.2210571,10.9160841 C19.8136497,11.133968 19.4095419,11.25 18.2951435,11.25 L15.9548565,11.25 C14.8404581,11.25 14.4363503,11.133968 14.0289429,10.9160841 C13.6215355,10.6982003 13.3017997,10.3784645 13.0839159,9.97105713 C12.8805576,9.59081022 12.7659236,9.21343763 12.7515429,8.25876408 L12.75,5.7048565 C12.75,4.59045808 12.866032,4.18635028 13.0839159,3.77894287 C13.3017997,3.37153546 13.6215355,3.05179975 14.0289429,2.83391588 C14.4091898,2.6305576 14.7865624,2.51592361 15.7412359,2.50154289 L18.2951435,2.5 Z M5.7048565,4.5 C5.27844254,4.5 5.01125466,4.51898903 4.85598998,4.54897202 C4.79516847,4.56071719 4.78173484,4.56567092 4.72214059,4.59754228 C4.66327013,4.62902654 4.62902654,4.66327013 4.59754228,4.72214059 C4.56567092,4.78173484 4.56071719,4.79516847 4.54897202,4.85598998 C4.52327231,4.98907399 4.5056498,5.2043873 4.50113928,5.53171829 L4.5,8.0451435 C4.5,8.47155746 4.51898903,8.73874534 4.54897202,8.89401002 C4.56071719,8.95483153 4.56567092,8.96826516 4.59754228,9.02785941 C4.62902654,9.08672987 4.66327013,9.12097346 4.72214059,9.15245772 C4.78173484,9.18432908 4.79516847,9.18928281 4.85598998,9.20102798 C4.98907399,9.22672769 5.2043873,9.2443502 5.53171829,9.24886072 L5.7048565,9.25 L8.0451435,9.25 L8.37275031,9.2455361 C8.61509966,9.23825166 8.78310668,9.2224444 8.89401002,9.20102798 C8.95483153,9.18928281 8.96826516,9.18432908 9.02785941,9.15245772 C9.08672987,9.12097346 9.12097346,9.08672987 9.15245772,9.02785941 C9.18432908,8.96826516 9.18928281,8.95483153 9.20102798,8.89401002 C9.22672769,8.76092601 9.2443502,8.5456127 9.24886072,8.21828171 L9.25,8.0451435 L9.25,5.7048565 L9.2455361,5.37724969 C9.23825166,5.13490034 9.2224444,4.96689332 9.20102798,4.85598998 C9.18928281,4.79516847 9.18432908,4.78173484 9.15245772,4.72214059 C9.12097346,4.66327013 9.08672987,4.62902654 9.02785941,4.59754228 C8.96826516,4.56567092 8.95483153,4.56071719 8.89401002,4.54897202 C8.76092601,4.52327231 8.5456127,4.5056498 8.21828171,4.50113928 L5.7048565,4.5 Z M15.9548565,4.5 C15.5284425,4.5 15.2612547,4.51898903 15.10599,4.54897202 C15.0451685,4.56071719 15.0317348,4.56567092 14.9721406,4.59754228 C14.9132701,4.62902654 14.8790265,4.66327013 14.8475423,4.72214059 C14.8156709,4.78173484 14.8107172,4.79516847 14.798972,4.85598998 C14.7732723,4.98907399 14.7556498,5.2043873 14.7511393,5.53171829 L14.75,8.0451435 C14.75,8.47155746 14.768989,8.73874534 14.798972,8.89401002 C14.8107172,8.95483153 14.8156709,8.96826516 14.8475423,9.02785941 C14.8790265,9.08672987 14.9132701,9.12097346 14.9721406,9.15245772 C15.0317348,9.18432908 15.0451685,9.18928281 15.10599,9.20102798 C15.239074,9.22672769 15.4543873,9.2443502 15.7817183,9.24886072 L15.9548565,9.25 L18.2951435,9.25 L18.6227503,9.2455361 C18.8650997,9.23825166 19.0331067,9.2224444 19.14401,9.20102798 C19.2048315,9.18928281 19.2182652,9.18432908 19.2778594,9.15245772 C19.3367299,9.12097346 19.3709735,9.08672987 19.4024577,9.02785941 C19.4343291,8.96826516 19.4392828,8.95483153 19.451028,8.89401002 C19.4767277,8.76092601 19.4943502,8.5456127 19.4988607,8.21828171 L19.5,8.0451435 L19.5,5.7048565 L19.4955361,5.37724969 C19.4882517,5.13490034 19.4724444,4.96689332 19.451028,4.85598998 C19.4392828,4.79516847 19.4343291,4.78173484 19.4024577,4.72214059 C19.3709735,4.66327013 19.3367299,4.62902654 19.2778594,4.59754228 C19.2182652,4.56567092 19.2048315,4.56071719 19.14401,4.54897202 C19.010926,4.52327231 18.7956127,4.5056498 18.4682817,4.50113928 L15.9548565,4.5 Z M7.67951435,5.75 C7.79095419,5.75 7.83136497,5.7616032 7.87210571,5.78339159 C7.91284645,5.80517997 7.94482003,5.83715355 7.96660841,5.87789429 C7.9883968,5.91863503 8,5.95904581 8,6.07048565 L8,7.67951435 C8,7.79095419 7.9883968,7.83136497 7.96660841,7.87210571 C7.94482003,7.91284645 7.91284645,7.94482003 7.87210571,7.96660841 C7.83136497,7.9883968 7.79095419,8 7.67951435,8 L6.07048565,8 C5.95904581,8 5.91863503,7.9883968 5.87789429,7.96660841 C5.83715355,7.94482003 5.80517997,7.91284645 5.78339159,7.87210571 C5.7616032,7.83136497 5.75,7.79095419 5.75,7.67951435 L5.75,6.07048565 C5.75,5.95904581 5.7616032,5.91863503 5.78339159,5.87789429 C5.80517997,5.83715355 5.83715355,5.80517997 5.87789429,5.78339159 C5.91863503,5.7616032 5.95904581,5.75 6.07048565,5.75 L7.67951435,5.75 Z M17.9295144,5.75 C18.0409542,5.75 18.081365,5.7616032 18.1221057,5.78339159 C18.1628465,5.80517997 18.19482,5.83715355 18.2166084,5.87789429 C18.2383968,5.91863503 18.25,5.95904581 18.25,6.07048565 L18.25,7.67951435 C18.25,7.79095419 18.2383968,7.83136497 18.2166084,7.87210571 C18.19482,7.91284645 18.1628465,7.94482003 18.1221057,7.96660841 C18.081365,7.9883968 18.0409542,8 17.9295144,8 L16.3204856,8 C16.2090458,8 16.168635,7.9883968 16.1278943,7.96660841 C16.0871535,7.94482003 16.05518,7.91284645 16.0333916,7.87210571 C16.0116032,7.83136497 16,7.79095419 16,7.67951435 L16,6.07048565 C16,5.95904581 16.0116032,5.91863503 16.0333916,5.87789429 C16.05518,5.83715355 16.0871535,5.80517997 16.1278943,5.78339159 C16.168635,5.7616032 16.2090458,5.75 16.3204856,5.75 L17.9295144,5.75 Z" id="_path-1"/>
    </defs>
    <g id="_Public/ic_public_code_filled" stroke="none" stroke-width="1" fill="none" fill-rule="evenodd">
        <mask id="_mask-2" fill="white">
            <use xlink:href="#_path-1"/>
        </mask>
        <use id="_形状结合" fill="#000000" fill-rule="nonzero" xlink:href="#_path-1"/>
    </g>
</svg>