<?xml version="1.0" encoding="UTF-8"?>
<svg xmlns="http://www.w3.org/2000/svg" xmlns:xlink="http://www.w3.org/1999/xlink" width="24" height="24" viewBox="0 0 24 24" version="1.1">
    <title>Public/ic_public_security_filled</title>
    <defs>
        <path d="M10.6911795,1.30107415 C11.5177131,0.900330583 12.4822869,0.900330583 13.3088205,1.30107415 L13.3088205,1.30107415 L19.7316154,4.41515652 C20.5073719,4.79128086 21,5.57760856 21,6.43973826 L21,6.43973826 L21,11.25 C21,16.5158971 17.6459225,21.1101108 12.7508862,22.7973636 C12.7379871,22.8018097 12.7161694,22.8089491 12.685433,22.8187818 C12.2393172,22.9614959 11.759784,22.9614277 11.3137088,22.8185866 L11.3137088,22.8185866 L11.2767569,22.806645 L11.2767569,22.806645 L11.2519921,22.7983767 C6.35549222,21.1121681 3,16.5172142 3,11.25 L3,11.25 L3,6.43973826 C3,5.57760856 3.49262814,4.79128086 4.26838461,4.41515652 L4.26838461,4.41515652 Z M17.7559659,8.19530573 C17.4630727,7.90241251 16.9881989,7.90241251 16.6953057,8.19530573 L16.6953057,8.19530573 L10.9393398,13.9512716 L10.9175346,13.9706982 C10.8194052,14.0484046 10.6764439,14.0419291 10.5857864,13.9512716 L10.5857864,13.9512716 L7.8172574,11.1827426 L7.78519621,11.1524819 C7.49067675,10.890223 7.03902998,10.9003099 6.75659723,11.1827426 C6.46370401,11.4756358 6.46370401,11.9505096 6.75659723,12.2434028 L6.75659723,12.2434028 L9.52512627,15.0119318 L9.56838507,15.0537555 C10.2545278,15.6950527 11.3308204,15.6811114 12,15.0119318 L12,15.0119318 L17.7559659,9.2559659 L17.7862266,9.22390471 C18.0484855,8.92938525 18.0383986,8.47773848 17.7559659,8.19530573 Z" id="_path-1"/>
    </defs>
    <g id="_Public/ic_public_security_filled" stroke="none" stroke-width="1" fill="none" fill-rule="evenodd">
        <mask id="_mask-2" fill="white">
            <use xlink:href="#_path-1"/>
        </mask>
        <use id="_形状结合" fill="#000000" fill-rule="nonzero" xlink:href="#_path-1"/>
    </g>
</svg>