<?xml version="1.0" encoding="UTF-8"?>
<svg xmlns="http://www.w3.org/2000/svg" xmlns:xlink="http://www.w3.org/1999/xlink" width="24" height="24" viewBox="0 0 24 24" version="1.1">
    <title>Public/ic_public_sd</title>
    <defs>
        <path d="M14.6715729,1 C15.2020059,1 15.7107137,1.21071368 16.0857864,1.58578644 L20.4142136,5.91421356 C20.7892863,6.28928632 21,6.79799415 21,7.32842712 L21,12 L19,12 L19,13.5 L21,15.5 L21,20 C21,21.6568542 19.6568542,23 18,23 L6,23 C4.34314575,23 3,21.6568542 3,20 L3,4 C3,2.34314575 4.34314575,1 6,1 L14.6715729,1 Z M14.6715729,2.5 L6,2.5 C5.19040076,2.5 4.53060706,3.14139372 4.50103462,3.94376543 L4.5,4 L4.5,20 C4.5,20.8095992 5.14139372,21.4693929 5.94376543,21.4989654 L6,21.5 L18,21.5 C18.8095992,21.5 19.4693929,20.8586063 19.4989654,20.0562346 L19.5,20 L19.5,16.12125 L17.5,14.1213203 L17.5,10.5 L19.5,10.5 L19.5,7.32842712 C19.5,7.21055313 19.4583775,7.09697052 19.3832717,7.00732878 L19.3535534,6.97487373 L15.0251263,2.64644661 C14.9417768,2.56309711 14.8320302,2.5122136 14.7155361,2.50193516 L14.6715729,2.5 Z M8.2203125,5 C8.35263393,5 8.46360332,5.09183673 8.49260842,5.21548834 L8.5,5.2796875 L8.5,9.7203125 C8.5,9.85290179 8.40793367,9.96367985 8.28441327,9.99262482 L8.2203125,10 L6.279375,10 C6.14705357,10 6.03631378,9.90816327 6.00737427,9.78451166 L6,9.7203125 L6,5.2796875 C6,5.14709821 6.09183673,5.03632015 6.21529155,5.00737518 L6.279375,5 L8.2203125,5 Z M15.2203125,5 C15.3526339,5 15.4636033,5.09183673 15.4926084,5.21548834 L15.5,5.2796875 L15.5,9.7203125 C15.5,9.85290179 15.4079337,9.96367985 15.2844133,9.99262482 L15.2203125,10 L13.2796875,10 C13.1470982,10 13.0363202,9.90816327 13.0073752,9.78451166 L13,9.7203125 L13,5.2796875 C13,5.14709821 13.0918367,5.03632015 13.2154883,5.00737518 L13.2796875,5 L15.2203125,5 Z M11.7203125,5 C11.8526339,5 11.9636033,5.09183172 11.9926084,5.21547657 L12,5.27967223 L12,9.72005478 C12,9.85263683 11.9079337,9.96340884 11.7844133,9.99235224 L11.7203125,9.99972701 L9.7796875,9.99972701 C9.64709821,9.99972701 9.53632015,9.90789529 9.50737518,9.78425044 L9.5,9.72005478 L9.5,5.27967223 C9.5,5.14709018 9.59183673,5.03631817 9.71548834,5.00737478 L9.7796875,5 L11.7203125,5 Z" id="_path-1"/>
    </defs>
    <g id="_Public/ic_public_sd" stroke="none" stroke-width="1" fill="none" fill-rule="evenodd">
        <mask id="_mask-2" fill="white">
            <use xlink:href="#_path-1"/>
        </mask>
        <use id="_形状结合" fill="#000000" fill-rule="nonzero" xlink:href="#_path-1"/>
    </g>
</svg>