<?xml version="1.0" encoding="UTF-8"?>
<svg xmlns="http://www.w3.org/2000/svg" xmlns:xlink="http://www.w3.org/1999/xlink" width="24" height="24" viewBox="0 0 24 24" version="1.1">
    <title>Public/ic_public_car_filled</title>
    <defs>
        <radialGradient cx="90.5989625%" cy="-6.64131527%" fx="90.5989625%" fy="-6.64131527%" r="113.542094%" gradientTransform="translate(0.905990,-0.066413),scale(0.711574,1.000000),rotate(134.266091),translate(-0.905990,0.066413)" id="_radialGradient-1">
            <stop stop-color="#FFFFFF" stop-opacity="0.5" offset="0%"/>
            <stop stop-color="#FFFFFF" stop-opacity="0" offset="100%"/>
        </radialGradient>
        <path d="M5.16340893,5.01366811 C6.0220911,4.09378252 8.36061163,3.69539926 12.0051744,3.71681328 C15.6497371,3.69539926 17.9882576,4.09378252 18.8469398,5.01366811 C19.4848248,5.69701897 20.8764711,9.06850605 20.9190901,9.2011655 C21.5809423,9.38375767 22.1544598,9.6923114 22.6396426,10.1268267 C23.367417,10.7785997 23.5027233,11.3523971 23.5040969,11.5160974 C23.5146348,13.1327542 22.9001513,19.3121938 22.752159,19.6797118 C22.5746502,20.1205295 20.360571,20.2338138 19.2972704,19.8378479 C19.0228599,19.7324239 18.8856547,19.3736419 18.8856547,18.7615021 L18.8856547,18.4786558 L4.9800141,18.4786558 L4.9800141,18.7615021 C4.9800141,19.3736419 4.84280887,19.7324239 4.56839839,19.8378479 C3.50509773,20.2338138 1.29101854,20.1205295 1.1135098,19.6797118 C0.941250179,19.2519296 0.498164922,12.7664202 0.506413386,11.5160974 C0.507625461,11.3523971 0.815492949,10.6325199 1.3801483,10.1268267 C1.7565852,9.7896979 2.3269553,9.48114417 3.0912586,9.2011655 C3.13149039,9.07593664 4.5208698,5.70200485 5.16340893,5.01366811 Z M16.0070925,15.9476073 C16.2920391,15.9476073 16.523034,15.7156185 16.523034,15.4294458 C16.523034,15.1432731 16.2920391,14.9112843 16.0070925,14.9112843 L7.72014605,14.9112843 C7.43519945,14.9112843 7.20420458,15.1432731 7.20420458,15.4294458 C7.20420458,15.7156185 7.43519945,15.9476073 7.72014605,15.9476073 L16.0070925,15.9476073 Z M6.43029238,15.6885266 L6.43029238,15.1703651 C6.43029238,14.8841924 6.19929751,14.6522035 5.91435091,14.6522035 L3.59261429,14.3931228 C3.30766769,14.3931228 3.07667282,14.6251116 3.07667282,14.9112843 L3.07667282,15.6885266 C3.07667282,15.9746993 3.30766769,16.2066881 3.59261429,16.2066881 L5.91435091,16.2066881 C6.19929751,16.2066881 6.43029238,15.9746993 6.43029238,15.6885266 Z M20.6505657,15.6885266 L20.6505657,14.9112843 C20.6505657,14.6251116 20.4195709,14.3931228 20.1346243,14.3931228 L17.8128877,14.6522035 C17.5279411,14.6522035 17.2969462,14.8841924 17.2969462,15.1703651 L17.2969462,15.6885266 C17.2969462,15.9746993 17.5279411,16.2066881 17.8128877,16.2066881 L20.1346243,16.2066881 C20.4195709,16.2066881 20.6505657,15.9746993 20.6505657,15.6885266 Z M4.7470538,9.80225613 C7.42526152,9.48868884 9.66955631,9.3319052 11.4799382,9.3319052 C14.3991473,9.3319052 16.3493747,9.51294097 19.337792,9.87490058 C19.337792,9.87490058 18.3115131,7.02621 17.463236,6.11747118 C17.0421106,5.6663296 15.1866008,5.32900643 12.0654157,5.31037088 C8.94423048,5.29173532 6.95541135,5.6663296 6.53428591,6.11747118 C5.96876789,6.72329706 5.37302385,7.95155871 4.7470538,9.80225613 Z" id="_path-2"/>
    </defs>
    <g id="_Public/ic_public_car_filled" stroke="none" stroke-width="1" fill="none" fill-rule="evenodd">
        <mask id="_mask-3" fill="white">
            <use xlink:href="#_path-2"/>
        </mask>
        <g id="_形状">
            <use fill="#000000" xlink:href="#_path-2"/>
            <use fill-opacity="0.5" fill="url(#_radialGradient-1)" xlink:href="#_path-2"/>
        </g>
    </g>
</svg>