<?xml version="1.0" encoding="UTF-8"?>
<svg xmlns="http://www.w3.org/2000/svg" xmlns:xlink="http://www.w3.org/1999/xlink" width="24" height="24" viewBox="0 0 24 24" version="1.1">
    <title>Public/ic_public_gps</title>
    <defs>
        <path d="M12,0.890443665 C17.1054507,0.890443665 21.25,4.95664638 21.25,9.97979602 C21.25,11.9360332 20.6574499,13.8475128 19.5576286,15.7794054 C18.8729064,16.982155 18.0501448,18.1145504 16.9608635,19.4075471 L16.9608635,19.4075471 L16.694253,19.7210681 L16.4170134,20.0414657 C16.3227849,20.1494899 16.226719,20.2587783 16.1287501,20.3694494 C15.9102985,20.6162244 15.6650022,20.8755327 15.3927717,21.1475453 L15.3927717,21.1475453 L15.1835472,21.3539395 C15.0406956,21.4931272 14.8911049,21.6355018 14.7347638,21.7810844 L14.7347638,21.7810844 L14.495188,22.0018672 L14.495188,22.0018672 L14.3716004,22.1140683 L14.1168206,22.3420995 C14.0302033,22.4189177 13.941895,22.4965447 13.8518942,22.5749831 L13.8518942,22.5749831 L13.576813,22.812735 C12.7041229,23.5609204 11.420977,23.5841619 10.509368,22.8615879 L10.509368,22.8615879 L10.4382537,22.8023123 L10.1073598,22.5137335 L9.90321903,22.3340223 L9.61389638,22.0766955 L9.34473731,21.8339368 L9.09562633,21.6056114 L8.86644795,21.3915843 L8.724679,21.2567766 L8.59168343,21.1282238 L8.46742704,21.005886 L8.35187559,20.8897232 L8.24499487,20.7796955 C8.22790207,20.7618666 8.21116914,20.7442916 8.19479534,20.7269698 L8.19479534,20.7269698 L8.10085655,20.6260697 L7.86894106,20.3672896 L7.61273271,20.0767393 C7.57055128,20.0285012 7.5286302,19.9803553 7.48697003,19.9322997 L7.48697003,19.9322997 L7.24014438,19.6450348 L6.99960722,19.3598463 L6.99960722,19.3598463 L6.88170517,19.2180024 L6.65065082,18.9357582 L6.42595171,18.6553632 C4.02623205,15.6274382 2.75,12.9090303 2.75,9.97979602 C2.75,4.99342455 6.70791088,0.971543045 11.7334486,0.891584596 L11.7334486,0.891584596 L11.8799375,0.890443665 Z M12,2.39041996 L11.8859001,2.39041996 L11.751346,2.39146593 C7.55083692,2.4583177 4.25,5.81250514 4.25,9.97979602 C4.25,12.896509 5.7991974,15.7221073 8.73645395,19.0830958 L8.73645395,19.0830958 L8.98797346,19.3684114 L9.21242661,19.6189224 C9.22500367,19.6326529 9.23793618,19.6466487 9.25122371,19.6609093 L9.25122371,19.6609093 L9.33520518,19.7496461 L9.42768459,19.8447124 L9.52863979,19.9460825 L9.69591626,20.1099012 L9.88213873,20.2877593 L10.0872325,20.4795705 L10.2344088,20.6151536 L10.4707886,20.8300276 L10.7258404,21.058624 L10.9994895,21.3008564 L11.4099685,21.659761 L11.4539143,21.6964471 C11.7903355,21.963019 12.2735456,21.9542667 12.6005016,21.6739567 L12.6005016,21.6739567 L12.8630218,21.4470837 L13.1154007,21.2252993 C13.1978358,21.152221 13.2785793,21.0799935 13.3576298,21.0086194 L13.3576298,21.0086194 L13.5897008,20.7970601 L13.8116053,20.5906375 L14.0233349,20.3893676 L14.2248812,20.1932664 C14.5195589,19.9029991 14.7798395,19.6302305 15.0055957,19.3752039 C15.0481588,19.3271223 15.0904304,19.279197 15.1324106,19.2314252 L15.1324106,19.2314252 L15.3807972,18.9466135 C15.4216128,18.8994442 15.4621375,18.8524226 15.5023714,18.8055459 L15.5023714,18.8055459 L15.7402879,18.5260009 L15.9712367,18.2497939 C16.1228823,18.066738 16.2698895,17.8858152 16.4122716,17.7068412 L16.4122716,17.7068412 L16.6223776,17.4398186 C18.723223,14.739479 19.75,12.4708886 19.75,9.97979602 C19.75,5.7915486 16.2833634,2.39041996 12,2.39041996 L12,2.39041996 Z M12,7.75 C13.2426407,7.75 14.25,8.75735931 14.25,10 C14.25,11.2426407 13.2426407,12.25 12,12.25 C10.7573593,12.25 9.75,11.2426407 9.75,10 C9.75,8.75735931 10.7573593,7.75 12,7.75 Z" id="_path-1"/>
    </defs>
    <g id="_Public/ic_public_gps" stroke="none" stroke-width="1" fill="none" fill-rule="evenodd">
        <mask id="_mask-2" fill="white">
            <use xlink:href="#_path-1"/>
        </mask>
        <use id="_蒙版" fill="#000000" fill-rule="nonzero" xlink:href="#_path-1"/>
    </g>
</svg>