<?xml version="1.0" encoding="UTF-8"?>
<svg xmlns="http://www.w3.org/2000/svg" xmlns:xlink="http://www.w3.org/1999/xlink" width="24" height="24" viewBox="0 0 24 24" version="1.1">
    <title>Public/ic_public_fast_filled</title>
    <defs>
        <path d="M2.57138972,14.1713973 C2.20990365,13.8099112 2.18096514,13.236864 2.49601503,12.8415805 L2.53108718,12.7999267 L4.13639576,10.9939546 C4.49942911,10.585542 5.01294462,10.3442707 5.5568661,10.3240626 L5.63121439,10.3226822 L6.14729583,10.3226822 L6.40603819,10.0039948 C9.2387471,6.53880459 11.1488006,4.24788784 13.3951403,3.42839111 C14.6645797,2.96528158 16.8479696,2.59835121 19.9453101,2.32760002 L19.9453078,2.32757429 C20.7706021,2.25543194 21.4981182,2.8659822 21.5702605,3.69127646 C21.5777816,3.77731612 21.5778577,3.86384459 21.5704881,3.94989735 C21.3046822,7.05360967 20.9365888,9.23679687 20.4662081,10.4994589 C19.6340819,12.7331692 17.2253021,14.8010252 13.571917,17.7473034 L13.571917,18.2633849 C13.571917,18.8346605 13.3276214,19.3786686 12.9006447,19.7582035 L11.0946726,21.3635121 C10.698937,21.715277 10.0975982,21.6976058 9.72320194,21.3232095 L2.57138972,14.1713973 Z M13.8356096,10.1642929 C13.0547968,9.38334999 13.0547968,8.11698318 13.8356096,7.33570715 C14.6167555,6.55476428 15.8832445,6.55476428 16.6643904,7.33570715 C17.4452032,8.11698318 17.4452032,9.38334999 16.6643904,10.1642929 C15.8832445,10.9452357 14.6167555,10.9452357 13.8356096,10.1642929 L13.8356096,10.1642929 Z M4.195225,17.32875 L6.671975,19.805 C6.769475,19.9025 6.772725,20.058 6.678725,20.15175 L5.922475,20.90825 C5.429975,21.4005 4.739975,21.647 4.030725,21.584 L2.761225,21.47125 C2.638975,21.46025 2.539725,21.361 2.528975,21.239 L2.416225,19.96975 C2.353225,19.2605 2.599725,18.5705 3.091975,18.07825 L3.848475,17.322 C3.942475,17.228 4.097725,17.23125 4.195225,17.32875" id="_path-1"/>
    </defs>
    <g id="_Public/ic_public_fast_filled" stroke="none" stroke-width="1" fill="none" fill-rule="evenodd">
        <mask id="_mask-2" fill="white">
            <use xlink:href="#_path-1"/>
        </mask>
        <use id="_Fill-1" fill="#1A1A1A" xlink:href="#_path-1"/>
    </g>
</svg>