<?xml version="1.0" encoding="utf-8"?>
<!-- Generator: Adobe Illustrator 24.3.0, SVG Export Plug-In . SVG Version: 6.00 Build 0)  -->
<svg version="1.1" id="图层_1" xmlns="http://www.w3.org/2000/svg" xmlns:xlink="http://www.w3.org/1999/xlink" x="0px" y="0px"
	 viewBox="0 0 24 24" style="enable-background:new 0 0 24 24;" xml:space="preserve">
<style type="text/css">
	.st0{fill-rule:evenodd;clip-rule:evenodd;}
</style>
<g>
	<path id="_uxs-a_1_" class="st0" d="M19,3.3c0.7,0.3,1.2,0.9,1.5,1.5S21,6.1,21,7.9v9.7c0,1.8-0.2,2.4-0.5,3.1s-0.9,1.2-1.5,1.5
		s-1.3,0.5-3.1,0.5H8.1c-1.8,0-2.4-0.2-3.1-0.5s-1.2-0.9-1.5-1.5C3.2,20.1,3,19.5,3,17.9l0-10c0-1.8,0.2-2.4,0.5-3.1S4.4,3.6,5,3.3
		c0.3-0.2,0.6-0.3,1-0.4C6,3.2,6,3.5,6,3.9v0.5l0,0.1c-0.1,0-0.2,0.1-0.2,0.1C5.4,4.8,5.1,5.1,4.9,5.5C4.6,5.9,4.5,6.4,4.5,7.4
		l0,0.5v9.7l0,0.5c0,1,0.1,1.5,0.4,1.9c0.2,0.4,0.5,0.7,0.9,0.9c0.4,0.2,0.9,0.3,1.9,0.4l0.5,0h7.7l0.5,0c1,0,1.5-0.1,1.9-0.4
		c0.4-0.2,0.7-0.5,0.9-0.9c0.2-0.4,0.3-0.9,0.4-1.9l0-0.5V7.9l0-0.5c0-1-0.1-1.5-0.4-1.9c-0.2-0.4-0.5-0.7-0.9-0.9
		c-0.1,0-0.2-0.1-0.2-0.1l0-0.1l0,0V3.9c0-0.4,0-0.7-0.1-1C18.3,3,18.6,3.1,19,3.3z M17.3,10.2c0.3,0.3,0.3,0.7,0,1l0,0l-5.2,5.2
		c-0.7,0.7-1.7,0.7-2.4,0l0,0L7.2,14c-0.3-0.3-0.3-0.8,0-1.1c0.3-0.3,0.7-0.3,1,0l0,0l2.1,2.1c0.3,0.3,0.7,0.3,1,0l0,0l4.8-4.8
		C16.6,9.9,17.1,9.9,17.3,10.2z M14.6,1.5c0.7,0,1,0.1,1.3,0.3c0.3,0.2,0.6,0.4,0.8,0.8C16.9,2.8,17,3.2,17,3.9v0.5
		c0,0.7-0.1,1-0.3,1.3c-0.2,0.3-0.4,0.6-0.8,0.8c-0.3,0.2-0.7,0.3-1.3,0.3H9.4c-0.7,0-1-0.1-1.3-0.3C7.7,6.3,7.4,6.1,7.3,5.7
		C7.1,5.4,7,5,7,4.4V3.9c0-0.7,0.1-1,0.3-1.3C7.4,2.2,7.7,1.9,8,1.8s0.7-0.3,1.3-0.3H14.6z M9.4,3C9,3,8.8,3,8.7,3.1
		c-0.1,0-0.1,0.1-0.1,0.1C8.5,3.3,8.5,3.4,8.5,3.7l0,0.7c0,0.4,0,0.5,0.1,0.6c0,0.1,0.1,0.1,0.1,0.1c0.1,0,0.2,0.1,0.4,0.1l0.2,0
		h5.3l0.2,0c0.2,0,0.3,0,0.4-0.1c0.1,0,0.1-0.1,0.1-0.1c0-0.1,0.1-0.2,0.1-0.4l0-0.2V3.9l0-0.2c0-0.2,0-0.3-0.1-0.4
		c0-0.1-0.1-0.1-0.1-0.1C15.2,3,15.1,3,14.8,3L9.4,3z"/>
</g>
</svg>
