<?xml version="1.0" encoding="utf-8"?>
<!-- Generator: Adobe Illustrator 24.3.0, SVG Export Plug-In . SVG Version: 6.00 Build 0)  -->
<svg version="1.1" id="图层_1" xmlns="http://www.w3.org/2000/svg" xmlns:xlink="http://www.w3.org/1999/xlink" x="0px" y="0px"
	 viewBox="0 0 24 24" style="enable-background:new 0 0 24 24;" xml:space="preserve">
<style type="text/css">
	.st0{fill-rule:evenodd;clip-rule:evenodd;}
</style>
<g>
	<path id="_uxs-a_1_" class="st0" d="M3.2,2.2L3.2,2.2l14.2,14.2l0.8,0.8l0,0l3.5,3.5c0.3,0.3,0.3,0.8,0,1.1c-0.3,0.3-0.7,0.3-1,0
		l0,0l-3.8-3.8C15.3,18.6,13.7,19,12,19c-0.5,0-1.1,0-1.6-0.1l0,0c-3.8-0.5-7.3-2.9-9.3-6.5c-0.2-0.3-0.2-0.7,0-1
		c1.1-2,2.7-3.6,4.6-4.7L2.2,3.3C1.9,3,1.9,2.5,2.2,2.2C2.5,1.9,2.9,1.9,3.2,2.2z M3.8,10.2l7.3,7.3c0.3,0,0.5,0,0.8,0l0.1,0
		c0.2,0,0.5,0,0.7,0L4.6,9.4C4.4,9.7,4.1,9.9,3.8,10.2z M5.8,8.5l8.7,8.7c0.4-0.1,0.8-0.2,1.2-0.4L6.8,7.9C6.5,8,6.1,8.2,5.8,8.5z
		 M2.6,11.9L2.6,11.9l0,0.2c1.3,2.2,3.4,3.9,5.7,4.8l-5.4-5.4C2.8,11.5,2.7,11.7,2.6,11.9z M12,5c4.3,0,8.6,2.4,10.9,6.5
		c0.2,0.3,0.2,0.7,0,1c-0.9,1.7-2.2,3.1-3.7,4.2L18,15.6c1.3-0.9,2.5-2.1,3.3-3.5l0.1-0.1l-0.1-0.1c-1.9-3.3-5.5-5.3-9.2-5.4l-0.1,0
		c-0.9,0-1.8,0.1-2.7,0.3L8.1,5.6C9.4,5.2,10.7,5,12,5z M12,7.2c2.9,0,5.2,2.4,5.2,5.2c0,0.2,0,0.3,0,0.4c0,0.5-0.2,1-0.3,1.5
		l-6.8-6.8c0.1,0,0.1-0.1,0.2-0.1l0.1,0l0.1,0l0.2,0l0.1,0l0.1,0l0.1,0l0.1,0l0.1,0l0.1,0l0.1,0l0.1,0l0.1,0l0.1,0l0.1,0
		C11.9,7.3,12,7.2,12,7.2z"/>
</g>
</svg>
