<?xml version="1.0" encoding="UTF-8"?>
<svg xmlns="http://www.w3.org/2000/svg" xmlns:xlink="http://www.w3.org/1999/xlink" width="24" height="24" viewBox="0 0 24 24" version="1.1">
    <title>Public/ic_public_save_filled</title>
    <defs>
        <path d="M19.9536914,2.53426541 C20.6055433,2.88287959 21.1171204,3.39445674 21.4657346,4.04630859 C21.8143488,4.69816044 22,5.34473292 22,7.1277704 L22,16.8722296 C22,18.6552671 21.8143488,19.3018396 21.4657346,19.9536914 C21.1171204,20.6055433 20.6055433,21.1171204 19.9536914,21.4657346 C19.3018396,21.8143488 18.6552671,22 16.8722296,22 L7.1277704,22 C5.34473292,22 4.69816044,21.8143488 4.04630859,21.4657346 C3.39445674,21.1171204 2.88287959,20.6055433 2.53426541,19.9536914 C2.18565122,19.3018396 2,18.6552671 2,16.8722296 L2,7.1277704 C2,5.34473292 2.18565122,4.69816044 2.53426541,4.04630859 C2.88287959,3.39445674 3.39445674,2.88287959 4.04630859,2.53426541 C4.53739352,2.27163031 5.02548207,2.10148725 5.99876773,2.03353739 L6,7 C6,8.51878306 7.23121694,9.75 8.75,9.75 L15.25,9.75 C16.7687831,9.75 18,8.51878306 18,7 L18.0022175,2.03360623 C18.9748474,2.1016021 19.4627722,2.27171895 19.9536914,2.53426541 Z M17.25,15 L6.75,15 L6.7059318,15.0012732 C6.31222999,15.0240848 6,15.3505798 6,15.75 C6,16.1642136 6.33578644,16.5 6.75,16.5 L6.75,16.5 L17.25,16.5 L17.2940682,16.4987268 C17.68777,16.4759152 18,16.1494202 18,15.75 C18,15.3357864 17.6642136,15 17.25,15 L17.25,15 Z M16.5,2 L16.5,7 C16.5,7.69035594 15.9403559,8.25 15.25,8.25 L8.75,8.25 L8.69577759,8.24884512 C8.03057668,8.22045453 7.5,7.67218868 7.5,7 L7.5,2 L16.5,2 Z" id="_path-1"/>
    </defs>
    <g id="_Public/ic_public_save_filled" stroke="none" stroke-width="1" fill="none" fill-rule="evenodd">
        <mask id="_mask-2" fill="white">
            <use xlink:href="#_path-1"/>
        </mask>
        <use id="_蒙版" fill="#000000" fill-rule="nonzero" xlink:href="#_path-1"/>
    </g>
</svg>