<?xml version="1.0" encoding="UTF-8"?>
<svg xmlns="http://www.w3.org/2000/svg" xmlns:xlink="http://www.w3.org/1999/xlink" width="24" height="24" viewBox="0 0 24 24" version="1.1">
    <title>Public/ic_public_flashlight</title>
    <defs>
        <path d="M16.4344048,1 C16.6708652,1 16.9058476,1.03727426 17.1307004,1.11045039 C18.312341,1.49500381 18.9585079,2.76465493 18.5739544,3.94629555 L18.5739544,3.94629555 L16.938958,8.97024839 C16.7882079,9.43346753 16.5148039,9.8313637 16.1617338,10.13272 C16.2065419,10.2719706 16.225605,10.4217218 16.2161481,10.5763204 L16.2161481,10.5763204 L15.5854161,20.8873767 C15.5128023,22.0744496 14.5289056,23 13.3396139,23 L13.3396139,23 L10.6277817,23 C9.43588794,23 8.45078432,22.0705276 8.38157779,20.8806448 L8.38157779,20.8806448 L7.77992624,10.5 C7.77992624,10.3881767 7.79460977,10.279783 7.8221539,10.1766416 C7.43731774,9.86700447 7.14024185,9.44418208 6.98371213,8.94787495 L6.98371213,8.94787495 L5.4001098,3.92676376 C5.33105509,3.70781271 5.29591753,3.47958249 5.29591753,3.25 C5.29591753,2.00735931 6.30327684,1 7.54591753,1 L7.54591753,1 Z M9.41650651,10.7498779 L9.294,10.749 L9.87904705,20.7935483 C9.9021159,21.1901759 10.2304838,21.5 10.6277817,21.5 L10.6277817,21.5 L13.3396139,21.5 C13.7360444,21.5 14.06401,21.1914832 14.0882146,20.7957922 L14.0882146,20.7957922 L14.702,10.75 L9.44171162,10.75 C9.43330258,10.75 9.42490081,10.7499592 9.41650651,10.7498779 Z M12,12 C12.8284271,12 13.5,12.6715729 13.5,13.5 L13.5,15 C13.5,15.8284271 12.8284271,16.5 12,16.5 C11.1715729,16.5 10.5,15.8284271 10.5,15 L10.5,13.5 C10.5,12.6715729 11.1715729,12 12,12 Z M12,12.75 C11.6203042,12.75 11.306509,13.0321539 11.2568466,13.3982294 L11.25,13.5 L11.25,14 C11.25,14.4142136 11.5857864,14.75 12,14.75 C12.3796958,14.75 12.693491,14.4678461 12.7431534,14.1017706 L12.75,14 L12.75,13.5 C12.75,13.0857864 12.4142136,12.75 12,12.75 Z M16.4344048,2.5 L7.54591753,2.5 C7.13170397,2.5 6.79591753,2.83578644 6.79591753,3.25 C6.79591753,3.3265275 6.80763005,3.40260424 6.83064829,3.47558792 L6.83064829,3.47558792 L8.41425061,8.4966991 C8.55567054,8.94509779 8.9715404,9.25 9.44171162,9.25 L9.44171162,9.25 L14.4881271,9.25 C14.9546768,9.25 15.3682109,8.94969855 15.5125916,8.50605136 L15.5125916,8.50605136 L17.147588,3.48209852 C17.2757725,3.08821831 17.0603836,2.66500127 16.6665034,2.5368168 C16.5915524,2.51242475 16.513225,2.5 16.4344048,2.5 L16.4344048,2.5 Z" id="_path-1"/>
    </defs>
    <g id="_Public/ic_public_flashlight" stroke="none" stroke-width="1" fill="none" fill-rule="evenodd">
        <mask id="_mask-2" fill="white">
            <use xlink:href="#_path-1"/>
        </mask>
        <use id="_蒙版" fill="#000000" fill-rule="nonzero" xlink:href="#_path-1"/>
    </g>
</svg>