<?xml version="1.0" encoding="UTF-8"?>
<svg xmlns="http://www.w3.org/2000/svg" xmlns:xlink="http://www.w3.org/1999/xlink" width="24" height="24" viewBox="0 0 24 24" version="1.1">
    <!-- Generator: Sketch 63.1 (92452) - https://sketch.com -->
    <title>Public/ic_public_sound_off_filled</title>
    <desc>Created with Sketch.</desc>
    <g id="_Public/ic_public_sound_off_filled" stroke="none" stroke-width="1" fill="none" fill-rule="evenodd">
        <path d="M3.24433269,2.18592862 L3.28033009,2.21966991 L3.509,2.448 L3.51471863,2.45405845 L21.5459415,20.4852814 C21.5478012,20.487141 21.5496718,20.4889829 21.5515533,20.4908072 L21.7803301,20.7196699 C22.0732233,21.0125631 22.0732233,21.4874369 21.7803301,21.7803301 C21.4991526,22.0615076 21.0502619,22.0727547 20.7556673,21.8140714 L20.7196699,21.7803301 L18,19.061 L18,19.4111805 C18,20.3293539 17.2928897,21.0823728 16.3935272,21.1553793 L16.25,21.1611805 C15.8608901,21.1611805 15.482878,21.0314985 15.1757147,20.792633 L15.1757147,20.792633 L9.91975,16.70525 L6.5,16.7056133 C5.27954933,16.7056133 4.28605214,15.7339098 4.25095928,14.5219538 L4.25095928,14.5219538 L4.25,9.45561326 C4.25,8.32527202 5.08351306,7.3896082 6.16942015,7.22972481 L2.21966991,3.28033009 C1.9267767,2.98743687 1.9267767,2.51256313 2.21966991,2.21966991 C2.5008474,1.93849242 2.94973814,1.92724532 3.24433269,2.18592862 Z M15.1757141,3.36859395 C15.938669,2.77528224 17.0381404,2.91280522 17.6314521,3.67576014 C17.870318,3.98292398 18,4.36093609 18,4.75004602 L18,4.75004602 L18,15.525 L9.679,7.205 L10.241,7.2055 Z" id="_形状结合" fill="#000000" fill-rule="nonzero"/>
    </g>
</svg>