<?xml version="1.0" encoding="UTF-8"?>
<svg xmlns="http://www.w3.org/2000/svg" xmlns:xlink="http://www.w3.org/1999/xlink" width="24" height="24" viewBox="0 0 24 24" version="1.1">
    <title>Public/ic_public_face_filled</title>
    <defs>
        <path d="M12,1 C14.9173814,1 17.7152744,2.15892524 19.7781746,4.22182541 C21.8410748,6.28472557 23,9.08261861 23,12 C23,18.0751322 18.0751322,23 12,23 C5.92486775,23 1,18.0751322 1,12 C1,5.92486775 5.92486775,1 12,1 Z M17.0770002,14.3251785 C16.7042302,14.1445813 16.2556373,14.3003681 16.0750401,14.6731382 C15.3165141,16.2388087 13.7471058,17.2501384 12,17.2501384 C10.2528942,17.2501384 8.68348588,16.2388087 7.92495989,14.6731382 C7.74436265,14.3003681 7.29576983,14.1445813 6.92299977,14.3251785 C6.55022972,14.5057758 6.39444287,14.9543686 6.57504011,15.3271387 C7.58109519,17.403733 9.67048299,18.7501384 12,18.7501384 C14.329517,18.7501384 16.4189048,17.403733 17.4249599,15.3271387 C17.6055571,14.9543686 17.4497703,14.5057758 17.0770002,14.3251785 Z M12.1470871,9.01456449 C11.7409173,8.93333053 11.3457985,9.19674308 11.2645645,9.6029129 L11.2645645,9.6029129 L10.5145645,13.3529129 L10.5071646,13.3963183 C10.4440468,13.8436461 10.7915053,14.25 11.25,14.25 L11.25,14.25 L12.75,14.25 L12.7940682,14.2487268 C13.18777,14.2259152 13.5,13.8994202 13.5,13.5 L13.5,13.5 L13.4987268,13.4559318 C13.4759152,13.06223 13.1494202,12.75 12.75,12.75 L12.75,12.75 L12.16475,12.75 L12.7354355,9.8970871 L12.7428295,9.85362499 C12.7976722,9.46309488 12.5387509,9.09289724 12.1470871,9.01456449 Z M7.25,8 C6.5596875,8 6,8.5596875 6,9.25 C6,9.9403125 6.5596875,10.5 7.25,10.5 C7.9403125,10.5 8.5,9.9403125 8.5,9.25 C8.5,8.5596875 7.9403125,8 7.25,8 Z M16.75,8 C16.0596875,8 15.5,8.5596875 15.5,9.25 C15.5,9.9403125 16.0596875,10.5 16.75,10.5 C17.4403125,10.5 18,9.9403125 18,9.25 C18,8.5596875 17.4403125,8 16.75,8 Z" id="_path-1"/>
    </defs>
    <g id="_Public/ic_public_face_filled" stroke="none" stroke-width="1" fill="none" fill-rule="evenodd">
        <mask id="_mask-2" fill="white">
            <use xlink:href="#_path-1"/>
        </mask>
        <use id="_形状结合" fill="#1A1A1A" fill-rule="nonzero" xlink:href="#_path-1"/>
    </g>
</svg>