<?xml version="1.0" encoding="UTF-8"?>
<svg xmlns="http://www.w3.org/2000/svg" xmlns:xlink="http://www.w3.org/1999/xlink" width="24" height="24" viewBox="0 0 24 24" version="1.1">
    <title>Public/ic_public_car</title>
    <defs>
        <path d="M11.62923,3.99917076 L12.7369426,4.00114109 C15.9616666,4.03159615 18.0438905,4.4072229 18.8433532,5.26366811 C19.4812382,5.94701897 20.8728845,9.31850605 20.9155035,9.4511655 C21.5773556,9.63375767 22.1508731,9.9423114 22.636056,10.3768267 C23.3638303,11.0285997 23.4991366,11.6023971 23.5003729,11.7660974 L23.4970224,12.0577643 C23.4476579,14.017122 22.8887757,19.5815369 22.7485723,19.9297118 C22.5710636,20.3705295 19.8569844,20.4838138 18.7936838,20.0878479 C18.5192733,19.9824239 18.382068,19.6236419 18.382068,19.0115021 L18.382068,18.4786558 L5.47642749,18.4786558 L5.47642749,19.0115021 C5.47642749,19.6236419 5.33922225,19.9824239 5.06481177,20.0878479 C4.00151111,20.4838138 1.28743192,20.3705295 1.10992319,19.9297118 C0.937663562,19.5019296 0.494578306,13.0164202 0.502713152,11.7660974 C0.504038845,11.6023971 0.811906332,10.8825199 1.37656168,10.3768267 C1.75299858,10.0396979 2.32336868,9.73114417 3.08767198,9.4511655 L3.27876346,8.98152724 C3.68905841,8.00328401 4.65497014,5.80450412 5.15982231,5.26366811 C5.98889475,4.37550271 8.19750735,4.00443151 11.62923,3.99917076 Z M11.9964134,11.25 C8.91692855,11.25 5.83733549,11.4455306 2.75745037,11.8366317 L2.03560262,11.9331708 L2.005,11.9910043 L2.01777733,12.3831859 C2.06532477,13.5734031 2.21521921,15.8469077 2.33667122,17.477876 L2.441,18.7990043 L2.6168585,18.8131372 L2.81619354,18.8238145 C3.20820282,18.8397689 3.60417193,18.8265811 3.92534391,18.7955971 L3.976,18.7890043 L3.97642749,16.9786558 L19.882068,16.9786558 L19.882,18.7890043 L19.9308032,18.7947087 C20.2004035,18.8212691 20.5203155,18.8348539 20.8463211,18.8294116 L21.042302,18.8238145 L21.241637,18.8131372 L21.433,18.7970043 L21.5530143,17.647042 C21.7307173,15.8408246 21.9657069,13.1181777 21.9970113,12.0209031 L21.9976026,11.9391708 L21.2353764,11.8366317 C18.1554913,11.4455306 15.0758982,11.25 11.9964134,11.25 Z M19.6424576,14.0789474 C19.9000414,14.0789474 20.1088544,14.3051614 20.1088544,14.5842105 L20.1088544,15.3421053 C20.1088544,15.6211544 19.9000414,15.8473684 19.6424576,15.8473684 L17.5436722,15.8473684 C17.2860884,15.8473684 17.0772754,15.6211544 17.0772754,15.3421053 L17.0772754,14.8368421 C17.0772754,14.557793 17.2860884,14.3315789 17.5436722,14.3315789 L19.6424576,14.0789474 Z M4.39630376,14.0789474 L6.49508919,14.3315789 C6.72405258,14.3315789 6.91448097,14.510316 6.95397167,14.7460204 L6.96148595,14.8368421 L6.96148595,15.3421053 C6.96148595,15.5901489 6.79649795,15.7964464 6.5789246,15.839228 L6.49508919,15.8473684 L4.39630376,15.8473684 C4.16734037,15.8473684 3.97691199,15.6686314 3.93742128,15.432927 L3.929907,15.3421053 L3.929907,14.5842105 C3.929907,14.3051614 4.13871995,14.0789474 4.39630376,14.0789474 Z M15.561486,14.5842105 C15.8405351,14.5842105 16.0667491,14.8104245 16.0667491,15.0894737 C16.0667491,15.3685228 15.8405351,15.5947368 15.561486,15.5947368 L8.47727542,15.5947368 C8.19822629,15.5947368 7.97201227,15.3685228 7.97201227,15.0894737 C7.97201227,14.8104245 8.19822629,14.5842105 8.47727542,14.5842105 L15.561486,14.5842105 Z M12.340406,5.499169 L11.6315295,5.499169 C8.5051265,5.5039617 6.66347382,5.85106266 6.2563325,6.28722338 C5.98902551,6.57358294 4.89044519,8.94746801 4.58124545,9.73218338 L4.5157824,9.909969 L4.4440385,10.1341067 C6.96136434,9.87804243 9.47885414,9.75 11.9964134,9.75 C14.5176819,9.75 17.0388807,9.87842001 19.5599149,10.1352394 L19.4873931,9.909969 L19.4219449,9.73234618 C19.1125684,8.94785761 18.0116333,6.57088689 17.746843,6.28722338 C17.3338994,5.84484681 15.487491,5.50450941 12.340406,5.499169 Z" id="_path-1"/>
    </defs>
    <g id="_Public/ic_public_car" stroke="none" stroke-width="1" fill="none" fill-rule="evenodd">
        <mask id="_mask-2" fill="white">
            <use xlink:href="#_path-1"/>
        </mask>
        <use id="_形状结合" fill="#000000" fill-rule="nonzero" xlink:href="#_path-1"/>
    </g>
</svg>