<?xml version="1.0" encoding="UTF-8"?>
<svg xmlns="http://www.w3.org/2000/svg" xmlns:xlink="http://www.w3.org/1999/xlink" width="24" height="24" viewBox="0 0 24 24" version="1.1">
    <title>Public/ic_public_voice</title>
    <defs>
        <path d="M18.75,10.5 C19.1642136,10.5 19.5,10.8357864 19.5,11.25 C19.5,15.1388445 16.5402456,18.3364013 12.750487,18.7129202 L12.75,21.25 C12.75,21.6642136 12.4142136,22 12,22 C11.6005798,22 11.2740848,21.68777 11.2512732,21.2940682 L11.25,21.25 L11.2505192,18.7130201 C7.46027831,18.3369673 4.5,15.1391887 4.5,11.25 C4.5,10.8357864 4.83578644,10.5 5.25,10.5 C5.66421356,10.5 6,10.8357864 6,11.25 C6,14.5637085 8.6862915,17.25 12,17.25 C15.3137085,17.25 18,14.5637085 18,11.25 C18,10.8357864 18.3357864,10.5 18.75,10.5 Z M12,2 C14.209139,2 16,3.790861 16,6 L16,6 L16,11.25 C16,13.459139 14.209139,15.25 12,15.25 C9.790861,15.25 8,13.459139 8,11.25 L8,11.25 L8,6 C8,3.790861 9.790861,2 12,2 Z M12,3.5 C10.6192881,3.5 9.5,4.61928813 9.5,6 L9.5,6 L9.5,11.25 C9.5,12.6307119 10.6192881,13.75 12,13.75 C13.3807119,13.75 14.5,12.6307119 14.5,11.25 L14.5,11.25 L14.5,6 C14.5,4.61928813 13.3807119,3.5 12,3.5 Z" id="_path-1"/>
    </defs>
    <g id="_Public/ic_public_voice" stroke="none" stroke-width="1" fill="none" fill-rule="evenodd">
        <mask id="_mask-2" fill="white">
            <use xlink:href="#_path-1"/>
        </mask>
        <use id="_形状结合" fill="#000000" fill-rule="nonzero" xlink:href="#_path-1"/>
    </g>
</svg>