<?xml version="1.0" encoding="UTF-8"?>
<svg xmlns="http://www.w3.org/2000/svg" xmlns:xlink="http://www.w3.org/1999/xlink" width="24" height="24" viewBox="0 0 24 24" version="1.1">
    <title>ic_sound_shake</title>
    <g id="_ic_sound_shake" stroke="none" stroke-width="1" fill="none" fill-rule="evenodd">
        <rect id="_矩形" x="0" y="0" width="24" height="24"/>
        <g id="_shake" fill="#000000">
            <path d="M15,2.5 C16.6568542,2.5 18,3.84314575 18,5.5 L18,18.5 C18,20.1568542 16.6568542,21.5 15,21.5 L9,21.5 C7.34314575,21.5 6,20.1568542 6,18.5 L6,5.5 C6,3.84314575 7.34314575,2.5 9,2.5 L15,2.5 Z M15,4 L9,4 C8.17157288,4 7.5,4.67157288 7.5,5.5 L7.5,5.5 L7.5,18.5 C7.5,19.3284271 8.17157288,20 9,20 L9,20 L15,20 C15.8284271,20 16.5,19.3284271 16.5,18.5 L16.5,18.5 L16.5,5.5 C16.5,4.67157288 15.8284271,4 15,4 L15,4 Z" id="_形状结合" fill-rule="nonzero"/>
            <path d="M21.2817941,5.96966991 L22.9518049,7.63716882 C22.9861126,7.66144648 23.018838,7.68894685 23.049561,7.71966991 C23.1826943,7.8528032 23.2553125,8.02353576 23.2674155,8.19768643 L23.2674155,8.32008052 C23.2553125,8.4942312 23.1826943,8.66496376 23.049561,8.79809704 C23.018838,8.8288201 22.9861126,8.85632047 22.9518049,8.88059814 L21.821464,10.009 L22.9518049,11.1371688 C22.9861126,11.1614465 23.018838,11.1889468 23.049561,11.2196699 C23.1826943,11.3528032 23.2553125,11.5235358 23.2674155,11.6976864 L23.2674155,11.8200805 C23.2553125,11.9942312 23.1826943,12.1649638 23.049561,12.298097 C23.018838,12.3288201 22.9861126,12.3563205 22.9518049,12.3805981 L21.696464,13.634 L22.9518049,14.8871688 C22.9861126,14.9114465 23.018838,14.9389468 23.049561,14.9696699 C23.1826943,15.1028032 23.2553125,15.2735358 23.2674155,15.4476864 L23.2674155,15.5700805 C23.2553125,15.7442312 23.1826943,15.9149638 23.049561,16.048097 C23.018838,16.0788201 22.9861126,16.1063205 22.9518049,16.1305981 L21.2817941,17.798097 C20.9889008,18.0909903 20.5140271,18.0909903 20.2211339,17.798097 C19.9282407,17.5052038 19.9282407,17.0303301 20.2211339,16.7374369 L21.449464,15.509 L20.2211339,14.2803301 C20.0449883,14.1041845 19.9747765,13.8622202 20.0104983,13.6336037 C19.9748558,13.4052736 20.0450878,13.163483 20.2211339,12.9874369 L21.449464,11.759 L20.3206814,10.6318619 C20.2857212,10.607276 20.2523913,10.5793544 20.2211339,10.548097 C20.0880006,10.4149638 20.0153825,10.2442312 20.0032794,10.0700805 L20.0032794,9.94768643 C20.0153825,9.77353576 20.0880006,9.6028032 20.2211339,9.46966991 C20.2526807,9.43812311 20.2863386,9.40997414 20.3216529,9.385223 L21.449464,8.259 L20.2211339,7.03033009 C19.9282407,6.73743687 19.9282407,6.26256313 20.2211339,5.96966991 C20.5140271,5.6767767 20.9889008,5.6767767 21.2817941,5.96966991 Z" id="_形状结合" transform="translate(21.634440, 11.883883) scale(-1, 1) translate(-21.634440, -11.883883) "/>
            <path d="M2.03033009,5.96966991 L3.70034093,7.63716882 C3.73464858,7.66144648 3.76737397,7.68894685 3.79809704,7.71966991 C3.93123032,7.8528032 4.00384847,8.02353576 4.0159515,8.19768643 L4.0159515,8.32008052 C4.00384847,8.4942312 3.93123032,8.66496376 3.79809704,8.79809704 C3.76737397,8.8288201 3.73464858,8.85632047 3.70034093,8.88059814 L2.57,10.009 L3.70034093,11.1371688 C3.73464858,11.1614465 3.76737397,11.1889468 3.79809704,11.2196699 C3.93123032,11.3528032 4.00384847,11.5235358 4.0159515,11.6976864 L4.0159515,11.8200805 C4.00384847,11.9942312 3.93123032,12.1649638 3.79809704,12.298097 C3.76737397,12.3288201 3.73464858,12.3563205 3.70034093,12.3805981 L2.445,13.634 L3.70034093,14.8871688 C3.73464858,14.9114465 3.76737397,14.9389468 3.79809704,14.9696699 C3.93123032,15.1028032 4.00384847,15.2735358 4.0159515,15.4476864 L4.0159515,15.5700805 C4.00384847,15.7442312 3.93123032,15.9149638 3.79809704,16.048097 C3.76737397,16.0788201 3.73464858,16.1063205 3.70034093,16.1305981 L2.03033009,17.798097 C1.73743687,18.0909903 1.26256313,18.0909903 0.969669914,17.798097 C0.676776695,17.5052038 0.676776695,17.0303301 0.969669914,16.7374369 L2.198,15.509 L0.969669914,14.2803301 C0.793524342,14.1041845 0.723312471,13.8622202 0.7590343,13.6336037 C0.723391768,13.4052736 0.793623769,13.163483 0.969669914,12.9874369 L2.198,11.759 L1.06921742,10.6318619 C1.03425725,10.607276 1.00092729,10.5793544 0.969669914,10.548097 C0.836536633,10.4149638 0.763918479,10.2442312 0.751815454,10.0700805 L0.751815454,9.94768643 C0.763918479,9.77353576 0.836536633,9.6028032 0.969669914,9.46966991 C1.00121671,9.43812311 1.03487465,9.40997414 1.07018896,9.385223 L2.198,8.259 L0.969669914,7.03033009 C0.676776695,6.73743687 0.676776695,6.26256313 0.969669914,5.96966991 C1.26256313,5.6767767 1.73743687,5.6767767 2.03033009,5.96966991 Z" id="_形状结合备份-3"/>
        </g>
    </g>
</svg>