<?xml version="1.0" encoding="UTF-8"?>
<svg xmlns="http://www.w3.org/2000/svg" xmlns:xlink="http://www.w3.org/1999/xlink" width="24" height="24" viewBox="0 0 24 24" version="1.1">
    <title>Public/ic_public_albums_filled</title>
    <defs>
        <path d="M17,5.06756757 C18.9329966,5.06756757 20.5,6.67692239 20.5,8.66216216 L20.5,17.9054054 C20.5,19.8906452 18.9329966,21.5 17,21.5 L4.5,21.5 C2.56700338,21.5 1,19.8906452 1,17.9054054 L1,8.66216216 C1,6.67692239 2.56700338,5.06756757 4.5,5.06756757 L17,5.06756757 Z M18.5,2.5 C20.9852814,2.5 23,4.51471863 23,7 L23,14.9324324 C23,16.1954663 22.4146093,17.3217749 21.500344,18.0548422 L21.5,7.54054054 C21.5,5.67197714 20.0357224,4.14541409 18.1920352,4.0457194 L18,4.04054054 L4.34581464,4.03980739 C5.077882,3.10256474 6.21857273,2.5 7.5,2.5 L18.5,2.5 Z" id="_path-1"/>
    </defs>
    <g id="_Public/ic_public_albums_filled" stroke="none" stroke-width="1" fill="none" fill-rule="evenodd">
        <mask id="_mask-2" fill="white">
            <use xlink:href="#_path-1"/>
        </mask>
        <use id="_形状结合" fill="#000000" fill-rule="nonzero" xlink:href="#_path-1"/>
    </g>
</svg>