<?xml version="1.0" encoding="UTF-8"?>
<svg xmlns="http://www.w3.org/2000/svg" xmlns:xlink="http://www.w3.org/1999/xlink" width="24" height="24" viewBox="0 0 24 24" version="1.1">
    <title>Public/ic_public_stopwatch</title>
    <defs>
        <path d="M12,3.5 C17.3847763,3.5 21.75,7.86522369 21.75,13.25 C21.75,18.6347763 17.3847763,23 12,23 C6.61522369,23 2.25,18.6347763 2.25,13.25 C2.25,7.86522369 6.61522369,3.5 12,3.5 Z M12,5 C7.44365081,5 3.75,8.69365081 3.75,13.25 C3.75,17.8063492 7.44365081,21.5 12,21.5 C16.5563492,21.5 20.25,17.8063492 20.25,13.25 C20.25,8.69365081 16.5563492,5 12,5 Z M12,7.5 C12.4142136,7.5 12.75,7.83578644 12.75,8.25 L12.75,13.25 C12.75,13.6642136 12.4142136,14 12,14 C11.5857864,14 11.25,13.6642136 11.25,13.25 L11.25,8.25 C11.25,7.83578644 11.5857864,7.5 12,7.5 Z M21.2729708,4.22702923 C21.6634951,4.61755352 21.6634951,5.2507185 21.2729708,5.64124279 L20.3868227,6.52777559 C19.9685522,6.00604673 19.5026881,5.52418904 18.9957582,5.0888132 L19.8587572,4.22702923 C20.2492815,3.83650494 20.8824465,3.83650494 21.2729708,4.22702923 Z M14.5,1.25 C14.9142136,1.25 15.25,1.58578644 15.25,2 C15.25,2.41421356 14.9142136,2.75 14.5,2.75 L9.5,2.75 C9.08578644,2.75 8.75,2.41421356 8.75,2 C8.75,1.58578644 9.08578644,1.25 9.5,1.25 L14.5,1.25 Z" id="_path-1"/>
    </defs>
    <g id="_Public/ic_public_stopwatch" stroke="none" stroke-width="1" fill="none" fill-rule="evenodd">
        <mask id="_mask-2" fill="white">
            <use xlink:href="#_path-1"/>
        </mask>
        <use id="_形状结合" fill="#000000" fill-rule="nonzero" xlink:href="#_path-1"/>
    </g>
</svg>