<?xml version="1.0" encoding="UTF-8"?>
<svg xmlns="http://www.w3.org/2000/svg" xmlns:xlink="http://www.w3.org/1999/xlink" width="24" height="24" viewBox="0 0 24 24" version="1.1">
    <title>Public/ic_public_timer_filled</title>
    <defs>
        <path d="M12,1 C18.0751322,1 23,5.92486775 23,12 C23,18.0751322 18.0751322,23 12,23 C5.92486775,23 1,18.0751322 1,12 C1,9.05638564 2.16285917,6.29418173 4.19635571,4.24737831 C4.58560433,3.8555825 5.21876594,3.8535176 5.61056175,4.24276622 C6.00235756,4.63201485 6.00442246,5.26517646 5.61517383,5.65697226 C3.95025099,7.3327901 3,9.58997401 3,12 C3,16.9705627 7.02943725,21 12,21 C16.9705627,21 21,16.9705627 21,12 C21,7.36744635 17.4999505,3.55237307 13,3.05492878 L13,5.84902406 C13,6.40130881 12.5522847,6.84902406 12,6.84902406 C11.4477153,6.84902406 11,6.40130881 11,5.84902406 L11,2 C11,1.44771525 11.4477153,1 12,1 Z M7.5,6.75 C7.68934269,6.75 7.86825765,6.8207715 8.00529133,6.94575659 L12.7616512,11.0087059 C12.8044749,11.0416766 12.8452913,11.0775243 12.8838835,11.1161165 C13.3720143,11.6042473 13.3720143,12.3957527 12.8838835,12.8838835 C12.3957527,13.3720143 11.6042473,13.3720143 11.1161165,12.8838835 C11.0771722,12.8449391 11.0410228,12.80373 11.0159631,12.7705501 L6.96211432,8.02266574 C6.82711422,7.88375107 6.75,7.69763286 6.75,7.5 C6.75,7.08578644 7.08578644,6.75 7.5,6.75 Z" id="_path-1"/>
    </defs>
    <g id="_Public/ic_public_timer_filled" stroke="none" stroke-width="1" fill="none" fill-rule="evenodd">
        <mask id="_mask-2" fill="white">
            <use xlink:href="#_path-1"/>
        </mask>
        <use id="_Combined-Shape" fill="#000000" fill-rule="nonzero" xlink:href="#_path-1"/>
    </g>
</svg>