<?xml version="1.0" encoding="UTF-8"?>
<svg xmlns="http://www.w3.org/2000/svg" xmlns:xlink="http://www.w3.org/1999/xlink" width="24" height="24" viewBox="0 0 24 24" version="1.1">
    <title>Public/ic_public_battery</title>
    <defs>
        <path d="M18,5.75 C19.6568542,5.75 21,7.09314575 21,8.75 L21,15.25 C21,16.9068542 19.6568542,18.25 18,18.25 L4,18.25 C2.34314575,18.25 1,16.9068542 1,15.25 L1,8.75 C1,7.09314575 2.34314575,5.75 4,5.75 L18,5.75 Z M18,7.25 L4,7.25 C3.22030388,7.25 2.57955132,7.84488808 2.50686658,8.60553999 L2.5,8.75 L2.5,15.25 C2.5,16.0296961 3.09488808,16.6704487 3.85553999,16.7431334 L4,16.75 L18,16.75 C18.7796961,16.75 19.4204487,16.1551119 19.4931334,15.39446 L19.5,15.25 L19.5,8.75 C19.5,7.97030388 18.9051119,7.32955132 18.14446,7.25686658 L18,7.25 Z M23,9 C23.5522847,9 24,9.44771525 24,10 L24,14 C24,14.5522847 23.5522847,15 23,15 C22.4477153,15 22,14.5522847 22,14 L22,10 C22,9.44771525 22.4477153,9 23,9 Z" id="_path-1"/>
    </defs>
    <g id="_Public/ic_public_battery" stroke="none" stroke-width="1" fill="none" fill-rule="evenodd">
        <mask id="_mask-2" fill="white">
            <use xlink:href="#_path-1"/>
        </mask>
        <use id="_形状结合" fill="#000000" fill-rule="nonzero" xlink:href="#_path-1"/>
    </g>
</svg>