<?xml version="1.0" encoding="UTF-8"?>
<svg xmlns="http://www.w3.org/2000/svg" xmlns:xlink="http://www.w3.org/1999/xlink" width="24" height="24" viewBox="0 0 24 24" version="1.1">
    <title>Public/ic_public_appstore_filled</title>
    <defs>
        <path d="M18,2 C20.209139,2 22,3.790861 22,6 L22,18 C22,20.209139 20.209139,22 18,22 L6,22 C3.790861,22 2,20.209139 2,18 L2,6 C2,3.790861 3.790861,2 6,2 L18,2 Z M16.5,6 C16.0857864,6 15.75,6.33578644 15.75,6.75 C15.75,8.82106781 14.0710678,10.5 12,10.5 C9.92893219,10.5 8.25,8.82106781 8.25,6.75 C8.25,6.33578644 7.91421356,6 7.5,6 C7.08578644,6 6.75,6.33578644 6.75,6.75 C6.75,9.64949494 9.10050506,12 12,12 C14.8994949,12 17.25,9.64949494 17.25,6.75 C17.25,6.33578644 16.9142136,6 16.5,6 Z" id="_path-1"/>
    </defs>
    <g id="_Public/ic_public_appstore_filled" stroke="none" stroke-width="1" fill="none" fill-rule="evenodd">
        <mask id="_mask-2" fill="white">
            <use xlink:href="#_path-1"/>
        </mask>
        <use id="_形状结合" fill="#000000" xlink:href="#_path-1"/>
    </g>
</svg>