<?xml version="1.0" encoding="UTF-8"?>
<svg xmlns="http://www.w3.org/2000/svg" xmlns:xlink="http://www.w3.org/1999/xlink" width="24" height="24" viewBox="0 0 24 24" version="1.1">
    <title>Public/ic_public_themes_filled</title>
    <defs>
        <path d="M13.3353162,17.518238 L13.881879,21.8667839 C14.0125113,22.9061169 13.2758639,23.8545613 12.2365308,23.9851936 C12.1580729,23.9950549 12.0790752,24 12,24 C10.9524896,24 10.1033147,23.150825 10.1033147,22.1033147 C10.1033147,22.0242395 10.1082598,21.9452417 10.118121,21.8667839 L10.6646838,17.518238 C10.7852134,16.5592846 10.1055365,15.6841908 9.14658313,15.5636613 C9.07419302,15.5545627 9.00130476,15.55 8.92834509,15.55 L7,15.55 C5.34314575,15.55 4,14.2068542 4,12.55 L4,12.25 L4,12.25 L4,11.5 C4,11.2238576 4.22385763,11 4.5,11 L19.5,11 C19.7761424,11 20,11.2238576 20,11.5 L20,12.25 L20,12.25 L20,12.55 C20,14.2068542 18.6568542,15.55 17,15.55 L15.0716549,15.55 C14.1051566,15.55 13.3216549,16.3335017 13.3216549,17.3 C13.3216549,17.3729597 13.3262176,17.4458479 13.3353162,17.518238 Z M3.4742237,2 L17.4180445,2 C18.7987563,2 19.9180445,3.11928813 19.9180445,4.5 C19.9180445,4.60366256 19.9115969,4.70722477 19.8987391,4.81008684 L19.3047478,9.56201737 C19.273471,9.81223178 19.0607705,10 18.8086089,10 L5.44600837,10 C5.19457803,9.99991349 4.98226934,9.8131722 4.95018244,9.56379768 C4.75805073,8.07057905 4.35798991,6.71597983 3.75,5.5 C3.40142325,4.8028465 3.03006417,4.15125766 2.63592277,3.54523347 C2.33478356,3.08225476 2.4660092,2.4628209 2.92900191,2.16170321 C3.09126341,2.05617281 3.28066374,2 3.4742237,2 Z" id="_path-1"/>
    </defs>
    <g id="_Public/ic_public_themes_filled" stroke="none" stroke-width="1" fill="none" fill-rule="evenodd">
        <mask id="_mask-2" fill="white">
            <use xlink:href="#_path-1"/>
        </mask>
        <use id="_Combined-Shape" fill="#000000" xlink:href="#_path-1"/>
    </g>
</svg>