<?xml version="1.0" encoding="UTF-8"?>
<svg xmlns="http://www.w3.org/2000/svg" xmlns:xlink="http://www.w3.org/1999/xlink" width="24" height="24" viewBox="0 0 24 24" version="1.1">
    <title>Public/ic_public_flashlight_filled</title>
    <defs>
        <path d="M9.03089919,10.5 L14.999047,10.5008976 C15.2440662,10.5155987 15.4372547,10.7043833 15.4655449,10.9397494 L15.4682032,11.0299461 L14.8346097,21.5898384 C14.7898787,22.3353551 14.2059373,22.9266859 13.4758171,22.9936746 L13.3373024,23 L10.6626976,23 C9.91584022,23 9.2905973,22.4525231 9.18000028,21.7277256 L9.16539031,21.5898384 L8.53179677,11.0299461 L8.53089919,11 C8.53089919,10.7545401 8.70777435,10.5503916 8.94102356,10.5080557 L9.03089919,10.5 Z M12,12.25 C11.2203039,12.25 10.5795513,12.8448881 10.5068666,13.60554 L10.5,13.75 L10.5,15.25 C10.5,16.0784271 11.1715729,16.75 12,16.75 C12.7796961,16.75 13.4204487,16.1551119 13.4931334,15.39446 L13.5,15.25 L13.5,13.75 C13.5,12.9215729 12.8284271,12.25 12,12.25 Z M12,12.75 C12.5522847,12.75 13,13.1977153 13,13.75 L13,14.25 C13,14.8022847 12.5522847,15.25 12,15.25 C11.4477153,15.25 11,14.8022847 11,14.25 L11,13.75 C11,13.1977153 11.4477153,12.75 12,12.75 Z M16.7040583,1 C16.857119,1 17.009278,1.02342677 17.1552503,1.0694666 C17.945312,1.31865304 18.3837781,2.16113019 18.1345917,2.95119197 L18.1345917,2.95119197 L16.399885,8.45119197 C16.2029803,9.07549126 15.6239669,9.5 14.9693516,9.5 L14.9693516,9.5 L8.95812551,9.5 C8.2985885,9.5 7.71642907,9.0691955 7.52363997,8.43846463 L7.52363997,8.43846463 L5.8425108,2.93846463 C5.79907559,2.79636153 5.77699634,2.6485931 5.77699634,2.5 C5.77699634,1.67157288 6.44856922,1 7.27699634,1 L7.27699634,1 Z" id="_path-1"/>
    </defs>
    <g id="_Public/ic_public_flashlight_filled" stroke="none" stroke-width="1" fill="none" fill-rule="evenodd">
        <mask id="_mask-2" fill="white">
            <use xlink:href="#_path-1"/>
        </mask>
        <use id="_形状结合" fill="#000000" xlink:href="#_path-1"/>
    </g>
</svg>