<?xml version="1.0" encoding="UTF-8"?>
<svg xmlns="http://www.w3.org/2000/svg" xmlns:xlink="http://www.w3.org/1999/xlink" width="24" height="24" viewBox="0 0 24 24" version="1.1">
    <title>Public/ic_public_fast</title>
    <defs>
        <path d="M13.8356096,10.1642929 C13.0547968,9.38334999 13.0547968,8.11698318 13.8356096,7.33570715 C14.6167555,6.55476428 15.8832445,6.55476428 16.6643904,7.33570715 C17.4452032,8.11698318 17.4452032,9.38334999 16.6643904,10.1642929 C15.8832445,10.9452357 14.6167555,10.9452357 13.8356096,10.1642929 L13.8356096,10.1642929 Z M21.6038043,4.22109828 C21.6157462,4.34633914 21.6158443,4.47242741 21.6040974,4.59768671 C21.3433096,7.37850721 20.993476,9.3579685 20.5545965,10.5360706 C19.7224703,12.7697809 17.4904671,15.0144135 13.8370821,17.9606918 L13.8370821,18.4767732 C13.8370821,19.0480488 13.5927865,19.592057 13.1658098,19.9715918 L11.3598376,21.5769004 C10.9641021,21.9286653 10.3627633,21.9109942 9.98836698,21.5365979 L2.48300137,14.0312323 C2.1215153,13.6697462 2.09257679,13.096699 2.40762668,12.7014155 L2.44269883,12.6597617 L4.04800741,10.8537895 C4.41104076,10.445377 4.92455628,10.2041056 5.46847775,10.1838975 L6.05890748,10.1825172 L6.31764984,9.86382979 C9.15035875,6.39863955 11.2371889,4.28449949 13.4835287,3.46500276 C14.6055161,3.05568579 16.441465,2.72150222 18.9913754,2.46245206 L19.4229692,2.41995126 C20.5225632,2.31510329 21.4989563,3.12150428 21.6038043,4.22109828 Z M4.445225,17.32875 L6.921975,19.805 C7.019475,19.9025 7.022725,20.058 6.928725,20.15175 L6.172475,20.90825 C5.679975,21.4005 4.989975,21.647 4.280725,21.584 L3.011225,21.47125 C2.888975,21.46025 2.789725,21.361 2.778975,21.239 L2.666225,19.96975 C2.603225,19.2605 2.849725,18.5705 3.341975,18.07825 L4.098475,17.322 C4.192475,17.228 4.347725,17.23125 4.445225,17.32875 Z M19.6588328,3.9123523 L19.5699693,3.91273087 L19.1429828,3.95477078 L18.3571776,4.03973178 C16.3316055,4.27279363 14.8667582,4.55708106 13.997609,4.87415906 C12.3146295,5.48813392 10.5794046,7.05542826 7.75857026,10.4727809 L6.77319573,11.6825172 L5.52416816,11.6828634 C5.41530027,11.6869081 5.31139028,11.7264142 5.22778163,11.7942541 L5.16912139,11.8503353 L3.876,13.303 L10.716,20.142 L12.169264,18.8504779 C12.2546593,18.7745709 12.3108257,18.6723482 12.3298764,18.5613721 L12.3370821,18.4767732 L12.3370821,17.2433717 L12.8954534,16.7930722 C16.6532377,13.762601 18.4919907,11.7759721 19.148965,10.0124293 C19.5305961,8.98800139 19.8612419,7.11711055 20.1106504,4.45762993 C20.1135872,4.4263141 20.1135627,4.39479101 20.1105771,4.36347978 C20.0872768,4.11911766 19.8918138,3.93267208 19.6588328,3.9123523 Z" id="_path-1"/>
    </defs>
    <g id="_Public/ic_public_fast" stroke="none" stroke-width="1" fill="none" fill-rule="evenodd">
        <mask id="_mask-2" fill="white">
            <use xlink:href="#_path-1"/>
        </mask>
        <use id="_Fill-1" fill="#000000" xlink:href="#_path-1"/>
    </g>
</svg>