<?xml version="1.0" encoding="UTF-8"?>
<svg xmlns="http://www.w3.org/2000/svg" xmlns:xlink="http://www.w3.org/1999/xlink" width="24" height="24" viewBox="0 0 24 24" version="1.1">
    <title>Public/ic_public_brightness_filled</title>
    <defs>
        <path d="M12,19.75 C12.5522847,19.75 13,20.1977153 13,20.75 L13,21.75 C13,22.3022847 12.5522847,22.75 12,22.75 C11.4477153,22.75 11,22.3022847 11,21.75 L11,20.75 C11,20.1977153 11.4477153,19.75 12,19.75 Z M6.44669914,17.5533009 C6.83722343,17.9438252 6.83722343,18.5769901 6.44669914,18.9675144 L5.56281566,19.8513979 C5.17229137,20.2419222 4.53912639,20.2419222 4.1486021,19.8513979 C3.75807781,19.4608736 3.75807781,18.8277086 4.1486021,18.4371843 L5.03248558,17.5533009 C5.42300987,17.1627766 6.05617485,17.1627766 6.44669914,17.5533009 Z M18.9675144,17.5533009 L19.8513979,18.4371843 C20.2419222,18.8277086 20.2419222,19.4608736 19.8513979,19.8513979 C19.4608736,20.2419222 18.8277086,20.2419222 18.4371843,19.8513979 L17.5533009,18.9675144 C17.1627766,18.5769901 17.1627766,17.9438252 17.5533009,17.5533009 C17.9438252,17.1627766 18.5769901,17.1627766 18.9675144,17.5533009 Z M12,5.25 C15.7279221,5.25 18.75,8.27207794 18.75,12 C18.75,15.7279221 15.7279221,18.75 12,18.75 C8.27207794,18.75 5.25,15.7279221 5.25,12 C5.25,8.27207794 8.27207794,5.25 12,5.25 Z M3.25,11 C3.80228475,11 4.25,11.4477153 4.25,12 C4.25,12.5522847 3.80228475,13 3.25,13 L2,13 C1.44771525,13 1,12.5522847 1,12 C1,11.4477153 1.44771525,11 2,11 L3.25,11 Z M22,11 C22.5522847,11 23,11.4477153 23,12 C23,12.5522847 22.5522847,13 22,13 L20.75,13 C20.1977153,13 19.75,12.5522847 19.75,12 C19.75,11.4477153 20.1977153,11 20.75,11 L22,11 Z M19.8513979,4.1486021 C20.2419222,4.53912639 20.2419222,5.17229137 19.8513979,5.56281566 L18.9675144,6.44669914 C18.5769901,6.83722343 17.9438252,6.83722343 17.5533009,6.44669914 C17.1627766,6.05617485 17.1627766,5.42300987 17.5533009,5.03248558 L18.4371843,4.1486021 C18.8277086,3.75807781 19.4608736,3.75807781 19.8513979,4.1486021 Z M5.56281566,4.1486021 L6.44669914,5.03248558 C6.83722343,5.42300987 6.83722343,6.05617485 6.44669914,6.44669914 C6.05617485,6.83722343 5.42300987,6.83722343 5.03248558,6.44669914 L4.1486021,5.56281566 C3.75807781,5.17229137 3.75807781,4.53912639 4.1486021,4.1486021 C4.53912639,3.75807781 5.17229137,3.75807781 5.56281566,4.1486021 Z M12,1.25 C12.5522847,1.25 13,1.69771525 13,2.25 L13,3.25 C13,3.80228475 12.5522847,4.25 12,4.25 C11.4477153,4.25 11,3.80228475 11,3.25 L11,2.25 C11,1.69771525 11.4477153,1.25 12,1.25 Z" id="_path-1"/>
    </defs>
    <g id="_Public/ic_public_brightness_filled" stroke="none" stroke-width="1" fill="none" fill-rule="evenodd">
        <mask id="_mask-2" fill="white">
            <use xlink:href="#_path-1"/>
        </mask>
        <use id="_形状结合" fill="#000000" fill-rule="nonzero" xlink:href="#_path-1"/>
    </g>
</svg>