<?xml version="1.0" encoding="utf-8"?>
<!-- Generator: Adobe Illustrator 24.3.0, SVG Export Plug-In . SVG Version: 6.00 Build 0)  -->
<svg version="1.1" id="图层_1" xmlns="http://www.w3.org/2000/svg" xmlns:xlink="http://www.w3.org/1999/xlink" x="0px" y="0px"
	 viewBox="0 0 24 24" style="enable-background:new 0 0 24 24;" xml:space="preserve">
<style type="text/css">
	.st0{fill:#1A1A1A;}
</style>
<g id="_x5F_Public_x2F_ic_x5F_public_x5F_multiscreen">
	<g id="_形状结合">
		<path id="_path-1_1_" class="st0" d="M11.5,7.7c0.1,0,0.3,0.1,0.3,0.1C11.9,7.9,12,8.1,12,8.2l0,0v1.5H19c1.6,0,3,1.4,3,3l0,0V19
			c0,1.6-1.3,3-3,3l0,0h-6.2c-1.6,0-3-1.4-3-3l0,0v-1.2c0-0.4,0.3-0.7,0.7-0.8c0.2,0,0.4,0.1,0.6,0.2c0.2,0.2,0.2,0.4,0.2,0.6l0,0
			V19c0,0.8,0.7,1.5,1.5,1.5l0,0H19c0.8,0,1.5-0.7,1.5-1.5l0,0v-6.3c0-0.8-0.7-1.5-1.5-1.5l0,0H9c-0.1,0-0.3-0.1-0.3-0.2
			c-0.2-0.2-0.2-0.5,0-0.7l0,0l2.5-2.5C11.2,7.7,11.3,7.7,11.5,7.7z M11.2,2c1.6,0,3,1.4,3,3l0,0v1.2c0,0.4-0.3,0.7-0.7,0.8
			c-0.2,0-0.4-0.1-0.6-0.2s-0.2-0.4-0.2-0.6l0,0V5c0-0.8-0.7-1.5-1.5-1.5l0,0H5C4.1,3.5,3.5,4.2,3.5,5l0,0v6.3
			c0,0.8,0.7,1.5,1.5,1.5l0,0h10c0.1,0,0.3,0.1,0.3,0.2c0.2,0.2,0.2,0.5,0,0.7l0,0l-2.5,2.5c-0.1,0.1-0.2,0.2-0.3,0.2
			s-0.3-0.1-0.3-0.2c-0.1-0.1-0.1-0.2-0.1-0.4l0,0v-1.5H5c-1.6,0-3-1.4-3-3l0,0V5c0-1.6,1.3-3,3-3l0,0H11.2z"/>
	</g>
</g>
</svg>
