<?xml version="1.0" encoding="UTF-8"?>
<svg xmlns="http://www.w3.org/2000/svg" xmlns:xlink="http://www.w3.org/1999/xlink" width="24" height="24" viewBox="0 0 24 24" version="1.1">
    <title>ic_Edit Relationship_filled</title>
    <defs>
        <path d="M18,17.375 C20.2316574,17.375 21.34768,18.2796034 21.9326218,19.0698954 L22.0735525,19.2727956 L22.1926949,19.4664898 L22.2923551,19.6469585 L22.4714052,20.0138889 C22.5894584,20.2648871 22.6704098,20.6007021 22.7142594,21.021334 C22.771503,21.5706334 22.37263,22.0623476 21.8233325,22.1196103 L21.7196493,22.125 L14.2733168,22.125 C13.7210123,22.125 13.2732811,21.6773045 13.2732811,21.125 C13.2732811,21.0910844 13.2750064,21.0571908 13.2784504,21.0234506 C13.3214868,20.6018285 13.4048683,20.265308 13.5285948,20.0138889 L13.668362,19.7309771 L13.760361,19.5586286 C13.7771194,19.5285226 13.7946232,19.4977817 13.8129214,19.4664898 L13.9326384,19.2727956 L14.0737825,19.0698954 L14.238713,18.8618092 C14.8603475,18.1291211 15.9623998,17.375 18,17.375 Z M5.72982502,12.747592 C6.14403858,12.747592 6.47982502,13.0833784 6.47982502,13.497592 L6.47982502,13.497592 L6.4810982,17.5416602 C6.5039098,17.935362 6.8304048,18.247592 7.22982502,18.247592 L7.22982502,18.247592 L11.2738932,18.2488651 C11.667595,18.2716768 11.979825,18.5981718 11.979825,18.997592 C11.979825,19.1964145 11.9024598,19.3771674 11.7761913,19.5113888 L11.7761913,19.5113888 L11.7436218,19.5439583 L11.7091136,19.5744901 C11.5791495,19.6825837 11.412079,19.747592 11.229825,19.747592 L11.229825,19.747592 L6.66966258,19.7465772 C5.73102087,19.7148666 4.97982502,18.9439549 4.97982502,17.997592 L4.97982502,17.997592 L4.9810982,13.4535238 C4.99155352,13.2730771 5.06580344,13.1097452 5.18163014,12.9857458 L5.18163014,12.9857458 L5.21423338,12.9529197 C5.34863611,12.8256495 5.53011491,12.747592 5.72982502,12.747592 Z M18,12.125 C19.3116763,12.125 20.375,13.1883237 20.375,14.5 C20.375,15.8116763 19.3116763,16.875 18,16.875 C16.6883237,16.875 15.625,15.8116763 15.625,14.5 C15.625,13.1883237 16.6883237,12.125 18,12.125 Z M6,7.375 C8.23165736,7.375 9.34767997,8.27960337 9.93262181,9.06989545 L10.0735525,9.27279557 L10.1926949,9.46648983 L10.2923551,9.64695851 L10.4714052,10.0138889 C10.5894584,10.2648871 10.6704098,10.6007021 10.7142594,11.021334 C10.771503,11.5706334 10.37263,12.0623476 9.82333247,12.1196103 L9.71964925,12.125 L2.27331681,12.125 C1.72101232,12.125 1.27328106,11.6773045 1.27328106,11.125 C1.27328106,11.0910844 1.27500639,11.0571908 1.27845038,11.0234506 C1.32148679,10.6018285 1.40486826,10.265308 1.52859477,10.0138889 L1.66836203,9.73097709 L1.76036105,9.5586286 C1.77711943,9.52852257 1.79462318,9.49778173 1.81292144,9.46648983 L1.93263835,9.27279557 L2.07378255,9.06989545 L2.23871297,8.86180918 C2.86034749,8.12912115 3.9623998,7.375 6,7.375 Z M6,2.125 C7.31167628,2.125 8.375,3.18832372 8.375,4.5 C8.375,5.81167628 7.31167628,6.875 6,6.875 C4.68832372,6.875 3.625,5.81167628 3.625,4.5 C3.625,3.18832372 4.68832372,2.125 6,2.125 Z" id="_path-1"/>
    </defs>
    <g id="_ic_Edit-Relationship_filled" stroke="none" stroke-width="1" fill="none" fill-rule="evenodd">
        <mask id="_mask-2" fill="white">
            <use xlink:href="#_path-1"/>
        </mask>
        <use id="_形状结合" fill="#000000" fill-rule="nonzero" xlink:href="#_path-1"/>
    </g>
</svg>