<?xml version="1.0" encoding="UTF-8"?>
<svg xmlns="http://www.w3.org/2000/svg" xmlns:xlink="http://www.w3.org/1999/xlink" width="24" height="24" viewBox="0 0 24 24" version="1.1">
    <title>ic_Edit Relationship</title>
    <defs>
        <path d="M18.0000876,12 C19.65691,12 21,13.3431292 21,15 C21,15.7865205 20.6973449,16.5023417 20.2021458,17.0373496 C21.7158161,17.8303536 22.7490344,19.4175746 22.7490344,21.2461166 C22.7490344,21.6603302 22.4132479,21.9961166 21.9990344,21.9961166 C21.5848208,21.9961166 21.2490344,21.6603302 21.2490344,21.2461166 C21.2490344,19.4733923 19.8297323,18.0321637 18.0654796,17.9967823 L18.0000876,18 L17.9340344,17.998 L17.8146105,18.0012614 C16.1054891,18.0968707 14.7490344,19.5130852 14.7490344,21.2461166 C14.7490344,21.6603302 14.4132479,21.9961166 13.9990344,21.9961166 C13.5848208,21.9961166 13.2490344,21.6603302 13.2490344,21.2461166 C13.2490344,19.4167782 14.2831528,17.8289711 15.7986962,17.0353888 C15.3026551,16.5023417 15,15.7865205 15,15 C15,13.3431292 16.34309,12 18.0000876,12 Z M5.72982502,12.747592 C6.14403858,12.747592 6.47982502,13.0833784 6.47982502,13.497592 L6.47982502,13.497592 L6.4810982,17.5416602 C6.5039098,17.935362 6.8304048,18.247592 7.22982502,18.247592 L7.22982502,18.247592 L11.2738932,18.2488651 C11.667595,18.2716768 11.979825,18.5981718 11.979825,18.997592 C11.979825,19.1964145 11.9024598,19.3771674 11.7761913,19.5113888 L11.7761913,19.5113888 L11.7436218,19.5439583 L11.7091136,19.5744901 C11.5791495,19.6825837 11.412079,19.747592 11.229825,19.747592 L11.229825,19.747592 L6.66966258,19.7465772 C5.73102087,19.7148666 4.97982502,18.9439549 4.97982502,17.997592 L4.97982502,17.997592 L4.9810982,13.4535238 C4.99155352,13.2730771 5.06580344,13.1097452 5.18163014,12.9857458 L5.18163014,12.9857458 L5.21423338,12.9529197 C5.34863611,12.8256495 5.53011491,12.747592 5.72982502,12.747592 Z M18.0000626,13.5 C17.1717003,13.5 16.5,14.1713943 16.5,15 C16.5,15.8097814 17.1415275,16.4694133 17.9438549,16.4989665 L17.9990344,16.4961166 L18.0560344,16.497 L18.1444944,16.493135 C18.9050111,16.420467 19.5,15.7798514 19.5,15 C19.5,14.1714078 18.8283133,13.5 18.0000626,13.5 Z M6.00008763,2 C7.65691,2 9,3.34312924 9,5 C9,5.7865205 8.69734494,6.50234174 8.20214578,7.03734956 C9.7158161,7.8303536 10.7490344,9.41757459 10.7490344,11.2461166 C10.7490344,11.6603302 10.4132479,11.9961166 9.99903436,11.9961166 C9.5848208,11.9961166 9.24903436,11.6603302 9.24903436,11.2461166 C9.24903436,9.47339229 7.82973229,8.03216372 6.06547958,7.99678234 L6.00008763,8 L5.93403436,7.998 L5.81461046,8.00126142 C4.10548913,8.0968707 2.74903436,9.51308517 2.74903436,11.2461166 C2.74903436,11.6603302 2.41324792,11.9961166 1.99903436,11.9961166 C1.5848208,11.9961166 1.24903436,11.6603302 1.24903436,11.2461166 C1.24903436,9.41677819 2.28315284,7.82897105 3.79869619,7.03538883 C3.30265506,6.50234174 3,5.7865205 3,5 C3,3.34312924 4.34309,2 6.00008763,2 Z M6.0000626,3.5 C5.17170025,3.5 4.5,4.17139428 4.5,5 C4.5,5.80978141 5.14152748,6.46941332 5.94385486,6.49896649 L5.99903436,6.49611663 L6.05603436,6.497 L6.1444944,6.49313503 C6.90501108,6.42046695 7.5,5.77985145 7.5,5 C7.5,4.17140784 6.82831329,3.5 6.0000626,3.5 Z" id="_path-1"/>
    </defs>
    <g id="_ic_Edit-Relationship" stroke="none" stroke-width="1" fill="none" fill-rule="evenodd">
        <mask id="_mask-2" fill="white">
            <use xlink:href="#_path-1"/>
        </mask>
        <use id="_形状结合" fill="#000000" fill-rule="nonzero" xlink:href="#_path-1"/>
    </g>
</svg>