<?xml version="1.0" encoding="UTF-8"?>
<svg xmlns="http://www.w3.org/2000/svg" xmlns:xlink="http://www.w3.org/1999/xlink" width="24" height="24" viewBox="0 0 24 24" version="1.1">
    <title>ic_Business cards</title>
    <defs>
        <path d="M19.5,3 C21.709139,3 23.5,4.790861 23.5,7 L23.5,17 C23.5,19.209139 21.709139,21 19.5,21 L4.5,21 C2.290861,21 0.5,19.209139 0.5,17 L0.5,7 C0.5,4.790861 2.290861,3 4.5,3 L19.5,3 Z M19.5,4.5 L4.5,4.5 C3.1745166,4.5 2.08996133,5.53153594 2.00531768,6.83562431 L2,7 L2,17 C2,18.3254834 3.03153594,19.4100387 4.33562431,19.4946823 L4.5,19.5 L19.5,19.5 C20.8254834,19.5 21.9100387,18.4684641 21.9946823,17.1643757 L22,17 L22,7 C22,5.61928813 20.8807119,4.5 19.5,4.5 Z M19.0397799,12.5980601 C20.0843269,13.4680829 20.7490344,14.7794744 20.7490344,16.2461166 C20.7490344,16.6603302 20.4132479,16.9961166 19.9990344,16.9961166 C19.5848208,16.9961166 19.2490344,16.6603302 19.2490344,16.2461166 C19.2490344,15.1286101 18.6850169,14.142837 17.8261187,13.5579338 C18.2908903,13.3193794 18.702911,12.9918266 19.0397799,12.5980601 Z M16.0000876,7 C17.65691,7 19,8.34312924 19,10 C19,11.5799104 17.7787832,12.8745485 16.2288281,12.9914096 C16.2220896,12.9909381 16.2154039,12.991422 16.2087121,12.9918839 C16.1397605,12.9975944 16.070205,13 16.0000876,13 L15.934,12.998 L15.8146105,13.0012614 C14.1054891,13.0968707 12.7490344,14.5130852 12.7490344,16.2461166 C12.7490344,16.6603302 12.4132479,16.9961166 11.9990344,16.9961166 C11.5848208,16.9961166 11.2490344,16.6603302 11.2490344,16.2461166 C11.2490344,14.4167782 12.2831528,12.8289711 13.7986962,12.0353888 C13.3026551,11.5023417 13,10.7865205 13,10 C13,8.34312924 14.34309,7 16.0000876,7 Z M9.25,15.25 C9.66421356,15.25 10,15.5857864 10,16 C10,16.4142136 9.66421356,16.75 9.25,16.75 L4.75,16.75 C4.33578644,16.75 4,16.4142136 4,16 C4,15.5857864 4.33578644,15.25 4.75,15.25 L9.25,15.25 Z M9.25,11.25 C9.66421356,11.25 10,11.5857864 10,12 C10,12.4142136 9.66421356,12.75 9.25,12.75 L4.75,12.75 C4.33578644,12.75 4,12.4142136 4,12 C4,11.5857864 4.33578644,11.25 4.75,11.25 L9.25,11.25 Z M16.0000626,8.5 C15.1717003,8.5 14.5,9.17139428 14.5,10 C14.5,10.8097814 15.1415275,11.4694133 15.9438549,11.4989665 L15.9990344,11.4961166 L15.9990344,11.4961166 L16.05,11.498 L16.1444944,11.493135 C16.9050111,11.420467 17.5,10.7798514 17.5,10 C17.5,9.17140784 16.8283133,8.5 16.0000626,8.5 Z M9.25,7.25 C9.66421356,7.25 10,7.58578644 10,8 C10,8.41421356 9.66421356,8.75 9.25,8.75 L4.75,8.75 C4.33578644,8.75 4,8.41421356 4,8 C4,7.58578644 4.33578644,7.25 4.75,7.25 L9.25,7.25 Z" id="_path-1"/>
    </defs>
    <g id="_ic_Business-cards" stroke="none" stroke-width="1" fill="none" fill-rule="evenodd">
        <mask id="_mask-2" fill="white">
            <use xlink:href="#_path-1"/>
        </mask>
        <use id="_形状结合" fill="#000000" xlink:href="#_path-1"/>
    </g>
</svg>