<?xml version="1.0" encoding="UTF-8"?>
<svg xmlns="http://www.w3.org/2000/svg" xmlns:xlink="http://www.w3.org/1999/xlink" width="24" height="24" viewBox="0 0 24 24" version="1.1">
    <title>ic_addcontact_filled</title>
    <defs>
        <path d="M11,12.75 C12.9724406,12.75 14.5091237,13.1033304 15.71095,13.6341151 L15.71,15.289 L13.74984,15.2894737 L13.6063356,15.2952749 C12.7570672,15.3642254 12.0791608,16.0397303 12.006459,16.8880623 L12,17.0394737 L12.0058012,17.1830009 L12.0241771,17.3310263 C12.1548209,18.1100592 12.8001585,18.7145891 13.5985886,18.7830146 L13.75,18.7894737 L15.71,18.788 L15.71,20.75 L15.7158012,20.8935272 C15.7626769,21.4709867 16.0898961,21.9691879 16.5611739,22.2518459 L3.54657564,22.25 C2.4419985,22.2500138 1.54656181,21.3545771 1.54656181,20.25 C1.54656181,20.1821712 1.55001234,20.1143864 1.55690003,20.0469083 C1.64297264,19.2036609 1.80973581,18.5306174 2.05718954,18.0277778 C2.70884479,16.7035785 4.40205649,12.75 11,12.75 Z M17.46,12.5 C17.8742136,12.5 18.21,12.8357864 18.21,13.25 L18.21,20.75 C18.21,21.1642136 17.8742136,21.5 17.46,21.5 C17.0457864,21.5 16.71,21.1642136 16.71,20.75 L16.71,17.788 L13.75,17.7894737 C13.3357864,17.7894737 13,17.4536872 13,17.0394737 C13,16.6252601 13.3357864,16.2894737 13.75,16.2894737 L16.71,16.289 L16.71,13.25 C16.71,12.8357864 17.0457864,12.5 17.46,12.5 Z M21.25,16.2894737 C21.6642136,16.2894737 22,16.6252601 22,17.0394737 C22,17.4536872 21.6642136,17.7894737 21.25,17.7894737 L19.157,17.7884737 L19.157,16.2894737 L21.25,16.2894737 Z M11,2.25 C13.6233526,2.25 15.75,4.37664744 15.75,7 C15.75,9.62335256 13.6233526,11.75 11,11.75 C8.37664744,11.75 6.25,9.62335256 6.25,7 C6.25,4.37664744 8.37664744,2.25 11,2.25 Z" id="_path-1"/>
    </defs>
    <g id="_ic_addcontact_filled" stroke="none" stroke-width="1" fill="none" fill-rule="evenodd">
        <mask id="_mask-2" fill="white">
            <use xlink:href="#_path-1"/>
        </mask>
        <use id="_形状结合" fill="#000000" fill-rule="nonzero" xlink:href="#_path-1"/>
    </g>
</svg>