<?xml version="1.0" encoding="UTF-8"?>
<svg xmlns="http://www.w3.org/2000/svg" xmlns:xlink="http://www.w3.org/1999/xlink" width="24" height="24" viewBox="0 0 24 24" version="1.1">
    <title>Public/ic_public_contacts_group_filled</title>
    <defs>
        <path d="M10.75,12.5 C16.25,12.5 18.3952572,16.4535785 18.9852941,17.7777778 C19.197853,18.2548162 19.3699827,18.8850399 19.5016833,19.6684491 C19.684783,20.7577255 18.9502009,21.7892038 17.8609279,21.9723239 C17.7513657,21.9907426 17.6404593,22 17.5293597,22 L3.95709234,22 C2.85251263,22.0000185 1.95707385,21.1045797 1.95707385,20 C1.95707385,19.8896708 1.96620315,19.7795307 1.98436829,19.6707071 C2.11531202,18.8862509 2.29209122,18.2552744 2.51470588,17.7777778 C3.13206349,16.4535785 5.25,12.5 10.75,12.5 Z M15.7405108,12.3144625 C19.4134836,12.7984599 22.25,15.942978 22.25,19.75 C22.25,20.5595992 21.6086063,21.2193929 20.8062346,21.2489654 L20.75,21.250083 L20.6830609,21.250083 C20.7185377,21.1887813 20.741372,21.1192484 20.747998,21.0450502 L20.75,21 L20.75,20.5 C20.75,17.1281704 18.6897401,14.1894203 15.6403913,12.6478036 L15.639212,12.6472076 L15.6380396,12.6465918 C15.5511308,12.6027174 15.5162446,12.4966966 15.560119,12.4097878 C15.5854418,12.3596272 15.6324694,12.3255813 15.6857366,12.3158227 L15.7405108,12.3144625 L15.7405108,12.3144625 Z M13.5,2 C15.9852814,2 18,4.01471863 18,6.5 C18,7.62311012 17.5885586,8.65012296 16.9081813,9.43853308 C16.4355489,9.98621183 15.83314,10.4187515 15.1487242,10.6883823 L15.1387137,10.6921429 L15.1387137,10.6921429 L15.12403,10.6974221 C15.0603051,10.7197886 14.9905143,10.686261 14.9681478,10.6225361 C14.958678,10.5955555 14.9590935,10.5665822 14.9685257,10.5404743 L14.989328,10.5040687 L14.989328,10.5040687 C15.7767992,9.55263148 16.25,8.33157673 16.25,7 C16.25,4.96455014 15.1443087,3.18734834 13.5007912,2.23625986 L13.4750562,2.2215584 L13.4750562,2.2215584 L13.4468937,2.20589364 C13.3938203,2.17656384 13.3745723,2.10976282 13.4039021,2.05668939 C13.4232311,2.02171266 13.4600377,2 13.5,2 Z M10.75,2.5 C8.26471863,2.5 6.25,4.51471863 6.25,7 C6.25,9.48528137 8.26471863,11.5 10.75,11.5 C13.2352814,11.5 15.25,9.48528137 15.25,7 C15.25,4.51471863 13.2352814,2.5 10.75,2.5 Z" id="_path-1"/>
    </defs>
    <g id="_Public/ic_public_contacts_group_filled" stroke="none" stroke-width="1" fill="none" fill-rule="evenodd">
        <mask id="_mask-2" fill="white">
            <use xlink:href="#_path-1"/>
        </mask>
        <use id="_蒙版" fill="#000000" xlink:href="#_path-1"/>
    </g>
</svg>