<?xml version="1.0" encoding="UTF-8"?>
<svg xmlns="http://www.w3.org/2000/svg" xmlns:xlink="http://www.w3.org/1999/xlink" width="24" height="24" viewBox="0 0 24 24" version="1.1">
    <title>ic_Edit Group_filled</title>
    <defs>
        <path d="M10.75,12.5 C12.8657407,12.5 14.4850506,13.0850458 15.7103666,13.8804058 L15.71,15.289 L13.74984,15.2894737 L13.6063356,15.2952749 C12.7570672,15.3642254 12.0791608,16.0397303 12.006459,16.8880623 L12,17.0394737 L12.0058012,17.1830009 L12.0241771,17.3310263 C12.1548209,18.1100592 12.8001585,18.7145891 13.5985886,18.7830146 L13.75,18.7894737 L15.71,18.788 L15.71,20.75 L15.7158012,20.8935272 C15.7509391,21.3263887 15.9436004,21.7147154 16.2363828,22.0011048 L3.95709234,22 C2.85251263,22.0000185 1.95707385,21.1045797 1.95707385,20 C1.95707385,19.8896708 1.96620315,19.7795307 1.98436829,19.6707071 C2.11531202,18.8862509 2.29209122,18.2552744 2.51470588,17.7777778 C3.13206349,16.4535785 5.25,12.5 10.75,12.5 Z M17.46,12.5 C17.8742136,12.5 18.21,12.8357864 18.21,13.25 L18.21,20.75 C18.21,21.1642136 17.8742136,21.5 17.46,21.5 C17.0457864,21.5 16.71,21.1642136 16.71,20.75 L16.71,17.788 L13.75,17.7894737 C13.3357864,17.7894737 13,17.4536872 13,17.0394737 C13,16.6252601 13.3357864,16.2894737 13.75,16.2894737 L16.71,16.289 L16.71,13.25 C16.71,12.8357864 17.0457864,12.5 17.46,12.5 Z M21.25,16.2894737 C21.6642136,16.2894737 22,16.6252601 22,17.0394737 C22,17.4536872 21.6642136,17.7894737 21.25,17.7894737 L19.157,17.7884737 L19.157,16.2894737 L21.25,16.2894737 Z M10.75,2.5 C13.2352814,2.5 15.25,4.51471863 15.25,7 C15.25,9.48528137 13.2352814,11.5 10.75,11.5 C8.26471863,11.5 6.25,9.48528137 6.25,7 C6.25,4.51471863 8.26471863,2.5 10.75,2.5 Z M13.5,2 C15.9852814,2 18,4.01471863 18,6.5 C18,7.62311012 17.5885586,8.65012296 16.9081813,9.43853308 C16.4355489,9.98621183 15.83314,10.4187515 15.1487242,10.6883823 L15.1387137,10.6921429 L15.12403,10.6974221 C15.0603051,10.7197886 14.9905143,10.686261 14.9681478,10.6225361 C14.958678,10.5955555 14.9590935,10.5665822 14.9685257,10.5404743 L14.989328,10.5040687 C15.7767992,9.55263148 16.25,8.33157673 16.25,7 C16.25,4.96455014 15.1443087,3.18734834 13.5007912,2.23625986 L13.4750562,2.2215584 L13.4468937,2.20589364 C13.3938203,2.17656384 13.3745723,2.10976282 13.4039021,2.05668939 C13.4232311,2.02171266 13.4600377,2 13.5,2 Z" id="_path-1"/>
    </defs>
    <g id="_ic_Edit-Group_filled" stroke="none" stroke-width="1" fill="none" fill-rule="evenodd">
        <mask id="_mask-2" fill="white">
            <use xlink:href="#_path-1"/>
        </mask>
        <use id="_形状结合" fill="#000000" xlink:href="#_path-1"/>
    </g>
</svg>