<?xml version="1.0" encoding="UTF-8"?>
<svg xmlns="http://www.w3.org/2000/svg" xmlns:xlink="http://www.w3.org/1999/xlink" width="24" height="24" viewBox="0 0 24 24" version="1.1">
    <title>ic_gallery_not_this_person</title>
    <defs>
        <path d="M17.5,13 C19.9852814,13 22,15.0147186 22,17.5 C22,19.9852814 19.9852814,22 17.5,22 C15.0147186,22 13,19.9852814 13,17.5 C13,15.0147186 15.0147186,13 17.5,13 Z M12,2.5 C14.8994949,2.5 17.25,4.85050506 17.25,7.75 C17.25,10.5770076 15.0155511,12.8821316 12.2164046,12.995621 L12,13 L12,13 C7.581722,13 4,16.581722 4,21 C4,21.4142136 3.66421356,21.75 3.25,21.75 C2.83578644,21.75 2.5,21.4142136 2.5,21 C2.5,16.8281125 5.18916441,13.284313 8.92864014,12.0074546 C7.60862078,11.0543327 6.75,9.50243717 6.75,7.75 C6.75,4.85050506 9.10050506,2.5 12,2.5 Z M20.0852904,15.9771329 L15.9771329,20.0852904 C16.4235213,20.3488034 16.9441037,20.5 17.5,20.5 C19.1568542,20.5 20.5,19.1568542 20.5,17.5 C20.5,16.9441037 20.3488034,16.4235213 20.0852904,15.9771329 Z M17.5,14.5 C15.8431458,14.5 14.5,15.8431458 14.5,17.5 C14.5,18.0558963 14.6511966,18.5764787 14.9147096,19.0228671 L19.0228671,14.9147096 C18.5764787,14.6511966 18.0558963,14.5 17.5,14.5 Z M12,4 C9.92893219,4 8.25,5.67893219 8.25,7.75 C8.25,9.82106781 9.92893219,11.5 12,11.5 C14.0710678,11.5 15.75,9.82106781 15.75,7.75 C15.75,5.67893219 14.0710678,4 12,4 Z" id="_path-1"/>
    </defs>
    <g id="_ic_gallery_not_this_person" stroke="none" stroke-width="1" fill="none" fill-rule="evenodd">
        <mask id="_mask-2" fill="white">
            <use xlink:href="#_path-1"/>
        </mask>
        <use id="_形状结合" fill="#000000" fill-rule="nonzero" xlink:href="#_path-1"/>
    </g>
</svg>