<?xml version="1.0" encoding="UTF-8"?>
<svg xmlns="http://www.w3.org/2000/svg" xmlns:xlink="http://www.w3.org/1999/xlink" width="24" height="24" viewBox="0 0 24 24" version="1.1">
    <title>ic_addcontact</title>
    <defs>
        <path d="M12,2.5 C14.8994949,2.5 17.25,4.85050506 17.25,7.75 C17.25,10.5770076 15.0155511,12.8821316 12.2164046,12.995621 L12,13 C7.581722,13 4,16.581722 4,21 C4,21.4142136 3.66421356,21.75 3.25,21.75 C2.83578644,21.75 2.5,21.4142136 2.5,21 C2.5,16.8281125 5.18916441,13.284313 8.92864014,12.0074546 C7.60862078,11.0543327 6.75,9.50243717 6.75,7.75 C6.75,4.85050506 9.10050506,2.5 12,2.5 Z M17.46,12.25 C17.8742136,12.25 18.21,12.5857864 18.21,13 L18.21,20.5 C18.21,20.9142136 17.8742136,21.25 17.46,21.25 C17.0457864,21.25 16.71,20.9142136 16.71,20.5 L16.71,17.538 L13.75,17.5394737 C13.3357864,17.5394737 13,17.2036872 13,16.7894737 C13,16.3752601 13.3357864,16.0394737 13.75,16.0394737 L16.71,16.039 L16.71,13 C16.71,12.5857864 17.0457864,12.25 17.46,12.25 Z M21.25,16.0394737 C21.6642136,16.0394737 22,16.3752601 22,16.7894737 C22,17.2036872 21.6642136,17.5394737 21.25,17.5394737 L19.157,17.5384737 L19.157,16.0394737 L21.25,16.0394737 Z M12,4 C9.92893219,4 8.25,5.67893219 8.25,7.75 C8.25,9.82106781 9.92893219,11.5 12,11.5 C14.0710678,11.5 15.75,9.82106781 15.75,7.75 C15.75,5.67893219 14.0710678,4 12,4 Z" id="_path-1"/>
    </defs>
    <g id="_ic_addcontact" stroke="none" stroke-width="1" fill="none" fill-rule="evenodd">
        <mask id="_mask-2" fill="white">
            <use xlink:href="#_path-1"/>
        </mask>
        <use id="_形状结合" fill="#000000" fill-rule="nonzero" xlink:href="#_path-1"/>
    </g>
</svg>