<?xml version="1.0" encoding="UTF-8"?>
<svg xmlns="http://www.w3.org/2000/svg" xmlns:xlink="http://www.w3.org/1999/xlink" width="24" height="24" viewBox="0 0 24 24" version="1.1">
    <title>ic_Edit Group</title>
    <defs>
        <path d="M11,2.5 C13.8994949,2.5 16.25,4.85050506 16.25,7.75 C16.25,9.51473805 15.3792831,11.0761093 14.0440228,12.0279401 C14.6331339,12.2395631 15.1937894,12.5109152 15.7186874,12.8346957 L15.716459,12.8485886 L15.71,13 L15.7100852,14.6631411 C14.4226397,13.6229258 12.7840659,13 11,13 C6.85786438,13 3.5,16.3578644 3.5,20.5 C3.5,20.8796958 3.21784612,21.193491 2.85177056,21.2431534 L2.75,21.25 C2.33578644,21.25 2,20.9142136 2,20.5 C2,16.5975795 4.48371302,13.2752612 7.95660209,12.0275821 C6.62071692,11.0761093 5.75,9.51473805 5.75,7.75 C5.75,4.85050506 8.10050506,2.5 11,2.5 Z M17.46,12.25 C17.8742136,12.25 18.21,12.5857864 18.21,13 L18.21,20.5 C18.21,20.9142136 17.8742136,21.25 17.46,21.25 C17.0457864,21.25 16.71,20.9142136 16.71,20.5 L16.71,17.538 L13.75,17.5394737 C13.3357864,17.5394737 13,17.2036872 13,16.7894737 C13,16.3752601 13.3357864,16.0394737 13.75,16.0394737 L16.71,16.039 L16.71,13 C16.71,12.5857864 17.0457864,12.25 17.46,12.25 Z M21.25,16.0394737 C21.6642136,16.0394737 22,16.3752601 22,16.7894737 C22,17.2036872 21.6642136,17.5394737 21.25,17.5394737 L19.157,17.5384737 L19.157,16.0394737 L21.25,16.0394737 Z M11,4 C8.92893219,4 7.25,5.67893219 7.25,7.75 C7.25,9.82106781 8.92893219,11.5 11,11.5 C13.0710678,11.5 14.75,9.82106781 14.75,7.75 C14.75,5.67893219 13.0710678,4 11,4 Z M14.3933827,2.26605683 C16.8326968,2.46603293 18.75,4.50911139 18.75,7 C18.75,8.63466202 17.9242699,10.0764644 16.6671636,10.9310533 L16.6534314,10.9403132 L16.6390036,10.9498595 C16.582224,10.9872983 16.505845,10.9716194 16.4684062,10.9148398 C16.4515547,10.8892829 16.445116,10.8588907 16.4493121,10.8295803 L16.4636103,10.7871659 C16.9705014,9.8763586 17.25,8.83638014 17.25,7.75 C17.25,5.54150753 16.1045197,3.60055631 14.3752757,2.48882859 C14.3740147,2.48801791 14.3670156,2.48382955 14.3542783,2.4762635 L14.3308634,2.4623901 C14.2806258,2.43263244 14.2640236,2.36778346 14.2937812,2.31754587 C14.3143973,2.28274139 14.3530659,2.26275164 14.3933827,2.26605683 Z" id="_path-1"/>
    </defs>
    <g id="_ic_Edit-Group" stroke="none" stroke-width="1" fill="none" fill-rule="evenodd">
        <mask id="_mask-2" fill="white">
            <use xlink:href="#_path-1"/>
        </mask>
        <use id="_形状结合" fill="#000000" fill-rule="nonzero" xlink:href="#_path-1"/>
    </g>
</svg>