<?xml version="1.0" encoding="UTF-8"?>
<svg xmlns="http://www.w3.org/2000/svg" xmlns:xlink="http://www.w3.org/1999/xlink" width="24" height="24" viewBox="0 0 24 24" version="1.1">
    <title>ic_wifi</title>
    <g id="_ic_wifi" stroke="none" stroke-width="1" fill="none" fill-rule="evenodd">
        <path d="M5.22668935,4.02849701 C5.82220791,3.9143656 6.43188649,4.14937707 6.81081658,4.62019396 L6.81081658,4.62019396 L8.03735347,6.14141685 C8.1137378,6.23669177 8.19151819,6.33196669 8.27328732,6.42327182 C8.7731288,6.98620362 8.74799617,7.83865126 8.21584949,8.37144544 L8.21584949,8.37144544 L7.34570633,9.19219918 C7.0000426,9.53701869 6.93833796,10.0732799 7.19672697,10.4869456 C8.17177394,12.055409 10.8037426,14.6863862 12.5061359,15.7302421 C12.9209948,15.9838764 13.4565626,15.9208006 13.8004813,15.5778022 L13.8004813,15.5778022 L14.5942402,14.8064723 C15.1183565,14.2880601 15.9527521,14.2516889 16.5204017,14.7225113 C16.6131398,14.7999222 16.7060774,14.8771346 16.8026049,14.9497817 L16.8026049,14.9497817 L18.5243436,16.247307 C19.1585521,16.8821603 19.1585521,17.9075869 18.5243436,18.5424401 L18.5243436,18.5424401 L18.0257513,19.0386637 C17.250939,19.809795 16.1396767,20.1525863 15.0655096,19.9362328 C10.4292001,19.0023401 4.16967382,12.6101869 3.08254332,7.93020347 C2.8306219,6.83357538 3.16396533,5.68512993 3.9646527,4.89113202 L3.9646527,4.89113202 L4.38546454,4.47231935 C4.61482408,4.24378854 4.90791494,4.08915654 5.22668935,4.02849701 Z M12.7089718,3.09141116 L13.0764895,5.48028947 L13.417756,3.09141116 L13.9637824,3.09141116 L14.3311127,5.48028947 L14.6778169,3.09141116 L15.3340986,3.09141116 L14.6200641,7 L14.0215352,7 L13.6800812,4.88306989 L13.3390022,7 L12.7350355,7 L12,3.09141116 L12.7089718,3.09141116 Z M16.4424272,4.2370977 L16.4424272,6.99923824 L15.7037165,6.99923824 L15.7037165,4.2370977 L16.4424272,4.2370977 Z M21.9703361,4.2370977 L21.9703361,6.99923824 L21.2316254,6.99923824 L21.2316254,4.2370977 L21.9703361,4.2370977 Z M20.862195,3.09521996 L20.862195,3.78308894 L19.8749598,3.78308894 L19.8749598,4.77490002 L20.7676904,4.77490002 L20.7676904,5.44696248 L19.8749598,5.44696248 L19.8749598,6.99847648 L19.1348615,6.99847648 L19.1348615,3.09521996 L20.862195,3.09521996 Z M18.704199,4.73300324 L18.704199,5.44821092 L16.8508595,5.44821092 L16.8508595,4.73300324 L18.704199,4.73300324 Z M16.0730719,3 C16.1941558,3 16.2981109,3.04189678 16.3845432,3.12530946 C16.4707786,3.20891259 16.5140932,3.30927442 16.5140932,3.42658541 C16.5140932,3.5438964 16.4707786,3.64444868 16.3845432,3.72786136 C16.2981109,3.81146448 16.1941558,3.85317082 16.0730719,3.85317082 C15.951791,3.85317082 15.847836,3.81146448 15.7616006,3.72786136 C15.6751683,3.64444868 15.6320505,3.5438964 15.6320505,3.42658541 C15.6320505,3.30927442 15.6751683,3.20891259 15.7616006,3.12530946 C15.847836,3.04189678 15.951791,3 16.0730719,3 Z M21.6009807,3 C21.7220647,3 21.8260197,3.04189678 21.912452,3.12530946 C21.9986874,3.20891259 22.042002,3.30927442 22.042002,3.42658541 C22.042002,3.5438964 21.9986874,3.64444868 21.912452,3.72786136 C21.8260197,3.81146448 21.7220647,3.85317082 21.6009807,3.85317082 C21.4796999,3.85317082 21.3757448,3.81146448 21.2895094,3.72786136 C21.2030771,3.64444868 21.1599594,3.5438964 21.1599594,3.42658541 C21.1599594,3.30927442 21.2030771,3.20891259 21.2895094,3.12530946 C21.3757448,3.04189678 21.4796999,3 21.6009807,3 Z" id="_形状结合" fill="#000000"/>
    </g>
</svg>