<?xml version="1.0" encoding="UTF-8"?>
<svg xmlns="http://www.w3.org/2000/svg" xmlns:xlink="http://www.w3.org/1999/xlink" width="24" height="24" viewBox="0 0 24 24" version="1.1">
    <title>ic_Encryption 2 CT</title>
    <defs>
        <path d="M10.6157572,1.21570866 L10.8088205,1.30107415 L17.2316154,4.41515652 C17.9556548,4.76620591 18.4330579,5.47458799 18.4934937,6.26842209 L18.5,6.43973826 L18.5,11.25 C18.5,16.5158971 15.1459225,21.1101108 10.2508862,22.7973636 C10.2379871,22.8018097 10.2161694,22.8089491 10.185433,22.8187818 C9.80304799,22.9411082 9.39611148,22.9585332 9.00673736,22.8710629 L8.8137088,22.8185866 L8.77675693,22.806645 L8.75199206,22.7983767 C3.95342221,21.1458923 0.634836092,16.6998489 0.504012075,11.5652082 L0.5,11.25 L0.5,6.43973826 C0.5,5.63508387 0.929133851,4.89646145 1.61707044,4.49575168 L1.76838461,4.41515652 L8.19117948,1.30107415 C8.95413359,0.931157011 9.83470774,0.902701847 10.6157572,1.21570866 Z M10,12.0161352 L2.02712778,12.0164273 C2.33240674,16.3234858 5.18783379,20.0045418 9.2523646,21.4015869 C9.25389171,21.4021118 9.25544872,21.4026459 9.25703564,21.4031891 C9.37385493,21.4431777 9.49810823,21.4535062 9.61879972,21.4341361 L9.7378967,21.4048651 L9.74572933,21.4022016 C9.83501027,21.371494 9.91801572,21.3417847 10.0004986,21.3111255 L10,12.0161352 Z M10.0004344,2.56909594 L10,12 L16.9731283,12.0127739 L16.9905499,11.7023073 L16.9905499,11.7023073 L16.9990866,11.3898263 L17,11.2486466 L17,6.4295033 C17,6.17758453 16.8742772,5.94504677 16.6696144,5.80670218 L16.5772051,5.75339667 L10.1544103,2.63356455 C10.1040274,2.6090914 10.0526187,2.58760187 10.0004344,2.56909594 Z M21.5694823,3 C22.0161541,3 22.3501362,3.12598878 22.5708447,3.37825399 C22.7915531,3.63080685 22.9019074,3.9690781 22.9019074,4.39306774 C22.9019074,4.68847979 22.8432269,4.98935711 22.726158,5.29512441 C22.6087972,5.60146699 22.3977228,6.04703006 22.0926431,6.6323889 L21.3896458,7.9690781 L23,7.9690781 L23,9 L20,9 L20,8.13821372 L21.0953678,6.14885661 C21.3295056,5.7194017 21.4877384,5.3972386 21.5694823,5.18236732 C21.6512262,4.96749604 21.6920981,4.75291241 21.6920981,4.53804113 C21.6920981,4.37724723 21.6728299,4.25902488 21.6348774,4.18366173 C21.5966329,4.10858622 21.5367847,4.07090465 21.4550409,4.07090465 C21.3405995,4.07090465 21.2477618,4.14741838 21.1771117,4.30044585 C21.1061697,4.45347332 21.0407746,4.70199914 20.9809264,5.04544801 L20.0245232,4.52222062 C20.2043597,3.50711923 20.719346,3 21.5694823,3 Z" id="_path-1"/>
    </defs>
    <g id="_ic_Encryption-2-CT" stroke="none" stroke-width="1" fill="none" fill-rule="evenodd">
        <mask id="_mask-2" fill="white">
            <use xlink:href="#_path-1"/>
        </mask>
        <use id="_形状结合" fill="#000000" fill-rule="nonzero" xlink:href="#_path-1"/>
    </g>
</svg>