<?xml version="1.0" encoding="UTF-8"?>
<svg xmlns="http://www.w3.org/2000/svg" xmlns:xlink="http://www.w3.org/1999/xlink" width="24" height="24" viewBox="0 0 20 12" version="1.1">
    <title>ic_contacts_calllog_volte</title>
    <g id="_ic_contacts_calllog_volte" stroke="none" stroke-width="1" fill="none" fill-rule="evenodd">
        <path d="M16.972,1 C18.0920335,1 19,1.90796653 19,3.028 L19,8.972 C19,10.0920335 18.0920335,11 16.972,11 L3.028,11 C1.90796653,11 1,10.0920335 1,8.972 L1,3.028 C1,1.90796653 1.90796653,1 3.028,1 L16.972,1 Z M7.11893929,4.40846429 C6.62773214,4.40846429 6.25108214,4.59907143 5.98927857,4.98028571 C5.72718571,5.36117857 5.59642857,5.987 5.59642857,6.85678571 C5.59642857,7.72689286 5.72718571,8.35078571 5.98927857,8.72878571 C6.25108214,9.10678571 6.62773214,9.29578571 7.11893929,9.29578571 C7.60522857,9.29578571 7.97753929,9.10678571 8.23702857,8.72878571 C8.49622857,8.35078571 8.62553929,7.72689286 8.62553929,6.85678571 C8.62553929,5.987 8.49622857,5.36117857 8.23702857,4.98028571 C7.97753929,4.59907143 7.60522857,4.40846429 7.11893929,4.40846429 Z M3.39156357,2.70489286 L2.21735286,2.70489286 L3.43235286,9.29289286 L4.57416357,9.29289286 L5.74895286,2.70489286 L4.61495286,2.70489286 L4.03175286,7.03421429 L3.39156357,2.70489286 Z M17.6502571,2.70489286 L14.9853571,2.70489286 L14.9853571,9.29289286 L17.7147679,9.29289286 L17.7147679,8.15021429 L16.1274571,8.15021429 L16.1274571,6.51221429 L17.5044571,6.51221429 L17.5044571,5.37821429 L16.1274571,5.37821429 L16.1274571,3.84821429 L17.6502571,3.84821429 L17.6502571,2.70489286 Z M14.4773714,2.70489286 L11.2535714,2.70489286 L11.2535714,3.87521429 L12.2903714,3.87521429 L12.2903714,9.29289286 L13.4405714,9.29289286 L13.4405714,3.87521429 L14.4773714,3.87521429 L14.4773714,2.70489286 Z M10.26181,2.70489286 L9.11971,2.70489286 L9.11971,9.29289286 L11.80081,9.29289286 L11.80081,8.11389286 L10.26181,8.11389286 L10.26181,2.70489286 Z M7.11083929,5.52478571 C7.24593571,5.52478571 7.34313571,5.62667857 7.40243929,5.83078571 C7.46203214,6.03489286 7.49182857,6.37657143 7.49182857,6.85678571 C7.49182857,7.337 7.46058571,7.67867857 7.39838929,7.88278571 C7.33619286,8.08689286 7.24043929,8.18878571 7.11083929,8.18878571 C6.97053571,8.18878571 6.87073214,8.08689286 6.81142857,7.88278571 C6.75183571,7.67867857 6.72203929,7.337 6.72203929,6.85678571 C6.72203929,6.37078571 6.75183571,6.0275 6.81142857,5.82628571 C6.87073214,5.62539286 6.97053571,5.52478571 7.11083929,5.52478571 Z" id="_形状结合" fill="#000000"/>
    </g>
</svg>