<?xml version="1.0" encoding="UTF-8"?>
<svg xmlns="http://www.w3.org/2000/svg" xmlns:xlink="http://www.w3.org/1999/xlink" width="24" height="24" viewBox="0 0 24 24" version="1.1">
    <title>ic_Call 1 Dial</title>
    <g id="_ic_Call-1-Dial" stroke="none" stroke-width="1" fill="none" fill-rule="evenodd">
        <path d="M4.78336169,3.03562126 C5.52775989,2.892957 6.28985811,3.18672133 6.76352073,3.77524245 L6.76352073,3.77524245 L8.29669184,5.67677106 C8.39217225,5.79586471 8.48939774,5.91495836 8.59160914,6.02908978 C9.216411,6.73275452 9.18499521,7.79831407 8.51981186,8.46430681 L8.51981186,8.46430681 L7.43213291,9.49024898 C7.00005324,9.92127336 6.92292245,10.5915999 7.24590871,11.1086821 C8.46471742,13.0692613 11.7546783,16.3579828 13.8826699,17.6628026 C14.4012435,17.9798455 15.0707032,17.9010007 15.5006017,17.4722527 L15.5006017,17.4722527 L16.4928002,16.5080904 C17.1479457,15.8600751 18.1909401,15.8146111 18.9005021,16.4031391 C19.0164248,16.4999027 19.1325968,16.5964182 19.2532561,16.6872271 L19.2532561,16.6872271 L21.4054295,18.3091338 C22.1981902,19.1027003 22.1981902,20.3844836 21.4054295,21.1780502 L21.4054295,21.1780502 L20.7821892,21.7983296 C19.8136738,22.7622438 18.4245958,23.1907328 17.0818869,22.920291 C11.2865001,21.7529251 3.46209228,13.7627337 2.10317915,7.91275434 C1.78827737,6.54196923 2.20495666,5.10641241 3.20581587,4.11391502 L3.20581587,4.11391502 L3.73183067,3.59039918 C4.01853009,3.30473568 4.38489368,3.11144568 4.78336169,3.03562126 Z M20,2 L20,10 L18.3924528,10 L18.3924528,3.93442623 L17,4.90710383 L17,3.18032787 L18.6754717,2 L20,2 Z" id="_形状结合" fill="#000000"/>
    </g>
</svg>