<?xml version="1.0" encoding="UTF-8"?>
<svg xmlns="http://www.w3.org/2000/svg" xmlns:xlink="http://www.w3.org/1999/xlink" width="24" height="24" viewBox="0 0 24 24" version="1.1">
    <title>ic_volte</title>
    <g id="_ic_volte" stroke="none" stroke-width="1" fill="none" fill-rule="evenodd">
        <path d="M4.22668935,4.02849701 C4.82220791,3.9143656 5.43188649,4.14937707 5.81081658,4.62019396 L5.81081658,4.62019396 L7.03735347,6.14141685 C7.1137378,6.23669177 7.19151819,6.33196669 7.27328732,6.42327182 C7.7731288,6.98620362 7.74799617,7.83865126 7.21584949,8.37144544 L7.21584949,8.37144544 L6.34570633,9.19219918 C6.0000426,9.53701869 5.93833796,10.0732799 6.19672697,10.4869456 C7.17177394,12.055409 9.8037426,14.6863862 11.5061359,15.7302421 C11.9209948,15.9838764 12.4565626,15.9208006 12.8004813,15.5778022 L12.8004813,15.5778022 L13.5942402,14.8064723 C14.1183565,14.2880601 14.9527521,14.2516889 15.5204017,14.7225113 C15.6131398,14.7999222 15.7060774,14.8771346 15.8026049,14.9497817 L15.8026049,14.9497817 L17.5243436,16.247307 C18.1585521,16.8821603 18.1585521,17.9075869 17.5243436,18.5424401 L17.5243436,18.5424401 L17.0257513,19.0386637 C16.250939,19.809795 15.1396767,20.1525863 14.0655096,19.9362328 C9.42920012,19.0023401 3.16967382,12.6101869 2.08254332,7.93020347 C1.8306219,6.83357538 2.16396533,5.68512993 2.9646527,4.89113202 L2.9646527,4.89113202 L3.38546454,4.47231935 C3.61482408,4.24378854 3.90791494,4.08915654 4.22668935,4.02849701 Z M14.7393518,4.04507857 C15.0365286,4.04507857 15.2640518,4.15944286 15.4226286,4.38817143 C15.5810286,4.61670714 15.6600518,4.9922 15.6600518,5.51407143 C15.6600518,6.03613571 15.5810286,6.41047143 15.4226286,6.63727143 C15.2640518,6.86407143 15.0365286,6.97747143 14.7393518,6.97747143 C14.4391696,6.97747143 14.2089946,6.86407143 14.0490036,6.63727143 C13.8888357,6.41047143 13.8089286,6.03613571 13.8089286,5.51407143 C13.8089286,4.9922 13.8888357,4.61670714 14.0490036,4.38817143 C14.2089946,4.15944286 14.4391696,4.04507857 14.7393518,4.04507857 Z M12.4615111,3.02293571 L12.8527379,5.62052857 L13.2091379,3.02293571 L13.9021379,3.02293571 L13.1842111,6.97573571 L12.4864379,6.97573571 L11.7439379,3.02293571 L12.4615111,3.02293571 Z M16.659995,3.02293571 L16.659995,6.26833571 L17.600495,6.26833571 L17.600495,6.97573571 L15.962045,6.97573571 L15.962045,3.02293571 L16.659995,3.02293571 Z M21.1751571,3.02293571 L21.1751571,3.70892857 L20.2445571,3.70892857 L20.2445571,4.62692857 L21.0860571,4.62692857 L21.0860571,5.30732857 L20.2445571,5.30732857 L20.2445571,6.29012857 L21.2145804,6.29012857 L21.2145804,6.97573571 L19.5466071,6.97573571 L19.5466071,3.02293571 L21.1751571,3.02293571 Z M19.2361714,3.02293571 L19.2361714,3.72512857 L18.6025714,3.72512857 L18.6025714,6.97573571 L17.8996714,6.97573571 L17.8996714,3.72512857 L17.2660714,3.72512857 L17.2660714,3.02293571 L19.2361714,3.02293571 Z M14.7344018,4.71487143 C14.6486607,4.71487143 14.5876696,4.77523571 14.5514286,4.89577143 C14.5150107,5.0165 14.4968018,5.22247143 14.4968018,5.51407143 C14.4968018,5.8022 14.5150107,6.00720714 14.5514286,6.12967143 C14.5876696,6.25213571 14.6486607,6.31327143 14.7344018,6.31327143 C14.8136018,6.31327143 14.8721179,6.25213571 14.9101268,6.12967143 C14.9481357,6.00720714 14.9672286,5.8022 14.9672286,5.51407143 C14.9672286,5.22594286 14.9490196,5.02093571 14.9126018,4.89847143 C14.8763607,4.77600714 14.8169607,4.71487143 14.7344018,4.71487143 Z" id="_形状结合" fill="#000000"/>
    </g>
</svg>