<?xml version="1.0" encoding="UTF-8"?>
<svg xmlns="http://www.w3.org/2000/svg" xmlns:xlink="http://www.w3.org/1999/xlink" width="24" height="24" viewBox="0 0 24 24" version="1.1">
    <title>ic_contact_call_2_voz4g_dial</title>
    <g id="_ic_contact_call_2_voz4g_dial" stroke="none" stroke-width="1" fill="none" fill-rule="evenodd">
        <path d="M8.42054039,17.9806649 C8.96089076,17.9806649 9.3745915,18.1764207 9.66292837,18.5679321 C9.9509438,18.9591134 10.0946301,19.6018392 10.0946301,20.4951191 C10.0946301,21.3887291 9.9509438,22.0294742 9.66292837,22.4176845 C9.3745915,22.8058948 8.96089076,23 8.42054039,23 C7.87472543,23 7.45620301,22.8058948 7.16529457,22.4176845 C6.87406468,22.0294742 6.72877118,21.3887291 6.72877118,20.4951191 C6.72877118,19.6018392 6.87406468,18.9591134 7.16529457,18.5679321 C7.45620301,18.1764207 7.87472543,17.9806649 8.42054039,17.9806649 Z M13.2004715,18.2117425 L13.2004715,18.9884933 L11.8233977,21.8997406 L13.2994768,21.8997406 L13.2994768,22.9996699 L10.4193225,22.9996699 L10.4193225,22.2140061 L11.7873958,19.321245 L10.5363287,19.321245 L10.5363287,18.2213157 L13.2004715,18.2117425 Z M4.30474847,16.2310776 L5.01610801,20.6773402 L5.66414272,16.2310776 L6.92421023,16.2310776 L5.61881887,22.997029 L4.35007233,22.997029 L3,16.2310776 L4.30474847,16.2310776 Z M16.2667107,16.2310776 L14.7726307,20.6123084 L15.4926693,20.6123084 L15.4926693,19.1518981 L16.6177295,19.1518981 L16.6177295,20.6123084 L17.130757,20.6123084 L17.130757,21.7676963 L16.6177295,21.7676963 L16.6177295,22.997029 L15.4566673,22.997029 L15.4566673,21.7676963 L13.5215637,21.7676963 L13.5215637,20.7324688 L15.0426451,16.2310776 L16.2667107,16.2310776 Z M19.3885922,16 C19.8505098,16 20.2108506,16.1247819 20.4686501,16.3743457 C20.7267711,16.6235793 20.8974588,17.0012261 20.9816776,17.5062957 L19.8566173,18.0331526 C19.796507,17.7314313 19.7277176,17.5218109 19.6492848,17.4049517 C19.5714949,17.2877623 19.4724896,17.2290026 19.3525903,17.2290026 C18.9025662,17.2290026 18.6775542,17.983966 18.6775542,19.4938929 C18.6775542,20.2762556 18.7360573,20.849328 18.8530636,21.2131101 C18.9700698,21.5765621 19.1484722,21.7581231 19.3885922,21.7581231 C19.5927103,21.7581231 19.7302891,21.6472058 19.8026144,21.4253714 L19.8026144,20.1867956 L19.1995821,20.1867956 L19.1995821,19.0221646 L21,19.0221646 L21,21.8135817 C20.9038877,22.1895779 20.7116631,22.4807357 20.4236477,22.6873851 C20.1356323,22.8937043 19.7695055,22.9966989 19.3255889,22.9966989 C18.7135561,22.9966989 18.2365305,22.7382221 17.8941908,22.2202782 C17.5524939,21.7026645 17.3814847,20.7938694 17.3814847,19.4938929 C17.3814847,18.1935864 17.5614944,17.2861118 17.9211922,16.7717991 C18.2815329,16.2571563 18.770452,16 19.3885922,16 Z M8.4115399,19.1271398 C8.25563869,19.1271398 8.1447399,19.2304645 8.07884351,19.4367838 C8.01262568,19.6434332 7.97951676,19.9959915 7.97951676,20.4951191 C7.97951676,20.9883046 8.01262568,21.3392124 8.07884351,21.5488328 C8.1447399,21.7584532 8.25563869,21.8630983 8.4115399,21.8630983 C8.55554762,21.8630983 8.66194618,21.7584532 8.73105702,21.5488328 C8.80016787,21.3392124 8.83488401,20.9883046 8.83488401,20.4951191 C8.83488401,20.0019335 8.8017751,19.6510257 8.73555726,19.4414053 C8.66966087,19.231785 8.56165509,19.1271398 8.4115399,19.1271398 Z M6.94835318,1.02493489 C7.46943192,0.925069898 8.00290068,1.13070493 8.33446451,1.54266972 L8.33446451,1.54266972 L9.40768429,2.87373974 C9.47452058,2.9571053 9.54257842,3.04047085 9.6141264,3.12036284 C10.0514877,3.61292816 10.0294966,4.35881985 9.5638683,4.82501476 L9.5638683,4.82501476 L8.80249304,5.54317428 C8.50003727,5.84489135 8.44604572,6.31411995 8.6721361,6.67607744 C9.52530219,8.04848289 11.8282748,10.350588 13.3178689,11.2639618 C13.6808704,11.4858918 14.1494923,11.4307005 14.4504212,11.1305769 L14.4504212,11.1305769 L15.1449602,10.4556633 C15.603562,10.0020525 16.3336581,9.97022779 16.8303515,10.3821974 C16.9114974,10.4499319 16.9928177,10.5174927 17.0772793,10.581059 L17.0772793,10.581059 L18.5838006,11.7163936 C19.1387331,12.2718902 19.1387331,13.1691385 18.5838006,13.7246351 L18.5838006,13.7246351 L18.1475324,14.1588307 C17.4695716,14.8335707 16.4972171,15.133513 15.5573209,14.9442037 C11.5005501,14.1270476 6.02346459,8.53391357 5.07222541,4.43892804 C4.85179416,3.47937846 5.14346966,2.47448869 5.84407111,1.77974051 L5.84407111,1.77974051 L6.21228147,1.41327943 C6.41297107,1.21331498 6.66942558,1.07801198 6.94835318,1.02493489 Z M16.5694823,1 C17.0161541,1 17.3501362,1.12598878 17.5708447,1.37825399 C17.7915531,1.63080685 17.9019074,1.9690781 17.9019074,2.39306774 C17.9019074,2.68847979 17.8432269,2.98935711 17.726158,3.29512441 C17.6087972,3.60146699 17.3977228,4.04703006 17.0926431,4.6323889 L16.3896458,5.9690781 L18,5.9690781 L18,7 L15,7 L15,6.13821372 L16.0953678,4.14885661 C16.3295056,3.7194017 16.4877384,3.3972386 16.5694823,3.18236732 C16.6512262,2.96749604 16.6920981,2.75291241 16.6920981,2.53804113 C16.6920981,2.37724723 16.6728299,2.25902488 16.6348774,2.18366173 C16.5966329,2.10858622 16.5367847,2.07090465 16.4550409,2.07090465 C16.3405995,2.07090465 16.2477618,2.14741838 16.1768198,2.30044585 C16.1061697,2.45347332 16.0407746,2.70199914 15.9809264,3.04544801 L15.0245232,2.52222062 C15.2040677,1.50711923 15.719346,1 16.5694823,1 Z" id="_形状结合" fill="#000000"/>
    </g>
</svg>