<?xml version="1.0" encoding="UTF-8"?>
<svg xmlns="http://www.w3.org/2000/svg" xmlns:xlink="http://www.w3.org/1999/xlink" width="24" height="24" viewBox="0 0 24 24" version="1.1">
    <title>ic_contacts_calllog_doubleline_2</title>
    <g id="_ic_contacts_calllog_doubleline_2" stroke="none" stroke-width="1" fill="none" fill-rule="evenodd">
        <path d="M7.04239401,13 L5.38653367,18.1803279 L6.18453865,18.1803279 L6.18453865,16.4535519 L7.43142145,16.4535519 L7.43142145,18.1803279 L8,18.1803279 L8,19.5464481 L7.43142145,19.5464481 L7.43142145,21 L6.1446384,21 L6.1446384,19.5464481 L4,19.5464481 L4,18.3224044 L5.68578554,13 L7.04239401,13 Z M11.2187084,13 C11.729324,13 12.1276539,13.1426752 12.4126321,13.4280255 C12.6979657,13.7129983 12.8866483,14.1447983 12.9797459,14.722293 L11.7360753,15.3246992 C11.6696278,14.9797122 11.5935862,14.740033 11.5068846,14.6064166 C11.4208937,14.4724227 11.3114507,14.4052371 11.1789109,14.4052371 C10.6814427,14.4052371 10.4327085,15.2684595 10.4327085,16.9949045 C10.4327085,17.8894551 10.4973794,18.5447039 10.6267212,18.9606511 C10.7560629,19.3762208 10.9532735,19.5838169 11.2187084,19.5838169 C11.4443457,19.5838169 11.5964289,19.4569946 11.6763791,19.2033498 L11.6763791,17.7871668 L11.0097717,17.7871668 L11.0097717,16.455532 L13,16.455532 L13,19.6472281 C12.893755,20.0771408 12.681265,20.4100495 12.3628853,20.6463317 C12.0445056,20.8822364 11.6397797,21 11.1490628,21 C10.472506,21 9.94518966,20.7044586 9.5671138,20.1122435 C9.18903793,19.5204058 9,18.4812928 9,16.9949045 C9,15.5081387 9.1989873,14.4705355 9.59696189,13.8824723 C9.99493648,13.2940316 10.5354002,13 11.2187084,13 Z M18.328125,5 L18.328125,5.97338665 L15.9375,9.62162162 L18.5,9.62162162 L18.5,11 L13.5,11 L13.5,10.015444 L15.875,6.39037507 L13.703125,6.39037507 L13.703125,5.01199669 L18.328125,5 Z M4.66243447,3 L5.56880734,8.25722092 L6.39449541,3 L8,3 L6.3367464,11 L4.72018349,11 L3,3 L4.66243447,3 Z M10.5131315,5 C11.3158247,5 11.9303791,5.23400197 12.358705,5.70200592 C12.7865533,6.16961526 13,6.93791516 13,8.0057218 C13,9.07392305 12.7865533,9.83985531 12.358705,10.3039132 C11.9303791,10.7679711 11.3158247,11 10.5131315,11 C9.7023207,11 9.08060357,10.7679711 8.64845764,10.3039132 C8.21583421,9.83985531 8,9.07392305 8,8.0057218 C8,6.93791516 8.21583421,6.16961526 8.64845764,5.70200592 C9.08060357,5.23400197 9.7023207,5 10.5131315,5 Z M10.4997612,6.37047024 C10.2681692,6.37047024 10.1034285,6.49398224 10.0055391,6.74061164 C9.90717219,6.98763565 9.85798873,7.40907596 9.85798873,8.0057218 C9.85798873,8.59526472 9.90717219,9.014732 10.0055391,9.26530746 C10.1034285,9.51588293 10.2681692,9.64097336 10.4997612,9.64097336 C10.7136854,9.64097336 10.871741,9.51588293 10.9744055,9.26530746 C11.07707,9.014732 11.128641,8.59526472 11.128641,8.0057218 C11.128641,7.41617889 11.0794575,6.99671161 10.9810906,6.74613614 C10.8832012,6.49556067 10.7227581,6.37047024 10.4997612,6.37047024 Z" id="_形状结合" fill="#000000"/>
    </g>
</svg>