<?xml version="1.0" encoding="UTF-8"?>
<svg xmlns="http://www.w3.org/2000/svg" xmlns:xlink="http://www.w3.org/1999/xlink" width="24" height="24" viewBox="0 0 24 24" version="1.1">
    <title>ic_Call 2 Dial</title>
    <g id="_ic_Call-2-Dial" stroke="none" stroke-width="1" fill="none" fill-rule="evenodd">
        <path d="M4.78336169,2.03562126 C5.52775989,1.892957 6.28985811,2.18672133 6.76352073,2.77524245 L6.76352073,2.77524245 L8.29669184,4.67677106 C8.39217225,4.79586471 8.48939774,4.91495836 8.59160914,5.02908978 C9.216411,5.73275452 9.18499521,6.79831407 8.51981186,7.46430681 L8.51981186,7.46430681 L7.43213291,8.49024898 C7.00005324,8.92127336 6.92292245,9.59159993 7.24590871,10.1086821 C8.46471742,12.0692613 11.7546783,15.3579828 13.8826699,16.6628026 C14.4012435,16.9798455 15.0707032,16.9010007 15.5006017,16.4722527 L15.5006017,16.4722527 L16.4928002,15.5080904 C17.1479457,14.8600751 18.1909401,14.8146111 18.9005021,15.4031391 C19.0164248,15.4999027 19.1325968,15.5964182 19.2532561,15.6872271 L19.2532561,15.6872271 L21.4054295,17.3091338 C22.1981902,18.1027003 22.1981902,19.3844836 21.4054295,20.1780502 L21.4054295,20.1780502 L20.7821892,20.7983296 C19.8136738,21.7622438 18.4245958,22.1907328 17.0818869,21.920291 C11.2865001,20.7529251 3.46209228,12.7627337 2.10317915,6.91275434 C1.78827737,5.54196923 2.20495666,4.10641241 3.20581587,3.11391502 L3.20581587,3.11391502 L3.73183067,2.59039918 C4.01853009,2.30473568 4.38489368,2.11144568 4.78336169,2.03562126 Z M18.0926431,1 C18.6882055,1 19.133515,1.16798504 19.4277929,1.50433865 C19.7220708,1.84107579 19.8692098,2.29210413 19.8692098,2.85742365 C19.8692098,3.25130639 19.7909692,3.65247615 19.6348774,4.06016588 C19.4783963,4.46862266 19.1969638,5.06270675 18.7901907,5.8431852 L17.852861,7.62543746 L20,7.62543746 L20,9 L16,9 L16,7.85095163 L17.4604905,5.19847548 C17.7726742,4.62586893 17.9836512,4.19631814 18.0926431,3.9098231 C18.2016349,3.62332806 18.2561308,3.33721655 18.2561308,3.05072151 C18.2561308,2.83632964 18.2304399,2.67869984 18.1798365,2.57821564 C18.1288439,2.47811496 18.0490463,2.42787286 17.9400545,2.42787286 C17.7874659,2.42787286 17.6636824,2.52989117 17.569093,2.7339278 C17.474893,2.93796443 17.3876995,3.26933218 17.3079019,3.72726401 L16.0326975,3.0296275 C16.2720903,1.67615897 16.9591281,1 18.0926431,1 Z" id="_形状结合" fill="#000000"/>
    </g>
</svg>