<?xml version="1.0" encoding="UTF-8"?>
<svg xmlns="http://www.w3.org/2000/svg" xmlns:xlink="http://www.w3.org/1999/xlink" width="24" height="24" viewBox="0 0 24 24" version="1.1">
    <title>ic_contact_call_1_vowifi_default_dial</title>
    <g id="_ic_contact_call_1_vowifi_default_dial" stroke="none" stroke-width="1" fill="none" fill-rule="evenodd">
        <path d="M10.29152,16.1536 L10.91872,20.16768 L11.50112,16.1536 L12.43296,16.1536 L13.05984,20.16768 L13.65152,16.1536 L14.77152,16.1536 L13.55296,22.72128 L12.53152,22.72128 L11.9488,19.16416 L11.36672,22.72128 L10.336,22.72128 L9.0816,16.1536 L10.29152,16.1536 Z M7.49216,17.856 C8.03008,17.856 8.44192,18.04576 8.72896,18.42528 C9.01568,18.80448 9.15872,19.42752 9.15872,20.29344 C9.15872,21.15968 9.01568,21.7808 8.72896,22.15712 C8.44192,22.53344 8.03008,22.7216 7.49216,22.7216 C6.9488,22.7216 6.53216,22.53344 6.24256,22.15712 C5.95264,21.7808 5.808,21.15968 5.808,20.29344 C5.808,19.42752 5.95264,18.80448 6.24256,18.42528 C6.53216,18.04576 6.9488,17.856 7.49216,17.856 Z M16.59712,18.07872 L16.59712,22.72 L15.39648,22.72 L15.39648,18.07872 L16.59712,18.07872 Z M22.36352,18.07872 L22.36352,22.72 L21.16288,22.72 L21.16288,18.07872 L22.36352,18.07872 Z M20.43584,16.16 L20.43584,17.31584 L18.75104,17.31584 L18.75104,18.9824 L20.27456,18.9824 L20.27456,20.11168 L18.75104,20.11168 L18.75104,22.71872 L17.488,22.71872 L17.488,16.16 L20.43584,16.16 Z M3.29888,16.16 L4.00704,20.47008 L4.65216,16.16 L5.90656,16.16 L4.60704,22.71872 L3.344,22.71872 L2,16.16 L3.29888,16.16 Z M7.4832,18.96736 C7.328,18.96736 7.2176,19.06752 7.152,19.26752 C7.08608,19.46784 7.05312,19.8096 7.05312,20.29344 C7.05312,20.77152 7.08608,21.11168 7.152,21.31488 C7.2176,21.51808 7.328,21.61952 7.4832,21.61952 C7.62656,21.61952 7.73248,21.51808 7.80128,21.31488 C7.87008,21.11168 7.90464,20.77152 7.90464,20.29344 C7.90464,19.81536 7.87168,19.4752 7.80576,19.272 C7.74016,19.0688 7.63264,18.96736 7.4832,18.96736 Z M15.9968,16 C16.1936,16 16.36256,16.0704 16.50304,16.21056 C16.6432,16.35104 16.7136,16.51968 16.7136,16.7168 C16.7136,16.91392 16.6432,17.08288 16.50304,17.22304 C16.36256,17.36352 16.1936,17.4336 15.9968,17.4336 C15.79968,17.4336 15.63072,17.36352 15.49056,17.22304 C15.35008,17.08288 15.28,16.91392 15.28,16.7168 C15.28,16.51968 15.35008,16.35104 15.49056,16.21056 C15.63072,16.0704 15.79968,16 15.9968,16 Z M21.7632,16 C21.96,16 22.12896,16.0704 22.26944,16.21056 C22.4096,16.35104 22.48,16.51968 22.48,16.7168 C22.48,16.91392 22.4096,17.08288 22.26944,17.22304 C22.12896,17.36352 21.96,17.4336 21.7632,17.4336 C21.56608,17.4336 21.39712,17.36352 21.25696,17.22304 C21.11648,17.08288 21.0464,16.91392 21.0464,16.7168 C21.0464,16.51968 21.11648,16.35104 21.25696,16.21056 C21.39712,16.0704 21.56608,16 21.7632,16 Z M6.94835318,1.02493489 C7.46943192,0.925069898 8.00290068,1.13070493 8.33446451,1.54266972 L8.33446451,1.54266972 L9.40768429,2.87373974 C9.47452058,2.9571053 9.54257842,3.04047085 9.6141264,3.12036284 C10.0514877,3.61292816 10.0294966,4.35881985 9.5638683,4.82501476 L9.5638683,4.82501476 L8.80249304,5.54317428 C8.50003727,5.84489135 8.44604572,6.31411995 8.6721361,6.67607744 C9.52530219,8.04848289 11.8282748,10.350588 13.3178689,11.2639618 C13.6808704,11.4858918 14.1494923,11.4307005 14.4504212,11.1305769 L14.4504212,11.1305769 L15.1449602,10.4556633 C15.603562,10.0020525 16.3336581,9.97022779 16.8303515,10.3821974 C16.9114974,10.4499319 16.9928177,10.5174927 17.0772793,10.581059 L17.0772793,10.581059 L18.5838006,11.7163936 C19.1387331,12.2718902 19.1387331,13.1691385 18.5838006,13.7246351 L18.5838006,13.7246351 L18.1475324,14.1588307 C17.4695716,14.8335707 16.4972171,15.133513 15.5573209,14.9442037 C11.5005501,14.1270476 6.02346459,8.53391357 5.07222541,4.43892804 C4.85179416,3.47937846 5.14346966,2.47448869 5.84407111,1.77974051 L5.84407111,1.77974051 L6.21228147,1.41327943 C6.41297107,1.21331498 6.66942558,1.07801198 6.94835318,1.02493489 Z M17.5,1 L17.5,7 L16.4283019,7 L16.4283019,2.45081967 L15.5,3.18032787 L15.5,1.8852459 L16.6169811,1 L17.5,1 Z" id="_形状结合" fill="#000000"/>
    </g>
</svg>