<?xml version="1.0" encoding="UTF-8"?>
<svg xmlns="http://www.w3.org/2000/svg" xmlns:xlink="http://www.w3.org/1999/xlink" width="24" height="24" viewBox="0 0 24 24" version="1.1">
    <title>ic_contact_call_1_volte_dial</title>
    <g id="_ic_contact_call_1_volte_dial" stroke="none" stroke-width="1" fill="none" fill-rule="evenodd">
        <path d="M9.00420409,17.8093148 C9.59572183,17.8093148 10.0485971,18.0117532 10.3642374,18.4166301 C10.6795259,18.8211656 10.8368182,19.4858327 10.8368182,20.4096074 C10.8368182,21.3337235 10.6795259,21.9963424 10.3642374,22.3978054 C10.0485971,22.7992685 9.59572183,23 9.00420409,23 C8.40670432,23 7.94855079,22.7992685 7.63009538,22.3978054 C7.31128808,21.9963424 7.15223632,21.3337235 7.15223632,20.4096074 C7.15223632,19.4858327 7.31128808,18.8211656 7.63009538,18.4166301 C7.94855079,18.0117532 8.40670432,17.8093148 9.00420409,17.8093148 Z M4.42829892,16 L5.20701917,20.5980493 L5.91641819,16 L7.29580517,16 L5.86680248,22.9969276 L4.47791462,22.9969276 L3,16 L4.42829892,16 Z M12.7852023,16 L12.7852023,21.7447452 L14.6572275,21.7447452 L14.6572275,22.9969276 L11.3959626,22.9969276 L11.3959626,16 L12.7852023,16 Z M21.9215298,16 L21.9215298,17.2142892 L20.0692101,17.2142892 L20.0692101,18.8392587 L21.74418,18.8392587 L21.74418,20.0436479 L20.0692101,20.0436479 L20.0692101,21.7833211 L22,21.7833211 L22,22.9969276 L18.6799704,22.9969276 L18.6799704,16 L21.9215298,16 Z M17.9584313,16 L17.9584313,17.2429651 L16.6972775,17.2429651 L16.6972775,22.9969276 L15.298185,22.9969276 L15.298185,17.2429651 L14.0370312,17.2429651 L14.0370312,16 L17.9584313,16 Z M8.99435133,18.9949281 C8.82368738,18.9949281 8.70228725,19.1017801 8.63015094,19.3151426 C8.55766275,19.5288466 8.52141865,19.8934406 8.52141865,20.4096074 C8.52141865,20.9196294 8.55766275,21.2825165 8.63015094,21.4992929 C8.70228725,21.7160693 8.82368738,21.8242868 8.99435133,21.8242868 C9.15199556,21.8242868 9.2684693,21.7160693 9.34412446,21.4992929 C9.41977961,21.2825165 9.45778313,20.9196294 9.45778313,20.4096074 C9.45778313,19.8995855 9.42153903,19.5366984 9.34905084,19.319922 C9.27691453,19.1031456 9.15868136,18.9949281 8.99435133,18.9949281 Z M6.94835318,1.02493489 C7.46943192,0.925069898 8.00290068,1.13070493 8.33446451,1.54266972 L8.33446451,1.54266972 L9.40768429,2.87373974 C9.47452058,2.9571053 9.54257842,3.04047085 9.6141264,3.12036284 C10.0514877,3.61292816 10.0294966,4.35881985 9.5638683,4.82501476 L9.5638683,4.82501476 L8.80249304,5.54317428 C8.50003727,5.84489135 8.44604572,6.31411995 8.6721361,6.67607744 C9.52530219,8.04848289 11.8282748,10.350588 13.3178689,11.2639618 C13.6808704,11.4858918 14.1494923,11.4307005 14.4504212,11.1305769 L14.4504212,11.1305769 L15.1449602,10.4556633 C15.603562,10.0020525 16.3336581,9.97022779 16.8303515,10.3821974 C16.9114974,10.4499319 16.9928177,10.5174927 17.0772793,10.581059 L17.0772793,10.581059 L18.5838006,11.7163936 C19.1387331,12.2718902 19.1387331,13.1691385 18.5838006,13.7246351 L18.5838006,13.7246351 L18.1475324,14.1588307 C17.4695716,14.8335707 16.4972171,15.133513 15.5573209,14.9442037 C11.5005501,14.1270476 6.02346459,8.53391357 5.07222541,4.43892804 C4.85179416,3.47937846 5.14346966,2.47448869 5.84407111,1.77974051 L5.84407111,1.77974051 L6.21228147,1.41327943 C6.41297107,1.21331498 6.66942558,1.07801198 6.94835318,1.02493489 Z M17.5,1 L17.5,7 L16.4283019,7 L16.4283019,2.45081967 L15.5,3.18032787 L15.5,1.8852459 L16.6169811,1 L17.5,1 Z" id="_形状结合" fill="#000000"/>
    </g>
</svg>