<?xml version="1.0" encoding="UTF-8"?>
<svg xmlns="http://www.w3.org/2000/svg" xmlns:xlink="http://www.w3.org/1999/xlink" width="24" height="24" viewBox="0 0 24 24" version="1.1">
    <title>ic_contact_call_1_dial_wifi_dial</title>
    <g id="_ic_contact_call_1_dial_wifi_dial" stroke="none" stroke-width="1" fill="none" fill-rule="evenodd">
        <path d="M4.78336169,2.03562126 C5.52775989,1.892957 6.28985811,2.18672133 6.76352073,2.77524245 L6.76352073,2.77524245 L8.29669184,4.67677106 C8.39217225,4.79586471 8.48939774,4.91495836 8.59160914,5.02908978 C9.216411,5.73275452 9.18499521,6.79831407 8.51981186,7.46430681 L8.51981186,7.46430681 L7.43213291,8.49024898 C7.00005324,8.92127336 6.92292245,9.59159993 7.24590871,10.1086821 C8.46471742,12.0692613 11.7546783,15.3579828 13.8826699,16.6628026 C14.4012435,16.9798455 15.0707032,16.9010007 15.5006017,16.4722527 L15.5006017,16.4722527 L16.4928002,15.5080904 C17.1479457,14.8600751 18.1909401,14.8146111 18.9005021,15.4031391 C19.0164248,15.4999027 19.1325968,15.5964182 19.2532561,15.6872271 L19.2532561,15.6872271 L21.4054295,17.3091338 C22.1981902,18.1027003 22.1981902,19.3844836 21.4054295,20.1780502 L21.4054295,20.1780502 L20.7821892,20.7983296 C19.8136738,21.7622438 18.4245958,22.1907328 17.0818869,21.920291 C11.2865001,20.7529251 3.46209228,12.7627337 2.10317915,6.91275434 C1.78827737,5.54196923 2.20495666,4.10641241 3.20581587,3.11391502 L3.20581587,3.11391502 L3.73183067,2.59039918 C4.01853009,2.30473568 4.38489368,2.11144568 4.78336169,2.03562126 Z M17,9.125 C17.6213203,9.125 18.125,9.62867966 18.125,10.25 C18.125,10.8713203 17.6213203,11.375 17,11.375 C16.3786797,11.375 15.875,10.8713203 15.875,10.25 C15.875,9.62867966 16.3786797,9.125 17,9.125 Z M17.0003434,6.875 C18.0576745,6.875 19.0453246,7.29958339 19.7379028,8.03032525 C19.9278611,8.23075095 19.9193756,8.5472197 19.7189499,8.73717799 C19.5185242,8.92713627 19.2020554,8.91865075 19.0120972,8.71822505 C18.5083836,8.18675498 17.7831907,7.875 17.0003434,7.875 C16.2171888,7.875 15.4917397,8.18700166 14.9880152,8.71883126 C14.7981225,8.91931904 14.4816565,8.927908 14.2811687,8.73801524 C14.080681,8.54812247 14.072092,8.23165652 14.2619848,8.03116874 C14.9545879,7.29992196 15.9425931,6.875 17.0003434,6.875 Z M17.0001346,4.625 C18.6342693,4.625 20.1593095,5.32839315 21.2471511,6.54077845 C21.4315709,6.74631183 21.4144549,7.0624313 21.2089215,7.24685103 C21.0033881,7.43127076 20.6872686,7.41415476 20.5028489,7.20862138 C19.6017565,6.20436565 18.3456227,5.625 17.0001346,5.625 C15.6545215,5.625 14.398281,6.20447425 13.4971759,7.20889389 C13.3127714,7.41444094 12.9966532,7.43158036 12.7911061,7.24717586 C12.5855591,7.06277135 12.5684196,6.74665316 12.7528241,6.54110611 C13.8406799,5.3285244 15.3658482,4.625 17.0001346,4.625 Z M16.9997681,2.375 C19.1500552,2.375 21.1607458,3.25508682 22.6122041,4.78031432 C22.8025687,4.9803541 22.7947255,5.29683941 22.5946857,5.48720406 C22.3946459,5.67756871 22.0781606,5.66972546 21.8877959,5.46968568 C20.6232627,4.14088355 18.8734867,3.375 16.9997681,3.375 C15.1262689,3.375 13.3766796,4.14070306 12.1121722,5.46923195 C11.921789,5.66925412 11.605303,5.67706809 11.4052808,5.48668494 C11.2052586,5.29630179 11.1974447,4.97981575 11.3878278,4.77979358 C12.8392566,3.25487956 14.8497329,2.375 16.9997681,2.375 Z" id="_形状结合" fill="#000000"/>
    </g>
</svg>