<?xml version="1.0" encoding="UTF-8"?>
<svg xmlns="http://www.w3.org/2000/svg" xmlns:xlink="http://www.w3.org/1999/xlink" width="24" height="24" viewBox="0 0 24 24" version="1.1">
    <title>ic_Call 1 Dial_line</title>
    <g id="_ic_Call-1-Dial_line" stroke="none" stroke-width="1" fill="none" fill-rule="evenodd">
        <path d="M5.243962,2.14081487 C6.19283903,1.95916594 7.16822347,2.32675513 7.77607494,3.08225607 C7.91700627,3.25742016 8.07133397,3.44889272 8.22723777,3.64204688 L8.22723777,3.64204688 L9.3537796,5.03091264 L9.46508279,5.162393 C10.2324768,6.07746659 10.2003067,7.42306041 9.37464007,8.30982875 L9.37464007,8.30982875 L9.33414385,8.35181763 L9.30896885,8.37671655 L8.33152313,9.29843477 C8.18461264,9.44492031 8.15853902,9.67144831 8.26897505,9.84821364 C8.75502696,10.6301338 9.67601351,11.7221684 10.7611357,12.8108428 L10.7611357,12.8108428 L10.9802683,13.0284399 C12.1303644,14.1987708 13.3172557,15.2120891 14.1527582,15.7314508 C14.3280746,15.8409839 14.5546026,15.8149102 14.686639,15.6828975 L14.686639,15.6828975 L15.6228063,14.690554 L15.6477052,14.665379 L15.699312,14.6157694 C16.5931939,13.7836376 17.9729968,13.7661146 18.8910284,14.5810212 L18.8910284,14.5810212 L20.9172668,16.2234479 C21.6727677,16.8312994 22.0403569,17.8066839 21.858708,18.7555609 C21.7360372,19.3963547 21.3182937,20.0075363 20.6367826,20.6144113 L20.6367826,20.6144113 L20.6530605,20.5992242 L20.6032636,20.6488379 C19.5405408,21.676154 18.0405745,22.1115169 16.5941801,21.8110531 L16.5941801,21.8110531 L16.5019346,21.7908739 C13.7813017,21.1588206 10.5332577,19.0872915 7.70579392,16.2883966 C4.91223973,13.4662736 2.84070426,10.2182299 2.20824887,7.49585665 C1.86268744,5.99225358 2.31983567,4.41733995 3.41706088,3.3290245 L3.41706088,3.3290245 L3.40000863,3.34652585 L3.45795888,3.28222699 C4.01663811,2.67469617 4.57981912,2.29147814 5.16720725,2.15694972 L5.16720725,2.15694972 Z M6.60738014,4.02254988 C6.34435194,3.69563113 5.92515246,3.53764911 5.52599414,3.61406226 C5.26113202,3.66476633 4.91247789,3.90307193 4.50533759,4.36028407 L4.50533759,4.36028407 L4.41193762,4.45676796 C3.72736923,5.17688065 3.44742729,6.19082408 3.66973827,7.15815029 C4.23009995,9.57019147 6.15720291,12.5917737 8.7664403,15.2277501 C11.4077574,17.8423281 14.4293391,19.7694247 16.839641,20.3293845 C17.8371496,20.5586342 18.8823263,20.255252 19.6055231,19.5261346 L19.6055231,19.5261346 L19.6392388,19.4941853 C20.0964509,19.087045 20.3347566,18.7383909 20.3854606,18.4735287 C20.4618738,18.0743704 20.3038918,17.6551709 19.976973,17.3921427 C19.2522673,16.8090681 18.3872561,16.1094041 18.0404137,15.8240228 L18.0404137,15.8240228 L17.8559701,15.669668 C17.5199701,15.4023958 17.0383508,15.4185862 16.7309899,15.7045601 L16.7309899,15.7045601 L16.7010407,15.7332689 L15.7632834,16.7271225 C15.1385121,17.3537064 14.1737396,17.4779592 13.4145885,17.0377028 L13.4145885,17.0377028 L13.3594158,17.0044806 C12.4692794,16.45116 11.2995201,15.4658 10.1558071,14.3268132 L10.1558071,14.3268132 L9.91964876,14.08906 C8.67168241,12.862672 7.58651914,11.5916262 6.99594523,10.641556 C6.51580142,9.8730476 6.630534,8.87624912 7.28729807,8.22179031 L7.28729807,8.22179031 L8.26649427,7.29801532 L8.28584937,7.27815087 C8.58061124,6.96151558 8.59711542,6.47956509 8.33190757,6.14585543 L8.33190757,6.14585543 L8.02359877,5.77349596 Z M17,2 L17,11 L15.3924528,11 L15.3924528,4.17622951 L14,5.2704918 L14,3.32786885 L15.6754717,2 L17,2 Z" id="_形状结合" fill="#000000"/>
    </g>
</svg>