<?xml version="1.0" encoding="UTF-8"?>
<svg xmlns="http://www.w3.org/2000/svg" xmlns:xlink="http://www.w3.org/1999/xlink" width="24" height="24" viewBox="0 0 24 24" version="1.1">
    <title>ic_volte_1</title>
    <g id="_ic_volte_1" stroke="none" stroke-width="1" fill="none" fill-rule="evenodd">
        <path d="M5.22668935,4.02849701 C5.82220791,3.9143656 6.43188649,4.14937707 6.81081658,4.62019396 L6.81081658,4.62019396 L8.03735347,6.14141685 C8.1137378,6.23669177 8.19151819,6.33196669 8.27328732,6.42327182 C8.7731288,6.98620362 8.74799617,7.83865126 8.21584949,8.37144544 L8.21584949,8.37144544 L7.34570633,9.19219918 C7.0000426,9.53701869 6.93833796,10.0732799 7.19672697,10.4869456 C8.17177394,12.055409 10.8037426,14.6863862 12.5061359,15.7302421 C12.9209948,15.9838764 13.4565626,15.9208006 13.8004813,15.5778022 L13.8004813,15.5778022 L14.5942402,14.8064723 C15.1183565,14.2880601 15.9527521,14.2516889 16.5204017,14.7225113 C16.6131398,14.7999222 16.7060774,14.8771346 16.8026049,14.9497817 L16.8026049,14.9497817 L18.5243436,16.247307 C19.1585521,16.8821603 19.1585521,17.9075869 18.5243436,18.5424401 L18.5243436,18.5424401 L18.0257513,19.0386637 C17.250939,19.809795 16.1396767,20.1525863 15.0655096,19.9362328 C10.4292001,19.0023401 4.16967382,12.6101869 3.08254332,7.93020347 C2.8306219,6.83357538 3.16396533,5.68512993 3.9646527,4.89113202 L3.9646527,4.89113202 L4.38546454,4.47231935 C4.61482408,4.24378854 4.90791494,4.08915654 5.22668935,4.02849701 Z M20.8,2 C21.4627417,2 22,2.5372583 22,3.2 L22,6.8 C22,7.4627417 21.4627417,8 20.8,8 L16.2,8 C15.5372583,8 15,7.4627417 15,6.8 L15,3.2 C15,2.5372583 15.5372583,2 16.2,2 L20.8,2 Z M13.7393518,4.04507857 C14.0365286,4.04507857 14.2640518,4.15944286 14.4226286,4.38817143 C14.5810286,4.61670714 14.6600518,4.9922 14.6600518,5.51407143 C14.6600518,6.03613571 14.5810286,6.41047143 14.4226286,6.63727143 C14.2640518,6.86407143 14.0365286,6.97747143 13.7393518,6.97747143 C13.4391696,6.97747143 13.2089946,6.86407143 13.0490036,6.63727143 C12.8888357,6.41047143 12.8089286,6.03613571 12.8089286,5.51407143 C12.8089286,4.9922 12.8888357,4.61670714 13.0490036,4.38817143 C13.2089946,4.15944286 13.4391696,4.04507857 13.7393518,4.04507857 Z M11.4615111,3.02293571 L11.8527379,5.62052857 L12.2091379,3.02293571 L12.9021379,3.02293571 L12.1842111,6.97573571 L11.4864379,6.97573571 L10.7439379,3.02293571 L11.4615111,3.02293571 Z M16.659995,3.02293571 L15.962045,3.02293571 L15.962045,6.97573571 L17.600495,6.97573571 L17.600495,6.26833571 L16.659995,6.26833571 L16.659995,3.02293571 Z M21.1751571,3.02293571 L19.5466071,3.02293571 L19.5466071,6.97573571 L21.2145804,6.97573571 L21.2145804,6.29012857 L20.2445571,6.29012857 L20.2445571,5.30732857 L21.0860571,5.30732857 L21.0860571,4.62692857 L20.2445571,4.62692857 L20.2445571,3.70892857 L21.1751571,3.70892857 L21.1751571,3.02293571 Z M19.2361714,3.02293571 L17.2660714,3.02293571 L17.2660714,3.72512857 L17.8996714,3.72512857 L17.8996714,6.97573571 L18.6025714,6.97573571 L18.6025714,3.72512857 L19.2361714,3.72512857 L19.2361714,3.02293571 Z M13.7344018,4.71487143 C13.6486607,4.71487143 13.5876696,4.77523571 13.5514286,4.89577143 C13.5150107,5.0165 13.4968018,5.22247143 13.4968018,5.51407143 C13.4968018,5.8022 13.5150107,6.00720714 13.5514286,6.12967143 C13.5876696,6.25213571 13.6486607,6.31327143 13.7344018,6.31327143 C13.8136018,6.31327143 13.8721179,6.25213571 13.9101268,6.12967143 C13.9481357,6.00720714 13.9672286,5.8022 13.9672286,5.51407143 C13.9672286,5.22594286 13.9490196,5.02093571 13.9126018,4.89847143 C13.8763607,4.77600714 13.8169607,4.71487143 13.7344018,4.71487143 Z" id="_形状结合" fill="#000000"/>
    </g>
</svg>