<?xml version="1.0" encoding="UTF-8"?>
<svg xmlns="http://www.w3.org/2000/svg" xmlns:xlink="http://www.w3.org/1999/xlink" width="24" height="24" viewBox="0 0 24 24" version="1.1">
    <title>ic_woz4G</title>
    <g id="_ic_woz4G" stroke="none" stroke-width="1" fill="none" fill-rule="evenodd">
        <path d="M5.22668935,4.02849701 C5.82220791,3.9143656 6.43188649,4.14937707 6.81081658,4.62019396 L6.81081658,4.62019396 L8.03735347,6.14141685 C8.1137378,6.23669177 8.19151819,6.33196669 8.27328732,6.42327182 C8.7731288,6.98620362 8.74799617,7.83865126 8.21584949,8.37144544 L8.21584949,8.37144544 L7.34570633,9.19219918 C7.0000426,9.53701869 6.93833796,10.0732799 7.19672697,10.4869456 C8.17177394,12.055409 10.8037426,14.6863862 12.5061359,15.7302421 C12.9209948,15.9838764 13.4565626,15.9208006 13.8004813,15.5778022 L13.8004813,15.5778022 L14.5942402,14.8064723 C15.1183565,14.2880601 15.9527521,14.2516889 16.5204017,14.7225113 C16.6131398,14.7999222 16.7060774,14.8771346 16.8026049,14.9497817 L16.8026049,14.9497817 L18.5243436,16.247307 C19.1585521,16.8821603 19.1585521,17.9075869 18.5243436,18.5424401 L18.5243436,18.5424401 L18.0257513,19.0386637 C17.250939,19.809795 16.1396767,20.1525863 15.0655096,19.9362328 C10.4292001,19.0023401 4.16967382,12.6101869 3.08254332,7.93020347 C2.8306219,6.83357538 3.16396533,5.68512993 3.9646527,4.89113202 L3.9646527,4.89113202 L4.38546454,4.47231935 C4.61482408,4.24378854 4.90791494,4.08915654 5.22668935,4.02849701 Z M16.3125525,4.13180854 C16.6427666,4.13180854 16.8955837,4.24366895 17.0717896,4.46738977 C17.247799,4.69092195 17.3356073,5.05819382 17.3356073,5.56863947 C17.3356073,6.07927376 17.247799,6.44541382 17.0717896,6.66724829 C16.8955837,6.88908276 16.6427666,7 16.3125525,7 C15.9789989,7 15.7232352,6.88908276 15.5454578,6.66724829 C15.367484,6.44541382 15.2786935,6.07927376 15.2786935,5.56863947 C15.2786935,5.05819382 15.367484,4.69092195 15.5454578,4.46738977 C15.7232352,4.24366895 15.9789989,4.13180854 16.3125525,4.13180854 Z M13.7973463,3.13204433 L14.232066,5.67276586 L14.6280872,3.13204433 L15.3981285,3.13204433 L14.6003893,6.99830229 L13.8250442,6.99830229 L13,3.13204433 L13.7973463,3.13204433 Z M19.1074343,3.13204433 L18.1943854,5.63560481 L18.634409,5.63560481 L18.634409,4.80108465 L19.3219458,4.80108465 L19.3219458,5.63560481 L19.6354626,5.63560481 L19.6354626,6.29582646 L19.3219458,6.29582646 L19.3219458,6.99830229 L18.6124078,6.99830229 L18.6124078,6.29582646 L17.4298445,6.29582646 L17.4298445,5.70426786 L18.3593943,3.13204433 L19.1074343,3.13204433 Z M21.0152508,3 C21.2975338,3 21.517742,3.07130394 21.6752862,3.21391181 C21.8330268,3.35633105 21.9373359,3.57212921 21.988803,3.86074039 L21.3012661,4.16180146 C21.264532,3.98938929 21.2224941,3.86960622 21.1745629,3.80282952 C21.1270247,3.73586418 21.0665214,3.7022872 20.9932496,3.7022872 C20.7182349,3.7022872 20.5807275,4.13369488 20.5807275,4.99651026 C20.5807275,5.44357463 20.6164795,5.77104456 20.6879833,5.97892007 C20.7594871,6.18660693 20.8685108,6.29035605 21.0152508,6.29035605 C21.1399896,6.29035605 21.2240656,6.22697477 21.2682644,6.10021221 L21.2682644,5.39245461 L20.8997446,5.39245461 L20.8997446,4.72695119 L22,4.72695119 L22,6.32204669 C21.9412647,6.53690167 21.8237941,6.70327753 21.6477847,6.82136289 C21.4717753,6.93925961 21.2480311,6.99811365 20.9767488,6.99811365 C20.6027287,6.99811365 20.3112131,6.85041264 20.1020055,6.55444471 C19.8931907,6.25866541 19.7886851,5.73935393 19.7886851,4.99651026 C19.7886851,4.25347795 19.898691,3.73492101 20.1185063,3.44102806 C20.3387146,3.14694647 20.6374984,3 21.0152508,3 Z M16.3070522,4.78693704 C16.2117792,4.78693704 16.1440077,4.84597972 16.1037377,4.96387644 C16.0632712,5.0819618 16.043038,5.28342372 16.043038,5.56863947 C16.043038,5.8504598 16.0632712,6.05097854 16.1037377,6.17076161 C16.1440077,6.29054468 16.2117792,6.3503419 16.3070522,6.3503419 C16.3950569,6.3503419 16.4600782,6.29054468 16.5023126,6.17076161 C16.544547,6.05097854 16.5657625,5.8504598 16.5657625,5.56863947 C16.5657625,5.28681915 16.5455292,5.0863004 16.5050628,4.96651733 C16.4647928,4.84673426 16.3987892,4.78693704 16.3070522,4.78693704 Z" id="_形状结合" fill="#000000"/>
    </g>
</svg>