<?xml version="1.0" encoding="UTF-8"?>
<svg xmlns="http://www.w3.org/2000/svg" xmlns:xlink="http://www.w3.org/1999/xlink" width="24" height="24" viewBox="0 0 24 24" version="1.1">
    <title>ic_Call HD</title>
    <g id="_ic_Call-HD" stroke="none" stroke-width="1" fill="none" fill-rule="evenodd">
        <path d="M5.22668935,4.02849701 C5.82220791,3.9143656 6.43188649,4.14937707 6.81081658,4.62019396 L6.81081658,4.62019396 L8.03735347,6.14141685 C8.1137378,6.23669177 8.19151819,6.33196669 8.27328732,6.42327182 C8.7731288,6.98620362 8.74799617,7.83865126 8.21584949,8.37144544 L8.21584949,8.37144544 L7.34570633,9.19219918 C7.0000426,9.53701869 6.93833796,10.0732799 7.19672697,10.4869456 C8.17177394,12.055409 10.8037426,14.6863862 12.5061359,15.7302421 C12.9209948,15.9838764 13.4565626,15.9208006 13.8004813,15.5778022 L13.8004813,15.5778022 L14.5942402,14.8064723 C15.1183565,14.2880601 15.9527521,14.2516889 16.5204017,14.7225113 C16.6131398,14.7999222 16.7060774,14.8771346 16.8026049,14.9497817 L16.8026049,14.9497817 L18.5243436,16.247307 C19.1585521,16.8821603 19.1585521,17.9075869 18.5243436,18.5424401 L18.5243436,18.5424401 L18.0257513,19.0386637 C17.250939,19.809795 16.1396767,20.1525863 15.0655096,19.9362328 C10.4292001,19.0023401 4.16967382,12.6101869 3.08254332,7.93020347 C2.8306219,6.83357538 3.16396533,5.68512993 3.9646527,4.89113202 L3.9646527,4.89113202 L4.38546454,4.47231935 C4.61482408,4.24378854 4.90791494,4.08915654 5.22668935,4.02849701 Z M18.5553846,3 L18.74606,3.00927672 C18.99422,3.03401464 19.2180846,3.10822842 19.4176538,3.23191803 C19.6671154,3.38653005 19.8605385,3.61215574 19.9979231,3.90879508 C20.1353077,4.20543443 20.204,4.55870492 20.204,4.96860656 C20.204,5.38210383 20.1353077,5.73717213 19.9979231,6.03381148 C19.8605385,6.33045082 19.6671154,6.55697541 19.4176538,6.71338525 C19.1681923,6.86979508 18.8807692,6.948 18.5553846,6.948 L18.5553846,6.948 L17.384,6.948 L17.384,3 L18.5553846,3 Z M14.7498266,3 L14.7498266,4.5694918 L16.0701734,4.5694918 L16.0701734,3 L16.82,3 L16.82,6.948 L16.0701734,6.948 L16.0701734,5.23288525 L14.7498266,5.23288525 L14.7498266,6.948 L14,6.948 L14,3 L14.7498266,3 Z M18.4686154,3.64181967 L18.1323846,3.64181967 L18.1323846,6.30078689 L18.4686154,6.30078689 C18.7867692,6.30078689 19.0226731,6.1884235 19.1763269,5.96369672 C19.3299808,5.73896995 19.4068077,5.40727322 19.4068077,4.96860656 C19.4068077,4.53353552 19.3290769,4.20363661 19.1736154,3.97890984 C19.0181538,3.75418306 18.7831538,3.64181967 18.4686154,3.64181967 L18.4686154,3.64181967 Z" id="_形状结合" fill="#000000"/>
    </g>
</svg>