<?xml version="1.0" encoding="UTF-8"?>
<svg xmlns="http://www.w3.org/2000/svg" xmlns:xlink="http://www.w3.org/1999/xlink" width="24" height="24" viewBox="0 0 19 12" version="1.1">
    <title>ic_contacts_calllog_voz4g</title>
    <g id="_ic_contacts_calllog_voz4g" stroke="none" stroke-width="1" fill="none" fill-rule="evenodd">
        <path d="M16.472,1 C17.5920335,1 18.5,1.90796653 18.5,3.028 L18.5,8.972 C18.5,10.0920335 17.5920335,11 16.472,11 L2.528,11 C1.40796653,11 0.5,10.0920335 0.5,8.972 L0.5,3.028 C0.5,1.90796653 1.40796653,1 2.528,1 L16.472,1 Z M6.24594581,4.55301423 C5.74975039,4.55301423 5.36927546,4.73944824 5.10481324,5.11231628 C4.8400588,5.48486992 4.7079738,6.0969897 4.7079738,6.94773245 C4.7079738,7.79878959 4.8400588,8.40902303 5.10481324,8.77874715 C5.36927546,9.14847127 5.74975039,9.33333333 6.24594581,9.33333333 C6.73717342,9.33333333 7.113265,9.14847127 7.37538943,8.77874715 C7.63722164,8.40902303 7.76784552,7.79878959 7.76784552,6.94773245 C7.76784552,6.0969897 7.63722164,5.48486992 7.37538943,5.11231628 C7.113265,4.73944824 6.73717342,4.55301423 6.24594581,4.55301423 Z M10.5913377,4.77308811 L8.16938976,4.78220545 L8.16938976,5.82975713 L9.30672341,5.82975713 L8.06302042,8.58476774 L8.06302042,9.33301894 L10.6813425,9.33301894 L10.6813425,8.28546726 L9.33945244,8.28546726 L10.5913377,5.51285074 L10.5913377,4.77308811 Z M2.50431679,2.88674055 L1.31818182,2.88674055 L2.5455203,9.33050381 L3.69892624,9.33050381 L4.88564566,2.88674055 L3.74012975,2.88674055 L3.15100728,7.12127643 L2.50431679,2.88674055 Z M13.3788279,2.88674055 L12.266041,2.88674055 L10.8832397,7.17377977 L10.8832397,8.15971076 L12.6424248,8.15971076 L12.6424248,9.33050381 L13.6979359,9.33050381 L13.6979359,8.15971076 L14.1643245,8.15971076 L14.1643245,7.05934135 L13.6979359,7.05934135 L13.6979359,5.66847442 L12.6751539,5.66847442 L12.6751539,7.05934135 L12.0205733,7.05934135 L13.3788279,2.88674055 Z M16.216902,2.66666667 C15.6549564,2.66666667 15.2104845,2.91157746 14.882902,3.40171343 C14.555904,3.89153502 14.3922588,4.75579659 14.3922588,5.99418376 C14.3922588,7.23225654 14.5477217,8.09777568 14.8583552,8.59074118 C15.1695732,9.08402106 15.6032328,9.33018942 16.1596262,9.33018942 C16.5631868,9.33018942 16.8960293,9.23209935 17.1578615,9.03560481 C17.4196937,8.83879588 17.5944434,8.56150279 17.6818182,8.20341115 L17.6818182,8.20341115 L17.6818182,5.54491865 L16.0450747,5.54491865 L16.0450747,6.65409102 L16.5932858,6.65409102 L16.5932858,7.83368702 C16.5275356,8.04495795 16.4024639,8.15059341 16.216902,8.15059341 C15.9986111,8.15059341 15.8364271,7.97767822 15.7300578,7.63153344 C15.6236884,7.28507427 15.5705038,6.73929105 15.5705038,5.99418376 C15.5705038,4.55615814 15.7750602,3.83714533 16.184173,3.83714533 C16.2931724,3.83714533 16.3831772,3.89310697 16.4538953,4.00471587 C16.5251978,4.11601037 16.5877336,4.31564882 16.6423794,4.60300244 L16.6423794,4.60300244 L17.6651614,4.10123399 C17.5885989,3.62021536 17.4334283,3.26055176 17.1987728,3.02318636 C16.9644096,2.78550656 16.6368271,2.66666667 16.216902,2.66666667 Z M6.23776355,5.64489507 C6.3742319,5.64489507 6.47241898,5.7445571 6.53232478,5.94419555 C6.59252281,6.143834 6.62262183,6.47803191 6.62262183,6.94773245 C6.62262183,7.417433 6.5910617,7.7516309 6.52823366,7.95126935 C6.46540561,8.1509078 6.36867965,8.25056983 6.23776355,8.25056983 C6.09603518,8.25056983 5.99521809,8.1509078 5.93531228,7.95126935 C5.87511425,7.7516309 5.84501524,7.417433 5.84501524,6.94773245 C5.84501524,6.47237287 5.87511425,6.136603 5.93531228,5.93979407 C5.99521809,5.74329954 6.09603518,5.64489507 6.23776355,5.64489507 Z" id="_形状结合" fill="#000000"/>
    </g>
</svg>