<?xml version="1.0" encoding="UTF-8"?>
<svg xmlns="http://www.w3.org/2000/svg" xmlns:xlink="http://www.w3.org/1999/xlink" width="24" height="24" viewBox="0 0 24 24" version="1.1">
    <title>ic_Call R</title>
    <g id="_ic_Call-R" stroke="none" stroke-width="1" fill="none" fill-rule="evenodd">
        <path d="M6.22668935,4.02849701 C6.82220791,3.9143656 7.43188649,4.14937707 7.81081658,4.62019396 L7.81081658,4.62019396 L9.03735347,6.14141685 C9.1137378,6.23669177 9.19151819,6.33196669 9.27328732,6.42327182 C9.7731288,6.98620362 9.74799617,7.83865126 9.21584949,8.37144544 L9.21584949,8.37144544 L8.34570633,9.19219918 C8.0000426,9.53701869 7.93833796,10.0732799 8.19672697,10.4869456 C9.17177394,12.055409 11.8037426,14.6863862 13.5061359,15.7302421 C13.9209948,15.9838764 14.4565626,15.9208006 14.8004813,15.5778022 L14.8004813,15.5778022 L15.5942402,14.8064723 C16.1183565,14.2880601 16.9527521,14.2516889 17.5204017,14.7225113 C17.6131398,14.7999222 17.7060774,14.8771346 17.8026049,14.9497817 L17.8026049,14.9497817 L19.5243436,16.247307 C20.1585521,16.8821603 20.1585521,17.9075869 19.5243436,18.5424401 L19.5243436,18.5424401 L19.0257513,19.0386637 C18.250939,19.809795 17.1396767,20.1525863 16.0655096,19.9362328 C11.4292001,19.0023401 5.16967382,12.6101869 4.08254332,7.93020347 C3.8306219,6.83357538 4.16396533,5.68512993 4.9646527,4.89113202 L4.9646527,4.89113202 L5.38546454,4.47231935 C5.61482408,4.24378854 5.90791494,4.08915654 6.22668935,4.02849701 Z M17.8888889,3 C18.1851852,3 18.412037,3.11046058 18.5694444,3.33079625 C18.7268519,3.55132709 18.8055556,3.85811866 18.8055556,4.25136612 C18.8055556,4.49921936 18.7746362,4.71428571 18.712963,4.89637002 C18.6511243,5.07864949 18.5586971,5.22053084 18.4353505,5.32259953 L19,7 L18.2638889,7 L17.8009259,5.51385636 L17.6481481,5.51385636 L17.6481481,7 L17,7 L17,3 L17.8888889,3 Z M17.7731481,3.71057767 L17.6481481,3.71057767 L17.6481481,4.79781421 L17.7731481,4.79781421 C17.8905423,4.79781421 17.9766865,4.75351288 18.0324074,4.66412959 C18.087963,4.57494145 18.1157407,4.43735363 18.1157407,4.25136612 C18.1157407,3.89090554 18.0016534,3.71057767 17.7731481,3.71057767 Z" id="_形状结合" fill="#000000"/>
    </g>
</svg>