<?xml version="1.0" encoding="UTF-8"?>
<svg xmlns="http://www.w3.org/2000/svg" xmlns:xlink="http://www.w3.org/1999/xlink" width="24" height="24" viewBox="0 0 24 24" version="1.1">
    <title>ic_contact_call_1_hd_dial</title>
    <g id="_ic_contact_call_1_hd_dial" stroke="none" stroke-width="1" fill="none" fill-rule="evenodd">
        <path d="M15.0769231,16 L15.2901142,16.006425 C15.7801983,16.0364085 16.21875,16.1713342 16.6057692,16.4112022 C17.0480769,16.685337 17.3910256,17.0853825 17.6346154,17.6113388 C17.8782051,18.1372951 18,18.7636612 18,19.4904372 C18,20.2235883 17.8782051,20.8531421 17.6346154,21.3790984 C17.3910256,21.9050546 17.0480769,22.306694 16.6057692,22.5840164 C16.1634615,22.8613388 15.6538462,23 15.0769231,23 L15.0769231,23 L13,23 L13,16 L15.0769231,16 Z M8.32947977,16 L8.32947977,18.7827869 L10.6705202,18.7827869 L10.6705202,16 L12,16 L12,23 L10.6705202,23 L10.6705202,19.9590164 L8.32947977,19.9590164 L8.32947977,23 L7,23 L7,16 L8.32947977,16 Z M14.9230769,17.1379781 L14.3269231,17.1379781 L14.3269231,21.852459 L14.9230769,21.852459 C15.4871795,21.852459 15.9054487,21.6532332 16.1778846,21.2547814 C16.4503205,20.8563297 16.5865385,20.2682149 16.5865385,19.4904372 C16.5865385,18.7190346 16.4487179,18.1341075 16.1730769,17.7356557 C15.8974359,17.337204 15.4807692,17.1379781 14.9230769,17.1379781 L14.9230769,17.1379781 Z M6.94835318,1.02493489 C7.46943192,0.925069898 8.00290068,1.13070493 8.33446451,1.54266972 L8.33446451,1.54266972 L9.40768429,2.87373974 C9.47452058,2.9571053 9.54257842,3.04047085 9.6141264,3.12036284 C10.0514877,3.61292816 10.0294966,4.35881985 9.5638683,4.82501476 L9.5638683,4.82501476 L8.80249304,5.54317428 C8.50003727,5.84489135 8.44604572,6.31411995 8.6721361,6.67607744 C9.52530219,8.04848289 11.8282748,10.350588 13.3178689,11.2639618 C13.6808704,11.4858918 14.1494923,11.4307005 14.4504212,11.1305769 L14.4504212,11.1305769 L15.1449602,10.4556633 C15.603562,10.0020525 16.3336581,9.97022779 16.8303515,10.3821974 C16.9114974,10.4499319 16.9928177,10.5174927 17.0772793,10.581059 L17.0772793,10.581059 L18.5838006,11.7163936 C19.1387331,12.2718902 19.1387331,13.1691385 18.5838006,13.7246351 L18.5838006,13.7246351 L18.1475324,14.1588307 C17.4695716,14.8335707 16.4972171,15.133513 15.5573209,14.9442037 C11.5005501,14.1270476 6.02346459,8.53391357 5.07222541,4.43892804 C4.85179416,3.47937846 5.14346966,2.47448869 5.84407111,1.77974051 L5.84407111,1.77974051 L6.21228147,1.41327943 C6.41297107,1.21331498 6.66942558,1.07801198 6.94835318,1.02493489 Z M17.5,1 L17.5,7 L16.4283019,7 L16.4283019,2.45081967 L15.5,3.18032787 L15.5,1.8852459 L16.6169811,1 L17.5,1 Z" id="_形状结合" fill="#000000"/>
    </g>
</svg>