<?xml version="1.0" encoding="UTF-8"?>
<svg xmlns="http://www.w3.org/2000/svg" xmlns:xlink="http://www.w3.org/1999/xlink" width="24" height="24" viewBox="0 0 24 24" version="1.1">
    <title>ic_contacts_calllog_doubleline_1</title>
    <g id="_ic_contacts_calllog_doubleline_1" stroke="none" stroke-width="1" fill="none" fill-rule="evenodd">
        <path d="M17.9050445,13 L17.9050445,14.3883685 L15.6735905,14.3883685 L15.6735905,16.246292 L17.6913947,16.246292 L17.6913947,17.6233411 L15.6735905,17.6233411 L15.6735905,19.6124122 L18,19.6124122 L18,21 L14,21 L14,13 L17.9050445,13 Z M6.70392749,13 L6.70392749,19.568306 L9,19.568306 L9,21 L5,21 L5,13 L6.70392749,13 Z M13,13 L13,14.4211553 L11.7135678,14.4211553 L11.7135678,21 L10.2864322,21 L10.2864322,14.4211553 L9,14.4211553 L9,13 L13,13 Z M5.66243447,3 L6.56880734,8.25722092 L7.39449541,3 L9,3 L7.3367464,11 L5.72018349,11 L4,3 L5.66243447,3 Z M11.5131315,5 C12.3158247,5 12.9303791,5.23400197 13.358705,5.70200592 C13.7865533,6.16961526 14,6.93791516 14,8.0057218 C14,9.07392305 13.7865533,9.83985531 13.358705,10.3039132 C12.9303791,10.7679711 12.3158247,11 11.5131315,11 C10.7023207,11 10.0806036,10.7679711 9.64845764,10.3039132 C9.21583421,9.83985531 9,9.07392305 9,8.0057218 C9,6.93791516 9.21583421,6.16961526 9.64845764,5.70200592 C10.0806036,5.23400197 10.7023207,5 11.5131315,5 Z M11.4997612,6.37047024 C11.2681692,6.37047024 11.1034285,6.49398224 11.0055391,6.74061164 C10.9071722,6.98763565 10.8579887,7.40907596 10.8579887,8.0057218 C10.8579887,8.59526472 10.9071722,9.014732 11.0055391,9.26530746 C11.1034285,9.51588293 11.2681692,9.64097336 11.4997612,9.64097336 C11.7136854,9.64097336 11.871741,9.51588293 11.9744055,9.26530746 C12.07707,9.014732 12.128641,8.59526472 12.128641,8.0057218 C12.128641,7.41617889 12.0794575,6.99671161 11.9810906,6.74613614 C11.8832012,6.49556067 11.7227581,6.37047024 11.4997612,6.37047024 Z" id="_形状结合" fill="#000000"/>
    </g>
</svg>