<?xml version="1.0" encoding="UTF-8"?>
<svg xmlns="http://www.w3.org/2000/svg" xmlns:xlink="http://www.w3.org/1999/xlink" width="24" height="24" viewBox="0 0 20 12" version="1.1">
    <title>ic_contacts_calllog_vowifi_default</title>
    <g id="_ic_contacts_calllog_vowifi_default" stroke="none" stroke-width="1" fill="none" fill-rule="evenodd">
        <path d="M17.38,1 C18.2747013,1 19,1.72529871 19,2.62 L19,9.38 C19,10.2747013 18.2747013,11 17.38,11 L2.62,11 C1.72529871,11 1,10.2747013 1,9.38 L1,2.62 C1,1.72529871 1.72529871,1 2.62,1 L17.38,1 Z M6.28618426,4.88062366 C5.86459236,4.88062366 5.54132225,5.02178053 5.31662222,5.30409426 C5.09167389,5.58616996 4.97944802,6.04963104 4.97944802,6.69376339 C4.97944802,7.33813378 5.09167389,7.80016663 5.31662222,8.08009998 C5.54132225,8.36003333 5.86459236,8.5 6.28618426,8.5 C6.70355527,8.5 7.02310107,8.36003333 7.24581481,8.08009998 C7.46828026,7.80016663 7.5792647,7.33813378 7.5792647,6.69376339 C7.5792647,6.04963104 7.46828026,5.58616996 7.24581481,5.30409426 C7.02310107,5.02178053 6.70355527,4.88062366 6.28618426,4.88062366 Z M8.54298371,3.61425851 L7.6042093,3.61425851 L8.57749565,8.49976196 L9.37722915,8.49976196 L9.82886382,5.8537253 L10.2809951,8.49976196 L11.0735282,8.49976196 L12.0190064,3.61425851 L11.1500007,3.61425851 L10.6909174,6.60021423 L10.2045226,3.61425851 L9.48150984,3.61425851 L9.02962689,6.60021423 L8.54298371,3.61425851 Z M13.4354856,5.0462985 L12.5039116,5.0462985 L12.5039116,8.49880981 L13.4354856,8.49880981 L13.4354856,5.0462985 Z M17.9096234,5.0462985 L16.9780493,5.0462985 L16.9780493,8.49880981 L17.9096234,8.49880981 L17.9096234,5.0462985 Z M16.4139405,3.61901928 L14.1267176,3.61901928 L14.1267176,8.49785765 L15.1067077,8.49785765 L15.1067077,6.55855749 L16.2888037,6.55855749 L16.2888037,5.7185194 L15.1067077,5.7185194 L15.1067077,4.47881457 L16.4139405,4.47881457 L16.4139405,3.61901928 Z M3.00779829,3.61901928 L2,3.61901928 L3.04280681,8.49785765 L4.02279692,8.49785765 L5.03109178,3.61901928 L4.05780543,3.61901928 L3.55725816,6.82516068 L3.00779829,3.61901928 Z M6.27923221,5.70733159 C6.3951824,5.70733159 6.47860694,5.78278981 6.52950585,5.9339443 C6.58065304,6.08509879 6.60622663,6.33813378 6.60622663,6.69376339 C6.60622663,7.049393 6.5794116,7.30242799 6.52602982,7.45358248 C6.47264805,7.60473697 6.39046494,7.68019519 6.27923221,7.68019519 C6.15881286,7.68019519 6.07315373,7.60473697 6.02225482,7.45358248 C5.97110763,7.30242799 5.94553404,7.049393 5.94553404,6.69376339 C5.94553404,6.33384908 5.97110763,6.0796239 6.02225482,5.93061176 C6.07315373,5.78183766 6.15881286,5.70733159 6.27923221,5.70733159 Z M12.9696986,3.5 C12.8167536,3.5 12.6856579,3.55236848 12.576908,3.65662937 C12.4679099,3.7611283 12.413535,3.88657463 12.413535,4.03320638 C12.413535,4.17983813 12.4679099,4.30552249 12.576908,4.40978338 C12.6856579,4.51428231 12.8167536,4.56641276 12.9696986,4.56641276 C13.1223953,4.56641276 13.253491,4.51428231 13.3624892,4.40978338 C13.471239,4.30552249 13.5258622,4.17983813 13.5258622,4.03320638 C13.5258622,3.88657463 13.471239,3.7611283 13.3624892,3.65662937 C13.253491,3.55236848 13.1223953,3.5 12.9696986,3.5 Z M17.4438364,3.5 C17.2908914,3.5 17.1597957,3.55236848 17.0510458,3.65662937 C16.9420477,3.7611283 16.8876727,3.88657463 16.8876727,4.03320638 C16.8876727,4.17983813 16.9420477,4.30552249 17.0510458,4.40978338 C17.1597957,4.51428231 17.2908914,4.56641276 17.4438364,4.56641276 C17.5965331,4.56641276 17.7276288,4.51428231 17.8366269,4.40978338 C17.9453768,4.30552249 18,4.17983813 18,4.03320638 C18,3.88657463 17.9453768,3.7611283 17.8366269,3.65662937 C17.7276288,3.55236848 17.5965331,3.5 17.4438364,3.5 Z" id="_形状结合" fill="#000000"/>
    </g>
</svg>