<?xml version="1.0" encoding="UTF-8"?>
<svg xmlns="http://www.w3.org/2000/svg" xmlns:xlink="http://www.w3.org/1999/xlink" width="24" height="24" viewBox="0 0 24 24" version="1.1">
    <title>ic_Encryption dialback_filled</title>
    <defs>
        <path d="M4.78336169,2.03562126 C5.52775989,1.892957 6.28985811,2.18672133 6.76352073,2.77524245 L6.76352073,2.77524245 L8.29669184,4.67677106 C8.39217225,4.79586471 8.48939774,4.91495836 8.59160914,5.02908978 C9.216411,5.73275452 9.18499521,6.79831407 8.51981186,7.46430681 L8.51981186,7.46430681 L7.43213291,8.49024898 C7.00005324,8.92127336 6.92292245,9.59159993 7.24590871,10.1086821 C8.46471742,12.0692613 11.7546783,15.3579828 13.8826699,16.6628026 C14.4012435,16.9798455 15.0707032,16.9010007 15.5006017,16.4722527 L15.5006017,16.4722527 L16.4928002,15.5080904 C17.1479457,14.8600751 18.1909401,14.8146111 18.9005021,15.4031391 C19.0164248,15.4999027 19.1325968,15.5964182 19.2532561,15.6872271 L19.2532561,15.6872271 L21.4054295,17.3091338 C22.1981902,18.1027003 22.1981902,19.3844836 21.4054295,20.1780502 L21.4054295,20.1780502 L20.7821892,20.7983296 C19.8136738,21.7622438 18.4245958,22.1907328 17.0818869,21.920291 C11.2865001,20.7529251 3.46209228,12.7627337 2.10317915,6.91275434 C1.78827737,5.54196923 2.20495666,4.10641241 3.20581587,3.11391502 L3.20581587,3.11391502 L3.73183067,2.59039918 C4.01853009,2.30473568 4.38489368,2.11144568 4.78336169,2.03562126 Z M16.9753255,2 C17.1341439,2 17.2918568,2.0272332 17.4422891,2.08065086 L17.5900658,2.14275783 L20.1267127,3.37927281 C20.616557,3.61832686 20.9421573,4.11850843 20.9930224,4.68140904 L21,4.83633333 L21,6.69088889 C21,6.81032572 20.9955562,6.93096256 20.9870834,7.06461099 C20.8381572,9.36917542 19.3324306,11.4177663 17.3352165,11.9524332 C17.2174595,11.9839784 17.0966462,12 16.9752235,12 C16.8536844,12 16.7325143,11.9838932 16.6157823,11.9524717 C14.6952452,11.4383317 13.2680394,9.52040584 13.0369911,7.3011312 L13.016845,7.06224888 L13.0049316,6.87199627 L13.001149,6.78026366 L13.001149,6.78026366 L13,6.69088889 L13,4.842 C13,4.26777878 13.2895024,3.74027781 13.7420376,3.45929399 L13.8694034,3.38892415 L16.3606771,2.14276273 C16.5541361,2.04845623 16.763627,2 16.9753255,2 Z M17.0000269,7.00206346 L13.9043267,7.00215123 C14.0297869,8.87572255 15.2200107,10.5555701 16.8430963,10.9827778 C16.8863407,10.9942222 16.9306222,11 16.9748,11 C16.9834121,11 16.9920202,10.9997825 17.0006191,10.9993483 C16.997607,11.000615 16.9959041,10.8840529 16.9949182,10.6503136 L16.9941115,10.3379227 C16.9940555,10.29772 16.9940107,10.2556863 16.9939771,10.2118217 L16.9939771,9.76760658 L16.9940359,9.68395852 L16.9940359,9.68395852 L16.9949182,9.02152464 C16.9959041,8.46554809 16.997607,7.79239436 17.0000269,7.00206346 Z M16.9749037,3 L16.9593808,3.00103614 C16.9768921,3.00226716 16.9905941,3.00415627 17.0000269,3.00415627 L17.0000269,7.00206346 L20.099,7.002 C20.1034889,6.94544444 20.1062111,6.89469444 20.1081167,6.84383333 L20.1111111,6.69088889 L20.1111111,4.83633333 C20.1111111,4.633 20.0157968,4.44615646 19.8621315,4.33625753 L19.7806074,4.288 L17.2009778,3.05166667 C17.1290074,3.01711111 17.0519556,3 16.9749037,3 Z" id="_path-1"/>
    </defs>
    <g id="_ic_Encryption-dialback_filled" stroke="none" stroke-width="1" fill="none" fill-rule="evenodd">
        <mask id="_mask-2" fill="white">
            <use xlink:href="#_path-1"/>
        </mask>
        <use id="_形状结合" fill="#000000" xlink:href="#_path-1"/>
    </g>
</svg>