<?xml version="1.0" encoding="UTF-8"?>
<svg xmlns="http://www.w3.org/2000/svg" xmlns:xlink="http://www.w3.org/1999/xlink" width="24" height="24" viewBox="0 0 24 24" version="1.1">
    <title>ic_Call 2 Dial_line</title>
    <defs>
        <path d="M5.248962,2.14581487 C6.19783903,1.96416594 7.17322347,2.33175513 7.78107494,3.08725607 C7.92200627,3.26242016 8.07633397,3.45389272 8.23223777,3.64704688 L8.23223777,3.64704688 L9.3587796,5.03591264 L9.47008279,5.167393 C10.2374768,6.08246659 10.2053067,7.42806041 9.37964007,8.31482875 L9.37964007,8.31482875 L9.33914385,8.35681763 L9.31396885,8.38171655 L8.33652313,9.30343477 C8.18961264,9.44992031 8.16353902,9.67644831 8.27397505,9.85321364 C8.76002696,10.6351338 9.68101351,11.7271684 10.7661357,12.8158428 L10.7661357,12.8158428 L10.9852683,13.0334399 C12.1353644,14.2037708 13.3222557,15.2170891 14.1577582,15.7364508 C14.3330746,15.8459839 14.5596026,15.8199102 14.691639,15.6878975 L14.691639,15.6878975 L15.6278063,14.695554 L15.6527052,14.670379 L15.704312,14.6207694 C16.5981939,13.7886376 17.9779968,13.7711146 18.8960284,14.5860212 L18.8960284,14.5860212 L20.9222668,16.2284479 C21.6777677,16.8362994 22.0453569,17.8116839 21.863708,18.7605609 C21.7410372,19.4013547 21.3232937,20.0125363 20.6417826,20.6194113 L20.6417826,20.6194113 L20.6580605,20.6042242 L20.6082636,20.6538379 C19.5455408,21.681154 18.0455745,22.1165169 16.5991801,21.8160531 L16.5991801,21.8160531 L16.5069346,21.7958739 C13.7863017,21.1638206 10.5382577,19.0922915 7.71079392,16.2933966 C4.91723973,13.4712736 2.84570426,10.2232299 2.21324887,7.50085665 C1.86768744,5.99725358 2.32483567,4.42233995 3.42206088,3.3340245 L3.42206088,3.3340245 L3.40500863,3.35152585 L3.46295888,3.28722699 C4.02163811,2.67969617 4.58481912,2.29647814 5.17220725,2.16194972 L5.17220725,2.16194972 Z M6.61238014,4.02754988 C6.34935194,3.70063113 5.93015246,3.54264911 5.53099414,3.61906226 C5.26613202,3.66976633 4.91747789,3.90807193 4.51033759,4.36528407 L4.51033759,4.36528407 L4.41693762,4.46176796 C3.73236923,5.18188065 3.45242729,6.19582408 3.67473827,7.16315029 C4.23509995,9.57519147 6.16220291,12.5967737 8.7714403,15.2327501 C11.4127574,17.8473281 14.4343391,19.7744247 16.844641,20.3343845 C17.8421496,20.5636342 18.8873263,20.260252 19.6105231,19.5311346 L19.6105231,19.5311346 L19.6442388,19.4991853 C20.1014509,19.092045 20.3397566,18.7433909 20.3904606,18.4785287 C20.4668738,18.0793704 20.3088918,17.6601709 19.981973,17.3971427 C19.2572673,16.8140681 18.3922561,16.1144041 18.0454137,15.8290228 L18.0454137,15.8290228 L17.8609701,15.674668 C17.5249701,15.4073958 17.0433508,15.4235862 16.7359899,15.7095601 L16.7359899,15.7095601 L16.7060407,15.7382689 L15.7682834,16.7321225 C15.1435121,17.3587064 14.1787396,17.4829592 13.4195885,17.0427028 L13.4195885,17.0427028 L13.3644158,17.0094806 C12.4742794,16.45616 11.3045201,15.4708 10.1608071,14.3318132 L10.1608071,14.3318132 L9.92464876,14.09406 C8.67668241,12.867672 7.59151914,11.5966262 7.00094523,10.646556 C6.52080142,9.8780476 6.635534,8.88124912 7.29229807,8.22679031 L7.29229807,8.22679031 L8.27149427,7.30301532 L8.29084937,7.28315087 C8.58561124,6.96651558 8.60211542,6.48456509 8.33690757,6.15085543 L8.33690757,6.15085543 L8.02859877,5.77849596 Z M17.9976431,2 C18.5932055,2 19.038515,2.16798504 19.3327929,2.50433865 C19.6270708,2.84107579 19.7742098,3.29210413 19.7742098,3.85742365 C19.7742098,4.25130639 19.6959692,4.65247615 19.5398774,5.06016588 C19.3833963,5.46862266 19.1019638,6.06270675 18.6951907,6.8431852 L17.757861,8.62543746 L19.905,8.62543746 L19.905,10 L15.905,10 L15.905,8.85095163 L17.3654905,6.19847548 C17.6776742,5.62586893 17.8886512,5.19631814 17.9976431,4.9098231 C18.1066349,4.62332806 18.1611308,4.33721655 18.1611308,4.05072151 C18.1611308,3.83632964 18.1354399,3.67869984 18.0848365,3.57821564 C18.0338439,3.47811496 17.9540463,3.42787286 17.8450545,3.42787286 C17.6924659,3.42787286 17.5686824,3.52989117 17.474093,3.7339278 C17.379893,3.93796443 17.2926995,4.26933218 17.2129019,4.72726401 L15.9376975,4.0296275 C16.1770903,2.67615897 16.8641281,2 17.9976431,2 Z" id="_path-1"/>
    </defs>
    <g id="_ic_Call-2-Dial_line" stroke="none" stroke-width="1" fill="none" fill-rule="evenodd">
        <mask id="_mask-2" fill="white">
            <use xlink:href="#_path-1"/>
        </mask>
        <use id="_形状结合" fill="#000000" fill-rule="nonzero" xlink:href="#_path-1"/>
    </g>
</svg>