<?xml version="1.0" encoding="UTF-8"?>
<svg xmlns="http://www.w3.org/2000/svg" xmlns:xlink="http://www.w3.org/1999/xlink" width="24" height="24" viewBox="0 0 19 12" version="1.1">
    <title>ic_contacts_calllog_vowifi</title>
    <g id="_ic_contacts_calllog_vowifi" stroke="none" stroke-width="1" fill="none" fill-rule="evenodd">
        <path d="M16.472,1 C17.5920335,1 18.5,1.90796653 18.5,3.028 L18.5,8.972 C18.5,10.0920335 17.5920335,11 16.472,11 L2.528,11 C1.40796653,11 0.5,10.0920335 0.5,8.972 L0.5,3.028 C0.5,1.90796653 1.40796653,1 2.528,1 L16.472,1 Z M2.88089214,2.78060714 L1.78710286,2.78060714 L2.92110286,9.37760714 L3.85289214,9.37760714 L4.37910286,5.80460714 L4.90589214,9.37760714 L5.82929214,9.37760714 L6.93089214,2.78060714 L5.91839214,2.78060714 L5.38350286,6.81260714 L4.81679214,2.78060714 L3.97439214,2.78060714 L3.44789214,6.81260714 L2.88089214,2.78060714 Z M8.60291623,4.71432143 L7.49778169,4.71432143 L7.49778169,9.37632143 L8.60291623,9.37632143 L8.60291623,4.71432143 Z M17.1312777,4.71432143 L16.0261431,4.71432143 L16.0261431,9.37632143 L17.1312777,9.37632143 L17.1312777,4.71432143 Z M15.4595429,2.78703571 L12.7946429,2.78703571 L12.7946429,9.37503571 L13.9364536,9.37503571 L13.9364536,6.75635714 L15.3137429,6.75635714 L15.3137429,5.62203571 L13.9364536,5.62203571 L13.9364536,3.94803571 L15.4595429,3.94803571 L15.4595429,2.78703571 Z M12.1302243,5.55132143 L9.27092429,5.55132143 L9.27092429,6.75846429 L12.1302243,6.75846429 L12.1302243,5.55132143 Z M8.05034896,2.62632143 C7.86890896,2.62632143 7.71338896,2.69703571 7.58437805,2.83782143 C7.4550726,2.97892857 7.39056714,3.14832143 7.39056714,3.34632143 C7.39056714,3.54432143 7.4550726,3.71403571 7.58437805,3.85482143 C7.71338896,3.99592857 7.86890896,4.06632143 8.05034896,4.06632143 C8.23149442,4.06632143 8.38701442,3.99592857 8.51631987,3.85482143 C8.64533078,3.71403571 8.71013078,3.54432143 8.71013078,3.34632143 C8.71013078,3.14832143 8.64533078,2.97892857 8.51631987,2.83782143 C8.38701442,2.69703571 8.23149442,2.62632143 8.05034896,2.62632143 Z M16.5787104,2.62632143 C16.3972704,2.62632143 16.2417504,2.69703571 16.1127395,2.83782143 C15.983434,2.97892857 15.9189286,3.14832143 15.9189286,3.34632143 C15.9189286,3.54432143 15.983434,3.71403571 16.1127395,3.85482143 C16.2417504,3.99592857 16.3972704,4.06632143 16.5787104,4.06632143 C16.7598558,4.06632143 16.9153758,3.99592857 17.0446813,3.85482143 C17.1736922,3.71403571 17.2384922,3.54432143 17.2384922,3.34632143 C17.2384922,3.14832143 17.1736922,2.97892857 17.0446813,2.83782143 C16.9153758,2.69703571 16.7598558,2.62632143 16.5787104,2.62632143 Z" id="_形状结合" fill="#000000"/>
    </g>
</svg>