<?xml version="1.0" encoding="UTF-8"?>
<svg xmlns="http://www.w3.org/2000/svg" xmlns:xlink="http://www.w3.org/1999/xlink" width="24" height="24" viewBox="0 0 24 24" version="1.1">
    <title>ic_contacts_calllog_doubleline_4</title>
    <g id="_ic_contacts_calllog_doubleline_4" stroke="none" stroke-width="1" fill="none" fill-rule="evenodd">
        <path d="M5.47695313,13.1828136 L6.24257813,17.9603428 L6.95351563,13.1828136 L8.09101563,13.1828136 L8.85625,17.9603428 L9.57851563,13.1828136 L10.9457031,13.1828136 L9.45820313,20.9996191 L8.21132813,20.9996191 L7.5,16.7659605 L6.78945313,20.9996191 L5.53125,20.9996191 L4,13.1828136 L5.47695313,13.1828136 Z M13.1742188,15.4740776 L13.1742188,20.9980957 L11.7085938,20.9980957 L11.7085938,15.4740776 L13.1742188,15.4740776 Z M20.2132813,15.4740776 L20.2132813,20.9980957 L18.7476563,20.9980957 L18.7476563,15.4740776 L20.2132813,15.4740776 Z M17.8601563,13.1904308 L17.8601563,14.5661033 L15.8035156,14.5661033 L15.8035156,16.549631 L17.6632813,16.549631 L17.6632813,17.893692 L15.8035156,17.893692 L15.8035156,20.9965722 L14.2617188,20.9965722 L14.2617188,13.1904308 L17.8601563,13.1904308 Z M12.4414063,13 C12.6816406,13 12.8878906,13.0837896 13.059375,13.250607 C13.2304688,13.4178053 13.3164063,13.6185194 13.3164063,13.8531302 C13.3164063,14.087741 13.2304688,14.288836 13.059375,14.4556534 C12.8878906,14.6228517 12.6816406,14.7062604 12.4414063,14.7062604 C12.2007813,14.7062604 11.9945313,14.6228517 11.8234375,14.4556534 C11.6519531,14.288836 11.5664063,14.087741 11.5664063,13.8531302 C11.5664063,13.6185194 11.6519531,13.4178053 11.8234375,13.250607 C11.9945313,13.0837896 12.2007813,13 12.4414063,13 Z M19.4804688,13 C19.7207031,13 19.9269531,13.0837896 20.0984375,13.250607 C20.2695313,13.4178053 20.3554688,13.6185194 20.3554688,13.8531302 C20.3554688,14.087741 20.2695313,14.288836 20.0984375,14.4556534 C19.9269531,14.6228517 19.7207031,14.7062604 19.4804688,14.7062604 C19.2398437,14.7062604 19.0335938,14.6228517 18.8625,14.4556534 C18.6910156,14.288836 18.6054688,14.087741 18.6054688,13.8531302 C18.6054688,13.6185194 18.6910156,13.4178053 18.8625,13.250607 C19.0335938,13.0837896 19.2398437,13 19.4804688,13 Z M11.6696452,4.96363636 C12.3618217,4.96363636 12.8917629,5.20622727 13.2611158,5.69140909 C13.630057,6.17618182 13.8141158,6.97268182 13.8141158,8.07968182 C13.8141158,9.18709091 13.630057,9.98113636 13.2611158,10.4622273 C12.8917629,10.9433182 12.3618217,11.1838636 11.6696452,11.1838636 C10.9704688,11.1838636 10.4343511,10.9433182 10.061704,10.4622273 C9.68864522,9.98113636 9.50252757,9.18709091 9.50252757,8.07968182 C9.50252757,6.97268182 9.68864522,6.17618182 10.061704,5.69140909 C10.4343511,5.20622727 10.9704688,4.96363636 11.6696452,4.96363636 Z M18.2286452,5.25 L18.2286452,6.21259091 L16.4646452,9.82036364 L18.3554688,9.82036364 L18.3554688,11.1834545 L14.666057,11.1834545 L14.666057,10.2098182 L16.4185276,6.62495455 L14.8159393,6.62495455 L14.8159393,5.26186364 L18.2286452,5.25 Z M5.98637521,3 L6.87555875,8.37670321 L7.68558768,3 L9.26064393,3 L7.62893387,11.1818182 L6.04302902,11.1818182 L4.35546875,3 L5.98637521,3 Z M11.6581158,6.38440909 C11.4584099,6.38440909 11.3163511,6.51245455 11.2319393,6.76813636 C11.1471158,7.02422727 11.104704,7.46113636 11.104704,8.07968182 C11.104704,8.69086364 11.1471158,9.12572727 11.2319393,9.3855 C11.3163511,9.64527273 11.4584099,9.77495455 11.6581158,9.77495455 C11.8425864,9.77495455 11.9788805,9.64527273 12.0674099,9.3855 C12.1559393,9.12572727 12.2004099,8.69086364 12.2004099,8.07968182 C12.2004099,7.4685 12.1579982,7.03363636 12.0731746,6.77386364 C11.9887629,6.51409091 11.8504099,6.38440909 11.6581158,6.38440909 Z" id="_形状结合" fill="#000000"/>
    </g>
</svg>