<?xml version="1.0" encoding="UTF-8"?>
<svg xmlns="http://www.w3.org/2000/svg" xmlns:xlink="http://www.w3.org/1999/xlink" width="24" height="24" viewBox="0 0 24 24" version="1.1">
    <title>ic_contacts_calllog_doubleline_3</title>
    <g id="_ic_contacts_calllog_doubleline_3" stroke="none" stroke-width="1" fill="none" fill-rule="evenodd">
        <path d="M17.71,13 L17.71,14.4098361 L15.4242857,14.4098361 L15.4242857,16.442623 L17.491155,16.442623 L17.491155,17.8200625 L15.4242857,17.8200625 L15.4242857,21 L13.71,21 L13.71,13 L17.71,13 Z M4.48849896,13 L5.26010911,17.8894952 L5.97660424,13 L7.12299646,13 L7.89421292,17.8894952 L8.62212474,13 L10,13 L8.50087172,21 L7.24424948,21 L6.52736067,16.6671214 L5.81125921,21 L4.54322029,21 L3,13 L4.48849896,13 Z M12.568,15.4746667 L12.568,21 L11.1386667,21 L11.1386667,15.4746667 L12.568,15.4746667 Z M20.278,15.4746667 L20.278,21 L18.8486667,21 L18.8486667,15.4746667 L20.278,15.4746667 Z M11.8533333,13 C12.087619,13 12.2887619,13.0838095 12.456,13.2506667 C12.6228571,13.4179048 12.7066667,13.6186667 12.7066667,13.8533333 C12.7066667,14.088381 12.6228571,14.2891429 12.456,14.456381 C12.2887619,14.6232381 12.087619,14.7070476 11.8533333,14.7070476 C11.6186667,14.7070476 11.4175238,14.6232381 11.2506667,14.456381 C11.0834286,14.2891429 11,14.088381 11,13.8533333 C11,13.6186667 11.0834286,13.4179048 11.2506667,13.2506667 C11.4175238,13.0838095 11.6186667,13 11.8533333,13 Z M19.5633333,13 C19.797619,13 19.9987619,13.0838095 20.166,13.2506667 C20.3328571,13.4179048 20.4166667,13.6186667 20.4166667,13.8533333 C20.4166667,14.088381 20.3328571,14.2891429 20.166,14.456381 C19.9987619,14.6232381 19.797619,14.7070476 19.5633333,14.7070476 C19.3286667,14.7070476 19.1275238,14.6232381 18.9606667,14.456381 C18.7934286,14.2891429 18.71,14.088381 18.71,13.8533333 C18.71,13.6186667 18.7934286,13.4179048 18.9606667,13.2506667 C19.1275238,13.0838095 19.3286667,13 19.5633333,13 Z M4.66243447,3 L5.56880734,8.25722092 L6.39449541,3 L8,3 L6.3367464,11 L4.72018349,11 L3,3 L4.66243447,3 Z M10.5131315,5 C11.3158247,5 11.9303791,5.23400197 12.358705,5.70200592 C12.7865533,6.16961526 13,6.93791516 13,8.0057218 C13,9.07392305 12.7865533,9.83985531 12.358705,10.3039132 C11.9303791,10.7679711 11.3158247,11 10.5131315,11 C9.7023207,11 9.08060357,10.7679711 8.64845764,10.3039132 C8.21583421,9.83985531 8,9.07392305 8,8.0057218 C8,6.93791516 8.21583421,6.16961526 8.64845764,5.70200592 C9.08060357,5.23400197 9.7023207,5 10.5131315,5 Z M10.4997612,6.37047024 C10.2681692,6.37047024 10.1034285,6.49398224 10.0055391,6.74061164 C9.90717219,6.98763565 9.85798873,7.40907596 9.85798873,8.0057218 C9.85798873,8.59526472 9.90717219,9.014732 10.0055391,9.26530746 C10.1034285,9.51588293 10.2681692,9.64097336 10.4997612,9.64097336 C10.7136854,9.64097336 10.871741,9.51588293 10.9744055,9.26530746 C11.07707,9.014732 11.128641,8.59526472 11.128641,8.0057218 C11.128641,7.41617889 11.0794575,6.99671161 10.9810906,6.74613614 C10.8832012,6.49556067 10.7227581,6.37047024 10.4997612,6.37047024 Z" id="_形状结合" fill="#000000"/>
    </g>
</svg>