<?xml version="1.0" encoding="UTF-8"?>
<svg xmlns="http://www.w3.org/2000/svg" xmlns:xlink="http://www.w3.org/1999/xlink" width="24" height="24" viewBox="0 0 24 24" version="1.1">
    <title>ic_contact_call_2_hd_dial</title>
    <g id="_ic_contact_call_2_hd_dial" stroke="none" stroke-width="1" fill="none" fill-rule="evenodd">
        <path d="M14.663146,16 C15.2723935,16 15.8105621,16.1370674 16.2776519,16.4112022 C16.7447416,16.685337 17.1069054,17.0853825 17.3641432,17.6113388 C17.6213811,18.1372951 17.75,18.7636612 17.75,19.4904372 C17.75,20.2235883 17.6213811,20.8531421 17.3641432,21.3790984 C17.1069054,21.9050546 16.7447416,22.306694 16.2776519,22.5840164 C15.8689483,22.8266735 15.405825,22.9631681 14.888282,22.9935003 L14.663146,23 L12.4698549,23 L12.4698549,16 L14.663146,16 Z M7.65126927,16 L7.65126927,18.7827869 L10.1187217,18.7827869 L10.1187217,16 L11.5199909,16 L11.5199909,23 L10.1187217,23 L10.1187217,19.9590164 L7.65126927,19.9590164 L7.65126927,23 L6.25,23 L6.25,16 L7.65126927,16 Z M14.50068,17.1379781 L13.8711242,17.1379781 L13.8711242,21.852459 L14.50068,21.852459 C15.0963886,21.852459 15.5380931,21.6532332 15.8257933,21.2547814 C16.1134935,20.8563297 16.2573436,20.2682149 16.2573436,19.4904372 C16.2573436,18.7190346 16.1118011,18.1341075 15.8207162,17.7356557 C15.5296313,17.337204 15.0896192,17.1379781 14.50068,17.1379781 Z M8.23919311,1.43550581 L8.33446451,1.54266972 L9.40768429,2.87373974 C9.47452058,2.9571053 9.54257842,3.04047085 9.6141264,3.12036284 C10.0202476,3.57774493 10.0302946,4.25355638 9.65684971,4.72102903 L9.5638683,4.82501476 L8.80249304,5.54317428 C8.50003727,5.84489135 8.44604572,6.31411995 8.6721361,6.67607744 C9.52530219,8.04848289 11.8282748,10.350588 13.3178689,11.2639618 C13.6445703,11.4636988 14.0568241,11.4389676 14.355385,11.2132338 L14.4504212,11.1305769 L15.1449602,10.4556633 C15.603562,10.0020525 16.3336581,9.97022779 16.8303515,10.3821974 L16.952572,10.4831913 L16.952572,10.4831913 L17.0772793,10.581059 L18.5838006,11.7163936 C19.1040498,12.2371717 19.1365654,13.0583174 18.6813474,13.6166415 L18.5838006,13.7246351 L18.1475324,14.1588307 C17.4695716,14.8335707 16.4972171,15.133513 15.5573209,14.9442037 C11.5005501,14.1270476 6.02346459,8.53391357 5.07222541,4.43892804 C4.86648958,3.54334843 5.10685562,2.60827248 5.70943374,1.92272004 L5.84407111,1.77974051 L6.21228147,1.41327943 C6.41297107,1.21331498 6.66942558,1.07801198 6.94835318,1.02493489 C7.42206113,0.934148533 7.90600876,1.09584154 8.23919311,1.43550581 Z M16.5694823,1 C17.0161541,1 17.3501362,1.12598878 17.5708447,1.37825399 C17.7915531,1.63080685 17.9019074,1.9690781 17.9019074,2.39306774 C17.9019074,2.68847979 17.8432269,2.98935711 17.726158,3.29512441 C17.6087972,3.60146699 17.3977228,4.04703006 17.0926431,4.6323889 L16.3896458,5.9690781 L18,5.9690781 L18,7 L15,7 L15,6.13821372 L16.0953678,4.14885661 C16.3295056,3.7194017 16.4877384,3.3972386 16.5694823,3.18236732 C16.6512262,2.96749604 16.6920981,2.75291241 16.6920981,2.53804113 C16.6920981,2.37724723 16.6728299,2.25902488 16.6348774,2.18366173 C16.5966329,2.10858622 16.5367847,2.07090465 16.4550409,2.07090465 C16.3405995,2.07090465 16.2477618,2.14741838 16.1768198,2.30044585 C16.1061697,2.45347332 16.0407746,2.70199914 15.9809264,3.04544801 L15.0245232,2.52222062 C15.2040677,1.50711923 15.719346,1 16.5694823,1 Z" id="_形状结合" fill="#000000"/>
    </g>
</svg>