<?xml version="1.0" encoding="UTF-8"?>
<svg xmlns="http://www.w3.org/2000/svg" xmlns:xlink="http://www.w3.org/1999/xlink" width="24" height="24" viewBox="0 0 24 24" version="1.1">
    <title>ic_contact_call_1_wifi_dial</title>
    <g id="_ic_contact_call_1_wifi_dial" stroke="none" stroke-width="1" fill="none" fill-rule="evenodd">
        <path d="M5.205252,16.1599695 L5.8300322,20.3405066 L6.41018524,16.1599695 L7.33843011,16.1599695 L7.96289154,20.3405066 L8.55228878,16.1599695 L9.6679677,16.1599695 L8.45410903,23 L7.43660985,23 L6.85613805,19.2953723 L6.27630377,23 L5.2495604,23 L4,16.1599695 L5.205252,16.1599695 Z M11.4865243,18.164921 L11.4865243,22.9986669 L10.2905165,22.9986669 L10.2905165,18.164921 L11.4865243,18.164921 Z M20.8839694,18.164921 L20.8839694,22.9986669 L19.6879616,22.9986669 L19.6879616,18.164921 L20.8839694,18.164921 Z M19.0657315,16.1666349 L19.0657315,17.3704056 L17.3874316,17.3704056 L17.3874316,19.106075 L18.9050737,19.106075 L18.9050737,20.2821843 L17.3874316,20.2821843 L17.3874316,22.9973338 L16.1292646,22.9973338 L16.1292646,16.1666349 L19.0657315,16.1666349 Z M15.3971384,19.0327557 L15.3971384,20.2843691 L12.2464611,20.2843691 L12.2464611,19.0327557 L15.3971384,19.0327557 Z M10.8885204,16 C11.0845612,16 11.2528693,16.0733194 11.3928073,16.2192916 C11.5324266,16.365597 11.602555,16.5412302 11.602555,16.7465245 C11.602555,16.9518187 11.5324266,17.1277852 11.3928073,17.2737574 C11.2528693,17.4200628 11.0845612,17.4930489 10.8885204,17.4930489 C10.692161,17.4930489 10.5238528,17.4200628 10.3842336,17.2737574 C10.2442956,17.1277852 10.1744859,16.9518187 10.1744859,16.7465245 C10.1744859,16.5412302 10.2442956,16.365597 10.3842336,16.2192916 C10.5238528,16.0733194 10.692161,16 10.8885204,16 Z M20.2859655,16 C20.4820062,16 20.6503143,16.0733194 20.7902524,16.2192916 C20.9298716,16.365597 21,16.5412302 21,16.7465245 C21,16.9518187 20.9298716,17.1277852 20.7902524,17.2737574 C20.6503143,17.4200628 20.4820062,17.4930489 20.2859655,17.4930489 C20.089606,17.4930489 19.9212979,17.4200628 19.7816786,17.2737574 C19.6417406,17.1277852 19.571931,16.9518187 19.571931,16.7465245 C19.571931,16.5412302 19.6417406,16.365597 19.7816786,16.2192916 C19.9212979,16.0733194 20.089606,16 20.2859655,16 Z M7.44835318,1.02493489 C7.96943192,0.925069898 8.50290068,1.13070493 8.83446451,1.54266972 L8.83446451,1.54266972 L9.90768429,2.87373974 C9.97452058,2.9571053 10.0425784,3.04047085 10.1141264,3.12036284 C10.5514877,3.61292816 10.5294966,4.35881985 10.0638683,4.82501476 L10.0638683,4.82501476 L9.30249304,5.54317428 C9.00003727,5.84489135 8.94604572,6.31411995 9.1721361,6.67607744 C10.0253022,8.04848289 12.3282748,10.350588 13.8178689,11.2639618 C14.1808704,11.4858918 14.6494923,11.4307005 14.9504212,11.1305769 L14.9504212,11.1305769 L15.6449602,10.4556633 C16.103562,10.0020525 16.8336581,9.97022779 17.3303515,10.3821974 C17.4114974,10.4499319 17.4928177,10.5174927 17.5772793,10.581059 L17.5772793,10.581059 L19.0838006,11.7163936 C19.6387331,12.2718902 19.6387331,13.1691385 19.0838006,13.7246351 L19.0838006,13.7246351 L18.6475324,14.1588307 C17.9695716,14.8335707 16.9972171,15.133513 16.0573209,14.9442037 C12.0005501,14.1270476 6.52346459,8.53391357 5.57222541,4.43892804 C5.35179416,3.47937846 5.64346966,2.47448869 6.34407111,1.77974051 L6.34407111,1.77974051 L6.71228147,1.41327943 C6.91297107,1.21331498 7.16942558,1.07801198 7.44835318,1.02493489 Z M18,1 L18,7 L16.9283019,7 L16.9283019,2.45081967 L16,3.18032787 L16,1.8852459 L17.1169811,1 L18,1 Z" id="_形状结合" fill="#000000"/>
    </g>
</svg>