<?xml version="1.0" encoding="UTF-8"?>
<svg xmlns="http://www.w3.org/2000/svg" xmlns:xlink="http://www.w3.org/1999/xlink" width="24" height="24" viewBox="0 0 24 24" version="1.1">
    <title>Public/ic_public_Community messages_filled</title>
    <defs>
        <path d="M19.2258802,6.29834327 C21.5637997,7.07476118 23.25,9.27949342 23.25,11.8780589 C23.25,15.0506402 20.7365666,17.6361776 17.5923079,17.7520633 L17.3719411,17.7561177 L16.9636062,17.7543942 C17.0005189,17.9205413 17.0536486,18.1434182 17.0816467,18.2579517 L17.0950991,18.3123501 L17.1396269,18.4841902 L17.1964861,18.6927188 C17.2925535,19.036707 17.4130604,19.430295 17.5579329,19.872855 L17.6711546,20.2139475 L17.682374,20.2497627 L17.7046882,20.347927 C17.8162321,21.0266315 17.0085197,21.5164362 16.4482854,21.0910061 L16.3700614,21.0239259 L12.978,17.756 L12.1280589,17.7561177 C11.6314841,17.7561177 11.1492911,17.6945417 10.6886989,17.5786088 L12.03225,16.27675 L12.4864822,16.2770107 C16.4980179,16.2770107 19.75,13.0250286 19.75,9.01350533 C19.75,8.13097022 19.5926041,7.2851969 19.3043517,6.50272489 L19.2258802,6.29834327 Z M12.4864947,2.75 C15.9457331,2.75 18.75,5.55426686 18.75,9.01350533 C18.75,12.4727438 15.9457331,15.2770107 12.4864947,15.2770107 L11.627,15.277 L8.03464082,18.7591013 C7.44116137,19.3342451 6.49419831,18.7943858 6.6222211,18.0344675 L6.64513346,17.9341733 L6.65701278,17.8960096 C6.86487391,17.2739719 7.03245492,16.7332092 7.15960293,16.2750283 L7.21980681,16.0528256 L7.26695392,15.8697173 C7.27878197,15.8225224 7.30723776,15.704508 7.33820715,15.5723807 L7.38478217,15.3706934 C7.39227078,15.3376775 7.39947543,15.3055517 7.40617558,15.2752019 L7.01350533,15.2770107 C3.55426686,15.2770107 0.75,12.4727438 0.75,9.01350533 C0.75,5.55426686 3.55426686,2.75 7.01350533,2.75 L12.4864947,2.75 Z" id="_path-1"/>
    </defs>
    <g id="_Public/ic_public_Community-messages_filled" stroke="none" stroke-width="1" fill="none" fill-rule="evenodd">
        <mask id="_mask-2" fill="white">
            <use xlink:href="#_path-1"/>
        </mask>
        <use id="_形状结合" fill="#000000" fill-rule="nonzero" xlink:href="#_path-1"/>
    </g>
</svg>