<?xml version="1.0" encoding="UTF-8"?>
<svg xmlns="http://www.w3.org/2000/svg" xmlns:xlink="http://www.w3.org/1999/xlink" width="24" height="24" viewBox="0 0 24 24" version="1.1">
    <title>Public/ic_public_comments_filled</title>
    <defs>
        <path d="M15.25,2.5 C19.3921356,2.5 22.75,5.85786438 22.75,10 C22.75,14.1421356 19.3921356,17.5 15.25,17.5 L14.242,17.5 L9.95109876,21.6694991 C9.23879599,22.3615105 8.10018745,21.7054723 8.26634813,20.7886077 L8.2914094,20.68172 L8.3055986,20.6360222 C8.59525694,19.7670472 8.819429,19.0305351 8.9778248,18.4289706 L8.9778248,18.4289706 L9.0341394,18.2097144 L9.0341394,18.2097144 L9.07408556,18.0448805 C9.11092949,17.8905291 9.16218799,17.6714148 9.20008134,17.4994258 L8.75,17.5 C4.60786438,17.5 1.25,14.1421356 1.25,10 C1.25,5.85786438 4.60786438,2.5 8.75,2.5 L15.25,2.5 Z M7,11.5 C7.69035594,11.5 8.25,10.9403559 8.25,10.25 C8.25,9.55964406 7.69035594,9 7,9 C6.30964406,9 5.75,9.55964406 5.75,10.25 C5.75,10.9403559 6.30964406,11.5 7,11.5 Z M12,11.5 C12.6903559,11.5 13.25,10.9403559 13.25,10.25 C13.25,9.55964406 12.6903559,9 12,9 C11.3096441,9 10.75,9.55964406 10.75,10.25 C10.75,10.9403559 11.3096441,11.5 12,11.5 Z M17,11.5 C17.6903559,11.5 18.25,10.9403559 18.25,10.25 C18.25,9.55964406 17.6903559,9 17,9 C16.3096441,9 15.75,9.55964406 15.75,10.25 C15.75,10.9403559 16.3096441,11.5 17,11.5 Z" id="_path-1"/>
    </defs>
    <g id="_Public/ic_public_comments_filled" stroke="none" stroke-width="1" fill="none" fill-rule="evenodd">
        <mask id="_mask-2" fill="white">
            <use xlink:href="#_path-1"/>
        </mask>
        <use id="_形状结合" fill="#000000" fill-rule="nonzero" xlink:href="#_path-1"/>
    </g>
</svg>