<?xml version="1.0" encoding="UTF-8"?>
<svg xmlns="http://www.w3.org/2000/svg" xmlns:xlink="http://www.w3.org/1999/xlink" width="24" height="24" viewBox="0 0 24 24" version="1.1">
    <title>ic_details voWiFI</title>
    <g id="_ic_details-voWiFI" stroke="none" stroke-width="1" fill="none" fill-rule="evenodd">
        <path d="M4.78336169,2.03562126 C5.52775989,1.892957 6.28985811,2.18672133 6.76352073,2.77524245 L6.76352073,2.77524245 L8.29669184,4.67677106 C8.39217225,4.79586471 8.48939774,4.91495836 8.59160914,5.02908978 C9.216411,5.73275452 9.18499521,6.79831407 8.51981186,7.46430681 L8.51981186,7.46430681 L7.43213291,8.49024898 C7.00005324,8.92127336 6.92292245,9.59159993 7.24590871,10.1086821 C8.46471742,12.0692613 11.7546783,15.3579828 13.8826699,16.6628026 C14.4012435,16.9798455 15.0707032,16.9010007 15.5006017,16.4722527 L15.5006017,16.4722527 L16.4928002,15.5080904 C17.1479457,14.8600751 18.1909401,14.8146111 18.9005021,15.4031391 C19.0164248,15.4999027 19.1325968,15.5964182 19.2532561,15.6872271 L19.2532561,15.6872271 L21.4054295,17.3091338 C22.1981902,18.1027003 22.1981902,19.3844836 21.4054295,20.1780502 L21.4054295,20.1780502 L20.7821892,20.7983296 C19.8136738,21.7622438 18.4245958,22.1907328 17.0818869,21.920291 C11.2865001,20.7529251 3.46209228,12.7627337 2.10317915,6.91275434 C1.78827737,5.54196923 2.20495666,4.10641241 3.20581587,3.11391502 L3.20581587,3.11391502 L3.73183067,2.59039918 C4.01853009,2.30473568 4.38489368,2.11144568 4.78336169,2.03562126 Z M20.8,2 C21.4627417,2 22,2.5372583 22,3.2 L22,6.8 C22,7.4627417 21.4627417,8 20.8,8 L12.2,8 C11.5372583,8 11,7.4627417 11,6.8 L11,3.2 C11,2.5372583 11.5372583,2 12.2,2 L20.8,2 Z M12.4549896,3.06836429 L11.7865629,3.06836429 L12.4795629,7.02656429 L13.0489896,7.02656429 L13.3705629,4.88276429 L13.6924896,7.02656429 L14.2567896,7.02656429 L14.9299896,3.06836429 L14.3112396,3.06836429 L13.9843629,5.48756429 L13.6380396,3.06836429 L13.1232396,3.06836429 L12.8014896,5.48756429 L12.4549896,3.06836429 Z M15.9517821,4.22859286 L15.2764221,4.22859286 L15.2764221,7.02579286 L15.9517821,7.02579286 L15.9517821,4.22859286 Z M21.1635586,4.22859286 L20.4881986,4.22859286 L20.4881986,7.02579286 L21.1635586,7.02579286 L21.1635586,4.22859286 Z M20.1419429,3.07222143 L18.5133929,3.07222143 L18.5133929,7.02502143 L19.2111661,7.02502143 L19.2111661,5.45381429 L20.0528429,5.45381429 L20.0528429,4.77322143 L19.2111661,4.77322143 L19.2111661,3.76882143 L20.1419429,3.76882143 L20.1419429,3.07222143 Z M18.1073593,4.73079286 L16.3600093,4.73079286 L16.3600093,5.45507857 L18.1073593,5.45507857 L18.1073593,4.73079286 Z M15.6141021,2.97579286 C15.5032221,2.97579286 15.4081821,3.01822143 15.3293421,3.10269286 C15.2503221,3.18735714 15.2109021,3.28899286 15.2109021,3.40779286 C15.2109021,3.52659286 15.2503221,3.62842143 15.3293421,3.71289286 C15.4081821,3.79755714 15.5032221,3.83979286 15.6141021,3.83979286 C15.7248021,3.83979286 15.8198421,3.79755714 15.8988621,3.71289286 C15.9777021,3.62842143 16.0173021,3.52659286 16.0173021,3.40779286 C16.0173021,3.28899286 15.9777021,3.18735714 15.8988621,3.10269286 C15.8198421,3.01822143 15.7248021,2.97579286 15.6141021,2.97579286 Z M20.8258786,2.97579286 C20.7149986,2.97579286 20.6199586,3.01822143 20.5411186,3.10269286 C20.4620986,3.18735714 20.4226786,3.28899286 20.4226786,3.40779286 C20.4226786,3.52659286 20.4620986,3.62842143 20.5411186,3.71289286 C20.6199586,3.79755714 20.7149986,3.83979286 20.8258786,3.83979286 C20.9365786,3.83979286 21.0316186,3.79755714 21.1106386,3.71289286 C21.1894786,3.62842143 21.2290786,3.52659286 21.2290786,3.40779286 C21.2290786,3.28899286 21.1894786,3.18735714 21.1106386,3.10269286 C21.0316186,3.01822143 20.9365786,2.97579286 20.8258786,2.97579286 Z" id="_形状结合" fill="#000000"/>
    </g>
</svg>