<?xml version="1.0" encoding="UTF-8"?>
<svg xmlns="http://www.w3.org/2000/svg" xmlns:xlink="http://www.w3.org/1999/xlink" width="24" height="24" viewBox="0 0 24 24" version="1.1">
    <title>ic_details Volte</title>
    <g id="_ic_details-Volte" stroke="none" stroke-width="1" fill="none" fill-rule="evenodd">
        <path d="M4.78336169,2.03562126 C5.52775989,1.892957 6.28985811,2.18672133 6.76352073,2.77524245 L6.76352073,2.77524245 L8.29669184,4.67677106 C8.39217225,4.79586471 8.48939774,4.91495836 8.59160914,5.02908978 C9.216411,5.73275452 9.18499521,6.79831407 8.51981186,7.46430681 L8.51981186,7.46430681 L7.43213291,8.49024898 C7.00005324,8.92127336 6.92292245,9.59159993 7.24590871,10.1086821 C8.46471742,12.0692613 11.7546783,15.3579828 13.8826699,16.6628026 C14.4012435,16.9798455 15.0707032,16.9010007 15.5006017,16.4722527 L15.5006017,16.4722527 L16.4928002,15.5080904 C17.1479457,14.8600751 18.1909401,14.8146111 18.9005021,15.4031391 C19.0164248,15.4999027 19.1325968,15.5964182 19.2532561,15.6872271 L19.2532561,15.6872271 L21.4054295,17.3091338 C22.1981902,18.1027003 22.1981902,19.3844836 21.4054295,20.1780502 L21.4054295,20.1780502 L20.7821892,20.7983296 C19.8136738,21.7622438 18.4245958,22.1907328 17.0818869,21.920291 C11.2865001,20.7529251 3.46209228,12.7627337 2.10317915,6.91275434 C1.78827737,5.54196923 2.20495666,4.10641241 3.20581587,3.11391502 L3.20581587,3.11391502 L3.73183067,2.59039918 C4.01853009,2.30473568 4.38489368,2.11144568 4.78336169,2.03562126 Z M20.8,2 C21.4627417,2 22,2.5372583 22,3.2 L22,6.8 C22,7.4627417 21.4627417,8 20.8,8 L12.2,8 C11.5372583,8 11,7.4627417 11,6.8 L11,3.2 C11,2.5372583 11.5372583,2 12.2,2 L20.8,2 Z M14.7393518,4.04507857 C14.4391696,4.04507857 14.2089946,4.15944286 14.0490036,4.38817143 C13.8888357,4.61670714 13.8089286,4.9922 13.8089286,5.51407143 C13.8089286,6.03613571 13.8888357,6.41047143 14.0490036,6.63727143 C14.2089946,6.86407143 14.4391696,6.97747143 14.7393518,6.97747143 C15.0365286,6.97747143 15.2640518,6.86407143 15.4226286,6.63727143 C15.5810286,6.41047143 15.6600518,6.03613571 15.6600518,5.51407143 C15.6600518,4.9922 15.5810286,4.61670714 15.4226286,4.38817143 C15.2640518,4.15944286 15.0365286,4.04507857 14.7393518,4.04507857 Z M12.4615111,3.02293571 L11.7439379,3.02293571 L12.4864379,6.97573571 L13.1842111,6.97573571 L13.9021379,3.02293571 L13.2091379,3.02293571 L12.8527379,5.62052857 L12.4615111,3.02293571 Z M16.659995,3.02293571 L15.962045,3.02293571 L15.962045,6.97573571 L17.600495,6.97573571 L17.600495,6.26833571 L16.659995,6.26833571 L16.659995,3.02293571 Z M21.1751571,3.02293571 L19.5466071,3.02293571 L19.5466071,6.97573571 L21.2145804,6.97573571 L21.2145804,6.29012857 L20.2445571,6.29012857 L20.2445571,5.30732857 L21.0860571,5.30732857 L21.0860571,4.62692857 L20.2445571,4.62692857 L20.2445571,3.70892857 L21.1751571,3.70892857 L21.1751571,3.02293571 Z M19.2361714,3.02293571 L17.2660714,3.02293571 L17.2660714,3.72512857 L17.8996714,3.72512857 L17.8996714,6.97573571 L18.6025714,6.97573571 L18.6025714,3.72512857 L19.2361714,3.72512857 L19.2361714,3.02293571 Z M14.7344018,4.71487143 C14.8169607,4.71487143 14.8763607,4.77600714 14.9126018,4.89847143 C14.9490196,5.02093571 14.9672286,5.22594286 14.9672286,5.51407143 C14.9672286,5.8022 14.9481357,6.00720714 14.9101268,6.12967143 C14.8721179,6.25213571 14.8136018,6.31327143 14.7344018,6.31327143 C14.6486607,6.31327143 14.5876696,6.25213571 14.5514286,6.12967143 C14.5150107,6.00720714 14.4968018,5.8022 14.4968018,5.51407143 C14.4968018,5.22247143 14.5150107,5.0165 14.5514286,4.89577143 C14.5876696,4.77523571 14.6486607,4.71487143 14.7344018,4.71487143 Z" id="_形状结合" fill="#000000"/>
    </g>
</svg>