<?xml version="1.0" encoding="UTF-8"?>
<svg xmlns="http://www.w3.org/2000/svg" xmlns:xlink="http://www.w3.org/1999/xlink" width="24" height="24" viewBox="0 0 24 24" version="1.1">
    <title>ic_contacts_volte details Voz_m</title>
    <g id="_ic_contacts_volte-details-Voz_m" stroke="none" stroke-width="1" fill="none" fill-rule="evenodd">
        <path d="M4.78336169,2.03562126 C5.52775989,1.892957 6.28985811,2.18672133 6.76352073,2.77524245 L6.76352073,2.77524245 L8.29669184,4.67677106 C8.39217225,4.79586471 8.48939774,4.91495836 8.59160914,5.02908978 C9.216411,5.73275452 9.18499521,6.79831407 8.51981186,7.46430681 L8.51981186,7.46430681 L7.43213291,8.49024898 C7.00005324,8.92127336 6.92292245,9.59159993 7.24590871,10.1086821 C8.46471742,12.0692613 11.7546783,15.3579828 13.8826699,16.6628026 C14.4012435,16.9798455 15.0707032,16.9010007 15.5006017,16.4722527 L15.5006017,16.4722527 L16.4928002,15.5080904 C17.1479457,14.8600751 18.1909401,14.8146111 18.9005021,15.4031391 C19.0164248,15.4999027 19.1325968,15.5964182 19.2532561,15.6872271 L19.2532561,15.6872271 L21.4054295,17.3091338 C22.1981902,18.1027003 22.1981902,19.3844836 21.4054295,20.1780502 L21.4054295,20.1780502 L20.7821892,20.7983296 C19.8136738,21.7622438 18.4245958,22.1907328 17.0818869,21.920291 C11.2865001,20.7529251 3.46209228,12.7627337 2.10317915,6.91275434 C1.78827737,5.54196923 2.20495666,4.10641241 3.20581587,3.11391502 L3.20581587,3.11391502 L3.73183067,2.59039918 C4.01853009,2.30473568 4.38489368,2.11144568 4.78336169,2.03562126 Z M20.8,2 C21.4627417,2 22,2.5372583 22,3.2 L22,6.8 C22,7.4627417 21.4627417,8 20.8,8 L12.2,8 C11.5372583,8 11,7.4627417 11,6.8 L11,3.2 C11,2.5372583 11.5372583,2 12.2,2 L20.8,2 Z M14.5114113,4.13180854 C14.2081808,4.13180854 13.9756683,4.24366895 13.8140525,4.46738977 C13.6522582,4.69092195 13.5715395,5.05819382 13.5715395,5.56863947 C13.5715395,6.07927376 13.6522582,6.44541382 13.8140525,6.66724829 C13.9756683,6.88908276 14.2081808,7 14.5114113,7 C14.811606,7 15.0414397,6.88908276 15.2016269,6.66724829 C15.3616354,6.44541382 15.4414611,6.07927376 15.4414611,5.56863947 C15.4414611,5.05819382 15.3616354,4.69092195 15.2016269,4.46738977 C15.0414397,4.24366895 14.811606,4.13180854 14.5114113,4.13180854 Z M17.1669286,4.26385286 L15.6868493,4.26932327 L15.6868493,4.89785428 L16.3818865,4.89785428 L15.6218458,6.55086065 L15.6218458,6.99981137 L17.2219315,6.99981137 L17.2219315,6.37128036 L16.4018876,6.37128036 L17.1669286,4.70771045 L17.1669286,4.26385286 Z M12.2248603,3.13204433 L11.5,3.13204433 L12.2500402,6.99830229 L12.9548994,6.99830229 L13.6801168,3.13204433 L12.9800793,3.13204433 L12.62006,5.67276586 L12.2248603,3.13204433 Z M18.8703948,3.13204433 L18.1903584,3.13204433 L17.3453131,5.70426786 L17.3453131,6.29582646 L18.4203707,6.29582646 L18.4203707,6.99830229 L19.0654053,6.99830229 L19.0654053,6.29582646 L19.3504206,6.29582646 L19.3504206,5.63560481 L19.0654053,5.63560481 L19.0654053,4.80108465 L18.4403718,4.80108465 L18.4403718,5.63560481 L18.0403504,5.63560481 L18.8703948,3.13204433 Z M20.6047735,3 C20.2613622,3 19.9897405,3.14694647 19.7895512,3.44102806 C19.5897191,3.73492101 19.4897137,4.25347795 19.4897137,4.99651026 C19.4897137,5.73935393 19.5847188,6.25866541 19.7745504,6.55444471 C19.9647392,6.85041264 20.2297534,6.99811365 20.5697716,6.99811365 C20.8163919,6.99811365 21.0197957,6.93925961 21.1798043,6.82136289 C21.3078111,6.7268946 21.401759,6.6015204 21.4615565,6.44514369 L21.5,6.32204669 L21.5,4.72695119 L20.4997678,4.72695119 L20.4997678,5.39245461 L20.8347858,5.39245461 L20.8347858,6.10021221 C20.7946051,6.22697477 20.7181724,6.29035605 20.6047735,6.29035605 C20.4713735,6.29035605 20.372261,6.18660693 20.3072575,5.97892007 C20.242254,5.77104456 20.2097523,5.44357463 20.2097523,4.99651026 C20.2097523,4.13369488 20.334759,3.7022872 20.5847724,3.7022872 C20.6513831,3.7022872 20.7063861,3.73586418 20.7496027,3.80282952 C20.782283,3.85291205 20.8119497,3.93281066 20.838829,4.04236619 L20.8647874,4.16180146 L21.4898209,3.86074039 C21.4430327,3.57212921 21.3482062,3.35633105 21.2048056,3.21391181 C21.0615837,3.07130394 20.8613944,3 20.6047735,3 Z M14.5064111,4.78693704 C14.5898084,4.78693704 14.6498116,4.84673426 14.6864207,4.96651733 C14.7232084,5.0863004 14.7416022,5.28681915 14.7416022,5.56863947 C14.7416022,5.8504598 14.7223155,6.05097854 14.6839206,6.17076161 C14.6455257,6.29054468 14.5864153,6.3503419 14.5064111,6.3503419 C14.4197993,6.3503419 14.3581888,6.29054468 14.3215797,6.17076161 C14.284792,6.05097854 14.2663982,5.8504598 14.2663982,5.56863947 C14.2663982,5.28342372 14.284792,5.0819618 14.3215797,4.96387644 C14.3581888,4.84597972 14.4197993,4.78693704 14.5064111,4.78693704 Z" id="_形状结合" fill="#000000"/>
    </g>
</svg>