<?xml version="1.0" encoding="UTF-8"?>
<svg xmlns="http://www.w3.org/2000/svg" xmlns:xlink="http://www.w3.org/1999/xlink" width="24" height="24" viewBox="0 0 24 24" version="1.1">
    <title>ic_encryption_cmcc_filled</title>
    <defs>
        <path d="M10.6911795,1.30107415 C11.5177131,0.900330583 12.4822869,0.900330583 13.3088205,1.30107415 L13.3088205,1.30107415 L19.7316154,4.41515652 C20.5073719,4.79128086 21,5.57760856 21,6.43973826 L21,6.43973826 L21,11.25 C21,16.5158971 17.6459225,21.1101108 12.7508862,22.7973636 C12.7379871,22.8018097 12.7161694,22.8089491 12.685433,22.8187818 C12.2393172,22.9614959 11.759784,22.9614277 11.3137088,22.8185866 L11.3137088,22.8185866 L11.2767569,22.806645 L11.2767569,22.806645 L11.2519921,22.7983767 C6.35549222,21.1121681 3,16.5172142 3,11.25 L3,11.25 L3,6.43973826 C3,5.57760856 3.49262814,4.79128086 4.26838461,4.41515652 L4.26838461,4.41515652 Z M8.39168084,7.01781063 C8.19244684,7.05572284 8.00926505,7.15236784 7.86591534,7.29519959 L7.60290794,7.55695751 C7.10247833,8.0532062 6.89413869,8.77098461 7.05158958,9.45637717 C7.73104614,12.3813668 11.6432501,16.3764626 14.5409435,16.9601455 C15.2122979,17.0953664 15.9068369,16.8811219 16.3910946,16.3991648 L16.7027147,16.0890251 C17.0990951,15.6922418 17.0990951,15.0513502 16.7027147,14.6545669 L15.6266281,13.8436136 C15.5662984,13.7982091 15.5082124,13.7499514 15.4502511,13.7015696 C15.0954701,13.4073056 14.5739728,13.4300375 14.2464001,13.7540452 L13.7503008,14.2361264 C13.5353516,14.4505004 13.2006217,14.4899227 12.9413349,14.3314013 C11.8773391,13.6789914 10.2323587,12.0346306 9.62295436,11.054341 C9.46146123,10.7958 9.50002662,10.4606367 9.71606646,10.2451245 L10.2599059,9.7321534 C10.5924976,9.39915704 10.6082055,8.86637726 10.2958046,8.51454489 C10.2446989,8.45747918 10.1960861,8.39793236 10.1483459,8.33838553 L9.38176037,7.38762123 C9.14492906,7.09336067 8.76387994,6.9464785 8.39168084,7.01781063 Z" id="_path-1"/>
    </defs>
    <g id="_ic_encryption_cmcc_filled" stroke="none" stroke-width="1" fill="none" fill-rule="evenodd">
        <mask id="_mask-2" fill="white">
            <use xlink:href="#_path-1"/>
        </mask>
        <use id="_形状结合" fill="#000000" fill-rule="nonzero" xlink:href="#_path-1"/>
    </g>
</svg>