<?xml version="1.0" encoding="UTF-8"?>
<svg xmlns="http://www.w3.org/2000/svg" xmlns:xlink="http://www.w3.org/1999/xlink" width="24" height="24" viewBox="0 0 24 24" version="1.1">
    <title>ic_contacts_hicall_s</title>
    <defs>
        <path d="M10.2413321,6.70423813 C10.8444879,6.70423813 11.3334423,7.1931925 11.3334423,7.79634829 C11.3334423,7.85166178 11.32924,7.90689533 11.3208717,7.96157214 L9.51777186,19.742666 C9.4070825,20.4658881 8.78500524,21 8.05336161,21 C7.44841879,21 6.95801574,20.5095969 6.95801574,19.9046541 C6.95801574,19.8502462 6.96206954,19.795914 6.97014349,19.7421085 L7.50329534,16.1891386 C7.60592506,15.5052053 7.1346854,14.86757 6.4507521,14.7649403 C6.3892399,14.7557099 6.32712545,14.7510755 6.26492456,14.7510755 C5.42880543,14.7510755 4.71821476,15.3621519 4.59301428,16.1888441 L4.05484223,19.7423661 C3.94532783,20.4654839 3.32376546,21 2.5924018,21 C1.98960799,21 1.50094705,20.5113391 1.50094705,19.9085453 C1.50094705,19.8530488 1.50517973,19.7976331 1.51360827,19.7427804 L3.32389842,7.96145773 C3.435033,7.23819668 4.05730514,6.70423813 4.78905471,6.70423813 C5.39392838,6.70423813 5.88427537,7.19458512 5.88427537,7.79945879 C5.88427537,7.85390179 5.88021587,7.908269 5.87213063,7.96210829 L5.38334038,11.2169412 C5.2803385,11.9028263 5.75285865,12.5423455 6.43874369,12.6453473 C6.50047829,12.6546183 6.56281825,12.6592731 6.62524509,12.6592731 C7.46331172,12.6592731 8.1750153,12.0455839 8.29829318,11.2166338 L8.7822523,7.96237641 C8.88976401,7.23944182 9.5104469,6.70423813 10.2413321,6.70423813 Z M15.4652887,11.6184063 C16.0280651,11.6184063 16.4842855,12.0746267 16.4842855,12.6374031 C16.4842855,12.6947571 16.4794433,12.7520088 16.4698104,12.8085481 L15.2292082,20.0901582 C15.1396792,20.6156412 14.6842969,21 14.1512417,21 L13.8669024,21 C13.3041261,21 12.8479057,20.5437796 12.8479057,19.9810032 C12.8479057,19.9236492 12.8527479,19.8663975 12.8623808,19.8098581 L14.1029829,12.528248 C14.1925119,12.002765 14.6478943,11.6184063 15.1809495,11.6184063 L15.4652887,11.6184063 Z M16.8438201,7.45927852 C17.94963,7.75557938 18.8814715,8.59880345 19.3084823,9.45292664 C19.5289052,9.89382492 19.3497512,10.4292917 18.9083305,10.6489252 C18.4669098,10.8685586 17.9303796,10.6891881 17.7099567,10.2482898 C17.4985658,9.82545775 16.9580506,9.33634514 16.3822055,9.1820479 C15.8291259,9.03385067 15.0673759,9.20993366 14.834004,9.40195639 C14.4534402,9.7150914 13.8903673,9.66069828 13.5763456,9.28046596 C13.2623239,8.90023364 13.3162669,8.33814836 13.6968308,8.02501335 C14.3685368,7.4723211 15.7235476,7.15910239 16.8438201,7.45927852 Z M18.0459332,3.25673053 C19.9841243,3.77606727 21.4043875,5.04461964 22.3850957,6.76079651 C22.629689,7.18881918 22.4806029,7.73341962 22.0521024,7.97719565 C21.623602,8.22097168 21.0779518,8.07161028 20.8333585,7.64358761 C20.0709372,6.309399 19.0095526,5.36139024 17.5843185,4.97949992 C16.0595793,4.57094727 14.7259944,4.82276397 13.4657995,5.64544222 C13.0530358,5.91490193 12.4992995,5.79907717 12.2289949,5.38674039 C11.9586903,4.97440361 12.0741762,4.42169835 12.4869399,4.15223865 C14.1580109,3.06133296 16.0109276,2.71145244 18.0459332,3.25673053 Z" id="_path-1"/>
    </defs>
    <g id="_ic_contacts_hicall_s" stroke="none" stroke-width="1" fill="none" fill-rule="evenodd">
        <mask id="_mask-2" fill="white">
            <use xlink:href="#_path-1"/>
        </mask>
        <use id="_Combined-Shape" fill="#000000" xlink:href="#_path-1"/>
    </g>
</svg>