<?xml version="1.0" encoding="UTF-8"?>
<svg xmlns="http://www.w3.org/2000/svg" xmlns:xlink="http://www.w3.org/1999/xlink" width="24" height="24" viewBox="0 0 24 24" version="1.1">
    <title>ic_contacts_hicall_s_filled</title>
    <defs>
        <path d="M18.5,1.5 C20.709139,1.5 22.5,3.290861 22.5,5.5 L22.5,18.5 C22.5,20.709139 20.709139,22.5 18.5,22.5 L5.5,22.5 C3.290861,22.5 1.5,20.709139 1.5,18.5 L1.5,5.5 C1.5,3.290861 3.290861,1.5 5.5,1.5 L18.5,1.5 Z M10.6592981,7.87950658 C10.1028424,7.87950658 9.63069279,8.28786527 9.55048578,8.83851019 L9.55048578,8.83851019 L9.17559948,11.4122157 C9.08363043,12.0436105 8.54224197,12.5118534 7.9041842,12.5118534 C7.85744259,12.5118534 7.81076342,12.5084388 7.76451937,12.5016368 C7.24010772,12.4245021 6.87751815,11.9368524 6.95465291,11.4124407 L6.95465291,11.4124407 L7.33327652,8.83831396 C7.33920856,8.79798412 7.34218647,8.75727481 7.34218647,8.71651105 C7.34218647,8.25424625 6.96744681,7.87950658 6.50518201,7.87950658 C5.94807877,7.87950658 5.47473951,8.28693868 5.3918289,8.8378378 L5.3918289,8.8378378 L4.00664732,18.0416688 C4.00046277,18.082762 3.99735753,18.1242599 3.99735753,18.1658158 C3.99735753,18.626523 4.3708345,19 4.83154169,19 C5.38835582,19 5.86116375,18.592153 5.94286527,18.0413655 L5.94286527,18.0413655 L6.35915239,15.2349828 C6.45255627,14.6053043 6.99308593,14.1390402 7.62965427,14.1390402 C7.67622657,14.1390402 7.72273676,14.1424398 7.76881405,14.149212 C8.2917319,14.2260679 8.65333661,14.7122805 8.57648079,15.2351983 L8.57648079,15.2351983 L8.1640722,18.041177 C8.15814847,18.0814814 8.15517475,18.1221644 8.15517475,18.1629018 C8.15517475,18.6252184 8.52995639,19 8.99227298,19 C9.54929684,19 10.0224902,18.5924538 10.1050686,18.041585 L10.1050686,18.041585 L11.48475,8.83792154 C11.4908902,8.79696086 11.4939731,8.75559996 11.4939731,8.71418161 C11.4939731,8.25320332 11.1202764,7.87950658 10.6592981,7.87950658 Z M14.6394555,11.7021762 L14.4250082,11.7021762 C14.0179371,11.7021762 13.6705108,11.9964302 13.6035077,12.3979491 L13.6035077,12.3979491 L12.6532002,18.0927046 C12.6461284,18.1350826 12.6425744,18.177973 12.6425744,18.2209369 C12.6425744,18.6512016 12.9913728,19 13.4216374,19 L13.4216374,19 L13.6360848,19 C14.0431558,19 14.3905821,18.705746 14.4575853,18.3042271 L14.4575853,18.3042271 L15.4078927,12.6094716 C15.4149645,12.5670936 15.4185186,12.5242032 15.4185186,12.4812393 C15.4185186,12.0509746 15.0697202,11.7021762 14.6394555,11.7021762 L14.6394555,11.7021762 Z M15.6892898,8.48822976 C14.8178439,8.25472653 13.7665003,8.48829052 13.2469162,8.9072972 C12.952539,9.1446909 12.912881,9.5733326 13.1583376,9.86469524 C13.4037942,10.1560579 13.841416,10.1998083 14.1357932,9.96241463 C14.3163132,9.81683848 14.9073498,9.68553519 15.3375834,9.80081596 C15.7855261,9.92084184 16.2073617,10.2961824 16.3732632,10.6196375 C16.5462531,10.9569128 16.9637555,11.0959119 17.3057809,10.9301008 C17.6478063,10.7642896 17.7848367,10.3564575 17.6118467,10.0191822 C17.2767248,9.36580102 16.5494854,8.71871848 15.6892898,8.48822976 Z M16.6057286,5.22698919 C15.0227234,4.80282421 13.5847446,5.0623708 12.2909875,5.88802796 C11.9714224,6.09196983 11.8839194,6.5132089 12.0955441,6.82889176 C12.3071688,7.14457463 12.7377833,7.23515861 13.0573484,7.03121675 C14.0330018,6.4085688 15.0679467,6.22176742 16.2540222,6.53957539 C17.3626939,6.83664307 18.1909832,7.56419137 18.7885758,8.58519083 C18.9802903,8.91273891 19.4047573,9.02887822 19.7366496,8.84459525 C20.0685419,8.66031228 20.1821785,8.24539124 19.9904641,7.91784316 C19.2217762,6.60452386 18.1134231,5.63097471 16.6057286,5.22698919 Z" id="_path-1"/>
    </defs>
    <g id="_ic_contacts_hicall_s_filled" stroke="none" stroke-width="1" fill="none" fill-rule="evenodd">
        <mask id="_mask-2" fill="white">
            <use xlink:href="#_path-1"/>
        </mask>
        <use id="_形状结合" fill="#000000" xlink:href="#_path-1"/>
    </g>
</svg>