<?xml version="1.0" encoding="UTF-8"?>
<svg xmlns="http://www.w3.org/2000/svg" xmlns:xlink="http://www.w3.org/1999/xlink" width="24" height="24" viewBox="0 0 24 24" version="1.1">
    <title>ic_contacts_incoming_filled</title>
    <defs>
        <path d="M4.78336169,2.03562126 C5.52775989,1.892957 6.28985811,2.18672133 6.76352073,2.77524245 L6.76352073,2.77524245 L8.29669184,4.67677106 C8.39217225,4.79586471 8.48939774,4.91495836 8.59160914,5.02908978 C9.216411,5.73275452 9.18499521,6.79831407 8.51981186,7.46430681 L8.51981186,7.46430681 L7.43213291,8.49024898 C7.00005324,8.92127336 6.92292245,9.59159993 7.24590871,10.1086821 C8.46471742,12.0692613 11.7546783,15.3579828 13.8826699,16.6628026 C14.4012435,16.9798455 15.0707032,16.9010007 15.5006017,16.4722527 L15.5006017,16.4722527 L16.4928002,15.5080904 C17.1479457,14.8600751 18.1909401,14.8146111 18.9005021,15.4031391 C19.0164248,15.4999027 19.1325968,15.5964182 19.2532561,15.6872271 L19.2532561,15.6872271 L21.4054295,17.3091338 C22.1981902,18.1027003 22.1981902,19.3844836 21.4054295,20.1780502 L21.4054295,20.1780502 L20.7821892,20.7983296 C19.8136738,21.7622438 18.4245958,22.1907328 17.0818869,21.920291 C11.2865001,20.7529251 3.46209228,12.7627337 2.10317915,6.91275434 C1.78827737,5.54196923 2.20495666,4.10641241 3.20581587,3.11391502 L3.20581587,3.11391502 L3.73183067,2.59039918 C4.01853009,2.30473568 4.38489368,2.11144568 4.78336169,2.03562126 Z M20.2775786,3.21966991 C20.5460641,3.48815536 20.5684379,3.909555 20.3447,4.20352615 L20.2775786,4.28033009 L14.5608483,9.9975164 L19.5808795,9.99747654 C19.9574373,9.99747654 20.2691793,10.274986 20.3227476,10.636647 L20.3308795,10.7474765 C20.3308795,11.1240343 20.05337,11.4357763 19.691709,11.4893446 L19.5808795,11.4974765 L13.3533254,11.4974765 C12.8010407,11.4974765 12.3533254,11.0497613 12.3533254,10.4974765 C12.3533254,10.2764628 12.4264899,10.0629925 12.559406,9.88944703 L12.6462186,9.79036976 L19.2169185,3.21966991 C19.5098117,2.9267767 19.9846854,2.9267767 20.2775786,3.21966991 Z M12.75,3.16659705 C13.1265578,3.16659705 13.4382998,3.4441065 13.4918681,3.80576754 L13.5,3.91659705 L13.500862,7.52275623 L12.0003814,9.02323682 L12,3.91659705 C12,3.50238348 12.3357864,3.16659705 12.75,3.16659705 Z" id="_path-1"/>
    </defs>
    <g id="_ic_contacts_incoming_filled" stroke="none" stroke-width="1" fill="none" fill-rule="evenodd">
        <mask id="_mask-2" fill="white">
            <use xlink:href="#_path-1"/>
        </mask>
        <use id="_形状结合" fill="#000000" xlink:href="#_path-1"/>
    </g>
</svg>