<?xml version="1.0" encoding="UTF-8"?>
<svg xmlns="http://www.w3.org/2000/svg" xmlns:xlink="http://www.w3.org/1999/xlink" width="24" height="24" viewBox="0 0 24 24" version="1.1">
    <title>ic_contacts_missed_filled</title>
    <defs>
        <path d="M2.45059448,15.6487806 C6.88166314,12.7035261 16.9460125,12.8090301 21.5337236,15.6671272 C22.6064882,16.3390872 23.2548979,17.517843 23.2496089,18.7864074 L23.2496089,18.7864074 L23.2479861,19.4543246 C23.2473268,19.8185741 23.1371835,20.1747355 22.9318544,20.4765734 C22.5489132,21.0410965 21.8769664,21.3391423 21.2009968,21.2660468 L21.2009968,21.2660468 L18.8096402,21.0105699 L18.6032688,20.9950955 C17.7578379,20.9449075 17.0997128,20.2467966 17.0991977,19.3996414 L17.0991977,19.3996414 L17.1384867,18.0545411 C17.1391583,17.5052651 16.7616508,17.0295861 16.2270346,16.9060643 C14.2036845,16.4340044 10.0170367,16.4347931 7.83240888,16.9586564 C7.30062583,17.0869098 6.92476074,17.5631279 6.92402857,18.1095671 L6.92402857,18.1095671 L6.90618644,19.3545875 C6.90164887,20.183914 6.26682433,20.8766047 5.44072493,20.9536302 C5.30537221,20.965823 5.17001874,20.9783323 5.03544118,20.997329 L5.03544118,20.997329 L2.63363137,21.3347887 C1.62409886,21.3342758 0.80837701,20.518554 0.807864152,19.5090215 L0.807864152,19.5090215 L0.809748433,18.7176504 C0.812676605,17.4878597 1.42399165,16.3311671 2.45059448,15.6487806 Z M19.9103118,3.07955396 C20.184227,3.33794556 20.2205687,3.75372656 20.0113658,4.05356384 L19.9412306,4.13976338 L13.4413069,11.0323787 C13.4046992,11.1216153 13.3501611,11.2052242 13.2776926,11.2776926 C13.0092072,11.5461781 12.5878075,11.5685519 12.2938364,11.344814 L12.2170325,11.2776926 L6.545886,5.60711606 L6.54728154,10.4562255 L6.53914961,10.567055 C6.52779546,10.6437115 6.50484271,10.7165873 6.47213256,10.7838414 C6.39327649,11.0650053 6.154821,11.2792994 5.86071551,11.3228616 L5.749886,11.3309935 C5.37332822,11.3309935 5.06158624,11.053484 5.00801793,10.691823 L4.999886,10.5809935 L4.999886,4.3534394 C4.999886,4.20253774 5.03331042,4.05944277 5.09315968,3.93115406 C5.20763306,3.56106397 5.53176313,3.28330081 5.92678649,3.23585701 L6.04728154,3.22867144 L6.17872552,3.23734388 C6.3520864,3.2603273 6.51647466,3.32841915 6.65531105,3.43475207 L6.75438832,3.52156466 L12.7782121,9.54584813 L18.8501024,3.11047272 L18.924917,3.04114101 C19.2122412,2.80892881 19.634114,2.81900909 19.9103118,3.07955396 Z M12.5807655,3.000114 C12.9949791,3.000114 13.3307655,3.33590043 13.3307655,3.750114 C13.3307655,4.12667178 13.053256,4.43841376 12.691595,4.49198207 L12.5807655,4.500114 L8.97460632,4.50097599 L7.47412573,3.0004954 L12.5807655,3.000114 Z" id="_path-1"/>
    </defs>
    <g id="_ic_contacts_missed_filled" stroke="none" stroke-width="1" fill="none" fill-rule="evenodd">
        <mask id="_mask-2" fill="white">
            <use xlink:href="#_path-1"/>
        </mask>
        <use id="_形状结合" fill="#000000" xlink:href="#_path-1"/>
    </g>
</svg>