<?xml version="1.0" encoding="UTF-8"?>
<svg xmlns="http://www.w3.org/2000/svg" xmlns:xlink="http://www.w3.org/1999/xlink" width="24" height="24" viewBox="0 0 24 24" version="1.1">
    <title>ic_contacts_out_filled</title>
    <defs>
        <path d="M4.78336169,2.03562126 C5.52775989,1.892957 6.28985811,2.18672133 6.76352073,2.77524245 L6.76352073,2.77524245 L8.29669184,4.67677106 C8.39217225,4.79586471 8.48939774,4.91495836 8.59160914,5.02908978 C9.216411,5.73275452 9.18499521,6.79831407 8.51981186,7.46430681 L8.51981186,7.46430681 L7.43213291,8.49024898 C7.00005324,8.92127336 6.92292245,9.59159993 7.24590871,10.1086821 C8.46471742,12.0692613 11.7546783,15.3579828 13.8826699,16.6628026 C14.4012435,16.9798455 15.0707032,16.9010007 15.5006017,16.4722527 L15.5006017,16.4722527 L16.4928002,15.5080904 C17.1479457,14.8600751 18.1909401,14.8146111 18.9005021,15.4031391 C19.0164248,15.4999027 19.1325968,15.5964182 19.2532561,15.6872271 L19.2532561,15.6872271 L21.4054295,17.3091338 C22.1981902,18.1027003 22.1981902,19.3844836 21.4054295,20.1780502 L21.4054295,20.1780502 L20.7821892,20.7983296 C19.8136738,21.7622438 18.4245958,22.1907328 17.0818869,21.920291 C11.2865001,20.7529251 3.46209228,12.7627337 2.10317915,6.91275434 C1.78827737,5.54196923 2.20495666,4.10641241 3.20581587,3.11391502 L3.20581587,3.11391502 L3.73183067,2.59039918 C4.01853009,2.30473568 4.38489368,2.11144568 4.78336169,2.03562126 Z M19.1439232,3 C19.6962079,3 20.1439232,3.44771525 20.1439232,4 C20.1439232,4.22101374 20.0707587,4.43448403 19.9378425,4.60802951 L19.8510299,4.70710678 L13.2803301,11.2778066 C12.9874369,11.5706998 12.5125631,11.5706998 12.2196699,11.2778066 C11.9511845,11.0093212 11.9288107,10.5879215 12.1525486,10.2939504 L12.2196699,10.2171465 L17.9364002,4.49996014 L12.9163691,4.5 C12.5398113,4.5 12.2280693,4.22249055 12.174501,3.8608295 L12.1663691,3.75 C12.1663691,3.37344222 12.4438785,3.06170024 12.8055396,3.00813193 L12.9163691,3 L19.1439232,3 Z M20.4968671,5.47423973 L20.4972486,10.5808795 C20.4972486,10.9950931 20.1614621,11.3308795 19.7472486,11.3308795 C19.3706908,11.3308795 19.0589488,11.05337 19.0053805,10.691709 L18.9972486,10.5808795 L18.9963866,6.97472032 L20.4968671,5.47423973 Z" id="_path-1"/>
    </defs>
    <g id="_ic_contacts_out_filled" stroke="none" stroke-width="1" fill="none" fill-rule="evenodd">
        <mask id="_mask-2" fill="white">
            <use xlink:href="#_path-1"/>
        </mask>
        <use id="_形状结合" fill="#000000" xlink:href="#_path-1"/>
    </g>
</svg>