<?xml version="1.0" encoding="UTF-8"?>
<svg xmlns="http://www.w3.org/2000/svg" xmlns:xlink="http://www.w3.org/1999/xlink" width="24" height="24" viewBox="0 0 24 24" version="1.1">
    <title>ic_Allergies Emergency</title>
    <defs>
        <path d="M18,2 C20.209139,2 22,3.790861 22,6 L22,18 C22,20.209139 20.209139,22 18,22 L6,22 C3.790861,22 2,20.209139 2,18 L2,6 C2,3.790861 3.790861,2 6,2 L18,2 Z M18,3.5 L6,3.5 C4.6745166,3.5 3.58996133,4.53153594 3.50531768,5.83562431 L3.5,6 L3.5,18 C3.5,19.3254834 4.53153594,20.4100387 5.83562431,20.4946823 L6,20.5 L18,20.5 C19.3254834,20.5 20.4100387,19.4684641 20.4946823,18.1643757 L20.5,18 L20.5,6 C20.5,4.61928813 19.3807119,3.5 18,3.5 Z M12.9111111,8 C13.0215681,8 13.1111111,8.08954305 13.1111111,8.2 L13.111,10.888 L15.8,10.8888889 C15.9104569,10.8888889 16,10.9784319 16,11.0888889 L16,12.9111111 C16,13.0215681 15.9104569,13.1111111 15.8,13.1111111 L13.111,13.111 L13.1111111,15.8 C13.1111111,15.9104569 13.0215681,16 12.9111111,16 L11.0888889,16 C10.9784319,16 10.8888889,15.9104569 10.8888889,15.8 L10.888,13.111 L8.2,13.1111111 C8.08954305,13.1111111 8,13.0215681 8,12.9111111 L8,11.0888889 C8,10.9784319 8.08954305,10.8888889 8.2,10.8888889 L10.888,10.888 L10.8888889,8.2 C10.8888889,8.08954305 10.9784319,8 11.0888889,8 L12.9111111,8 Z" id="_path-1"/>
    </defs>
    <g id="_ic_Allergies-Emergency" stroke="none" stroke-width="1" fill="none" fill-rule="evenodd">
        <mask id="_mask-2" fill="white">
            <use xlink:href="#_path-1"/>
        </mask>
        <use id="_形状结合" fill="#000000" fill-rule="nonzero" xlink:href="#_path-1"/>
    </g>
</svg>