<?xml version="1.0" encoding="UTF-8"?>
<svg xmlns="http://www.w3.org/2000/svg" xmlns:xlink="http://www.w3.org/1999/xlink" width="24" height="24" viewBox="0 0 24 24" version="1.1">
    <title>Public/ic_public_phone_filled</title>
    <defs>
        <path d="M2.10287352,6.89676965 C1.78889745,5.53060044 2.20441737,4.09964255 3.20178976,3.11036909 C3.75560866,2.4884392 4.27983656,2.13012867 4.77447347,2.03543751 C5.51642882,1.89340077 6.27613877,2.18619581 6.74803733,2.77272034 L8.35355762,4.75737645 C8.43389824,4.85572364 8.49683558,4.93227089 8.53513097,4.97801383 L8.57021988,5.01914357 C9.17872549,5.70466341 9.16280649,6.73467275 8.54281368,7.40067341 L8.49857851,7.44653906 L7.41461351,8.46914131 C6.98383087,8.89867787 6.90689427,9.56681123 7.22896893,10.0823174 C7.85356938,11.087123 9.02395518,12.4418965 10.3020442,13.6978864 C11.5581035,14.9760448 12.912877,16.1464306 13.9176826,16.7710311 C14.4331888,17.0931057 15.1013221,17.0161691 15.5308587,16.5853865 L16.5534609,15.5014215 L16.5993266,15.4571863 C17.2473272,14.8539501 18.2399263,14.8225762 18.9245328,15.3818098 L19.0970635,15.5271144 C19.489809,15.8507448 20.7189584,16.8429839 21.2272797,17.2519627 C21.8138042,17.7238612 22.1065992,18.4835712 21.9645625,19.2255265 C21.8698713,19.7201634 21.5115608,20.2443913 20.8896309,20.7982102 C19.9003574,21.7955826 18.4693996,22.2111026 17.1032304,21.8971265 C14.1939187,21.2212397 10.7536044,18.9411009 7.89180085,16.1082685 C5.05889912,13.2463956 2.77876032,9.8060813 2.10287352,6.89676965 Z" id="_path-1"/>
    </defs>
    <g id="_Public/ic_public_phone_filled" stroke="none" stroke-width="1" fill="none" fill-rule="evenodd">
        <mask id="_mask-2" fill="white">
            <use xlink:href="#_path-1"/>
        </mask>
        <use id="_路径" fill="#000000" xlink:href="#_path-1"/>
    </g>
</svg>