<?xml version="1.0" encoding="UTF-8"?>
<svg xmlns="http://www.w3.org/2000/svg" xmlns:xlink="http://www.w3.org/1999/xlink" width="24" height="24" viewBox="0 0 24 24" version="1.1">
    <title>ic_DTMF</title>
    <defs>
        <path d="M11.75,19 C12.71675,19 13.5,19.78325 13.5,20.75 C13.5,21.71625 12.71675,22.5 11.75,22.5 C10.78375,22.5 10,21.71625 10,20.75 C10,19.78325 10.78375,19 11.75,19 Z M5.75,13 C6.71675,13 7.5,13.78325 7.5,14.75 C7.5,15.71625 6.71675,16.5 5.75,16.5 C4.78375,16.5 4,15.71625 4,14.75 C4,13.78325 4.78375,13 5.75,13 Z M11.75,13 C12.71675,13 13.5,13.78325 13.5,14.75 C13.5,15.71625 12.71675,16.5 11.75,16.5 C10.78375,16.5 10,15.71625 10,14.75 C10,13.78325 10.78375,13 11.75,13 Z M17.75,13 C18.71675,13 19.5,13.78325 19.5,14.75 C19.5,15.71625 18.71675,16.5 17.75,16.5 C16.78375,16.5 16,15.71625 16,14.75 C16,13.78325 16.78375,13 17.75,13 Z M5.75,7 C6.71675,7 7.5,7.78325 7.5,8.75 C7.5,9.71625 6.71675,10.5 5.75,10.5 C4.78375,10.5 4,9.71625 4,8.75 C4,7.78325 4.78375,7 5.75,7 Z M11.75,7 C12.71675,7 13.5,7.78325 13.5,8.75 C13.5,9.71625 12.71675,10.5 11.75,10.5 C10.78375,10.5 10,9.71625 10,8.75 C10,7.78325 10.78375,7 11.75,7 Z M17.75,7 C18.71675,7 19.5,7.78325 19.5,8.75 C19.5,9.71625 18.71675,10.5 17.75,10.5 C16.78375,10.5 16,9.71625 16,8.75 C16,7.78325 16.78375,7 17.75,7 Z M5.75,1 C6.71675,1 7.5,1.78325 7.5,2.75 C7.5,3.71625 6.71675,4.5 5.75,4.5 C4.78375,4.5 4,3.71625 4,2.75 C4,1.78325 4.78375,1 5.75,1 Z M11.75,1 C12.71675,1 13.5,1.78325 13.5,2.75 C13.5,3.71625 12.71675,4.5 11.75,4.5 C10.78375,4.5 10,3.71625 10,2.75 C10,1.78325 10.78375,1 11.75,1 Z M17.75,1 C18.71675,1 19.5,1.78325 19.5,2.75 C19.5,3.71625 18.71675,4.5 17.75,4.5 C16.78375,4.5 16,3.71625 16,2.75 C16,1.78325 16.78375,1 17.75,1 Z" id="_path-1"/>
    </defs>
    <g id="_ic_DTMF" stroke="none" stroke-width="1" fill="none" fill-rule="evenodd">
        <mask id="_mask-2" fill="white">
            <use xlink:href="#_path-1"/>
        </mask>
        <use id="_形状结合" fill="#000000" xlink:href="#_path-1"/>
    </g>
</svg>