<?xml version="1.0" encoding="UTF-8"?>
<svg xmlns="http://www.w3.org/2000/svg" xmlns:xlink="http://www.w3.org/1999/xlink" width="24" height="24" viewBox="0 0 24 24" version="1.1">
    <title>ic_Import RCS List</title>
    <defs>
        <path d="M5.7538212,2.99855368 L5.78550699,3.00049648 L5.80449652,3.00194965 L5.80449652,3.00194965 L5.82050699,3.00349648 L5.8502985,3.00598045 L5.8502985,3.00598045 L5.82750699,3.00449648 L5.85793816,3.00770943 L5.85793816,3.00770943 C5.88449465,3.01115505 5.91049106,3.0165243 5.93612658,3.02321054 L5.9656879,3.03147724 L5.9656879,3.03147724 C5.98508937,3.0374386 6.00449704,3.04418169 6.02360579,3.05168282 C6.03489694,3.05589558 6.04617821,3.06064062 6.05731514,3.06564952 C6.07321116,3.07296213 6.08888557,3.08062837 6.10428725,3.08881791 C6.11787732,3.09608651 6.13119063,3.10377503 6.14423779,3.11185251 C6.16136995,3.12206933 6.17828157,3.13333209 6.19473214,3.14526373 L6.21146443,3.15872957 L6.21146443,3.15872957 C6.35835782,3.27078449 6.46541929,3.43820188 6.49301045,3.64398814 L6.49315338,3.64822944 C6.49766815,3.68150904 6.5,3.7154822 6.5,3.75 L6.5,20.25 C6.5,20.6642136 6.16421356,21 5.75,21 C5.33578644,21 5,20.6642136 5,20.25 L4.99950699,7.50349648 L2.74861715,7.49912806 C2.11618866,7.49796199 1.78366088,6.77342943 2.1518289,6.2958635 L2.21974689,6.21872229 L5.21974689,3.21959295 C5.25947613,3.17987523 5.30157549,3.14586297 5.3453655,3.11727467 C5.35399397,3.11286948 5.3626702,3.1075463 5.37146064,3.10239699 L5.37265127,3.1002867 C5.49284933,3.0290071 5.62438181,2.99695042 5.7538212,2.99855368 Z M16.25,18 C16.6642136,18 17,18.3357864 17,18.75 C17,19.1642136 16.6642136,19.5 16.25,19.5 L9.75,19.5 C9.33578644,19.5 9,19.1642136 9,18.75 C9,18.3357864 9.33578644,18 9.75,18 L16.25,18 Z M18.75,11.25 C19.1642136,11.25 19.5,11.5857864 19.5,12 C19.5,12.4142136 19.1642136,12.75 18.75,12.75 L9.75,12.75 C9.33578644,12.75 9,12.4142136 9,12 C9,11.5857864 9.33578644,11.25 9.75,11.25 L18.75,11.25 Z M21.25,4.5 C21.6642136,4.5 22,4.83578644 22,5.25 C22,5.66421356 21.6642136,6 21.25,6 L9.75,6 C9.33578644,6 9,5.66421356 9,5.25 C9,4.83578644 9.33578644,4.5 9.75,4.5 L21.25,4.5 Z" id="_path-1"/>
    </defs>
    <g id="_ic_Import-RCS-List" stroke="none" stroke-width="1" fill="none" fill-rule="evenodd">
        <mask id="_mask-2" fill="white">
            <use xlink:href="#_path-1"/>
        </mask>
        <use id="_形状结合" fill="#000000" xlink:href="#_path-1"/>
    </g>
</svg>