<?xml version="1.0" encoding="UTF-8"?>
<svg xmlns="http://www.w3.org/2000/svg" xmlns:xlink="http://www.w3.org/1999/xlink" width="24" height="24" viewBox="0 0 24 24" version="1.1">
    <title>ic_Unimport Rcs List</title>
    <defs>
        <path d="M5.25,3 C5.66421356,3 6,3.33578644 6,3.75 L6,20.2531573 C6,20.9212834 5.19225198,21.2559323 4.71974689,20.7835643 L1.71974689,17.784435 C1.24763897,17.3124641 1.58105374,16.50526 2.24861715,16.5040292 L4.49950699,16.499 L4.5,3.75 C4.5,3.33578644 4.83578644,3 5.25,3 Z M20.75,18 C21.1642136,18 21.5,18.3357864 21.5,18.75 C21.5,19.1642136 21.1642136,19.5 20.75,19.5 L9.25,19.5 C8.83578644,19.5 8.5,19.1642136 8.5,18.75 C8.5,18.3357864 8.83578644,18 9.25,18 L20.75,18 Z M18.25,11.25 C18.6642136,11.25 19,11.5857864 19,12 C19,12.4142136 18.6642136,12.75 18.25,12.75 L9.25,12.75 C8.83578644,12.75 8.5,12.4142136 8.5,12 C8.5,11.5857864 8.83578644,11.25 9.25,11.25 L18.25,11.25 Z M15.75,4.5 C16.1642136,4.5 16.5,4.83578644 16.5,5.25 C16.5,5.66421356 16.1642136,6 15.75,6 L9.25,6 C8.83578644,6 8.5,5.66421356 8.5,5.25 C8.5,4.83578644 8.83578644,4.5 9.25,4.5 L15.75,4.5 Z" id="_path-1"/>
    </defs>
    <g id="_ic_Unimport-Rcs-List" stroke="none" stroke-width="1" fill="none" fill-rule="evenodd">
        <mask id="_mask-2" fill="white">
            <use xlink:href="#_path-1"/>
        </mask>
        <use id="_形状结合" fill="#000000" xlink:href="#_path-1"/>
    </g>
</svg>