<?xml version="1.0" encoding="UTF-8"?>
<svg xmlns="http://www.w3.org/2000/svg" xmlns:xlink="http://www.w3.org/1999/xlink" width="24" height="24" viewBox="0 0 24 24" version="1.1">
    <title>ic_contacts_rcs_refuse</title>
    <defs>
        <path d="M12.315,12.89 C12.9539656,12.89 13.5232819,13.0441143 14.0174997,13.3530004 C14.4526375,13.6249615 14.7812957,13.9798761 14.9996317,14.4143865 L15.0864386,14.6054687 L15.1680911,14.8053765 L13.8762868,15.5687154 L13.6704854,15.1781374 C13.5339865,14.9419209 13.3651076,14.7553076 13.1629523,14.6157242 C12.926438,14.4524167 12.6394005,14.37 12.295,14.37 C11.9108961,14.37 11.5731054,14.4704636 11.2750773,14.6720709 C10.9753418,14.8748331 10.7420014,15.1642934 10.573749,15.5458657 C10.4017947,15.9358335 10.315,16.3899558 10.315,16.91 C10.315,17.4300442 10.4017947,17.8841665 10.573749,18.2741343 C10.7422036,18.6561653 10.9760041,18.947676 11.2764606,19.1538717 C11.5742547,19.3582402 11.9115159,19.46 12.295,19.46 C12.6394005,19.46 12.926438,19.3775833 13.1629523,19.2142758 C13.3573816,19.080027 13.5212509,18.9020779 13.655008,18.678216 L13.7496869,18.5016764 L13.8676994,18.2562103 L15.1754587,19.0289771 L14.9998056,19.4152642 C14.7812837,19.8502922 14.4524378,20.2051633 14.0174997,20.4769996 C13.5232819,20.7858857 12.9539656,20.94 12.315,20.94 C11.6426238,20.94 11.0256961,20.7691308 10.4693595,20.4281503 C9.91348491,20.087453 9.47408731,19.6085993 9.15349172,18.9959055 C8.8340798,18.3854738 8.675,17.6890578 8.675,16.91 C8.675,16.1309422 8.8340798,15.4345262 9.15349172,14.8240945 C9.47425409,14.211082 9.91399678,13.7336471 10.4703634,13.3962376 C11.0264996,13.0589679 11.6430527,12.89 12.315,12.89 Z M18.54,12.89 C19.0113795,12.89 19.4433655,12.9691974 19.8343242,13.1284769 C20.2278797,13.2888143 20.5540841,13.5099698 20.8100952,13.7919531 C21.0257869,14.0295266 21.1792135,14.2908784 21.2684618,14.574245 L21.3142941,14.7468926 L21.352798,14.9240104 L20.0644222,15.6792652 L19.9163393,15.2556263 C19.818557,15.011864 19.6612494,14.8097098 19.440714,14.6455335 C19.1854865,14.4555308 18.8746549,14.36 18.5,14.36 C18.1518786,14.36 17.878489,14.440901 17.6716683,14.5987378 C17.4799994,14.7450115 17.39,14.9250102 17.39,15.16 C17.39,15.3372979 17.4414486,15.4733508 17.545577,15.5821071 C17.6721121,15.714266 17.8332485,15.8240669 18.0309101,15.9112705 C18.2053298,15.9882204 18.4318384,16.0744282 18.7093993,16.1693641 L18.9271262,16.2421943 C19.4298017,16.4052242 19.8376228,16.5605034 20.151808,16.7089645 C20.4897125,16.8686337 20.7797713,17.0991932 21.0199821,17.3985329 C21.2744709,17.715665 21.4,18.1192893 21.4,18.6 C21.4,19.0692227 21.2771612,19.4868746 21.0313268,19.846171 C20.7880266,20.2017636 20.4533315,20.4747551 20.0320915,20.6632046 C19.6185865,20.8481937 19.1505542,20.94 18.63,20.94 C17.8829877,20.94 17.2174645,20.7534382 16.6393495,20.3799975 C16.1088313,20.0373025 15.7452674,19.5740162 15.554721,18.9975846 L15.4976219,18.8012604 L15.4512088,18.617626 L16.7396148,17.8771628 L16.9146082,18.3384213 C17.0579353,18.6760039 17.2611342,18.9371574 17.5256719,19.126826 C17.8350084,19.3486144 18.2072708,19.46 18.65,19.46 C19.0190579,19.46 19.2962274,19.3830085 19.4882399,19.2363322 C19.6656442,19.1008151 19.75,18.9262455 19.75,18.69 C19.75,18.5113116 19.697542,18.3702579 19.5908675,18.2541012 C19.4651917,18.1172542 19.3075672,18.00748 19.1156942,17.9244305 L18.9764645,17.8667242 L18.6359067,17.7398156 C18.5722634,17.7173982 18.5051836,17.6943515 18.4346754,17.6706813 L18.2128738,17.5978057 C17.7101983,17.4347758 17.3023772,17.2794966 16.988192,17.1310355 C16.6497617,16.9711179 16.3609248,16.7400484 16.1238413,16.4399896 C15.8732342,16.122815 15.75,15.7165272 15.75,15.23 C15.75,14.7378158 15.8829339,14.3086292 16.1494892,13.9506835 C16.4099299,13.6009489 16.7557938,13.3350428 17.1827195,13.1547034 C17.600803,12.9780992 18.0538847,12.89 18.54,12.89 Z M5.34,13.01 L5.61064725,13.0182593 C6.05785722,13.0460548 6.46480194,13.1441017 6.8300023,13.31312 C7.27431369,13.5187518 7.62374779,13.8105664 7.87332936,14.1868013 C8.12448229,14.565405 8.25,15.0019069 8.25,15.49 C8.25,16.0155971 8.10362821,16.4809843 7.81135941,16.8781701 C7.63724581,17.1147861 7.42330771,17.3136438 7.1708933,17.4744084 L6.97438925,17.5878342 L6.913,17.616 L9.20542949,20.83 L7.28924157,20.83 L5.288,17.949 L4.32,17.949 L4.32,20.83 L2.75,20.83 L2.75,13.01 L5.34,13.01 Z M4.32,14.439 L4.32,16.519 L5.2,16.52 C5.6683159,16.52 6.01969095,16.4216728 6.26104506,16.2330282 C6.48889429,16.0549392 6.6,15.8148487 6.6,15.49 C6.6,15.1576612 6.48814431,14.912093 6.25965132,14.7308744 C6.05293225,14.5669248 5.76569622,14.470328 5.39331026,14.4460748 L5.2,14.44 L4.32,14.439 Z M13.803,7.742 L16.1013979,10.0407377 C16.3942911,10.3336309 16.3942911,10.8085047 16.1013979,11.1013979 C15.8351313,11.3676645 15.4184677,11.3918705 15.1248562,11.1740161 L15.0407377,11.1013979 L12.742,8.803 L13.803,7.742 Z M8.94621165,2.89705176 L9.03033009,2.96966991 L12.035,5.974 L15.0407377,2.96966991 C15.3336309,2.6767767 15.8085047,2.6767767 16.1013979,2.96966991 C16.3676645,3.23593648 16.3918705,3.65260016 16.1740161,3.94621165 L16.1013979,4.03033009 L14.572,5.56 L14.5717654,5.55961327 L12.035,8.096 L9.03033009,11.1013979 C8.73743687,11.3942911 8.26256313,11.3942911 7.96966991,11.1013979 C7.70340335,10.8351313 7.6791973,10.4184677 7.89705176,10.1248562 L7.96966991,10.0407377 L10.974,7.035 L7.96966991,4.03033009 C7.6767767,3.73743687 7.6767767,3.26256313 7.96966991,2.96966991 C8.23593648,2.70340335 8.65260016,2.6791973 8.94621165,2.89705176 Z" id="_path-1"/>
    </defs>
    <g id="_ic_contacts_rcs_refuse" stroke="none" stroke-width="1" fill="none" fill-rule="evenodd">
        <mask id="_mask-2" fill="white">
            <use xlink:href="#_path-1"/>
        </mask>
        <use id="_形状结合" fill="#000000" fill-rule="nonzero" xlink:href="#_path-1"/>
    </g>
</svg>