<?xml version="1.0" encoding="UTF-8"?>
<svg xmlns="http://www.w3.org/2000/svg" xmlns:xlink="http://www.w3.org/1999/xlink" width="24" height="24" version="1.1" viewBox="0 0 40 40">
  <defs>
    <path id="_uxs-a" d="M23.0619633,12 C26.8937352,12 30,15.1062648 30,18.9380367 C30,22.7698085 26.8937352,25.8760734 23.0619633,25.8760734 L22.085,25.876 L18.0940454,29.7331584 C17.4324183,30.3723715 16.3754002,29.768229 16.5261575,28.9220333 L16.5501483,28.819392 L16.5633475,28.7771183 C16.7943043,28.088092 16.9805055,27.4890933 17.121781,26.9815698 L17.1886742,26.7354376 L17.2410599,26.5326099 C17.2640572,26.4411312 17.3436265,26.109447 17.395739,25.8741224 L16.9380367,25.8760734 C13.1062648,25.8760734 10,22.7698085 10,18.9380367 C10,15.1062648 13.1062648,12 16.9380367,12 L23.0619633,12 Z M23.8585892,15.7002862 C23.655752,15.7002862 23.4529147,15.7774766 23.2981551,15.9318573 L23.2981551,15.9318573 L18.7205061,20.4982982 L16.7018449,18.4845795 C16.5470853,18.3301988 16.344248,18.2530085 16.1414108,18.2530085 C15.9385735,18.2530085 15.7357362,18.3301988 15.5809766,18.4845795 C15.426217,18.6389602 15.3488372,18.8413009 15.3488372,19.0436415 C15.3488372,19.2459821 15.426217,19.4483227 15.5809766,19.6027034 L15.5809766,19.6027034 L18.160072,22.175484 C18.3148316,22.3298647 18.5176688,22.407055 18.7205061,22.407055 C18.9233434,22.407055 19.1261806,22.3298647 19.2809402,22.175484 L19.2809402,22.175484 L24.4190234,17.0499811 C24.573783,16.8956005 24.6511628,16.6932598 24.6511628,16.4909192 C24.6511628,16.2885786 24.573783,16.086238 24.4190234,15.9318573 C24.2642638,15.7774766 24.0614265,15.7002862 23.8585892,15.7002862 Z"/>
  </defs>
  <g fill="none" fill-rule="evenodd" stroke="none" stroke-width="1">
    <circle cx="20" cy="20" r="20" fill="#46B1E3"/>
    <use fill="#FFF" fill-rule="nonzero" xlink:href="#_uxs-a"/>
  </g>
</svg>