<?xml version="1.0" encoding="UTF-8"?>
<svg xmlns="http://www.w3.org/2000/svg" xmlns:xlink="http://www.w3.org/1999/xlink" width="24" height="24" viewBox="0 0 24 24" version="1.1">
    <title>ic_contacts_refuse_filled</title>
    <defs>
        <path d="M2.45059448,15.6487806 C6.88166314,12.7035261 16.9460125,12.8090301 21.5337236,15.6671272 C22.6064882,16.3390872 23.2548979,17.517843 23.2496089,18.7864074 L23.2496089,18.7864074 L23.2479861,19.4543246 C23.2473268,19.8185741 23.1371835,20.1747355 22.9318544,20.4765734 C22.5489132,21.0410965 21.8769664,21.3391423 21.2009968,21.2660468 L21.2009968,21.2660468 L18.8096402,21.0105699 L18.6032688,20.9950955 C17.7578379,20.9449075 17.0997128,20.2467966 17.0991977,19.3996414 L17.0991977,19.3996414 L17.1384867,18.0545411 C17.1391583,17.5052651 16.7616508,17.0295861 16.2270346,16.9060643 C14.2036845,16.4340044 10.0170367,16.4347931 7.83240888,16.9586564 C7.30062583,17.0869098 6.92476074,17.5631279 6.92402857,18.1095671 L6.92402857,18.1095671 L6.90618644,19.3545875 C6.90164887,20.183914 6.26682433,20.8766047 5.44072493,20.9536302 C5.30537221,20.965823 5.17001874,20.9783323 5.03544118,20.997329 L5.03544118,20.997329 L2.63363137,21.3347887 C1.62409886,21.3342758 0.80837701,20.518554 0.807864152,19.5090215 L0.807864152,19.5090215 L0.809748433,18.7176504 C0.812676605,17.4878597 1.42399165,16.3311671 2.45059448,15.6487806 Z M13.803,7.741 L16.1013979,10.0407377 C16.3942911,10.3336309 16.3942911,10.8085047 16.1013979,11.1013979 C15.8351313,11.3676645 15.4184677,11.3918705 15.1248562,11.1740161 L15.0407377,11.1013979 L12.742,8.802 L13.803,7.741 Z M8.94621165,2.89705176 L9.03033009,2.96966991 L12.035,5.974 L15.0407377,2.96966991 C15.3336309,2.6767767 15.8085047,2.6767767 16.1013979,2.96966991 C16.3676645,3.23593648 16.3918705,3.65260016 16.1740161,3.94621165 L16.1013979,4.03033009 L14.5717654,5.55961327 L12.035,8.096 L9.03033009,11.1013979 C8.73743687,11.3942911 8.26256313,11.3942911 7.96966991,11.1013979 C7.70340335,10.8351313 7.6791973,10.4184677 7.89705176,10.1248562 L7.96966991,10.0407377 L10.974,7.035 L7.96966991,4.03033009 C7.6767767,3.73743687 7.6767767,3.26256313 7.96966991,2.96966991 C8.23593648,2.70340335 8.65260016,2.6791973 8.94621165,2.89705176 Z" id="_path-1"/>
    </defs>
    <g id="_ic_contacts_refuse_filled" stroke="none" stroke-width="1" fill="none" fill-rule="evenodd">
        <mask id="_mask-2" fill="white">
            <use xlink:href="#_path-1"/>
        </mask>
        <use id="_形状结合" fill="#000000" fill-rule="nonzero" xlink:href="#_path-1"/>
    </g>
</svg>