<?xml version="1.0" encoding="UTF-8"?>
<svg xmlns="http://www.w3.org/2000/svg" width="24" height="24" version="1.1" viewBox="0 0 24 24">
  <g fill="none" fill-rule="evenodd" stroke="none" stroke-width="1">
    <g transform="translate(9.5 6.5)">
      <path fill="#000" d="M2.25,0 L9,0 L9,0 L13.5,4.5 L13.5,14.25 C13.5,15.4926407 12.4926407,16.5 11.25,16.5 L2.25,16.5 C1.00735931,16.5 -2.91909616e-16,15.4926407 0,14.25 L0,2.25 C-1.52179594e-16,1.00735931 1.00735931,2.28269391e-16 2.25,0 Z" opacity=".4"/>
      <path fill="#FFF" d="M7.39236242,13.721483 L6.45761873,13.721483 C6.25051195,13.721483 6.08261873,13.5535897 6.08261873,13.346483 L6.08261873,5.45226685 C6.08261873,5.40049015 6.04064543,5.35851685 5.98886873,5.35851685 C5.97500149,5.35851685 5.96130693,5.3615932 5.94877203,5.3675242 L4.25169737,6.17050947 C4.15809322,6.21479906 4.04630825,6.17482172 4.00201866,6.08121757 C3.99015666,6.05614776 3.98400396,6.02875866 3.98400396,6.00102416 L3.98400396,4.63524078 C3.98400396,4.50413949 4.05246967,4.38255664 4.1645728,4.31458283 L5.83041871,3.30449606 C5.94766732,3.23340229 6.08216224,3.19581197 6.21928103,3.19581197 L7.38557765,3.19581197 C7.59259004,3.19605377 7.76044413,3.3637997 7.76081937,3.57081189 L7.7671207,13.346483 C7.76749584,13.5535896 7.59971088,13.721591 7.39260414,13.7217245 C7.39252357,13.7217246 7.392443,13.7217246 7.39236242,13.721483 Z"/>
    </g>
    <g transform="translate(1 1)">
      <path fill="#64BB5C" d="M2.25,0 L9,0 L9,0 L13.5,4.5 L13.5,14.25 C13.5,15.4926407 12.4926407,16.5 11.25,16.5 L2.25,16.5 C1.00735931,16.5 -2.91909616e-16,15.4926407 0,14.25 L0,2.25 C-1.52179594e-16,1.00735931 1.00735931,2.28269391e-16 2.25,0 Z"/>
      <path fill="#FFF" d="M9.65763873,12.1766875 L9.65763873,12.9339626 C9.65763873,13.1410694 9.48974551,13.3089626 9.28263873,13.3089626 L4.22605664,13.3089626 C4.01894986,13.3089626 3.85105664,13.1410694 3.85105664,12.9339626 L3.85105664,12.1199249 L3.85105664,12.1199249 C3.85105664,12.0100232 3.8803034,11.9158425 3.94039944,11.8385791 C4.70257673,10.8619226 5.84584268,9.39693792 7.37019727,7.443625 C7.75820508,6.95605 8.00224805,6.4837375 8.00224805,5.9070625 C8.00224805,5.1538375 7.52810742,4.577575 6.70943555,4.577575 C5.95484411,4.577575 5.51277945,5.03869703 5.39683925,5.77138509 C5.39642819,5.77398283 5.39568302,5.77856116 5.39460374,5.78512007 L5.39485766,5.78516185 C5.3780209,5.88748137 5.28142566,5.95677883 5.17910615,5.93994208 C5.17730845,5.93964626 5.17551514,5.9393243 5.17372681,5.93897629 C5.1544212,5.9352194 5.14123333,5.93259666 5.1341632,5.93110809 C4.88981187,5.87966141 4.53046755,5.80400366 4.05613023,5.70413484 C4.04769106,5.70235803 4.02955554,5.69851885 4.00172367,5.69261733 L4.00172329,5.69261912 C3.90799605,5.672745 3.84432958,5.58540593 3.85409057,5.49009329 C3.85721501,5.45958419 3.85928756,5.44061724 3.86030821,5.43319245 C4.01950985,4.27507059 4.93817189,3.1 6.7520918,3.1 C8.5764668,3.1 9.62523633,4.3412125 9.62523633,5.9070625 C9.62523633,6.8079625 9.28029492,7.54675 8.70566602,8.25625 L5.83785352,11.7719875 L5.83785352,11.8016875 L9.28263873,11.8016875 C9.48974551,11.8016875 9.65763873,11.9695807 9.65763873,12.1766875 Z"/>
    </g>
  </g>
</svg>