<?xml version="1.0" encoding="UTF-8"?>
<svg xmlns="http://www.w3.org/2000/svg" xmlns:xlink="http://www.w3.org/1999/xlink" width="24" height="24" viewBox="0 0 24 24" version="1.1">
    <title>ic_stat_sys_sim2</title>
    <defs>
        <path d="M15.014,1 L21,6.985 L21,19 C21,21.209139 19.209139,23 17,23 L7,23 C4.790861,23 3,21.209139 3,19 L3,5 C3,2.790861 4.790861,1 7,1 L15.014,1 Z M12.1389646,6 C10.4386921,6 9.40871935,7.01423846 9.04904632,9.04444125 L9.04904632,9.04444125 L10.9618529,10.090896 C11.0815492,9.40399827 11.2123394,8.90694664 11.3542234,8.6008917 C11.4955236,8.29483676 11.6811989,8.14180929 11.9100817,8.14180929 C12.0735695,8.14180929 12.1932659,8.21717244 12.2697548,8.36732346 C12.3456598,8.51804976 12.3841962,8.75449446 12.3841962,9.07608227 C12.3841962,9.50582482 12.3024523,9.93499209 12.1389646,10.3647346 C11.9754768,10.7944772 11.6590113,11.4388034 11.1907357,12.2977132 L11.1907357,12.2977132 L9,16.2764274 L9,18 L15,18 L15,15.9381562 L11.7792916,15.9381562 L13.1852861,13.2647778 C13.7954457,12.0940601 14.2175944,11.202934 14.4523161,10.5902488 C14.6864539,9.97871422 14.8038147,9.37695959 14.8038147,8.78613548 C14.8038147,7.93815619 14.5831063,7.26161369 14.1416894,6.75650798 C13.7002725,6.25197756 13.0323083,6 12.1389646,6 Z" id="_path-1"/>
    </defs>
    <g id="_ic_stat_sys_sim2" stroke="none" stroke-width="1" fill="none" fill-rule="evenodd">
        <mask id="_mask-2" fill="white">
            <use xlink:href="#_path-1"/>
        </mask>
        <use id="_形状结合" fill="#000000" fill-rule="nonzero" xlink:href="#_path-1"/>
    </g>
</svg>