<?xml version="1.0" encoding="UTF-8"?>
<svg xmlns="http://www.w3.org/2000/svg" xmlns:xlink="http://www.w3.org/1999/xlink" width="24" height="24" viewBox="0 0 24 24" version="1.1">
    <title>ic_contacts_video_call incoming</title>
    <defs>
        <path d="M15.2581746,5 C16.8469624,5 18.1472876,6.23505503 18.2514454,7.7974603 L18.2571746,15.762 L18.2581746,16 C18.2581746,17.5976809 17.0092546,18.9036609 15.4344474,18.9949073 L15.2581746,19 L4.00817459,19 C2.35132034,19 1.00817459,17.6568542 1.00817459,16 L1.00817459,8 C1.00817459,6.34314575 2.35132034,5 4.00817459,5 L15.2581746,5 Z M23.3519908,7.31894815 C23.4339456,7.46711078 23.4847303,7.62998015 23.501766,7.7975652 L23.5081746,7.92398208 L23.5081746,16.0600142 C23.5081746,16.7503701 22.9485305,17.3100142 22.2581746,17.3100142 C22.077963,17.3100142 21.9004306,17.2710552 21.7375468,17.1964331 L21.6183175,17.1338312 L19.2491746,15.722 L19.2491746,8.159 L21.6531407,6.83016585 C22.2572387,6.49601484 23.0178398,6.71485013 23.3519908,7.31894815 Z M13.2775786,8.21966991 C12.9846854,7.9267767 12.5098117,7.9267767 12.2169185,8.21966991 L12.2169185,8.21966991 L5.64621862,14.7903698 L5.55940603,14.889447 C5.42648987,15.0629925 5.3533254,15.2764628 5.3533254,15.4974765 C5.3533254,16.0497613 5.80104065,16.4974765 6.3533254,16.4974765 L6.3533254,16.4974765 L12.5808795,16.4974765 L12.691709,16.4893446 C13.05337,16.4357763 13.3308795,16.1240343 13.3308795,15.7474765 L13.3308795,15.7474765 L13.3227476,15.636647 C13.2691793,15.274986 12.9574373,14.9974765 12.5808795,14.9974765 L12.5808795,14.9974765 L7.5608483,14.9975164 L13.2775786,9.28033009 L13.3447,9.20352615 C13.5684379,8.909555 13.5460641,8.48815536 13.2775786,8.21966991 Z M5.75,8.16659705 C5.33578644,8.16659705 5,8.50238348 5,8.91659705 L5,8.91659705 L5.00038141,14.0232368 L6.500862,12.5227562 L6.5,8.91659705 L6.49186807,8.80576754 C6.43829976,8.4441065 6.12655778,8.16659705 5.75,8.16659705 Z" id="_path-1"/>
    </defs>
    <g id="_ic_contacts_video_call-incoming" stroke="none" stroke-width="1" fill="none" fill-rule="evenodd">
        <mask id="_mask-2" fill="white">
            <use xlink:href="#_path-1"/>
        </mask>
        <use id="_形状结合" fill="#000000" xlink:href="#_path-1"/>
    </g>
</svg>