<?xml version="1.0" encoding="UTF-8"?>
<svg xmlns="http://www.w3.org/2000/svg" xmlns:xlink="http://www.w3.org/1999/xlink" width="24" height="24" viewBox="0 0 24 24" version="1.1">
    <title>ic_contacts_video call out</title>
    <defs>
        <path d="M15.2581746,5 C16.8555134,5 18.1612763,6.24838527 18.2530231,7.82271582 L18.2581746,15.131 L18.2581746,16 C18.2581746,17.5976809 17.0092546,18.9036609 15.4344474,18.9949073 L15.2581746,19 L4.00817459,19 C2.35132034,19 1.00817459,17.6568542 1.00817459,16 L1.00817459,8 C1.00817459,6.34314575 2.35132034,5 4.00817459,5 L15.2581746,5 Z M23.3519908,7.31894815 C23.4339456,7.46711078 23.4847303,7.62998015 23.501766,7.7975652 L23.5081746,7.92398208 L23.5081746,16.0600142 C23.5081746,16.7503701 22.9485305,17.3100142 22.2581746,17.3100142 C22.077963,17.3100142 21.9004306,17.2710552 21.7375468,17.1964331 L21.6183175,17.1338312 L19.2511746,15.723 L19.2511746,8.158 L21.6531407,6.83016585 C22.2572387,6.49601484 23.0178398,6.71485013 23.3519908,7.31894815 Z M12.1439232,8 L5.91636906,8 L5.80553955,8.00813193 C5.48004461,8.05634341 5.22271246,8.31367556 5.17450098,8.6391705 L5.16636906,8.75 L5.17450098,8.8608295 C5.22271246,9.18632444 5.48004461,9.44365659 5.80553955,9.49186807 L5.91636906,9.5 L10.9364002,9.49996014 L5.21966991,15.2171465 L5.15254855,15.2939504 C4.92881068,15.5879215 4.95118446,16.0093212 5.21966991,16.2778066 C5.48593648,16.5440732 5.90260016,16.5682792 6.19621165,16.3504248 L6.28033009,16.2778066 L12.8510299,9.70710678 L12.9378425,9.60802951 C13.0707587,9.43448403 13.1439232,9.22101374 13.1439232,9 C13.1439232,8.44771525 12.6962079,8 12.1439232,8 Z M13.4968671,10.4742397 L11.9963866,11.9747203 L11.9972486,15.5808795 L12.0053805,15.691709 C12.0589488,16.05337 12.3706908,16.3308795 12.7472486,16.3308795 C13.1269443,16.3308795 13.4407395,16.0487256 13.4904019,15.6826501 L13.4972486,15.5808795 L13.4968671,10.4742397 Z" id="_path-1"/>
    </defs>
    <g id="_ic_contacts_video-call-out" stroke="none" stroke-width="1" fill="none" fill-rule="evenodd">
        <mask id="_mask-2" fill="white">
            <use xlink:href="#_path-1"/>
        </mask>
        <use id="_形状结合" fill="#000000" xlink:href="#_path-1"/>
    </g>
</svg>