<?xml version="1.0" encoding="UTF-8"?>
<svg xmlns="http://www.w3.org/2000/svg" xmlns:xlink="http://www.w3.org/1999/xlink" width="24" height="24" viewBox="0 0 24 24" version="1.1">
    <title>ic_contacts_video_call refuse</title>
    <defs>
        <path d="M15.2581746,5 C16.8462783,5 18.1461678,6.23399171 18.2513102,7.79544231 L18.2571746,16.017 L18.2530819,16.1762728 C18.165215,17.6927538 16.9509284,18.9070404 15.4344474,18.9949073 L15.2581746,19 L4.00817459,19 C2.35132034,19 1.00817459,17.6568542 1.00817459,16 L1.00817459,8 C1.00817459,6.34314575 2.35132034,5 4.00817459,5 L15.2581746,5 Z M23.3519908,7.31894815 C23.4339456,7.46711078 23.4847303,7.62998015 23.501766,7.7975652 L23.5081746,7.92398208 L23.5081746,16.0600142 C23.5081746,16.7503701 22.9485305,17.3100142 22.2581746,17.3100142 C22.077963,17.3100142 21.9004306,17.2710552 21.7375468,17.1964331 L21.6183175,17.1338312 L19.2491746,15.721 L19.2491746,8.159 L21.6531407,6.83016585 C22.2572387,6.49601484 23.0178398,6.71485013 23.3519908,7.31894815 Z M11.302,12.741 L10.241,13.802 L12.5407377,16.1013979 L12.6248562,16.1740161 C12.9184677,16.3918705 13.3351313,16.3676645 13.6013979,16.1013979 C13.8676645,15.8351313 13.8918705,15.4184677 13.6740161,15.1248562 L13.6013979,15.0407377 L11.302,12.741 Z M5.46966991,7.96966991 C5.20340335,8.23593648 5.1791973,8.65260016 5.39705176,8.94621165 L5.46966991,9.03033009 L8.474,12.035 L5.46966991,15.0407377 L5.39705176,15.1248562 C5.1791973,15.4184677 5.20340335,15.8351313 5.46966991,16.1013979 C5.73593648,16.3676645 6.15260016,16.3918705 6.44621165,16.1740161 L6.53033009,16.1013979 L7.801,14.83 L12.7502021,9.87970815 L13.6013979,9.03033009 L13.6740161,8.94621165 C13.8918705,8.65260016 13.8676645,8.23593648 13.6013979,7.96966991 C13.3351313,7.70340335 12.9184677,7.6791973 12.6248562,7.89705176 L12.5407377,7.96966991 L9.535,10.974 L6.53033009,7.96966991 L6.44621165,7.89705176 C6.15260016,7.6791973 5.73593648,7.70340335 5.46966991,7.96966991 Z" id="_path-1"/>
    </defs>
    <g id="_ic_contacts_video_call-refuse" stroke="none" stroke-width="1" fill="none" fill-rule="evenodd">
        <mask id="_mask-2" fill="white">
            <use xlink:href="#_path-1"/>
        </mask>
        <use id="_形状结合" fill="#000000" xlink:href="#_path-1"/>
    </g>
</svg>