<?xml version="1.0" encoding="UTF-8"?>
<svg xmlns="http://www.w3.org/2000/svg" xmlns:xlink="http://www.w3.org/1999/xlink" width="24" height="24" viewBox="0 0 24 24" version="1.1">
    <title>ic_contacts_video call missed</title>
    <defs>
        <path d="M15.2581746,5 C16.8469624,5 18.1472876,6.23505503 18.2514454,7.7974603 L18.2571746,16.018 L18.2530819,16.1762728 C18.165215,17.6927538 16.9509284,18.9070404 15.4344474,18.9949073 L15.2581746,19 L4.00817459,19 C2.35132034,19 1.00817459,17.6568542 1.00817459,16 L1.00817459,8 C1.00817459,6.34314575 2.35132034,5 4.00817459,5 L15.2581746,5 Z M23.3519908,7.31894815 C23.4339456,7.46711078 23.4847303,7.62998015 23.501766,7.7975652 L23.5081746,7.92398208 L23.5081746,16.0600142 C23.5081746,16.7503701 22.9485305,17.3100142 22.2581746,17.3100142 C22.077963,17.3100142 21.9004306,17.2710552 21.7375468,17.1964331 L21.6183175,17.1338312 L19.2491746,15.721 L19.2491746,8.159 L21.6531407,6.83016585 C22.2572387,6.49601484 23.0178398,6.71485013 23.3519908,7.31894815 Z M15.8603602,7.42658632 L15.7810201,7.50439669 L9.70917459,14.398 L3.70699279,8.39621862 L3.60791552,8.30940603 C3.46907913,8.2030731 3.30469087,8.13498126 3.13132998,8.11199783 L2.999886,8.1033254 L2.99555374,8.10355339 C2.4827179,8.10355339 2.06004658,8.48959358 2.00228147,8.98693227 L1.99555374,9.10355339 L1.99555374,15.336539 L2.00240036,15.4383095 C2.04754802,15.7711055 2.31098722,16.0345447 2.64378319,16.0796923 L2.74555374,16.086539 L2.8473243,16.0796923 C3.03036208,16.0548611 3.19241944,15.9639967 3.30871736,15.8318782 C3.31291303,15.8264191 3.31733191,15.8213571 3.32168322,15.8162358 C3.33576387,15.7998717 3.34907064,15.7824313 3.36160732,15.7644148 C3.42702656,15.6725876 3.4720987,15.5654878 3.49054607,15.4495395 L3.499886,15.3308795 L3.49917459,10.314 L9.2127002,16.0278066 L9.29305687,16.0976384 C9.40290099,16.1802577 9.52994758,16.2285271 9.65984814,16.2429024 C9.67255605,16.2436466 9.68565439,16.2448361 9.69877073,16.2456825 C9.71395396,16.2470751 9.7289365,16.2474996 9.74391598,16.2474786 C9.76522107,16.2473481 9.78688602,16.2465247 9.80848941,16.2447687 L9.8428214,16.2408358 L9.8428214,16.2408358 C9.86743849,16.2380432 9.89190347,16.2336869 9.91614514,16.2281129 C9.92562452,16.225091 9.93536376,16.2225896 9.94505774,16.2198908 C10.0669506,16.1876614 10.1820284,16.1232429 10.2776926,16.0275786 C10.305477,15.9997943 10.3306256,15.9703724 10.3531386,15.9396235 L16.9068573,8.49560331 L16.9739904,8.40704571 C17.1727715,8.10019989 17.1221705,7.68591243 16.839542,7.43708139 C16.5569135,7.18825035 16.1395535,7.19053685 15.8603602,7.42658632 Z M9.5807655,7.75 L4.47412573,7.75038141 L5.97460632,9.250862 L9.5807655,9.25 L9.691595,9.24186807 C10.053256,9.18829976 10.3307655,8.87655778 10.3307655,8.5 C10.3307655,8.08578644 9.99497906,7.75 9.5807655,7.75 Z" id="_path-1"/>
    </defs>
    <g id="_ic_contacts_video-call-missed" stroke="none" stroke-width="1" fill="none" fill-rule="evenodd">
        <mask id="_mask-2" fill="white">
            <use xlink:href="#_path-1"/>
        </mask>
        <use id="_形状结合" fill="#000000" xlink:href="#_path-1"/>
    </g>
</svg>