<?xml version="1.0" encoding="UTF-8"?>
<svg xmlns="http://www.w3.org/2000/svg" xmlns:xlink="http://www.w3.org/1999/xlink" width="24" height="24" viewBox="0 0 24 24" version="1.1">
    <title>ic_contacts_empty</title>
    <defs>
        <path d="M18,7.25 C20.6233526,7.25 22.75,9.37664744 22.75,12 C22.75,14.6233526 20.6233526,16.75 18,16.75 C17.8932357,16.75 17.787294,16.7464776 17.6822849,16.7395428 L6.3177151,16.7395428 C6.212706,16.7464776 6.10676435,16.75 6,16.75 C3.37664744,16.75 1.25,14.6233526 1.25,12 C1.25,9.37664744 3.37664744,7.25 6,7.25 C8.62335256,7.25 10.75,9.37664744 10.75,12 C10.75,13.2517824 10.2657832,14.3904699 9.47443746,15.2389746 L14.5255625,15.2389746 C13.7342168,14.3904699 13.25,13.2517824 13.25,12 C13.25,9.37664744 15.3766474,7.25 18,7.25 Z M6.25765314,15.2399364 C7.93212921,15.1086065 9.25,13.7082058 9.25,12 C9.25,10.2050746 7.79492544,8.75 6,8.75 C4.20507456,8.75 2.75,10.2050746 2.75,12 C2.75,13.7095662 4.06997057,15.1108367 5.74634788,15.2402477 Z M18.2546525,15.2401703 C19.9305545,15.1102792 21.25,13.7092261 21.25,12 C21.25,10.2050746 19.7949254,8.75 18,8.75 C16.2050746,8.75 14.75,10.2050746 14.75,12 C14.75,13.7082058 16.0678708,15.1086065 17.7423469,15.2399364 Z" id="_path-1"/>
    </defs>
    <g id="_ic_contacts_empty" stroke="none" stroke-width="1" fill="none" fill-rule="evenodd">
        <mask id="_mask-2" fill="white">
            <use xlink:href="#_path-1"/>
        </mask>
        <use id="_形状结合" fill="#000000" fill-rule="nonzero" xlink:href="#_path-1"/>
    </g>
</svg>