<?xml version="1.0" encoding="UTF-8"?>
<svg xmlns="http://www.w3.org/2000/svg" xmlns:xlink="http://www.w3.org/1999/xlink" width="24" height="24" viewBox="0 0 24 24" version="1.1">
    <title>ic_contacts_voicemaile_filled</title>
    <defs>
        <path d="M19,3 C21.209139,3 23,4.790861 23,7 L23,17 C23,19.209139 21.209139,21 19,21 L5,21 C2.790861,21 1,19.209139 1,17 L1,7 C1,4.790861 2.790861,3 5,3 L19,3 Z M17,8.25 C14.9289322,8.25 13.25,9.92893219 13.25,12 C13.25,12.8393676 13.5257712,13.6143254 13.9916525,14.2392123 L10.0083475,14.2392123 C10.4742288,13.6143254 10.75,12.8393676 10.75,12 C10.75,9.92893219 9.07106781,8.25 7,8.25 C4.92893219,8.25 3.25,9.92893219 3.25,12 C3.25,14.0710678 4.92893219,15.75 7,15.75 C7.09339575,15.75 7.18599405,15.7465857 7.2776769,15.7398752 L16.7223231,15.7398752 C16.8140059,15.7465857 16.9066042,15.75 17,15.75 C19.0710678,15.75 20.75,14.0710678 20.75,12 C20.75,9.92893219 19.0710678,8.25 17,8.25 Z M7,9.75 C8.24264069,9.75 9.25,10.7573593 9.25,12 C9.25,13.1702905 8.3565287,14.1318995 7.21450551,14.2399078 L6.78549449,14.2399078 C5.6434713,14.1318995 4.75,13.1702905 4.75,12 C4.75,10.7573593 5.75735931,9.75 7,9.75 Z M17,9.75 C18.2426407,9.75 19.25,10.7573593 19.25,12 C19.25,13.1702905 18.3565287,14.1318995 17.2145055,14.2399078 L16.7854945,14.2399078 C15.6434713,14.1318995 14.75,13.1702905 14.75,12 C14.75,10.7573593 15.7573593,9.75 17,9.75 Z" id="_path-1"/>
    </defs>
    <g id="_ic_contacts_voicemaile_filled" stroke="none" stroke-width="1" fill="none" fill-rule="evenodd">
        <mask id="_mask-2" fill="white">
            <use xlink:href="#_path-1"/>
        </mask>
        <use id="_形状结合" fill="#000000" xlink:href="#_path-1"/>
    </g>
</svg>