<?xml version="1.0" encoding="UTF-8"?>
<svg xmlns="http://www.w3.org/2000/svg" xmlns:xlink="http://www.w3.org/1999/xlink" width="24" height="24" viewBox="0 0 24 24" version="1.1">
    <title>ic_contact_switch_voicemail</title>
    <defs>
        <path d="M20.25,12 C21.3545695,12 22.25,12.8954305 22.25,14 L22.25,20 C22.25,21.1045695 21.3545695,22 20.25,22 L14.25,22 C13.1454305,22 12.25,21.1045695 12.25,20 L12.25,14 C12.25,12.8954305 13.1454305,12 14.25,12 L20.25,12 Z M20.25,13.5 L14.25,13.5 C13.9738576,13.5 13.75,13.7238576 13.75,14 L13.75,20 C13.75,20.2761424 13.9738576,20.5 14.25,20.5 L20.25,20.5 C20.5261424,20.5 20.75,20.2761424 20.75,20 L20.75,14 C20.75,13.7238576 20.5261424,13.5 20.25,13.5 Z M17.7617188,14.5234375 L19.4331055,19.5 L18.390625,19.5 L18.0522461,18.4267578 L16.4389648,18.4267578 L16.1040039,19.5 L15.0615234,19.5 L16.7397461,14.5234375 L17.7617188,14.5234375 Z M17.2592773,15.890625 L17.2387695,15.890625 L16.6850586,17.644043 L17.8095703,17.644043 L17.2592773,15.890625 Z M11.75,8.75 C12.1642136,8.75 12.5,9.08578644 12.5,9.5 C12.5,11.4652825 11.410154,13.2381996 9.70495724,14.1416741 C9.21109581,14.4033396 8.6791794,14.5841207 8.12606602,14.6771141 L8.125,16.3928571 C8.125,16.8662441 7.78921356,17.25 7.375,17.25 C6.96078644,17.25 6.625,16.8662441 6.625,16.3928571 L6.62552193,14.7132459 C4.02039165,14.4044871 2,12.1881874 2,9.5 C2,9.08578644 2.33578644,8.75 2.75,8.75 C3.16421356,8.75 3.5,9.08578644 3.5,9.5 C3.5,11.5710678 5.17893219,13.25 7.25,13.25 C7.87041821,13.25 8.46753235,13.0997687 9.00268657,12.8162248 C10.2217924,12.1702987 11,10.9043422 11,9.5 C11,9.08578644 11.3357864,8.75 11.75,8.75 Z M7.25,2 C8.90685425,2 10.25,3.34314575 10.25,5 L10.25,9.5 C10.25,11.1568542 8.90685425,12.5 7.25,12.5 C5.59314575,12.5 4.25,11.1568542 4.25,9.5 L4.25,5 C4.25,3.34314575 5.59314575,2 7.25,2 Z M7.25,3.5 C6.42157288,3.5 5.75,4.17157288 5.75,5 L5.75,9.5 C5.75,10.3284271 6.42157288,11 7.25,11 C8.07842712,11 8.75,10.3284271 8.75,9.5 L8.75,5 C8.75,4.17157288 8.07842712,3.5 7.25,3.5 Z M12.3234908,3.58485495 C13.4079566,3.84752996 14.4321728,4.32951702 15.3421971,5.01526953 C15.9163468,5.44792235 16.4238896,5.9459768 16.8579291,6.49579686 L17.0677303,6.77329323 L17.1920591,6.95024879 L17.1920591,6.95024879 L17.3482917,7.18772783 C17.9575219,8.14974214 18.3539691,9.21961853 18.5273004,10.3238357 L18.5532909,10.5239759 C18.5575955,10.5629205 18.5618865,10.604659 18.5661639,10.6491914 C18.5751291,10.7425298 18.548801,10.8358402 18.49237,10.9107266 C18.3677299,11.0761297 18.1326033,11.1091746 17.9672003,10.9845344 L15.6701879,9.25337393 C15.5048441,9.12877839 15.4717544,8.89376268 15.5962665,8.72835601 L16.3524434,7.72291685 L16.2597054,7.58001066 C15.8286108,6.95022335 15.2931796,6.38698477 14.6651552,5.91373448 C13.8783618,5.32084309 12.9945408,4.90492479 12.0586558,4.67823842 C11.7567263,4.60510625 11.5712494,4.30105868 11.6443815,3.99912917 C11.7175137,3.69719966 12.0215613,3.51172278 12.3234908,3.58485495 Z" id="_path-1"/>
    </defs>
    <g id="_ic_contact_switch_voicemail" stroke="none" stroke-width="1" fill="none" fill-rule="evenodd">
        <mask id="_mask-2" fill="white">
            <use xlink:href="#_path-1"/>
        </mask>
        <use id="_合并形状" fill="#000000" fill-rule="nonzero" xlink:href="#_path-1"/>
    </g>
</svg>