<?xml version="1.0" encoding="UTF-8"?>
<svg xmlns="http://www.w3.org/2000/svg" xmlns:xlink="http://www.w3.org/1999/xlink" width="24" height="24" viewBox="0 0 24 24" version="1.1">
    <title>ic_contact_ans_vvm</title>
    <defs>
        <path d="M3.25,10.5 C3.66421356,10.5 4,10.8357864 4,11.25 C4,14.5637085 6.6862915,17.25 10,17.25 C10.5182152,17.25 11.0210861,17.1843031 11.5007383,17.0607837 L11.5008968,18.5997907 C11.2549189,18.649753 11.0045683,18.6876768 10.750487,18.7129202 L10.75,21.25 C10.75,21.6642136 10.4142136,22 10,22 C9.60057978,22 9.27408478,21.68777 9.25127317,21.2940682 L9.25,21.25 L9.25051918,18.7130201 C5.46027831,18.3369673 2.5,15.1391887 2.5,11.25 C2.5,10.8357864 2.83578644,10.5 3.25,10.5 Z M20.4,13.5 C21.5045695,13.5 22.4,14.3954305 22.4,15.5 L22.4,19.6 C22.4,20.7045695 21.5045695,21.6 20.4,21.6 L14.5,21.6 C13.3954305,21.6 12.5,20.7045695 12.5,19.6 L12.5,15.5 C12.5,14.3954305 13.3954305,13.5 14.5,13.5 L20.4,13.5 Z M19.7,15.8625 C18.7680195,15.8625 18.0125,16.6180195 18.0125,17.55 C18.0125,17.8738542 18.1037286,18.1764009 18.261889,18.433343 L18.3464344,18.5579013 L16.5535656,18.5579013 C16.7633277,18.2766579 16.8875,17.9278299 16.8875,17.55 C16.8875,16.6180195 16.1319805,15.8625 15.2,15.8625 C14.3170711,15.8625 13.5925172,16.540584 13.5186941,17.404396 L13.5125,17.55 L13.5186941,17.695604 C13.5881746,18.5086036 14.2340811,19.1570828 15.0459333,19.2305613 L15.2,19.2375 L15.3245,19.2315 L19.5751392,19.2329507 C19.6163658,19.2359659 19.6580038,19.2375 19.7,19.2375 C20.6319805,19.2375 21.3875,18.4819805 21.3875,17.55 C21.3875,16.6180195 20.6319805,15.8625 19.7,15.8625 Z M15.2,16.5375 C15.7591883,16.5375 16.2125,16.9908117 16.2125,17.55 C16.2125,18.0317622 15.8760301,18.4349377 15.4252665,18.5373501 L15.310323,18.5565588 L15.2,18.5625 C14.6408117,18.5625 14.1875,18.1091883 14.1875,17.55 C14.1875,16.9908117 14.6408117,16.5375 15.2,16.5375 Z M19.7,16.5375 C20.2591883,16.5375 20.7125,16.9908117 20.7125,17.55 C20.7125,18.0317622 20.3760301,18.4349377 19.9252665,18.5373501 L19.810323,18.5565588 L19.7,18.5625 C19.1408117,18.5625 18.6875,18.1091883 18.6875,17.55 C18.6875,16.9908117 19.1408117,16.5375 19.7,16.5375 Z M10,2 C12.1421954,2 13.8910789,3.68396847 13.9951047,5.80035966 L14,6 L14,11.25 C14,11.7201181 13.9188983,12.1712939 13.7699229,12.5902995 C12.6442277,12.8713826 11.7713145,13.7877815 11.5529163,14.9360898 C11.0760308,15.1385804 10.5510271,15.25 10,15.25 C7.85780461,15.25 6.10892112,13.5660315 6.00489531,11.4496403 L6,11.25 L6,6 C6,3.790861 7.790861,2 10,2 Z M10,3.5 C8.6745166,3.5 7.58996133,4.53153594 7.50531768,5.83562431 L7.5,6 L7.5,11.25 C7.5,12.6307119 8.61928813,13.75 10,13.75 C11.3254834,13.75 12.4100387,12.7184641 12.4946823,11.4143757 L12.5,11.25 L12.5,6 C12.5,4.61928813 11.3807119,3.5 10,3.5 Z M16.75,10.5 C17.1642136,10.5 17.5,10.8357864 17.5,11.25 C17.5,11.6762084 17.4644485,12.0941132 17.3961491,12.5009109 L15.8694646,12.5006661 C15.9550002,12.0972636 16,11.6788869 16,11.25 C16,10.8357864 16.3357864,10.5 16.75,10.5 Z" id="_path-1"/>
    </defs>
    <g id="_ic_contact_ans_vvm" stroke="none" stroke-width="1" fill="none" fill-rule="evenodd">
        <mask id="_mask-2" fill="white">
            <use xlink:href="#_path-1"/>
        </mask>
        <use id="_形状结合" fill="#000000" fill-rule="nonzero" xlink:href="#_path-1"/>
    </g>
</svg>