<?xml version="1.0" encoding="UTF-8"?>
<svg xmlns="http://www.w3.org/2000/svg" xmlns:xlink="http://www.w3.org/1999/xlink" width="24" height="24" viewBox="0 0 24 24" version="1.1">
    <title>ic_contacts_5G</title>
    <g id="_ic_contacts_5G" stroke="none" stroke-width="1" fill="none" fill-rule="evenodd">
        <path d="M18.5,1.5 C20.709139,1.5 22.5,3.290861 22.5,5.5 L22.5,18.5 C22.5,20.709139 20.709139,22.5 18.5,22.5 L5.5,22.5 C3.290861,22.5 1.5,20.709139 1.5,18.5 L1.5,5.5 C1.5,3.290861 3.290861,1.5 5.5,1.5 L18.5,1.5 Z M15.6563301,6 C14.5654909,6 13.7026898,6.44104742 13.0667924,7.32370842 C12.4320294,8.20580326 12.1143643,9.76220807 12.1143643,11.9923567 C12.1143643,14.2219391 12.4161462,15.7806086 13.0191426,16.6683652 C13.6232735,17.5566879 14.465086,18 15.5451474,18 C16.3285322,18 16.9746403,17.8233546 17.4829044,17.4694975 C17.9911686,17.1150743 18.3303895,16.6157113 18.5,15.9708422 L18.5,15.9708422 L18.5,11.1832979 L15.3227818,11.1832979 L15.3227818,13.1807502 L16.3869599,13.1807502 L16.3869599,15.3050248 C16.2593266,15.6854919 16.0165397,15.8757254 15.6563301,15.8757254 C15.2325876,15.8757254 14.9177588,15.5643312 14.7112765,14.9409766 C14.5047942,14.3170559 14.401553,13.3341826 14.401553,11.9923567 C14.401553,9.40268931 14.7986344,8.10785563 15.5927971,8.10785563 C15.8043848,8.10785563 15.9791006,8.20863411 16.1163773,8.40962491 C16.2547885,8.61004954 16.3761819,8.96956829 16.4822594,9.48704883 L16.4822594,9.48704883 L18.4676662,8.58343949 C18.3190443,7.71719745 18.0178298,7.06949752 17.5623207,6.64203822 C17.1073789,6.21401274 16.4714815,6 15.6563301,6 Z M10.8651274,6 L6.19430381,6 L5.6771831,12.3870968 L7.40630548,13.1774194 C7.48133416,12.8773041 7.5731,12.6434332 7.68102586,12.4763825 C7.78837458,12.3099078 7.92919763,12.2263825 8.10118644,12.2263825 C8.54270134,12.2263825 8.76374735,12.828341 8.76374735,14.0328341 C8.76374735,14.6353687 8.71815301,15.0892857 8.62696431,15.3957373 C8.53462132,15.7021889 8.36494109,15.8554147 8.11734646,15.8554147 C7.9234262,15.8554147 7.76990599,15.750576 7.65678583,15.5408986 C7.54424282,15.3312212 7.44959126,14.984447 7.37456258,14.500576 L7.37456258,14.500576 L5.5,15.5489631 C5.71527458,16.4193548 6.03270359,17.0460829 6.45286417,17.4274194 C6.87360189,17.8093318 7.44439697,18 8.16582653,18 C9.1463936,18 9.8920632,17.6589862 10.4045668,16.9763825 C10.9153389,16.2937788 11.1715907,15.2747696 11.1715907,13.9193548 C11.1715907,12.7050691 10.9695904,11.78053 10.5655898,11.1457373 C10.1615893,10.5109447 9.56655418,10.1941244 8.77990738,10.1941244 C8.43535262,10.1941244 8.14966651,10.2476959 7.9234262,10.3554147 L7.9234262,10.3554147 L8.11734646,8.00057604 L10.8651274,8.00057604 L10.8651274,6 Z" id="_形状结合" fill="#000000" fill-rule="nonzero"/>
    </g>
</svg>