<?xml version="1.0" encoding="UTF-8"?>
<svg xmlns="http://www.w3.org/2000/svg" width="24" height="24" version="1.1" viewBox="0 0 60 60">
  <path fill="#000" fill-rule="nonzero" stroke="none" stroke-width="1" d="M12.1756053,0.686110029 C10.883391,1.43502041 10.3614915,3.0563307 11.0008712,4.42788008 L17.006,17.309 L6.105,17.309 L2.07354165,13.7395245 C1.7905365,13.4889514 1.42561215,13.3506149 1.04761905,13.3506149 C0.192892649,13.3506149 -0.5,14.0435075 -0.5,14.8982339 L-0.5,29.1017661 C-0.5,29.4797592 -0.361663452,29.8446836 -0.111090374,30.1276887 L-0.0069829345,30.2345838 C0.569410721,30.7724542 1.4712475,30.7937474 2.07354165,30.2604755 L6.105,26.69 L17.006,26.69 L11.0008712,39.5721199 C10.3359163,40.9985313 10.927001,42.695084 12.3343435,43.3994999 L12.5144862,43.4831042 C13.9066355,44.079729 15.5393706,43.6596693 16.4678515,42.4418298 L28.476,26.69 L40.8095238,26.6904762 C43.4000023,26.6904762 45.5,24.5904785 45.5,21.9955703 L45.4951779,21.7810698 C45.3830655,19.2926008 43.3300957,17.3095238 40.8139535,17.3095238 L28.923,17.309 L16.4922819,1.52922613 C15.5021978,0.272346968 13.7651273,-0.115648817 12.3343435,0.600500121 L12.1756053,0.686110029 Z" transform="translate(8 8)"/>
</svg>