<?xml version="1.0" encoding="UTF-8"?>
<svg xmlns="http://www.w3.org/2000/svg" width="24" height="24" version="1.1" viewBox="0 0 62 60">
  <g fill="none" fill-rule="evenodd" stroke="none" stroke-width="1">
    <rect width="62" height="60" x="0" y="0"/>
    <path fill="#000" d="M31,12 C42.5979797,12 52,21.4020203 52,33 C52,44.5979797 42.5979797,54 31,54 C19.4020203,54 10,44.5979797 10,33 C10,21.4020203 19.4020203,12 31,12 Z M31,21 C29.6745166,21 28.5899613,22.0315359 28.5053177,23.3356243 L28.5,23.5 L28.5,32.5 C28.5,33.244864 28.825754,33.9136442 29.3425705,34.3716487 L29.4017415,34.4328305 L37.1799161,42.2110051 C38.1562269,43.1873158 39.7391393,43.1873158 40.71545,42.2110051 C41.6493125,41.2771426 41.6899152,39.7882797 40.8372582,38.8061564 L40.71545,38.6754711 L33.5,31.46 L33.5,23.5 C33.5,22.1745166 32.4684641,21.0899613 31.1643757,21.0053177 L31,21 Z M48.3435627,9.13447679 C50.8469807,10.9566311 53.0523009,13.1629356 54.873332,15.6671706 C55.6853603,16.7838511 55.4383909,18.3473785 54.3217105,19.1594068 C53.20503,19.9714351 51.6415026,19.7244658 50.8294743,18.6077853 C49.3157537,16.5261558 47.4820879,14.6916716 45.4011343,13.177015 C44.2848182,12.3644858 44.0385503,10.8008478 44.8510794,9.68453167 C45.6636086,8.56821558 47.2272466,8.32194762 48.3435627,9.13447679 Z M17.1403081,9.68966317 C17.9532486,10.8056798 17.7075569,12.3694084 16.5915403,13.1823489 C14.5162657,14.6940422 12.687152,16.5239134 11.1763248,18.5998139 C10.3638489,19.7161688 8.80022261,19.9625113 7.68386777,19.1500354 C6.56751292,18.3375594 6.32117039,16.7739331 7.13364632,15.6575783 C8.95119406,13.1602388 11.1510395,10.9594824 13.6476224,9.14089534 C14.763639,8.32795485 16.3273677,8.57364657 17.1403081,9.68966317 Z"/>
  </g>
</svg>