<?xml version="1.0" encoding="UTF-8"?>
<svg xmlns="http://www.w3.org/2000/svg" width="24" height="24" version="1.1" viewBox="0 0 100 60">
  <g fill="none" fill-rule="evenodd" stroke="none" stroke-width="1">
    <path fill="#000" fill-rule="nonzero" d="M54.7050262,19.0961464 C47.1050262,20.6961464 40.9050262,21.3961464 36.5050262,25.9961464 C34.3050262,28.2961464 32.9050262,31.5961464 33.0050262,35.4961464 C33.0050262,37.0961464 33.4050262,38.8961464 33.9050262,40.1961464 C35.4050262,37.5961464 37.0050262,34.7961464 39.3050262,32.8961464 C43.7050262,29.1961464 46.3050262,28.5961464 48.8050262,27.4961464 C53.9050262,25.3961464 53.7050262,25.2961464 53.8050262,25.4961464 C53.9050262,25.6961464 53.4050262,26.0961464 50.7050262,27.5961464 C44.9050262,30.5961464 41.5050262,33.8961464 39.4050262,37.0961464 C37.7050262,39.6961464 36.8050262,42.0961464 36.1050262,44.1961464 C38.6050262,44.4961464 43.8050262,44.7961464 48.9050262,42.1961464 C54.0050262,39.5961464 56.4050262,36.7961464 58.0050262,34.2961464 C61.1050262,29.2961464 61.9050262,20.2961464 61.5050262,16.5961464 C61.2050262,14.7961464 62.3050262,17.4961464 54.7050262,19.0961464 Z"/>
    <path fill="#000" d="M75.348,8 C80.106,8 84,11.893 84,16.652 L84,16.652 L84,43.348 C84,48.107 80.106,52 75.348,52 L75.348,52 L18.651,52 C13.893,52 10,48.107 10,43.348 L10,43.348 L10,16.652 C10,11.893 13.893,8 18.651,8 L18.651,8 Z M75,12 L19,12 C16.2385763,12 14,14.2385763 14,17 L14,17 L14,43 C14,45.7614237 16.2385763,48 19,48 L19,48 L75,48 C77.7614237,48 80,45.7614237 80,43 L80,43 L80,17 C80,14.2385763 77.7614237,12 75,12 L75,12 Z M91,18 C92.657,18 94,19.343 94,21 L94,39 C94,40.657 92.657,42 91,42 C89.343,42 88,40.657 88,39 L88,21 C88,19.343 89.343,18 91,18 Z" opacity=".9"/>
  </g>
</svg>