<?xml version="1.0" encoding="UTF-8"?>
<svg xmlns="http://www.w3.org/2000/svg" width="24" height="24" version="1.1" viewBox="0 0 100 60">
  <g fill="none" fill-rule="evenodd" stroke="none" stroke-width="1" transform="translate(10 8)">
    <path fill="#000" d="M65.348,0 C70.106,0 74,3.893 74,8.652 L74,8.652 L74,35.348 C74,40.107 70.106,44 65.348,44 L65.348,44 L8.651,44 C3.893,44 0,40.107 0,35.348 L0,35.348 L0,8.652 C0,3.893 3.893,0 8.651,0 L8.651,0 Z M65,4 L9,4 C6.23857625,4 4,6.23857625 4,9 L4,9 L4,35 C4,37.7614237 6.23857625,40 9,40 L9,40 L65,40 C67.7614237,40 70,37.7614237 70,35 L70,35 L70,9 C70,6.23857625 67.7614237,4 65,4 L65,4 Z M81,10 C82.657,10 84,11.343 84,13 L84,31 C84,32.657 82.657,34 81,34 C79.343,34 78,32.657 78,31 L78,13 C78,11.343 79.343,10 81,10 Z" opacity=".9"/>
    <rect width="58" height="28" x="8" y="8" fill="#CCC" rx="3"/>
    <path fill="#000" fill-rule="nonzero" d="M10.1,12.7 L23.9,20.1 L13.7,20.1 L13.7,23.8 L9.23705556e-14,16.4 L10.1,16.4 L10.1,12.7 Z M28.5,-3.62376795e-13 L49.7,11.3 L34.2,11.3 L34.2,16.9 L13,5.7 L28.5,5.7 L28.5,-3.62376795e-13 Z" transform="translate(12 10)"/>
  </g>
</svg>