<?xml version="1.0" encoding="UTF-8"?>
<svg xmlns="http://www.w3.org/2000/svg" width="24" height="24" version="1.1" viewBox="0 0 100 60">
  <g fill="none" fill-rule="evenodd" stroke="none" stroke-width="1">
    <rect width="100" height="60" x="0" y="0"/>
    <path fill="#000" d="M75.348,8 C80.106,8 84,11.893 84,16.652 L84,16.652 L84,43.348 C84,48.107 80.106,52 75.348,52 L75.348,52 L18.651,52 C13.893,52 10,48.107 10,43.348 L10,43.348 L10,16.652 C10,11.893 13.893,8 18.651,8 L18.651,8 Z M75,12 L19,12 C16.2385763,12 14,14.2385763 14,17 L14,17 L14,43 C14,45.7614237 16.2385763,48 19,48 L19,48 L75,48 C77.7614237,48 80,45.7614237 80,43 L80,43 L80,17 C80,14.2385763 77.7614237,12 75,12 L75,12 Z M91,18 C92.657,18 94,19.343 94,21 L94,39 C94,40.657 92.657,42 91,42 C89.343,42 88,40.657 88,39 L88,21 C88,19.343 89.343,18 91,18 Z" opacity=".9"/>
    <rect width="58" height="28" x="18" y="16" fill="#CCC" rx="3"/>
    <path fill="#000" fill-rule="nonzero" d="M23.4291796,25.46138 L25.2099163,26.9451545 C25.1150456,27.6282903 25.0520377,28.3180861 25.0215375,29.0126669 L25.005314,29.5084169 L24.9999421,30.0021047 C24.9999421,34.16163 26.1559942,38.1738021 28.3310061,41.6481574 L28.5864832,42.0466356 L28.8537498,42.4440552 C29.161952,42.9023454 29.0402817,43.5237102 28.5819915,43.8319124 C28.1564364,44.1181001 27.590271,44.0336325 27.2647974,43.6531728 L27.1941344,43.5601541 L26.9207108,43.1534682 C24.4523443,39.393391 23.0986841,35.0357101 23.0051945,30.4964319 L23,29.9913415 L23.0056039,29.476115 C23.0348532,28.1184452 23.1773311,26.7764646 23.4291796,25.46138 Z M66.9950943,39.1930139 L68.8036198,40.0456166 C68.376686,40.9708618 67.8894569,41.8710219 67.3436489,42.741121 L67.0739831,43.1612942 L66.8077165,43.5587139 C66.5003098,44.0175379 65.879157,44.1402859 65.4203329,43.8328792 C64.994282,43.54743 64.8580109,42.991455 65.0868444,42.5461261 L65.1461676,42.4454955 L65.4072439,42.0559018 C66.0098226,41.1379901 66.5399617,40.1812054 66.9950943,39.1930139 Z M32.2294998,32.7960118 L34.8448436,34.9748019 C35.68908,37.3792313 37.139982,39.5390215 39.0794051,41.2504785 C39.4935078,41.6159062 39.5329667,42.2478404 39.167539,42.6619431 C38.8021112,43.0760458 38.170177,43.1155047 37.7560743,42.7500769 C34.8186407,40.1579188 32.8689374,36.6543022 32.2294998,32.7960118 Z M68.2492657,35.7249359 L69.927084,37.1186111 C69.815096,37.4798681 69.6945276,37.8383639 69.565467,38.1938427 L67.7487864,37.3368123 C67.9362828,36.8063704 68.1032282,36.2687323 68.2492657,35.7249359 Z M66.6506261,16.2616824 L66.7365834,16.3507857 L66.8070321,16.4439668 L67.0785428,16.8497805 C69.5472972,20.6100564 70.9011835,24.9680805 70.9946888,29.5077346 L70.9998842,30.0128669 L70.9942812,30.5280503 C70.9617868,32.0364747 70.7895223,33.5255328 70.4828011,34.9798207 L68.7211504,33.5188143 C68.8548661,32.6858388 68.9409943,31.8422388 68.9783503,30.99146 L68.9945711,30.4957511 L68.9999421,30.0021047 C68.9999421,25.8422323 67.843696,21.8297403 65.6671719,18.3534502 L65.4115143,17.9547416 L65.144852,17.5562425 C64.8377056,17.0972442 64.9608059,16.4761611 65.4198042,16.1690146 C65.8104993,15.9075745 66.3186288,15.957859 66.6506261,16.2616824 Z M59.9558184,28.8420156 L61.9916902,30.5326535 C61.9511322,31.8421095 61.7615876,33.1246955 61.4345938,34.3604951 L59.5905781,33.4929434 C59.8598362,32.3638089 59.9999421,31.1929696 59.9999421,29.9993111 C59.9999421,29.6109132 59.9851084,29.2249312 59.9558184,28.8420156 Z M32.5703351,25.619104 L34.4231268,26.4482229 C34.1448434,27.5950776 33.9999421,28.7853948 33.9999421,29.9993111 C33.9999421,30.589767 34.0342245,31.1746393 34.1014634,31.7516421 L31.9999421,29.9993111 L31.9999421,29.9993111 C31.9999421,28.4979496 32.195778,27.028031 32.5703351,25.619104 Z M56.245928,17.2504148 C59.339286,19.9810791 61.3368029,23.7226658 61.8616909,27.8246452 L59.3988091,25.7823415 C58.6077834,23.0746579 57.0626821,20.6391749 54.9223494,18.7497945 C54.5083071,18.3842984 54.4689527,17.7523576 54.8344488,17.3383154 C55.199945,16.9242731 55.8318857,16.8849187 56.245928,17.2504148 Z M24.381273,21.9584186 L26.2126198,22.777185 C25.9930068,23.4091992 25.8024951,24.0512906 25.6416851,24.7017132 L23.9507633,23.2921683 C24.0811739,22.8433617 24.2247323,22.3986181 24.381273,21.9584186 Z M37,20 L37.5316537,20.3293596 C37.3480962,20.5466751 37.1710129,20.7688207 37.0005664,20.9955153 L37,20 Z M28.5825179,16.1699787 C29.0082363,16.4559236 29.1438601,17.0120569 28.9145083,17.4571191 L28.8550681,17.5576806 L28.5932182,17.9474269 C27.9685947,18.8988204 27.4217947,19.8919803 26.9556772,20.9185922 L25.1302207,20.1031495 C25.5730214,19.1264823 26.0827384,18.1772771 26.657379,17.2613228 L26.9271538,16.8410278 L27.1948161,16.4425288 C27.5027567,15.9840629 28.124052,15.8620381 28.5825179,16.1699787 Z"/>
    <polygon fill="#000" fill-rule="nonzero" points="73.4 40 49.3 20 49.3 27.6 37 20 37 27.6 20 20 44 40 44 31.8 56 40 56 31.8"/>
  </g>
</svg>