<?xml version="1.0" encoding="UTF-8"?>
<svg xmlns="http://www.w3.org/2000/svg" width="24" height="24" version="1.1" viewBox="0 0 100 60">
  <g fill="none" fill-rule="evenodd" stroke="none" stroke-width="1" transform="translate(10 8)">
    <path fill="#000" d="M65.348,0 C70.106,0 74,3.893 74,8.652 L74,8.652 L74,35.348 C74,40.107 70.106,44 65.348,44 L65.348,44 L8.651,44 C3.893,44 0,40.107 0,35.348 L0,35.348 L0,8.652 C0,3.893 3.893,0 8.651,0 L8.651,0 Z M65,4 L9,4 C6.23857625,4 4,6.23857625 4,9 L4,9 L4,35 C4,37.7614237 6.23857625,40 9,40 L9,40 L65,40 C67.7614237,40 70,37.7614237 70,35 L70,35 L70,9 C70,6.23857625 67.7614237,4 65,4 L65,4 Z M81,10 C82.657,10 84,11.343 84,13 L84,31 C84,32.657 82.657,34 81,34 C79.343,34 78,32.657 78,31 L78,13 C78,11.343 79.343,10 81,10 Z" opacity=".9"/>
    <rect width="58" height="28" x="8" y="8" fill="#CCC" rx="3"/>
    <g fill="#000" fill-rule="nonzero" transform="translate(13 8)">
      <path d="M0.0947913442,11.8553231 L2.02798818,12.875462 C2.02569701,12.9211759 2.02354672,12.966911 2.0215375,13.0126669 L2.00531395,13.5084169 L1.99994208,14.0021047 C1.99994208,18.16163 3.15599418,22.1738021 5.33100612,25.6481574 L5.58648325,26.0466356 L5.85374978,26.4440552 C6.16195197,26.9023454 6.04028165,27.5237102 5.58199151,27.8319124 C5.15643639,28.1181001 4.59027096,28.0336325 4.26479745,27.6531728 L4.19413437,27.5601541 L3.92071084,27.1534682 C1.45234431,23.393391 0.0986841115,19.0357101 0.00519446152,14.4964319 L2.48689958e-14,13.9913415 L0.00560386174,13.476115 C0.0173024232,12.9331022 0.0471138582,12.3925993 0.0947913442,11.8553231 Z M44.3436489,26.741121 L44.0739831,27.1612942 L43.8077165,27.5587139 C43.5003098,28.0175379 42.879157,28.1402859 42.4203329,27.8328792 C41.994282,27.54743 41.8580109,26.991455 42.0868444,26.5461261 L42.1461676,26.4454955 L42.4072439,26.0559018 C43.7542282,24.0040327 44.7392418,21.7579202 45.3336114,19.4009621 L47.3900346,19.4008058 C46.7941365,21.9934228 45.7684961,24.4697028 44.3436489,26.741121 Z M33.2438098,26.7500769 C32.8297072,27.1155047 32.1977729,27.0760458 31.8323452,26.6619431 C31.4669175,26.2478404 31.5063764,25.6159062 31.920479,25.2504785 C33.7446105,23.6407614 35.1365761,21.6344303 35.9980733,19.4009694 L38.1231543,19.4011613 C37.1794603,22.2213383 35.5040335,24.7555273 33.2438098,26.7500769 Z M9.20830571,16.6649571 L11.5059298,17.8756473 C12.264305,20.7204048 13.8487194,23.2819948 16.0794051,25.2504785 C16.4935078,25.6159062 16.5329667,26.2478404 16.167539,26.6619431 C15.8021112,27.0760458 15.170177,27.1155047 14.7560743,26.7500769 C11.7854164,24.1285998 9.82495894,20.5749292 9.20830571,16.6649571 Z M36.9369956,12.6179084 L38.9974341,13.7051622 C38.9991045,13.8030718 38.9999421,13.9011242 38.9999421,13.9993111 C38.9999421,15.1563098 38.8836397,16.2946341 38.6588688,17.4007608 L36.6121963,17.4010005 C36.8673312,16.3002962 36.9999421,15.1606029 36.9999421,13.9993111 C36.9999421,13.5350209 36.9787451,13.0741828 36.9369956,12.6179084 Z M43.6506261,0.261682406 L43.7365834,0.350785716 L43.8070321,0.443966827 L44.0785428,0.849780496 C46.5472972,4.61005636 47.9011835,8.96808047 47.9946888,13.5077346 L47.9998842,14.0128669 L47.9942812,14.5280503 C47.9826137,15.0696697 47.9529261,15.6087923 47.9054645,16.144705 L45.9721509,15.1236487 C45.9743482,15.0796054 45.9764147,15.0355423 45.9783503,14.99146 L45.9945711,14.4957511 L45.9999421,14.0021047 C45.9999421,9.84223233 44.843696,5.82974035 42.6671719,2.35345024 L42.4115143,1.95474156 L42.144852,1.55624254 C41.8377056,1.09724418 41.9608059,0.476161085 42.4198042,0.169014628 C42.8104993,-0.0924255117 43.3186288,-0.0421410269 43.6506261,0.261682406 Z M10.9999421,13.9993111 C10.9999421,14.4640334 11.0211786,14.9252968 11.0630052,15.381987 L9.00246813,14.2945182 C9.00078571,14.1962569 8.99994208,14.0978517 8.99994208,13.9993111 C8.99994208,12.8426934 9.11616758,11.7047365 9.34079363,10.5989505 L11.3873535,10.599062 C11.1324366,11.6993215 10.9999421,12.8385271 10.9999421,13.9993111 Z M33.245928,1.25041482 C36.2158075,3.87207828 38.1755858,7.42556845 38.7918191,11.3351893 L36.4941391,10.1236655 C35.7360526,7.2794428 34.1522456,4.71823724 31.9223494,2.74979455 C31.5083071,2.3842984 31.4689527,1.75235764 31.8344488,1.33831536 C32.199945,0.924273084 32.8318857,0.88491867 33.245928,1.25041482 Z M5.58251794,0.169978698 C6.0082363,0.455923585 6.14386005,1.01205691 5.91450832,1.4571191 L5.85506806,1.55768055 L5.59321821,1.94742691 C4.24661209,3.99850605 3.26171212,6.24370553 2.66716365,8.59971548 L0.61089998,8.59892303 C1.20708066,6.00748277 2.23269591,3.5322111 3.65737902,1.26132279 L3.92715378,0.84102784 L4.19481609,0.442528819 C4.50275674,-0.0159371037 5.12405202,-0.137961949 5.58251794,0.169978698 Z M16.1654353,1.33831536 C16.5309315,1.75235764 16.4915771,2.3842984 16.0775348,2.74979455 C14.2540374,4.35948836 12.8625894,6.36557152 12.0014209,8.59866221 L9.8760529,8.59948239 C10.819323,5.77939084 12.4942507,3.24517163 14.7539562,1.25041482 C15.1679984,0.88491867 15.7999392,0.924273084 16.1654353,1.33831536 Z"/>
      <polygon points="46 17.4 27.4 17.4 27.4 24 2 10.6 20.6 10.6 20.6 4"/>
    </g>
  </g>
</svg>