<?xml version="1.0" encoding="UTF-8"?>
<svg xmlns="http://www.w3.org/2000/svg" width="24" height="24" version="1.1" viewBox="0 0 100 60">
  <g fill="none" fill-rule="evenodd" stroke="none" stroke-width="1" transform="translate(10 8)">
    <path fill="#000" d="M65.348,0 C70.106,0 74,3.893 74,8.652 L74,8.652 L74,35.348 C74,40.107 70.106,44 65.348,44 L65.348,44 L8.651,44 C3.893,44 0,40.107 0,35.348 L0,35.348 L0,8.652 C0,3.893 3.893,0 8.651,0 L8.651,0 Z M65,4 L9,4 C6.23857625,4 4,6.23857625 4,9 L4,9 L4,35 C4,37.7614237 6.23857625,40 9,40 L9,40 L65,40 C67.7614237,40 70,37.7614237 70,35 L70,35 L70,9 C70,6.23857625 67.7614237,4 65,4 L65,4 Z M81,10 C82.657,10 84,11.343 84,13 L84,31 C84,32.657 82.657,34 81,34 C79.343,34 78,32.657 78,31 L78,13 C78,11.343 79.343,10 81,10 Z" opacity=".9"/>
    <rect width="58" height="28" x="8" y="8" fill="#CCC" rx="3"/>
    <path fill="#000" fill-rule="nonzero" d="M13.6265665,27.4713199 L16.0654278,28.7889267 C16.6160566,30.4904505 17.3751283,32.121242 18.3310061,33.6481574 L18.5864832,34.0466356 L18.8537498,34.4440552 C19.161952,34.9023454 19.0402817,35.5237102 18.5819915,35.8319124 C18.1564364,36.1181001 17.590271,36.0336325 17.2647974,35.6531728 L17.1941344,35.5601541 L16.9207108,35.1534682 C15.3716859,32.7938294 14.2616543,30.1988424 13.6265665,27.4713199 Z M57.3436489,34.741121 L57.0739831,35.1612942 L56.8077165,35.5587139 C56.5003098,36.0175379 55.879157,36.1402859 55.4203329,35.8328792 C54.994282,35.54743 54.8580109,34.991455 55.0868444,34.5461261 L55.1461676,34.4454955 L55.4072439,34.0559018 C57.3343403,31.1203445 58.5205443,27.7872038 58.88189,24.3006978 L60.8911401,24.3006852 C60.5375252,28.0186851 59.3275529,31.5784832 57.3436489,34.741121 Z M46.2438098,34.7500769 C45.8297072,35.1155047 45.1977729,35.0760458 44.8323452,34.6619431 C44.4669175,34.2478404 44.5063764,33.6159062 44.920479,33.2504785 C47.5561198,30.9246394 49.2895445,27.7708044 49.8242322,24.300207 L51.8450256,24.3004485 C51.2954606,28.3537841 49.3065257,32.0473627 46.2438098,34.7500769 Z M27.6994852,31.8645503 L27.7,32.8 L24.6828223,31.1708274 C23.5582001,29.4183235 22.7606107,27.4656436 22.3410153,25.4007608 L24.1,25.4 L24.0994942,23.7346594 C24.4500962,26.7733366 25.7145898,29.5944992 27.6994852,31.8645503 Z M15.3905874,26.1528306 L14,25.4 L15.2607233,25.4009092 C15.2997017,25.6525663 15.3430007,25.903238 15.3905874,26.1528306 Z M18.5825179,8.1699787 C19.0082363,8.45592359 19.1438601,9.01205691 18.9145083,9.4571191 L18.8550681,9.55768055 L18.5932182,9.94742691 C16.4257908,13.2487376 15.1954157,17.0529452 15.0215375,21.0126669 L15.005314,21.5084169 L14.9999421,22.0021047 C14.9999421,22.4699883 15.0145694,22.9360074 15.043629,23.3996064 L13.0405592,23.4001447 C13.0232186,23.0997931 13.0114161,22.7985146 13.0051945,22.4964319 L13,21.9913415 L13.0056039,21.476115 C13.099461,17.1195417 14.3592077,12.9245167 16.657379,9.26132279 L16.9271538,8.84102784 L17.1948161,8.44252882 C17.5027567,7.9840629 18.124052,7.86203805 18.5825179,8.1699787 Z M48.9965286,16.5936482 L51.5101912,17.9346423 C51.8321681,19.246974 51.9999421,20.6096739 51.9999421,21.9993111 L51.996,22.3 L49.9969701,22.3002633 C49.9989492,22.2001151 49.9999421,22.099794 49.9999421,21.9993111 C49.9999421,20.1158855 49.6511297,18.2892686 48.9965286,16.5936482 Z M58.998,21.926 L59.7,22.3 L58.996,22.3 L58.9999421,22.0021047 L58.998,21.926 Z M56.6506261,8.26168241 L56.7365834,8.35078572 L56.8070321,8.44396683 L57.0785428,8.8497805 C59.4017656,12.3883904 60.7376878,16.456352 60.9650428,20.7068839 L58.8694318,19.5917643 C58.5109812,16.2999736 57.4198932,13.152853 55.6671719,10.3534502 L55.4115143,9.95474156 L55.144852,9.55624254 C54.8377056,9.09724418 54.9608059,8.47616109 55.4198042,8.16901463 C55.8104993,7.90757449 56.3186288,7.95785897 56.6506261,8.26168241 Z M24.662076,17.5789262 L23,16.7 L24.9627768,16.6999658 C24.8535981,16.9893285 24.753294,17.282437 24.662076,17.5789262 Z M46.245928,9.25041482 C48.1161624,10.9013657 49.5858259,12.9218465 50.5716476,15.1680883 L47.3154927,13.4321468 C46.6332988,12.4534864 45.831526,11.552371 44.9223494,10.7497945 C44.5083071,10.3842984 44.4689527,9.75235764 44.8344488,9.33831536 C45.199945,8.92427308 45.8318857,8.88491867 46.245928,9.25041482 Z M29.1654353,9.33831536 C29.5309315,9.75235764 29.4915771,10.3842984 29.0775348,10.7497945 C27.7877913,11.8883166 26.7141852,13.2251367 25.8914731,14.7003225 L23.6420253,14.7004135 C24.6214727,12.6411911 26.0144501,10.7859652 27.7539562,9.25041482 C28.1679984,8.88491867 28.7999392,8.92427308 29.1654353,9.33831536 Z"/>
    <path fill="#000" fill-rule="nonzero" d="M18.1,14.7 L31.9,22.1 L21.7,22.1 L21.7,25.8 L8,18.4 L18.1,18.4 L18.1,14.7 Z M32.5,4 L53.7,15.3 L38.2,15.3 L38.2,20.9 L17,9.7 L32.5,9.7 L32.5,4 Z" transform="translate(6 7)"/>
  </g>
</svg>