<?xml version="1.0" encoding="UTF-8"?>
<svg xmlns="http://www.w3.org/2000/svg" xmlns:xlink="http://www.w3.org/1999/xlink" width="24" height="24" viewBox="0 0 26 20" version="1.1">
    <title>Devices/Battery/ic_device_battery</title>
    <defs>
        <path d="M18.5,3.5 C20.2086923,3.5 21.5,4.81020491 21.5,6.55882353 L21.5,13.4411765 C21.5,15.1897951 20.2086923,16.5 18.5,16.5 L4,16.5 C2.29130773,16.5 1,15.1897951 1,13.4411765 L1,6.55882353 C1,4.81020491 2.29130773,3.5 4,3.5 L18.5,3.5 Z M18.5,4.7745098 L4,4.7745098 C3.13563402,4.7745098 2.29280327,5.68200238 2.25,6.55882353 L2.25,13.4411765 C2.25,14.3288687 3.14629215,15.1818317 4,15.2254902 L18.5,15.2254902 C19.364366,15.2254902 20.2071967,14.3179976 20.25,13.4411765 L20.25,6.55882353 C20.25,5.6711313 19.3537079,4.81816831 18.5,4.7745098 Z M23.875,6.75 C24.4963203,6.75 25,7.25367966 25,7.875 L25,12.125 C25,12.7463203 24.4963203,13.25 23.875,13.25 C23.2536797,13.25 22.75,12.7463203 22.75,12.125 L22.75,7.875 C22.75,7.25367966 23.2536797,6.75 23.875,6.75 Z" id="_path-1"/>
    </defs>
    <g id="_Devices/Battery/ic_device_battery" stroke="none" stroke-width="1" fill="none" fill-rule="evenodd">
        <mask id="_mask-2" fill="white">
            <use xlink:href="#_path-1"/>
        </mask>
        <use id="_形状" fill="#000000" fill-rule="nonzero" xlink:href="#_path-1"/>
    </g>
</svg>