<?xml version="1.0" encoding="UTF-8"?>
<svg xmlns="http://www.w3.org/2000/svg" xmlns:xlink="http://www.w3.org/1999/xlink" width="24" height="24" viewBox="0 0 24 24" version="1.1">
    <title>Public/ic_public_bluetooth</title>
    <defs>
        <path d="M13.768,12.7072498 L17.488084,16.4274238 C18.0588502,16.9981901 18.0734853,17.914492 17.5319891,18.502978 L17.4642578,18.5720467 L13.536834,22.328713 C12.9381779,22.9013406 11.9886648,22.8802403 11.4160372,22.2815842 C11.165714,22.0198827 11.0190891,21.677103 11.0017388,21.3169859 L11,21.2447502 L11,15.4742498 L12.5,13.9742498 L12.5,21.2447502 L16.4274238,17.488084 L12.707,13.7672498 L13.768,12.7072498 Z M8.3329433,16.7276367 C8.33317605,16.7279641 8.33340872,16.7282916 8.3336413,16.7286191 L6.53033009,18.5303301 C6.2491526,18.8115076 5.80026186,18.8227547 5.50566731,18.5640714 L5.46966991,18.5303301 C5.18849242,18.2491526 5.17724532,17.8002619 5.43592862,17.5056673 L5.46966991,17.4696699 L10.93925,12 L5.46966991,6.53033009 C5.18849242,6.2491526 5.17724532,5.80026186 5.43592862,5.50566731 L5.46966991,5.46966991 C5.7508474,5.18849242 6.19973814,5.17724532 6.49433269,5.43592862 L6.53033009,5.46966991 L11,9.93925 L11,2.75524981 C11,1.94565058 11.6413937,1.28585687 12.4437654,1.25628443 L12.5,1.25524981 C12.8621455,1.25524981 13.2112029,1.38622955 13.4834315,1.62261261 L13.536834,1.67128703 L17.4642578,5.42795326 C18.0475637,5.98589809 18.0825524,6.90164871 17.5542641,7.50201978 L17.4967734,7.56380922 Z M12.5,2.75524981 L12.5,10.439 L16.4274238,6.51191604 L12.5,2.75524981 Z" id="_path-1"/>
    </defs>
    <g id="_Public/ic_public_bluetooth" stroke="none" stroke-width="1" fill="none" fill-rule="evenodd">
        <mask id="_mask-2" fill="white">
            <use xlink:href="#_path-1"/>
        </mask>
        <use id="_形状结合" fill="#000000" fill-rule="nonzero" xlink:href="#_path-1"/>
    </g>
</svg>