<?xml version="1.0" encoding="UTF-8"?>
<svg xmlns="http://www.w3.org/2000/svg" width="24" height="24" version="1.1" viewBox="0 0 46 60">
  <g fill="#000" fill-rule="evenodd" stroke="none" stroke-width="1">
    <path fill-rule="nonzero" d="M28.073,31.543 L35.8719793,39.2785633 C37.3418167,40.7364631 37.3752221,43.079599 35.9721955,44.5777369 L35.8719793,44.6808654 L27.1675931,52.9404847 C25.6305303,54.398778 23.1926346,54.3450426 21.7224006,52.8204632 C21.0749296,52.1490592 20.697665,51.2681056 20.6577451,50.3435629 L20.6542159,50.1799896 L20.654,38.902 L28.073,31.543 Z M25.0556823,34.7242511 L25.0556823,48.9024706 L32.3615664,41.9707996 L25.0556823,34.7242511 Z M24.505499,6 C25.4422031,6 26.3448035,6.33852209 27.0459809,6.9489734 L27.1675931,7.05950934 L35.810805,15.2597846 C37.3129346,16.6849349 37.3988148,19.0267563 36.0296908,20.5554419 L35.8719793,20.7214308 L34.2509599,22.3299398 L20.6542159,35.8151353 L11.7568866,44.6406701 C10.9260948,45.4647145 9.59632143,45.4921827 8.73226421,44.7230745 L8.64457983,44.6406701 C7.81378805,43.8166257 7.78609499,42.4976522 8.56150065,41.6406126 L8.64457983,41.5536403 L20.2927455,30 L8.64457983,18.4463538 C7.81378805,17.6223094 7.78609499,16.3033359 8.56150065,15.4462962 L8.64457983,15.359324 C9.47537161,14.5352796 10.805145,14.5078114 11.6692022,15.2769195 L11.7568866,15.359324 L20.6542159,24.1843131 L20.6542159,9.82000447 C20.6542159,7.75422697 22.3073975,6.0714348 24.3730975,6.00221507 L24.505499,6 Z M25.0556823,11.0969778 L25.0556823,25.2751972 L32.3615664,18.0286488 L25.0556823,11.0969778 Z"/>
    <path d="M39.6657443,29.35125 C39.6657443,29.35125 39.6657443,29.35 39.667076,29.35 C36.0400201,26.5475 34.2264921,25.1470833 34.2264921,25.14875 C34.069352,25.05875 33.9441725,25 33.7737154,25 C33.3449093,25 33,25.35375 33,25.79 C33,25.7908333 33,25.7929167 33,25.79625 C33,31.4045833 33,34.2095833 33,34.21125 C33,34.64625 33.3449093,35 33.7737154,35 C33.9415092,35 34.0959859,34.94375 34.222497,34.85125 L39.667076,30.65 L39.6657443,30.65 C39.8668304,30.50625 40,30.26875 40,30 C40,29.73125 39.8668304,29.49375 39.6657443,29.35125 Z" transform="matrix(-1 0 0 1 73 0)"/>
    <path d="M13.6657443,29.35125 C13.6657443,29.35125 13.6657443,29.35 13.667076,29.35 C10.0400201,26.5475 8.22649212,25.1470833 8.22649212,25.14875 C8.06935198,25.05875 7.94417255,25 7.77371544,25 C7.34490929,25 7,25.35375 7,25.79 C7,25.7908333 7,25.7929167 7,25.79625 C7,31.4045833 7,34.2095833 7,34.21125 C7,34.64625 7.34490929,35 7.77371544,35 C7.94150915,35 8.0959859,34.94375 8.22249703,34.85125 L13.667076,30.65 L13.6657443,30.65 C13.8668304,30.50625 14,30.26875 14,30 C14,29.73125 13.8668304,29.49375 13.6657443,29.35125 Z"/>
  </g>
</svg>