<?xml version="1.0" encoding="UTF-8"?>
<svg xmlns="http://www.w3.org/2000/svg" xmlns:xlink="http://www.w3.org/1999/xlink" width="24" height="24" viewBox="0 0 24 24" version="1.1">
    <title>Public/ic_public_bluetooth_off</title>
    <defs>
        <path d="M3.24433269,2.18592862 L3.28033009,2.21966991 L3.51471863,2.45405845 L21.5459415,20.4852814 C21.5474912,20.4868311 21.5490486,20.4883685 21.5506134,20.4898936 L21.7803301,20.7196699 C22.0732233,21.0125631 22.0732233,21.4874369 21.7803301,21.7803301 C21.4991526,22.0615076 21.0502619,22.0727547 20.7556673,21.8140714 L20.7196699,21.7803301 L17.487,18.5482498 L17.4642578,18.5720467 L13.536834,22.328713 C12.9381779,22.9013406 11.9886648,22.8802403 11.4160372,22.2815842 C11.165714,22.0198827 11.0190891,21.677103 11.0017388,21.3169859 L11,21.2447502 L11,14.0605 L6.53033009,18.5303301 C6.2491526,18.8115076 5.80026186,18.8227547 5.50566731,18.5640714 L5.46966991,18.5303301 C5.18849242,18.2491526 5.17724532,17.8002619 5.43592862,17.5056673 L5.46966991,17.4696699 L10.939,12.0002498 L2.21966991,3.28033009 C1.9267767,2.98743687 1.9267767,2.51256313 2.21966991,2.21966991 C2.5008474,1.93849242 2.94973814,1.92724532 3.24433269,2.18592862 Z M12.5,13.5612498 L12.5,21.2447502 L16.426,17.4872498 L12.5,13.5612498 Z M12.5,1.25524981 C12.8621455,1.25524981 13.2112029,1.38622955 13.4834315,1.62261261 L13.536834,1.67128703 L17.4642578,5.42795326 C18.0475637,5.98589809 18.0825524,6.90164871 17.5542641,7.50201978 L17.4967734,7.56380922 L13.767,11.2922498 L12.707,10.2312498 L16.4274238,6.51191604 L12.5,2.75524981 L12.5,10.0252498 L11,8.52524981 L11,2.75524981 C11,1.94565058 11.6413937,1.28585687 12.4437654,1.25628443 L12.5,1.25524981 Z" id="_path-1"/>
    </defs>
    <g id="_Public/ic_public_bluetooth_off" stroke="none" stroke-width="1" fill="none" fill-rule="evenodd">
        <mask id="_mask-2" fill="white">
            <use xlink:href="#_path-1"/>
        </mask>
        <use id="_形状结合" fill="#000000" fill-rule="nonzero" xlink:href="#_path-1"/>
    </g>
</svg>