<?xml version="1.0" encoding="UTF-8"?>
<svg xmlns="http://www.w3.org/2000/svg" xmlns:xlink="http://www.w3.org/1999/xlink" width="24" height="24" viewBox="0 0 24 24" version="1.1">
    <title>Public/ic_public_bluetooth_off_filled</title>
    <defs>
        <path d="M3.66726352,2.25514254 L3.70710678,2.29289322 L4.749,3.33424981 L4.74975,3.3355 L13.41425,12 L21.7071068,20.2928932 C22.0976311,20.6834175 22.0976311,21.3165825 21.7071068,21.7071068 C21.3296,22.0846136 20.7253589,22.0971972 20.3327365,21.7448575 L20.2928932,21.7071068 L17.484,18.8982498 L13.7096396,22.5093734 C13.0112075,23.177439 11.9034423,23.152822 11.2353767,22.4543898 C10.9411698,22.1468098 10.769743,21.743232 10.7516036,21.3196855 L10.75,21.2447502 L10.75,14.664 L6.70710678,18.7071068 C6.32959997,19.0846136 5.72535891,19.0971972 5.33273648,18.7448575 L5.29289322,18.7071068 C4.9153864,18.3296 4.90280284,17.7253589 5.25514254,17.3327365 L5.29289322,17.2928932 L10.58575,12 L2.29289322,3.70710678 C1.90236893,3.31658249 1.90236893,2.68341751 2.29289322,2.29289322 C2.67040003,1.9153864 3.27464109,1.90280284 3.66726352,2.25514254 Z M12.75,14.16425 L12.75,20.6595 L16.06975,17.484 L12.75,14.16425 Z M12.5,1.00524981 C12.9256327,1.00524981 13.335769,1.16033174 13.6543798,1.43998843 L13.7096396,1.49062656 L17.6370634,5.24729279 C18.3196221,5.90017501 18.3586456,6.97299769 17.7365238,7.67331097 L17.6648607,7.74935291 L14.475,10.9392498 L13.06,9.52424981 L16.06975,6.51575 L12.75,3.34025 L12.75,9.21424981 L10.75,7.21424981 L10.75,2.75524981 C10.75,1.80888688 11.5011958,1.03797514 12.4398376,1.00626457 L12.5,1.00524981 Z" id="_path-1"/>
    </defs>
    <g id="_Public/ic_public_bluetooth_off_filled" stroke="none" stroke-width="1" fill="none" fill-rule="evenodd">
        <mask id="_mask-2" fill="white">
            <use xlink:href="#_path-1"/>
        </mask>
        <use id="_形状结合" fill="#000000" fill-rule="nonzero" xlink:href="#_path-1"/>
    </g>
</svg>