<?xml version="1.0" encoding="UTF-8"?>
<svg xmlns="http://www.w3.org/2000/svg" width="24" height="24" version="1.1" viewBox="0 0 76 60">
  <g fill="none" fill-rule="evenodd" stroke="none" stroke-width="1">
    <path fill="#000" d="M54,6 C57.3137085,6 60,8.6862915 60,12 L60,40 C60,43.3137085 57.3137085,46 54,46 L40,46 C36.6862915,46 34,43.3137085 34,40 L34,12 C34,8.6862915 36.6862915,6 40,6 L54,6 Z M19.38,24.479 L26.9108766,31.8919565 C28.3300299,33.2891105 28.3622834,35.5346157 27.0076371,36.9703312 L26.9108766,37.0691627 L18.5066416,44.9846312 C17.022581,46.3821623 14.6687507,46.3306658 13.2492144,44.8696106 C12.6240699,44.2261817 12.2598145,43.3819345 12.2212711,42.4959145 L12.2178636,42.3391567 L12.217,31.531 L19.38,24.479 Z M53,10 L41,10 C39.4023191,10 38.0963391,11.24892 38.0050927,12.8237272 L38,13 L38,39 C38,40.5976809 39.24892,41.9036609 40.8237272,41.9949073 L41,42 L53,42 C54.5976809,42 55.9036609,40.75108 55.9949073,39.1762728 L56,39 L56,13 C56,11.3431458 54.6568542,10 53,10 Z M16.4675553,27.5274073 L16.4675553,41.1148676 L23.5215123,34.4720163 L16.4675553,27.5274073 Z M15.9363439,0 C16.8407478,0 17.7122241,0.324417 18.3892229,0.909432843 L18.5066416,1.01536312 L26.8518118,8.87396029 C28.3021437,10.2397293 28.3850626,12.4839748 27.0631498,13.9489652 L26.9108766,14.1080379 L23.54,17.426 L12.217,28.573 L12.2178636,28.572838 L3.62733876,37.0306422 C2.82519497,37.8203514 1.54127587,37.8466751 0.707013722,37.1096131 L0.62235294,37.0306422 C-0.179790849,36.240933 -0.206528976,34.9769167 0.542138561,34.155587 L0.62235294,34.0722386 L11.8688577,23 L0.62235294,11.9277557 C-0.179790849,11.1380465 -0.206528976,9.87403024 0.542138561,9.05270055 L0.62235294,8.96935215 C1.42449673,8.17964292 2.70841583,8.15331928 3.54267798,8.89038122 L3.62733876,8.96935215 L12.2178636,17.4266334 L12.2178636,3.66083761 C12.2178636,1.68113418 13.814039,0.0684583522 15.808508,0.00212277241 L15.9363439,0 Z M0.581,18 C0.709,18 0.803,18.05875 0.921,18.14875 L0.921,18.14875 L5.75,22.35 C5.749,22.35 5.749,22.35125 5.749,22.35125 C5.9,22.49375 6,22.73125 6,23 C6,23.26875 5.9,23.50625 5.749,23.65 L5.749,23.65 L5.75,23.65 L0.918,27.85125 C0.823,27.94375 0.707,28 0.581,28 C0.259,28 0,27.64625 0,27.21125 L0,27.21125 L0,18.79 C0,18.35375 0.259,18 0.581,18 Z M16.4675553,4.88460372 L16.4675553,18.472064 L23.5215123,11.5274551 L16.4675553,4.88460372 Z M52.4980714,0 L52.642014,0.00548910594 C53.5902077,0.0780645379 54.3500395,0.861721822 54.4236522,1.84342348 L54.4295,2 L54.4241927,2.14906734 C54.3540228,3.13101091 53.5963861,3.91772842 52.6491398,3.99394531 L52.4980714,4 L41.5028571,4 L41.3587992,3.99450498 C40.4099114,3.92185273 39.6508084,3.13740844 39.5772703,2.15644668 L39.5714286,2 L39.5767304,1.85080841 C39.6468289,0.86811728 40.4037349,0.082184707 41.3516682,0.0060481775 L41.5028571,0 L52.4980714,0 Z" transform="translate(8 7)"/>
    <rect width="12" height="26" x="49" y="20" fill="#060101" rx="2"/>
  </g>
</svg>