<?xml version="1.0" encoding="UTF-8"?>
<svg xmlns="http://www.w3.org/2000/svg" width="24" height="24" version="1.1" viewBox="0 0 46 60">
  <g fill="none" fill-rule="evenodd" stroke="none" stroke-width="1">
    <rect width="46" height="60" x="0" y="0"/>
    <path fill="#000" fill-rule="nonzero" d="M28.073,31.543 L35.8719793,39.2785633 C37.3418167,40.7364631 37.3752221,43.079599 35.9721955,44.5777369 L35.8719793,44.6808654 L27.1675931,52.9404847 C25.6305303,54.398778 23.1926346,54.3450426 21.7224006,52.8204632 C21.0749296,52.1490592 20.697665,51.2681056 20.6577451,50.3435629 L20.6542159,50.1799896 L20.654,38.902 L28.073,31.543 Z M25.0556823,34.7242511 L25.0556823,48.9024706 L32.3615664,41.9707996 L25.0556823,34.7242511 Z M24.505499,6 C25.4422031,6 26.3448035,6.33852209 27.0459809,6.9489734 L27.1675931,7.05950934 L35.810805,15.2597846 C37.3129346,16.6849349 37.3988148,19.0267563 36.0296908,20.5554419 L35.8719793,20.7214308 L34.2509599,22.3299398 L20.6542159,35.8151353 L11.7568866,44.6406701 C10.9260948,45.4647145 9.59632143,45.4921827 8.73226421,44.7230745 L8.64457983,44.6406701 C7.81378805,43.8166257 7.78609499,42.4976522 8.56150065,41.6406126 L8.64457983,41.5536403 L20.2927455,30 L8.64457983,18.4463538 C7.81378805,17.6223094 7.78609499,16.3033359 8.56150065,15.4462962 L8.64457983,15.359324 C9.47537161,14.5352796 10.805145,14.5078114 11.6692022,15.2769195 L11.7568866,15.359324 L20.6542159,24.1843131 L20.6542159,9.82000447 C20.6542159,7.75422697 22.3073975,6.0714348 24.3730975,6.00221507 L24.505499,6 Z M25.0556823,11.0969778 L25.0556823,25.2751972 L32.3615664,18.0286488 L25.0556823,11.0969778 Z"/>
  </g>
</svg>