<?xml version="1.0" encoding="UTF-8"?>
<svg xmlns="http://www.w3.org/2000/svg" width="24" height="24" version="1.1" viewBox="0 0 89 60">
  <g fill="none" fill-rule="evenodd" stroke="none" stroke-width="1">
    <g transform="translate(8 7)">
      <path fill="#000" d="M20.79,-7.10542736e-15 L20.21,-7.10542736e-15 C9.066,-7.10542736e-15 0,9.066 0,20.21 L0,27.962 L0.001,27.962 L0.001,36.802 C0.001,40.306 2.842,43.147 6.346,43.147 C9.85,43.147 12.691,40.306 12.691,36.802 L12.691,29.969 C12.691,29.131 12.525,28.302 12.203,27.529 C11.005,24.654 7.938,23.131 5,23.773 L5,20.21 C5,11.823 11.823,5 20.21,5 L20.79,5 C29.177,5 36,11.823 36,20.21 L36,23.777 C35.559,23.682 35.109,23.629 34.655,23.629 C31.151,23.629 28.31,26.469 28.31,29.974 L28.31,36.807 C28.31,40.311 31.151,43.152 34.655,43.152 C38.159,43.152 41,40.311 41,36.807 L41,36.802 L41,28.656 L41,20.354 L41,20.21 C41,9.066 31.934,-7.10542736e-15 20.79,-7.10542736e-15" transform="translate(0 1.424)"/>
      <path fill="#060101" d="M20,6 C23.3137085,6 26,8.6862915 26,12 L26,40 C26,43.3137085 23.3137085,46 20,46 L6,46 C2.6862915,46 4.05812251e-16,43.3137085 0,40 L0,12 C-4.05812251e-16,8.6862915 2.6862915,6 6,6 L20,6 Z M19,10 L7,10 C5.34314575,10 4,11.3431458 4,13 L4,13 L4,39 C4,40.6568542 5.34314575,42 7,42 L7,42 L19,42 C20.6568542,42 22,40.6568542 22,39 L22,39 L22,13 C22,11.3431458 20.6568542,10 19,10 L19,10 Z M18.4980714,0 L18.642014,0.00548910594 C19.6401126,0.0818842975 20.4295,0.946181818 20.4295,2 L20.4295,2 L20.4241927,2.14906734 C20.3503297,3.18269215 19.5147305,4 18.4980714,4 L18.4980714,4 L7.50285714,4 L7.35879916,3.99450498 C6.35996989,3.91802893 5.57142857,3.05286364 5.57142857,2 L5.57142857,2 L5.57673036,1.85080841 C5.6505183,0.816396694 6.48531169,0 7.50285714,0 L7.50285714,0 L18.4980714,0 Z" transform="translate(47)"/>
    </g>
    <rect width="14" height="26" x="61" y="20" fill="#060101" rx="2"/>
  </g>
</svg>