<?xml version="1.0" encoding="UTF-8"?>
<svg xmlns="http://www.w3.org/2000/svg" width="24" height="24" version="1.1" viewBox="0 0 89 60">
  <g fill="none" fill-rule="evenodd" stroke="none" stroke-width="1">
    <path fill="#000" fill-rule="nonzero" d="M41.3954784,25.2766667 L41.5996695,25.3683432 L49.4497521,29.1847527 C50.3421256,29.6185905 50.9279672,30.4977422 50.9938019,31.4805383 L51,31.6659437 L51,37.5610764 C51,44.014605 46.9005719,49.6449637 40.9177498,51.7127471 C40.9023537,51.7180683 40.8765618,51.7265373 40.8403742,51.7381542 C40.3618239,51.8917774 39.8516929,51.9109092 39.3652845,51.7955583 L39.1584375,51.7378886 L39.1150459,51.7237965 L39.0857681,51.7139887 C33.2061503,49.6837395 29.14448,44.2127103 29.0037749,37.9000452 L29,37.5610764 L29,31.6659437 C29,30.6715267 29.533349,29.7593998 30.3865721,29.2712324 L30.5502479,29.1847527 L38.4003305,25.3683432 C39.343191,24.9099605 40.4330218,24.8794017 41.3954784,25.2766667 Z M28.79,8.424 C37.9783667,8.424 45.7540658,14.5872551 48.2001788,22.9968467 L40.8937808,19.432529 C38.1860606,15.8793184 33.9518349,13.5490663 29.178213,13.4288821 L28.79,13.424 L28.21,13.424 C19.9278375,13.424 13.1708194,20.0774911 13.003188,28.3202309 L13,28.634 L13,32.197 C15.938,31.555 19.005,33.078 20.203,35.953 C20.48475,36.629375 20.6470625,37.348625 20.6832383,38.0792637 L20.691,38.393 L20.691,45.226 C20.691,48.73 17.85,51.571 14.346,51.571 C10.9181739,51.571 8.12483507,48.8521791 8.00500551,45.4535594 L8.001,45.226 L8,28.634 C8,17.6048866 16.8800357,8.61114869 27.8660104,8.42688298 L28.21,8.424 L28.79,8.424 Z M44.5281385,32.8630269 L38.6536797,39.5813259 L35.6666667,37.1383081 C35.0692641,36.6293461 34.0735931,36.7311385 33.5757576,37.3418929 C33.0779221,37.9526474 33.1774892,38.9705715 33.7748918,39.4795335 L37.8571429,42.8386831 C38.4545455,43.3476451 39.3506494,43.2458527 39.9480519,42.6350983 L46.7186147,34.8988751 C47.3160173,34.2881206 47.2164502,33.2701965 46.6190476,32.7612345 C46.021645,32.2522724 45.025974,32.2522724 44.5281385,32.8630269 Z"/>
    <path fill="#060101" d="M75,13 C78.3137085,13 81,15.6862915 81,19 L81,47 C81,50.3137085 78.3137085,53 75,53 L61,53 C57.6862915,53 55,50.3137085 55,47 L55,19 C55,15.6862915 57.6862915,13 61,13 L75,13 Z M74.2857143,17 L61.7142857,17 C60.0574315,17 58.7142857,18.3431458 58.7142857,20 L58.7142857,20 L58.7142857,46 C58.7142857,47.6568542 60.0574315,49 61.7142857,49 L61.7142857,49 L74.2857143,49 C75.9425685,49 77.2857143,47.6568542 77.2857143,46 L77.2857143,46 L77.2857143,20 C77.2857143,18.3431458 75.9425685,17 74.2857143,17 L74.2857143,17 Z M73.4980714,7 L73.642014,7.00548911 C74.6401126,7.0818843 75.4295,7.94618182 75.4295,9 L75.4295,9 L75.4241927,9.14906734 C75.3503297,10.1826921 74.5147305,11 73.4980714,11 L73.4980714,11 L62.5028571,11 L62.3587992,10.994505 C61.3599699,10.9180289 60.5714286,10.0528636 60.5714286,9 L60.5714286,9 L60.5767304,8.85080841 C60.6505183,7.81639669 61.4853117,7 62.5028571,7 L62.5028571,7 L73.4980714,7 Z"/>
    <rect width="14" height="26" x="61" y="20" fill="#060101" rx="2"/>
  </g>
</svg>