<?xml version="1.0" encoding="UTF-8"?>
<svg xmlns="http://www.w3.org/2000/svg" xmlns:xlink="http://www.w3.org/1999/xlink" width="24" height="24" viewBox="0 0 24 24" version="1.1">
    <title>Public/ic_public_connection_filled</title>
    <defs>
        <path d="M19.0208153,7.02081528 C21.782239,7.02081528 24.0208153,9.25939153 24.0208153,12.0208153 C24.0208153,14.70957 21.8985086,16.9026334 19.2377049,17.0161958 L19.0208153,17.0208153 L15.0208153,17.0208153 C14.4685305,17.0208153 14.0208153,16.5731 14.0208153,16.0208153 C14.0208153,15.5079794 14.4068555,15.0853081 14.9041942,15.027543 L15.0208153,15.0208153 L19.0208153,15.0208153 C20.6776695,15.0208153 22.0208153,13.6776695 22.0208153,12.0208153 C22.0208153,10.4231344 20.7718953,9.1171544 19.1970881,9.02590797 L19.0208153,9.02081528 L15.0208153,9.02081528 C14.4685305,9.02081528 14.0208153,8.57310003 14.0208153,8.02081528 C14.0208153,7.50797944 14.4068555,7.08530812 14.9041942,7.02754301 L15.0208153,7.02081528 L19.0208153,7.02081528 Z M9.02081528,7.02081528 L9.13743641,7.02754301 C9.63477509,7.08530812 10.0208153,7.50797944 10.0208153,8.02081528 C10.0208153,8.57310003 9.57310003,9.02081528 9.02081528,9.02081528 L9.02081528,9.02081528 L5.02081528,9.02081528 L4.84454249,9.02590797 C3.26973524,9.1171544 2.02081528,10.4231344 2.02081528,12.0208153 C2.02081528,13.6776695 3.36396103,15.0208153 5.02081528,15.0208153 L5.02081528,15.0208153 L9.02081528,15.0208153 L9.13743641,15.027543 C9.63477509,15.0853081 10.0208153,15.5079794 10.0208153,16.0208153 C10.0208153,16.5731 9.57310003,17.0208153 9.02081528,17.0208153 L9.02081528,17.0208153 L5.02081528,17.0208153 L4.80392566,17.0161958 C2.14312199,16.9026334 0.0208152802,14.70957 0.0208152802,12.0208153 C0.0208152802,9.25939153 2.25939153,7.02081528 5.02081528,7.02081528 L5.02081528,7.02081528 L9.02081528,7.02081528 Z M16.263456,11.0208153 C16.8157407,11.0208153 17.263456,11.4685305 17.263456,12.0208153 C17.263456,12.5306166 16.8819708,12.9513173 16.3888938,13.0130239 L16.263456,13.0208153 L7.77817459,13.0208153 C7.22588984,13.0208153 6.77817459,12.5731 6.77817459,12.0208153 C6.77817459,11.511014 7.15965978,11.0903133 7.65273672,11.0286067 L7.77817459,11.0208153 L16.263456,11.0208153 Z" id="_path-1"/>
    </defs>
    <g id="_Public/ic_public_connection_filled" stroke="none" stroke-width="1" fill="none" fill-rule="evenodd">
        <mask id="_mask-2" fill="white">
            <use xlink:href="#_path-1"/>
        </mask>
        <use id="_形状结合" fill="#000000" fill-rule="nonzero" transform="translate(12.020815, 12.020815) rotate(-45.000000) translate(-12.020815, -12.020815) " xlink:href="#_path-1"/>
    </g>
</svg>