<?xml version="1.0" encoding="UTF-8"?>
<svg xmlns="http://www.w3.org/2000/svg" xmlns:xlink="http://www.w3.org/1999/xlink" width="24" height="24" version="1.1" viewBox="0 0 70 60">
  <defs>
    <path id="_uxs-a" d="M27.0016343,0 C37.6655847,0 48.2476024,6.66820037 53.6960045,16.6796176 C54.1013351,17.4244109 54.1013316,18.3268804 53.6959952,19.0716705 C48.2504678,29.0776189 37.7068642,36 27.0371138,36 C16.3737412,36 5.75632444,29.0701822 0.304287466,19.0579347 C-0.101460491,18.3128097 -0.101427213,17.4097586 0.30437566,16.6646641 C5.75378445,6.65900704 16.3329491,0 27.0016343,0 Z M27.0016343,4.8 C18.6363234,4.8 10.1215281,9.84925333 5.29719553,17.6246275 L5.15123922,17.8614 L5.29747785,18.100954 C9.02502781,24.1283168 14.9237702,28.5947129 21.1901419,30.3648713 C17.1749862,28.2576872 14.4362392,24.0486779 14.4362392,19.2 C14.4362392,17.9124856 14.6293513,16.6700749 14.988191,15.5001525 C15.1650244,14.9236238 15.6979735,15.0648291 15.8140828,15.5182562 C16.4444953,17.9801261 18.6778401,19.8 21.3362392,19.8 C24.429986,19.8 26.9480628,17.3352637 27.0339734,14.2622872 L27.0362392,14.1 L27.0362392,13.5 C27.0362392,11.018439 25.4504303,8.90726345 23.2369209,8.12458184 C22.7347759,7.94702683 22.6889294,7.3558882 23.236687,7.18290151 C23.5001468,7.09969858 23.7673473,7.02491599 24.0379727,6.95887065 C24.9989247,6.72435312 26.0030599,6.6 27.0362392,6.6 C33.9950271,6.6 39.6362392,12.2412122 39.6362392,19.2 C39.6362392,24.047474 36.8988522,28.2555969 32.8855646,30.3628823 C39.1248662,28.5958942 44.9811163,24.1436929 48.7023993,18.116945 L48.8486392,17.8758 L48.7024772,17.6372807 C43.9323557,9.94359822 35.5519133,4.91396581 27.2834644,4.80191167 L27.0016343,4.8 Z"/>
  </defs>
  <use fill="#000" fill-rule="nonzero" stroke="none" stroke-width="1" transform="translate(8 12)" xlink:href="#_uxs-a"/>
</svg>