<?xml version="1.0" encoding="UTF-8"?>
<svg xmlns="http://www.w3.org/2000/svg" xmlns:xlink="http://www.w3.org/1999/xlink" width="24" height="24" viewBox="0 0 26 20" version="1.1">
    <title>Devices/Battery/ic_device_battery_glass</title>
    <defs>
        <path d="M22.5409536,5.77466081 L22.8080532,5.9999686 L23.2234408,6.35895891 L23.8379064,6.90184311 L24.4056636,7.41146751 L24.6357143,7.61972917 L24.6894863,7.6280585 L24.7285781,7.63523344 L24.7285781,7.63523344 L24.8452461,7.66399595 C24.918806,7.6827995 24.955446,7.73034506 24.960326,7.80611583 L24.9849719,8.14099607 C24.9887437,8.19682515 24.9918726,8.25271018 24.9936459,8.30872331 C25,8.54187943 25,8.77551259 25,9.00910601 C25,9.06138227 24.9872459,9.11441386 24.9755259,9.16641185 C24.960206,9.23375481 24.924086,9.28312905 24.8526861,9.30845223 C24.6891663,9.36621452 24.5889264,9.49656728 24.4909266,9.62958354 C24.3933267,9.7620035 24.3568468,9.91724214 24.3139268,10.0703341 L24.2197521,10.3966069 C24.2044603,10.4511094 24.1897536,10.5057709 24.176207,10.5607371 L24.0619521,11.0344883 L24.0619521,11.0344883 L23.9516873,11.5089849 C23.8040475,12.1561372 23.6406477,12.7984396 23.386288,13.4141864 C23.2656882,13.7062974 23.1189684,13.9842164 22.9211286,14.2333535 C22.615329,14.6192438 22.2062896,14.8445287 21.7410902,14.9832297 C21.2877308,15.1179156 20.8216514,15.1775464 20.350132,15.197781 C19.570253,15.2319296 18.7944141,15.1955548 18.0262151,15.0474719 C17.5154957,14.9486439 17.0250164,14.7903045 16.566617,14.5416443 C15.9181378,14.1901411 15.4290985,13.6807357 15.058339,13.050121 C14.6112996,12.2912207 14.25766,11.4922883 13.9911404,10.6537611 C13.9297405,10.4599612 13.8512206,10.2704548 13.7684607,10.0839696 C13.7260607,9.9882027 13.6651008,9.8974845 13.5992209,9.81559164 C13.4479411,9.62735733 13.2297814,9.57977201 13.0029417,9.56653399 C12.9053818,9.5608492 12.8056619,9.56486433 12.7094621,9.57977201 C12.4070625,9.62596594 12.2041427,9.8000479 12.0993429,10.0816639 L12.0322259,10.2742181 L12.0322259,10.2742181 L11.9095831,10.6635405 C11.6973434,11.3419393 11.4607037,12.0110755 11.1233441,12.6403784 C10.7857846,13.2705161 10.3461852,13.8199138 9.80018588,14.282529 C9.44238635,14.585135 9.0210669,14.7718189 8.57538749,14.9061073 C7.97498828,15.0864306 7.35874909,15.1803291 6.73470991,15.2251317 C6.11827072,15.2696162 5.50363152,15.2578491 4.89255233,15.1618436 C4.55155277,15.1079374 4.21903321,15.0235401 3.89927363,14.8912394 C3.37107432,14.6727127 2.99895481,14.2924674 2.73799516,13.7960218 C2.50427546,13.3516934 2.35747566,12.8768739 2.2448758,12.391281 C2.12675596,11.8821937 2.0194361,11.370085 1.90411625,10.8603219 C1.87955628,10.7513169 1.83891634,10.64585 1.80815638,10.5378389 L1.71430169,10.1897133 C1.69791652,10.131926 1.68036988,10.0745215 1.66047657,10.0178988 C1.57679668,9.7802505 1.47155682,9.55134803 1.25311711,9.40008477 C1.20799717,9.36903704 1.15579724,9.34693392 1.1050373,9.32491031 C1.05715736,9.30403956 1.0299174,9.26969226 1.02239741,9.22003975 C1.01331742,9.16132336 0.998877441,9.10201067 1,9.04325453 C1.01011743,8.65235528 1.02379741,8.26197282 1.03663739,7.87151086 C1.03907739,7.789618 1.08807732,7.74068105 1.16211723,7.72140045 L1.25426467,7.69681631 L1.25426467,7.69681631 L1.23242695,7.69138539 L1.23242695,7.69138539 L1.68998857,7.27778499 L2.36794146,6.67213659 L2.72392332,6.35895891 L3.13931094,5.9999686 L3.40641051,5.77466081 C4.1505706,5.15522521 5.32900987,4.76757477 5.7963184,5.15522521 C6.26362694,5.54287566 6.20520869,5.9712671 6.01373029,6.07806165 C5.93166812,6.12383075 5.83632586,6.0953079 5.72344941,6.04776535 L5.60457067,5.99593002 C5.47953208,5.94184903 5.33554129,5.88717241 5.16834419,5.88717241 C4.80260054,5.88717241 4.46248987,6.1353564 4.09725043,6.5210089 L4.02385245,6.59993951 C3.77953398,6.86722746 3.42834672,7.18278869 3.10341626,7.42596313 L3.57671405,7.36687594 C4.38883299,7.27003565 5.20467192,7.23926619 6.11291072,7.23787481 C7.22702926,7.22602817 8.42198769,7.32581025 9.60786613,7.54358164 C10.130654,7.63909302 10.6370142,7.78960096 11.1413046,7.94969293 L11.3933438,8.03032734 C11.7182634,8.13484012 12.0487829,8.23009026 12.3838625,8.29258326 C12.9412218,8.39649973 13.492221,8.32041093 14.0291803,8.15145722 C14.3733799,8.04288955 14.7111394,7.91404744 15.054819,7.8036511 C15.7348981,7.58520389 16.4348972,7.45799168 17.1421362,7.36914191 C18.2995747,7.2236827 19.4610532,7.19839927 20.6249717,7.25015874 C21.2297309,7.27719133 21.8338901,7.30362762 22.4372893,7.34540888 C22.5500388,7.35316918 22.6626395,7.36230902 22.7751108,7.37263175 C22.5054929,7.16589754 22.2242907,6.91476908 22.0057221,6.68753684 L21.9235117,6.59993951 C21.5301084,6.16955064 21.1691465,5.88717241 20.7790199,5.88717241 C20.6118228,5.88717241 20.4678321,5.94184903 20.3427935,5.99593002 L20.2239147,6.04776535 C20.1110383,6.0953079 20.015696,6.12383075 19.9336338,6.07806165 C19.7421554,5.9712671 19.6837372,5.54287566 20.1510457,5.15522521 C20.6183543,4.76757477 21.7967935,5.15522521 22.5409536,5.77466081 Z" id="_path-1"/>
    </defs>
    <g id="_Devices/Battery/ic_device_battery_glass" stroke="none" stroke-width="1" fill="none" fill-rule="evenodd">
        <mask id="_mask-2" fill="white">
            <use xlink:href="#_path-1"/>
        </mask>
        <use id="_路径" fill="#000000" fill-rule="nonzero" xlink:href="#_path-1"/>
    </g>
</svg>