<?xml version="1.0" encoding="UTF-8"?>
<svg xmlns="http://www.w3.org/2000/svg" xmlns:xlink="http://www.w3.org/1999/xlink" width="24" height="24" viewBox="0 0 24 24" version="1.1">
    <title>ic_contacts_HD</title>
    <g id="_ic_contacts_HD" stroke="none" stroke-width="1" fill="none" fill-rule="evenodd">
        <path d="M18.6818182,1.5 C20.7905418,1.5 22.5,3.20945823 22.5,5.31818182 L22.5,18.6818182 C22.5,20.7905418 20.7905418,22.5 18.6818182,22.5 L5.31818182,22.5 C3.20945823,22.5 1.5,20.7905418 1.5,18.6818182 L1.5,5.31818182 C1.5,3.20945823 3.20945823,1.5 5.31818182,1.5 L18.6818182,1.5 Z M16.0940455,7.44490909 L13.2075,7.44490909 L13.2075,17.2270909 L16.0940455,17.2270909 L16.3578535,17.2199141 C17.0521027,17.181638 17.6724394,16.9902576 18.2188636,16.6457727 C18.8335909,16.2582273 19.3102273,15.6969545 19.6487727,14.9619545 C19.9873182,14.2269545 20.1565909,13.3471818 20.1565909,12.3226364 C20.1565909,11.307 19.9873182,10.4316818 19.6487727,9.69668182 C19.3102273,8.96168182 18.8335909,8.40263636 18.2188636,8.01954545 C17.6041364,7.63645455 16.8958636,7.44490909 16.0940455,7.44490909 L16.0940455,7.44490909 Z M6.20781818,7.44490909 L4.36363636,7.44490909 L4.36363636,17.2270909 L6.20781818,17.2270909 L6.20781818,12.9774545 L9.45518182,12.9774545 L9.45518182,17.2270909 L11.2993636,17.2270909 L11.2993636,7.44490909 L9.45518182,7.44490909 L9.45518182,11.3337273 L6.20781818,11.3337273 L6.20781818,7.44490909 Z M15.8802273,9.03518182 C16.6553182,9.03518182 17.2344091,9.31359091 17.6175,9.87040909 C18.0005909,10.4272273 18.1921364,11.2446364 18.1921364,12.3226364 C18.1921364,13.4095455 18.0028182,14.2314091 17.6241818,14.7882273 C17.2455455,15.3450455 16.6642273,15.6234545 15.8802273,15.6234545 L15.8802273,15.6234545 L15.0516818,15.6234545 L15.0516818,9.03518182 Z" id="_形状结合" fill="#000000"/>
    </g>
</svg>