<?xml version="1.0" encoding="UTF-8"?>
<svg xmlns="http://www.w3.org/2000/svg" width="24" height="24" version="1.1" viewBox="0 0 66 60">
  <path fill="#000" fill-rule="nonzero" stroke="none" stroke-width="1" d="M32.9662921,8 C46.7543819,8 57.9325843,19.0948194 57.9325843,32.7819018 C57.9325843,39.958623 54.8410774,46.6373738 49.5515599,51.3057819 L49.2181111,51.5949261 L49.0326949,51.7528876 L48.9813034,51.6944719 L48.7995211,51.7843507 C48.6078989,51.8689709 48.4058435,51.9296806 48.1972748,51.9647091 L47.9866803,51.9911117 L47.7726147,52 C46.3756707,52 45.2424767,50.875259 45.2424767,49.4868914 C45.2424767,48.6500707 45.6575489,47.8826054 46.3125261,47.4365565 C50.4609814,43.7164259 52.8723081,38.4423608 52.8723081,32.7819018 C52.8723081,21.8715545 43.9604938,13.0262172 32.9662921,13.0262172 C21.9720905,13.0262172 13.0602762,21.8715545 13.0602762,32.7819018 C13.0602762,38.3421055 15.3871825,43.5293995 19.3903525,47.2310869 L19.6937231,47.5059106 L19.8174828,47.6059829 L20.007418,47.7784229 L20.1957337,47.9388534 L20.1617978,47.9777079 L20.2719734,48.133022 C20.4556925,48.4178423 20.5800814,48.7374049 20.6361633,49.0747053 L20.6615438,49.2790779 L20.6700998,49.4868914 C20.6700998,50.875259 19.5369058,52 18.1399617,52 C17.8560075,52 17.5788052,51.95337 17.3173139,51.8641301 L17.1242811,51.7892736 L16.942382,51.7004045 L16.8978574,51.7511568 L16.7144584,51.5949135 C11.2216554,46.9154265 8,40.1081312 8,32.7819018 C8,19.0948194 19.1782023,8 32.9662921,8 Z M32.9662921,18.3196847 C41.0121437,18.3196847 47.5353422,24.7942238 47.5353422,32.7819018 C47.5353422,37.0576207 45.6549725,41.0306099 42.4555712,43.7558917 C41.982566,44.1869623 41.3683725,44.4318352 40.7183083,44.4318352 C39.3213642,44.4318352 38.1881702,43.3070942 38.1881702,41.9187266 C38.1881702,41.2488361 38.4537897,40.6212193 38.921636,40.1504081 L39.0541966,40.0259789 L39.156257,39.9449962 C41.2484911,38.1628689 42.475066,35.571437 42.475066,32.7819018 C42.475066,27.570959 38.2182555,23.3459019 32.9662921,23.3459019 C27.7143288,23.3459019 23.4575183,27.570959 23.4575183,32.7819018 C23.4575183,35.4210111 24.5545512,37.8854992 26.4302601,39.6381632 C27.0805086,40.1064901 27.4732821,40.8552931 27.4732821,41.6694757 C27.4732821,43.0578432 26.3400881,44.1825843 24.943144,44.1825843 C24.6363385,44.1825843 24.3374678,44.1281392 24.0578547,44.0244122 L23.8519326,43.9374572 L23.7104719,43.8634607 L23.6641026,43.9154726 L23.4823779,43.7606436 C20.2772694,41.0298995 18.3972421,37.0572339 18.3972421,32.7819018 C18.3972421,24.7942238 24.9204406,18.3196847 32.9662921,18.3196847 Z M32.7836193,27.826779 C35.4236999,27.826779 37.5639081,29.9669872 37.5639081,32.6070678 C37.5639081,35.1757949 35.5378235,37.2713046 32.9965521,37.382699 L32.7180266,37.3873567 C30.077946,37.3873567 27.9377378,35.2471485 27.9377378,32.6070678 C27.9377378,30.0383408 29.9638224,27.9428311 32.5050938,27.8314367 L32.7836193,27.826779 Z"/>
</svg>