<?xml version="1.0" encoding="UTF-8"?>
<svg xmlns="http://www.w3.org/2000/svg" xmlns:xlink="http://www.w3.org/1999/xlink" width="24" height="24" version="1.1" viewBox="0 0 52 60">
  <defs>
    <path id="_uxs-a" d="M19.5,0 C30.262842,0 39,8.67511183 39,19.3918389 C39,23.5654075 37.7508403,27.6434875 35.4322981,31.7651176 C33.6423973,34.9469917 31.4050519,37.8980742 28.2038516,41.557828 C26.9949874,42.939855 25.396173,44.5061327 23.4039933,46.2632626 L23.4039933,46.2632626 L22.8240923,46.7704987 C20.9843673,48.366728 18.2793569,48.4163129 16.3575866,46.8747247 L16.3575866,46.8747247 L16.20767,46.7482621 L15.5101099,46.1325887 C13.6772974,44.5058919 12.3411606,43.2444751 11.4782172,42.3205861 L11.4782172,42.3205861 L11.2801841,42.105319 L10.7912812,41.55322 C3.77552424,33.5669742 0,26.7950056 0,19.3918389 C0,8.75357685 8.34370402,0.173022901 18.9380807,0.00243414034 L18.9380807,0.00243414034 L19.2468953,0 Z M19.5,14.6346413 C16.8803791,14.6346413 14.7567568,16.7582636 14.7567568,19.3778846 L14.7567568,19.3778846 L14.7567568,19.4920023 C14.7567568,22.1116232 16.8803791,24.2352456 19.5,24.2352456 C22.1196209,24.2352456 24.2432432,22.1116232 24.2432432,19.4920023 L24.2432432,19.4920023 L24.2432432,19.3778846 C24.2432432,16.7582636 22.1196209,14.6346413 19.5,14.6346413 Z"/>
  </defs>
  <use fill="#000" fill-rule="nonzero" stroke="none" stroke-width="1" transform="translate(7 7)" xlink:href="#_uxs-a"/>
</svg>