<?xml version="1.0" encoding="UTF-8"?>
<svg xmlns="http://www.w3.org/2000/svg" xmlns:xlink="http://www.w3.org/1999/xlink" width="24" height="24" version="1.1" viewBox="0 0 57 60">
  <defs>
    <path id="_uxs-a" d="M26.5649295,39.8839479 C26.0768558,42.7875429 23.5472418,45 20.5,45 C17.4527582,45 14.9231442,42.7875429 14.4350705,39.8839479 L26.5649295,39.8839479 Z M4.65966185,2.31464083 L39.8922259,37.4094889 C39.9335093,37.437372 39.9754535,37.4638598 40.0179925,37.4889523 L39.989,37.504 L40.8700734,38.3826335 C41.824484,39.3332903 41.827527,40.8776525 40.8768702,41.832063 L40.8728403,41.8360994 C39.91707,42.7911665 38.3685888,42.7924072 37.4112893,41.8388728 L33.324,37.767 L2,37.7674419 C0.8954305,37.7674419 1.3527075e-16,36.8720114 0,35.7674419 C-1.3527075e-16,34.6628724 0.8954305,33.7674419 2,33.7674419 L3.977,33.767 L6.35963772,14.9984996 C6.50465358,13.8560746 6.78278659,12.7595983 7.17729577,11.7237991 L1.20087774,5.77088015 C0.24646718,4.82022338 0.243424136,3.27586116 1.19408091,2.3214506 L1.19811081,2.31741425 C2.15388113,1.36234712 3.70236234,1.36110647 4.65966185,2.31464083 Z M20.5,0 C22.5762813,0 24.332146,1.36953182 24.9106051,3.25306472 C29.9679375,4.8963547 33.8313622,9.29405383 34.6117436,14.785735 L34.6403623,14.9984996 L36.142,26.835 L13.5669069,4.3535244 C14.3651649,3.90927811 15.209608,3.53977406 16.0902727,3.25377802 C16.6672339,1.37001554 18.4233521,0 20.5,0 Z"/>
  </defs>
  <use fill="#000" fill-rule="nonzero" stroke="none" stroke-width="1" transform="translate(8 8)" xlink:href="#_uxs-a"/>
</svg>