<?xml version="1.0" encoding="UTF-8"?>
<svg xmlns="http://www.w3.org/2000/svg" width="24" height="24" version="1.1" viewBox="0 0 58 60">
  <path fill="#000" fill-rule="evenodd" stroke="none" stroke-width="1" d="M29.8036993,9.01609994 C33.3126831,9.30438202 34.9808135,13.4230395 35.7363829,18.0547102 L35.7363829,18.0547102 L35.8896429,19.0910667 L36.0151235,20.1362226 C36.0338478,20.3106991 36.0515089,20.4852052 36.068154,20.6595723 L36.068154,20.6595723 L36.1562101,21.7027588 L36.2221463,22.73452 L36.2682264,23.746766 L36.2967141,24.731407 L36.3098732,25.6803529 L36.311412,39.6101695 L24.2272727,27.4356702 L24.2272727,33.6968413 L40.4545455,50.0454545 L40.4505795,36.3374402 L40.4238198,32.4987026 L40.3688787,29.0439893 L40.2842728,25.9502395 L40.2004585,23.852937 L40.0984975,21.9359762 L40.0201329,20.7533878 L39.8865366,19.115377 L39.7331247,17.6317644 L39.6195324,16.723662 L39.4966695,15.8769745 L39.3643507,15.0888195 L39.2223906,14.3563143 L39.0706036,13.6765764 L38.9088044,13.0467231 C38.8809932,12.9457445 38.8527571,12.8467242 38.8240923,12.7496024 L38.8240923,12.7496024 L38.646927,12.1891713 L38.4592859,11.6714183 L38.2609836,11.193461 C38.2270345,11.1169576 38.1926334,11.0419923 38.1577766,10.9685049 L38.1577766,10.9685049 L37.9431347,10.5448362 C37.9064391,10.4770205 37.86928,10.4105628 37.8316535,10.3454029 L37.8316535,10.3454029 L37.6002549,9.96953685 L37.3574533,9.62193609 L37.1030633,9.299718 L36.8368994,9 L39.8026314,9 L40.8355706,9.02574055 C42.7623496,9.10275379 43.8880926,9.33229296 44.8168936,9.70235377 L45.267679,9.89903874 L45.7024211,10.1188105 C47.0714154,10.8509567 48.1458101,11.9253514 48.8779563,13.2943457 L49.0977281,13.7290878 L49.294413,14.1798732 C49.6644738,15.1086742 49.894013,16.2344172 49.9710263,18.1611962 L49.9967668,19.1941354 L50,19.7659136 L50,40.2308532 L49.9967668,40.8026314 L49.9710263,41.8355706 C49.894013,43.7623496 49.6644738,44.8880926 49.294413,45.8168936 L49.0977281,46.267679 L48.8779563,46.7024211 C48.1458101,48.0714154 47.0714154,49.1458101 45.7024211,49.8779563 L45.267679,50.0977281 L44.8168936,50.294413 C43.8880926,50.6644738 42.7623496,50.894013 40.8355706,50.9710263 L39.8026314,50.9967668 L39.2308532,51 L28.57,50.999 L28.1963007,50.983899 C24.7619762,50.701732 23.0910041,46.7502109 22.3130932,42.2397258 L22.2636171,41.9448032 L22.1103571,40.9084041 L21.9848765,39.8632087 C21.9661522,39.688726 21.9484911,39.5142138 21.931846,39.3398408 L21.931846,39.3398408 L21.8437899,38.2966209 L21.7778537,37.2648315 L21.7317736,36.2525632 L21.7032859,35.2679066 L21.6901268,34.3189525 L21.688588,20.3898305 L33.7727273,32.5643297 L33.7727273,26.3031587 L17.5454545,9.95454545 L17.5469595,22.6401691 L17.5668926,26.578516 L17.6146221,30.1270735 L17.6695551,32.5465648 L17.7415877,34.7694998 L17.8313473,36.8056074 L17.9013452,38.0640238 L18.022044,39.8103717 L18.1132491,40.8846231 L18.2132624,41.8902529 L18.3222698,42.8301439 L18.4404573,43.7071785 L18.5680107,44.5242394 L18.7051161,45.2842092 L18.8519592,45.9899705 L19.0087261,46.6444057 L19.1756026,47.2503976 C19.2042681,47.3475195 19.2333626,47.442743 19.26289,47.5361281 L19.26289,47.5361281 L19.4452796,48.0748598 C19.4765539,48.161132 19.5082687,48.2456859 19.5404281,48.3285817 L19.5404281,48.3285817 L19.738749,48.806539 C19.7727018,48.8830424 19.8071067,48.9580078 19.8419678,49.0314951 L19.8419678,49.0314951 L20.0566384,49.4551639 L20.2824411,49.8462435 C20.3210129,49.9088678 20.3600563,49.9702543 20.3995751,50.0304632 L20.3995751,50.0304632 L20.6424247,50.3780639 L20.8968712,50.700282 L21.162,50.999 L18.7659136,51 L18.1941354,50.9967668 L17.1611962,50.9710263 C15.2344172,50.894013 14.1086742,50.6644738 13.1798732,50.294413 L12.7290878,50.0977281 L12.2943457,49.8779563 C10.9253514,49.1458101 9.85095667,48.0714154 9.11881053,46.7024211 L8.89903874,46.267679 L8.70235377,45.8168936 C8.33229296,44.8880926 8.10275379,43.7623496 8.02574055,41.8355706 L8,40.8026314 L8,19.1941354 L8.02574055,18.1611962 C8.10275379,16.2344172 8.33229296,15.1086742 8.70235377,14.1798732 L8.89903874,13.7290878 L9.11881053,13.2943457 C9.85095667,11.9253514 10.9253514,10.8509567 12.2943457,10.1188105 L12.7290878,9.89903874 L13.1798732,9.70235377 C14.1086742,9.33229296 15.2344172,9.10275379 17.1611962,9.02574055 L18.1941354,9 L29.4061896,9 Z"/>
</svg>