<?xml version="1.0" encoding="UTF-8"?>
<svg xmlns="http://www.w3.org/2000/svg" xmlns:xlink="http://www.w3.org/1999/xlink" width="24" height="24" version="1.1" viewBox="0 0 57 60">
  <defs>
    <path id="_uxs-a" d="M16.6526953,0.0677862861 L16.5088029,0.102819445 C5.31465091,2.87424012 -1.79617386,13.9971537 0.396615042,25.394079 L0.593785487,26.4188638 C2.86209998,38.20833 14.2168197,45.8968587 25.9552619,43.5916732 C32.2673245,42.3521156 37.5983879,38.4173929 40.6995119,32.8959767 C41.6746443,31.1597957 40.1274421,29.0935345 38.1983112,29.5556675 C37.9665023,29.6111984 37.7330425,29.6620637 37.4980143,29.7082183 C28.2243974,31.5293635 19.2539293,25.4552637 17.461913,16.1413367 L17.2647426,15.1165519 L17.2113448,14.8263832 C16.5145013,10.8701018 17.2227741,6.85861994 19.162003,3.40620011 C20.13918,1.6665265 18.5840507,-0.40243658 16.6526953,0.0677862861 Z"/>
  </defs>
  <use fill="#000" fill-rule="nonzero" stroke="none" stroke-width="1" transform="translate(8 8)" xlink:href="#_uxs-a"/>
</svg>