<?xml version="1.0" encoding="UTF-8"?>
<svg xmlns="http://www.w3.org/2000/svg" width="24" height="24" version="1.1" viewBox="0 0 52 60">
  <path fill="#000" fill-rule="nonzero" stroke="none" stroke-width="1" d="M31.7573593,8 C32.5530088,8 33.3160705,8.31607052 33.8786797,8.87867966 L43.1213203,18.1213203 C43.6839295,18.6839295 44,19.4469912 44,20.2426407 L44,46 C44,49.3137085 41.3137085,52 38,52 L14,52 C10.6862915,52 8,49.3137085 8,46 L8,14 C8,10.6862915 10.6862915,8 14,8 L31.7573593,8 Z M26,36.5 C23.8,36.5 22,38.3 22,40.5 C22,42.7 23.8,44.5 26,44.5 C28.2,44.5 30,42.7 30,40.5 C30,38.3 28.2,36.5 26,36.5 Z M26.1,17 C24.5,17 23.1,18.4 23.1,20 L23.1,20 L23.1,30 C23.1,31.7 24.5,33 26.1,33 C27.7,33 29.1,31.6 29.1,30 L29.1,30 L29.1,20 C29.1,18.3 27.8,17 26.1,17 Z"/>
</svg>