<?xml version="1.0" encoding="utf-8"?>
<!-- Generator: Adobe Illustrator 24.3.0, SVG Export Plug-In . SVG Version: 6.00 Build 0)  -->
<svg version="1.1" id="图层_1" xmlns="http://www.w3.org/2000/svg" xmlns:xlink="http://www.w3.org/1999/xlink" x="0px" y="0px"
	 viewBox="0 0 24 24" style="enable-background:new 0 0 24 24;" xml:space="preserve">
<style type="text/css">
	.st0{fill:none;}
</style>
<g id="_ic_power_off">
	<g id="_icon">
		<polygon id="_Fill-1" class="st0" points="0,24 24,24 24,0 0,0 		"/>
		<path d="M12,12c-0.4,0-0.8-0.4-0.8-0.8V2.8C11.2,2.4,11.6,2,12,2s0.8,0.4,0.8,0.8v8.4C12.8,11.6,12.4,12,12,12z"/>
		<path d="M12,22C6.5,22,2,17.5,2,12c0-3.6,1.9-6.9,5-8.7c0.4-0.2,0.9-0.1,1.1,0.3C8.3,4,8.2,4.5,7.8,4.7C5.2,6.2,3.6,9,3.6,12
			c0,4.6,3.8,8.4,8.4,8.4s8.4-3.8,8.4-8.4c0-3-1.6-5.8-4.2-7.3c-0.4-0.2-0.5-0.7-0.3-1.1c0.2-0.4,0.7-0.5,1.1-0.3
			c3.1,1.8,5,5.1,5,8.7C22,17.5,17.5,22,12,22z"/>
	</g>
</g>
</svg>
