<?xml version="1.0" encoding="utf-8"?>
<!-- Generator: Adobe Illustrator 24.3.0, SVG Export Plug-In . SVG Version: 6.00 Build 0)  -->
<svg version="1.1" id="图层_1" xmlns="http://www.w3.org/2000/svg" xmlns:xlink="http://www.w3.org/1999/xlink" x="0px" y="0px"
	 viewBox="0 0 24 24" style="enable-background:new 0 0 24 24;" xml:space="preserve">
<style type="text/css">
	.st0{fill:none;}
</style>
<g id="_ic_reboot">
	<g id="_icon">
		<polygon id="_Fill-1" class="st0" points="0,24 24,24 24,0 0,0 		"/>
		<g id="_Group" transform="translate(2.800040, 2.800040)">
			<path d="M9.2,4.3C8.8,4.3,8.4,4,8.4,3.5V0c0-0.4,0.4-0.8,0.8-0.8S10-0.4,10,0v3.5C10,4,9.6,4.3,9.2,4.3z"/>
			<path d="M9.2,19.2c-0.4,0-0.8-0.4-0.8-0.8v-3.5c0-0.4,0.4-0.8,0.8-0.8s0.8,0.4,0.8,0.8v3.5C10,18.8,9.6,19.2,9.2,19.2z"/>
			<path d="M13.2,6c-0.2,0-0.4-0.1-0.6-0.2c-0.3-0.3-0.3-0.8,0-1.1l2.5-2.5c0.3-0.3,0.8-0.3,1.1,0c0.3,0.3,0.3,0.8,0,1.1l-2.5,2.5
				C13.6,5.9,13.4,6,13.2,6z"/>
			<path d="M2.7,16.5c-0.2,0-0.4-0.1-0.6-0.2c-0.3-0.3-0.3-0.8,0-1.1l2.5-2.5c0.3-0.3,0.8-0.3,1.1,0c0.3,0.3,0.3,0.8,0,1.1l-2.5,2.5
				C3.1,16.4,2.9,16.5,2.7,16.5z"/>
			<path d="M3.5,10H0c-0.4,0-0.8-0.4-0.8-0.8S-0.4,8.4,0,8.4h3.5c0.4,0,0.8,0.4,0.8,0.8S4,10,3.5,10z"/>
			<path d="M18.4,10h-3.5c-0.4,0-0.8-0.4-0.8-0.8s0.4-0.8,0.8-0.8h3.5c0.4,0,0.8,0.4,0.8,0.8S18.8,10,18.4,10z"/>
			<path d="M5.2,6C5,6,4.8,5.9,4.6,5.8L2.1,3.3c-0.3-0.3-0.3-0.8,0-1.1c0.3-0.3,0.8-0.3,1.1,0l2.5,2.5c0.3,0.3,0.3,0.8,0,1.1
				C5.6,5.9,5.4,6,5.2,6z"/>
			<path d="M15.7,16.5c-0.2,0-0.4-0.1-0.6-0.2l-2.5-2.5c-0.3-0.3-0.3-0.8,0-1.1s0.8-0.3,1.1,0l2.5,2.5c0.3,0.3,0.3,0.8,0,1.1
				C16.1,16.4,15.9,16.5,15.7,16.5z"/>
		</g>
	</g>
</g>
</svg>
