<?xml version="1.0" encoding="UTF-8"?>
<svg xmlns="http://www.w3.org/2000/svg" width="24" height="24" version="1.1" viewBox="0 0 80 60">
  <path fill="#060101" fill-rule="evenodd" stroke="none" stroke-width="1" d="M63.4184237,9.26405445 C68.8778496,14.7347363 72.0018425,22.1315944 72.0018425,30.0166513 C72.0018425,37.8816407 68.8938075,45.26128 63.4589606,50.7285485 C62.4855576,51.7077584 60.9026522,51.7124658 59.9234424,50.7390628 C58.9442325,49.7656598 58.9395252,48.1827543 59.9129281,47.2035445 C64.4257289,42.6638226 67.0018425,36.5471639 67.0018425,30.0166513 C67.0018425,23.469494 64.4124874,17.3385286 59.8792507,12.7959456 C58.9039459,11.8186299 58.905576,10.2357183 59.8828917,9.26041353 C60.8602073,8.28510873 62.4431189,8.28673883 63.4184237,9.26405445 Z M16.5834188,9.26405445 C17.5587236,8.28673883 19.1416352,8.28510873 20.1189508,9.26041353 C21.0962664,10.2357183 21.0978965,11.8186299 20.1225917,12.7959456 C15.5893551,17.3385286 13,23.469494 13,30.0166513 C13,36.5471639 15.5761135,42.6638226 20.0889143,47.2035445 C21.0623173,48.1827543 21.0576099,49.7656598 20.0784001,50.7390628 C19.0991903,51.7124658 17.5162848,51.7077584 16.5428818,50.7285485 C11.1080349,45.26128 8,37.8816407 8,30.0166513 C8,22.1315944 11.1239929,14.7347363 16.5834188,9.26405445 Z M42.3370409,11 L42.4454552,11.005894 C42.9134694,11.055852 43.3480409,11.4207143 43.3480409,12.002 L43.3480409,12.002 L43.3480409,26.593 L48.4850409,26.593 L48.6017588,26.5995359 C49.2875616,26.677144 49.7033567,27.431 49.3670409,28.061 L49.3670409,28.061 L38.5300409,48.454 L38.46963,48.5544483 C37.9350231,49.3452056 36.6480409,48.9849615 36.6480409,47.984 L36.6480409,47.984 L36.6480409,33.392 L31.5100409,33.392 L31.3933387,33.38548 C30.7077195,33.3080582 30.2936198,32.5559474 30.6280409,31.925 L30.6280409,31.925 L41.4660409,11.532 C41.6620409,11.166 42.0000409,11 42.3370409,11 L42.3370409,11 Z M55.5695865,15.5833731 C59.3644526,19.3860632 61.5367262,24.5294808 61.5367262,30.0104452 C61.5367262,35.4774577 59.3755465,40.6089079 55.5977609,44.4092299 C54.6243579,45.3884398 53.0414525,45.3931471 52.0622427,44.4197441 C51.0830328,43.4463412 51.0783255,41.8634357 52.0517284,40.8842259 C54.9074679,38.0114505 56.5367262,34.1429809 56.5367262,30.0104452 C56.5367262,25.8673803 54.8990904,21.9898555 52.0304135,19.1152642 C51.0551087,18.1379486 51.0567388,16.5550369 52.0340545,15.5797321 C53.0113701,14.6044273 54.5942817,14.6060574 55.5695865,15.5833731 Z M24.432256,15.5833731 C25.4075608,14.6060574 26.9904724,14.6044273 27.967788,15.5797321 C28.9451036,16.5550369 28.9467337,18.1379486 27.9714289,19.1152642 C25.1027521,21.9898555 23.4651163,25.8673803 23.4651163,30.0104452 C23.4651163,34.1429809 25.0943746,38.0114505 27.950114,40.8842259 C28.923517,41.8634357 28.9188096,43.4463412 27.9395998,44.4197441 C26.96039,45.3931471 25.3774845,45.3884398 24.4040815,44.4092299 C20.6262959,40.6089079 18.4651163,35.4774577 18.4651163,30.0104452 C18.4651163,24.5294808 20.6373899,19.3860632 24.432256,15.5833731 Z"/>
</svg>