<?xml version="1.0" encoding="UTF-8"?>
<svg xmlns="http://www.w3.org/2000/svg" width="24" height="24" version="1.1" viewBox="0 0 86 60">
  <g fill="#000" fill-rule="evenodd" stroke="none" stroke-width="1">
    <path d="M25.8919556,8 C27.2479358,8 28.3057325,8.3566879 29.0625147,9.07006369 C29.8202406,9.78249587 30.3213022,10.8619958 30.5685303,12.3057325 L27.2658646,13.8117481 C27.0894079,12.9492805 26.8874735,12.3500826 26.6572305,12.0160415 C26.4288747,11.6810569 26.1382402,11.5130927 25.7862703,11.5130927 C24.4652041,11.5130927 23.8046709,13.6711489 23.8046709,17.9872611 C23.8046709,20.2236377 23.9764095,21.8617598 24.3198868,22.9016277 C24.663364,23.940552 25.1870724,24.4595423 25.8919556,24.4595423 C26.4911536,24.4595423 26.8950224,24.1424864 27.1073366,23.5083746 L27.1073366,19.967917 L25.3371078,19.967917 L25.3371078,16.6388299 L30.6223166,16.6388299 L30.6223166,24.6180703 C30.3401746,25.6928521 29.7758905,26.5251238 28.9304081,27.1158292 C28.0849257,27.7055909 27.0101439,28 25.7070064,28 C23.9103562,28 22.5100259,27.2611465 21.505072,25.7806086 C20.5020052,24.3010144 20,21.7032319 20,17.9872611 C20,14.2703468 20.5284265,11.6763388 21.5843359,10.2061807 C22.6421326,8.73507903 24.0773767,8 25.8919556,8 Z M17.9219312,8 L17.9219312,11.3342934 L13.3510786,11.3342934 L13.028498,15.2590246 C13.4048421,15.0794931 13.8800725,14.9902074 14.4532292,14.9902074 C15.7617929,14.9902074 16.7516163,15.5182412 17.4236593,16.5762289 C18.0957023,17.6342166 18.4317238,19.1751152 18.4317238,21.1989247 C18.4317238,23.4579493 18.0054565,25.156298 17.1558022,26.2939708 C16.3032676,27.4316436 15.0628682,28 13.4317238,28 C12.231647,28 11.2821462,27.6822197 10.5822614,27.0456989 C9.88333671,26.4101382 9.35530292,25.3655914 8.9972,23.9149386 L12.1154796,22.1676267 C12.2402876,22.9740783 12.3977376,23.5520353 12.5849496,23.9014977 C12.7731217,24.2509601 13.028498,24.4256912 13.3510786,24.4256912 C13.762945,24.4256912 14.0452031,24.1703149 14.1988129,23.6595622 C14.3505026,23.1488095 14.4263475,22.3922811 14.4263475,21.3880568 C14.4263475,19.3805684 14.0586439,18.3773041 13.3241969,18.3773041 C13.0380986,18.3773041 12.8038436,18.5165131 12.6252722,18.7939708 C12.4457407,19.0723886 12.2930909,19.4621736 12.1682829,19.9623656 L9.29193886,18.6451613 L10.1521539,8 L17.9219312,8 Z"/>
    <path d="M34.9999,43.0001 C36.6569,43.0001 37.9999,44.3441 37.9999,46.0001 L37.9999,49.0001 C37.9999,50.6561 36.6569,52.0001 34.9999,52.0001 C33.3429,52.0001 31.9999,50.6561 31.9999,49.0001 L31.9999,46.0001 C31.9999,44.3441 33.3429,43.0001 34.9999,43.0001 Z M44.9999,34.0001 C46.6569,34.0001 47.9999,35.3441 47.9999,37.0001 L47.9999,49.0001 C47.9999,50.6561 46.6569,52.0001 44.9999,52.0001 C43.3429,52.0001 41.9999,50.6561 41.9999,49.0001 L41.9999,37.0001 C41.9999,35.3441 43.3429,34.0001 44.9999,34.0001 Z M54.9999,25.0001 C56.6569,25.0001 57.9999,26.3441 57.9999,28.0001 L57.9999,49.0001 C57.9999,50.6561 56.6569,52.0001 54.9999,52.0001 C53.3429,52.0001 51.9999,50.6561 51.9999,49.0001 L51.9999,28.0001 C51.9999,26.3441 53.3429,25.0001 54.9999,25.0001 Z M64.9999,16.0001 C66.6569,16.0001 67.9999,17.3441 67.9999,19.0001 L67.9999,49.0001 C67.9999,50.6561 66.6569,52.0001 64.9999,52.0001 C63.3429,52.0001 61.9999,50.6561 61.9999,49.0001 L61.9999,19.0001 C61.9999,17.3441 63.3429,16.0001 64.9999,16.0001 Z M74.9999,8.0001 C76.6569,8.0001 77.9999,9.3441 77.9999,11.0001 L77.9999,49.0001 C77.9999,50.6561 76.6569,52.0001 74.9999,52.0001 C73.3429,52.0001 71.9999,50.6561 71.9999,49.0001 L71.9999,11.0001 C71.9999,9.3441 73.3429,8.0001 74.9999,8.0001 Z"/>
  </g>
</svg>