<?xml version="1.0" encoding="UTF-8"?>
<svg xmlns="http://www.w3.org/2000/svg" width="24" height="24" version="1.1" viewBox="0 0 86 60">
  <g fill="#000" fill-rule="evenodd" stroke="none" stroke-width="1">
    <path d="M16.3333333,8 L11.7978142,20.9508197 L13.9836066,20.9508197 L13.9836066,16.6338798 L17.3989071,16.6338798 L17.3989071,20.9508197 L18.9562842,20.9508197 L18.9562842,24.3661202 L17.3989071,24.3661202 L17.3989071,28 L13.8743169,28 L13.8743169,24.3661202 L8,24.3661202 L8,21.3060109 L12.6174863,8 L16.3333333,8 Z M25.8919556,8 C27.2479358,8 28.3057325,8.3566879 29.0625147,9.07006369 C29.8202406,9.78249587 30.3213022,10.8619958 30.5685303,12.3057325 L27.2658646,13.8117481 C27.0894079,12.9492805 26.8874735,12.3500826 26.6572305,12.0160415 C26.4288747,11.6810569 26.1382402,11.5130927 25.7862703,11.5130927 C24.4652041,11.5130927 23.8046709,13.6711489 23.8046709,17.9872611 C23.8046709,20.2236377 23.9764095,21.8617598 24.3198868,22.9016277 C24.663364,23.940552 25.1870724,24.4595423 25.8919556,24.4595423 C26.4911536,24.4595423 26.8950224,24.1424864 27.1073366,23.5083746 L27.1073366,19.967917 L25.3371078,19.967917 L25.3371078,16.6388299 L30.6223166,16.6388299 L30.6223166,24.6180703 C30.3401746,25.6928521 29.7758905,26.5251238 28.9304081,27.1158292 C28.0849257,27.7055909 27.0101439,28 25.7070064,28 C23.9103562,28 22.5100259,27.2611465 21.505072,25.7806086 C20.5020052,24.3010144 20,21.7032319 20,17.9872611 C20,14.2703468 20.5284265,11.6763388 21.5843359,10.2061807 C22.6421326,8.73507903 24.0773767,8 25.8919556,8 Z"/>
    <path d="M34.9999,43.0001 C36.6569,43.0001 37.9999,44.3441 37.9999,46.0001 L37.9999,49.0001 C37.9999,50.6561 36.6569,52.0001 34.9999,52.0001 C33.3429,52.0001 31.9999,50.6561 31.9999,49.0001 L31.9999,46.0001 C31.9999,44.3441 33.3429,43.0001 34.9999,43.0001 Z M44.9999,34.0001 C46.6569,34.0001 47.9999,35.3441 47.9999,37.0001 L47.9999,49.0001 C47.9999,50.6561 46.6569,52.0001 44.9999,52.0001 C43.3429,52.0001 41.9999,50.6561 41.9999,49.0001 L41.9999,37.0001 C41.9999,35.3441 43.3429,34.0001 44.9999,34.0001 Z M54.9999,25.0001 C56.6569,25.0001 57.9999,26.3441 57.9999,28.0001 L57.9999,49.0001 C57.9999,50.6561 56.6569,52.0001 54.9999,52.0001 C53.3429,52.0001 51.9999,50.6561 51.9999,49.0001 L51.9999,28.0001 C51.9999,26.3441 53.3429,25.0001 54.9999,25.0001 Z M64.9999,16.0001 C66.6569,16.0001 67.9999,17.3441 67.9999,19.0001 L67.9999,49.0001 C67.9999,50.6561 66.6569,52.0001 64.9999,52.0001 C63.3429,52.0001 61.9999,50.6561 61.9999,49.0001 L61.9999,19.0001 C61.9999,17.3441 63.3429,16.0001 64.9999,16.0001 Z M74.9999,8.0001 C76.6569,8.0001 77.9999,9.3441 77.9999,11.0001 L77.9999,49.0001 C77.9999,50.6561 76.6569,52.0001 74.9999,52.0001 C73.3429,52.0001 71.9999,50.6561 71.9999,49.0001 L71.9999,11.0001 C71.9999,9.3441 73.3429,8.0001 74.9999,8.0001 Z"/>
  </g>
</svg>