<?xml version="1.0" encoding="UTF-8"?>
<svg xmlns="http://www.w3.org/2000/svg" width="24" height="24" version="1.1" viewBox="0 0 68 60">
  <path fill="#000" fill-rule="nonzero" stroke="none" stroke-width="1" d="M32.3900112,0 C35.1057145,0 36.0904941,0.266369145 37.0833146,0.766554715 C38.0761351,1.26674029 38.8553065,2.00074228 39.3862727,2.93600798 L39.4680418,3.0838574 C39.94622,3.9734422 40.2,4.93361048 40.2,7.35723579 L40.2,36.6427642 L40.1976552,37.0333901 C40.1695481,39.298708 39.8892933,40.1779508 39.3862727,41.063992 C38.8553065,41.9992577 38.0761351,42.7332597 37.0833146,43.2334453 L36.9263668,43.3104741 C35.9820383,43.7609318 34.9627827,44 32.3900112,44 L21.6099888,44 L21.1953244,43.9977912 C18.7906022,43.9713135 17.8572522,43.7073053 16.9166854,43.2334453 C15.9238649,42.7332597 15.1446935,41.9992577 14.6137273,41.063992 L14.5319582,40.9161426 C14.05378,40.0265578 13.8,39.0663895 13.8,36.6427642 L13.8,7.35723579 C13.8,4.79896462 14.0827611,3.87127368 14.6137273,2.93600798 C15.1446935,2.00074228 15.9238649,1.26674029 16.9166854,0.766554715 L17.0736332,0.689525865 C18.0179617,0.239068152 19.0372173,0 21.6099888,0 L32.3900112,0 Z M31.4977089,5 L22.646954,5 L22.2301208,5.0025224 C20.9285366,5.01954391 20.4769356,5.1247557 20.0168465,5.37981205 C19.6437631,5.58663565 19.3656741,5.87489404 19.1661469,6.26162055 C18.9036846,6.77032871 18.8056976,7.26902606 18.8,8.8376785 L18.8,35.1623215 L18.8022746,35.4528611 C18.8190257,36.7953636 18.9206177,37.2624912 19.1661469,37.7383795 C19.3656741,38.125106 19.6437631,38.4133644 20.0168465,38.620188 C20.4769356,38.8752443 20.9285366,38.9804561 22.2301208,38.9974776 L22.646954,39 L31.35278,39 C32.9809621,39 33.4767895,38.9007499 33.9828875,38.620188 C34.3559709,38.4133644 34.63406,38.125106 34.8335871,37.7383795 C35.0796455,37.2614655 35.1811456,36.7933502 35.1975666,35.444169 L35.2,35.0120927 L35.2,8.98790726 C35.2,7.30018487 35.1042513,6.78622584 34.8335871,6.26162055 C34.63406,5.87489404 34.3559709,5.58663565 33.9828875,5.37981205 C33.4921258,5.10775195 33.0110217,5.00618165 31.4977089,5 Z M1.46758839,7.06758839 C2.34351153,6.19166524 3.73219459,6.11004851 4.70183556,6.86399003 L4.70183556,6.86399003 L4.93241161,7.06758839 L9.33241161,11.4675884 C10.2083348,12.3435115 10.2899515,13.7321946 9.52604567,14.7138563 L9.52604567,14.7138563 L9.33246539,14.9323578 L6.665,17.6 L9.33241161,20.2675884 C10.1645386,21.0997154 10.2798041,22.3946082 9.63429652,23.3636694 L9.63429652,23.3636694 L9.52604567,23.5138563 L9.33246539,23.7323578 L6.665,26.4 L9.33241161,29.0675884 C10.1645386,29.8997154 10.2798041,31.1946082 9.63429652,32.1636694 L9.63429652,32.1636694 L9.52604567,32.3138563 L9.33241161,32.5324116 L4.93241161,36.9324116 C3.9756271,37.8891961 2.4243729,37.8891961 1.46758839,36.9324116 C0.591665241,36.0564885 0.510048506,34.6678054 1.27395433,33.6861437 L1.27395433,33.6861437 L1.46753461,33.4676422 L4.134,30.8 L1.46758839,28.1324116 C0.635461398,27.3002846 0.520195946,26.0053918 1.16570348,25.0363306 L1.16570348,25.0363306 L1.27395433,24.8861437 L1.46753461,24.6676422 L4.134,22 L1.46758839,19.3324116 C0.635461398,18.5002846 0.520195946,17.2053918 1.16570348,16.2363306 L1.16570348,16.2363306 L1.27395433,16.0861437 L1.46753461,15.8676422 L4.134,13.2 L1.46758839,10.5324116 C0.635461398,9.70028463 0.520195946,8.40539182 1.16570348,7.43633065 L1.16570348,7.43633065 L1.27395433,7.28614371 Z M52.9324116,7.06758839 L53.1260457,7.28614371 L53.2342965,7.43633065 C53.8798041,8.40539182 53.7645386,9.70028463 52.9324116,10.5324116 L50.266,13.2 L52.9324654,15.8676422 L53.1260457,16.0861437 L53.2342965,16.2363306 C53.8798041,17.2053918 53.7645386,18.5002846 52.9324116,19.3324116 L50.266,22 L52.9324654,24.6676422 L53.1260457,24.8861437 L53.2342965,25.0363306 C53.8798041,26.0053918 53.7645386,27.3002846 52.9324116,28.1324116 L50.266,30.8 L52.9324654,33.4676422 L53.1260457,33.6861437 C53.8899515,34.6678054 53.8083348,36.0564885 52.9324116,36.9324116 C51.9756271,37.8891961 50.4243729,37.8891961 49.4675884,36.9324116 L45.0675884,32.5324116 L44.8739543,32.3138563 L44.7657035,32.1636694 C44.1201959,31.1946082 44.2354614,29.8997154 45.0675884,29.0675884 L47.735,26.399 L45.0675346,23.7323578 L44.8739543,23.5138563 L44.7657035,23.3636694 C44.1201959,22.3946082 44.2354614,21.0997154 45.0675884,20.2675884 L47.735,17.6 L45.0675346,14.9323578 L44.8739543,14.7138563 C44.1100485,13.7321946 44.1916652,12.3435115 45.0675884,11.4675884 L49.4675884,7.06758839 L49.6981644,6.86399003 C50.6678054,6.11004851 52.0564885,6.19166524 52.9324116,7.06758839 Z" transform="translate(7 8)"/>
</svg>