<?xml version="1.0" encoding="UTF-8"?>
<svg xmlns="http://www.w3.org/2000/svg" xmlns:xlink="http://www.w3.org/1999/xlink" width="24" height="24" viewBox="0 0 96 96" version="1.1">
    <title>Public/ic_wlan</title>
    <g id="_Public/ic_wlan" stroke="none" stroke-width="1" fill="none" fill-rule="evenodd">
        <g id="_public/ic_wlan" transform="translate(0.000000, 12.000000)" fill="#000000" fill-rule="nonzero">
            <rect id="_Rectangle" x="39" y="53" width="18" height="18" rx="9"/>
            <path d="M69.9744626,45.0195926 C71.072819,46.2600679 70.9576088,48.1560657 69.7171334,49.2544222 C68.4766581,50.3527786 66.5806603,50.2375684 65.4823038,48.997093 C61.0765328,44.0212488 54.7759133,41.1219512 48,41.1219512 C41.2214137,41.1219512 34.9185412,44.0235553 30.5126366,49.0028091 C29.4146833,50.2436413 27.518723,50.3594675 26.2778909,49.2615142 C25.0370587,48.1635608 24.9212325,46.2676006 26.0191858,45.0267684 C31.5522379,38.7736891 39.4845532,35.1219512 48,35.1219512 C56.5120844,35.1219512 64.4415747,38.7707911 69.9744626,45.0195926 Z" id="_Path"/>
            <path d="M82.3616061,32.5395035 C83.4895897,33.7531011 83.4201857,35.6513277 82.2065881,36.7793112 C80.9929904,37.9072947 79.0947639,37.8378907 77.9667804,36.6242931 C70.2738119,28.3474272 59.5240253,23.5609756 48,23.5609756 C36.4749045,23.5609756 25.7242093,28.3483226 18.0311365,36.6265345 C16.9032432,37.8402159 15.0050218,37.909761 13.7913404,36.7818677 C12.5776589,35.6539744 12.5081139,33.755753 13.6360072,32.5420715 C22.4527523,23.0547201 34.7897676,17.5609756 48,17.5609756 C61.2090048,17.5609756 73.5449795,23.0536935 82.3616061,32.5395035 Z" id="_Path"/>
            <path d="M94.7620496,20.0915822 C95.9026896,21.293292 95.8531826,23.1921417 94.6514728,24.3327817 C93.449763,25.4734216 91.5509133,25.4239147 90.4102734,24.2222049 C79.4385844,12.6630915 64.2549922,6 48,6 C31.7469103,6 16.5649384,12.6615213 5.59347355,24.2182577 C4.45272247,25.419862 2.55386823,25.4691933 1.3522639,24.3284422 C0.150659566,23.1876912 0.101328265,21.2888369 1.24207935,20.0872326 C13.3349615,7.34925698 30.0843207,5.68434189e-14 48,5.68434189e-14 C65.9177701,5.68434189e-14 82.6689218,7.35098815 94.7620496,20.0915822 Z" id="_Path"/>
        </g>
    </g>
</svg>