<?xml version="1.0" encoding="UTF-8"?>
<svg xmlns="http://www.w3.org/2000/svg" xmlns:xlink="http://www.w3.org/1999/xlink" width="24" height="24" viewBox="0 0 96 96" version="1.1">
    <title>Public/ic_wifi6+_risk</title>
    <defs>
        <path d="M77.5367692,51.4508365 C78.7765696,50.8497212 80.2234304,50.8497212 81.4632308,51.4508365 L81.4632308,51.4508365 L91.0974231,56.1219601 C92.2610578,56.6861466 93,57.8656381 93,59.1588327 L93,59.1588327 L93,66.3742253 C93,74.2730709 87.9688838,81.1643914 80.6263293,83.6952706 C80.5368712,83.7261056 80.1614354,83.8433008 79.5000219,84.046856 L79.5000219,84.046856 L79.3276333,83.9937956 C78.7764663,83.8240063 78.4599179,83.7250045 78.3779881,83.6967903 C71.0332383,81.1674774 66,74.2750466 66,66.3742253 L66,66.3742253 L66,59.1588327 C66,57.8656381 66.7389422,56.6861466 67.9025769,56.1219601 L67.9025769,56.1219601 Z M79.5,72.75 C78.2573593,72.75 77.25,73.7573593 77.25,75 C77.25,76.2426407 78.2573593,77.25 79.5,77.25 C80.7426407,77.25 81.75,76.2426407 81.75,75 C81.75,73.7573593 80.7426407,72.75 79.5,72.75 Z M79.5,57 C78.2573593,57 77.25,58.0073593 77.25,59.25 C77.25,59.3360659 77.2548323,59.4210031 77.2642404,59.5045552 L77.2642404,59.5045552 L77.8125,68.8125 C77.8125,69.7444805 78.5680195,70.5 79.5,70.5 C80.4319805,70.5 81.1875,69.7444805 81.1875,68.8125 L81.1875,68.8125 L81.7233004,59.5976837 C81.7408784,59.4843631 81.75,59.3682468 81.75,59.25 C81.75,58.0073593 80.7426407,57 79.5,57 Z" id="_path-1"/>
    </defs>
    <g id="_Public/ic_wifi6+_risk" stroke="none" stroke-width="1" fill="none" fill-rule="evenodd">
        <path d="M48.0012986,12 C65.9190687,12 82.6702204,19.3509882 94.7633482,32.0915822 C95.9039881,33.293292 95.8544812,35.1921417 94.6527714,36.3327817 C93.4510616,37.4734216 91.5522119,37.4239147 90.4115719,36.2222049 C79.439883,24.6630915 64.2562908,18 48.0012986,18 C43.9163255,18 39.8990142,18.4208041 35.9992079,19.2343692 L35.9994736,13.1173776 C39.9123803,12.3801473 43.9266749,12 48.0012986,12 Z" id="_Path" fill="#000000" fill-rule="nonzero"/>
        <path d="M48.0012986,29.5609756 C61.2103034,29.5609756 73.5462781,35.0536935 82.3629047,44.5395035 C83.2959384,45.5433546 83.4097081,47.0156354 82.7343193,48.1329503 L81.4735151,47.5456937 C80.0045424,46.8610975 78.3047326,46.8206428 76.8084783,47.4243296 C69.2131954,39.8870725 58.9571337,35.5609756 48.0012986,35.5609756 C36.4762031,35.5609756 25.7255079,40.3483226 18.0324351,48.6265345 C16.9045418,49.8402159 15.0063204,49.909761 13.7926389,48.7818677 C12.5789575,47.6539744 12.5094124,45.755753 13.6373057,44.5420715 C22.4540509,35.0547201 34.7910662,29.5609756 48.0012986,29.5609756 Z" id="_Path" fill="#000000" fill-rule="nonzero"/>
        <path d="M48.0012986,47.1219512 C54.3469191,47.1219512 60.3687653,49.1497794 65.3152942,52.7708859 L64.3971362,53.1996337 C62.9318184,53.8825265 62.0012986,55.3101861 62.0012986,56.8754722 L62.0020372,57.7834811 C58.0248463,54.7961353 53.1503004,53.1219512 48.0012986,53.1219512 C41.2227123,53.1219512 34.9198398,56.0235553 30.5139352,61.0028091 C29.4159819,62.2436413 27.5200216,62.3594675 26.2791894,61.2615142 C25.0383572,60.1635608 24.922531,58.2676006 26.0204844,57.0267684 C31.5535365,50.7736891 39.4858517,47.1219512 48.0012986,47.1219512 Z" id="_Path" fill="#000000" fill-rule="nonzero"/>
        <rect id="_Rectangle" fill="#000000" fill-rule="nonzero" x="39.0012986" y="65" width="18" height="18" rx="9"/>
        <path d="M19.5,19.5 L23.5,19.5 L23.5,23.5 C23.5,23.7761424 23.7238576,24 24,24 L27,24 C27.2761424,24 27.5,23.7761424 27.5,23.5 L27.5,19.5 L31.5,19.5 C31.7761424,19.5 32,19.2761424 32,19 L32,16 C32,15.7238576 31.7761424,15.5 31.5,15.5 L27.5,15.5 L27.5,11.5 C27.5,11.2238576 27.2761424,11 27,11 L24,11 C23.7238576,11 23.5,11.2238576 23.5,11.5 L23.5,15.5 L19.5,15.5 C19.2238576,15.5 19,15.7238576 19,16 L19,19 C19,19.2761424 19.2238576,19.5 19.5,19.5 Z" id="_路径" fill="#000000" fill-rule="nonzero"/>
        <mask id="_mask-2" fill="white">
            <use xlink:href="#_path-1"/>
        </mask>
        <use id="_形状结合" fill="#000000" fill-rule="nonzero" xlink:href="#_path-1"/>
        <path d="M12.0647906,36 C14.2870129,36 16.1653197,35.2922252 17.6997113,33.8766756 C19.2341028,32.461126 20.0012986,30.616622 20.0012986,28.3431635 C20.0012986,26.1769437 19.3187589,24.3806971 17.9536795,22.9544236 C16.5886002,21.5281501 14.8266954,20.8150134 12.6679652,20.8150134 C11.9624979,20.8150134 11.4320628,20.8766756 11.0766602,21 L17.413997,12 L12.3187589,12 L7.20764778,19.9142091 C6.06479064,21.7587131 5.24468482,23.2922252 4.74733032,24.5147453 C4.24997583,25.7372654 4.00129858,26.9705094 4.00129858,28.2144772 C4.00129858,30.4879357 4.76320334,32.3538874 6.28701286,33.8123324 C7.81082239,35.2707775 9.73674831,36 12.0647906,36 Z M12.1215993,32 C10.8584414,32 9.85593517,31.6399027 9.11408053,30.919708 C8.3722259,30.1995134 8.00129858,29.2262774 8.00129858,28 C8.00129858,26.7931873 8.3722259,25.8248175 9.11408053,25.0948905 C9.85593517,24.3649635 10.8584414,24 12.1215993,24 C13.2845066,24 14.22185,24.3649635 14.9336294,25.0948905 C15.6454089,25.8248175 16.0012986,26.7931873 16.0012986,28 C16.0012986,29.2262774 15.6454089,30.1995134 14.9336294,30.919708 C14.22185,31.6399027 13.2845066,32 12.1215993,32 Z" id="_6" fill="#000000" fill-rule="nonzero"/>
    </g>
</svg>