<?xml version="1.0" encoding="UTF-8"?>
<svg xmlns="http://www.w3.org/2000/svg" xmlns:xlink="http://www.w3.org/1999/xlink" width="24" height="24" viewBox="0 0 96 96" version="1.1">
    <title>Public/ic_wlan_error</title>
    <g id="_Public/ic_wlan_error" stroke="none" stroke-width="1" fill="none" fill-rule="evenodd">
        <path d="M94.7620496,32.0915822 C95.9026896,33.293292 95.8531826,35.1921417 94.6514728,36.3327817 C93.449763,37.4734216 91.5509133,37.4239147 90.4102734,36.2222049 C79.4385844,24.6630915 64.2549922,18 48,18 C31.7469103,18 16.5649384,24.6615213 5.59347355,36.2182577 C4.45272247,37.419862 2.55386823,37.4691933 1.3522639,36.3284422 C0.150659566,35.1876912 0.101328265,33.2888369 1.24207935,32.0872326 C13.3349615,19.349257 30.0843207,12 48,12 C65.9177701,12 82.6689218,19.3509882 94.7620496,32.0915822 Z" id="_Path" fill="#000000" fill-rule="nonzero"/>
        <path d="M82.3616061,44.5395035 C83.4895897,45.7531011 83.4201857,47.6513277 82.2065881,48.7793112 C80.9929904,49.9072947 79.0947639,49.8378907 77.9667804,48.6242931 C70.2738119,40.3474272 59.5240253,35.5609756 48,35.5609756 C36.4749045,35.5609756 25.7242093,40.3483226 18.0311365,48.6265345 C16.9032432,49.8402159 15.0050218,49.909761 13.7913404,48.7818677 C12.5776589,47.6539744 12.5081139,45.755753 13.6360072,44.5420715 C22.4527523,35.0547201 34.7897676,29.5609756 48,29.5609756 C61.2090048,29.5609756 73.5449795,35.0536935 82.3616061,44.5395035 Z" id="_Path" fill="#000000" fill-rule="nonzero"/>
        <path d="M69.9744626,57.0195926 C71.072819,58.2600679 70.9576088,60.1560657 69.7171334,61.2544222 C68.4766581,62.3527786 66.5806603,62.2375684 65.4823038,60.997093 C61.0765328,56.0212488 54.7759133,53.1219512 48,53.1219512 C41.2214137,53.1219512 34.9185412,56.0235553 30.5126366,61.0028091 C29.4146833,62.2436413 27.518723,62.3594675 26.2778909,61.2615142 C25.0370587,60.1635608 24.9212325,58.2676006 26.0191858,57.0267684 C31.5522379,50.7736891 39.4845532,47.1219512 48,47.1219512 C56.5120844,47.1219512 64.4415747,50.7707911 69.9744626,57.0195926 Z" id="_Path" fill="#000000" fill-rule="nonzero"/>
        <rect id="_Rectangle" fill="#000000" fill-rule="nonzero" x="39" y="65" width="18" height="18" rx="9"/>
        <path d="M89,77 C91.209139,77 93,78.790861 93,81 C93,83.209139 91.209139,85 89,85 C86.790861,85 85,83.209139 85,81 C85,78.790861 86.790861,77 89,77 Z M85,53 C85,50.790861 86.790861,49 89,49 C91.209139,49 93,50.790861 93,53 C93,53.210995 92.9836635,53.4181745 92.9521862,53.6203424 L92,70 L92,70 C92,71.6568542 90.6568542,73 89,73 C87.3431458,73 86,71.6568542 86,70 L85.0267207,53.4648435 C85.0090718,53.3123445 85,53.1572316 85,53 Z" id="_形状结合" fill="#000000" fill-rule="nonzero"/>
    </g>
</svg>