<?xml version="1.0" encoding="UTF-8"?>
<svg xmlns="http://www.w3.org/2000/svg" xmlns:xlink="http://www.w3.org/1999/xlink" width="24" height="24" viewBox="0 0 96 96" version="1.1">
    <title>Public/ic_wifi6_prohibit</title>
    <g id="_Public/ic_wifi6_prohibit" stroke="none" stroke-width="1" fill="none" fill-rule="evenodd">
        <path d="M48,12 C65.9177701,12 82.6689218,19.3509882 94.7620496,32.0915822 C95.9026896,33.293292 95.8531826,35.1921417 94.6514728,36.3327817 C93.449763,37.4734216 91.5509133,37.4239147 90.4102734,36.2222049 C79.4385844,24.6630915 64.2549922,18 48,18 C39.581488,18 31.4503424,19.7871962 24.0428213,23.1161378 C23.5562246,22.3167621 22.9772686,21.5651724 22.3086031,20.8665319 L22.0472801,20.6009803 C21.2618255,19.8248064 20.4022781,19.1692404 19.4779504,18.6362213 C28.1997471,14.32874 37.9150892,12 48,12 Z" id="_Path" fill="#000000" fill-rule="nonzero"/>
        <path d="M48,29.5609756 C61.2090048,29.5609756 73.5449795,35.0536935 82.3616061,44.5395035 C82.9128523,45.1325893 83.1781286,45.8891839 83.1636434,46.6394811 C81.5108903,46.2217959 79.7813468,46 78,46 C77.1416944,46 76.2954154,46.0514921 75.4640836,46.1515556 C68.0248772,39.4017922 58.3230768,35.5609756 48,35.5609756 C36.4749045,35.5609756 25.7242093,40.3483226 18.0311365,48.6265345 C16.9032432,49.8402159 15.0050218,49.909761 13.7913404,48.7818677 C12.5776589,47.6539744 12.5081139,45.755753 13.6360072,44.5420715 C22.4527523,35.0547201 34.7897676,29.5609756 48,29.5609756 Z" id="_Path" fill="#000000" fill-rule="nonzero"/>
        <path d="M48,47.1219512 C53.6581558,47.1219512 59.0588906,48.7342026 63.6694141,51.6506407 C62.192857,53.02861 60.9156987,54.617845 59.8854192,56.3697133 C56.3490836,54.2727041 52.2688656,53.1219512 48,53.1219512 C41.2214137,53.1219512 34.9185412,56.0235553 30.5126366,61.0028091 C29.4146833,62.2436413 27.518723,62.3594675 26.2778909,61.2615142 C25.0370587,60.1635608 24.9212325,58.2676006 26.0191858,57.0267684 C31.5522379,50.7736891 39.4845532,47.1219512 48,47.1219512 Z" id="_Path" fill="#000000" fill-rule="nonzero"/>
        <rect id="_Rectangle" fill="#000000" fill-rule="nonzero" x="39" y="65" width="18" height="18" rx="9"/>
        <path d="M78,50 C87.3888407,50 95,57.6111593 95,67 C95,76.3888407 87.3888407,84 78,84 C68.6111593,84 61,76.3888407 61,67 C61,57.6111593 68.6111593,50 78,50 Z M65.25,67 C65.25,74.0416306 70.9583694,79.75 78,79.75 C80.7718083,79.75 83.3370334,78.8655119 85.4288305,77.3633805 L67.6366195,59.5711695 C66.1344881,61.6629666 65.25,64.2281917 65.25,67 Z M78,54.25 C75.2646109,54.25 72.730412,55.111398 70.6538674,56.5777298 L88.4222702,74.3461326 C89.888602,72.269588 90.75,69.7353891 90.75,67 C90.75,59.9583694 85.0416306,54.25 78,54.25 Z" id="_合并形状" fill="#000000"/>
        <path d="M12.0647906,36 C14.2870129,36 16.1653197,35.2922252 17.6997113,33.8766756 C19.2341028,32.461126 20.0012986,30.616622 20.0012986,28.3431635 C20.0012986,26.1769437 19.3187589,24.3806971 17.9536795,22.9544236 C16.5886002,21.5281501 14.8266954,20.8150134 12.6679652,20.8150134 C11.9624979,20.8150134 11.4320628,20.8766756 11.0766602,21 L17.413997,12 L12.3187589,12 L7.20764778,19.9142091 C6.06479064,21.7587131 5.24468482,23.2922252 4.74733032,24.5147453 C4.24997583,25.7372654 4.00129858,26.9705094 4.00129858,28.2144772 C4.00129858,30.4879357 4.76320334,32.3538874 6.28701286,33.8123324 C7.81082239,35.2707775 9.73674831,36 12.0647906,36 Z M12.1215993,32 C10.8584414,32 9.85593517,31.6399027 9.11408053,30.919708 C8.3722259,30.1995134 8.00129858,29.2262774 8.00129858,28 C8.00129858,26.7931873 8.3722259,25.8248175 9.11408053,25.0948905 C9.85593517,24.3649635 10.8584414,24 12.1215993,24 C13.2845066,24 14.22185,24.3649635 14.9336294,25.0948905 C15.6454089,25.8248175 16.0012986,26.7931873 16.0012986,28 C16.0012986,29.2262774 15.6454089,30.1995134 14.9336294,30.919708 C14.22185,31.6399027 13.2845066,32 12.1215993,32 Z" id="_6" fill="#000000" fill-rule="nonzero"/>
    </g>
</svg>