<?xml version="1.0" encoding="UTF-8"?>
<svg xmlns="http://www.w3.org/2000/svg" xmlns:xlink="http://www.w3.org/1999/xlink" width="24" height="24" viewBox="0 0 96 96" version="1.1">
    <title>Public/ic_wlan_hotpot</title>
    <g id="_Public/ic_wlan_hotpot" stroke="none" stroke-width="1" fill="none" fill-rule="evenodd">
        <rect id="_Rectangle" fill="#000000" fill-rule="nonzero" x="39" y="65" width="18" height="18" rx="9"/>
        <path d="M94.7620496,32.0915822 C95.9026896,33.293292 95.8531826,35.1921417 94.6514728,36.3327817 C93.449763,37.4734216 91.5509133,37.4239147 90.4102734,36.2222049 C79.4385844,24.6630915 64.2549922,18 48,18 C31.7469103,18 16.5649384,24.6615213 5.59347355,36.2182577 C4.45272247,37.419862 2.55386823,37.4691933 1.3522639,36.3284422 C0.150659566,35.1876912 0.101328265,33.2888369 1.24207935,32.0872326 C13.3349615,19.349257 30.0843207,12 48,12 C65.9177701,12 82.6689218,19.3509882 94.7620496,32.0915822 Z" id="_Path" fill="#000000" fill-rule="nonzero"/>
        <path d="M48,29.5609756 C61.2090048,29.5609756 73.5449795,35.0536935 82.3616061,44.5395035 C83.144842,45.382187 83.3507609,46.5549624 82.9971715,47.5707565 C81.3923705,47.1970499 79.7198463,47 78.0012986,47 C77.4725245,47 76.9481075,47.0186549 76.4286698,47.0553425 C68.8732254,39.7454762 58.7750474,35.5609756 48,35.5609756 C36.4749045,35.5609756 25.7242093,40.3483226 18.0311365,48.6265345 C16.9032432,49.8402159 15.0050218,49.909761 13.7913404,48.7818677 C12.5776589,47.6539744 12.5081139,45.755753 13.6360072,44.5420715 C22.4527523,35.0547201 34.7897676,29.5609756 48,29.5609756 Z" id="_Path" fill="#000000" fill-rule="nonzero"/>
        <path d="M48,47.1219512 C53.8405714,47.1219512 59.406856,48.8398345 64.112854,51.9367698 C62.5287805,53.2281622 61.1284102,54.7346634 59.9560053,56.4122471 C56.4044886,54.2883856 52.2978535,53.1219512 48,53.1219512 C41.2214137,53.1219512 34.9185412,56.0235553 30.5126366,61.0028091 C29.4146833,62.2436413 27.518723,62.3594675 26.2778909,61.2615142 C25.0370587,60.1635608 24.9212325,58.2676006 26.0191858,57.0267684 C31.5522379,50.7736891 39.4845532,47.1219512 48,47.1219512 Z" id="_Path" fill="#000000" fill-rule="nonzero"/>
        <path d="M78,51 C87.9411255,51 96,59.0588745 96,69 C96,74.5067293 93.5271901,79.4359029 89.6314163,82.7376747 L89.6239653,82.7271208 C89.2605582,83.1010583 88.7521968,83.333374 88.1895752,83.333374 C87.0850057,83.333374 86.1895752,82.4379435 86.1895752,81.333374 C86.1895752,80.6154038 86.5678946,79.9857949 87.1360606,79.63302 L87.1240788,79.6187586 C90.1094276,77.0512699 92,73.2464184 92,69 C92,61.2680135 85.7319865,55 78,55 C70.2680135,55 64,61.2680135 64,69 C64,73.3948689 66.0250679,77.3167578 69.1929954,79.8834584 C69.671401,80.2503338 69.9801025,80.8267872 69.9801025,81.4753418 C69.9801025,82.5799113 69.084672,83.4753418 67.9801025,83.4753418 C67.4780255,83.4753418 67.019159,83.2903355 66.6679556,82.9847755 L66.6394657,82.9627615 C62.5877941,79.6621972 60,74.6333044 60,69 C60,59.0588745 68.0588745,51 78,51 Z M78,59 C83.5228475,59 88,63.4771525 88,69 C88,71.9013398 86.764414,74.5140931 84.790733,76.3407687 C84.4254447,76.7446591 83.8969296,76.9981689 83.3092041,76.9981689 C82.2046346,76.9981689 81.3092041,76.1027384 81.3092041,74.9981689 C81.3092041,74.3402297 81.6269042,73.7564933 82.1172647,73.3919994 L82.1042696,73.3766656 C83.2710848,72.2820345 84,70.7261409 84,69 C84,65.6862915 81.3137085,63 78,63 C74.6862915,63 72,65.6862915 72,69 C72,70.7181076 72.7221464,72.267549 73.8794683,73.3613529 C74.3931953,73.7221 74.7284175,74.319644 74.7284175,74.9954834 C74.7284175,76.1000529 73.832987,76.9954834 72.7284175,76.9954834 C72.3236997,76.9954834 71.9470591,76.8752707 71.6322545,76.6686041 L71.6123814,76.6943822 C69.4052639,74.8600785 68,72.0941477 68,69 C68,63.4771525 72.4771525,59 78,59 Z M78,66 C79.6568542,66 81,67.3431458 81,69 C81,70.6568542 79.6568542,72 78,72 C76.3431458,72 75,70.6568542 75,69 C75,67.3431458 76.3431458,66 78,66 Z" id="_椭圆形-2" fill="#000000"/>
    </g>
</svg>