<?xml version="1.0" encoding="UTF-8"?>
<svg xmlns="http://www.w3.org/2000/svg" xmlns:xlink="http://www.w3.org/1999/xlink" width="24" height="24" viewBox="0 0 96 96" version="1.1">
    <title>Public/ic_wifi6+_prohibit</title>
    <g id="_Public/ic_wifi6+_prohibit" stroke="none" stroke-width="1" fill="none" fill-rule="evenodd">
        <path d="M48.0012986,12 C65.9190687,12 82.6702204,19.3509882 94.7633482,32.0915822 C95.9039881,33.293292 95.8544812,35.1921417 94.6527714,36.3327817 C93.4510616,37.4734216 91.5522119,37.4239147 90.4115719,36.2222049 C79.439883,24.6630915 64.2562908,18 48.0012986,18 C43.9163255,18 39.8990142,18.4208041 35.9992079,19.2343692 L35.9994736,13.1173776 C39.9123803,12.3801473 43.9266749,12 48.0012986,12 Z" id="_Path" fill="#000000" fill-rule="nonzero"/>
        <path d="M48.0012986,29.5609756 C61.2103034,29.5609756 73.5462781,35.0536935 82.3629047,44.5395035 C82.914396,45.132853 83.179663,45.8898568 83.1649225,46.6404819 C81.5117342,46.2219041 79.7817813,46 78,46 C77.1420389,46 76.2960948,46.0514507 75.4650848,46.1514351 C68.0261758,39.4017922 58.3243753,35.5609756 48.0012986,35.5609756 C36.4762031,35.5609756 25.7255079,40.3483226 18.0324351,48.6265345 C16.9045418,49.8402159 15.0063204,49.909761 13.7926389,48.7818677 C12.5789575,47.6539744 12.5094124,45.755753 13.6373057,44.5420715 C22.4540509,35.0547201 34.7910662,29.5609756 48.0012986,29.5609756 Z" id="_Path" fill="#000000" fill-rule="nonzero"/>
        <path d="M48.0012986,47.1219512 C53.6590436,47.1219512 59.059405,48.7339686 63.6697085,51.6500056 C62.1931394,53.0283462 60.9161873,54.617237 59.8860105,56.368708 C56.3496126,54.2724871 52.2697616,53.1219512 48.0012986,53.1219512 C41.2227123,53.1219512 34.9198398,56.0235553 30.5139352,61.0028091 C29.4159819,62.2436413 27.5200216,62.3594675 26.2791894,61.2615142 C25.0383572,60.1635608 24.922531,58.2676006 26.0204844,57.0267684 C31.5535365,50.7736891 39.4858517,47.1219512 48.0012986,47.1219512 Z" id="_Path" fill="#000000" fill-rule="nonzero"/>
        <rect id="_Rectangle" fill="#000000" fill-rule="nonzero" x="39.0012986" y="65" width="18" height="18" rx="9"/>
        <path d="M19.5,19.5 L23.5,19.5 L23.5,23.5 C23.5,23.7761424 23.7238576,24 24,24 L27,24 C27.2761424,24 27.5,23.7761424 27.5,23.5 L27.5,19.5 L31.5,19.5 C31.7761424,19.5 32,19.2761424 32,19 L32,16 C32,15.7238576 31.7761424,15.5 31.5,15.5 L27.5,15.5 L27.5,11.5 C27.5,11.2238576 27.2761424,11 27,11 L24,11 C23.7238576,11 23.5,11.2238576 23.5,11.5 L23.5,15.5 L19.5,15.5 C19.2238576,15.5 19,15.7238576 19,16 L19,19 C19,19.2761424 19.2238576,19.5 19.5,19.5 Z" id="_路径" fill="#000000" fill-rule="nonzero"/>
        <path d="M78,50 C87.3888407,50 95,57.6111593 95,67 C95,76.3888407 87.3888407,84 78,84 C68.6111593,84 61,76.3888407 61,67 C61,57.6111593 68.6111593,50 78,50 Z M65.25,67 C65.25,74.0416306 70.9583694,79.75 78,79.75 C80.7718083,79.75 83.3370334,78.8655119 85.4288305,77.3633805 L67.6366195,59.5711695 C66.1344881,61.6629666 65.25,64.2281917 65.25,67 Z M78,54.25 C75.2646109,54.25 72.730412,55.111398 70.6538674,56.5777298 L88.4222702,74.3461326 C89.888602,72.269588 90.75,69.7353891 90.75,67 C90.75,59.9583694 85.0416306,54.25 78,54.25 Z" id="_合并形状" fill="#000000"/>
        <path d="M12.0647906,36 C14.2870129,36 16.1653197,35.2922252 17.6997113,33.8766756 C19.2341028,32.461126 20.0012986,30.616622 20.0012986,28.3431635 C20.0012986,26.1769437 19.3187589,24.3806971 17.9536795,22.9544236 C16.5886002,21.5281501 14.8266954,20.8150134 12.6679652,20.8150134 C11.9624979,20.8150134 11.4320628,20.8766756 11.0766602,21 L17.413997,12 L12.3187589,12 L7.20764778,19.9142091 C6.06479064,21.7587131 5.24468482,23.2922252 4.74733032,24.5147453 C4.24997583,25.7372654 4.00129858,26.9705094 4.00129858,28.2144772 C4.00129858,30.4879357 4.76320334,32.3538874 6.28701286,33.8123324 C7.81082239,35.2707775 9.73674831,36 12.0647906,36 Z M12.1215993,32 C10.8584414,32 9.85593517,31.6399027 9.11408053,30.919708 C8.3722259,30.1995134 8.00129858,29.2262774 8.00129858,28 C8.00129858,26.7931873 8.3722259,25.8248175 9.11408053,25.0948905 C9.85593517,24.3649635 10.8584414,24 12.1215993,24 C13.2845066,24 14.22185,24.3649635 14.9336294,25.0948905 C15.6454089,25.8248175 16.0012986,26.7931873 16.0012986,28 C16.0012986,29.2262774 15.6454089,30.1995134 14.9336294,30.919708 C14.22185,31.6399027 13.2845066,32 12.1215993,32 Z" id="_6" fill="#000000" fill-rule="nonzero"/>
    </g>
</svg>