<?xml version="1.0" encoding="UTF-8"?>
<svg xmlns="http://www.w3.org/2000/svg" xmlns:xlink="http://www.w3.org/1999/xlink" width="24" height="24" viewBox="0 0 96 96" version="1.1">
    <title>Public/ic_wifi6</title>
    <g id="_Public/ic_wifi6" stroke="none" stroke-width="1" fill="none" fill-rule="evenodd">
        <path d="M48.000673,12 C65.9184431,12 82.6695948,19.3509882 94.7627226,32.0915822 C95.9033625,33.293292 95.8538556,35.1921417 94.6521458,36.3327817 C93.450436,37.4734216 91.5515863,37.4239147 90.4109463,36.2222049 C79.4392574,24.6630915 64.2556652,18 48.000673,18 C39.582161,18 31.4510154,19.7871962 24.0434943,23.1161378 C23.5568976,22.3167621 22.9779416,21.5651724 22.3092761,20.8665319 L22.0479531,20.6009803 C21.2624985,19.8248064 20.4029511,19.1692404 19.4786234,18.6362213 C28.2004201,14.32874 37.9157622,12 48.000673,12 Z" id="_Path" fill="#000000" fill-rule="nonzero"/>
        <path d="M82.3622791,44.5395035 C83.4902626,45.7531011 83.4208587,47.6513277 82.207261,48.7793112 C80.9936634,49.9072947 79.0954369,49.8378907 77.9674533,48.6242931 C70.2744849,40.3474272 59.5246983,35.5609756 48.000673,35.5609756 C36.4755775,35.5609756 25.7248823,40.3483226 18.0318095,48.6265345 C16.9039162,49.8402159 15.0056948,49.909761 13.7920133,48.7818677 C12.5783319,47.6539744 12.5087868,45.755753 13.6366801,44.5420715 C22.4534253,35.0547201 34.7904406,29.5609756 48.000673,29.5609756 C61.2096778,29.5609756 73.5456525,35.0536935 82.3622791,44.5395035 Z" id="_Path" fill="#000000" fill-rule="nonzero"/>
        <path d="M69.9751356,57.0195926 C71.073492,58.2600679 70.9582818,60.1560657 69.7178064,61.2544222 C68.477331,62.3527786 66.5813333,62.2375684 65.4829768,60.997093 C61.0772058,56.0212488 54.7765863,53.1219512 48.000673,53.1219512 C41.2220867,53.1219512 34.9192142,56.0235553 30.5133096,61.0028091 C29.4153563,62.2436413 27.519396,62.3594675 26.2785638,61.2615142 C25.0377317,60.1635608 24.9219054,58.2676006 26.0198588,57.0267684 C31.5529109,50.7736891 39.4852261,47.1219512 48.000673,47.1219512 C56.5127574,47.1219512 64.4422477,50.7707911 69.9751356,57.0195926 Z" id="_Path" fill="#000000" fill-rule="nonzero"/>
        <rect id="_Rectangle" fill="#000000" fill-rule="nonzero" x="39.000673" y="65" width="18" height="18" rx="9"/>
        <path d="M12.0647906,36 C14.2870129,36 16.1653197,35.2922252 17.6997113,33.8766756 C19.2341028,32.461126 20.0012986,30.616622 20.0012986,28.3431635 C20.0012986,26.1769437 19.3187589,24.3806971 17.9536795,22.9544236 C16.5886002,21.5281501 14.8266954,20.8150134 12.6679652,20.8150134 C11.9624979,20.8150134 11.4320628,20.8766756 11.0766602,21 L17.413997,12 L12.3187589,12 L7.20764778,19.9142091 C6.06479064,21.7587131 5.24468482,23.2922252 4.74733032,24.5147453 C4.24997583,25.7372654 4.00129858,26.9705094 4.00129858,28.2144772 C4.00129858,30.4879357 4.76320334,32.3538874 6.28701286,33.8123324 C7.81082239,35.2707775 9.73674831,36 12.0647906,36 Z M12.1215993,32 C10.8584414,32 9.85593517,31.6399027 9.11408053,30.919708 C8.3722259,30.1995134 8.00129858,29.2262774 8.00129858,28 C8.00129858,26.7931873 8.3722259,25.8248175 9.11408053,25.0948905 C9.85593517,24.3649635 10.8584414,24 12.1215993,24 C13.2845066,24 14.22185,24.3649635 14.9336294,25.0948905 C15.6454089,25.8248175 16.0012986,26.7931873 16.0012986,28 C16.0012986,29.2262774 15.6454089,30.1995134 14.9336294,30.919708 C14.22185,31.6399027 13.2845066,32 12.1215993,32 Z" id="_6" fill="#000000" fill-rule="nonzero"/>
    </g>
</svg>