<?xml version="1.0" encoding="UTF-8"?>
<svg xmlns="http://www.w3.org/2000/svg" xmlns:xlink="http://www.w3.org/1999/xlink" width="24" height="24" viewBox="0 0 96 96" version="1.1">
    <title>Public/ic_wlan_lock</title>
    <defs>
        <path d="M80,50 C85.3529137,50 89.6923077,54.339394 89.6923077,59.6923077 L89.6930653,63.2421948 C92.1823819,63.9729894 94,66.274231 94,69 L94,79 C94,82.3137085 91.3137085,85 88,85 L72,85 C68.6862915,85 66,82.3137085 66,79 L66,69 C66,66.274231 67.8176181,63.9729894 70.3069347,63.2421948 L70.3076923,59.6923077 C70.3076923,54.339394 74.6470863,50 80,50 Z M79.7692308,70 C77.6875421,70 76,71.6875421 76,73.7692308 C76,75.8509194 77.6875421,77.5384615 79.7692308,77.5384615 C81.8509194,77.5384615 83.5384615,75.8509194 83.5384615,73.7692308 C83.5384615,71.6875421 81.8509194,70 79.7692308,70 Z M80,54.3076923 C77.0986917,54.3076923 74.7333183,56.6023021 74.6196602,59.4757413 L74.6153846,59.6923077 L74.615,63 L85.384,63 L85.3846154,59.6923077 C85.3846154,56.7909994 83.0900056,54.425626 80.2165664,54.3119679 L80,54.3076923 Z" id="_path-1"/>
    </defs>
    <g id="_Public/ic_wlan_lock" stroke="none" stroke-width="1" fill="none" fill-rule="evenodd">
        <rect id="_Rectangle" fill="#000000" fill-rule="nonzero" x="39" y="65" width="18" height="18" rx="9"/>
        <path d="M94.7620496,32.0915822 C95.9026896,33.293292 95.8531826,35.1921417 94.6514728,36.3327817 C93.449763,37.4734216 91.5509133,37.4239147 90.4102734,36.2222049 C79.4385844,24.6630915 64.2549922,18 48,18 C31.7469103,18 16.5649384,24.6615213 5.59347355,36.2182577 C4.45272247,37.419862 2.55386823,37.4691933 1.3522639,36.3284422 C0.150659566,35.1876912 0.101328265,33.2888369 1.24207935,32.0872326 C13.3349615,19.349257 30.0843207,12 48,12 C65.9177701,12 82.6689218,19.3509882 94.7620496,32.0915822 Z" id="_Path" fill="#000000" fill-rule="nonzero"/>
        <path d="M48,29.5609756 C61.2090048,29.5609756 73.5449795,35.0536935 82.3616061,44.5395035 C82.9216762,45.1420829 83.1865479,45.9134476 83.1627328,46.6755058 C81.8540119,46.2370115 80.4559377,46 79,46 L79,46 L78.691745,46.0035489 L78.3809945,46.0143437 C77.474356,46.0564608 76.5925131,46.1906456 75.7435083,46.4078626 C68.2690263,39.4990952 58.453021,35.5609756 48,35.5609756 C36.4749045,35.5609756 25.7242093,40.3483226 18.0311365,48.6265345 C16.9032432,49.8402159 15.0050218,49.909761 13.7913404,48.7818677 C12.5776589,47.6539744 12.5081139,45.755753 13.6360072,44.5420715 C22.4527523,35.0547201 34.7897676,29.5609756 48,29.5609756 Z" id="_Path" fill="#000000" fill-rule="nonzero"/>
        <path d="M48,47.1219512 C55.005794,47.1219512 61.6169408,49.5936622 66.8220855,53.9523083 C65.9733493,55.7881504 65.5,57.8407695 65.5,60 L65.5,60 L65.4998195,61.0167049 C65.4939588,61.0101992 65.4881201,61.0036619 65.4823038,60.997093 C61.0765328,56.0212488 54.7759133,53.1219512 48,53.1219512 C41.2214137,53.1219512 34.9185412,56.0235553 30.5126366,61.0028091 C29.4146833,62.2436413 27.518723,62.3594675 26.2778909,61.2615142 C25.0370587,60.1635608 24.9212325,58.2676006 26.0191858,57.0267684 C31.5522379,50.7736891 39.4845532,47.1219512 48,47.1219512 Z" id="_Path" fill="#000000" fill-rule="nonzero"/>
        <mask id="_mask-2" fill="white">
            <use xlink:href="#_path-1"/>
        </mask>
        <use id="_合并形状" fill="#000000" xlink:href="#_path-1"/>
    </g>
</svg>