<?xml version="1.0" encoding="UTF-8"?>
<svg xmlns="http://www.w3.org/2000/svg" width="24" height="24" version="1.1" viewBox="0 0 32 60">
  <g fill="#000" fill-rule="nonzero" stroke="none" stroke-width="1" transform="translate(2 7)">
    <path d="M26,40.3 C22.6,42.5 18.6,43.7 14.5,43.7 C10,43.7 5.8,42.3 2.2,39.7 C1.8,39.4 1.1,39.5 0.8,39.9 C0.4,40.4 0.5,41 1,41.4 C4.9,44.3 9.6,45.8 14.5,45.8 C19,45.8 23.4,44.5 27.1,42 C27.6,41.7 27.7,41.1 27.4,40.6 C27.1,40.1 26.5,40 26,40.3 Z"/>
    <path d="M2.1,5.6 C5.5,3.4 9.5,2.2 13.6,2.2 C18.1,2.2 22.4,3.6 26,6.2 C26.2,6.3 26.4,6.4 26.6,6.4 C26.9,6.4 27.2,6.3 27.4,6 C27.7,5.6 27.6,4.9 27.2,4.6 C23.2,1.7 18.5,0.2 13.6,0.2 C9.1,0.3 4.8,1.5 1,4 C0.5,4.3 0.4,4.9 0.7,5.4 C1,5.8 1.7,6 2.1,5.6 Z"/>
    <polygon points="27.6 27 24.1 27 24.1 17.3 24.1 17.3 24.1 17.3 17 30.5 20.5 30.5 20.5 33.6 20.5 35.8 20.5 40.1"/>
    <path d="M9.7,36.7 C11.1,37.2 12.7,37.4 14.2,37.4 C15.7,37.4 17.1,37.2 18.5,36.7 L18.5,34.6 C17.1,35.1 15.6,35.4 14.2,35.4 C13,35.4 11.8,35.2 10.6,34.9 L9.7,36.7 Z"/>
    <polygon points="5.9 32.5 5.9 34.9 5.9 39.6 16.6 19.4 11.3 19.4 11.3 10.8 11.3 10.8 11.3 8.8 11.3 4.6 11.3 4.6 11.3 4.6 .5 24.8 5.9 24.8"/>
    <path d="M13.5,8.6 C13.4,8.6 13.3,8.6 13.3,8.6 L13.3,10.6 C13.4,10.6 13.5,10.6 13.5,10.6 C15.8,10.6 18.1,11.2 20.1,12.4 C20.3,12.5 20.4,12.5 20.6,12.5 C20.9,12.5 21.3,12.3 21.5,12 C21.8,11.5 21.6,10.9 21.1,10.6 C18.8,9.3 16.2,8.6 13.5,8.6 Z"/>
  </g>
</svg>