<?xml version="1.0" encoding="UTF-8"?>
<svg xmlns="http://www.w3.org/2000/svg" xmlns:xlink="http://www.w3.org/1999/xlink" width="24" height="24" viewBox="0 0 24 24" version="1.1">
    <title>Public/ic_public_wireless projection_filled</title>
    <defs>
        <path d="M12,16 C14.3472102,16 16.25,17.9027898 16.25,20.25 C16.25,20.6642136 15.9142136,21 15.5,21 L8.5,21 C8.12030423,21 7.80650904,20.7178461 7.75684662,20.3517706 L7.75,20.25 C7.75,17.9027898 9.65278981,16 12,16 Z M19,2.75 C21.1421954,2.75 22.8910789,4.43396847 22.9951047,6.55035966 L23,6.75 L23,16.25 C23,18.3921954 21.3160315,20.1410789 19.1996403,20.2451047 L19,20.25 L18,20.25 C17.4477153,20.25 17,19.8022847 17,19.25 C17,18.7371642 17.3860402,18.3144928 17.8833789,18.2567277 L18,18.25 L19,18.25 C20.0543618,18.25 20.9181651,17.4341222 20.9945143,16.3992623 L21,16.25 L21,6.75 C21,5.6956382 20.1841222,4.83183488 19.1492623,4.75548574 L19,4.75 L5,4.75 C3.9456382,4.75 3.08183488,5.56587779 3.00548574,6.60073766 L3,6.75 L3,16.25 C3,17.3043618 3.81587779,18.1681651 4.85073766,18.2445143 L5,18.25 L6,18.25 C6.55228475,18.25 7,18.6977153 7,19.25 C7,19.7628358 6.61395981,20.1855072 6.11662113,20.2432723 L6,20.25 L5,20.25 C2.85780461,20.25 1.10892112,18.5660315 1.00489531,16.4496403 L1,16.25 L1,6.75 C1,4.60780461 2.68396847,2.85892112 4.80035966,2.75489531 L5,2.75 L19,2.75 Z M16.4571068,14.2928932 C16.8476311,14.6834175 16.8476311,15.3165825 16.4571068,15.7071068 C16.0665825,16.0976311 15.4334175,16.0976311 15.0428932,15.7071068 C13.3623497,14.0265633 10.6376503,14.0265633 8.95710678,15.7071068 C8.56658249,16.0976311 7.93341751,16.0976311 7.54289322,15.7071068 C7.15236893,15.3165825 7.15236893,14.6834175 7.54289322,14.2928932 C10.0044853,11.8313011 13.9955147,11.8313011 16.4571068,14.2928932 Z" id="_path-1"/>
    </defs>
    <g id="_Public/ic_public_wireless-projection_filled" stroke="none" stroke-width="1" fill="none" fill-rule="evenodd">
        <mask id="_mask-2" fill="white">
            <use xlink:href="#_path-1"/>
        </mask>
        <use id="_形状结合" fill="#000000" xlink:href="#_path-1"/>
    </g>
</svg>