<?xml version="1.0" encoding="UTF-8"?>
<svg xmlns="http://www.w3.org/2000/svg" width="24" height="24" version="1.1" viewBox="0 0 32 60">
  <g fill="none" fill-rule="evenodd" stroke="none" stroke-width="1" transform="translate(2 6)">
    <path fill="#000" fill-rule="nonzero" d="M22.1,10 C23.6,10.9 24.9,12.1 26,13.5 C26.3,13.9 26.3,14.6 25.8,14.9 C25.4,15.2 24.7,15.2 24.4,14.7 C24.2,14.4 24,14.2 23.7,13.9 C23,13.1 22.1,12.4 21.2,11.8 L22.1,10 Z M21.9,3 L15.9,16.4 L21.9,16.4 L15.9,26.1 L21.9,26.1 L6.1,45.1 L12.6,31.4 L6.2,31.4 L12.7,22 L6.2,22 L21.9,3 Z M27.4,43.5 C21.9,47.6 14.8,48.9 8.2,47.1 C8.3,47 8.4,46.9 8.5,46.8 L9.7,45.4 C15.5,46.7 21.5,45.4 26.2,41.9 C26.6,41.6 27.3,41.7 27.6,42.1 C27.9,42.6 27.8,43.2 27.4,43.5 L27.4,43.5 Z M3.5,43.7 L3.5,43.7 C3.3,44.1 3.2,44.6 3.2,45.1 C2.4,44.6 1.5,44.1 0.8,43.6 C0.3,43.3 0.2,42.7 0.5,42.2 C0.8,41.7 1.4,41.6 1.9,41.9 C1.9,41.9 2,41.9 2,42 C2.6,42.4 3.2,42.8 3.8,43.2 L3.5,43.7 Z M19.8,0.9 L18.3,2.6 C12.6,1.3 6.7,2.6 1.9,6.1 C1.5,6.4 0.9,6.4 0.5,6 C0.2,5.5 0.2,4.9 0.7,4.6 L0.8,4.5 C6.2,0.5 13.3,-0.9 19.8,0.9 Z M24.2,4.8 L24.9,2.9 C26,3.6 26.8,4.1 27.3,4.4 C27.7,4.8 27.7,5.4 27.2,5.8 C26.9,6.1 26.4,6.1 26.1,6 C25.6,5.6 24.9,5.1 24.2,4.8 L24.2,4.8 Z M14.1,7.6 L14.1,7.6 L14.1,7.6 L12.3,9.7 C8.9,10.2 5.8,11.9 3.7,14.7 C3.3,15.1 2.7,15.2 2.3,14.9 C1.9,14.6 1.8,13.9 2.1,13.5 C5,9.8 9.4,7.6 14.1,7.6 Z M3.1,32.5 L3.1,32.5 C4.1,34 5.4,35.3 6.9,36.3 L6.1,38.2 C4.3,37 2.7,35.5 1.5,33.7 C1.1,33.3 1.1,32.7 1.4,32.3 C1.7,31.9 2.4,31.9 2.8,32.2 C3,32.3 3.1,32.4 3.1,32.5 Z M14.1,40.4 L13.9,40.4 L15.6,38.4 C19.5,38.1 23,36 25,32.6 C25.3,32.1 25.9,32 26.4,32.3 C26.9,32.6 27,33.2 26.7,33.7 C24,38 19.2,40.6 14.1,40.4 Z"/>
    <path d="M22.1,10 C23.6,10.9 24.9,12.1 26,13.5 C26.3,13.9 26.3,14.6 25.8,14.9 C25.4,15.2 24.7,15.2 24.4,14.7 C24.2,14.4 24,14.2 23.7,13.9 C23,13.1 22.1,12.4 21.2,11.8 L22.1,10 Z M21.9,3 L15.9,16.4 L21.9,16.4 L15.9,26.1 L21.9,26.1 L6.1,45.1 L12.6,31.4 L6.2,31.4 L12.7,22 L6.2,22 L21.9,3 Z M27.4,43.5 C21.9,47.6 14.8,48.9 8.2,47.1 C8.3,47 8.4,46.9 8.5,46.8 L9.7,45.4 C15.5,46.7 21.5,45.4 26.2,41.9 C26.6,41.6 27.3,41.7 27.6,42.1 C27.9,42.6 27.8,43.2 27.4,43.5 L27.4,43.5 Z M3.5,43.7 L3.5,43.7 C3.3,44.1 3.2,44.6 3.2,45.1 C2.4,44.6 1.5,44.1 0.8,43.6 C0.3,43.3 0.2,42.7 0.5,42.2 C0.8,41.7 1.4,41.6 1.9,41.9 C1.9,41.9 2,41.9 2,42 C2.6,42.4 3.2,42.8 3.8,43.2 L3.5,43.7 Z M19.8,0.9 L18.3,2.6 C12.6,1.3 6.7,2.6 1.9,6.1 C1.5,6.4 0.9,6.4 0.5,6 C0.2,5.5 0.2,4.9 0.7,4.6 L0.8,4.5 C6.2,0.5 13.3,-0.9 19.8,0.9 Z M24.2,4.8 L24.9,2.9 C26,3.6 26.8,4.1 27.3,4.4 C27.7,4.8 27.7,5.4 27.2,5.8 C26.9,6.1 26.4,6.1 26.1,6 C25.6,5.6 24.9,5.1 24.2,4.8 L24.2,4.8 Z M14.1,7.6 L14.1,7.6 L14.1,7.6 L12.3,9.7 C8.9,10.2 5.8,11.9 3.7,14.7 C3.3,15.1 2.7,15.2 2.3,14.9 C1.9,14.6 1.8,13.9 2.1,13.5 C5,9.8 9.4,7.6 14.1,7.6 Z M3.1,32.5 L3.1,32.5 C4.1,34 5.4,35.3 6.9,36.3 L6.1,38.2 C4.3,37 2.7,35.5 1.5,33.7 C1.1,33.3 1.1,32.7 1.4,32.3 C1.7,31.9 2.4,31.9 2.8,32.2 C3,32.3 3.1,32.4 3.1,32.5 Z M14.1,40.4 L13.9,40.4 L15.6,38.4 C19.5,38.1 23,36 25,32.6 C25.3,32.1 25.9,32 26.4,32.3 C26.9,32.6 27,33.2 26.7,33.7 C24,38 19.2,40.6 14.1,40.4 Z"/>
  </g>
</svg>