<?xml version="1.0" encoding="UTF-8"?>
<svg xmlns="http://www.w3.org/2000/svg" width="24" height="24" version="1.1" viewBox="0 0 32 60">
  <g fill="#000" fill-rule="nonzero" stroke="none" stroke-width="1" transform="translate(2 7)">
    <polygon points="22.5 20.6 17 20.6 17 8.9 17 5.4 17 5.3 16.9 5.4 16.9 5.5 5.8 26.2 11.4 26.2 11.4 41.5 11.4 41.5 11.4 41.5 12.6 39.2"/>
    <path d="M26.2,6.3 C26,6.3 25.8,6.2 25.6,6.1 C22.2,3.6 18.2,2.3 14,2.3 C9.8,2.3 5.8,3.6 2.4,6.1 C2,6.5 1.3,6.4 1,5.9 C0.7,5.5 0.8,4.8 1.2,4.5 C5,1.8 9.4,0.3 14,0.3 C18.6,0.3 23,1.8 26.8,4.5 C27.2,4.8 27.3,5.5 27,5.9 C26.8,6.2 26.5,6.3 26.2,6.3"/>
    <path d="M14,45.7 C9.4,45.7 5,44.2 1.2,41.5 C0.8,41.2 0.7,40.5 1,40.1 C1.3,39.7 2,39.6 2.4,39.9 C5.8,42.4 9.8,43.7 14,43.7 C18.2,43.7 22.2,42.4 25.6,39.9 C26,39.6 26.7,39.7 27,40.1 C27.3,40.5 27.2,41.2 26.8,41.5 C23,44.2 18.6,45.7 14,45.7"/>
    <path d="M26.1,29.5 C25.6,29.2 25,29.3 24.7,29.8 C22.8,32.7 20.5,34.4 17.5,35.1 L16.3,37.3 C20.6,36.8 23.8,34.8 26.4,30.9 C26.7,30.4 26.6,29.8 26.1,29.5"/>
    <path d="M3.9,29.8 C3.6,29.3 3,29.2 2.5,29.5 C2,29.8 1.9,30.4 2.2,30.9 C3.8,33.4 6.1,35.2 8.8,36.3 L8.8,34.1 C6.9,33.2 5.2,31.7 3.9,29.8"/>
    <path d="M19.5,11.8 C21.2,12.6 22.6,13.8 23.8,15.4 C24,15.7 24.3,15.8 24.6,15.8 C24.8,15.8 25,15.7 25.2,15.6 C25.6,15.3 25.7,14.6 25.4,14.2 C23.8,12.2 21.8,10.6 19.5,9.7 L19.5,9.9 L19.5,11.8 Z"/>
    <path d="M2.6,14.2 C2.3,14.6 2.3,15.3 2.8,15.6 C3.2,15.9 3.9,15.9 4.2,15.4 C5.9,13.2 8.2,11.7 10.8,11 L12,8.7 C8.3,9.2 4.9,11.1 2.6,14.2"/>
  </g>
</svg>