<?xml version="1.0" encoding="UTF-8"?>
<svg xmlns="http://www.w3.org/2000/svg" width="24" height="24" version="1.1" viewBox="0 0 65 60">
  <g fill="#000" fill-rule="evenodd" stroke="none" stroke-width="1">
    <g transform="translate(8 10)">
      <path d="M0.0003,33 L0.0003,41 L8.0003,41 C8.0003,36.6 4.4003,33 0.0003,33"/>
      <path d="M0.0003,24 L0.0003,28 C7.2003,28 13.0003,33.8 13.0003,41 L17.0003,41 C17.0003,31.6 9.4003,24 0.0003,24"/>
      <path d="M0.0003,15 L0.0003,19 C12.1003,19 22.0003,28.9 22.0003,41 L26.0003,41 C26.0003,26.6 14.4003,15 0.0003,15"/>
      <path d="M39.0003,10 L10.0003,10 L10.0003,11.7 C19.1003,14.8 26.2003,22 29.3003,31 L39.0003,31 L39.0003,10 Z"/>
    </g>
    <path fill-rule="nonzero" d="M45.9027829,10.0012661 L46.5977919,10.011365 L47.2367514,10.0314862 L47.8236855,10.0615498 L48.3626184,10.1014757 C49.6533023,10.2135517 50.5317007,10.4173376 51.2807608,10.7072108 L51.5741576,10.8277381 L51.8577823,10.957368 C51.9044624,10.9797272 51.9509029,11.0024622 51.9971878,11.0255715 L52.2737,11.1687056 C53.6996259,11.9312991 54.8187009,13.0503741 55.5812944,14.4763 L55.7244285,14.7528122 L55.8585798,15.0330601 C55.8801853,15.0803029 55.9014133,15.1278691 55.9222619,15.1758424 L56.0427892,15.4692392 C56.3326624,16.2182993 56.5364483,17.0966977 56.6485243,18.3873816 L56.6884502,18.9263145 L56.7185138,19.5132486 L56.738635,20.1522081 L56.7487339,20.8472171 C56.75,20.9679463 56.75,21.0911786 56.75,21.2169977 L56.7487339,39.1527829 L56.738635,39.8477919 L56.7185138,40.4867514 L56.6884502,41.0736855 L56.6485243,41.6126184 C56.5364483,42.9033023 56.3326624,43.7817007 56.0427892,44.5307608 L55.9222619,44.8241576 L55.792632,45.1077823 C55.7702728,45.1544624 55.7475378,45.2009029 55.7244285,45.2471878 L55.5812944,45.5237 C54.8187009,46.9496259 53.6996259,48.0687009 52.2737,48.8312944 L51.9971878,48.9744285 L51.7169399,49.1085798 C51.6696971,49.1301853 51.6221309,49.1514133 51.5741576,49.1722619 L51.2807608,49.2927892 C50.5317007,49.5826624 49.6533023,49.7864483 48.3626184,49.8985243 L47.8236855,49.9384502 L47.2367514,49.9685138 L46.5977919,49.988635 L45.9027829,49.9987339 L45.7198013,49.9996833 L45.7198013,49.9996833 L38.9842611,49.9997578 C38.9295489,48.2957709 38.735581,46.6253682 38.4134315,44.9996237 L45.8255107,44.9994148 L46.6159697,44.9903672 L47.2874795,44.9696734 C47.3560382,44.9666933 47.4226715,44.9634807 47.4874719,44.96003 L47.8550191,44.9364226 L48.1830146,44.9068297 C48.2346311,44.9013838 48.2847846,44.8956772 48.3335674,44.8897044 L48.6105571,44.8506272 C48.6542275,44.8435668 48.6967121,44.836229 48.7381036,44.8286079 L48.9740734,44.7794395 C49.0488504,44.7618875 49.1199942,44.743158 49.1882445,44.7232061 L49.3850551,44.6596382 C49.4166567,44.6484173 49.4477199,44.6368796 49.4783371,44.6250194 L49.6574285,44.5499436 L49.7443474,44.5094192 L49.7443474,44.5094192 L49.9157057,44.4222284 C50.4702892,44.1256339 50.8756339,43.7202892 51.1722284,43.1657057 L51.2594192,42.9943474 L51.3384658,42.8189433 L51.3750194,42.7283371 L51.3750194,42.7283371 L51.4423559,42.5385425 C51.4741342,42.4402297 51.5031115,42.3362388 51.5294395,42.2240734 L51.5786079,41.9881036 C51.586229,41.9467121 51.5935668,41.9042275 51.6006272,41.8605571 L51.6397044,41.5835674 L51.6723912,41.2736834 L51.71003,40.7374719 L51.7279216,40.3259349 L51.7403672,39.8659697 L51.7494148,39.0755107 L51.7494148,20.9244893 L51.7403672,20.1340303 L51.7196734,19.4625205 C51.7166933,19.3939618 51.7134807,19.3273285 51.71003,19.2625281 L51.6864226,18.8949809 L51.6568297,18.5669854 C51.6513838,18.5153689 51.6456772,18.4652154 51.6397044,18.4164326 L51.6006272,18.1394429 C51.5935668,18.0957725 51.586229,18.0532879 51.5786079,18.0118964 L51.5294395,17.7759266 C51.5118875,17.7011496 51.493158,17.6300058 51.4732061,17.5617555 L51.4096382,17.3649449 C51.3984173,17.3333433 51.3868796,17.3022801 51.3750194,17.2716629 L51.2999436,17.0925715 C51.2867711,17.0633683 51.2732648,17.0344261 51.2594192,17.0056526 L51.1722284,16.8342943 C50.8756339,16.2797108 50.4702892,15.8743661 49.9157057,15.5777716 L49.7443474,15.4905808 L49.5689433,15.4115342 C49.5391256,15.3990234 49.5089543,15.3868408 49.4783371,15.3749806 L49.2885425,15.3076441 C49.1902297,15.2758658 49.0862388,15.2468885 48.9740734,15.2205605 L48.7381036,15.1713921 C48.6967121,15.163771 48.6542275,15.1564332 48.6105571,15.1493728 L48.3335674,15.1102956 L48.0236834,15.0776088 L47.4874719,15.03997 L47.0759349,15.0220784 L46.6159697,15.0096328 L45.8255107,15.0005852 L18.9244893,15.0005852 L18.3638839,15.0056507 L17.6324603,15.0235578 L17.2105861,15.042809 L16.8355063,15.0682633 C16.7766164,15.0730394 16.7194692,15.0780865 16.6639611,15.083411 L16.3497539,15.1187364 C16.3003881,15.1251955 16.2524544,15.1319445 16.2058492,15.1389897 L15.9413312,15.184866 C15.8996258,15.1931213 15.8590417,15.2016855 15.8194754,15.2105647 L15.5934638,15.2676719 L15.3869101,15.3326441 L15.1948442,15.4057833 L15.0122957,15.4873917 L14.8342943,15.5777716 C14.2797108,15.8743661 13.8743661,16.2797108 13.5777716,16.8342943 L13.4905808,17.0056526 L13.4115342,17.1810567 C13.3990234,17.2108744 13.3868408,17.2410457 13.3749806,17.2716629 L13.3076441,17.4614575 C13.2758658,17.5597703 13.2468885,17.6637612 13.2205605,17.7759266 L13.1713921,18.0118964 C13.163771,18.0532879 13.1564332,18.0957725 13.1493728,18.1394429 L13.1102956,18.4164326 L13.0776088,18.7263166 L13.03997,19.2625281 L13.0220784,19.6740651 L13.0096328,20.1340303 L13.0064637,20.4068312 C11.3813314,20.140109 9.71472349,20.0009305 8.01734897,20.0000046 L8.03148624,19.5132486 L8.06154977,18.9263145 L8.10147566,18.3873816 C8.21355168,17.0966977 8.4173376,16.2182993 8.70721081,15.4692392 L8.82773809,15.1758424 L8.95736805,14.8922177 C8.97972715,14.8455376 9.00246221,14.7990971 9.02557154,14.7528122 L9.16870558,14.4763 C9.93129911,13.0503741 11.0503741,11.9312991 12.4763,11.1687056 L12.7528122,11.0255715 L13.0330601,10.8914202 C13.0803029,10.8698147 13.1278691,10.8485867 13.1758424,10.8277381 L13.4692392,10.7072108 C14.2182993,10.4173376 15.0966977,10.2135517 16.3873816,10.1014757 L16.9263145,10.0615498 L17.5132486,10.0314862 L18.1522081,10.011365 L18.8472171,10.0012661 L45.9027829,10.0012661 Z"/>
  </g>
</svg>