<?xml version="1.0" encoding="UTF-8"?>
<svg xmlns="http://www.w3.org/2000/svg" xmlns:xlink="http://www.w3.org/1999/xlink" width="24" height="24" viewBox="0 0 24 24" version="1.1">
    <title>Public/ic_public_wlan</title>
    <defs>
        <path d="M12,16.25 C13.2426407,16.25 14.25,17.2573593 14.25,18.5 C14.25,19.7426407 13.2426407,20.75 12,20.75 C10.7573593,20.75 9.75,19.7426407 9.75,18.5 C9.75,17.2573593 10.7573593,16.25 12,16.25 Z M12,11.7804878 C14.1280211,11.7804878 16.1103937,12.6926978 17.4936156,14.2548981 C17.7682048,14.565017 17.7394022,15.0390164 17.4292834,15.3136055 C17.1191645,15.5881946 16.6451651,15.5593921 16.370576,15.2492733 C15.2691332,14.0053122 13.6939783,13.2804878 12,13.2804878 C10.3053534,13.2804878 8.7296353,14.0058888 7.62815915,15.2507023 C7.35367082,15.5609103 6.87968076,15.5898669 6.56947271,15.3153785 C6.25926467,15.0408902 6.23030812,14.5669001 6.50479645,14.2566921 C7.88805947,12.6934223 9.87113829,11.7804878 12,11.7804878 Z M12,7.3902439 C15.3022512,7.3902439 18.3862449,8.76342338 20.5904015,11.1348759 C20.8723974,11.4382753 20.8550464,11.9128319 20.551647,12.1948278 C20.2482476,12.4768237 19.773691,12.4594727 19.4916951,12.1560733 C17.568453,10.0868568 14.8810063,8.8902439 12,8.8902439 C9.11872612,8.8902439 6.43105232,10.0870806 4.50778413,12.1566336 C4.22581081,12.460054 3.75125546,12.4774402 3.44783509,12.1954669 C3.14441472,11.9134936 3.12702846,11.4389382 3.40900179,11.1355179 C5.61318808,8.76368003 8.69744189,7.3902439 12,7.3902439 Z M12,3 C16.4794444,3 20.6672305,4.83774704 23.6905124,8.02289555 C23.9756724,8.32332301 23.9632957,8.79803543 23.6628682,9.08319542 C23.3624407,9.3683554 22.8877283,9.35597867 22.6025683,9.05555121 C19.8596461,6.16577286 16.063748,4.5 12,4.5 C7.93672757,4.5 4.14123459,6.16538032 1.39836839,9.05456443 C1.11318062,9.35496551 0.638467056,9.36729833 0.338065974,9.08211056 C0.0376648916,8.79692279 0.0253320663,8.32220923 0.310519838,8.02180815 C3.33374037,4.83731424 7.52108017,3 12,3 Z" id="_path-1"/>
    </defs>
    <g id="_Public/ic_public_wlan" stroke="none" stroke-width="1" fill="none" fill-rule="evenodd">
        <mask id="_mask-2" fill="white">
            <use xlink:href="#_path-1"/>
        </mask>
        <use id="_合并形状" fill="#000000" fill-rule="nonzero" xlink:href="#_path-1"/>
    </g>
</svg>