<?xml version="1.0" encoding="utf-8"?>
<!-- Generator: Adobe Illustrator 24.3.0, SVG Export Plug-In . SVG Version: 6.00 Build 0)  -->
<svg version="1.1" id="图层_1" xmlns="http://www.w3.org/2000/svg" xmlns:xlink="http://www.w3.org/1999/xlink" x="0px" y="0px"
	 viewBox="0 0 24 24" style="enable-background:new 0 0 24 24;" xml:space="preserve">
<style type="text/css">
	.st0{fill-rule:evenodd;clip-rule:evenodd;}
</style>
<g>
	<path id="_path-1_1_" class="st0" d="M13.9,2c0.4,0,0.8,0.3,0.8,0.8c0,0.4-0.3,0.7-0.6,0.7l-0.1,0h-1.1v16.9h1.6
		c0.4,0,0.8,0.3,0.8,0.8c0,0.4-0.3,0.7-0.6,0.7l-0.1,0H9.6c-0.4,0-0.8-0.3-0.8-0.8c0-0.4,0.3-0.7,0.6-0.7l0.1,0h1.6V3.5h-1.1
		c-0.4,0-0.8-0.3-0.8-0.8C9.4,2.4,9.7,2.1,10,2l0.1,0H13.9z M4.5,9.3c0.3,0.3,0.3,0.7,0.1,1l-0.1,0.1L2.9,12l1.6,1.6
		c0.3,0.3,0.3,0.7,0.1,1l-0.1,0.1c-0.3,0.3-0.7,0.3-1,0.1l-0.1-0.1l-2.1-2.1c-0.3-0.3-0.3-0.7-0.1-1l0.1-0.1l2.1-2.1
		C3.8,9.1,4.2,9.1,4.5,9.3z M19.5,9.3c0.3-0.3,0.8-0.3,1.1,0l0,0l2.1,2.1l0.1,0.1c0.2,0.3,0.2,0.7-0.1,1l0,0l-2.1,2.1l-0.1,0.1
		c-0.3,0.2-0.7,0.2-1-0.1l0,0l-0.1-0.1c-0.2-0.3-0.2-0.7,0.1-1l0,0l1.6-1.6l-1.6-1.6l-0.1-0.1C19.2,10,19.2,9.6,19.5,9.3z"/>
</g>
</svg>
