<?xml version="1.0" encoding="UTF-8"?>
<svg xmlns="http://www.w3.org/2000/svg" xmlns:xlink="http://www.w3.org/1999/xlink" width="24" height="24" viewBox="0 0 24 24" version="1.1">
    <title>ic_celiakeyboard_menu_icon_size</title>
    <g id="_ic_celiakeyboard_menu_icon_size" stroke="none" stroke-width="1" fill="none" fill-rule="evenodd">
        <path d="M8.90909091,12.1590909 C10.4704609,12.1590909 11.7467595,13.3796263 11.8359321,14.9186425 L11.8409091,15.0909091 L11.8409091,22 L10.3409091,22 L10.3409091,15.0909091 C10.3409091,14.3466537 9.77306138,13.7350263 9.04698456,13.6656454 L8.90909091,13.6590909 L2,13.6590909 L2,12.1590909 L8.90909091,12.1590909 Z" id="_路径" fill="#000000" fill-rule="nonzero"/>
        <path d="M16.5,7 C16.9142136,7 17.25,7.33578644 17.25,7.75 C17.25,8.12969577 16.9678461,8.44349096 16.6017706,8.49315338 L16.5,8.5 L13.25,8.5 L13.25,11.75 C13.25,12.1296958 12.9678461,12.443491 12.6017706,12.4931534 L12.5,12.5 C12.1203042,12.5 11.806509,12.2178461 11.7568466,11.8517706 L11.75,11.75 L11.75,7.75 C11.75,7.37030423 12.0321539,7.05650904 12.3982294,7.00684662 L12.5,7 L16.5,7 Z" id="_路径" fill="#000000" fill-rule="nonzero" transform="translate(14.500000, 9.750000) rotate(-630.000000) translate(-14.500000, -9.750000) "/>
        <rect id="_矩形" fill="#000000" fill-rule="nonzero" transform="translate(13.250000, 11.000000) rotate(-315.000000) translate(-13.250000, -11.000000) " x="12.5" y="7" width="1.5" height="8" rx="0.727272727"/>
        <path d="M6.8777704,2 L16.6222296,2 C18.3673301,2 19.0238114,2.17783521 19.66208,2.51223497 L19.7036914,2.53426541 C20.3245027,2.86627892 20.8180807,3.34610464 21.1648264,3.9541436 L21.2157346,4.04630859 C21.5643488,4.69816044 21.75,5.34473292 21.75,7.1277704 L21.75,16.8722296 L21.7489932,17.0937657 C21.7342401,18.674381 21.5576257,19.3015622 21.237765,19.91208 L21.2157346,19.9536914 C20.8837211,20.5745027 20.4038954,21.0680807 19.7958564,21.4148264 L19.7036914,21.4657346 C19.0518396,21.8143488 18.4052671,22 16.6222296,22 L6.8777704,22 L6.65623426,21.9989932 C5.07561899,21.9842401 4.44843783,21.8076257 3.83791999,21.487765 L3.79630859,21.4657346 C3.17549731,21.1337211 2.68191931,20.6538954 2.33517358,20.0458564 L2.28426541,19.9536914 C1.93565122,19.3018396 1.75,18.6552671 1.75,16.8722296 L1.75,7.1277704 C1.75,5.38266989 1.92783521,4.72618864 2.26223497,4.08791999 L2.28426541,4.04630859 C2.61627892,3.42549731 3.09610464,2.93191931 3.7041436,2.58517358 L3.79630859,2.53426541 C4.44816044,2.18565122 5.09473292,2 6.8777704,2 Z M16.7254617,3.50017541 L6.77453833,3.50017541 L6.57305804,3.501658 C5.4050816,3.5151767 4.95981608,3.61305534 4.50370688,3.8569852 C4.11325774,4.06579969 3.81579969,4.36325774 3.6069852,4.75370688 C3.34290159,5.24750032 3.25,5.72858421 3.25,7.1277704 L3.25017541,16.9754617 L3.251658,17.176942 C3.2651767,18.3449184 3.36305534,18.7901839 3.6069852,19.2462931 C3.81579969,19.6367423 4.11325774,19.9342003 4.50370688,20.1430148 C4.97281064,20.3938942 5.43044405,20.4902819 6.67466189,20.4992935 L6.8777704,20.5 L16.6222296,20.5 C18.0214158,20.5 18.5024997,20.4070984 18.9962931,20.1430148 C19.3867423,19.9342003 19.6842003,19.6367423 19.8930148,19.2462931 C20.1438942,18.7771894 20.2402819,18.319556 20.2492935,17.0753381 L20.25,16.8722296 L20.25,7.1277704 C20.25,5.72858421 20.1570984,5.24750032 19.8930148,4.75370688 C19.6842003,4.36325774 19.3867423,4.06579969 18.9962931,3.8569852 C18.5271894,3.60610577 18.069556,3.50971811 16.8253381,3.50070655 L16.7254617,3.50017541 Z" id="_矩形备份-13" fill="#000000" fill-rule="nonzero"/>
    </g>
</svg>