<?xml version="1.0" encoding="utf-8"?>
<!-- Generator: Adobe Illustrator 24.3.0, SVG Export Plug-In . SVG Version: 6.00 Build 0)  -->
<svg version="1.1" id="图层_1" xmlns="http://www.w3.org/2000/svg" xmlns:xlink="http://www.w3.org/1999/xlink" x="0px" y="0px"
	 viewBox="0 0 24 24" style="enable-background:new 0 0 24 24;" xml:space="preserve">
<style type="text/css">
	.st0{fill-rule:evenodd;clip-rule:evenodd;}
</style>
<g>
	<path id="_path-1_1_" class="st0" d="M13.5,1.4l0.1,0.1L16.1,4c0.3,0.3,0.3,0.8,0,1.1c-0.3,0.3-0.7,0.3-1,0.1L15,5.1l-2.3-2.3v8.4
		h8.4L18.9,9c-0.3-0.3-0.3-0.8,0-1.1c0.3-0.3,0.7-0.3,1-0.1L20,7.9l2.5,2.5c0.8,0.8,0.9,2.2,0.1,3.1l-0.1,0.1L20,16.1
		c-0.3,0.3-0.8,0.3-1.1,0c-0.3-0.3-0.3-0.7-0.1-1l0.1-0.1l2.3-2.3h-8.4v8.4l2.3-2.3l0.1-0.1c0.3-0.2,0.7-0.2,1,0.1
		c0.3,0.3,0.3,0.8,0,1.1l0,0l-2.5,2.5l-0.1,0.1c-0.9,0.8-2.2,0.7-3.1-0.1l0,0L7.9,20l-0.1-0.1c-0.2-0.3-0.2-0.7,0.1-1
		c0.3-0.3,0.8-0.3,1.1,0l0,0l2.3,2.3v-8.4H2.8L5.1,15l0.1,0.1c0.2,0.3,0.2,0.7-0.1,1c-0.3,0.3-0.8,0.3-1.1,0l0,0l-2.5-2.5l-0.1-0.1
		c-0.8-0.9-0.7-2.2,0.1-3.1l0,0L4,7.9l0.1-0.1c0.3-0.2,0.7-0.2,1,0.1c0.3,0.3,0.3,0.8,0,1.1l0,0l-2.3,2.3h8.4V2.8L9,5.1
		c-0.3,0.3-0.8,0.3-1.1,0c-0.3-0.3-0.3-0.7-0.1-1L7.9,4l2.5-2.5C11.2,0.7,12.6,0.7,13.5,1.4z"/>
</g>
</svg>
