<?xml version="1.0" encoding="utf-8"?>
<!-- Generator: Adobe Illustrator 24.3.0, SVG Export Plug-In . SVG Version: 6.00 Build 0)  -->
<svg version="1.1" id="图层_1" xmlns="http://www.w3.org/2000/svg" xmlns:xlink="http://www.w3.org/1999/xlink" x="0px" y="0px"
	 viewBox="0 0 24 24" style="enable-background:new 0 0 24 24;" xml:space="preserve">
<style type="text/css">
	.st0{fill-rule:evenodd;clip-rule:evenodd;}
</style>
<g id="_ic_celiakeyboard_restore">
	<path id="_形状结合" d="M17,2.9c2.6,0,4.6,2,4.7,4.5l0,0.2v6c0,2.6-2,4.6-4.5,4.7l-0.2,0h-0.3v-1.5H17c1.7,0,3.1-1.4,3.2-3.1
		l0-0.2v-6c0-1.7-1.4-3.1-3.1-3.2l-0.2,0H7c-1.7,0-3.1,1.4-3.2,3.1l0,0.2v6c0,1.7,1.4,3.1,3.1,3.2l0.2,0h0.2v1.5H7
		c-2.6,0-4.6-2-4.7-4.5l0-0.2v-6c0-2.6,2-4.6,4.5-4.7l0.2,0H17z"/>
	<path id="_矩形" class="st0" d="M12,13.1L12,13.1c0.4,0,0.8,0.3,0.8,0.8v6.5c0,0.4-0.3,0.8-0.8,0.8l0,0c-0.4,0-0.8-0.3-0.8-0.8
		v-6.5C11.2,13.4,11.6,13.1,12,13.1z"/>
	<path d="M12,22.2c-0.4,0-0.8-0.1-1.2-0.4L9,20.1c-0.3-0.3-0.3-0.7-0.1-1.1c0.3-0.3,0.7-0.3,1.1-0.1l1.9,1.7c0.1,0.1,0.2,0.1,0.3,0
		L14,19c0.3-0.3,0.8-0.2,1.1,0.1s0.2,0.8-0.1,1.1l-1.9,1.7C12.8,22.1,12.4,22.2,12,22.2z"/>
</g>
</svg>
