<?xml version="1.0" encoding="UTF-8"?>
<svg xmlns="http://www.w3.org/2000/svg" xmlns:xlink="http://www.w3.org/1999/xlink" width="24" height="24" viewBox="0 0 24 24" version="1.1">
    <title>ic_celiakeyboard_unfold_reverse</title>
    <g id="_ic_celiakeyboard_unfold_reverse" stroke="none" stroke-width="1" fill="none" fill-rule="evenodd">
        <path d="M14.7891128,3.3604635 C17.0663813,3.3604635 18.9320767,5.1226173 19.0970258,7.35775164 L18.9532059,7.21717556 C22.6551146,10.8026557 24.0181306,14.2823401 22.9047101,17.5994111 C21.8484882,20.7460778 19.8101721,21.4200213 17.2895396,19.6565595 C16.5729403,20.2267204 15.6989913,20.6395365 14.7891128,20.6395365 L5.06963426,20.6395365 C2.68389213,20.6395365 0.749866009,18.7055104 0.749866009,16.3197682 L0.749866009,7.68023175 C0.749866009,5.29448962 2.68389213,3.3604635 5.06963426,3.3604635 L14.7891128,3.3604635 Z M9.17886601,11.1294635 L2.24986601,11.1294635 L2.24986601,16.3197682 C2.24986601,17.8194049 3.42053596,19.045617 4.89786184,19.1343904 L5.06963426,19.1395365 L9.17886601,19.1394635 L9.17886601,11.1294635 Z M17.607866,11.1294635 L10.678866,11.1294635 L10.678866,19.1394635 L14.7891128,19.1395365 C15.1776557,19.1395365 15.6178531,18.981587 16.0427358,18.7084412 L16.095866,18.6704635 L16.0124502,18.5922059 L16.046866,18.5554635 L14.5035641,16.9656419 L14.4353564,16.8904007 C13.0076432,15.2040992 12.6182403,13.4809387 14.3641888,12.3547196 C15.3882457,11.6941547 16.3753418,11.888886 17.4957985,12.7450631 L17.608,12.833 L17.607866,11.1294635 Z M19.1106659,9.55206242 L19.1088811,14.271589 C19.1088811,14.7535673 18.7181789,15.144288 18.2362006,15.144288 C18.0377184,15.144288 17.8464225,15.0766848 17.6928953,14.9545457 L17.5865074,14.8549746 L17.2650527,14.5317692 L16.9687555,14.255874 C16.1160433,13.4974172 15.5819395,13.3542041 15.1772775,13.6152302 C14.4330502,14.0952918 14.739503,14.9282441 15.5801536,15.921154 L17.6528474,18.0572306 C19.6341233,19.7451908 20.7115577,19.4194013 21.4826825,17.1220879 C22.26408,14.7941704 21.5034284,12.2832297 19.1106659,9.55206242 Z M14.7891128,4.8604635 L5.06963426,4.8604635 C3.56999759,4.8604635 2.34378554,6.03113345 2.25501213,7.50845933 L2.24986601,7.68023175 L2.24986601,9.6294635 L17.608866,9.6294635 L17.6088811,7.68023175 C17.6088811,6.18059508 16.4382111,4.95438303 14.9608852,4.86560962 L14.7891128,4.8604635 Z" id="_形状结合" fill="#000000" fill-rule="nonzero"/>
    </g>
</svg>