<?xml version="1.0" encoding="utf-8"?>
<!-- Generator: Adobe Illustrator 24.3.0, SVG Export Plug-In . SVG Version: 6.00 Build 0)  -->
<svg version="1.1" id="图层_1" xmlns="http://www.w3.org/2000/svg" xmlns:xlink="http://www.w3.org/1999/xlink" x="0px" y="0px"
	 viewBox="0 0 24 24" style="enable-background:new 0 0 24 24;" xml:space="preserve">
<style type="text/css">
	.st0{fill-rule:evenodd;clip-rule:evenodd;}
</style>
<g>
	<path id="_path-1_1_" class="st0" d="M7.1,1.2l10,0c1.5,0,2.3,0.2,3.1,0.6c0.8,0.4,1.4,1,1.8,1.8c0.5,0.9,0.6,1.7,0.6,3.4l0,0v9.7
		c0,1.7-0.2,2.6-0.6,3.4c-0.4,0.8-1,1.4-1.8,1.8c-0.9,0.5-1.7,0.6-3.4,0.6l0,0H7.1c-1.7,0-2.6-0.2-3.4-0.6c-0.8-0.4-1.4-1-1.8-1.8
		c-0.5-0.9-0.6-1.7-0.6-3.4l0,0l0-10c0-1.5,0.2-2.3,0.6-3.1c0.4-0.8,1-1.4,1.8-1.8C4.6,1.4,5.4,1.2,7.1,1.2L7.1,1.2z M17,2.8l-0.2,0
		l-10,0c-0.1,0-0.2,0-0.2,0l0,0l-0.4,0c-0.9,0-1.3,0.2-1.8,0.4C3.9,3.5,3.5,3.9,3.2,4.4C2.9,4.9,2.8,5.3,2.8,6.2l0,0l0,0.4
		c0,0.2,0,0.3,0,0.5v9.7l0,0.5l0,0.4c0,0.9,0.2,1.3,0.4,1.8c0.3,0.5,0.7,0.9,1.2,1.2c0.5,0.3,0.9,0.4,1.8,0.4l0,0l0.4,0l0.5,0h9.7
		l0.5,0l0.4,0c0.9,0,1.3-0.2,1.8-0.4c0.5-0.3,0.9-0.7,1.2-1.2c0.3-0.5,0.4-0.9,0.4-1.8l0,0l0-0.4l0-0.5V7.1l0-0.5l0-0.4
		c0-0.9-0.2-1.3-0.4-1.8c-0.3-0.5-0.7-0.9-1.2-1.2c-0.5-0.3-0.9-0.4-1.8-0.4l0,0l-0.4,0c-0.2,0-0.3,0-0.5,0L17,2.8z M9.2,16.3
		c0.4,0,0.8,0.3,0.8,0.8c0,0.4-0.3,0.7-0.6,0.7l-0.1,0H5c-0.4,0-0.8-0.3-0.8-0.8c0-0.4,0.3-0.7,0.6-0.7l0.1,0H9.2z M19,16.3
		c0.4,0,0.8,0.3,0.8,0.8c0,0.4-0.3,0.7-0.6,0.7l-0.1,0h-4.2c-0.4,0-0.8-0.3-0.8-0.8c0-0.4,0.3-0.7,0.6-0.7l0.1,0H19z M6,13.9
		c0.4,0,0.8,0.3,0.8,0.8c0,0.4-0.3,0.7-0.6,0.7l-0.1,0H5c-0.4,0-0.8-0.3-0.8-0.8c0-0.4,0.3-0.7,0.6-0.7l0.1,0H6z M9.2,13.9
		c0.4,0,0.8,0.3,0.8,0.8c0,0.4-0.3,0.7-0.6,0.7l-0.1,0H8.1c-0.4,0-0.8-0.3-0.8-0.8c0-0.4,0.3-0.7,0.6-0.7l0.1,0H9.2z M15.9,13.9
		c0.4,0,0.8,0.3,0.8,0.8c0,0.4-0.3,0.7-0.6,0.7l-0.1,0h-1.1c-0.4,0-0.8-0.3-0.8-0.8c0-0.4,0.3-0.7,0.6-0.7l0.1,0H15.9z M19,13.9
		c0.4,0,0.8,0.3,0.8,0.8c0,0.4-0.3,0.7-0.6,0.7l-0.1,0H18c-0.4,0-0.8-0.3-0.8-0.8c0-0.4,0.3-0.7,0.6-0.7l0.1,0H19z M6,11.6
		c0.4,0,0.8,0.3,0.8,0.8c0,0.4-0.3,0.7-0.6,0.7l-0.1,0H5c-0.4,0-0.8-0.3-0.8-0.8c0-0.4,0.3-0.7,0.6-0.7l0.1,0H6z M9.2,11.6
		c0.4,0,0.8,0.3,0.8,0.8c0,0.4-0.3,0.7-0.6,0.7l-0.1,0H8.1c-0.4,0-0.8-0.3-0.8-0.8c0-0.4,0.3-0.7,0.6-0.7l0.1,0H9.2z M15.9,11.6
		c0.4,0,0.8,0.3,0.8,0.8c0,0.4-0.3,0.7-0.6,0.7l-0.1,0h-1.1c-0.4,0-0.8-0.3-0.8-0.8c0-0.4,0.3-0.7,0.6-0.7l0.1,0H15.9z M19,11.6
		c0.4,0,0.8,0.3,0.8,0.8c0,0.4-0.3,0.7-0.6,0.7l-0.1,0H18c-0.4,0-0.8-0.3-0.8-0.8c0-0.4,0.3-0.7,0.6-0.7l0.1,0H19z"/>
</g>
</svg>
