<?xml version="1.0" encoding="utf-8"?>
<!-- Generator: Adobe Illustrator 24.3.0, SVG Export Plug-In . SVG Version: 6.00 Build 0)  -->
<svg version="1.1" id="图层_1" xmlns="http://www.w3.org/2000/svg" xmlns:xlink="http://www.w3.org/1999/xlink" x="0px" y="0px"
	 viewBox="0 0 24 24" style="enable-background:new 0 0 24 24;" xml:space="preserve">
<style type="text/css">
	.st0{fill-rule:evenodd;clip-rule:evenodd;}
</style>
<path class="st0" d="M21.3,11.2c1.4,0,2.5,1.1,2.5,2.5v5.8c0,1.4-1.1,2.5-2.5,2.5h-5.8c-1.4,0-2.5-1.1-2.5-2.5v-5.8
	c0-1.4,1.1-2.5,2.5-2.5L21.3,11.2z M17.3,2.5c1.3,0,1.9,0.1,2.5,0.5c0.6,0.3,1.1,0.8,1.4,1.4c0.3,0.6,0.5,1.2,0.5,2.2l0,0.3l0,0.2
	l0,3.2c-0.1,0-0.3,0-0.5,0h-1V7.1c0-1.1-0.1-1.5-0.3-2c-0.2-0.4-0.5-0.6-0.8-0.8c-0.4-0.2-0.9-0.3-2-0.3L5.7,4c-1,0-1.4,0.1-1.9,0.3
	C3.5,4.5,3.3,4.8,3.1,5.1C2.8,5.5,2.8,5.9,2.8,6.9l0,0.2l0,8.4c0,1,0.1,1.4,0.3,1.9c0.2,0.4,0.5,0.6,0.8,0.8
	c0.4,0.2,0.8,0.3,1.7,0.3l0.2,0H12v1c0,0.2,0,0.3,0,0.5l-6.2,0c-1.3,0-2-0.1-2.7-0.5c-0.6-0.3-1.1-0.8-1.4-1.4
	c-0.3-0.6-0.5-1.2-0.5-2.2l0-0.3l0-0.2l0-8.4c0-1.3,0.1-1.9,0.5-2.5C2.1,3.8,2.6,3.3,3.2,3c0.6-0.3,1.2-0.5,2.4-0.5l0.3,0L17.3,2.5z
	 M20.2,15.6h-3.9V19c0,0.5,0.3,0.8,0.8,0.8h2.7c0.5,0,0.9-0.1,1.1-0.2c0.2-0.2,0.3-0.6,0.4-1.4L20.6,18c-0.1,0.5-0.1,0.8-0.2,0.9
	c-0.1,0.1-0.4,0.2-0.8,0.2h-2.1c-0.3,0-0.4-0.1-0.4-0.4v-2.5h2.4v0.9c0,0.3-0.1,0.4-0.3,0.4c-0.3,0-0.6,0-1,0l0.2,0.7
	c0.3,0,0.7,0,1.1,0c0.5,0,0.7-0.3,0.7-0.8V15.6z M18.6,13h-0.5c-0.9,1-2,1.9-3.3,2.6l0.4,0.7c1.3-0.7,2.4-1.6,3.2-2.6
	c0.9,1.1,1.9,1.9,3.1,2.6l0.4-0.6C20.6,14.9,19.5,14.1,18.6,13z M12,13.5c0,0.1,0,0.2,0,0.2V15H6.5c-0.4,0-0.8-0.3-0.8-0.8
	s0.3-0.8,0.8-0.8L12,13.5z M8.5,10.7c0.4,0,0.8,0.3,0.8,0.8s-0.3,0.8-0.8,0.8H8c-0.4,0-0.8-0.3-0.8-0.8s0.3-0.8,0.8-0.8H8.5z
	 M11.8,10.7c0.4,0,0.8,0.3,0.8,0.8s-0.3,0.8-0.8,0.8h-0.5c-0.4,0-0.8-0.3-0.8-0.8s0.3-0.8,0.8-0.8H11.8z M7,8c0.4,0,0.8,0.3,0.8,0.8
	S7.4,9.5,7,9.5H6.5c-0.4,0-0.8-0.3-0.8-0.8S6.1,8,6.5,8H7z M10.2,8C10.7,8,11,8.3,11,8.7s-0.3,0.8-0.8,0.8H9.8C9.3,9.5,9,9.2,9,8.7
	S9.3,8,9.8,8H10.2z M13.5,8c0.4,0,0.8,0.3,0.8,0.8s-0.3,0.8-0.8,0.8H13c-0.4,0-0.8-0.3-0.8-0.8S12.6,8,13,8H13.5z M16.8,8
	c0.4,0,0.8,0.3,0.8,0.8s-0.3,0.8-0.8,0.8h-0.5c-0.4,0-0.8-0.3-0.8-0.8S15.8,8,16.2,8H16.8z"/>
</svg>
