<?xml version="1.0" encoding="utf-8"?>
<!-- Generator: Adobe Illustrator 24.3.0, SVG Export Plug-In . SVG Version: 6.00 Build 0)  -->
<svg version="1.1" id="图层_1" xmlns="http://www.w3.org/2000/svg" xmlns:xlink="http://www.w3.org/1999/xlink" x="0px" y="0px"
	 viewBox="0 0 24 24" style="enable-background:new 0 0 24 24;" xml:space="preserve">
<style type="text/css">
	.st0{fill-rule:evenodd;clip-rule:evenodd;}
</style>
<g>
	<path id="_path-1_1_" class="st0" d="M10.9,4l-7.5,7.8c-0.4,0.4-0.4,1,0,1.4l0.1,0.1c0.2,0.1,0.4,0.2,0.6,0.2h3.4l0,5.9
		c0,0.7,0.6,1.3,1.3,1.3h6.4l0.1,0c0.6-0.1,1.2-0.6,1.2-1.3l0-5.9h3.4c0.6,0,1-0.5,1-1c0-0.3-0.1-0.5-0.3-0.7l-7.5-7.8
		C12.5,3.5,11.5,3.4,10.9,4z M12,5.1C12,5.1,12,5.1,12,5.1l6.7,6.9H15l0,7.2H9L9,12H5.3L12,5.1L12,5.1z"/>
</g>
</svg>
