<?xml version="1.0" encoding="utf-8"?>
<!-- Generator: Adobe Illustrator 24.3.0, SVG Export Plug-In . SVG Version: 6.00 Build 0)  -->
<svg version="1.1" id="图层_1" xmlns="http://www.w3.org/2000/svg" xmlns:xlink="http://www.w3.org/1999/xlink" x="0px" y="0px"
	 viewBox="0 0 24 24" style="enable-background:new 0 0 24 24;" xml:space="preserve">
<path id="_蒙版" d="M18.4,10.7c0.5,0,0.9,0.3,1.2,0.7l0.1,0.1l0.3,0.8l0.2,0.1l0.9-0.1c0.4,0,0.8,0.1,1.1,0.4l0.1,0.1l0.1,0.1
	l0.8,1.4c0.3,0.4,0.2,0.9-0.1,1.4l-0.1,0.1l-0.5,0.5v0.2l0.6,0.5c0.3,0.3,0.4,0.8,0.3,1.2l-0.1,0.1l-0.1,0.1L22.2,20
	c-0.2,0.4-0.7,0.6-1.1,0.6l-0.1,0l-0.9-0.1l-0.2,0.1l-0.3,0.8c-0.1,0.4-0.5,0.7-0.9,0.8l-0.1,0l-0.1,0h-1.8c-0.5,0-1-0.3-1.2-0.7
	l0-0.1l-0.3-0.8l-0.2-0.1L14,20.7c-0.4,0.1-0.8-0.1-1.1-0.4l-0.1-0.1L12.8,20l-0.8-1.4c-0.3-0.4-0.2-1,0.1-1.4l0.1-0.1l0.5-0.5v-0.2
	l-0.6-0.6c-0.3-0.3-0.4-0.8-0.2-1.2l0.1-0.1l0.1-0.1l0.8-1.4c0.2-0.4,0.7-0.6,1.1-0.6l0.1,0l0.9,0.1l0.2-0.1l0.3-0.8
	c0.2-0.4,0.5-0.7,0.9-0.8l0.1,0l0.1,0H18.4z M18.3,12.2h-1.5l-0.4,1.2L15.2,14L14,13.8l-0.6,1.1l0.8,0.8v1.5l-0.3,0.2L13.3,18
	l0.7,1.1l1.2-0.2l1.1,0.6l0.4,1.1h1.5l0.4-1.1l1.1-0.6l1.2,0.2l0.7-1.1l-0.8-0.7v-1.5l0.8-0.8L21,13.8L19.8,14l-1.1-0.7L18.3,12.2z
	 M16.8,2.5c1.3,0,1.9,0.1,2.5,0.5c0.6,0.3,1.1,0.8,1.4,1.4c0.3,0.6,0.5,1.2,0.5,2.2l0,0.5v4.5l-0.7,0.1l-0.2-0.1L20,10.6
	c-0.1-0.2-0.2-0.3-0.3-0.5l0-3.1l0-0.4c0-0.8-0.1-1.2-0.3-1.5c-0.2-0.4-0.5-0.6-0.8-0.8C18.3,4.1,18,4,17.4,4L17,4l0,0L5.2,4L4.8,4
	L4.5,4C4,4,3.7,4.1,3.4,4.3C3,4.5,2.8,4.8,2.6,5.1C2.4,5.4,2.3,5.7,2.3,6.3l0,0.5l0,0l0,8.8l0,0l0,0.3l0,0l0,0.4
	c0,0.6,0.1,0.9,0.3,1.2C2.8,17.7,3,18,3.4,18.2c0.3,0.2,0.6,0.3,1.2,0.3l0.5,0l0,0l5.6,0c0,0.2,0.1,0.4,0.2,0.5l0.6,1h-6
	c-1.3,0-2-0.1-2.7-0.5c-0.6-0.3-1.1-0.8-1.4-1.4c-0.3-0.6-0.5-1.2-0.5-2.2l0-0.3l0-8.7c0-1.3,0.1-1.9,0.5-2.5C1.6,3.8,2.1,3.3,2.7,3
	c0.6-0.3,1.2-0.5,2.2-0.5l0.3,0L16.8,2.5z M17.5,14.5c1.1,0,2,0.9,2,2c0,1.1-0.9,2-2,2c-1.1,0-2-0.9-2-2
	C15.5,15.4,16.4,14.5,17.5,14.5z M17.5,15.5c-0.6,0-1,0.4-1,1c0,0.6,0.4,1,1,1s1-0.4,1-1C18.5,15.9,18.1,15.5,17.5,15.5z M11.1,13.5
	l-0.2,0.4L10.8,14c-0.1,0.3-0.2,0.6-0.1,0.9L6,15c-0.4,0-0.8-0.3-0.8-0.8c0-0.4,0.3-0.8,0.8-0.8H11.1z M8,10.7
	c0.4,0,0.8,0.3,0.8,0.8c0,0.4-0.3,0.8-0.8,0.8H7.5c-0.4,0-0.8-0.3-0.8-0.8c0-0.4,0.3-0.8,0.8-0.8H8z M11.2,10.7
	c0.4,0,0.8,0.3,0.8,0.8c0,0.4-0.3,0.8-0.8,0.8h-0.5c-0.4,0-0.8-0.3-0.8-0.8c0-0.4,0.3-0.8,0.8-0.8H11.2z M14.5,10.7
	c0.1,0,0.2,0,0.4,0.1l-0.3,0.7l-0.2,0.1l-1.1-0.2l-0.1,0v-0.1c0-0.4,0.3-0.7,0.7-0.7H14.5z M6.5,8c0.4,0,0.8,0.3,0.8,0.8
	c0,0.4-0.3,0.8-0.8,0.8H6c-0.4,0-0.8-0.3-0.8-0.8C5.2,8.3,5.6,8,6,8H6.5z M9.7,8c0.4,0,0.8,0.3,0.8,0.8c0,0.4-0.3,0.8-0.8,0.8H9.2
	c-0.4,0-0.8-0.3-0.8-0.8C8.5,8.3,8.8,8,9.2,8H9.7z M13,8c0.4,0,0.8,0.3,0.8,0.8c0,0.4-0.3,0.8-0.8,0.8h-0.5c-0.4,0-0.8-0.3-0.8-0.8
	c0-0.4,0.3-0.8,0.8-0.8H13z M16.2,8C16.7,8,17,8.3,17,8.7c0,0.4-0.3,0.8-0.8,0.8h-0.5c-0.4,0-0.8-0.3-0.8-0.8C15,8.3,15.3,8,15.7,8
	H16.2z"/>
</svg>
