<?xml version="1.0" encoding="utf-8"?>
<!-- Generator: Adobe Illustrator 24.3.0, SVG Export Plug-In . SVG Version: 6.00 Build 0)  -->
<svg version="1.1" id="图层_1" xmlns="http://www.w3.org/2000/svg" xmlns:xlink="http://www.w3.org/1999/xlink" x="0px" y="0px"
	 viewBox="0 0 24 24" style="enable-background:new 0 0 24 24;" xml:space="preserve">
<style type="text/css">
	.st0{fill-rule:evenodd;clip-rule:evenodd;}
</style>
<g>
	<path id="_path-1_1_" class="st0" d="M6.1,2.2l12,0c1.5,0,2.3,0.2,3.1,0.6c0.8,0.4,1.4,1,1.8,1.8c0.5,0.9,0.6,1.7,0.6,3.4l0,0v7.7
		c0,1.7-0.2,2.6-0.6,3.4c-0.4,0.8-1,1.4-1.8,1.8c-0.9,0.5-1.7,0.6-3.4,0.6l0,0H6.1c-1.7,0-2.6-0.2-3.4-0.6c-0.8-0.4-1.4-1-1.8-1.8
		c-0.5-0.9-0.6-1.7-0.6-3.4l0,0l0-8c0-1.5,0.2-2.3,0.6-3.1c0.4-0.8,1-1.4,1.8-1.8C3.6,2.4,4.4,2.2,6.1,2.2L6.1,2.2z M18,3.8l-0.2,0
		l-12,0c-0.1,0-0.2,0-0.2,0l0,0l-0.4,0c-0.9,0-1.3,0.2-1.8,0.4C2.9,4.5,2.5,4.9,2.2,5.4C1.9,5.9,1.8,6.3,1.8,7.2l0,0l0,0.4
		c0,0.2,0,0.3,0,0.5v7.7l0,0.5l0,0.4c0,0.9,0.2,1.3,0.4,1.8c0.3,0.5,0.7,0.9,1.2,1.2c0.5,0.3,0.9,0.4,1.8,0.4l0,0l0.4,0l0.5,0h11.7
		l0.5,0l0.4,0c0.9,0,1.3-0.2,1.8-0.4c0.5-0.3,0.9-0.7,1.2-1.2c0.3-0.5,0.4-0.9,0.4-1.8l0,0l0-0.4l0-0.5V8.1l0-0.5l0-0.4
		c0-0.9-0.2-1.3-0.4-1.8c-0.3-0.5-0.7-0.9-1.2-1.2c-0.5-0.3-0.9-0.4-1.8-0.4l0,0l-0.4,0c-0.2,0-0.3,0-0.5,0L18,3.8z M16.5,14.5
		c0.4,0,0.8,0.3,0.8,0.8S16.9,16,16.5,16h-9c-0.4,0-0.8-0.3-0.8-0.8s0.3-0.8,0.8-0.8H16.5z M8.5,11.2c0.4,0,0.8,0.3,0.8,0.8
		s-0.3,0.8-0.8,0.8h-1c-0.4,0-0.8-0.3-0.8-0.8s0.3-0.8,0.8-0.8H8.5z M12.5,11.2c0.4,0,0.8,0.3,0.8,0.8s-0.3,0.8-0.8,0.8h-1
		c-0.4,0-0.8-0.3-0.8-0.8s0.3-0.8,0.8-0.8H12.5z M16.5,11.2c0.4,0,0.8,0.3,0.8,0.8s-0.3,0.8-0.8,0.8h-1c-0.4,0-0.8-0.3-0.8-0.8
		s0.3-0.8,0.8-0.8H16.5z M8.5,8c0.4,0,0.8,0.3,0.8,0.8S8.9,9.5,8.5,9.5h-1c-0.4,0-0.8-0.3-0.8-0.8S7.1,8,7.5,8H8.5z M12.5,8
		c0.4,0,0.8,0.3,0.8,0.8s-0.3,0.8-0.8,0.8h-1c-0.4,0-0.8-0.3-0.8-0.8S11.1,8,11.5,8H12.5z M16.5,8c0.4,0,0.8,0.3,0.8,0.8
		s-0.3,0.8-0.8,0.8h-1c-0.4,0-0.8-0.3-0.8-0.8S15.1,8,15.5,8H16.5z"/>
</g>
</svg>
