<?xml version="1.0" encoding="utf-8"?>
<!-- Generator: Adobe Illustrator 24.3.0, SVG Export Plug-In . SVG Version: 6.00 Build 0)  -->
<svg version="1.1" id="图层_1" xmlns="http://www.w3.org/2000/svg" xmlns:xlink="http://www.w3.org/1999/xlink" x="0px" y="0px"
	 viewBox="0 0 24 24" style="enable-background:new 0 0 24 24;" xml:space="preserve">
<style type="text/css">
	.st0{fill-rule:evenodd;clip-rule:evenodd;}
</style>
<g>
	<path id="_path-1_1_" class="st0" d="M21.3,5C22.2,5,23,5.8,23,6.7l0,0v11.1c0,0.9-0.8,1.7-1.7,1.7l0,0H8.7c-0.4,0-0.8-0.1-1.1-0.4
		l0,0l-5.8-5.7c-0.6-0.6-0.6-1.6,0-2.1l0,0l5.8-5.8C8,5.1,8.4,5,8.8,5l0,0H21.3z M21.3,6.5H8.8L3,12.3L8.8,18h12.6
		c0.1,0,0.2-0.1,0.2-0.2l0,0V6.7C21.5,6.6,21.4,6.5,21.3,6.5L21.3,6.5z M10.7,8.7c0.3-0.3,0.8-0.3,1.1,0l0,0l2.5,2.5l2.5-2.5
		c0.3-0.3,0.8-0.3,1.1,0c0.3,0.3,0.3,0.8,0,1l0,0l-2.5,2.5l2.5,2.5c0.3,0.3,0.3,0.8,0,1c-0.3,0.3-0.8,0.3-1.1,0l0,0l-2.5-2.5
		l-2.5,2.5c-0.3,0.3-0.8,0.3-1.1,0c-0.3-0.3-0.3-0.8,0-1l0,0l2.5-2.5l-2.5-2.5C10.4,9.5,10.4,9,10.7,8.7z"/>
</g>
</svg>
