<?xml version="1.0" encoding="UTF-8"?>
<svg xmlns="http://www.w3.org/2000/svg" xmlns:xlink="http://www.w3.org/1999/xlink" width="24" height="24" viewBox="0 0 24 24" version="1.1">
    <title>ic_celiakeyboard_swipe_up_input</title>
    <g id="_ic_celiakeyboard_swipe_up_input" stroke="none" stroke-width="1" fill="none" fill-rule="evenodd">
        <path d="M7.1277704,1.25 L17.169864,1.25169648 C18.7090792,1.26994521 19.4939169,1.43785502 20.3073906,1.87290551 C21.0899438,2.29141954 21.7085805,2.91005624 22.1270945,3.69260945 C22.5893356,4.55692524 22.75,5.38891362 22.75,7.1277704 L22.75,7.1277704 L22.75,16.8722296 C22.75,18.6110864 22.5893356,19.4430748 22.1270945,20.3073906 C21.7085805,21.0899438 21.0899438,21.7085805 20.3073906,22.1270945 C19.4430748,22.5893356 18.6110864,22.75 16.8722296,22.75 L16.8722296,22.75 L7.1277704,22.75 C5.38891362,22.75 4.55692524,22.5893356 3.69260945,22.1270945 C2.91005624,21.7085805 2.29141954,21.0899438 1.87290551,20.3073906 C1.41066437,19.4430748 1.25,18.6110864 1.25,16.8722296 L1.25,16.8722296 L1.25169648,6.83013601 C1.26994521,5.29092077 1.43785502,4.50608313 1.87290551,3.69260945 C2.29141954,2.91005624 2.91005624,2.29141954 3.69260945,1.87290551 C4.55692524,1.41066437 5.38891362,1.25 7.1277704,1.25 L7.1277704,1.25 Z M17.045998,2.7505388 L16.8722296,2.75 L6.87017614,2.75121903 C6.78734857,2.75203845 6.70749484,2.75327766 6.63042492,2.75495686 L6.63042492,2.75495686 L6.19989092,2.77047329 C5.33285874,2.81623142 4.87206136,2.94316827 4.40000774,3.19562531 C3.87885724,3.47433964 3.47433964,3.87885724 3.19562531,4.40000774 C2.94316827,4.87206136 2.81623142,5.33285874 2.77047329,6.19989092 L2.77047329,6.19989092 L2.75495686,6.63042492 C2.75159847,6.78456476 2.75,6.94983984 2.75,7.1277704 L2.75,16.8722296 L2.75495686,17.3695751 L2.77047329,17.8001091 C2.81623142,18.6671413 2.94316827,19.1279386 3.19562531,19.5999923 C3.47433964,20.1211428 3.87885724,20.5256604 4.40000774,20.8043747 C4.87206136,21.0568317 5.33285874,21.1837686 6.19989092,21.2295267 L6.19989092,21.2295267 L6.63042492,21.2450431 L7.1277704,21.25 L16.8722296,21.25 L17.3695751,21.2450431 L17.8001091,21.2295267 C18.6671413,21.1837686 19.1279386,21.0568317 19.5999923,20.8043747 C20.1211428,20.5256604 20.5256604,20.1211428 20.8043747,19.5999923 C21.0568317,19.1279386 21.1837686,18.6671413 21.2295267,17.8001091 L21.2295267,17.8001091 L21.2450431,17.3695751 L21.25,16.8722296 L21.25,7.1277704 L21.2450431,6.63042492 L21.2295267,6.19989092 C21.1837686,5.33285874 21.0568317,4.87206136 20.8043747,4.40000774 C20.5256604,3.87885724 20.1211428,3.47433964 19.5999923,3.19562531 C19.1279386,2.94316827 18.6671413,2.81623142 17.8001091,2.77047329 L17.8001091,2.77047329 L17.3695751,2.75495686 C17.2154352,2.75159847 17.0501602,2.75 16.8722296,2.75 Z M11.6464,9.5144 C12.3557333,9.5144 12.9978667,9.68613333 13.5728,10.0296 C14.1477333,10.3730667 14.5994667,10.864 14.928,11.5024 C15.2565333,12.1408 15.4208,12.8856 15.4208,13.7368 C15.4208,14.6029333 15.2528,15.3608 14.9168,16.0104 C14.5808,16.66 14.1178667,17.1528 13.528,17.4888 L13.528,17.4888 L16.1264,19.6056 L14.3792,19.6056 L12.2624,17.9256 L12.0744889,17.9504889 C11.9434074,17.963763 11.8007111,17.9704 11.6464,17.9704 C10.9370667,17.9704 10.2949333,17.8005333 9.72,17.4608 C9.14506667,17.1210667 8.69333333,16.6301333 8.3648,15.988 C8.03626667,15.3458667 7.872,14.5954667 7.872,13.7368 C7.872,12.8856 8.03626667,12.1408 8.3648,11.5024 C8.69333333,10.864 9.14506667,10.3730667 9.72,10.0296 C10.2949333,9.68613333 10.9370667,9.5144 11.6464,9.5144 Z M11.6464,10.612 C11.1461333,10.612 10.7074667,10.7426667 10.3304,11.004 C9.95333333,11.2653333 9.66213333,11.6312 9.4568,12.1016 C9.25146667,12.572 9.1488,13.1170667 9.1488,13.7368 C9.1488,14.3565333 9.25146667,14.9034667 9.4568,15.3776 C9.66213333,15.8517333 9.95146667,16.2194667 10.3248,16.4808 C10.6981333,16.7421333 11.1386667,16.8728 11.6464,16.8728 C12.1541333,16.8728 12.5965333,16.7421333 12.9736,16.4808 C13.3506667,16.2194667 13.6418667,15.8517333 13.8472,15.3776 C14.0525333,14.9034667 14.1552,14.3565333 14.1552,13.7368 C14.1552,13.1170667 14.0525333,12.572 13.8472,12.1016 C13.6418667,11.6312 13.3488,11.2653333 12.968,11.004 C12.5872,10.7426667 12.1466667,10.612 11.6464,10.612 Z M12.6028591,4.23499382 L12.6028591,7.89999382 L11.8678591,7.89999382 L11.8678591,5.03499382 L10.9178591,5.56499382 L10.9178591,4.86999382 L12.0378591,4.23499382 L12.6028591,4.23499382 Z" id="_蒙版" fill="#000000" fill-rule="nonzero"/>
    </g>
</svg>