<?xml version="1.0" encoding="utf-8"?>
<!-- Generator: Adobe Illustrator 24.3.0, SVG Export Plug-In . SVG Version: 6.00 Build 0)  -->
<svg version="1.1" id="图层_1" xmlns="http://www.w3.org/2000/svg" xmlns:xlink="http://www.w3.org/1999/xlink" x="0px" y="0px"
	 viewBox="0 0 24 24" style="enable-background:new 0 0 24 24;" xml:space="preserve">
<style type="text/css">
	.st0{fill-rule:evenodd;clip-rule:evenodd;}
</style>
<g>
	<path id="_path-1_1_" class="st0" d="M21.3,11.2c1.4,0,2.5,1.1,2.5,2.5v5.8c0,1.4-1.1,2.5-2.5,2.5h-5.8c-1.4,0-2.5-1.1-2.5-2.5
		v-5.8c0-1.4,1.1-2.5,2.5-2.5H21.3z M20.8,13.1c-0.3,0.5-0.5,1-0.9,1.4h-1l0.4-0.3c-0.3-0.4-0.5-0.8-0.8-1.1l-0.6,0.3
		c0.2,0.3,0.5,0.7,0.7,1.1h-1v0.7h0.6v1.6h-0.7l0-0.3l-0.1-0.3l-0.7,0.2v-1.1h0.8v-0.7h-0.8v-1.3h-0.7v1.3h-0.9v0.7h0.9v1.3
		c-0.4,0.1-0.7,0.2-1.1,0.3l0.2,0.7c0.3-0.1,0.6-0.2,1-0.3v1.6c0,0.1,0,0.1,0,0.2c0,0,0,0.1-0.1,0.1c0,0-0.1,0-0.1,0.1
		c-0.1,0-0.1,0-0.2,0h-0.5l0.1,0.7h0.6c0.1,0,0.3,0,0.4-0.1c0.1,0,0.2-0.1,0.3-0.2c0.1-0.1,0.1-0.2,0.2-0.3c0-0.1,0-0.2,0-0.3V17
		c0.2-0.1,0.5-0.1,0.7-0.2v0.6h0.9c0,0.2-0.1,0.5-0.1,0.7c0,0.2-0.1,0.3-0.2,0.4c-0.1,0.2-0.2,0.4-0.4,0.5c-0.2,0.2-0.4,0.4-0.6,0.6
		l0.6,0.4c0.2-0.2,0.4-0.4,0.6-0.7c0.2-0.2,0.3-0.4,0.4-0.6c0.1-0.2,0.1-0.4,0.2-0.5C19,18,19,17.7,19,17.4h1.3V20h0.7v-2.6h1v-0.7
		h-1v-1.6h0.8v-0.7h-1.1c0.2-0.4,0.5-0.7,0.7-1.1L20.8,13.1z M17.3,2.5c1.3,0,1.9,0.1,2.5,0.5c0.6,0.3,1.1,0.8,1.4,1.4
		c0.3,0.6,0.5,1.2,0.5,2.2l0,0.3l0,0.2l0,3.2c-0.1,0-0.3,0-0.5,0h-1V7.1c0-1.1-0.1-1.5-0.3-2c-0.2-0.4-0.5-0.6-0.8-0.8
		c-0.4-0.2-0.9-0.3-2-0.3L5.7,4c-1,0-1.4,0.1-1.9,0.3C3.5,4.5,3.3,4.8,3.1,5.1C2.8,5.5,2.8,5.9,2.8,6.9l0,0.2l0,8.4
		c0,1,0.1,1.4,0.3,1.9c0.2,0.4,0.5,0.6,0.8,0.8c0.4,0.2,0.8,0.3,1.7,0.3l0.2,0H12v1c0,0.2,0,0.3,0,0.5l-6.2,0c-1.3,0-2-0.1-2.7-0.5
		c-0.6-0.3-1.1-0.8-1.4-1.4c-0.3-0.6-0.5-1.2-0.5-2.2l0-0.3l0-0.2l0-8.4c0-1.3,0.1-1.9,0.5-2.5C2.1,3.8,2.6,3.3,3.2,3
		c0.6-0.3,1.2-0.5,2.4-0.5l0.3,0L17.3,2.5z M20.4,15.2v1.6h-1.3c0-0.1,0-0.3,0-0.4v-1.2H20.4z M12,13.5c0,0.1,0,0.2,0,0.2V15H6.5
		c-0.4,0-0.8-0.3-0.8-0.8s0.3-0.8,0.8-0.8L12,13.5z M8.5,10.7c0.4,0,0.8,0.3,0.8,0.8s-0.3,0.8-0.8,0.8H8c-0.4,0-0.8-0.3-0.8-0.8
		s0.3-0.8,0.8-0.8H8.5z M11.8,10.7c0.4,0,0.8,0.3,0.8,0.8s-0.3,0.8-0.8,0.8h-0.5c-0.4,0-0.8-0.3-0.8-0.8s0.3-0.8,0.8-0.8H11.8z M7,8
		c0.4,0,0.8,0.3,0.8,0.8S7.4,9.5,7,9.5H6.5c-0.4,0-0.8-0.3-0.8-0.8S6.1,8,6.5,8H7z M13.5,8c0.4,0,0.8,0.3,0.8,0.8s-0.3,0.8-0.8,0.8
		H13c-0.4,0-0.8-0.3-0.8-0.8S12.6,8,13,8H13.5z M16.8,8c0.4,0,0.8,0.3,0.8,0.8s-0.3,0.8-0.8,0.8h-0.5c-0.4,0-0.8-0.3-0.8-0.8
		S15.8,8,16.2,8H16.8z M10.2,8C10.7,8,11,8.3,11,8.7s-0.3,0.8-0.8,0.8H9.8C9.3,9.5,9,9.2,9,8.7S9.3,8,9.8,8H10.2z"/>
</g>
</svg>
