<?xml version="1.0" encoding="UTF-8"?>
<svg xmlns="http://www.w3.org/2000/svg" height="24" viewBox="0 0 24 24" width="24"><g fill-rule="evenodd"><path d="m12.129245 13.84825-3.88100004-.001.001-3.936h3.87700004l3.623-2.777v9.504zm3.738-8.336-.076.002-.164.019c-.216.038-.422.127-.599.263l-3.411 2.615h-3.48700004l-.133.007c-.701.067-1.248.66-1.248 1.381l.001 4.222.012.137c.096.672.672 1.19 1.368 1.19h3.48800004l3.407 2.627.118.08c.298.186.643.243.969.185.163-.031.322-.089.466-.176.146-.087.277-.203.385-.345.186-.243.286-.54.286-.845v-9.975l-.007-.134c-.067-.703-.657-1.253-1.375-1.253z"/><path d="m3.62774496 4.11095-2.033-2.576-.075-.082-.085-.068c-.265-.185-.628-.183-.894.026-.325.257-.381.729-.124 1.054l2.034 2.577.034.056c.035.079.027.17-.026.244l-1.627 2.277-.084.129c-.361.616-.313 1.406.136 1.974l1.567 1.986.034.056c.017.039.023.082.019.125-.004.042-.019.083-.045.119l-1.627 2.278-.084.129c-.181.307-.259.659-.236 1.005.023.345.147.684.372.968l1.567 1.987.034.056c.035.08.027.171-.026.245l-2.063 2.888-.058.095c-.167.325-.075.732.232.951.066.048.137.082.211.105.073.024.149.035.224.035.117 0 .233-.027.338-.08.106-.053.2-.131.273-.234l2.064-2.888.084-.13c.361-.615.313-1.406-.136-1.973l-1.567-1.987-.035-.057c-.035-.079-.026-.17.027-.244l1.627-2.277.084-.129c.361-.615.313-1.407-.136-1.973l-1.567-1.986-.035-.056c-.017-.04-.023-.083-.02-.125.005-.042.02-.083.047-.12l1.627-2.277.084-.129c.18-.308.259-.66.236-1.005-.023-.346-.148-.685-.372-.969"/><path d="m23.725945 21.83555c-.021-.095-.062-.187-.121-.271l-2.064-2.888c-.033-.047-.048-.1-.046-.153.001-.052.019-.104.054-.149l1.568-1.986c.24-.305.366-.672.375-1.043.008-.371-.098-.744-.324-1.06l-1.627-2.278c-.032-.045-.047-.098-.046-.151.002-.052.02-.105.054-.148l1.568-1.986c.24-.304.366-.673.375-1.043.008-.371-.098-.745-.324-1.061l-1.627-2.277c-.033-.046-.048-.099-.046-.151.001-.052.019-.105.054-.148l2.034-2.578c.257-.324.202-.796-.124-1.054-.325-.256-.795-.2-1.053.124l-2.034 2.576c-.24.305-.366.672-.375 1.043-.004.186.02.372.075.551.053.179.136.352.249.509l1.627 2.277c.065.093.062.212-.008.302l-1.568 1.985c-.48.607-.501 1.473-.051 2.102l1.627 2.277c.065.092.062.212-.008.301l-1.568 1.987c-.48.609-.501 1.472-.051 2.103l2.063 2.889c.073.102.168.18.273.233.105.054.221.08.339.08.075 0 .15-.011.224-.034.073-.024.145-.058.211-.106.084-.06.151-.134.203-.217.051-.083.084-.175.1-.27s.013-.192-.008-.287"/></g></svg>