<?xml version="1.0" encoding="utf-8"?>
<!-- Generator: Adobe Illustrator 24.3.0, SVG Export Plug-In . SVG Version: 6.00 Build 0)  -->
<svg version="1.1" id="图层_1" xmlns="http://www.w3.org/2000/svg" xmlns:xlink="http://www.w3.org/1999/xlink" x="0px" y="0px"
	 viewBox="0 0 24 24" style="enable-background:new 0 0 24 24;" xml:space="preserve">
<style type="text/css">
	.st0{fill-rule:evenodd;clip-rule:evenodd;}
</style>
<g>
	<path id="_path-1_1_" class="st0" d="M21.3,11.2c1.4,0,2.5,1.1,2.5,2.5v5.8c0,1.4-1.1,2.5-2.5,2.5h-5.8c-1.4,0-2.5-1.1-2.5-2.5
		v-5.8c0-1.4,1.1-2.5,2.5-2.5H21.3z M15.5,13.3L15.5,13.3c-0.6,0.3-0.7,1-0.5,1.6l1.1,1.9l-0.3,0.5l0,0c-0.2,0.5-0.1,1.1,0.2,1.5
		l0,0l1.3,1.2l0,0c0.4,0.4,1.1,0.5,1.7,0.2l2.5-1.4l0,0c0.6-0.3,0.8-1,0.6-1.7l0,0L21.5,15l0,0c0,0,0-0.1-0.1-0.1l0,0
		c-0.4-0.6-1.2-0.8-1.8-0.5l-1.7,0.9l-0.8-1.5C16.8,13.2,16.1,13,15.5,13.3z M17.3,2.5c1.3,0,1.9,0.1,2.5,0.5
		c0.6,0.3,1.1,0.8,1.4,1.4c0.3,0.6,0.5,1.2,0.5,2.2l0,0.3l0,0.2l0,3.2c-0.1,0-0.3,0-0.5,0h-1V7.1c0-1.1-0.1-1.5-0.3-2
		c-0.2-0.4-0.5-0.6-0.8-0.8c-0.4-0.2-0.9-0.3-2-0.3L5.7,4c-1,0-1.4,0.1-1.9,0.3C3.5,4.5,3.3,4.8,3.1,5.1C2.8,5.5,2.8,5.9,2.8,6.9
		l0,0.2l0,8.4c0,1,0.1,1.4,0.3,1.9c0.2,0.4,0.5,0.6,0.8,0.8c0.4,0.2,0.8,0.3,1.7,0.3l0.2,0H12v1c0,0.2,0,0.3,0,0.5l-6.2,0
		c-1.3,0-2-0.1-2.7-0.5c-0.6-0.3-1.1-0.8-1.4-1.4c-0.3-0.6-0.5-1.2-0.5-2.2l0-0.3l0-0.2l0-8.4c0-1.3,0.1-1.9,0.5-2.5
		C2.1,3.8,2.6,3.3,3.2,3c0.6-0.3,1.2-0.5,2.4-0.5l0.3,0L17.3,2.5z M16.3,14.2l0.9,1.6c0.2,0.3,0.6,0.4,0.9,0.3l1.8-1
		c0.3-0.1,0.6-0.1,0.7,0.2l0,0l0.7,2.2l0,0c0.1,0.2,0,0.5-0.2,0.6l-2.5,1.4c-0.2,0.1-0.4,0.1-0.6-0.1l0,0l-1.3-1.2l0,0
		c-0.1-0.1-0.1-0.3-0.1-0.5l0,0l0.3-0.6c0.1-0.2,0.1-0.4,0-0.6l-1.1-2c-0.1-0.1,0-0.3,0.1-0.4C16.1,14,16.3,14.1,16.3,14.2z
		 M11.8,6.2c0.4,0,0.8,0.3,0.8,0.8v2.3l2.2-2.2c0.3-0.3,0.8-0.3,1.1,0c0.3,0.3,0.3,0.8,0,1.1l-2.3,2.3l0.8,0
		C12.9,11,12,12.3,12,13.7l0,2.5c-0.1,0-0.2,0-0.3,0c-0.4,0-0.8-0.3-0.8-0.7v-2.6l-2.5,2.5c-0.3,0.3-0.8,0.3-1.1,0
		c-0.3-0.3-0.3-0.8,0-1.1L9.8,12H6.5c-0.4,0-0.8-0.3-0.8-0.8s0.3-0.8,0.8-0.8h3.3L7.5,8.2c-0.3-0.3-0.3-0.7-0.1-1l0.1-0.1
		c0.3-0.3,0.7-0.3,1-0.1l0.1,0.1L11,9.6V7C11,6.6,11.3,6.2,11.8,6.2z"/>
</g>
</svg>
