<?xml version="1.0" encoding="utf-8"?>
<!-- Generator: Adobe Illustrator 24.3.0, SVG Export Plug-In . SVG Version: 6.00 Build 0)  -->
<svg version="1.1" id="图层_1" xmlns="http://www.w3.org/2000/svg" xmlns:xlink="http://www.w3.org/1999/xlink" x="0px" y="0px"
	 viewBox="0 0 24 24" style="enable-background:new 0 0 24 24;" xml:space="preserve">
<style type="text/css">
	.st0{fill-rule:evenodd;clip-rule:evenodd;}
</style>
<g>
	<path id="_path-1_1_" class="st0" d="M10.9,4c0.6-0.6,1.6-0.6,2.2,0l0,0l7.5,7.8c0.2,0.2,0.3,0.4,0.3,0.7c0,0.6-0.5,1-1,1l0,0h-3.4
		l0,5.9c0,0.7-0.5,1.2-1.2,1.3l0,0l-0.1,0H8.8c-0.7,0-1.3-0.6-1.3-1.3l0,0l0-5.9H4.1c-0.2,0-0.4-0.1-0.6-0.2l0,0l-0.1-0.1
		c-0.4-0.4-0.4-1,0-1.4l0,0L10.9,4z"/>
</g>
</svg>
