<?xml version="1.0" encoding="utf-8"?>
<!-- Generator: Adobe Illustrator 24.3.0, SVG Export Plug-In . SVG Version: 6.00 Build 0)  -->
<svg version="1.1" id="图层_1" xmlns="http://www.w3.org/2000/svg" xmlns:xlink="http://www.w3.org/1999/xlink" x="0px" y="0px"
	 viewBox="0 0 24 24" style="enable-background:new 0 0 24 24;" xml:space="preserve">
<style type="text/css">
	.st0{fill-rule:evenodd;clip-rule:evenodd;}
</style>
<g>
	<path id="_path-1_1_" class="st0" d="M7.1,1.2l10,0c1.5,0,2.3,0.2,3.1,0.6c0.8,0.4,1.4,1,1.8,1.8c0.5,0.9,0.6,1.7,0.6,3.4l0,0v9.7
		c0,1.7-0.2,2.6-0.6,3.4c-0.4,0.8-1,1.4-1.8,1.8c-0.9,0.5-1.7,0.6-3.4,0.6l0,0H7.1c-1.7,0-2.6-0.2-3.4-0.6c-0.8-0.4-1.4-1-1.8-1.8
		c-0.5-0.9-0.6-1.7-0.6-3.4l0,0l0-10c0-1.5,0.2-2.3,0.6-3.1c0.4-0.8,1-1.4,1.8-1.8C4.6,1.4,5.4,1.2,7.1,1.2L7.1,1.2z M17,2.8l-0.2,0
		l-10,0c-0.1,0-0.2,0-0.2,0l0,0l-0.4,0c-0.9,0-1.3,0.2-1.8,0.4C3.9,3.5,3.5,3.9,3.2,4.4C2.9,4.9,2.8,5.3,2.8,6.2l0,0l0,0.4
		c0,0.2,0,0.3,0,0.5v9.7l0,0.5l0,0.4c0,0.9,0.2,1.3,0.4,1.8c0.3,0.5,0.7,0.9,1.2,1.2c0.5,0.3,0.9,0.4,1.8,0.4l0,0l0.4,0l0.5,0h9.7
		l0.5,0l0.4,0c0.9,0,1.3-0.2,1.8-0.4c0.5-0.3,0.9-0.7,1.2-1.2c0.3-0.5,0.4-0.9,0.4-1.8l0,0l0-0.4l0-0.5V7.1l0-0.5l0-0.4
		c0-0.9-0.2-1.3-0.4-1.8c-0.3-0.5-0.7-0.9-1.2-1.2c-0.5-0.3-0.9-0.4-1.8-0.4l0,0l-0.4,0c-0.2,0-0.3,0-0.5,0L17,2.8z M10.7,11.9
		l0.6,0.5L11,12.5c-0.2,0.1-0.5,0.3-0.8,0.4l0,0l2.3-0.1l0.5-0.3c0.3-0.2,0.7-0.4,1-0.6l0,0l0.6,0.7l-0.2,0.1
		c-0.4,0.2-0.9,0.4-1.5,0.7c-0.7,0.3-1.4,0.6-2,0.8l0,0l3.6-0.2l-0.7-0.5l0.6-0.5l0.1,0.1c0.5,0.3,1.2,0.9,2.2,1.5l0,0l-0.5,0.6
		l-0.7-0.5l-0.3,0c-1.2,0-2.1,0.1-2.6,0.1l0,0v1l0,0.2c0,0.4-0.1,0.6-0.3,0.8c-0.2,0.2-0.5,0.3-1,0.3c-0.3,0-0.7,0-1.1-0.1l0,0
		l-0.2-0.9l0.2,0c0.3,0,0.5,0.1,0.7,0.1c0.2,0,0.3-0.1,0.4-0.2c0.1-0.1,0.1-0.3,0.1-0.5l0,0V15l-0.4,0c-0.8,0-1.6,0.1-2.5,0.1l0,0
		l-1,0.1l-0.2-0.8l0.2,0c0.4,0,0.7,0,1-0.1c0.7-0.2,1.5-0.4,2.4-0.8c-0.5,0-1.3,0.1-2.1,0.1l0,0l-0.7,0.1L8.1,13l0.2,0
		c0.3,0,0.5-0.1,0.7-0.1c0.3-0.1,0.5-0.2,0.8-0.4S10.3,12.2,10.7,11.9L10.7,11.9z M9.9,15.1l0.4,0.8L10,16c-0.8,0.4-1.7,0.7-2.8,1.1
		l0,0l-0.4-0.8l0.5-0.2c0.4-0.1,0.7-0.3,1.1-0.4C9.1,15.5,9.5,15.3,9.9,15.1L9.9,15.1z M13.9,15l3.3,1.3l-0.3,0.8
		c-1.2-0.5-2.3-0.9-3.3-1.3l0,0L13.9,15z M13.6,6.9l0.9,0.2l-0.1,0.2c-0.1,0.3-0.2,0.5-0.3,0.6l0,0H17v0.8h-0.6L16.3,9
		c-0.1,0.3-0.2,0.6-0.4,0.8c-0.2,0.3-0.4,0.6-0.7,0.9c0.5,0.4,1.2,0.7,1.9,1l0,0l-0.4,0.8c-0.9-0.4-1.6-0.8-2.2-1.2
		c-0.5,0.4-1.1,0.7-1.7,1l0,0l-0.5-0.7l0.3-0.1c0.5-0.2,1-0.5,1.3-0.7c-0.4-0.4-0.6-0.8-0.8-1.3c-0.1,0.1-0.3,0.3-0.5,0.5l0,0
		l-0.4-0.8l0.2-0.2C12.9,8.3,13.3,7.6,13.6,6.9L13.6,6.9z M8.5,6.8l0.8,0.2L9,7.5h3.5v0.7h-4L8.1,8.7H12l0,0.2c0,0.4,0,0.8-0.1,1
		l0,0h1v0.6h-1l-0.1,0.7h0.4v0.6h-0.5l0,0.2h-0.8l0-0.1c0-0.1,0-0.1,0-0.1l0,0H7.4l0.2-1.3H6.9V9.9h0.8L7.9,9L7.6,9.3L6.9,8.8
		l0.2-0.2c0.2-0.2,0.4-0.5,0.6-0.7C8.1,7.5,8.3,7.2,8.5,6.8L8.5,6.8z M9.3,10.5H8.5l-0.1,0.8H10l-0.8-0.5L9.3,10.5z M11.1,10.5H9.7
		l0.1,0.1c0.3,0.2,0.5,0.3,0.6,0.4l0,0l-0.2,0.3H11L11.1,10.5z M15.4,8.7h-1.8l0.1,0.2c0.2,0.5,0.5,0.9,0.8,1.2
		C14.9,9.7,15.2,9.2,15.4,8.7L15.4,8.7z M9.4,9.3H8.7L8.6,10h1.5L9.3,9.5L9.4,9.3z M11.2,9.3H9.9l0.1,0c0.1,0.1,0.2,0.1,0.2,0.1
		l0.1,0.1c0.1,0.1,0.2,0.1,0.3,0.2l0,0L10.4,10h0.8L11.2,9.3z"/>
</g>
</svg>
