<?xml version="1.0" encoding="utf-8"?>
<!-- Generator: Adobe Illustrator 24.3.0, SVG Export Plug-In . SVG Version: 6.00 Build 0)  -->
<svg version="1.1" id="图层_1" xmlns="http://www.w3.org/2000/svg" xmlns:xlink="http://www.w3.org/1999/xlink" x="0px" y="0px"
	 viewBox="0 0 24 24" style="enable-background:new 0 0 24 24;" xml:space="preserve">
<style type="text/css">
	.st0{fill-rule:evenodd;clip-rule:evenodd;}
</style>
<g>
	<path id="_path-1_1_" class="st0" d="M18,11c3,0,5.5,2.5,5.5,5.5S21,22,18,22s-5.5-2.5-5.5-5.5S15,11,18,11z M18.5,17l0,3.2
		c0.7-0.4,1.3-1.6,1.4-3.2L18.5,17z M17.5,17l-1.2,0c0.1,1.5,0.6,2.6,1.2,3.1L17.5,17z M16.1,20l-0.1-0.1c-0.4-0.8-0.7-1.8-0.8-2.9
		L14,17C14.2,18.3,15,19.4,16.1,20z M17.3,2.5c1.3,0,1.9,0.1,2.5,0.5c0.6,0.3,1.1,0.8,1.4,1.4c0.3,0.6,0.5,1.2,0.5,2.2l0,0.3l0,0.2
		l0,4.1c-0.5-0.3-1-0.6-1.5-0.8l0-3.4c0-1.1-0.1-1.5-0.3-2c-0.2-0.4-0.5-0.6-0.8-0.8c-0.4-0.2-0.9-0.3-2-0.3L5.7,4
		c-1,0-1.4,0.1-1.9,0.3C3.5,4.5,3.3,4.8,3.1,5.1C2.8,5.5,2.8,5.9,2.8,6.9l0,0.2v8.3c0,1.1,0.1,1.5,0.3,2c0.2,0.4,0.5,0.6,0.8,0.8
		c0.4,0.2,0.8,0.3,1.7,0.3l0.2,0l6,0c0.2,0.5,0.4,1,0.7,1.5l-6.7,0c-1.3,0-2-0.1-2.7-0.5c-0.6-0.3-1.1-0.8-1.4-1.4
		c-0.3-0.6-0.5-1.2-0.5-2.2l0-0.3l0-0.2l0-8.4c0-1.3,0.1-1.9,0.5-2.5C2.1,3.8,2.6,3.3,3.2,3c0.6-0.3,1.2-0.5,2.2-0.5l0.3,0l0.2,0
		L17.3,2.5z M22,17l-1.1,0c-0.1,1.1-0.3,2.1-0.7,2.9C21.1,19.2,21.8,18.2,22,17z M20,13L20,13c0.5,0.8,0.8,1.8,0.9,3l1.1,0
		C21.8,14.7,21,13.6,20,13z M16.3,12.9L16.3,12.9c-1.2,0.6-2.1,1.7-2.3,3.1l1.3,0C15.4,14.7,15.8,13.6,16.3,12.9z M17.5,13.1
		c-0.6,0.5-1.1,1.6-1.2,2.9l1.2,0L17.5,13.1z M18.5,13l0,3l1.4,0C19.8,14.5,19.2,13.3,18.5,13z M12.3,13.5c-0.2,0.5-0.4,1-0.6,1.5
		l-5.2,0c-0.4,0-0.8-0.3-0.8-0.8s0.3-0.8,0.8-0.8L12.3,13.5z M8.5,10.7c0.4,0,0.8,0.3,0.8,0.8s-0.3,0.8-0.8,0.8H8
		c-0.4,0-0.8-0.3-0.8-0.8s0.3-0.8,0.8-0.8H8.5z M11.8,10.7c0.4,0,0.8,0.3,0.8,0.8s-0.3,0.8-0.8,0.8h-0.5c-0.4,0-0.8-0.3-0.8-0.8
		s0.3-0.8,0.8-0.8H11.8z M15.1,10.7c-0.5,0.2-0.9,0.5-1.3,0.9c0,0,0-0.1,0-0.1v-0.1c0-0.4,0.3-0.7,0.7-0.7H15.1z M7,8
		c0.4,0,0.8,0.3,0.8,0.8S7.4,9.5,7,9.5H6.5c-0.4,0-0.8-0.3-0.8-0.8S6.1,8,6.5,8H7z M10.2,8C10.7,8,11,8.3,11,8.7s-0.3,0.8-0.8,0.8
		H9.8C9.3,9.5,9,9.2,9,8.7S9.3,8,9.8,8H10.2z M13.5,8c0.4,0,0.8,0.3,0.8,0.8s-0.3,0.8-0.8,0.8H13c-0.4,0-0.8-0.3-0.8-0.8
		S12.6,8,13,8H13.5z M16.8,8c0.4,0,0.8,0.3,0.8,0.8s-0.3,0.8-0.8,0.8h-0.5c-0.4,0-0.8-0.3-0.8-0.8S15.8,8,16.2,8H16.8z"/>
</g>
</svg>
