<?xml version="1.0" encoding="utf-8"?>
<!-- Generator: Adobe Illustrator 24.3.0, SVG Export Plug-In . SVG Version: 6.00 Build 0)  -->
<svg version="1.1" id="图层_1" xmlns="http://www.w3.org/2000/svg" xmlns:xlink="http://www.w3.org/1999/xlink" x="0px" y="0px"
	 viewBox="0 0 24 24" style="enable-background:new 0 0 24 24;" xml:space="preserve">
<style type="text/css">
	.st0{fill-rule:evenodd;clip-rule:evenodd;}
</style>
<path id="_path-1_1_" d="M5.9,10c0.2,0.5,0.5,1,0.9,1.5l-0.7,0c-0.9,0-1.7,0.7-1.7,1.6l0,0.1V19c0,0.9,0.7,1.7,1.6,1.7l0.1,0h11.7
	c0.9,0,1.7-0.7,1.7-1.6l0-0.1v-5.8c0-0.9-0.7-1.7-1.6-1.7l-0.1,0l-0.3,0c0.3-0.4,0.6-0.9,0.9-1.4c1.5,0.3,2.6,1.5,2.7,3l0,0.2V19
	c0,1.7-1.4,3.1-3.1,3.2l-0.2,0H6.1c-1.7,0-3.1-1.4-3.2-3.1l0-0.2v-5.8C2.8,11.5,4.2,10.1,5.9,10z M17.2,17.8c0.4,0,0.8,0.3,0.8,0.8
	c0,0.4-0.3,0.7-0.6,0.7l-0.1,0H6.8c-0.4,0-0.8-0.3-0.8-0.8c0-0.4,0.3-0.7,0.6-0.7l0.1,0H17.2z M8.9,15.4c0.4,0,0.8,0.3,0.8,0.7
	c0,0.4-0.3,0.7-0.6,0.7l-0.1,0H8.3c-0.4,0-0.8-0.3-0.8-0.8c0-0.4,0.3-0.7,0.6-0.7l0.1,0H8.9z M16.1,15.4c0.4,0,0.8,0.3,0.8,0.7
	c0,0.4-0.3,0.7-0.6,0.7l-0.1,0h-0.6c-0.4,0-0.8-0.3-0.8-0.8c0-0.4,0.3-0.7,0.6-0.7l0.1,0H16.1z M12.5,15.4c0.4,0,0.8,0.3,0.8,0.7
	c0,0.4-0.3,0.7-0.6,0.7l-0.1,0h-0.6c-0.4,0-0.8-0.3-0.8-0.8c0-0.4,0.3-0.7,0.6-0.7l0.1,0H12.5z M17.3,13c0.4,0,0.8,0.3,0.8,0.8
	c0,0.4-0.3,0.7-0.6,0.7l-0.1,0h-0.6c-0.4,0-0.8-0.3-0.8-0.8c0-0.4,0.3-0.7,0.6-0.7l0.1,0H17.3z M7.7,13c0.4,0,0.8,0.3,0.8,0.8
	c0,0.4-0.3,0.7-0.6,0.7l-0.1,0H7.1c-0.4,0-0.8-0.3-0.8-0.8c0-0.4,0.3-0.7,0.6-0.7l0.1,0H7.7z M12.1,1.4C15.4,1.4,18,4,18,7.2
	s-2.6,5.8-5.8,5.8s-5.8-2.6-5.8-5.8S8.9,1.4,12.1,1.4z M9,4.1C8.3,4.8,7.9,5.6,8.1,6.3C8.1,6.6,8.4,7,8.9,7.2
	c0.5,0.2,0.5,0.2,0.9,0.4c1,0.4,0.8,0.9,0.7,1.4c0,0.3,0,0.5,0.3,0.8s0.5,0.3,0.5,1c0,0.5,0.1,0.7,0.3,0.7c0.3,0.1,1.1-0.8,1.6-1.9
	c0.4-0.8,0.3-1.3-0.1-1.7c-0.3-0.4-0.8-0.4-1.5-0.6c-0.7-0.1-0.8-0.1-1.4-0.3C9.8,6.9,9.7,6.7,9.8,6.4s0.6-0.5,0.9-0.1
	c0.3,0.4,0.4,0.6,0.6,0.5c0.2-0.1,0.1-0.3,0-0.6c0-0.4,0.5-0.6,0.9-0.7c0.3,0,0.6-0.2,0.6-0.5c0-0.6,0.5-0.6,0.5-1.1
	c0-0.5-0.8-0.7-1.3-0.8C10.9,3,9.8,3.4,9,4.1z M15.2,6.5c-0.1,0.6-0.1,0.9-0.2,1.4c-0.1,0.7,0.2,1,0.4,1c0.4,0.1,0.7-0.5,0.7-1.4
	c0-0.9-0.3-1.7-0.6-1.8C15.4,5.6,15.3,5.9,15.2,6.5z"/>
<g>
	<path id="_path-1_2_" class="st0" d="M5.9,10c0.2,0.5,0.5,1,0.9,1.5l-0.7,0c-0.9,0-1.7,0.7-1.7,1.6l0,0.1V19c0,0.9,0.7,1.7,1.6,1.7
		l0.1,0h11.7c0.9,0,1.7-0.7,1.7-1.6l0-0.1v-5.8c0-0.9-0.7-1.7-1.6-1.7l-0.1,0l-0.3,0c0.3-0.4,0.6-0.9,0.9-1.4c1.5,0.3,2.6,1.5,2.7,3
		l0,0.2V19c0,1.7-1.4,3.1-3.1,3.2l-0.2,0H6.1c-1.7,0-3.1-1.4-3.2-3.1l0-0.2v-5.8C2.8,11.5,4.2,10.1,5.9,10z M17.2,17.8
		c0.4,0,0.8,0.3,0.8,0.8c0,0.4-0.3,0.7-0.6,0.7l-0.1,0H6.8c-0.4,0-0.8-0.3-0.8-0.8c0-0.4,0.3-0.7,0.6-0.7l0.1,0H17.2z M8.9,15.4
		c0.4,0,0.8,0.3,0.8,0.7c0,0.4-0.3,0.7-0.6,0.7l-0.1,0H8.3c-0.4,0-0.8-0.3-0.8-0.8c0-0.4,0.3-0.7,0.6-0.7l0.1,0H8.9z M16.1,15.4
		c0.4,0,0.8,0.3,0.8,0.7c0,0.4-0.3,0.7-0.6,0.7l-0.1,0h-0.6c-0.4,0-0.8-0.3-0.8-0.8c0-0.4,0.3-0.7,0.6-0.7l0.1,0H16.1z M12.5,15.4
		c0.4,0,0.8,0.3,0.8,0.7c0,0.4-0.3,0.7-0.6,0.7l-0.1,0h-0.6c-0.4,0-0.8-0.3-0.8-0.8c0-0.4,0.3-0.7,0.6-0.7l0.1,0H12.5z M17.3,13
		c0.4,0,0.8,0.3,0.8,0.8c0,0.4-0.3,0.7-0.6,0.7l-0.1,0h-0.6c-0.4,0-0.8-0.3-0.8-0.8c0-0.4,0.3-0.7,0.6-0.7l0.1,0H17.3z M7.7,13
		c0.4,0,0.8,0.3,0.8,0.8c0,0.4-0.3,0.7-0.6,0.7l-0.1,0H7.1c-0.4,0-0.8-0.3-0.8-0.8c0-0.4,0.3-0.7,0.6-0.7l0.1,0H7.7z M12.1,1.4
		C15.4,1.4,18,4,18,7.2s-2.6,5.8-5.8,5.8s-5.8-2.6-5.8-5.8S8.9,1.4,12.1,1.4z M9,4.1C8.3,4.8,7.9,5.6,8.1,6.3C8.1,6.6,8.4,7,8.9,7.2
		c0.5,0.2,0.5,0.2,0.9,0.4c1,0.4,0.8,0.9,0.7,1.4c0,0.3,0,0.5,0.3,0.8s0.5,0.3,0.5,1c0,0.5,0.1,0.7,0.3,0.7c0.3,0.1,1.1-0.8,1.6-1.9
		c0.4-0.8,0.3-1.3-0.1-1.7c-0.3-0.4-0.8-0.4-1.5-0.6c-0.7-0.1-0.8-0.1-1.4-0.3C9.8,6.9,9.7,6.7,9.8,6.4s0.6-0.5,0.9-0.1
		c0.3,0.4,0.4,0.6,0.6,0.5c0.2-0.1,0.1-0.3,0-0.6c0-0.4,0.5-0.6,0.9-0.7c0.3,0,0.6-0.2,0.6-0.5c0-0.6,0.5-0.6,0.5-1.1
		c0-0.5-0.8-0.7-1.3-0.8C10.9,3,9.8,3.4,9,4.1z M15.2,6.5c-0.1,0.6-0.1,0.9-0.2,1.4c-0.1,0.7,0.2,1,0.4,1c0.4,0.1,0.7-0.5,0.7-1.4
		c0-0.9-0.3-1.7-0.6-1.8C15.4,5.6,15.3,5.9,15.2,6.5z"/>
</g>
</svg>
