<?xml version="1.0" encoding="utf-8"?>
<!-- Generator: Adobe Illustrator 24.3.0, SVG Export Plug-In . SVG Version: 6.00 Build 0)  -->
<svg version="1.1" id="图层_1" xmlns="http://www.w3.org/2000/svg" xmlns:xlink="http://www.w3.org/1999/xlink" x="0px" y="0px"
	 viewBox="0 0 24 24" style="enable-background:new 0 0 24 24;" xml:space="preserve">
<style type="text/css">
	.st0{fill-rule:evenodd;clip-rule:evenodd;}
</style>
<g id="_ic_celiakeyboard_mechanical">
	<path id="_矩形" d="M15.6,1H8.4C6.6,1,5.8,1.2,4.9,1.6C4.2,2,3.5,2.7,3.1,3.4C2.7,4.2,2.5,5,2.5,6.6l0,10.7
		c0,1.7,0.2,2.6,0.6,3.4c0.4,0.8,1,1.4,1.8,1.8c0.8,0.4,1.6,0.6,3.1,0.6l7.6,0c1.7,0,2.6-0.2,3.4-0.6c0.8-0.4,1.4-1,1.8-1.8
		c0.5-0.9,0.6-1.7,0.6-3.4V6.9c0-1.7-0.2-2.6-0.6-3.4c-0.4-0.8-1-1.4-1.8-1.8C18.2,1.2,17.4,1,15.6,1z M15.6,2.5l0.5,0l0.4,0
		c0.9,0,1.3,0.2,1.8,0.4c0.5,0.3,0.9,0.7,1.2,1.2c0.3,0.5,0.4,0.9,0.4,1.8l0,0.4l0,0.5v10.4l0,0.5l0,0.4c0,0.9-0.2,1.3-0.4,1.8
		c-0.3,0.5-0.7,0.9-1.2,1.2c-0.5,0.3-0.9,0.4-1.8,0.4l-0.4,0l-0.5,0H8.4c-0.2,0-0.3,0-0.5,0l-0.4,0c-0.9,0-1.3-0.2-1.8-0.4
		c-0.5-0.3-0.9-0.7-1.2-1.2C4.2,19.5,4,19,4,18l0-0.5V6.6l0-0.5c0-1,0.2-1.5,0.4-2c0.3-0.5,0.7-0.9,1.2-1.2c0.5-0.3,0.9-0.4,1.8-0.4
		l0.4,0l0.5,0H15.6z"/>
	<path id="_形状结合" class="st0" d="M12.8,12.8l0.1,0.1c0.1,0.1,0.1,0.1,0.2,0.2c0.4,0.4,0.8,0.6,1.2,0.8c0,0.1,0,0.3,0,0.4
		c0,1.1-0.9,1.9-2,1.9s-2-0.9-2-1.9c0-0.1,0-0.1,0-0.2c0.1,0,0.2,0,0.3,0C11.6,14.3,12.4,13.7,12.8,12.8z M12.3,8.1
		c0.3,0,0.6,0.2,0.6,0.6c0,0.1-0.1,0.3-0.2,0.4c0,0,0,0,0,0c0.1,0.1,0.6,1.1,1.5,3c-0.6-1.3-0.9-2.2-1-2.5c1.1,0.1,2,0.8,2.2,2
		c0.2,0.7,0.2,1.7,0,2.8c-0.7-0.1-1.3-0.4-1.9-0.9c-0.1-0.1-0.2-0.2-0.3-0.3c-0.1-0.1-0.1-0.1-0.2-0.2c0,0,0-0.1-0.1-0.1l0,0
		c0,0,0,0,0,0l-0.1-0.1l-0.1,0l0.1,0c0,0,0-0.1-0.1-0.1c0-0.1,0-0.3,0-0.4c0-0.6-0.3-1.2-0.7-1.6l0,0c0-0.2,0.1-0.5,0.2-0.8l0.1-0.2
		l-0.1-0.3c0,0-0.1,0-0.1,0c-0.1,0-0.1,0-0.2,0c-0.3,0.3-0.5,0.7-0.8,1.1c0.7,0.3,1.3,1,1.3,1.8c0,1.1-0.9,1.9-2,1.9s-2-0.9-2-1.9
		s0.9-1.9,2-1.9c0.1,0,0.2,0,0.3,0l0,0.1c0.3-0.5,0.7-1,1-1.4c0-0.1-0.1-0.2-0.1-0.3C11.8,8.3,12,8.1,12.3,8.1z"/>
	<path id="_矩形_1_" d="M15.4,4.2H8.6c-0.9,0-1.3,0.1-1.7,0.3C6.4,4.7,6.1,5,5.9,5.4C5.7,5.8,5.6,6.3,5.6,7.1V17
		c0,0.9,0.1,1.3,0.3,1.7c0.2,0.4,0.5,0.7,0.9,0.9C7.3,19.9,7.7,20,8.6,20h6.9c0.9,0,1.3-0.1,1.7-0.3c0.4-0.2,0.7-0.5,0.9-0.9
		c0.2-0.4,0.3-0.9,0.3-1.7V7.1c0-0.9-0.1-1.3-0.3-1.7c-0.2-0.4-0.5-0.7-0.9-0.9C16.7,4.2,16.3,4.2,15.4,4.2z M8.4,5l7.1,0
		c0.8,0,1,0.1,1.4,0.2c0.3,0.1,0.5,0.3,0.6,0.6c0.1,0.2,0.2,0.5,0.2,1l0,0.4V17l0,0.4c0,0.5-0.1,0.7-0.2,1c-0.1,0.3-0.3,0.5-0.6,0.6
		c-0.2,0.1-0.5,0.2-1,0.2l-0.4,0H8.6l-0.4,0c-0.5,0-0.7-0.1-1-0.2c-0.3-0.1-0.5-0.3-0.6-0.6c-0.1-0.3-0.2-0.5-0.2-1.2l0-10.1
		c0-0.8,0.1-1,0.2-1.4C6.8,5.5,7,5.3,7.2,5.2C7.5,5,7.8,5,8.4,5z"/>
	<rect x="16.8" y="3.7" transform="matrix(0.7293 -0.6841 0.6841 0.7293 2.1096 13.5228)" width="2.8" height="0.8"/>
	<rect x="18" y="18.5" transform="matrix(0.7293 -0.6842 0.6842 0.7293 -8.8356 18.0583)" width="0.8" height="3.3"/>
	<polygon points="4.7,21.5 4.1,21 6.5,18.7 7,19.2 	"/>
	<rect x="5.3" y="2.4" transform="matrix(0.706 -0.7082 0.7082 0.706 -1.1397 5.1842)" width="0.8" height="3.1"/>
</g>
</svg>
