<?xml version="1.0" encoding="UTF-8"?>
<svg xmlns="http://www.w3.org/2000/svg" xmlns:xlink="http://www.w3.org/1999/xlink" width="24" height="24" viewBox="0 0 24 24" version="1.1">
    <title>ic_gallery_aperture</title>
    <defs>
        <path d="M12,1 C18.0751322,1 23,5.92486775 23,12 C23,18.0751322 18.0751322,23 12,23 C5.92486775,23 1,18.0751322 1,12 C1,5.92486775 5.92486775,1 12,1 Z M16.618,13.499 L11.9989986,21.4999999 C11.9993324,21.5 11.9996662,21.5 12,21.5 C14.9217787,21.5 17.5354871,20.1809938 19.2781563,18.1059502 L16.618,13.499 Z M13.009,16.75 L3.77151674,16.7510127 C5.15132375,19.1356093 7.53794353,20.8647862 10.3500633,21.3572307 L13.009,16.75 Z M20.9296332,8.7502646 L15.608,8.75 L20.2279016,16.7520178 C21.0369316,15.3542384 21.5,13.7311969 21.5,12 C21.5,10.858547 21.2986887,9.76411275 20.9296332,8.7502646 Z M2.5,12 C2.5,13.1418284 2.70144377,14.236607 3.07073089,15.2507356 L8.391,15.25 L3.77209843,7.24798218 C2.96306837,8.64576159 2.5,10.2688031 2.5,12 Z M8.247,12 L10.123,15.25 L13.875,15.25 L15.752,11.999 L13.876,8.75 L10.123,8.75 L8.247,12 Z M11.999,2.5 C9.07822127,2.5 6.46451293,3.81900617 4.72184367,5.89404983 L7.381,10.5 L11.999,2.5 Z M13.6499367,2.64276928 L10.989,7.25 L20.2290648,7.24999256 C18.8493469,4.8648767 16.4624516,3.13528299 13.6499367,2.64276928 Z" id="_path-1"/>
    </defs>
    <g id="_ic_gallery_aperture" stroke="none" stroke-width="1" fill="none" fill-rule="evenodd">
        <mask id="_mask-2" fill="white">
            <use xlink:href="#_path-1"/>
        </mask>
        <use id="_形状结合" fill="#000000" fill-rule="nonzero" xlink:href="#_path-1"/>
    </g>
</svg>