<?xml version="1.0" encoding="UTF-8"?>
<svg xmlns="http://www.w3.org/2000/svg" xmlns:xlink="http://www.w3.org/1999/xlink" width="24" height="24" viewBox="0 0 24 24" version="1.1">
    <title>ic_unlock_3d</title>
    <g id="_ic_unlock_3d" stroke="none" stroke-width="1" fill="none" fill-rule="evenodd">
        <path d="M18,2 C20.209139,2 22,3.790861 22,6 L22,18 C22,20.209139 20.209139,22 18,22 L6,22 C3.790861,22 2,20.209139 2,18 L2,6 C2,3.790861 3.790861,2 6,2 L18,2 Z M7.296,6 C6.48533333,6 5.808,6.224 5.264,6.672 C4.7744,7.0752 4.42304,7.63824 4.20992,8.36112 L4.144,8.608 L5.536,9.376 C5.67466667,8.81066667 5.87466667,8.38133333 6.136,8.088 C6.39733333,7.79466667 6.72533333,7.648 7.12,7.648 C7.49333333,7.648 7.784,7.792 7.992,8.08 C8.2,8.368 8.304,8.74133333 8.304,9.2 C8.304,9.744 8.17066667,10.192 7.904,10.544 C7.66696296,10.8568889 7.32457613,11.030716 6.87683951,11.0654815 L6.704,11.072 L6.096,11.072 L6.096,12.608 L6.608,12.608 C7.29066667,12.608 7.80533333,12.7813333 8.152,13.128 C8.49866667,13.4746667 8.672,13.9733333 8.672,14.624 C8.672,15.1893333 8.544,15.6373333 8.288,15.968 C8.032,16.2986667 7.68533333,16.464 7.248,16.464 C6.82133333,16.464 6.448,16.32 6.128,16.032 C5.848,15.78 5.6415,15.4218333 5.5085,14.9575 L5.456,14.752 L4,15.568 C4.192,16.4106667 4.57866667,17.0453333 5.16,17.472 C5.74133333,17.8986667 6.448,18.112 7.28,18.112 C8.29333333,18.112 9.096,17.8 9.688,17.176 C10.28,16.552 10.576,15.7226667 10.576,14.688 C10.576,13.952 10.4213333,13.3306667 10.112,12.824 C9.80266667,12.3173333 9.35466667,11.952 8.768,11.728 C9.248,11.472 9.61066667,11.112 9.856,10.648 C10.1013333,10.184 10.224,9.648 10.224,9.04 C10.224,8.15466667 9.97066667,7.42666667 9.464,6.856 C8.95733333,6.28533333 8.23466667,6 7.296,6 Z M15.407793,6.208 L12.255793,6.208 L12.255793,17.92 L15.407793,17.92 C16.3891263,17.92 17.239793,17.6906667 17.959793,17.232 C18.679793,16.7733333 19.2344596,16.104 19.623793,15.224 C20.0131263,14.344 20.207793,13.2853333 20.207793,12.048 C20.207793,10.8213333 20.0131263,9.77066667 19.623793,8.896 C19.2344596,8.02133333 18.6771263,7.35466667 17.951793,6.896 C17.298993,6.4832 16.546833,6.25616 15.695313,6.21488 L15.407793,6.208 Z M15.135793,7.776 C16.1811263,7.776 16.967793,8.14133333 17.495793,8.872 C18.023793,9.60266667 18.287793,10.6613333 18.287793,12.048 C18.287793,13.456 18.0264596,14.5226667 17.503793,15.248 C16.9811263,15.9733333 16.191793,16.336 15.135793,16.336 L14.079793,16.336 L14.079793,7.776 L15.135793,7.776 Z" id="_形状结合" fill="#000000"/>
    </g>
</svg>