<?xml version="1.0" encoding="UTF-8"?>
<svg xmlns="http://www.w3.org/2000/svg" xmlns:xlink="http://www.w3.org/1999/xlink" width="24" height="24" viewBox="0 0 24 24" version="1.1">
    <title>ic_gallery_album_damage_video</title>
    <g id="_ic_gallery_album_damage_video" stroke="none" stroke-width="1" fill="none" fill-rule="evenodd">
        <path d="M19,3 C21.209139,3 23,4.790861 23,7 L23,17 C23,19.209139 21.209139,21 19,21 L5,21 C2.790861,21 1,19.209139 1,17 L1,7 C1,4.790861 2.790861,3 5,3 L19,3 Z M2.5,17 C2.5,18.3254834 3.53153594,19.4100387 4.83562431,19.4946823 L5,19.5 C5.27614237,19.5 5.5,19.2761424 5.5,19 L5.5,16.1 C5.5,15.7686292 5.23137085,15.5 4.9,15.5 L3.1,15.5 C2.76862915,15.5 2.5,15.7686292 2.5,16.1 L2.5,17 L2.5,17 Z M17,4.5 L7,4.5 L7,19.5 L17,19.5 L17,4.5 Z M20.9,15.5 L19.1,15.5 C18.7686292,15.5 18.5,15.7686292 18.5,16.1 L18.5,19 C18.5,19.2761424 18.7238576,19.5 19,19.5 L19,19.5 L19,19.5 C20.3254834,19.5 21.4100387,18.4684641 21.4946823,17.1643757 L21.5,17 L21.5,16.1 C21.5,15.7686292 21.2313708,15.5 20.9,15.5 Z M10.6,9.84115427 C10.705322,9.84115427 10.8087885,9.86887803 10.9,9.92153903 L13.6,11.4803848 C13.8869756,11.6460702 13.9853007,12.0130244 13.8196152,12.3 C13.7669542,12.3912115 13.6912115,12.4669542 13.6,12.5196152 L10.9,14.078461 C10.6130244,14.2441464 10.2460702,14.1458213 10.0803848,13.8588457 C10.0277238,13.7676342 10,13.6641677 10,13.5588457 L10,10.4411543 C10,10.1097834 10.2686292,9.84115427 10.6,9.84115427 Z M21.5,13.4 L21.5,10.6 C21.5,10.2686292 21.2313708,10 20.9,10 L19.1,10 C18.7686292,10 18.5,10.2686292 18.5,10.6 L18.5,13.4 C18.5,13.7313708 18.7686292,14 19.1,14 L20.9,14 C21.2313708,14 21.5,13.7313708 21.5,13.4 Z M3.1,14 L4.9,14 C5.23137085,14 5.5,13.7313708 5.5,13.4 L5.5,10.6 C5.5,10.2686292 5.23137085,10 4.9,10 L3.1,10 C2.76862915,10 2.5,10.2686292 2.5,10.6 L2.5,13.4 C2.5,13.7313708 2.76862915,14 3.1,14 Z M19.1643757,4.50531768 L19,4.5 C18.7238576,4.5 18.5,4.72385763 18.5,5 L18.5,7.9 C18.5,8.23137085 18.7686292,8.5 19.1,8.5 L20.9,8.5 C21.2313708,8.5 21.5,8.23137085 21.5,7.9 L21.5,7 L21.5,7 C21.5,5.6745166 20.4684641,4.58996133 19.1643757,4.50531768 Z M5,4.5 L5,4.5 L5,4.5 C3.6745166,4.5 2.58996133,5.53153594 2.50531768,6.83562431 L2.5,7 L2.5,7.9 C2.5,8.23137085 2.76862915,8.5 3.1,8.5 L4.9,8.5 C5.23137085,8.5 5.5,8.23137085 5.5,7.9 L5.5,5 C5.5,4.72385763 5.27614237,4.5 5,4.5 Z" id="_形状" fill="#000000" fill-rule="nonzero"/>
    </g>
</svg>