<?xml version="1.0" encoding="UTF-8"?>
<svg xmlns="http://www.w3.org/2000/svg" xmlns:xlink="http://www.w3.org/1999/xlink" width="24" height="24" viewBox="0 0 24 24" version="1.1">
    <title>ic_gallery_frame_overlay_burst</title>
    <g id="_ic_gallery_frame_overlay_burst" stroke="none" stroke-width="1" fill="none" fill-rule="evenodd">
        <path d="M13.1421175,7.02049125 C14.4793956,7.02049125 14.9643249,7.15972966 15.4532138,7.4211903 C15.9421027,7.68265094 16.3257856,8.0663338 16.5872462,8.55522269 C16.8487069,9.04411158 16.9879453,9.52904094 16.9879453,10.866319 L16.9879453,18.1626087 C16.9879453,19.4998868 16.8487069,19.9848162 16.5872462,20.4737051 C16.3257856,20.962594 15.9421027,21.3462768 15.4532138,21.6077375 C14.9643249,21.8691981 14.4793956,22.0084365 13.1421175,22.0084365 L5.8458278,22.0084365 C4.50854969,22.0084365 4.02362033,21.8691981 3.53473144,21.6077375 C3.04584256,21.3462768 2.66215969,20.962594 2.40069906,20.4737051 C2.13923842,19.9848162 2,19.4998868 2,18.1626087 L2,10.866319 C2,9.52904094 2.13923842,9.04411158 2.40069906,8.55522269 C2.66215969,8.0663338 3.04584256,7.68265094 3.53473144,7.4211903 C4.02362033,7.15972966 4.50854969,7.02049125 5.8458278,7.02049125 L13.1421175,7.02049125 Z M14.3722296,4.51898054 C16.1552671,4.51898054 16.8018396,4.70463177 17.4536914,5.05324595 C18.1055433,5.40186014 18.6171204,5.91343729 18.9657346,6.56528914 C19.3143488,7.21714099 19.5,7.86371346 19.5,9.64675094 L19.5,15.6731527 C19.5,17.0104309 19.3607616,17.4953602 19.0993009,17.9842491 C18.844083,18.4614651 18.4724097,18.8384389 18.0001071,19.0993445 L18,10.1022163 C18,8.67578634 17.851479,8.15852836 17.5725877,7.63704687 C17.2936963,7.11556539 16.8844346,6.70630367 16.3629531,6.42741233 C15.8740642,6.16595169 15.3888874,6.01907438 14.1548079,6.00173605 L13.8977837,6 L4.932,5.99998054 L5.00444273,5.87534342 C5.25972425,5.47081211 5.60695367,5.14845766 6.03473144,4.9196796 C6.52362033,4.65821896 7.00854969,4.51898054 8.3458278,4.51898054 L14.3722296,4.51898054 Z M15.869661,2 C17.7632091,2 18.6272994,2.23206403 19.4421143,2.66783176 C20.2569291,3.10359949 20.8964005,3.74307093 21.3321682,4.55788574 C21.767936,5.37270056 22,6.23679095 22,8.13033902 L22,12.4159119 C22,13.7531901 21.8607616,14.2381194 21.5993009,14.7270083 C21.344083,15.2042243 20.9724097,15.5811981 20.5001071,15.8421037 L20.5,8.90313946 C20.5,7.03095011 20.3050662,6.35204901 19.9390213,5.66760457 C19.5729764,4.98316012 19.0358204,4.44600412 18.351376,4.07995922 C17.7029549,3.73317985 17.0595091,3.53997388 15.4017082,3.52059702 L15.1158411,3.51898054 L8.3458278,3.51898054 L8.24408262,3.5192579 L8.24408262,3.5192579 L8.146,3.52 L8.24270298,3.35636288 C8.49798451,2.95183156 8.84521392,2.62947711 9.2729917,2.40069906 C9.76188059,2.13923842 10.2468099,2 11.5840881,2 L15.869661,2 Z" id="_形状结合" fill="#000000"/>
    </g>
</svg>