<?xml version="1.0" encoding="UTF-8"?>
<svg xmlns="http://www.w3.org/2000/svg" xmlns:xlink="http://www.w3.org/1999/xlink" width="24" height="24" viewBox="0 0 24 24" version="1.1">
    <title>fov_to_org</title>
    <g id="_fov_to_org" stroke="none" stroke-width="1" fill="none" fill-rule="evenodd">
        <path d="M5.75,14.25 C6.16421356,14.25 6.5,14.5857864 6.5,15 L6.5,14.999 L6.5,16 C6.5,16.7796961 7.09488808,17.4204487 7.85553999,17.4931334 L8,17.5 L9,17.5 C9.41421356,17.5 9.75,17.8357864 9.75,18.25 C9.75,18.6642136 9.41421356,19 9,19 L9,19 L8,19 C6.34314575,19 5,17.6568542 5,16 L5,14.999 L5.00684662,14.8982294 C5.05650904,14.5321539 5.37030423,14.25 5.75,14.25 Z" id="_形状结合" fill="#000000" fill-rule="nonzero"/>
        <path d="M18.25,14.25 C18.6642136,14.25 19,14.5857864 19,15 L19,14.999 L19,16 C19,17.6568542 17.6568542,19 16,19 L15,19 L14.8982294,18.9931534 C14.5321539,18.943491 14.25,18.6296958 14.25,18.25 C14.25,17.8357864 14.5857864,17.5 15,17.5 L15,17.5 L16,17.5 C16.7796961,17.5 17.4204487,16.9051119 17.4931334,16.14446 L17.5,16 L17.5,14.999 L17.5068466,14.8982294 C17.556509,14.5321539 17.8703042,14.25 18.25,14.25 Z" id="_形状结合" fill="#000000" fill-rule="nonzero"/>
        <path d="M6.5,9 C6.5,9.41421356 6.16421356,9.75 5.75,9.75 C5.33578644,9.75 5,9.41421356 5,9 L5,9 L5,8 C5,6.34314575 6.34314575,5 8,5 L9,5 C9.41421356,5 9.75,5.33578644 9.75,5.75 C9.75,6.16421356 9.41421356,6.5 9,6.5 C8.99492385,6.5 8.98985949,6.49994957 8.98480737,6.49984919 L8,6.5 C7.22030388,6.5 6.57955132,7.09488808 6.50686658,7.85553999 L6.5,8 Z" id="_形状结合" fill="#000000" fill-rule="nonzero"/>
        <path d="M19,9 C19,9.41421356 18.6642136,9.75 18.25,9.75 C17.8357864,9.75 17.5,9.41421356 17.5,9 L17.5,9 L17.5,8 C17.5,7.22030388 16.9051119,6.57955132 16.14446,6.50686658 L16,6.5 L15.014,6.499 L15,6.5 C14.6203042,6.5 14.306509,6.21784612 14.2568466,5.85177056 L14.25,5.75 C14.25,5.33578644 14.5857864,5 15,5 L15,5 L16,5 C17.6568542,5 19,6.34314575 19,8 Z" id="_形状结合" fill="#000000" fill-rule="nonzero"/>
        <path d="M12,9.9 C12.0414214,9.9 12.0769607,9.92518398 12.0921415,9.96107549 L12.1,10 L12.1,10 L12.1011092,10.0003945 C12.3334755,11.0337507 12.9663552,11.6665934 13.9997482,11.8989229 L14,11.9 C14.0552285,11.9 14.1,11.9447715 14.1,12 C14.1,12.0414214 14.074816,12.0769607 14.0389245,12.0921415 L14,12.1 L13.9997482,12.1010771 C12.9663076,12.3334173 12.3334173,12.9663076 12.1010771,13.9997482 L12.1,14 C12.1,14.0552285 12.0552285,14.1 12,14.1 C11.9585786,14.1 11.9230393,14.074816 11.9078585,14.0389245 L11.9,14 L11.8989229,13.9997482 C11.6665934,12.9663552 11.0337507,12.3334755 10.0003945,12.1011092 L10,12.1 L10,12.1 C9.94477153,12.1 9.9,12.0552285 9.9,12 C9.9,11.9585786 9.92518398,11.9230393 9.96107549,11.9078585 L10,11.9 L10,11.9 L10.0003945,11.8988908 C11.0337031,11.6665352 11.6665352,11.0337031 11.8988908,10.0003945 L11.9,10 L11.9,10 C11.9,9.94477153 11.9447715,9.9 12,9.9 Z" id="_形状结合" fill="#000000"/>
        <path d="M13.5,21 C13.7761424,21 14,21.2238576 14,21.5 C14,21.7761424 13.7761424,22 13.5,22 C13.2238576,22 13,21.7761424 13,21.5 C13,21.2238576 13.2238576,21 13.5,21 Z M16.5,21 C16.7761424,21 17,21.2238576 17,21.5 C17,21.7761424 16.7761424,22 16.5,22 C16.2238576,22 16,21.7761424 16,21.5 C16,21.2238576 16.2238576,21 16.5,21 Z M10.5,21 C10.7761424,21 11,21.2238576 11,21.5 C11,21.7761424 10.7761424,22 10.5,22 C10.2238576,22 10,21.7761424 10,21.5 C10,21.2238576 10.2238576,21 10.5,21 Z M7.5,21 C7.77614237,21 8,21.2238576 8,21.5 C8,21.7761424 7.77614237,22 7.5,22 C7.22385763,22 7,21.7761424 7,21.5 C7,21.2238576 7.22385763,21 7.5,21 Z M19.5,20.5 C19.7761424,20.5 20,20.7238576 20,21 C20,21.2761424 19.7761424,21.5 19.5,21.5 C19.2238576,21.5 19,21.2761424 19,21 C19,20.7238576 19.2238576,20.5 19.5,20.5 Z M4.5,20.5 C4.77614237,20.5 5,20.7238576 5,21 C5,21.2761424 4.77614237,21.5 4.5,21.5 C4.22385763,21.5 4,21.2761424 4,21 C4,20.7238576 4.22385763,20.5 4.5,20.5 Z M21,19 C21.2761424,19 21.5,19.2238576 21.5,19.5 C21.5,19.7761424 21.2761424,20 21,20 C20.7238576,20 20.5,19.7761424 20.5,19.5 C20.5,19.2238576 20.7238576,19 21,19 Z M3,19 C3.27614237,19 3.5,19.2238576 3.5,19.5 C3.5,19.7761424 3.27614237,20 3,20 C2.72385763,20 2.5,19.7761424 2.5,19.5 C2.5,19.2238576 2.72385763,19 3,19 Z M21.5,16 C21.7761424,16 22,16.2238576 22,16.5 C22,16.7761424 21.7761424,17 21.5,17 C21.2238576,17 21,16.7761424 21,16.5 C21,16.2238576 21.2238576,16 21.5,16 Z M2.5,16 C2.77614237,16 3,16.2238576 3,16.5 C3,16.7761424 2.77614237,17 2.5,17 C2.22385763,17 2,16.7761424 2,16.5 C2,16.2238576 2.22385763,16 2.5,16 Z M21.5,13 C21.7761424,13 22,13.2238576 22,13.5 C22,13.7761424 21.7761424,14 21.5,14 C21.2238576,14 21,13.7761424 21,13.5 C21,13.2238576 21.2238576,13 21.5,13 Z M2.5,13 C2.77614237,13 3,13.2238576 3,13.5 C3,13.7761424 2.77614237,14 2.5,14 C2.22385763,14 2,13.7761424 2,13.5 C2,13.2238576 2.22385763,13 2.5,13 Z M21.5,10 C21.7761424,10 22,10.2238576 22,10.5 C22,10.7761424 21.7761424,11 21.5,11 C21.2238576,11 21,10.7761424 21,10.5 C21,10.2238576 21.2238576,10 21.5,10 Z M2.5,10 C2.77614237,10 3,10.2238576 3,10.5 C3,10.7761424 2.77614237,11 2.5,11 C2.22385763,11 2,10.7761424 2,10.5 C2,10.2238576 2.22385763,10 2.5,10 Z M21.5,7 C21.7761424,7 22,7.22385763 22,7.5 C22,7.77614237 21.7761424,8 21.5,8 C21.2238576,8 21,7.77614237 21,7.5 C21,7.22385763 21.2238576,7 21.5,7 Z M2.5,7 C2.77614237,7 3,7.22385763 3,7.5 C3,7.77614237 2.77614237,8 2.5,8 C2.22385763,8 2,7.77614237 2,7.5 C2,7.22385763 2.22385763,7 2.5,7 Z M21,4 C21.2761424,4 21.5,4.22385763 21.5,4.5 C21.5,4.77614237 21.2761424,5 21,5 C20.7238576,5 20.5,4.77614237 20.5,4.5 C20.5,4.22385763 20.7238576,4 21,4 Z M3,4 C3.27614237,4 3.5,4.22385763 3.5,4.5 C3.5,4.77614237 3.27614237,5 3,5 C2.72385763,5 2.5,4.77614237 2.5,4.5 C2.5,4.22385763 2.72385763,4 3,4 Z M19.5,2.5 C19.7761424,2.5 20,2.72385763 20,3 C20,3.27614237 19.7761424,3.5 19.5,3.5 C19.2238576,3.5 19,3.27614237 19,3 C19,2.72385763 19.2238576,2.5 19.5,2.5 Z M4.5,2.5 C4.77614237,2.5 5,2.72385763 5,3 C5,3.27614237 4.77614237,3.5 4.5,3.5 C4.22385763,3.5 4,3.27614237 4,3 C4,2.72385763 4.22385763,2.5 4.5,2.5 Z M13.5,2 C13.7761424,2 14,2.22385763 14,2.5 C14,2.77614237 13.7761424,3 13.5,3 C13.2238576,3 13,2.77614237 13,2.5 C13,2.22385763 13.2238576,2 13.5,2 Z M16.5,2 C16.7761424,2 17,2.22385763 17,2.5 C17,2.77614237 16.7761424,3 16.5,3 C16.2238576,3 16,2.77614237 16,2.5 C16,2.22385763 16.2238576,2 16.5,2 Z M10.5,2 C10.7761424,2 11,2.22385763 11,2.5 C11,2.77614237 10.7761424,3 10.5,3 C10.2238576,3 10,2.77614237 10,2.5 C10,2.22385763 10.2238576,2 10.5,2 Z M7.5,2 C7.77614237,2 8,2.22385763 8,2.5 C8,2.77614237 7.77614237,3 7.5,3 C7.22385763,3 7,2.77614237 7,2.5 C7,2.22385763 7.22385763,2 7.5,2 Z" id="_形状结合" fill="#000000"/>
    </g>
</svg>