<?xml version="1.0" encoding="UTF-8"?>
<svg xmlns="http://www.w3.org/2000/svg" xmlns:xlink="http://www.w3.org/1999/xlink" width="24" height="24" viewBox="0 0 24 24" version="1.1">
    <title>ic_gallery_album_compose</title>
    <defs>
        <path d="M18,2 C20.209139,2 22,3.790861 22,6 L22,14 C22,16.1421954 20.3160315,17.8910789 18.1996403,17.9951047 L18,18 C18,20.209139 16.209139,22 14,22 L6,22 C3.790861,22 2,20.209139 2,18 L2,10 C2,7.790861 3.790861,6 6,6 C6,3.790861 7.790861,2 10,2 L18,2 Z M18,3.5 L10,3.5 C8.6745166,3.5 7.58996133,4.53153594 7.50531768,5.83562431 L7.5,6 C7.5,6.77969612 6.90511192,7.42044868 6.14446001,7.49313342 L6,7.5 C4.6745166,7.5 3.58996133,8.53153594 3.50531768,9.83562431 L3.5,10 L3.5,18 C3.5,19.3254834 4.53153594,20.4100387 5.83562431,20.4946823 L6,20.5 L14,20.5 C15.3254834,20.5 16.4100387,19.4684641 16.4946823,18.1643757 L16.5,18 C16.5,17.233786 17.0752226,16.5992143 17.8214143,16.5105723 L17.9632301,16.5004507 L18.1260006,16.4969134 C19.3966727,16.4344567 20.4121776,15.4237209 20.494597,14.1654663 L20.5,14 L20.5,6 C20.5,4.6745166 19.4684641,3.58996133 18.1643757,3.50531768 L18,3.5 Z M12,7.25 C12.3796958,7.25 12.693491,7.53215388 12.7431534,7.89822944 L12.75,8 L12.75,11.25 L16,11.25 C16.4142136,11.25 16.75,11.5857864 16.75,12 C16.75,12.3796958 16.4678461,12.693491 16.1017706,12.7431534 L16,12.75 L12.75,12.75 L12.75,16 C12.75,16.4142136 12.4142136,16.75 12,16.75 C11.6203042,16.75 11.306509,16.4678461 11.2568466,16.1017706 L11.25,16 L11.25,12.75 L8,12.75 C7.58578644,12.75 7.25,12.4142136 7.25,12 C7.25,11.6203042 7.53215388,11.306509 7.89822944,11.2568466 L8,11.25 L11.25,11.25 L11.25,8 C11.25,7.58578644 11.5857864,7.25 12,7.25 Z" id="_path-1"/>
    </defs>
    <g id="_ic_gallery_album_compose" stroke="none" stroke-width="1" fill="none" fill-rule="evenodd">
        <mask id="_mask-2" fill="white">
            <use xlink:href="#_path-1"/>
        </mask>
        <use id="_形状结合" fill="#000000" fill-rule="nonzero" xlink:href="#_path-1"/>
    </g>
</svg>