<?xml version="1.0" encoding="UTF-8"?>
<svg xmlns="http://www.w3.org/2000/svg" xmlns:xlink="http://www.w3.org/1999/xlink" width="24" height="24" viewBox="0 0 24 24" version="1.1">
    <title>ic_ai_photography_normal</title>
    <g id="_ic_ai_photography_normal" stroke="none" stroke-width="1" fill="none" fill-rule="evenodd">
        <path d="M21.9487284,12.3926689 C22.2418428,12.3965136 22.4767595,12.6402222 22.4731252,12.9362693 L22.4650668,13.2387579 C22.3157193,16.8433919 20.3109552,20.043813 17.2389677,21.7519211 C16.9817286,21.8947107 16.6585853,21.8002334 16.5172101,21.540689 C16.3753034,21.2806078 16.4693764,20.9542314 16.726084,20.8111733 C19.4757254,19.2820892 21.2692239,16.4195857 21.4031583,13.1936664 L21.4100676,12.9225808 C21.4140538,12.6262654 21.6550825,12.3889983 21.9487284,12.3926689 Z M2.05127744,12.3926689 C2.34492298,12.3889983 2.5859515,12.6262654 2.5896719,12.9225808 L2.59684695,13.1936664 C2.73078121,16.4195857 4.52427786,19.2820892 7.2739163,20.8111733 C7.53062363,20.9542314 7.6246965,21.2806078 7.48278996,21.540689 C7.34141491,21.8002334 7.01827194,21.8947107 6.76076738,21.7519211 C3.68904894,20.043813 1.68428694,16.8433919 1.53493961,13.2387579 L1.52686859,12.9362693 C1.52298119,12.6402222 1.75789763,12.3965136 2.05127744,12.3926689 Z M12,4.62497261 C16.418278,4.62497261 20,8.20669461 20,12.6249726 C20,17.0432506 16.418278,20.6249726 12,20.6249726 C7.581722,20.6249726 4,17.0432506 4,12.6249726 C4,8.20669461 7.581722,4.62497261 12,4.62497261 Z M12,5.92331245 C8.2987753,5.92331245 5.29833984,8.92374791 5.29833984,12.6249726 C5.29833984,16.3261973 8.2987753,19.3266328 12,19.3266328 C15.7012247,19.3266328 18.7016602,16.3261973 18.7016602,12.6249726 C18.7016602,8.92374791 15.7012247,5.92331245 12,5.92331245 Z M11.1273154,9.218 L13.8003154,15.806 L12.4593154,15.806 L11.8668426,14.258 L9.2818426,14.258 L8.71531537,15.806 L7.46431537,15.806 L10.0383154,9.218 L11.1273154,9.218 Z M15.5500658,9.218 L15.5500658,15.806 L14.2990658,15.806 L14.2990658,9.218 L15.5500658,9.218 Z M10.5458426,10.804 L9.6728426,13.187 L11.4568426,13.187 L10.5458426,10.804 Z M12.5013413,2.19063439 C14.1754459,2.26062429 15.7755227,2.73197936 17.1944334,3.55382232 C17.4517809,3.70295465 17.5395374,4.03217638 17.3906743,4.28952386 C17.241542,4.54660215 16.912051,4.63462791 16.6544344,4.48549558 C15.3854636,3.75033243 13.9552469,3.32931625 12.456117,3.26632534 C10.6678751,3.19148998 8.93508662,3.63350313 7.42788101,4.52345164 C7.17187949,4.67473751 6.84158099,4.58967286 6.69029513,4.33340214 C6.53927846,4.07740062 6.62407391,3.74710212 6.88034463,3.59635464 C8.5657553,2.60142127 10.503668,2.1069157 12.5013413,2.19063439 Z" id="_形状结合" fill="#000000"/>
    </g>
</svg>