<?xml version="1.0" encoding="UTF-8"?>
<svg xmlns="http://www.w3.org/2000/svg" xmlns:xlink="http://www.w3.org/1999/xlink" width="24" height="24" viewBox="0 0 24 24" version="1.1">
    <title>ic_gallery_frame_overlay_soundphoto</title>
    <g id="_ic_gallery_frame_overlay_soundphoto" stroke="none" stroke-width="1" fill="none" fill-rule="evenodd">
        <path d="M18,2 C20.209139,2 22,3.790861 22,6 L22,10 C22,10.4142136 21.6642136,10.75 21.25,10.75 C20.8703042,10.75 20.556509,10.4678461 20.5068466,10.1017706 L20.5,10 L20.5,6 C20.5,4.6745166 19.4684641,3.58996133 18.1643757,3.50531768 L18,3.5 L6,3.5 C4.6745166,3.5 3.58996133,4.53153594 3.50531768,5.83562431 L3.5,6 L3.5,18 C3.5,18.1382449 3.51122106,18.2738689 3.53280207,18.406011 L7.46966991,14.4696699 C8.86713263,13.0722072 11.1328674,13.0722072 12.5303301,14.4696699 C12.8232233,14.7625631 12.8232233,15.2374369 12.5303301,15.5303301 C12.2374369,15.8232233 11.7625631,15.8232233 11.4696699,15.5303301 C10.6985774,14.7592376 9.47234432,14.720683 8.65573778,15.4146662 L8.53033009,15.5303301 L4.2628734,19.7978884 C4.67585173,20.1969951 5.22595303,20.4551108 5.83562431,20.4946823 L6,20.5 L13,20.5 C13.4142136,20.5 13.75,20.8357864 13.75,21.25 C13.75,21.6296958 13.4678461,21.943491 13.1017706,21.9931534 L13,22 L6,22 C3.790861,22 2,20.209139 2,18 L2,6 C2,3.790861 3.790861,2 6,2 L18,2 Z M19.5,12.25 C19.8796958,12.25 20.193491,12.5321539 20.2431534,12.8982294 L20.25,13 L20.25,21 C20.25,21.4142136 19.9142136,21.75 19.5,21.75 C19.1203042,21.75 18.806509,21.4678461 18.7568466,21.1017706 L18.75,21 L18.75,13 C18.75,12.5857864 19.0857864,12.25 19.5,12.25 Z M22,14.25 C22.3796958,14.25 22.693491,14.5321539 22.7431534,14.8982294 L22.75,15 L22.75,19 C22.75,19.4142136 22.4142136,19.75 22,19.75 C21.6203042,19.75 21.306509,19.4678461 21.2568466,19.1017706 L21.25,19 L21.25,15 C21.25,14.5857864 21.5857864,14.25 22,14.25 Z M17,14.25 C17.3796958,14.25 17.693491,14.5321539 17.7431534,14.8982294 L17.75,15 L17.75,19 C17.75,19.4142136 17.4142136,19.75 17,19.75 C16.6203042,19.75 16.306509,19.4678461 16.2568466,19.1017706 L16.25,19 L16.25,15 C16.25,14.5857864 16.5857864,14.25 17,14.25 Z M14.5,15.25 C14.8796958,15.25 15.193491,15.5321539 15.2431534,15.8982294 L15.25,16 L15.25,18 C15.25,18.4142136 14.9142136,18.75 14.5,18.75 C14.1203042,18.75 13.806509,18.4678461 13.7568466,18.1017706 L13.75,18 L13.75,16 C13.75,15.5857864 14.0857864,15.25 14.5,15.25 Z M8.25,7.25 C9.21649831,7.25 10,8.03350169 10,9 C10,9.96649831 9.21649831,10.75 8.25,10.75 C7.28350169,10.75 6.5,9.96649831 6.5,9 C6.5,8.03350169 7.28350169,7.25 8.25,7.25 Z" id="_形状结合" fill="#000000"/>
    </g>
</svg>