<?xml version="1.0" encoding="UTF-8"?>
<svg xmlns="http://www.w3.org/2000/svg" xmlns:xlink="http://www.w3.org/1999/xlink" width="24" height="24" viewBox="0 0 24 24" version="1.1">
    <title>ic_template</title>
    <defs>
        <path d="M18,2 C20.209139,2 22,3.790861 22,6 L22,18 C22,20.209139 20.209139,22 18,22 L6,22 C3.790861,22 2,20.209139 2,18 L2,6 C2,3.790861 3.790861,2 6,2 L18,2 Z M20.5,8.75 L3.5,8.75 L3.5,18 C3.5,19.3254834 4.53153594,20.4100387 5.83562431,20.4946823 L6,20.5 L18,20.5 C19.3254834,20.5 20.4100387,19.4684641 20.4946823,18.1643757 L20.5,18 L20.5,8.75 Z M18,3.5 L6,3.5 C4.6745166,3.5 3.58996133,4.53153594 3.50531768,5.83562431 L3.5,6 L3.5,7.25 L20.5,7.25 L20.5,6 C20.5,4.6745166 19.4684641,3.58996133 18.1643757,3.50531768 L18,3.5 Z M10.6,11.4392305 C10.705322,11.4392305 10.8087885,11.4669542 10.9,11.5196152 L14.2961524,13.4803848 C14.583128,13.6460702 14.6814531,14.0130244 14.5157677,14.3 C14.4631067,14.3912115 14.3873639,14.4669542 14.2961524,14.5196152 L10.9,16.4803848 C10.6130244,16.6460702 10.2460702,16.5477451 10.0803848,16.2607695 C10.0277238,16.169558 10,16.0660915 10,15.9607695 L10,12.0392305 C10,11.7078596 10.2686292,11.4392305 10.6,11.4392305 Z M16.5168645,2 L18.7008658,7.7330035 L17.2991342,8.2669965 L15.483,3.5 L12.087,3.5 L14.088293,8.75 L7.48313553,8.75 L5.2991342,3.0169965 L6.7008658,2.4830035 L8.516,7.25 L11.912,7.25 L9.91170696,2 L16.5168645,2 Z" id="_path-1"/>
    </defs>
    <g id="_ic_template" stroke="none" stroke-width="1" fill="none" fill-rule="evenodd">
        <mask id="_mask-2" fill="white">
            <use xlink:href="#_path-1"/>
        </mask>
        <use id="_形状结合" fill="#000000" fill-rule="nonzero" xlink:href="#_path-1"/>
    </g>
</svg>