<?xml version="1.0" encoding="UTF-8"?>
<svg xmlns="http://www.w3.org/2000/svg" xmlns:xlink="http://www.w3.org/1999/xlink" width="24" height="24" viewBox="0 0 24 24" version="1.1">
    <title>ic_gallery_frame_overlay_aperture</title>
    <defs>
        <path d="M12,1 C18.0751322,1 23,5.92486775 23,12 C23,18.0751322 18.0751322,23 12,23 C5.92486775,23 1,18.0751322 1,12 C1,5.92486775 5.92486775,1 12,1 Z M12,2.5 C6.75329488,2.5 2.5,6.75329488 2.5,12 C2.5,17.2467051 6.75329488,21.5 12,21.5 C17.2467051,21.5 21.5,17.2467051 21.5,12 C21.5,6.75329488 17.2467051,2.5 12,2.5 Z M15.117,13.499 L17.5684157,17.7439396 C16.128223,19.140393 14.1644975,20 12,20 C11.79074,20 11.5833566,19.9919655 11.3781413,19.9761882 L15.117,13.499 Z M12.259,15.449 L9.80883358,19.6962116 C7.58785468,19.065101 5.76053899,17.498536 4.77981966,15.4494499 L12.259,15.449 Z M14.857,10.049 L19.7606137,10.0498107 C19.9169752,10.6740235 20,11.327316 20,12 C20,13.6803685 19.4819223,15.2397335 18.5967831,16.5270789 L14.857,10.049 Z M5.40321692,7.47292111 L9.142,13.949 L4.2391347,13.9491847 C4.08293577,13.3252755 4,12.6723231 4,12 C4,10.3196315 4.51807765,8.76026653 5.40321692,7.47292111 Z M12,4 C12.20926,4 12.4166434,4.00803449 12.6218587,4.02381181 L8.882,10.499 L6.4315843,6.25606035 C7.87177704,4.85960704 9.83550253,4 12,4 Z M14.1911664,4.30378836 C16.4117866,4.93479709 18.2388708,6.50095799 19.2197051,8.54955732 L11.74,8.549 L14.1911664,4.30378836 Z" id="_path-1"/>
    </defs>
    <g id="_ic_gallery_frame_overlay_aperture" stroke="none" stroke-width="1" fill="none" fill-rule="evenodd">
        <mask id="_mask-2" fill="white">
            <use xlink:href="#_path-1"/>
        </mask>
        <use id="_形状结合" fill="#000000" fill-rule="nonzero" xlink:href="#_path-1"/>
    </g>
</svg>