<?xml version="1.0" encoding="UTF-8"?>
<svg xmlns="http://www.w3.org/2000/svg" xmlns:xlink="http://www.w3.org/1999/xlink" width="24" height="24" viewBox="0 0 24 24" version="1.1">
    <title>org_to_fov</title>
    <g id="_org_to_fov" stroke="none" stroke-width="1" fill="none" fill-rule="evenodd">
        <path d="M2.75,14.5 C3.16421356,14.5 3.5,14.8357864 3.5,15.25 L3.5,15.25 L3.5,18 C3.5,19.3254834 4.53153594,20.4100387 5.83562431,20.4946823 L6,20.5 L8.75,20.5 C9.16421356,20.5 9.5,20.8357864 9.5,21.25 C9.5,21.6642136 9.16421356,22 8.75,22 L8.75,22 L6,22 C3.790861,22 2,20.209139 2,18 L2,15.25 L2.00684662,15.1482294 C2.05650904,14.7821539 2.37030423,14.5 2.75,14.5 Z M21.25,14.5 C21.6642136,14.5 22,14.8357864 22,15.25 L22,15.25 L22,18 C22,20.209139 20.209139,22 18,22 L15.25,22 L15.1482294,21.9931534 C14.7821539,21.943491 14.5,21.6296958 14.5,21.25 C14.5,20.8357864 14.8357864,20.5 15.25,20.5 L15.25,20.5 L18,20.5 C19.3254834,20.5 20.4100387,19.4684641 20.4946823,18.1643757 L20.5,18 L20.5,15.25 L20.5068466,15.1482294 C20.556509,14.7821539 20.8703042,14.5 21.25,14.5 Z M8.75,2 C9.16421356,2 9.5,2.33578644 9.5,2.75 C9.5,3.16421356 9.16421356,3.5 8.75,3.5 L8.75,3.5 L6,3.5 C4.6745166,3.5 3.58996133,4.53153594 3.50531768,5.83562431 L3.5,6 L3.5,8.75 C3.5,9.16421356 3.16421356,9.5 2.75,9.5 C2.33578644,9.5 2,9.16421356 2,8.75 L2,8.75 L2,6 C2,3.790861 3.790861,2 6,2 Z M20.5,6 C20.5,4.6745166 19.4684641,3.58996133 18.1643757,3.50531768 L18,3.5 L15.25,3.5 L15.1482294,3.49315338 C14.7821539,3.44349096 14.5,3.12969577 14.5,2.75 C14.5,2.33578644 14.8357864,2 15.25,2 L15.25,2 L18,2 C20.209139,2 22,3.790861 22,6 L22,8.75 C22,9.16421356 21.6642136,9.5 21.25,9.5 C20.8357864,9.5 20.5,9.16421356 20.5,8.75 L20.5,8.75 L20.5,6 Z" id="_形状结合" fill="#000000" fill-rule="nonzero"/>
        <path d="M16,6 C17.1045695,6 18,6.8954305 18,8 L18,16 C18,17.1045695 17.1045695,18 16,18 L8,18 C6.8954305,18 6,17.1045695 6,16 L6,8 C6,6.8954305 6.8954305,6 8,6 L16,6 Z M16,7.5 L8,7.5 C7.75454011,7.5 7.55039163,7.67687516 7.50805567,7.91012437 L7.5,8 L7.5,16 C7.5,16.2454599 7.67687516,16.4496084 7.91012437,16.4919443 L8,16.5 L16,16.5 C16.2454599,16.5 16.4496084,16.3231248 16.4919443,16.0898756 L16.5,16 L16.5,8 C16.5,7.75454011 16.3231248,7.55039163 16.0898756,7.50805567 L16,7.5 Z" id="_矩形" fill="#000000" fill-rule="nonzero"/>
    </g>
</svg>