<?xml version="1.0" encoding="UTF-8"?>
<svg xmlns="http://www.w3.org/2000/svg" xmlns:xlink="http://www.w3.org/1999/xlink" width="24" height="24" viewBox="0 0 24 24" version="1.1">
    <title>ic_gallery_fliter_10</title>
    <g id="_ic_gallery_fliter_10" stroke="none" stroke-width="1" fill="none" fill-rule="evenodd">
        <path d="M19.4302195,10.6613305 C19.6803274,10.7800031 19.9233733,10.9157625 20.1580875,11.0681877 C23.041606,12.9407665 23.8611345,16.7963451 21.9885557,19.6798636 C20.1159769,22.563382 16.2603983,23.3829105 13.3768799,21.5103318 L13.2091379,21.3975523 C12.8691339,21.1609723 12.7852921,20.6935585 13.0218722,20.3535544 C13.2584522,20.0135504 13.7258659,19.9297086 14.06587,20.1662886 L14.1938384,20.2523259 C16.3825795,21.6737109 19.3091648,21.051646 20.7305499,18.862905 C22.1519349,16.674164 21.52987,13.7475786 19.341129,12.3261936 C19.1622157,12.2100059 18.9772816,12.1067063 18.7872033,12.0165169 C18.4129789,11.8389529 18.2535542,11.39164 18.4311182,11.0174156 C18.6086822,10.6431912 19.0559951,10.4837665 19.4302195,10.6613305 Z M4.56401866,10.6613305 C4.93824305,10.4837665 5.38555594,10.6431912 5.56311997,11.0174156 C5.740684,11.39164 5.58125928,11.8389529 5.2070349,12.0165169 C5.01695658,12.1067063 4.83202248,12.2100059 4.65310919,12.3261936 C2.46436819,13.7475786 1.84230326,16.674164 3.26368829,18.862905 C4.68507332,21.051646 7.61165871,21.6737109 9.80039971,20.2523259 L9.80039971,20.2523259 L9.92836815,20.1662886 C10.2683722,19.9297086 10.735786,20.0135504 10.972366,20.3535544 C11.208946,20.6935585 11.1251043,21.1609723 10.7851002,21.3975523 C10.7298755,21.4359785 10.6739573,21.4735759 10.6173583,21.5103318 L10.6173583,21.5103318 L10.423716,21.6311889 C7.56346002,23.3454678 3.83664835,22.4993038 2.00568244,19.6798636 C0.133103659,16.7963451 0.952632189,12.9407665 3.83615064,11.0681877 C4.07086486,10.9157625 4.31391073,10.7800031 4.56401866,10.6613305 Z M16.7572146,10.0970879 C17.0962071,10.0970879 17.4351995,10.1253755 17.7741919,10.1819505 C16.9832096,12.1903661 15.2034994,13.7178934 13.0000487,14.0856315 L13.0000487,14.0856315 L13.0993629,14.3440868 C13.3156471,14.9559154 13.4237892,15.6273026 13.4237892,16.3203474 C13.4237892,17.8478747 12.8870512,19.2339643 11.9830714,20.3088909 C11.0790916,19.2339643 10.5423536,17.8478747 10.5423536,16.3203474 C10.5423536,15.5282962 10.7118499,14.7928201 10.9660942,14.0856315 L10.9660942,14.0856315 L10.7137625,14.0382125 C8.62720528,13.6017722 6.95251086,12.1403189 6.19195095,10.1819505 C6.53094337,10.1253755 6.86993578,10.0970879 7.2089282,10.0970879 C9.12988524,10.0970879 10.8530967,10.9740017 11.9830714,12.3318038 L11.9830714,12.3318038 L12.1484893,12.1411462 C13.2776099,10.8924746 14.9277318,10.0970879 16.7572146,10.0970879 Z M11.9891495,1.72367888 C15.4273511,1.72367888 18.2145641,4.51089194 18.2145641,7.9490935 C18.2145641,8.23298846 18.1955122,8.51473062 18.1577627,8.79296836 C18.1020752,9.20342148 17.7241935,9.4910158 17.3137404,9.43532825 C16.9032872,9.37964069 16.6156929,9.001759 16.6713805,8.59130587 C16.7000681,8.37985964 16.7145641,8.16549067 16.7145641,7.9490935 C16.7145641,5.33931907 14.5989239,3.22367888 11.9891495,3.22367888 C9.37937508,3.22367888 7.26373489,5.33931907 7.26373489,7.9490935 C7.26373489,8.16242314 7.27782288,8.37378293 7.30570775,8.58231669 C7.36060723,8.99287597 7.072288,9.37020485 6.66172872,9.42510433 C6.25116944,9.48000381 5.87384056,9.19168457 5.81894108,8.78112529 C5.78224974,8.50673341 5.76373489,8.22895812 5.76373489,7.9490935 C5.76373489,4.51089194 8.55094796,1.72367888 11.9891495,1.72367888 Z" id="_形状结合" fill="#000000" fill-rule="nonzero"/>
    </g>
</svg>