<?xml version="1.0" encoding="UTF-8"?>
<svg xmlns="http://www.w3.org/2000/svg" xmlns:xlink="http://www.w3.org/1999/xlink" width="24" height="24" viewBox="0 0 24 24" version="1.1">
    <title>ic_gallery_wallpaper_scrollable_actived</title>
    <defs>
        <path d="M19,3 C21.209139,3 23,4.790861 23,7 L23,17 C23,19.209139 21.209139,21 19,21 L5,21 C2.790861,21 1,19.209139 1,17 L1,7 C1,4.790861 2.790861,3 5,3 L19,3 Z M17.75,17 L16.25,17 L16.25,19 L17.75,19 L17.75,17 Z M7.75,17 L6.25,17 L6.25,19 L7.75,19 L7.75,17 Z M17.75,13 L16.25,13 L16.25,15 L17.75,15 L17.75,13 Z M7.75,13 L6.25,13 L6.25,15 L7.75,15 L7.75,13 Z M17.75,9 L16.25,9 L16.25,11 L17.75,11 L17.75,9 Z M7.75,9 L6.25,9 L6.25,11 L7.75,11 L7.75,9 Z M17.75,5 L16.25,5 L16.25,7 L17.75,7 L17.75,5 Z M7.75,5 L6.25,5 L6.25,7 L7.75,7 L7.75,5 Z" id="_path-1"/>
    </defs>
    <g id="_ic_gallery_wallpaper_scrollable_actived" stroke="none" stroke-width="1" fill="none" fill-rule="evenodd">
        <mask id="_mask-2" fill="white">
            <use xlink:href="#_path-1"/>
        </mask>
        <use id="_形状结合" fill="#000000" fill-rule="nonzero" xlink:href="#_path-1"/>
    </g>
</svg>