<?xml version="1.0" encoding="UTF-8"?>
<svg xmlns="http://www.w3.org/2000/svg" xmlns:xlink="http://www.w3.org/1999/xlink" width="24" height="24" viewBox="0 0 24 24" version="1.1">
    <title>ic_gallery_fullscreen</title>
    <g id="_ic_gallery_fullscreen" stroke="none" stroke-width="1" fill="none" fill-rule="evenodd">
        <rect id="_形状结合" fill-opacity="0.2" fill="#000000" x="2" y="2" width="20" height="20" rx="4"/>
        <path d="M18,12.25 C18.3796958,12.25 18.693491,12.5321539 18.7431534,12.8982294 L18.75,13 L18.75,17 C18.75,17.9181734 18.0428897,18.6711923 17.1435272,18.7441988 L17,18.75 L13,18.75 C12.5857864,18.75 12.25,18.4142136 12.25,18 C12.25,17.6203042 12.5321539,17.306509 12.8982294,17.2568466 L13,17.25 L17,17.25 C17.1183467,17.25 17.2174868,17.1677666 17.2433973,17.0573227 L17.25,17 L17.25,13 C17.25,12.5857864 17.5857864,12.25 18,12.25 Z M11,5.25 C11.4142136,5.25 11.75,5.58578644 11.75,6 C11.75,6.37969577 11.4678461,6.69349096 11.1017706,6.74315338 L11,6.75 L7,6.75 C6.88165327,6.75 6.78251318,6.83223341 6.75660268,6.94267729 L6.75,7 L6.75,11 C6.75,11.4142136 6.41421356,11.75 6,11.75 C5.62030423,11.75 5.30650904,11.4678461 5.25684662,11.1017706 L5.25,11 L5.25,7 C5.25,6.0818266 5.95711027,5.32880766 6.85647279,5.2558012 L7,5.25 L11,5.25 Z" id="_形状结合" fill="#FFFFFF" fill-rule="nonzero"/>
    </g>
</svg>