<?xml version="1.0" encoding="UTF-8"?>
<svg xmlns="http://www.w3.org/2000/svg" xmlns:xlink="http://www.w3.org/1999/xlink" width="24" height="24" viewBox="0 0 24 24" version="1.1">
    <title>ic_gallery_frame_overlay_camera_livephoto</title>
    <g id="_ic_gallery_frame_overlay_camera_livephoto" stroke="none" stroke-width="1" fill="none" fill-rule="evenodd">
        <path d="M12,20.5 C12.4142136,20.5 12.75,20.8357864 12.75,21.25 C12.75,21.6642136 12.4142136,22 12,22 C11.5857864,22 11.25,21.6642136 11.25,21.25 C11.25,20.8357864 11.5857864,20.5 12,20.5 Z M15.1185205,20.7406996 C15.2257269,21.1407992 14.98829,21.5520519 14.5881905,21.6592583 C14.1880909,21.7664646 13.7768382,21.5290278 13.6696318,21.1289282 C13.5624254,20.7288286 13.7998623,20.3175759 14.1999619,20.2103695 C14.6000615,20.1031632 15.0113142,20.3406 15.1185205,20.7406996 Z M9.80003812,20.2103695 C10.2001377,20.3175759 10.4375746,20.7288286 10.3303682,21.1289282 C10.2231618,21.5290278 9.81190913,21.7664646 9.41180955,21.6592583 C9.01170997,21.5520519 8.7742731,21.1407992 8.88147946,20.7406996 C8.98868582,20.3406 9.39993854,20.1031632 9.80003812,20.2103695 Z M17.2745191,19.635735 C17.4816258,19.9944545 17.3587195,20.4531473 17,20.660254 C16.6412805,20.8673608 16.1825877,20.7444545 15.9754809,20.385735 C15.7683742,20.0270155 15.8912805,19.5683227 16.25,19.3612159 C16.6087195,19.1541092 17.0674123,19.2770155 17.2745191,19.635735 Z M7.75,19.3612159 C8.10871947,19.5683227 8.23162583,20.0270155 8.02451905,20.385735 C7.81741227,20.7444545 7.35871947,20.8673608 7,20.660254 C6.64128053,20.4531473 6.51837417,19.9944545 6.72548095,19.635735 C6.93258773,19.2770155 7.39128053,19.1541092 7.75,19.3612159 Z M19.0710678,18.0104076 C19.363961,18.3033009 19.363961,18.7781746 19.0710678,19.0710678 C18.7781746,19.363961 18.3033009,19.363961 18.0104076,19.0710678 C17.7175144,18.7781746 17.7175144,18.3033009 18.0104076,18.0104076 C18.3033009,17.7175144 18.7781746,17.7175144 19.0710678,18.0104076 Z M5.98959236,18.0104076 C6.28248558,18.3033009 6.28248558,18.7781746 5.98959236,19.0710678 C5.69669914,19.363961 5.22182541,19.363961 4.92893219,19.0710678 C4.63603897,18.7781746 4.63603897,18.3033009 4.92893219,18.0104076 C5.22182541,17.7175144 5.69669914,17.7175144 5.98959236,18.0104076 Z M12,5 C15.8659932,5 19,8.13400675 19,12 C19,15.8659932 15.8659932,19 12,19 C8.13400675,19 5,15.8659932 5,12 C5,8.13400675 8.13400675,5 12,5 Z M12,6.5 C8.96243388,6.5 6.5,8.96243388 6.5,12 C6.5,15.0375661 8.96243388,17.5 12,17.5 C15.0375661,17.5 17.5,15.0375661 17.5,12 C17.5,8.96243388 15.0375661,6.5 12,6.5 Z M20.385735,15.9754809 C20.7444545,16.1825877 20.8673608,16.6412805 20.660254,17 C20.4531473,17.3587195 19.9944545,17.4816258 19.635735,17.2745191 C19.2770155,17.0674123 19.1541092,16.6087195 19.3612159,16.25 C19.5683227,15.8912805 20.0270155,15.7683742 20.385735,15.9754809 Z M4.63878407,16.25 C4.84589085,16.6087195 4.72298448,17.0674123 4.36426501,17.2745191 C4.00554555,17.4816258 3.54685274,17.3587195 3.33974596,17 C3.13263918,16.6412805 3.25554555,16.1825877 3.61426501,15.9754809 C3.97298448,15.7683742 4.43167729,15.8912805 4.63878407,16.25 Z M12,8 C14.209139,8 16,9.790861 16,12 C16,14.209139 14.209139,16 12,16 C9.790861,16 8,14.209139 8,12 C8,9.790861 9.790861,8 12,8 Z M21.1289282,13.6696318 C21.5290278,13.7768382 21.7664646,14.1880909 21.6592583,14.5881905 C21.5520519,14.98829 21.1407992,15.2257269 20.7406996,15.1185205 C20.3406,15.0113142 20.1031632,14.6000615 20.2103695,14.1999619 C20.3175759,13.7998623 20.7288286,13.5624254 21.1289282,13.6696318 Z M3.78963048,14.1999619 C3.89683684,14.6000615 3.65939997,15.0113142 3.25930039,15.1185205 C2.85920081,15.2257269 2.4479481,14.98829 2.34074174,14.5881905 C2.23353538,14.1880909 2.47097225,13.7768382 2.87107182,13.6696318 C3.2711714,13.5624254 3.68242412,13.7998623 3.78963048,14.1999619 Z M12,9.5 C10.6192881,9.5 9.5,10.6192881 9.5,12 C9.5,13.3807119 10.6192881,14.5 12,14.5 C13.3807119,14.5 14.5,13.3807119 14.5,12 C14.5,10.6192881 13.3807119,9.5 12,9.5 Z M21.25,11.25 C21.6642136,11.25 22,11.5857864 22,12 C22,12.4142136 21.6642136,12.75 21.25,12.75 C20.8357864,12.75 20.5,12.4142136 20.5,12 C20.5,11.5857864 20.8357864,11.25 21.25,11.25 Z M2.75,11.25 C3.16421356,11.25 3.5,11.5857864 3.5,12 C3.5,12.4142136 3.16421356,12.75 2.75,12.75 C2.33578644,12.75 2,12.4142136 2,12 C2,11.5857864 2.33578644,11.25 2.75,11.25 Z M21.6592583,9.41180955 C21.7664646,9.81190913 21.5290278,10.2231618 21.1289282,10.3303682 C20.7288286,10.4375746 20.3175759,10.2001377 20.2103695,9.80003812 C20.1031632,9.39993854 20.3406,8.98868582 20.7406996,8.88147946 C21.1407992,8.7742731 21.5520519,9.01170997 21.6592583,9.41180955 Z M3.25930039,8.88147946 C3.65939997,8.98868582 3.89683684,9.39993854 3.78963048,9.80003812 C3.68242412,10.2001377 3.2711714,10.4375746 2.87107182,10.3303682 C2.47097225,10.2231618 2.23353538,9.81190913 2.34074174,9.41180955 C2.4479481,9.01170997 2.85920081,8.7742731 3.25930039,8.88147946 Z M20.660254,7 C20.8673608,7.35871947 20.7444545,7.81741227 20.385735,8.02451905 C20.0270155,8.23162583 19.5683227,8.10871947 19.3612159,7.75 C19.1541092,7.39128053 19.2770155,6.93258773 19.635735,6.72548095 C19.9944545,6.51837417 20.4531473,6.64128053 20.660254,7 Z M4.36426501,6.72548095 C4.72298448,6.93258773 4.84589085,7.39128053 4.63878407,7.75 C4.43167729,8.10871947 3.97298448,8.23162583 3.61426501,8.02451905 C3.25554555,7.81741227 3.13263918,7.35871947 3.33974596,7 C3.54685274,6.64128053 4.00554555,6.51837417 4.36426501,6.72548095 Z M19.0710678,4.92893219 C19.363961,5.22182541 19.363961,5.69669914 19.0710678,5.98959236 C18.7781746,6.28248558 18.3033009,6.28248558 18.0104076,5.98959236 C17.7175144,5.69669914 17.7175144,5.22182541 18.0104076,4.92893219 C18.3033009,4.63603897 18.7781746,4.63603897 19.0710678,4.92893219 Z M5.98959236,4.92893219 C6.28248558,5.22182541 6.28248558,5.69669914 5.98959236,5.98959236 C5.69669914,6.28248558 5.22182541,6.28248558 4.92893219,5.98959236 C4.63603897,5.69669914 4.63603897,5.22182541 4.92893219,4.92893219 C5.22182541,4.63603897 5.69669914,4.63603897 5.98959236,4.92893219 Z M17,3.33974596 C17.3587195,3.54685274 17.4816258,4.00554555 17.2745191,4.36426501 C17.0674123,4.72298448 16.6087195,4.84589085 16.25,4.63878407 C15.8912805,4.43167729 15.7683742,3.97298448 15.9754809,3.61426501 C16.1825877,3.25554555 16.6412805,3.13263918 17,3.33974596 Z M8.02451905,3.61426501 C8.23162583,3.97298448 8.10871947,4.43167729 7.75,4.63878407 C7.39128053,4.84589085 6.93258773,4.72298448 6.72548095,4.36426501 C6.51837417,4.00554555 6.64128053,3.54685274 7,3.33974596 C7.35871947,3.13263918 7.81741227,3.25554555 8.02451905,3.61426501 Z M14.5881905,2.34074174 C14.98829,2.4479481 15.2257269,2.85920081 15.1185205,3.25930039 C15.0113142,3.65939997 14.6000615,3.89683684 14.1999619,3.78963048 C13.7998623,3.68242412 13.5624254,3.2711714 13.6696318,2.87107182 C13.7768382,2.47097225 14.1880909,2.23353538 14.5881905,2.34074174 Z M10.3303682,2.87107182 C10.4375746,3.2711714 10.2001377,3.68242412 9.80003812,3.78963048 C9.39993854,3.89683684 8.98868582,3.65939997 8.88147946,3.25930039 C8.7742731,2.85920081 9.01170997,2.4479481 9.41180955,2.34074174 C9.81190913,2.23353538 10.2231618,2.47097225 10.3303682,2.87107182 Z M12,2 C12.4142136,2 12.75,2.33578644 12.75,2.75 C12.75,3.16421356 12.4142136,3.5 12,3.5 C11.5857864,3.5 11.25,3.16421356 11.25,2.75 C11.25,2.33578644 11.5857864,2 12,2 Z" id="_形状" fill="#000000" fill-rule="nonzero"/>
    </g>
</svg>