<?xml version="1.0" encoding="UTF-8"?>
<svg xmlns="http://www.w3.org/2000/svg" xmlns:xlink="http://www.w3.org/1999/xlink" width="24" height="24" viewBox="0 0 24 24" version="1.1">
    <title>ic_gallery_info_aperture_for_black_bg</title>
    <g id="_ic_gallery_info_aperture_for_black_bg" stroke="none" stroke-width="1" fill="none" fill-rule="evenodd">
        <path d="M16.619,13.999 L19.8897456,19.66499 C17.964995,21.6458218 15.3007634,22.9042653 12.342605,22.9947661 L12,23 C11.8091617,23 11.6194584,22.9951402 11.4310072,22.9855377 L16.619,13.999 Z M12.577,16.999 L9.30606526,22.6677239 C6.20346813,21.8866735 3.62466568,19.7876163 2.19974699,17.0006412 L12.577,16.999 Z M22.5858962,8.9998627 C22.8556518,9.953567 23,10.9599263 23,12 C23,14.0778869 22.4238615,16.0212094 21.4226167,17.6789353 L21.2299385,17.9863752 L16.042,9 L22.5858962,8.9998627 Z M2.77006148,6.01362479 L7.957,14.999 L1.41438593,15.0011345 C1.16946738,14.135554 1.02785384,13.226591 1.0037074,12.2884075 L1,12 C1,9.9221131 1.57613851,7.97879057 2.57738325,6.32106468 L2.77006148,6.01362479 Z M12,1 C12.1911755,1 12.3812119,1.00487694 12.5699916,1.0145132 L7.381,10 L4.1102544,4.33500999 C6.04675256,2.34208828 8.73178605,1.08039997 11.7115925,1.0037074 L12,1 Z M14.6949359,1.33252823 C17.7974562,2.11387116 20.376102,4.21318367 21.8007622,7.00035481 L11.422,7 L14.6949359,1.33252823 Z" id="_形状结合" fill="#000000" fill-rule="nonzero"/>
    </g>
</svg>