<?xml version="1.0" encoding="utf-8"?>
<!-- Generator: Adobe Illustrator 24.3.0, SVG Export Plug-In . SVG Version: 6.00 Build 0)  -->
<svg version="1.1" id="图层_1" xmlns="http://www.w3.org/2000/svg" xmlns:xlink="http://www.w3.org/1999/xlink" x="0px" y="0px"
	 viewBox="0 0 24 24" style="enable-background:new 0 0 24 24;" xml:space="preserve">
<style type="text/css">
	.st0{fill-rule:evenodd;clip-rule:evenodd;}
</style>
<g>
	<path id="_uxs-a_1_" class="st0" d="M20.5,3.8c0,0.1,0,0.2,0,0.3l0,0.1l0,11.1l0,0l0,1.1c0,1.9-1.3,3.4-3,3.6l-0.1,0
		c-1.2,0.1-2.3-0.3-2.8-1.3c-0.8-1.3-0.1-3.1,1.4-4c0.2-0.1,0.3-0.2,0.5-0.3l0.5-0.2c0.4-0.2,0.9-0.4,1.2-0.7l0.1-0.1l0,0l0.1-0.1
		c0.3-0.3,0.6-0.7,0.6-1.5l0-0.1l0,0l0-7.5c0-0.1,0-0.1,0-0.2c-0.1-0.5-0.6-0.9-1.1-0.8l0,0L9.3,4.5C8.9,4.6,8.5,5,8.5,5.4l0,0.1v2
		L18,6.1v1.5L8.5,9.1l0,7.6l0,0.4l0,0.4l0,1.2c0,1.9-1.3,3.4-3,3.6l-0.1,0c-1.2,0.1-2.3-0.3-2.8-1.3c-0.8-1.3-0.1-3.1,1.4-4
		c0.2-0.1,0.3-0.2,0.5-0.3L5,16.5c0.4-0.2,0.9-0.4,1.2-0.7l0.1-0.1c0,0,0,0,0.1-0.1l0.1-0.1C6.7,15.3,7,14.9,7,14.1L7,14V5.5
		C7,4.3,7.9,3.3,9,3l0.1,0l8.5-1.3C19,1.5,20.3,2.4,20.5,3.8z M7,17c-0.3,0.3-0.7,0.5-1.3,0.7l-0.6,0.3L5,18.1l-0.1,0l-0.1,0l-0.1,0
		c-0.9,0.5-1.2,1.4-0.9,2c0.2,0.4,0.7,0.6,1.3,0.5l0.1,0c0.9-0.1,1.7-1,1.7-2.1l0-0.1L7,17z M19,14.8L19,14.8
		c-0.3,0.3-0.7,0.5-1.3,0.7l-0.2,0.1l-0.5,0.2L17,15.9l-0.1,0c0,0,0,0,0,0l-0.1,0c0,0,0,0,0,0c-0.9,0.5-1.2,1.4-0.9,2
		c0.2,0.4,0.7,0.6,1.3,0.5l0.1,0c0.9-0.1,1.7-1,1.7-2.1l0-0.1l0-1.2L19,14.8z"/>
</g>
</svg>
