<?xml version="1.0" encoding="UTF-8"?>
<svg xmlns="http://www.w3.org/2000/svg" xmlns:xlink="http://www.w3.org/1999/xlink" width="24" height="24" viewBox="0 0 24 24" version="1.1">
    <title>Public/ic_public_order_play</title>
    <defs>
        <path d="M21.5428932,14.5 C21.6755015,14.5 21.8026784,14.5526784 21.8964466,14.6464466 C22.0917088,14.8417088 22.0917088,15.1582912 21.8964466,15.3535534 L21.8964466,15.3535534 L19.6035534,17.6464466 C19.5097852,17.7402148 19.3826082,17.7928932 19.25,17.7928932 C18.9738576,17.7928932 18.75,17.5690356 18.75,17.2928932 L18.75,17.2928932 L18.75,15.9991068 L2.75,16 C2.37030423,16 2.05650904,15.7178461 2.00684662,15.3517706 L2,15.25 C2,14.8357864 2.33578644,14.5 2.75,14.5 L2.75,14.5 Z M19.25,6.45710678 C19.3826082,6.45710678 19.5097852,6.5097852 19.6035534,6.60355339 L21.8964466,8.89644661 C22.0917088,9.09170876 22.0917088,9.40829124 21.8964466,9.60355339 C21.8026784,9.69732158 21.6755015,9.75 21.5428932,9.75 L2.75,9.75 C2.33578644,9.75 2,9.41421356 2,9 C2,8.58578644 2.33578644,8.25 2.75,8.25 L18.75,8.24910678 L18.75,6.95710678 C18.75,6.68096441 18.9738576,6.45710678 19.25,6.45710678 Z" id="_path-1"/>
    </defs>
    <g id="_Public/ic_public_order_play" stroke="none" stroke-width="1" fill="none" fill-rule="evenodd">
        <mask id="_mask-2" fill="white">
            <use xlink:href="#_path-1"/>
        </mask>
        <use id="_合并形状" fill="#000000" xlink:href="#_path-1"/>
    </g>
</svg>